<svg xmlns="http://www.w3.org/2000/svg" width="498.0mm" height="319.0mm" viewBox="0 0 498.0 319.0">
<rect width="498.0" height="319.0" fill="white"/>
<path d="M39.000 81.100L51.000 81.100L51.000 84.000L71.000 84.000L71.000 81.100L83.000 81.100L83.000 84.000L103.000 84.000L103.000 81.100L113.100 81.100L113.100 73.000L116.000 73.000L116.000 53.000L113.100 53.000L113.100 37.000L116.000 37.000L116.000 17.000L113.100 17.000L113.100 8.900L103.000 8.900L103.000 6.000L83.000 6.000L83.000 8.900L71.000 8.900L71.000 6.000L51.000 6.000L51.000 8.900L39.000 8.900L39.000 6.000L19.000 6.000L19.000 8.900L8.900 8.900L8.900 17.000L6.000 17.000L6.000 37.000L8.900 37.000L8.900 53.000L6.000 53.000L6.000 73.000L8.900 73.000L8.900 81.100L19.000 81.100L19.000 84.000L39.000 84.000Z" fill="none" stroke="black" stroke-width="0.3"/>
<path d="M40.650 11.900L8.900 11.900L8.900 45.900L40.650 45.900Z" fill="none" stroke="red" stroke-width="0.3"/>
<path d="M9.300 45.500L9.300 12.300L40.250 12.300L40.250 45.500Z" fill="none" stroke="red" stroke-width="0.3"/>
<path d="M23.098 30.235L23.239 30.206L23.368 30.157L23.485 30.088L23.590 30.000L23.683 29.892L23.763 29.764L23.828 29.617L23.878 29.449L23.914 29.262L23.936 29.054L23.943 28.827L23.937 28.613L23.917 28.418L23.885 28.242L23.839 28.085L23.780 27.946L23.709 27.825L23.624 27.723L23.525 27.640L23.413 27.575L23.287 27.529L23.147 27.501L22.994 27.492L22.851 27.499L22.719 27.518L22.598 27.551L22.489 27.597L22.391 27.657L22.304 27.729L22.229 27.814L22.168 27.908L22.121 28.013L22.087 28.128L22.066 28.253L22.060 28.388L22.065 28.520L22.083 28.643L22.112 28.756L22.152 28.860L22.204 28.954L22.268 29.039L22.341 29.112L22.422 29.172L22.512 29.219L22.609 29.252L22.715 29.272L22.829 29.279L22.891 29.276L22.952 29.270L23.012 29.259L23.070 29.243L23.127 29.223L23.183 29.198L23.235 29.169L23.282 29.137L23.324 29.102L23.361 29.063L23.393 29.021L23.419 28.975L23.415 29.110L23.404 29.233L23.386 29.345L23.362 29.445L23.332 29.534L23.295 29.611L23.252 29.677L23.203 29.730L23.148 29.772L23.088 29.802L23.022 29.820L22.950 29.826L22.866 29.818L22.793 29.795L22.731 29.756L22.679 29.701L22.638 29.632L22.608 29.546L22.107 29.617L22.138 29.721L22.176 29.815L22.220 29.899L22.270 29.974L22.327 30.039L22.391 30.094L22.462 30.140L22.541 30.178L22.629 30.207L22.726 30.228L22.831 30.241L22.944 30.245Z" fill="none" stroke="red" stroke-width="0.3"/>
<path d="M22.924 28.878L22.871 28.867L22.822 28.848L22.777 28.822L22.737 28.789L22.701 28.748L22.671 28.701L22.645 28.649L22.626 28.592L22.612 28.530L22.604 28.464L22.601 28.392L22.604 28.319L22.612 28.252L22.626 28.191L22.646 28.134L22.671 28.083L22.702 28.038L22.738 27.999L22.778 27.967L22.823 27.942L22.871 27.924L22.924 27.913L22.981 27.910L23.039 27.914L23.093 27.926L23.143 27.947L23.189 27.975L23.232 28.012L23.270 28.057L23.303 28.109L23.331 28.166L23.352 28.229L23.367 28.298L23.376 28.373L23.379 28.453L23.376 28.516L23.367 28.574L23.351 28.629L23.329 28.679L23.301 28.724L23.266 28.765L23.227 28.801L23.185 28.830L23.139 28.853L23.090 28.869L23.038 28.879L22.982 28.882Z" fill="none" stroke="red" stroke-width="0.3"/>
<path d="M29.273 30.240L29.405 30.224L29.530 30.198L29.648 30.161L29.760 30.114L29.865 30.056L29.962 29.988L30.052 29.908L30.133 29.818L30.206 29.716L30.270 29.604L30.327 29.480L29.839 29.296L29.765 29.451L29.673 29.578L29.564 29.677L29.438 29.748L29.295 29.791L29.135 29.805L29.012 29.798L28.900 29.778L28.798 29.744L28.706 29.697L28.623 29.636L28.551 29.562L28.489 29.475L28.438 29.375L28.399 29.264L28.371 29.141L28.354 29.005L28.349 28.857L28.354 28.712L28.370 28.579L28.398 28.458L28.436 28.349L28.485 28.253L28.545 28.168L28.616 28.096L28.696 28.037L28.787 27.991L28.889 27.959L29.000 27.939L29.121 27.933L29.202 27.936L29.280 27.946L29.354 27.962L29.424 27.985L29.490 28.015L29.553 28.051L29.611 28.093L29.662 28.139L29.706 28.190L29.744 28.246L29.775 28.306L29.799 28.371L30.293 28.236L30.248 28.119L30.193 28.012L30.129 27.914L30.055 27.827L29.971 27.749L29.877 27.681L29.773 27.623L29.660 27.576L29.537 27.539L29.404 27.513L29.262 27.497L29.110 27.492L28.903 27.502L28.714 27.531L28.541 27.580L28.385 27.649L28.246 27.737L28.124 27.845L28.021 27.971L27.936 28.115L27.870 28.275L27.822 28.452L27.794 28.646L27.785 28.857L27.794 29.068L27.824 29.263L27.873 29.441L27.941 29.604L28.029 29.750L28.137 29.880L28.262 29.991L28.404 30.083L28.562 30.154L28.737 30.205L28.928 30.235L29.135 30.245Z" fill="none" stroke="red" stroke-width="0.3"/>
<path d="M25.912 29.265L26.577 29.265L26.675 29.262L26.769 29.253L26.858 29.238L26.943 29.216L27.023 29.188L27.098 29.154L27.168 29.115L27.233 29.070L27.292 29.020L27.345 28.965L27.393 28.905L27.435 28.840L27.471 28.771L27.500 28.699L27.523 28.623L27.540 28.545L27.550 28.463L27.553 28.379L27.546 28.249L27.524 28.129L27.488 28.020L27.438 27.921L27.373 27.832L27.294 27.753L27.201 27.685L27.096 27.630L26.979 27.587L26.850 27.556L26.708 27.538L26.554 27.532L25.352 27.532L25.352 30.207L25.912 30.207Z" fill="none" stroke="red" stroke-width="0.3"/>
<path d="M25.912 28.834L25.912 27.967L26.491 27.967L26.643 27.978L26.768 28.014L26.865 28.072L26.934 28.154L26.975 28.259L26.989 28.388L26.985 28.458L26.975 28.521L26.958 28.579L26.933 28.632L26.902 28.678L26.864 28.720L26.819 28.755L26.768 28.783L26.712 28.806L26.649 28.822L26.581 28.831L26.507 28.834Z" fill="none" stroke="red" stroke-width="0.3"/>
<path d="M32.123 30.202L32.267 30.185L32.399 30.157L32.520 30.119L32.629 30.069L32.726 30.008L32.809 29.937L32.878 29.857L32.931 29.767L32.969 29.669L32.992 29.561L32.999 29.444L32.995 29.356L32.980 29.274L32.957 29.197L32.924 29.127L32.881 29.063L32.829 29.004L32.768 28.953L32.699 28.908L32.621 28.870L32.534 28.840L32.439 28.816L32.335 28.800L32.417 28.779L32.492 28.752L32.560 28.720L32.620 28.682L32.674 28.638L32.719 28.589L32.758 28.534L32.789 28.476L32.814 28.414L32.832 28.348L32.842 28.278L32.846 28.204L32.839 28.098L32.818 28.001L32.783 27.912L32.734 27.833L32.671 27.763L32.594 27.702L32.504 27.650L32.400 27.607L32.283 27.574L32.153 27.551L32.009 27.537L31.853 27.532L30.628 27.532L30.628 30.207L31.966 30.207Z" fill="none" stroke="red" stroke-width="0.3"/>
<path d="M31.188 28.610L31.188 27.948L31.826 27.948L31.898 27.950L31.964 27.956L32.024 27.967L32.078 27.981L32.125 28.000L32.167 28.024L32.202 28.052L32.231 28.086L32.253 28.126L32.269 28.171L32.278 28.223L32.282 28.280L32.279 28.333L32.270 28.381L32.255 28.425L32.234 28.464L32.207 28.498L32.174 28.528L32.135 28.553L32.088 28.574L32.035 28.590L31.974 28.601L31.905 28.608L31.830 28.610Z" fill="none" stroke="red" stroke-width="0.3"/>
<path d="M31.188 29.791L31.188 29.024L31.898 29.024L32.063 29.035L32.198 29.066L32.303 29.118L32.377 29.191L32.422 29.285L32.437 29.400L32.434 29.463L32.424 29.520L32.406 29.571L32.382 29.618L32.351 29.658L32.313 29.694L32.267 29.723L32.214 29.748L32.152 29.767L32.083 29.781L32.005 29.789L31.919 29.791Z" fill="none" stroke="red" stroke-width="0.3"/>
<path d="M20.937 30.202L21.081 30.185L21.214 30.157L21.335 30.119L21.443 30.069L21.540 30.008L21.624 29.937L21.692 29.857L21.746 29.767L21.783 29.669L21.806 29.561L21.814 29.444L21.809 29.356L21.795 29.274L21.771 29.197L21.738 29.127L21.696 29.063L21.644 29.004L21.583 28.953L21.513 28.908L21.435 28.870L21.349 28.840L21.253 28.816L21.149 28.800L21.232 28.779L21.307 28.752L21.375 28.720L21.435 28.682L21.488 28.638L21.534 28.589L21.572 28.534L21.604 28.476L21.628 28.414L21.646 28.348L21.657 28.278L21.660 28.204L21.653 28.098L21.632 28.001L21.597 27.912L21.548 27.833L21.485 27.763L21.408 27.702L21.318 27.650L21.214 27.607L21.097 27.574L20.967 27.551L20.824 27.537L20.667 27.532L19.442 27.532L19.442 30.207L20.781 30.207Z" fill="none" stroke="red" stroke-width="0.3"/>
<path d="M20.002 28.610L20.002 27.948L20.640 27.948L20.713 27.950L20.779 27.956L20.839 27.967L20.892 27.981L20.940 28.000L20.981 28.024L21.016 28.052L21.045 28.086L21.067 28.126L21.083 28.171L21.093 28.223L21.096 28.280L21.093 28.333L21.084 28.381L21.069 28.425L21.048 28.464L21.022 28.498L20.989 28.528L20.949 28.553L20.903 28.574L20.849 28.590L20.788 28.601L20.720 28.608L20.644 28.610Z" fill="none" stroke="red" stroke-width="0.3"/>
<path d="M20.002 29.791L20.002 29.024L20.713 29.024L20.877 29.035L21.012 29.066L21.117 29.118L21.192 29.191L21.237 29.285L21.252 29.400L21.248 29.463L21.238 29.520L21.221 29.571L21.197 29.618L21.165 29.658L21.127 29.694L21.082 29.723L21.028 29.748L20.967 29.767L20.897 29.781L20.819 29.789L20.733 29.791Z" fill="none" stroke="red" stroke-width="0.3"/>
<path d="M17.907 30.203L18.028 30.189L18.144 30.166L18.255 30.135L18.361 30.094L18.463 30.044L18.558 29.985L18.646 29.919L18.726 29.844L18.799 29.762L18.864 29.671L18.922 29.572L18.972 29.466L19.012 29.355L19.044 29.237L19.067 29.114L19.080 28.985L19.085 28.850L19.074 28.646L19.043 28.458L18.992 28.287L18.920 28.133L18.827 27.995L18.714 27.873L18.582 27.769L18.434 27.683L18.268 27.617L18.085 27.570L17.885 27.541L17.668 27.532L16.700 27.532L16.700 30.207L17.782 30.207Z" fill="none" stroke="red" stroke-width="0.3"/>
<path d="M17.260 29.774L17.260 27.965L17.657 27.965L17.790 27.971L17.913 27.990L18.025 28.022L18.126 28.066L18.217 28.122L18.297 28.192L18.365 28.273L18.421 28.366L18.465 28.470L18.496 28.585L18.514 28.712L18.521 28.850L18.515 28.987L18.497 29.115L18.468 29.232L18.426 29.340L18.373 29.438L18.308 29.526L18.233 29.602L18.150 29.664L18.058 29.712L17.959 29.747L17.851 29.767L17.735 29.774Z" fill="none" stroke="red" stroke-width="0.3"/>
<path d="M106.500 48.100L15.500 48.100L15.500 78.100L106.500 78.100Z" fill="none" stroke="red" stroke-width="0.3"/>
<path d="M15.900 77.700L15.900 48.500L106.100 48.500L106.100 77.700Z" fill="none" stroke="red" stroke-width="0.3"/>
<path d="M96.872 55.154L96.968 55.146L97.062 55.133L97.155 55.114L97.247 55.090L97.337 55.060L97.423 55.026L97.504 54.987L97.579 54.944L97.649 54.897L97.713 54.847L97.772 54.791L97.772 54.019L96.856 54.019L96.856 54.344L97.369 54.344L97.369 54.635L97.337 54.660L97.302 54.683L97.263 54.705L97.219 54.726L97.171 54.745L97.120 54.762L97.066 54.778L97.011 54.790L96.956 54.800L96.900 54.807L96.844 54.811L96.787 54.812L96.690 54.807L96.601 54.791L96.519 54.764L96.445 54.726L96.379 54.677L96.319 54.618L96.268 54.548L96.227 54.470L96.195 54.382L96.171 54.286L96.158 54.181L96.153 54.066L96.157 53.954L96.171 53.851L96.193 53.756L96.225 53.671L96.265 53.595L96.314 53.528L96.372 53.470L96.438 53.423L96.512 53.387L96.595 53.361L96.686 53.345L96.786 53.340L96.847 53.342L96.906 53.349L96.963 53.360L97.016 53.376L97.067 53.397L97.115 53.422L97.160 53.451L97.200 53.485L97.237 53.523L97.269 53.566L97.297 53.612L97.321 53.664L97.727 53.541L97.645 53.374L97.533 53.237L97.391 53.131L97.219 53.055L97.017 53.009L96.786 52.994L96.619 53.001L96.465 53.024L96.326 53.063L96.199 53.117L96.087 53.186L95.987 53.270L95.903 53.369L95.833 53.482L95.779 53.608L95.741 53.747L95.718 53.900L95.710 54.066L95.718 54.234L95.741 54.388L95.779 54.529L95.833 54.657L95.902 54.771L95.986 54.873L96.084 54.960L96.196 55.031L96.321 55.086L96.459 55.125L96.611 55.149L96.775 55.157Z" fill="none" stroke="red" stroke-width="0.3"/>
<path d="M21.027 55.136L21.135 55.119L21.234 55.092L21.325 55.053L21.407 55.004L21.481 54.943L21.545 54.874L21.597 54.796L21.637 54.712L21.666 54.619L21.683 54.519L21.689 54.412L21.684 54.308L21.669 54.213L21.644 54.124L21.609 54.044L21.564 53.970L21.509 53.904L21.446 53.847L21.376 53.801L21.300 53.764L21.216 53.739L21.126 53.723L21.030 53.718L20.956 53.722L20.886 53.733L20.821 53.751L20.759 53.778L20.702 53.811L20.649 53.852L20.684 53.321L21.567 53.321L21.567 53.009L20.303 53.009L20.230 54.192L20.639 54.192L20.678 54.151L20.720 54.117L20.765 54.090L20.815 54.072L20.868 54.060L20.924 54.057L20.975 54.059L21.022 54.068L21.065 54.081L21.104 54.101L21.139 54.125L21.170 54.156L21.197 54.191L21.219 54.229L21.236 54.272L21.248 54.318L21.256 54.367L21.258 54.421L21.256 54.481L21.248 54.536L21.235 54.586L21.217 54.632L21.193 54.673L21.165 54.708L21.132 54.739L21.096 54.764L21.056 54.783L21.012 54.797L20.965 54.806L20.915 54.808L20.874 54.807L20.835 54.802L20.799 54.793L20.765 54.781L20.734 54.766L20.705 54.747L20.678 54.725L20.655 54.698L20.634 54.668L20.616 54.633L20.601 54.595L20.588 54.552L20.169 54.586L20.188 54.673L20.215 54.752L20.250 54.824L20.293 54.889L20.345 54.948L20.404 54.999L20.471 55.042L20.545 55.078L20.626 55.105L20.714 55.125L20.809 55.137L20.911 55.141Z" fill="none" stroke="red" stroke-width="0.3"/>
<path d="M23.752 53.009L23.297 53.009L22.865 54.359L22.789 54.628L22.758 54.756L22.735 54.671L22.715 54.594L22.695 54.524L22.678 54.462L22.662 54.407L22.648 54.359L22.215 53.009L21.755 53.009L22.533 55.111L22.979 55.111Z" fill="none" stroke="red" stroke-width="0.3"/>
<path d="M98.501 53.887L98.500 53.837L98.498 53.782L98.494 53.721L98.489 53.655L98.482 53.584L98.474 53.508L99.390 55.127L99.906 55.127L99.906 53.025L99.515 53.025L99.515 54.247L99.516 54.310L99.518 54.375L99.522 54.442L99.527 54.511L99.534 54.583L99.542 54.657L98.613 53.025L98.110 53.025L98.110 55.127L98.501 55.127Z" fill="none" stroke="red" stroke-width="0.3"/>
<path d="M101.214 55.124L101.309 55.113L101.400 55.095L101.487 55.070L101.570 55.038L101.650 54.999L101.725 54.953L101.794 54.901L101.857 54.842L101.914 54.777L101.966 54.706L102.011 54.628L102.050 54.545L102.082 54.457L102.107 54.365L102.124 54.268L102.135 54.166L102.139 54.060L102.131 53.900L102.106 53.753L102.066 53.619L102.009 53.497L101.937 53.389L101.848 53.293L101.744 53.211L101.627 53.144L101.497 53.092L101.353 53.055L101.196 53.032L101.026 53.025L100.265 53.025L100.265 55.127L101.115 55.127Z" fill="none" stroke="red" stroke-width="0.3"/>
<path d="M100.705 54.787L100.705 53.365L101.017 53.365L101.121 53.370L101.218 53.385L101.306 53.410L101.385 53.444L101.457 53.489L101.520 53.543L101.573 53.607L101.617 53.680L101.652 53.762L101.676 53.852L101.691 53.952L101.696 54.060L101.691 54.168L101.677 54.269L101.654 54.361L101.621 54.446L101.580 54.522L101.528 54.591L101.470 54.651L101.404 54.700L101.332 54.738L101.254 54.765L101.169 54.781L101.078 54.787Z" fill="none" stroke="red" stroke-width="0.3"/>
<path d="M67.277 64.536L67.414 64.521L67.545 64.496L67.670 64.461L67.789 64.416L67.902 64.361L68.008 64.297L68.105 64.224L68.194 64.141L68.274 64.050L68.346 63.950L68.409 63.841L68.463 63.725L68.507 63.603L68.542 63.475L68.566 63.341L68.581 63.200L68.586 63.054L68.575 62.835L68.543 62.632L68.490 62.445L68.415 62.275L68.319 62.120L68.202 61.982L68.066 61.863L67.914 61.765L67.744 61.689L67.559 61.635L67.356 61.602L67.137 61.591L66.918 61.602L66.716 61.634L66.531 61.688L66.362 61.763L66.209 61.860L66.073 61.978L65.956 62.115L65.861 62.269L65.786 62.440L65.733 62.628L65.701 62.833L65.691 63.054L65.702 63.277L65.733 63.483L65.787 63.672L65.861 63.846L65.957 64.003L66.074 64.144L66.210 64.265L66.362 64.364L66.531 64.442L66.715 64.497L66.916 64.530L67.133 64.541Z" fill="none" stroke="red" stroke-width="0.3"/>
<path d="M67.008 64.062L66.892 64.039L66.786 64.001L66.688 63.949L66.599 63.881L66.520 63.798L66.451 63.702L66.395 63.594L66.351 63.476L66.320 63.347L66.301 63.206L66.295 63.054L66.301 62.904L66.319 62.765L66.350 62.638L66.393 62.522L66.448 62.418L66.515 62.325L66.593 62.245L66.682 62.180L66.780 62.129L66.889 62.092L67.008 62.071L67.137 62.063L67.265 62.071L67.382 62.093L67.490 62.129L67.588 62.181L67.676 62.246L67.754 62.327L67.821 62.420L67.876 62.525L67.919 62.640L67.949 62.767L67.967 62.905L67.973 63.054L67.967 63.210L67.949 63.354L67.919 63.485L67.876 63.604L67.822 63.710L67.755 63.805L67.677 63.886L67.588 63.952L67.490 64.003L67.381 64.040L67.262 64.062L67.133 64.069Z" fill="none" stroke="red" stroke-width="0.3"/>
<path d="M70.451 64.536L70.592 64.519L70.726 64.491L70.852 64.451L70.972 64.401L71.085 64.339L71.189 64.266L71.285 64.180L71.372 64.083L71.450 63.974L71.519 63.854L71.580 63.721L71.057 63.524L70.977 63.691L70.879 63.827L70.763 63.933L70.628 64.009L70.474 64.054L70.302 64.069L70.171 64.062L70.051 64.040L69.941 64.004L69.843 63.954L69.754 63.888L69.677 63.809L69.611 63.716L69.556 63.609L69.514 63.490L69.484 63.358L69.466 63.212L69.460 63.054L69.466 62.899L69.483 62.756L69.513 62.626L69.554 62.510L69.606 62.406L69.671 62.316L69.746 62.239L69.833 62.176L69.930 62.126L70.039 62.091L70.158 62.070L70.288 62.063L70.375 62.067L70.458 62.078L70.537 62.095L70.612 62.120L70.684 62.152L70.751 62.191L70.813 62.235L70.867 62.285L70.915 62.340L70.955 62.399L70.988 62.464L71.014 62.533L71.543 62.389L71.495 62.263L71.437 62.148L71.368 62.044L71.288 61.950L71.198 61.867L71.098 61.794L70.987 61.732L70.865 61.681L70.734 61.642L70.591 61.614L70.439 61.597L70.276 61.591L70.054 61.602L69.851 61.633L69.666 61.686L69.499 61.760L69.350 61.854L69.220 61.970L69.109 62.105L69.018 62.258L68.947 62.430L68.896 62.620L68.866 62.828L68.856 63.054L68.866 63.280L68.898 63.489L68.950 63.680L69.024 63.854L69.118 64.010L69.233 64.150L69.368 64.269L69.520 64.367L69.689 64.443L69.876 64.498L70.080 64.530L70.302 64.541Z" fill="none" stroke="red" stroke-width="0.3"/>
<path d="M61.976 64.495L62.131 64.477L62.273 64.447L62.402 64.406L62.519 64.352L62.623 64.287L62.712 64.211L62.785 64.125L62.842 64.029L62.883 63.923L62.907 63.808L62.916 63.683L62.911 63.588L62.895 63.500L62.870 63.419L62.835 63.343L62.789 63.274L62.734 63.212L62.668 63.156L62.594 63.108L62.510 63.068L62.417 63.035L62.315 63.010L62.204 62.993L62.292 62.970L62.372 62.942L62.445 62.907L62.510 62.866L62.566 62.819L62.615 62.766L62.657 62.708L62.691 62.646L62.717 62.579L62.736 62.509L62.747 62.434L62.751 62.354L62.743 62.240L62.721 62.136L62.683 62.042L62.631 61.957L62.564 61.882L62.481 61.816L62.384 61.761L62.273 61.715L62.148 61.680L62.008 61.654L61.855 61.639L61.687 61.634L60.375 61.634L60.375 64.501L61.809 64.501Z" fill="none" stroke="red" stroke-width="0.3"/>
<path d="M60.975 62.790L60.975 62.080L61.658 62.080L61.736 62.082L61.807 62.089L61.871 62.100L61.928 62.116L61.979 62.136L62.024 62.161L62.061 62.191L62.092 62.228L62.116 62.270L62.133 62.319L62.143 62.374L62.147 62.436L62.143 62.492L62.134 62.544L62.118 62.591L62.096 62.632L62.067 62.669L62.032 62.701L61.989 62.728L61.940 62.750L61.882 62.768L61.816 62.780L61.743 62.787L61.662 62.790Z" fill="none" stroke="red" stroke-width="0.3"/>
<path d="M60.975 64.055L60.975 63.233L61.736 63.233L61.912 63.244L62.057 63.278L62.169 63.334L62.249 63.412L62.297 63.513L62.313 63.636L62.310 63.703L62.299 63.764L62.280 63.819L62.254 63.869L62.221 63.912L62.180 63.950L62.131 63.982L62.074 64.008L62.008 64.029L61.933 64.043L61.850 64.052L61.758 64.055Z" fill="none" stroke="red" stroke-width="0.3"/>
<path d="M65.451 64.037L63.913 64.037L63.913 61.634L63.313 61.634L63.313 64.501L65.451 64.501Z" fill="none" stroke="red" stroke-width="0.3"/>
<path d="M72.502 63.455L72.856 63.184L73.886 64.501L74.594 64.501L73.269 62.847L74.494 61.634L73.794 61.634L72.502 62.934L72.502 61.634L71.902 61.634L71.902 64.501L72.502 64.501Z" fill="none" stroke="red" stroke-width="0.3"/>
<path d="M52.540 64.037L50.802 64.037L50.802 63.282L52.332 63.282L52.332 62.818L50.802 62.818L50.802 62.098L52.456 62.098L52.456 61.634L50.202 61.634L50.202 64.501L52.540 64.501Z" fill="none" stroke="red" stroke-width="0.3"/>
<path d="M56.388 62.763L56.387 62.703L56.385 62.626L56.382 62.531L56.377 62.418L56.371 62.287L56.363 62.139L56.581 62.902L57.098 64.501L57.525 64.501L58.042 62.902L58.067 62.820L58.096 62.721L58.130 62.603L58.167 62.467L58.209 62.312L58.255 62.139L58.250 62.277L58.245 62.394L58.241 62.489L58.238 62.563L58.237 62.615L58.236 62.645L58.236 62.665L58.235 62.685L58.235 62.704L58.235 62.724L58.235 62.744L58.235 62.763L58.235 64.501L58.768 64.501L58.768 61.634L57.968 61.634L57.441 63.317L57.313 63.776L57.216 63.392L57.171 63.237L56.658 61.634L55.855 61.634L55.855 64.501L56.388 64.501Z" fill="none" stroke="red" stroke-width="0.3"/>
<path d="M53.516 63.412L54.220 63.412L54.885 64.501L55.561 64.501L54.786 63.296L54.879 63.269L54.966 63.233L55.047 63.190L55.120 63.138L55.187 63.077L55.248 63.008L55.300 62.933L55.342 62.853L55.376 62.769L55.399 62.680L55.414 62.587L55.418 62.489L55.411 62.356L55.387 62.235L55.349 62.124L55.295 62.023L55.225 61.934L55.140 61.855L55.040 61.787L54.928 61.732L54.802 61.689L54.664 61.659L54.513 61.640L54.348 61.634L52.916 61.634L52.916 64.501L53.516 64.501Z" fill="none" stroke="red" stroke-width="0.3"/>
<path d="M53.516 62.946L53.516 62.100L54.285 62.100L54.447 62.111L54.579 62.146L54.682 62.203L54.755 62.284L54.800 62.387L54.814 62.513L54.811 62.579L54.800 62.640L54.782 62.696L54.756 62.746L54.724 62.792L54.684 62.832L54.637 62.867L54.584 62.896L54.523 62.918L54.456 62.934L54.382 62.943L54.302 62.946Z" fill="none" stroke="red" stroke-width="0.3"/>
<path d="M49.010 62.098L49.938 62.098L49.938 61.634L47.485 61.634L47.485 62.098L48.410 62.098L48.410 64.501L49.010 64.501Z" fill="none" stroke="red" stroke-width="0.3"/>
<path d="M168.343 78.937L168.763 77.922L169.337 76.986L170.050 76.150L170.885 75.437L171.822 74.863L172.837 74.443L173.905 74.186L175.000 74.100L176.095 74.186L177.163 74.443L178.178 74.863L179.114 75.437L179.950 76.150L180.663 76.986L181.237 77.922L181.657 78.937L181.914 80.005L182.000 81.100L197.000 81.100L197.000 84.000L217.000 84.000L217.000 81.100L227.100 81.100L227.100 73.000L230.000 73.000L230.000 53.000L227.100 53.000L227.100 37.000L230.000 37.000L230.000 17.000L227.100 17.000L227.100 8.900L217.000 8.900L217.000 6.000L197.000 6.000L197.000 8.900L185.000 8.900L185.000 6.000L165.000 6.000L165.000 8.900L153.000 8.900L153.000 6.000L133.000 6.000L133.000 8.900L122.900 8.900L122.900 17.000L120.000 17.000L120.000 37.000L122.900 37.000L122.900 53.000L120.000 53.000L120.000 73.000L122.900 73.000L122.900 81.100L133.000 81.100L133.000 84.000L153.000 84.000L153.000 81.100L168.000 81.100L168.086 80.005Z" fill="none" stroke="black" stroke-width="0.3"/>
<path d="M116.000 119.840L113.090 119.840L113.090 111.880L116.000 111.880L116.000 103.920L113.090 103.920L113.090 95.960L116.000 95.960L116.000 88.000L103.000 88.000L103.000 90.900L83.000 90.900L83.000 88.000L39.000 88.000L39.000 90.900L19.000 90.900L19.000 88.000L6.000 88.000L6.000 95.960L8.910 95.960L8.910 103.920L6.000 103.920L6.000 111.880L8.910 111.880L8.910 119.840L6.000 119.840L6.000 127.800L19.000 127.800L19.000 124.900L39.000 124.900L39.000 127.800L51.000 127.800L51.000 124.900L71.000 124.900L71.000 127.800L83.000 127.800L83.000 124.900L103.000 124.900L103.000 127.800L116.000 127.800Z" fill="none" stroke="black" stroke-width="0.3"/>
<path d="M24.453 106.357L23.918 106.229L23.411 106.018L22.943 105.732L22.525 105.375L22.168 104.957L21.882 104.489L21.671 103.982L21.543 103.447L21.500 102.900L21.543 102.352L21.671 101.818L21.882 101.311L22.168 100.843L22.525 100.425L22.943 100.068L23.411 99.781L23.918 99.571L24.453 99.443L25.000 99.400L25.547 99.443L26.082 99.571L26.589 99.781L27.057 100.068L27.475 100.425L27.832 100.843L28.119 101.311L28.329 101.818L28.457 102.352L28.500 102.900L28.457 103.447L28.329 103.982L28.119 104.489L27.832 104.957L27.475 105.375L27.057 105.732L26.589 106.018L26.082 106.229L25.547 106.357L25.000 106.400Z" fill="none" stroke="black" stroke-width="0.3"/>
<path d="M36.453 106.357L35.918 106.229L35.411 106.018L34.943 105.732L34.525 105.375L34.168 104.957L33.882 104.489L33.671 103.982L33.543 103.447L33.500 102.900L33.543 102.352L33.671 101.818L33.882 101.311L34.168 100.843L34.525 100.425L34.943 100.068L35.411 99.781L35.918 99.571L36.453 99.443L37.000 99.400L37.547 99.443L38.082 99.571L38.589 99.781L39.057 100.068L39.475 100.425L39.832 100.843L40.118 101.311L40.329 101.818L40.457 102.352L40.500 102.900L40.457 103.447L40.329 103.982L40.118 104.489L39.832 104.957L39.475 105.375L39.057 105.732L38.589 106.018L38.082 106.229L37.547 106.357L37.000 106.400Z" fill="none" stroke="black" stroke-width="0.3"/>
<path d="M48.453 106.357L47.918 106.229L47.411 106.018L46.943 105.732L46.525 105.375L46.168 104.957L45.882 104.489L45.671 103.982L45.543 103.447L45.500 102.900L45.543 102.352L45.671 101.818L45.882 101.311L46.168 100.843L46.525 100.425L46.943 100.068L47.411 99.781L47.918 99.571L48.453 99.443L49.000 99.400L49.547 99.443L50.082 99.571L50.589 99.781L51.057 100.068L51.475 100.425L51.832 100.843L52.118 101.311L52.329 101.818L52.457 102.352L52.500 102.900L52.457 103.447L52.329 103.982L52.118 104.489L51.832 104.957L51.475 105.375L51.057 105.732L50.589 106.018L50.082 106.229L49.547 106.357L49.000 106.400Z" fill="none" stroke="black" stroke-width="0.3"/>
<path d="M60.453 106.357L59.918 106.229L59.411 106.018L58.943 105.732L58.525 105.375L58.168 104.957L57.882 104.489L57.671 103.982L57.543 103.447L57.500 102.900L57.543 102.352L57.671 101.818L57.882 101.311L58.168 100.843L58.525 100.425L58.943 100.068L59.411 99.781L59.918 99.571L60.453 99.443L61.000 99.400L61.547 99.443L62.082 99.571L62.589 99.781L63.057 100.068L63.475 100.425L63.832 100.843L64.118 101.311L64.329 101.818L64.457 102.352L64.500 102.900L64.457 103.447L64.329 103.982L64.118 104.489L63.832 104.957L63.475 105.375L63.057 105.732L62.589 106.018L62.082 106.229L61.547 106.357L61.000 106.400Z" fill="none" stroke="black" stroke-width="0.3"/>
<path d="M72.453 106.357L71.918 106.229L71.411 106.018L70.943 105.732L70.525 105.375L70.168 104.957L69.882 104.489L69.671 103.982L69.543 103.447L69.500 102.900L69.543 102.352L69.671 101.818L69.882 101.311L70.168 100.843L70.525 100.425L70.943 100.068L71.411 99.781L71.918 99.571L72.453 99.443L73.000 99.400L73.547 99.443L74.082 99.571L74.589 99.781L75.057 100.068L75.475 100.425L75.832 100.843L76.118 101.311L76.329 101.818L76.457 102.352L76.500 102.900L76.457 103.447L76.329 103.982L76.118 104.489L75.832 104.957L75.475 105.375L75.057 105.732L74.589 106.018L74.082 106.229L73.547 106.357L73.000 106.400Z" fill="none" stroke="black" stroke-width="0.3"/>
<path d="M84.453 106.357L83.918 106.229L83.411 106.018L82.943 105.732L82.525 105.375L82.168 104.957L81.882 104.489L81.671 103.982L81.543 103.447L81.500 102.900L81.543 102.352L81.671 101.818L81.882 101.311L82.168 100.843L82.525 100.425L82.943 100.068L83.411 99.781L83.918 99.571L84.453 99.443L85.000 99.400L85.547 99.443L86.082 99.571L86.589 99.781L87.057 100.068L87.475 100.425L87.832 100.843L88.118 101.311L88.329 101.818L88.457 102.352L88.500 102.900L88.457 103.447L88.329 103.982L88.118 104.489L87.832 104.957L87.475 105.375L87.057 105.732L86.589 106.018L86.082 106.229L85.547 106.357L85.000 106.400Z" fill="none" stroke="black" stroke-width="0.3"/>
<path d="M96.453 106.357L95.918 106.229L95.411 106.018L94.943 105.732L94.525 105.375L94.168 104.957L93.882 104.489L93.671 103.982L93.543 103.447L93.500 102.900L93.543 102.352L93.671 101.818L93.882 101.311L94.168 100.843L94.525 100.425L94.943 100.068L95.411 99.781L95.918 99.571L96.453 99.443L97.000 99.400L97.547 99.443L98.082 99.571L98.589 99.781L99.057 100.068L99.475 100.425L99.832 100.843L100.118 101.311L100.329 101.818L100.457 102.352L100.500 102.900L100.457 103.447L100.329 103.982L100.118 104.489L99.832 104.957L99.475 105.375L99.057 105.732L98.589 106.018L98.082 106.229L97.547 106.357L97.000 106.400Z" fill="none" stroke="black" stroke-width="0.3"/>
<path d="M49.163 95.743L49.297 95.725L49.420 95.697L49.532 95.657L49.631 95.606L49.719 95.543L49.795 95.470L49.856 95.387L49.904 95.295L49.939 95.194L49.959 95.083L49.966 94.962L49.962 94.879L49.948 94.800L49.925 94.727L49.892 94.659L49.851 94.596L49.800 94.538L49.741 94.486L49.673 94.441L49.598 94.404L49.516 94.374L49.425 94.351L49.326 94.336L49.326 94.328L49.415 94.307L49.497 94.281L49.571 94.248L49.638 94.209L49.698 94.164L49.751 94.113L49.795 94.057L49.832 93.996L49.861 93.930L49.881 93.859L49.894 93.782L49.898 93.701L49.891 93.594L49.871 93.495L49.839 93.404L49.793 93.320L49.734 93.245L49.661 93.178L49.578 93.121L49.483 93.073L49.379 93.037L49.265 93.010L49.140 92.995L49.005 92.989L48.878 92.995L48.759 93.011L48.648 93.038L48.545 93.076L48.451 93.125L48.365 93.185L48.289 93.254L48.225 93.332L48.171 93.418L48.129 93.512L48.098 93.615L48.079 93.726L48.612 93.764L48.620 93.710L48.632 93.661L48.649 93.616L48.671 93.575L48.698 93.538L48.729 93.506L48.765 93.478L48.804 93.455L48.847 93.438L48.893 93.425L48.943 93.417L48.996 93.415L49.052 93.417L49.104 93.425L49.151 93.438L49.194 93.457L49.231 93.480L49.264 93.509L49.293 93.542L49.316 93.579L49.334 93.620L49.346 93.666L49.354 93.715L49.357 93.768L49.353 93.824L49.344 93.875L49.328 93.922L49.305 93.965L49.276 94.003L49.241 94.037L49.199 94.065L49.151 94.089L49.096 94.107L49.036 94.120L48.969 94.128L48.895 94.131L48.721 94.131L48.721 94.562L48.907 94.562L48.988 94.564L49.062 94.572L49.130 94.585L49.190 94.604L49.244 94.627L49.290 94.656L49.330 94.691L49.362 94.729L49.387 94.772L49.405 94.820L49.416 94.873L49.419 94.930L49.416 94.992L49.407 95.049L49.393 95.100L49.372 95.146L49.345 95.186L49.313 95.220L49.275 95.249L49.233 95.273L49.185 95.292L49.133 95.305L49.076 95.313L49.015 95.315L48.895 95.305L48.794 95.272L48.712 95.219L48.648 95.144L48.603 95.048L48.576 94.930L48.033 94.977L48.054 95.097L48.086 95.207L48.130 95.308L48.185 95.398L48.252 95.479L48.331 95.550L48.421 95.611L48.520 95.660L48.630 95.699L48.749 95.726L48.878 95.743L49.017 95.748Z" fill="none" stroke="red" stroke-width="0.3"/>
<path d="M85.201 95.738L85.327 95.718L85.442 95.684L85.547 95.637L85.642 95.576L85.727 95.502L85.800 95.416L85.860 95.320L85.906 95.213L85.939 95.096L85.960 94.969L85.966 94.832L85.960 94.706L85.943 94.589L85.914 94.482L85.873 94.383L85.821 94.293L85.757 94.213L85.683 94.143L85.601 94.086L85.511 94.042L85.412 94.010L85.305 93.991L85.189 93.985L85.127 93.987L85.066 93.993L85.008 94.004L84.952 94.019L84.898 94.038L84.846 94.061L84.797 94.088L84.752 94.119L84.711 94.154L84.673 94.192L84.639 94.234L84.609 94.279L84.612 94.140L84.622 94.013L84.639 93.898L84.663 93.796L84.694 93.706L84.731 93.628L84.774 93.563L84.823 93.509L84.876 93.467L84.935 93.437L84.999 93.419L85.068 93.414L85.147 93.421L85.215 93.443L85.274 93.480L85.323 93.531L85.362 93.597L85.391 93.677L85.894 93.607L85.864 93.507L85.827 93.415L85.784 93.333L85.734 93.260L85.678 93.197L85.616 93.142L85.546 93.096L85.469 93.059L85.383 93.030L85.290 93.009L85.189 92.996L85.079 92.992L84.926 93.002L84.785 93.032L84.656 93.082L84.540 93.153L84.436 93.243L84.344 93.354L84.265 93.484L84.201 93.634L84.151 93.804L84.115 93.993L84.094 94.203L84.086 94.431L84.093 94.639L84.115 94.830L84.150 95.003L84.199 95.157L84.262 95.295L84.340 95.414L84.430 95.515L84.533 95.598L84.648 95.662L84.775 95.708L84.915 95.736L85.066 95.745Z" fill="none" stroke="red" stroke-width="0.3"/>
<path d="M84.991 95.325L84.936 95.312L84.886 95.291L84.839 95.261L84.796 95.223L84.758 95.177L84.724 95.123L84.696 95.066L84.674 95.004L84.659 94.937L84.650 94.866L84.647 94.790L84.650 94.730L84.658 94.674L84.673 94.622L84.694 94.575L84.720 94.531L84.753 94.491L84.790 94.457L84.832 94.428L84.877 94.406L84.926 94.391L84.979 94.381L85.036 94.378L85.095 94.381L85.150 94.392L85.200 94.408L85.246 94.432L85.288 94.462L85.325 94.499L85.358 94.542L85.384 94.591L85.404 94.646L85.419 94.707L85.428 94.774L85.431 94.847L85.428 94.920L85.419 94.987L85.406 95.049L85.386 95.105L85.361 95.156L85.330 95.201L85.294 95.240L85.254 95.272L85.210 95.297L85.160 95.315L85.107 95.326L85.049 95.329Z" fill="none" stroke="red" stroke-width="0.3"/>
<path d="M37.951 95.288L36.709 95.288L36.728 95.247L36.751 95.207L36.776 95.168L36.805 95.130L36.837 95.093L36.871 95.056L36.909 95.020L36.947 94.984L36.987 94.948L37.028 94.913L37.070 94.877L37.114 94.842L37.158 94.806L37.203 94.770L37.249 94.734L37.341 94.660L37.388 94.623L37.434 94.585L37.479 94.547L37.523 94.507L37.565 94.467L37.606 94.425L37.645 94.383L37.683 94.340L37.718 94.295L37.751 94.249L37.781 94.202L37.809 94.153L37.835 94.103L37.858 94.051L37.876 93.998L37.891 93.942L37.901 93.885L37.907 93.825L37.909 93.763L37.903 93.649L37.883 93.543L37.851 93.446L37.806 93.358L37.748 93.279L37.677 93.209L37.595 93.148L37.501 93.099L37.395 93.061L37.279 93.033L37.152 93.017L37.013 93.011L36.884 93.017L36.764 93.033L36.654 93.060L36.553 93.098L36.462 93.147L36.380 93.207L36.307 93.277L36.245 93.357L36.194 93.447L36.153 93.546L36.122 93.655L36.102 93.775L36.639 93.805L36.650 93.746L36.664 93.692L36.681 93.644L36.703 93.600L36.727 93.562L36.756 93.529L36.788 93.501L36.825 93.478L36.866 93.460L36.912 93.447L36.962 93.439L37.017 93.437L37.124 93.446L37.212 93.475L37.280 93.524L37.329 93.592L37.358 93.679L37.368 93.786L37.365 93.834L37.355 93.882L37.340 93.930L37.318 93.978L37.290 94.027L37.255 94.076L37.213 94.128L37.161 94.184L37.100 94.244L37.030 94.309L36.950 94.379L36.861 94.452L36.766 94.531L36.677 94.608L36.594 94.685L36.516 94.760L36.443 94.835L36.376 94.908L36.314 94.981L36.257 95.055L36.205 95.129L36.158 95.204L36.116 95.280L36.079 95.356L36.079 95.726L37.951 95.726Z" fill="none" stroke="red" stroke-width="0.3"/>
<path d="M73.156 95.718L73.293 95.697L73.419 95.662L73.535 95.613L73.640 95.550L73.734 95.474L73.814 95.385L73.881 95.286L73.932 95.178L73.969 95.061L73.991 94.934L73.998 94.797L73.992 94.665L73.973 94.543L73.941 94.431L73.897 94.328L73.840 94.235L73.770 94.151L73.689 94.078L73.600 94.019L73.503 93.973L73.397 93.940L73.282 93.920L73.159 93.914L73.065 93.918L72.976 93.933L72.893 93.956L72.815 93.990L72.742 94.032L72.675 94.085L72.719 93.409L73.843 93.409L73.843 93.012L72.234 93.012L72.141 94.517L72.662 94.517L72.711 94.465L72.764 94.421L72.823 94.388L72.885 94.364L72.953 94.350L73.024 94.345L73.089 94.348L73.149 94.359L73.203 94.376L73.253 94.401L73.298 94.432L73.338 94.471L73.372 94.515L73.400 94.565L73.422 94.618L73.437 94.677L73.447 94.740L73.450 94.808L73.446 94.885L73.436 94.955L73.420 95.019L73.397 95.077L73.367 95.129L73.331 95.174L73.289 95.213L73.243 95.245L73.192 95.270L73.137 95.287L73.077 95.298L73.013 95.302L72.961 95.299L72.912 95.293L72.865 95.282L72.822 95.267L72.782 95.248L72.745 95.224L72.712 95.195L72.681 95.162L72.655 95.123L72.632 95.079L72.613 95.029L72.597 94.975L72.064 95.019L72.088 95.129L72.122 95.230L72.167 95.322L72.222 95.405L72.287 95.479L72.363 95.544L72.448 95.599L72.542 95.644L72.645 95.680L72.757 95.705L72.877 95.720L73.007 95.725Z" fill="none" stroke="red" stroke-width="0.3"/>
<path d="M61.729 95.161L62.086 95.161L62.086 94.765L61.729 94.765L61.729 93.031L61.133 93.031L60.003 94.761L60.003 95.161L61.220 95.161L61.220 95.706L61.729 95.706Z" fill="none" stroke="red" stroke-width="0.3"/>
<path d="M60.438 94.765L61.059 93.821L61.099 93.756L61.136 93.697L61.168 93.643L61.195 93.595L61.218 93.551L61.237 93.513L61.236 93.527L61.234 93.546L61.233 93.569L61.231 93.597L61.229 93.630L61.227 93.667L61.224 93.707L61.223 93.745L61.222 93.782L61.221 93.819L61.220 93.855L61.220 93.889L61.220 94.765Z" fill="none" stroke="red" stroke-width="0.3"/>
<path d="M97.058 95.601L97.064 95.497L97.074 95.396L97.087 95.296L97.105 95.198L97.126 95.102L97.150 95.007L97.178 94.913L97.208 94.820L97.241 94.727L97.276 94.636L97.315 94.545L97.356 94.455L97.399 94.365L97.445 94.275L97.493 94.186L97.543 94.096L97.595 94.007L97.649 93.917L97.704 93.827L97.760 93.735L97.818 93.642L97.876 93.549L97.936 93.454L97.936 93.031L96.111 93.031L96.111 93.470L97.440 93.470L97.303 93.671L97.180 93.856L97.073 94.023L96.980 94.174L96.903 94.307L96.840 94.424L96.787 94.531L96.739 94.638L96.694 94.745L96.654 94.850L96.619 94.955L96.588 95.060L96.561 95.165L96.539 95.270L96.522 95.378L96.510 95.486L96.503 95.596L96.500 95.706L97.057 95.706Z" fill="none" stroke="red" stroke-width="0.3"/>
<path d="M25.998 95.309L25.385 95.309L25.385 93.031L24.880 93.031L24.210 93.466L24.210 93.886L24.852 93.485L24.852 95.309L24.189 95.309L24.189 95.706L25.998 95.706Z" fill="none" stroke="red" stroke-width="0.3"/>
<path d="M67.411 119.715L67.594 119.695L67.769 119.662L67.936 119.615L68.095 119.555L68.245 119.482L68.386 119.396L68.516 119.298L68.634 119.188L68.741 119.067L68.836 118.934L68.921 118.789L68.993 118.634L69.052 118.471L69.098 118.300L69.130 118.121L69.150 117.934L69.157 117.739L69.142 117.447L69.100 117.176L69.029 116.927L68.929 116.700L68.802 116.494L68.645 116.309L68.464 116.150L68.260 116.020L68.035 115.919L67.787 115.846L67.517 115.803L67.225 115.789L66.934 115.803L66.664 115.846L66.416 115.917L66.191 116.018L65.988 116.147L65.807 116.304L65.651 116.487L65.523 116.692L65.424 116.920L65.353 117.171L65.311 117.444L65.297 117.739L65.311 118.035L65.354 118.310L65.425 118.563L65.524 118.794L65.652 119.004L65.808 119.191L65.989 119.353L66.192 119.486L66.417 119.589L66.663 119.663L66.931 119.707L67.220 119.722Z" fill="none" stroke="red" stroke-width="0.3"/>
<path d="M67.053 119.082L66.899 119.052L66.757 119.002L66.626 118.932L66.508 118.841L66.402 118.730L66.311 118.602L66.236 118.459L66.177 118.301L66.136 118.129L66.111 117.941L66.102 117.739L66.111 117.539L66.135 117.354L66.176 117.184L66.233 117.029L66.306 116.890L66.395 116.766L66.500 116.660L66.618 116.573L66.749 116.505L66.894 116.457L67.053 116.428L67.225 116.418L67.395 116.428L67.552 116.457L67.695 116.506L67.826 116.574L67.943 116.662L68.047 116.769L68.137 116.894L68.210 117.033L68.267 117.187L68.308 117.356L68.332 117.540L68.340 117.739L68.332 117.947L68.308 118.138L68.267 118.313L68.211 118.472L68.138 118.614L68.049 118.740L67.945 118.848L67.827 118.936L67.696 119.004L67.551 119.053L67.392 119.083L67.220 119.092Z" fill="none" stroke="red" stroke-width="0.3"/>
<path d="M51.300 119.660L51.506 119.636L51.695 119.596L51.868 119.541L52.023 119.470L52.162 119.383L52.281 119.281L52.379 119.167L52.455 119.039L52.509 118.898L52.542 118.744L52.553 118.577L52.546 118.451L52.526 118.334L52.492 118.225L52.445 118.124L52.384 118.032L52.310 117.949L52.223 117.875L52.123 117.811L52.012 117.758L51.888 117.714L51.752 117.681L51.603 117.657L51.721 117.627L51.828 117.589L51.925 117.543L52.011 117.488L52.087 117.426L52.152 117.355L52.208 117.278L52.253 117.195L52.288 117.106L52.313 117.011L52.328 116.911L52.333 116.806L52.323 116.654L52.293 116.515L52.243 116.389L52.173 116.276L52.083 116.176L51.973 116.088L51.844 116.014L51.696 115.953L51.529 115.906L51.343 115.873L51.138 115.852L50.914 115.846L49.165 115.846L49.165 119.667L51.077 119.667Z" fill="none" stroke="red" stroke-width="0.3"/>
<path d="M49.965 117.386L49.965 116.440L50.876 116.440L50.979 116.443L51.074 116.452L51.159 116.467L51.236 116.488L51.304 116.515L51.363 116.548L51.413 116.588L51.454 116.637L51.486 116.694L51.509 116.759L51.523 116.833L51.527 116.914L51.523 116.990L51.510 117.058L51.489 117.121L51.459 117.177L51.421 117.226L51.374 117.268L51.318 117.304L51.251 117.334L51.174 117.357L51.087 117.373L50.989 117.383L50.882 117.386Z" fill="none" stroke="red" stroke-width="0.3"/>
<path d="M49.965 119.073L49.965 117.978L50.979 117.978L51.215 117.993L51.407 118.037L51.557 118.112L51.664 118.216L51.728 118.351L51.750 118.515L51.745 118.604L51.730 118.685L51.705 118.759L51.671 118.825L51.626 118.883L51.572 118.934L51.507 118.976L51.430 119.011L51.342 119.039L51.243 119.058L51.132 119.070L51.009 119.073Z" fill="none" stroke="red" stroke-width="0.3"/>
<path d="M71.386 119.661L71.558 119.642L71.724 119.609L71.882 119.564L72.034 119.505L72.179 119.434L72.315 119.351L72.441 119.256L72.555 119.149L72.660 119.031L72.753 118.901L72.836 118.760L72.906 118.609L72.965 118.450L73.010 118.282L73.042 118.106L73.061 117.921L73.067 117.728L73.053 117.437L73.009 117.169L72.935 116.925L72.832 116.704L72.700 116.506L72.539 116.332L72.350 116.184L72.137 116.062L71.900 115.967L71.639 115.900L71.354 115.859L71.044 115.846L69.661 115.846L69.661 119.667L71.207 119.667Z" fill="none" stroke="red" stroke-width="0.3"/>
<path d="M70.461 119.049L70.461 116.464L71.028 116.464L71.218 116.473L71.393 116.500L71.553 116.545L71.698 116.608L71.828 116.689L71.942 116.788L72.040 116.904L72.120 117.037L72.182 117.185L72.226 117.350L72.253 117.531L72.262 117.728L72.254 117.924L72.228 118.107L72.186 118.275L72.127 118.428L72.051 118.568L71.958 118.694L71.851 118.802L71.732 118.891L71.601 118.960L71.459 119.010L71.305 119.039L71.139 119.049Z" fill="none" stroke="red" stroke-width="0.3"/>
<path d="M62.622 118.322L63.572 118.322L63.712 118.318L63.846 118.304L63.973 118.282L64.094 118.252L64.208 118.212L64.316 118.163L64.416 118.107L64.509 118.043L64.593 117.972L64.669 117.893L64.737 117.808L64.797 117.715L64.849 117.616L64.891 117.512L64.924 117.405L64.947 117.293L64.961 117.176L64.966 117.055L64.956 116.870L64.925 116.699L64.873 116.543L64.801 116.401L64.709 116.274L64.596 116.162L64.463 116.065L64.314 115.986L64.146 115.925L63.961 115.881L63.759 115.854L63.539 115.846L61.822 115.846L61.822 119.667L62.622 119.667Z" fill="none" stroke="red" stroke-width="0.3"/>
<path d="M62.622 117.706L62.622 116.467L63.450 116.467L63.667 116.483L63.844 116.534L63.983 116.617L64.081 116.734L64.140 116.885L64.160 117.069L64.155 117.168L64.140 117.259L64.115 117.342L64.081 117.417L64.036 117.483L63.981 117.542L63.917 117.592L63.845 117.633L63.764 117.665L63.675 117.688L63.577 117.702L63.471 117.706Z" fill="none" stroke="red" stroke-width="0.3"/>
<path d="M57.107 117.413L57.106 117.322L57.102 117.221L57.095 117.111L57.086 116.992L57.073 116.863L57.059 116.724L58.724 119.667L59.663 119.667L59.663 115.846L58.952 115.846L58.952 118.067L58.953 118.181L58.957 118.299L58.964 118.422L58.974 118.548L58.986 118.679L59.001 118.813L57.311 115.846L56.397 115.846L56.397 119.667L57.107 119.667Z" fill="none" stroke="red" stroke-width="0.3"/>
<path d="M54.808 116.464L56.045 116.464L56.045 115.846L52.773 115.846L52.773 116.464L54.008 116.464L54.008 119.667L54.808 119.667Z" fill="none" stroke="red" stroke-width="0.3"/>
<path d="M230.000 119.840L227.090 119.840L227.090 111.880L230.000 111.880L230.000 103.920L227.090 103.920L227.090 95.960L230.000 95.960L230.000 88.000L217.000 88.000L217.000 90.900L197.000 90.900L197.000 88.000L185.000 88.000L185.000 90.900L165.000 90.900L165.000 88.000L153.000 88.000L153.000 90.900L133.000 90.900L133.000 88.000L120.000 88.000L120.000 95.960L122.910 95.960L122.910 103.920L120.000 103.920L120.000 111.880L122.910 111.880L122.910 119.840L120.000 119.840L120.000 127.800L133.000 127.800L133.000 124.900L153.000 124.900L153.000 127.800L165.000 127.800L165.000 124.900L185.000 124.900L185.000 127.800L197.000 127.800L197.000 124.900L217.000 124.900L217.000 127.800L230.000 127.800Z" fill="none" stroke="black" stroke-width="0.3"/>
<path d="M213.500 98.800L213.500 94.800L222.500 94.800L222.500 98.800Z" fill="none" stroke="black" stroke-width="0.3"/>
<path d="M127.500 98.800L127.500 94.800L136.500 94.800L136.500 98.800Z" fill="none" stroke="black" stroke-width="0.3"/>
<path d="M199.500 119.900L199.500 95.900L204.500 95.900L204.500 119.900Z" fill="none" stroke="black" stroke-width="0.3"/>
<path d="M145.500 119.900L145.500 95.900L150.500 95.900L150.500 119.900Z" fill="none" stroke="black" stroke-width="0.3"/>
<path d="M127.500 121.800L127.500 117.800L136.500 117.800L136.500 121.800Z" fill="none" stroke="black" stroke-width="0.3"/>
<path d="M213.500 121.800L213.500 117.800L222.500 117.800L222.500 121.800Z" fill="none" stroke="black" stroke-width="0.3"/>
<path d="M176.121 110.140L176.253 110.124L176.378 110.098L176.496 110.061L176.608 110.014L176.713 109.956L176.810 109.888L176.900 109.808L176.981 109.718L177.054 109.616L177.119 109.504L177.175 109.380L176.687 109.196L176.613 109.351L176.521 109.478L176.412 109.578L176.286 109.648L176.143 109.691L175.983 109.705L175.861 109.698L175.748 109.678L175.646 109.644L175.554 109.597L175.471 109.536L175.399 109.462L175.337 109.375L175.287 109.275L175.247 109.164L175.219 109.041L175.202 108.905L175.197 108.757L175.202 108.612L175.219 108.479L175.246 108.358L175.284 108.249L175.333 108.153L175.393 108.068L175.464 107.996L175.545 107.937L175.636 107.891L175.737 107.859L175.848 107.839L175.970 107.833L176.051 107.836L176.128 107.846L176.202 107.862L176.272 107.885L176.339 107.915L176.402 107.951L176.459 107.993L176.510 108.040L176.555 108.090L176.592 108.146L176.623 108.206L176.647 108.271L177.141 108.136L177.096 108.019L177.042 107.912L176.977 107.814L176.903 107.727L176.819 107.649L176.725 107.581L176.622 107.523L176.508 107.476L176.385 107.439L176.253 107.413L176.110 107.397L175.958 107.392L175.751 107.402L175.562 107.431L175.389 107.480L175.233 107.549L175.094 107.637L174.973 107.745L174.869 107.871L174.784 108.015L174.718 108.175L174.671 108.352L174.642 108.546L174.633 108.757L174.643 108.968L174.672 109.163L174.721 109.341L174.789 109.504L174.877 109.650L174.985 109.780L175.111 109.891L175.252 109.983L175.411 110.054L175.585 110.105L175.776 110.135L175.983 110.145Z" fill="none" stroke="red" stroke-width="0.3"/>
<path d="M181.598 110.141L181.726 110.126L181.849 110.103L181.965 110.070L182.077 110.028L182.182 109.977L182.281 109.917L182.371 109.849L182.454 109.772L182.529 109.687L182.596 109.594L182.655 109.492L182.705 109.384L182.747 109.269L182.779 109.150L182.802 109.024L182.815 108.894L182.820 108.757L182.810 108.553L182.780 108.363L182.731 108.189L182.661 108.030L182.571 107.886L182.462 107.757L182.335 107.645L182.193 107.554L182.035 107.483L181.861 107.433L181.672 107.402L181.468 107.392L181.264 107.402L181.075 107.432L180.902 107.482L180.744 107.552L180.602 107.643L180.475 107.753L180.366 107.881L180.277 108.025L180.207 108.184L180.158 108.360L180.128 108.550L180.118 108.757L180.128 108.965L180.158 109.157L180.208 109.334L180.277 109.496L180.367 109.643L180.476 109.774L180.603 109.887L180.745 109.980L180.902 110.052L181.074 110.104L181.262 110.135L181.464 110.145Z" fill="none" stroke="red" stroke-width="0.3"/>
<path d="M181.348 109.698L181.239 109.677L181.140 109.641L181.049 109.592L180.966 109.529L180.892 109.451L180.828 109.361L180.775 109.261L180.734 109.151L180.705 109.030L180.688 108.899L180.682 108.757L180.688 108.617L180.705 108.487L180.733 108.369L180.773 108.261L180.824 108.163L180.887 108.077L180.960 108.002L181.043 107.941L181.135 107.894L181.236 107.860L181.347 107.839L181.468 107.833L181.587 107.839L181.697 107.860L181.797 107.894L181.888 107.942L181.971 108.003L182.043 108.078L182.106 108.166L182.157 108.263L182.197 108.371L182.226 108.489L182.243 108.618L182.249 108.757L182.243 108.903L182.226 109.037L182.197 109.159L182.158 109.270L182.107 109.370L182.044 109.458L181.971 109.533L181.889 109.595L181.797 109.643L181.696 109.677L181.585 109.698L181.464 109.705Z" fill="none" stroke="red" stroke-width="0.3"/>
<path d="M169.654 107.432L169.075 107.432L168.527 109.150L168.430 109.492L168.390 109.655L168.361 109.547L168.335 109.449L168.310 109.360L168.288 109.281L168.268 109.211L168.250 109.150L167.699 107.432L167.114 107.432L168.103 110.107L168.671 110.107Z" fill="none" stroke="red" stroke-width="0.3"/>
<path d="M172.062 109.674L170.441 109.674L170.441 108.970L171.869 108.970L171.869 108.537L170.441 108.537L170.441 107.865L171.984 107.865L171.984 107.432L169.881 107.432L169.881 110.107L172.062 110.107Z" fill="none" stroke="red" stroke-width="0.3"/>
<path d="M174.409 109.674L172.974 109.674L172.974 107.432L172.414 107.432L172.414 110.107L174.409 110.107Z" fill="none" stroke="red" stroke-width="0.3"/>
<path d="M178.036 109.091L178.693 109.091L179.314 110.107L179.945 110.107L179.221 108.983L179.308 108.958L179.390 108.925L179.465 108.884L179.533 108.835L179.596 108.779L179.652 108.715L179.701 108.644L179.741 108.570L179.772 108.491L179.794 108.408L179.807 108.321L179.812 108.229L179.804 108.106L179.783 107.992L179.746 107.889L179.696 107.795L179.631 107.712L179.551 107.638L179.459 107.575L179.354 107.523L179.237 107.483L179.108 107.455L178.966 107.438L178.813 107.432L177.476 107.432L177.476 110.107L178.036 110.107Z" fill="none" stroke="red" stroke-width="0.3"/>
<path d="M178.036 108.657L178.036 107.867L178.754 107.867L178.905 107.877L179.028 107.910L179.124 107.963L179.193 108.038L179.234 108.134L179.248 108.252L179.244 108.314L179.234 108.370L179.217 108.423L179.194 108.470L179.163 108.512L179.126 108.550L179.082 108.583L179.032 108.609L178.976 108.630L178.913 108.645L178.844 108.654L178.769 108.657Z" fill="none" stroke="red" stroke-width="0.3"/>
<path d="M219.108 109.126L219.702 109.126L219.789 109.123L219.873 109.114L219.953 109.101L220.028 109.081L220.100 109.057L220.167 109.026L220.230 108.991L220.287 108.951L220.340 108.907L220.388 108.858L220.430 108.804L220.468 108.746L220.500 108.684L220.526 108.619L220.547 108.552L220.561 108.482L220.570 108.409L220.573 108.334L220.567 108.218L220.547 108.111L220.515 108.014L220.470 107.925L220.412 107.846L220.342 107.775L220.259 107.715L220.165 107.665L220.061 107.627L219.945 107.600L219.819 107.583L219.681 107.578L218.608 107.578L218.608 109.966L219.108 109.966Z" fill="none" stroke="red" stroke-width="0.3"/>
<path d="M219.108 108.741L219.108 107.966L219.625 107.966L219.761 107.976L219.872 108.008L219.958 108.060L220.020 108.133L220.057 108.227L220.069 108.342L220.066 108.404L220.057 108.461L220.041 108.513L220.020 108.560L219.992 108.601L219.958 108.638L219.918 108.669L219.872 108.695L219.822 108.715L219.766 108.729L219.705 108.738L219.639 108.741Z" fill="none" stroke="red" stroke-width="0.3"/>
<path d="M218.166 107.578L217.666 107.578L217.666 109.966L218.166 109.966Z" fill="none" stroke="red" stroke-width="0.3"/>
<path d="M217.383 109.575L216.022 109.575L217.314 107.925L217.314 107.578L215.595 107.578L215.595 107.969L216.758 107.969L215.466 109.612L215.466 109.966L217.383 109.966Z" fill="none" stroke="red" stroke-width="0.3"/>
<path d="M133.108 109.126L133.702 109.126L133.789 109.123L133.873 109.114L133.953 109.101L134.028 109.081L134.100 109.057L134.167 109.026L134.230 108.991L134.287 108.951L134.340 108.907L134.388 108.858L134.430 108.804L134.468 108.746L134.500 108.684L134.526 108.619L134.547 108.552L134.561 108.482L134.570 108.409L134.573 108.334L134.566 108.218L134.547 108.111L134.515 108.014L134.470 107.925L134.412 107.846L134.341 107.775L134.259 107.715L134.165 107.665L134.061 107.627L133.945 107.600L133.819 107.583L133.681 107.578L132.608 107.578L132.608 109.966L133.108 109.966Z" fill="none" stroke="red" stroke-width="0.3"/>
<path d="M133.108 108.741L133.108 107.966L133.625 107.966L133.761 107.976L133.872 108.008L133.958 108.060L134.020 108.133L134.057 108.227L134.070 108.342L134.066 108.404L134.057 108.461L134.041 108.513L134.020 108.560L133.992 108.601L133.958 108.638L133.918 108.669L133.872 108.695L133.822 108.715L133.766 108.729L133.705 108.738L133.639 108.741Z" fill="none" stroke="red" stroke-width="0.3"/>
<path d="M131.383 109.575L130.022 109.575L131.314 107.925L131.314 107.578L129.595 107.578L129.595 107.969L130.758 107.969L129.466 109.612L129.466 109.966L131.383 109.966Z" fill="none" stroke="red" stroke-width="0.3"/>
<path d="M132.166 107.578L131.666 107.578L131.666 109.966L132.166 109.966Z" fill="none" stroke="red" stroke-width="0.3"/>
<path d="M17.000 168.700L37.000 168.700L37.000 171.600L53.000 171.600L53.000 168.700L73.000 168.700L73.000 171.600L81.090 171.600L81.090 163.640L84.000 163.640L84.000 155.680L81.090 155.680L81.090 147.720L84.000 147.720L84.000 139.760L81.090 139.760L81.090 131.800L73.000 131.800L73.000 134.700L53.000 134.700L53.000 131.800L37.000 131.800L37.000 134.700L17.000 134.700L17.000 131.800L8.910 131.800L8.910 139.760L6.000 139.760L6.000 147.720L8.910 147.720L8.910 155.680L6.000 155.680L6.000 163.640L8.910 163.640L8.910 171.600L17.000 171.600Z" fill="none" stroke="black" stroke-width="0.3"/>
<path d="M18.750 165.210L18.750 153.510L39.050 153.510L39.050 165.210Z" fill="none" stroke="black" stroke-width="0.3"/>
<path d="M31.964 148.791L32.115 148.759L32.254 148.707L32.379 148.633L32.491 148.538L32.591 148.423L32.676 148.286L32.746 148.128L32.800 147.948L32.839 147.748L32.862 147.525L32.870 147.282L32.863 147.053L32.842 146.844L32.807 146.655L32.758 146.486L32.695 146.338L32.618 146.209L32.527 146.099L32.422 146.010L32.301 145.941L32.166 145.891L32.017 145.861L31.852 145.852L31.699 145.859L31.558 145.880L31.428 145.915L31.311 145.965L31.206 146.028L31.113 146.106L31.033 146.196L30.968 146.297L30.917 146.409L30.881 146.532L30.859 146.667L30.852 146.812L30.858 146.953L30.876 147.084L30.907 147.206L30.951 147.317L31.006 147.418L31.074 147.508L31.153 147.587L31.240 147.651L31.336 147.702L31.440 147.737L31.554 147.759L31.675 147.766L31.742 147.763L31.808 147.756L31.872 147.744L31.934 147.727L31.995 147.706L32.055 147.679L32.111 147.649L32.161 147.614L32.206 147.576L32.246 147.535L32.279 147.489L32.308 147.440L32.303 147.585L32.291 147.717L32.273 147.837L32.247 147.944L32.214 148.039L32.175 148.122L32.129 148.192L32.076 148.250L32.018 148.294L31.953 148.326L31.883 148.345L31.806 148.352L31.716 148.343L31.637 148.319L31.571 148.277L31.515 148.219L31.472 148.144L31.439 148.053L30.902 148.128L30.936 148.239L30.976 148.340L31.023 148.431L31.077 148.511L31.138 148.580L31.206 148.640L31.282 148.689L31.368 148.729L31.462 148.761L31.565 148.783L31.678 148.797L31.799 148.801Z" fill="none" stroke="red" stroke-width="0.3"/>
<path d="M31.778 147.337L31.721 147.325L31.668 147.305L31.620 147.277L31.577 147.241L31.539 147.197L31.506 147.147L31.479 147.091L31.458 147.030L31.443 146.964L31.434 146.893L31.431 146.816L31.434 146.738L31.443 146.666L31.459 146.600L31.480 146.540L31.507 146.485L31.540 146.436L31.579 146.394L31.622 146.360L31.669 146.333L31.721 146.314L31.777 146.303L31.838 146.299L31.900 146.303L31.959 146.317L32.012 146.339L32.062 146.369L32.107 146.409L32.148 146.457L32.184 146.512L32.213 146.574L32.236 146.642L32.252 146.715L32.262 146.795L32.265 146.881L32.262 146.948L32.252 147.011L32.235 147.069L32.212 147.123L32.181 147.172L32.144 147.216L32.102 147.254L32.057 147.285L32.008 147.309L31.955 147.327L31.899 147.337L31.840 147.341Z" fill="none" stroke="red" stroke-width="0.3"/>
<path d="M26.403 148.756L26.532 148.741L26.656 148.717L26.775 148.683L26.889 148.639L26.998 148.586L27.100 148.523L27.194 148.452L27.280 148.372L27.358 148.283L27.428 148.186L27.490 148.080L27.543 147.967L27.587 147.847L27.620 147.721L27.645 147.589L27.659 147.451L27.664 147.306L27.653 147.088L27.620 146.887L27.565 146.704L27.488 146.538L27.388 146.390L27.267 146.259L27.126 146.148L26.966 146.056L26.789 145.986L26.593 145.935L26.379 145.904L26.146 145.894L25.109 145.894L25.109 148.761L26.268 148.761Z" fill="none" stroke="red" stroke-width="0.3"/>
<path d="M25.709 148.297L25.709 146.358L26.134 146.358L26.277 146.365L26.408 146.385L26.528 146.419L26.637 146.466L26.734 146.527L26.820 146.601L26.893 146.688L26.953 146.788L27.000 146.899L27.033 147.023L27.053 147.158L27.060 147.306L27.053 147.453L27.034 147.590L27.003 147.716L26.958 147.831L26.901 147.936L26.832 148.030L26.752 148.112L26.662 148.178L26.564 148.230L26.457 148.267L26.342 148.289L26.218 148.297Z" fill="none" stroke="red" stroke-width="0.3"/>
<path d="M29.649 148.755L29.803 148.737L29.945 148.707L30.075 148.666L30.191 148.612L30.295 148.547L30.385 148.471L30.458 148.385L30.515 148.289L30.556 148.184L30.580 148.068L30.588 147.943L30.583 147.848L30.568 147.760L30.543 147.679L30.507 147.603L30.462 147.534L30.406 147.472L30.341 147.416L30.266 147.368L30.183 147.328L30.090 147.296L29.988 147.270L29.876 147.253L29.964 147.231L30.045 147.202L30.117 147.167L30.182 147.126L30.239 147.079L30.288 147.026L30.329 146.968L30.363 146.906L30.390 146.839L30.408 146.769L30.420 146.694L30.423 146.614L30.416 146.501L30.393 146.396L30.356 146.302L30.303 146.217L30.236 146.142L30.154 146.076L30.057 146.021L29.946 145.975L29.820 145.940L29.681 145.914L29.527 145.899L29.359 145.894L28.047 145.894L28.047 148.761L29.481 148.761Z" fill="none" stroke="red" stroke-width="0.3"/>
<path d="M28.647 147.050L28.647 146.340L29.331 146.340L29.408 146.342L29.479 146.349L29.543 146.360L29.601 146.376L29.652 146.396L29.696 146.421L29.734 146.451L29.764 146.488L29.788 146.530L29.805 146.579L29.816 146.634L29.819 146.696L29.816 146.752L29.806 146.804L29.790 146.851L29.768 146.892L29.739 146.929L29.704 146.961L29.662 146.988L29.612 147.010L29.554 147.028L29.489 147.040L29.416 147.047L29.335 147.050Z" fill="none" stroke="red" stroke-width="0.3"/>
<path d="M28.647 148.315L28.647 147.493L29.408 147.493L29.585 147.504L29.729 147.538L29.841 147.594L29.922 147.672L29.970 147.773L29.986 147.896L29.982 147.963L29.971 148.024L29.953 148.079L29.927 148.129L29.893 148.173L29.853 148.210L29.804 148.242L29.747 148.269L29.681 148.289L29.606 148.304L29.523 148.312L29.431 148.315Z" fill="none" stroke="red" stroke-width="0.3"/>
<path d="M163.090 163.640L166.000 163.640L166.000 155.680L163.090 155.680L163.090 147.720L166.000 147.720L166.000 139.760L163.090 139.760L163.090 131.800L155.000 131.800L155.000 134.700L135.000 134.700L135.000 131.800L119.000 131.800L119.000 134.700L99.000 134.700L99.000 131.800L90.910 131.800L90.910 139.760L88.000 139.760L88.000 147.720L90.910 147.720L90.910 155.680L88.000 155.680L88.000 163.640L90.910 163.640L90.910 171.600L99.000 171.600L99.000 168.700L119.000 168.700L119.000 171.600L135.000 171.600L135.000 168.700L155.000 168.700L155.000 171.600L163.090 171.600Z" fill="none" stroke="black" stroke-width="0.3"/>
<path d="M96.723 153.632L95.482 150.174Q95.441 150.058 95.374 149.991Q95.307 149.925 95.191 149.890L95.052 149.843L95.052 149.785L96.723 149.785L96.723 149.843L96.543 149.896Q96.410 149.930 96.395 150.017Q96.381 150.104 96.421 150.232L97.280 152.779L98.145 150.226Q98.191 150.093 98.188 150.006Q98.185 149.919 98.052 149.884L97.901 149.843L97.901 149.785L98.713 149.785L98.713 149.843L98.557 149.890Q98.446 149.919 98.400 149.991Q98.353 150.064 98.313 150.180L97.152 153.632ZM98.870 153.615L98.870 153.557L99.003 153.504Q99.102 153.464 99.140 153.397Q99.177 153.330 99.177 153.214L99.177 150.186Q99.177 150.070 99.145 150.003Q99.113 149.936 99.003 149.896L98.870 149.843L98.870 149.785L101.649 149.785L101.684 150.679L101.626 150.679L101.376 150.134Q101.324 150.029 101.266 149.965Q101.208 149.901 101.092 149.901L100.048 149.901L100.048 151.578L100.668 151.578Q100.784 151.578 100.845 151.517Q100.906 151.456 100.953 151.352L101.069 151.120L101.127 151.120L101.127 152.164L101.069 152.164L100.953 151.920Q100.900 151.816 100.842 151.755Q100.784 151.694 100.668 151.694L100.048 151.694L100.048 153.499L101.220 153.499Q101.336 153.499 101.399 153.438Q101.463 153.377 101.504 153.266L101.742 152.721L101.800 152.721L101.765 153.615ZM102.090 153.615L102.090 153.557L102.212 153.516Q102.328 153.475 102.363 153.409Q102.397 153.342 102.397 153.220L102.397 150.186Q102.397 150.070 102.365 150.003Q102.334 149.936 102.223 149.896L102.090 149.843L102.090 149.785L103.749 149.785Q104.434 149.785 104.799 150.044Q105.165 150.302 105.165 150.760Q105.165 151.015 104.973 151.271Q104.782 151.526 104.370 151.665L105.176 153.266Q105.229 153.365 105.295 153.426Q105.362 153.487 105.472 153.533L105.548 153.562L105.548 153.615L104.509 153.615L103.651 151.787L103.256 151.787L103.256 153.220Q103.256 153.330 103.291 153.400Q103.326 153.470 103.436 153.504L103.575 153.557L103.575 153.615ZM103.256 151.671L103.534 151.671Q103.952 151.671 104.138 151.448Q104.324 151.224 104.324 150.783Q104.324 150.337 104.149 150.119Q103.975 149.901 103.564 149.901L103.256 149.901ZM106.511 153.615L106.511 153.557L106.749 153.499Q106.987 153.446 106.987 153.208L106.987 149.901L106.493 149.901Q106.279 149.901 106.186 150.015Q106.093 150.128 105.989 150.325L105.780 150.731L105.722 150.731L105.751 149.785L109.098 149.785L109.122 150.731L109.064 150.731L108.855 150.325Q108.756 150.128 108.663 150.015Q108.570 149.901 108.356 149.901L107.863 149.901L107.863 153.208Q107.863 153.446 108.101 153.499L108.338 153.557L108.338 153.615ZM109.371 153.615L109.371 153.557L109.487 153.510Q109.603 153.470 109.641 153.400Q109.679 153.330 109.679 153.214L109.679 150.186Q109.679 150.070 109.644 150.000Q109.609 149.930 109.487 149.890L109.371 149.843L109.371 149.785L110.862 149.785L110.862 149.843L110.746 149.890Q110.630 149.930 110.592 150.000Q110.555 150.070 110.555 150.186L110.555 153.214Q110.555 153.330 110.592 153.397Q110.630 153.464 110.746 153.510L110.862 153.557L110.862 153.615ZM113.113 153.719Q112.551 153.719 112.095 153.490Q111.640 153.261 111.373 152.808Q111.106 152.356 111.106 151.700Q111.106 151.201 111.268 150.824Q111.431 150.447 111.712 150.192Q111.994 149.936 112.362 149.809Q112.730 149.681 113.142 149.681Q113.473 149.681 113.752 149.756Q114.030 149.832 114.274 149.965L114.297 150.679L114.239 150.679L113.949 150.215Q113.891 150.104 113.821 150.015Q113.752 149.925 113.647 149.878Q113.560 149.838 113.476 149.817Q113.392 149.797 113.264 149.797Q112.928 149.797 112.652 149.977Q112.376 150.157 112.211 150.572Q112.046 150.986 112.046 151.706Q112.046 152.419 112.202 152.834Q112.359 153.249 112.629 153.426Q112.899 153.603 113.235 153.603Q113.421 153.603 113.531 153.577Q113.641 153.551 113.752 153.499Q113.862 153.452 113.920 153.362Q113.978 153.272 114.024 153.168L114.279 152.599L114.338 152.599L114.320 153.429Q114.076 153.557 113.775 153.638Q113.473 153.719 113.113 153.719ZM114.535 153.615L114.535 153.557L114.680 153.504Q114.796 153.458 114.860 153.391Q114.923 153.325 114.964 153.203L116.159 149.774L116.652 149.774L117.830 153.226Q117.877 153.354 117.935 153.420Q117.993 153.487 118.114 153.533L118.184 153.557L118.184 153.615L116.710 153.615L116.710 153.557L116.797 153.528Q116.919 153.481 116.945 153.397Q116.972 153.313 116.937 153.197L116.664 152.361L115.376 152.361L115.098 153.179Q115.057 153.307 115.071 153.383Q115.086 153.458 115.208 153.504L115.335 153.557L115.335 153.615ZM115.417 152.245L116.629 152.245L116.043 150.441ZM118.387 153.615L118.387 153.557L118.509 153.510Q118.631 153.464 118.663 153.397Q118.695 153.330 118.695 153.214L118.695 150.186Q118.695 150.070 118.660 150.000Q118.625 149.930 118.509 149.890L118.387 149.843L118.387 149.785L119.867 149.785L119.867 149.843L119.762 149.890Q119.652 149.930 119.611 150.003Q119.571 150.075 119.571 150.192L119.571 153.499L120.464 153.499Q120.679 153.499 120.780 153.394Q120.882 153.290 120.975 153.092L121.201 152.605L121.259 152.605L121.207 153.615ZM122.773 153.615L122.773 153.557L122.889 153.516Q123.087 153.452 123.087 153.185L123.087 150.215Q123.087 150.099 123.061 150.029Q123.034 149.959 122.924 149.913L122.773 149.843L122.773 149.785L123.893 149.785L124.966 152.593L125.976 149.785L127.119 149.785L127.119 149.843L127.026 149.878Q126.916 149.919 126.875 149.991Q126.835 150.064 126.835 150.180L126.835 153.214Q126.835 153.330 126.864 153.394Q126.893 153.458 127.003 153.504L127.119 153.557L127.119 153.615L125.674 153.615L125.674 153.557L125.796 153.504Q125.906 153.458 125.935 153.394Q125.964 153.330 125.964 153.214L125.964 151.909L125.976 150.250L124.763 153.615L124.473 153.615L123.209 150.290L123.226 151.735L123.226 153.197Q123.226 153.325 123.264 153.403Q123.301 153.481 123.412 153.516L123.539 153.557L123.539 153.615ZM129.190 153.719Q128.836 153.719 128.508 153.591Q128.181 153.464 127.922 153.211Q127.664 152.959 127.513 152.582Q127.363 152.205 127.363 151.700Q127.363 151.201 127.513 150.824Q127.664 150.447 127.925 150.194Q128.186 149.942 128.514 149.812Q128.842 149.681 129.190 149.681Q129.544 149.681 129.872 149.806Q130.200 149.930 130.458 150.183Q130.716 150.435 130.867 150.815Q131.018 151.195 131.018 151.700Q131.018 152.193 130.867 152.573Q130.716 152.953 130.458 153.206Q130.200 153.458 129.872 153.588Q129.544 153.719 129.190 153.719ZM129.190 153.597Q129.509 153.597 129.707 153.426Q129.904 153.255 129.994 152.840Q130.084 152.425 130.084 151.700Q130.084 150.969 129.994 150.554Q129.904 150.139 129.707 149.968Q129.509 149.797 129.190 149.797Q128.877 149.797 128.680 149.968Q128.482 150.139 128.392 150.554Q128.303 150.969 128.303 151.700Q128.303 152.425 128.392 152.840Q128.482 153.255 128.680 153.426Q128.877 153.597 129.190 153.597ZM133.077 153.719Q132.724 153.719 132.396 153.591Q132.068 153.464 131.810 153.211Q131.552 152.959 131.401 152.582Q131.250 152.205 131.250 151.700Q131.250 151.201 131.401 150.824Q131.552 150.447 131.813 150.194Q132.074 149.942 132.402 149.812Q132.729 149.681 133.077 149.681Q133.431 149.681 133.759 149.806Q134.087 149.930 134.345 150.183Q134.603 150.435 134.754 150.815Q134.905 151.195 134.905 151.700Q134.905 152.193 134.754 152.573Q134.603 152.953 134.345 153.206Q134.087 153.458 133.759 153.588Q133.431 153.719 133.077 153.719ZM133.077 153.597Q133.397 153.597 133.594 153.426Q133.791 153.255 133.881 152.840Q133.971 152.425 133.971 151.700Q133.971 150.969 133.881 150.554Q133.791 150.139 133.594 149.968Q133.397 149.797 133.077 149.797Q132.764 149.797 132.567 149.968Q132.370 150.139 132.280 150.554Q132.190 150.969 132.190 151.700Q132.190 152.425 132.280 152.840Q132.370 153.255 132.567 153.426Q132.764 153.597 133.077 153.597ZM135.149 153.615L135.149 153.557L135.265 153.516Q135.381 153.481 135.418 153.412Q135.456 153.342 135.456 153.226L135.456 150.186Q135.456 150.070 135.416 150.000Q135.375 149.930 135.259 149.890L135.149 149.843L135.149 149.785L136.559 149.785Q137.423 149.785 137.809 150.102Q138.195 150.418 138.195 150.934Q138.195 151.265 138.035 151.540Q137.876 151.816 137.510 151.978Q137.145 152.141 136.524 152.141L136.326 152.141L136.326 153.208Q136.326 153.435 136.553 153.504L136.727 153.557L136.727 153.615ZM136.326 152.025L136.547 152.025Q136.831 152.025 137.011 151.932Q137.191 151.839 137.278 151.607Q137.365 151.375 137.365 150.963Q137.365 150.545 137.269 150.313Q137.174 150.081 136.988 149.991Q136.802 149.901 136.524 149.901L136.326 149.901ZM139.680 153.615L139.680 153.557L139.796 153.516Q139.993 153.452 139.993 153.185L139.993 150.215Q139.993 150.099 139.967 150.029Q139.941 149.959 139.831 149.913L139.680 149.843L139.680 149.785L140.800 149.785L141.873 152.593L142.883 149.785L144.025 149.785L144.025 149.843L143.933 149.878Q143.822 149.919 143.782 149.991Q143.741 150.064 143.741 150.180L143.741 153.214Q143.741 153.330 143.770 153.394Q143.799 153.458 143.909 153.504L144.025 153.557L144.025 153.615L142.581 153.615L142.581 153.557L142.703 153.504Q142.813 153.458 142.842 153.394Q142.871 153.330 142.871 153.214L142.871 151.909L142.883 150.250L141.670 153.615L141.380 153.615L140.115 150.290L140.132 151.735L140.132 153.197Q140.132 153.325 140.170 153.403Q140.208 153.481 140.318 153.516L140.446 153.557L140.446 153.615ZM144.200 153.615L144.200 153.557L144.345 153.504Q144.461 153.458 144.524 153.391Q144.588 153.325 144.629 153.203L145.824 149.774L146.317 149.774L147.495 153.226Q147.541 153.354 147.599 153.420Q147.657 153.487 147.779 153.533L147.849 153.557L147.849 153.615L146.375 153.615L146.375 153.557L146.462 153.528Q146.584 153.481 146.610 153.397Q146.636 153.313 146.601 153.197L146.329 152.361L145.041 152.361L144.762 153.179Q144.722 153.307 144.736 153.383Q144.751 153.458 144.873 153.504L145.000 153.557L145.000 153.615ZM145.081 152.245L146.294 152.245L145.708 150.441ZM148.052 153.615L148.052 153.557L148.174 153.516Q148.290 153.475 148.325 153.409Q148.359 153.342 148.359 153.220L148.359 150.186Q148.359 150.070 148.328 150.003Q148.296 149.936 148.185 149.896L148.052 149.843L148.052 149.785L149.711 149.785Q150.396 149.785 150.761 150.044Q151.127 150.302 151.127 150.760Q151.127 151.015 150.935 151.271Q150.744 151.526 150.332 151.665L151.139 153.266Q151.191 153.365 151.257 153.426Q151.324 153.487 151.434 153.533L151.510 153.562L151.510 153.615L150.471 153.615L149.613 151.787L149.218 151.787L149.218 153.220Q149.218 153.330 149.253 153.400Q149.288 153.470 149.398 153.504L149.537 153.557L149.537 153.615ZM149.218 151.671L149.497 151.671Q149.914 151.671 150.100 151.448Q150.286 151.224 150.286 150.783Q150.286 150.337 150.112 150.119Q149.938 149.901 149.526 149.901L149.218 149.901ZM153.691 153.719Q153.129 153.719 152.673 153.490Q152.218 153.261 151.951 152.808Q151.684 152.356 151.684 151.700Q151.684 151.201 151.846 150.824Q152.009 150.447 152.290 150.192Q152.572 149.936 152.940 149.809Q153.308 149.681 153.720 149.681Q154.051 149.681 154.330 149.756Q154.608 149.832 154.852 149.965L154.875 150.679L154.817 150.679L154.527 150.215Q154.469 150.104 154.399 150.015Q154.330 149.925 154.225 149.878Q154.138 149.838 154.054 149.817Q153.970 149.797 153.842 149.797Q153.506 149.797 153.230 149.977Q152.954 150.157 152.789 150.572Q152.624 150.986 152.624 151.706Q152.624 152.419 152.780 152.834Q152.937 153.249 153.207 153.426Q153.477 153.603 153.813 153.603Q153.999 153.603 154.109 153.577Q154.219 153.551 154.330 153.499Q154.440 153.452 154.498 153.362Q154.556 153.272 154.602 153.168L154.857 152.599L154.916 152.599L154.898 153.429Q154.654 153.557 154.353 153.638Q154.051 153.719 153.691 153.719ZM155.194 153.615L155.194 153.557L155.310 153.510Q155.426 153.470 155.464 153.400Q155.501 153.330 155.501 153.220L155.501 150.186Q155.501 150.070 155.464 150.000Q155.426 149.930 155.310 149.890L155.194 149.843L155.194 149.785L156.668 149.785L156.668 149.843L156.569 149.884Q156.459 149.925 156.418 149.991Q156.378 150.058 156.378 150.174L156.378 151.584L157.764 151.584L157.764 150.174Q157.764 150.058 157.726 149.991Q157.689 149.925 157.573 149.884L157.468 149.843L157.468 149.785L158.948 149.785L158.948 149.843L158.832 149.890Q158.722 149.930 158.681 150.000Q158.640 150.070 158.640 150.186L158.640 153.220Q158.640 153.330 158.681 153.400Q158.722 153.470 158.832 153.510L158.948 153.557L158.948 153.615L157.468 153.615L157.468 153.557L157.573 153.522Q157.689 153.475 157.726 153.409Q157.764 153.342 157.764 153.226L157.764 151.700L156.378 151.700L156.378 153.226Q156.378 153.441 156.569 153.522L156.668 153.557L156.668 153.615Z" fill="none" stroke="red" stroke-width="0.3"/>
</svg>