<svg xmlns="http://www.w3.org/2000/svg" version="1.1" width="231mm" height="178mm" viewBox="0 -178 231 178">
<g id="cut" fill="none" stroke="#000000" stroke-width="0.2">
<path d="
M 33,-102.5 L 45,-102.5 L 45,-99.6 L 65,-99.6 L 65,-102.5 L 77,-102.5
 L 77,-99.6 L 97,-99.6 L 97,-102.5 L 107.1,-102.5 L 107.1,-110.6 L 110,-110.6
 L 110,-130.6 L 107.1,-130.6 L 107.1,-146.6 L 110,-146.6 L 110,-166.6 L 107.1,-166.6
 L 107.1,-174.7 L 97,-174.7 L 97,-177.6 L 77,-177.6 L 77,-174.7 L 65,-174.7
 L 65,-177.6 L 45,-177.6 L 45,-174.7 L 33,-174.7 L 33,-177.6 L 13,-177.6
 L 13,-174.7 L 2.89999,-174.7 L 2.89999,-166.6 L 0,-166.6 L 0,-146.6 L 2.89999,-146.6
 L 2.89999,-130.6 L 0,-130.6 L 0,-110.6 L 2.89999,-110.6 L 2.89999,-102.5 L 13,-102.5
 L 13,-99.6 L 33,-99.6 z
M 169.386,-100.695 L 169.643,-101.763 L 170.063,-102.778 L 170.637,-103.714 L 171.35,-104.55 L 172.186,-105.263
 L 173.122,-105.837 L 174.137,-106.257 L 175.205,-106.514 L 176.3,-106.6 L 177.395,-106.514 L 178.463,-106.257
 L 179.478,-105.837 L 180.414,-105.263 L 181.25,-104.55 L 181.963,-103.714 L 182.537,-102.778 L 182.957,-101.763
 L 183.214,-100.695 L 183.3,-99.6 L 230.6,-99.6 L 230.6,-171.5 L 228.2,-171.5 L 228.2,-174.7
 L 124.4,-174.7 L 124.4,-171.5 L 122,-171.5 L 122,-99.6 L 169.3,-99.6 z
M 13,-52.7 L 33,-52.7 L 33,-49.8 L 45,-49.8 L 45,-52.7 L 65,-52.7
 L 65,-49.8 L 77,-49.8 L 77,-52.7 L 97,-52.7 L 97,-49.8 L 110,-49.8
 L 110,-58.56 L 107.09,-58.56 L 107.09,-67.32 L 110,-67.32 L 110,-76.08 L 107.09,-76.08
 L 107.09,-84.84 L 110,-84.84 L 110,-93.6 L 0,-93.6 L 0,-84.84 L 2.90999,-84.84
 L 2.90999,-76.08 L 0,-76.08 L 0,-67.32 L 2.90999,-67.32 L 2.90999,-58.56 L 0,-58.56
 L 0,-49.8 L 13,-49.8 z
M 25.5,-57.7 L 25.5,-81.7 L 30.5,-81.7 L 30.5,-57.7 z
M 79.5,-57.7 L 79.5,-81.7 L 84.5,-81.7 L 84.5,-57.7 z
M 133,-52.7 L 153,-52.7 L 153,-49.8 L 169,-49.8 L 169,-52.7 L 189,-52.7
 L 189,-49.8 L 197.09,-49.8 L 197.09,-58.56 L 200,-58.56 L 200,-67.32 L 197.09,-67.32
 L 197.09,-76.08 L 200,-76.08 L 200,-84.84 L 197.09,-84.84 L 197.09,-93.6 L 122,-93.6
 L 122,-90 L 194.1,-90 L 194.1,-86.7 L 124.91,-86.7 L 124.91,-84.84 L 122,-84.84
 L 122,-76.08 L 124.91,-76.08 L 124.91,-67.32 L 122,-67.32 L 122,-58.56 L 124.91,-58.56
 L 124.91,-49.8 L 133,-49.8 z
M 175.352,-55.2431 L 174.818,-55.3713 L 174.311,-55.5815 L 173.843,-55.8684 L 173.425,-56.2251 L 173.068,-56.6427
 L 172.781,-57.111 L 172.571,-57.6184 L 172.443,-58.1525 L 172.4,-58.7 L 172.443,-59.2475 L 172.571,-59.7815
 L 172.781,-60.2889 L 173.068,-60.7572 L 173.425,-61.1749 L 173.843,-61.5315 L 174.311,-61.8185 L 174.818,-62.0287
 L 175.352,-62.1569 L 175.9,-62.2 L 176.448,-62.1569 L 176.982,-62.0287 L 177.489,-61.8185 L 177.957,-61.5315
 L 178.375,-61.1749 L 178.732,-60.7572 L 179.019,-60.2889 L 179.229,-59.7815 L 179.357,-59.2475 L 179.4,-58.7
 L 179.357,-58.1525 L 179.229,-57.6184 L 179.019,-57.111 L 178.732,-56.6427 L 178.375,-56.2251 L 177.957,-55.8684
 L 177.489,-55.5815 L 176.982,-55.3713 L 176.448,-55.2431 L 175.9,-55.2 z
M 138,-54.4 L 138,-58.4 L 148,-58.4 L 148,-54.4 z
M 133,-2.89999 L 153,-2.89999 L 153,-0 L 169,-0 L 169,-2.89999 L 189,-2.89999
 L 189,-0 L 197.09,-0 L 197.09,-8.75999 L 200,-8.75999 L 200,-17.52 L 197.09,-17.52
 L 197.09,-26.28 L 200,-26.28 L 200,-35.04 L 197.09,-35.04 L 197.09,-43.8 L 122,-43.8
 L 122,-40.2 L 194.1,-40.2 L 194.1,-36.9 L 124.91,-36.9 L 124.91,-35.04 L 122,-35.04
 L 122,-26.28 L 124.91,-26.28 L 124.91,-17.52 L 122,-17.52 L 122,-8.75999 L 124.91,-8.75999
 L 124.91,-0 L 133,-0 z
M 176.279,-8.13542 L 174.601,-8.53838 L 173.006,-9.19891 L 171.534,-10.1008 L 170.222,-11.2218 L 169.101,-12.5343
 L 168.199,-14.0061 L 167.538,-15.6008 L 167.135,-17.2792 L 167,-19 L 167.135,-20.7208 L 167.538,-22.3992
 L 168.199,-23.9939 L 169.101,-25.4656 L 170.222,-26.7782 L 171.534,-27.8992 L 173.006,-28.8011 L 174.601,-29.4616
 L 176.279,-29.8646 L 178,-30 L 179.721,-29.8646 L 181.399,-29.4616 L 182.994,-28.8011 L 184.466,-27.8992
 L 185.778,-26.7782 L 186.899,-25.4656 L 187.801,-23.9939 L 188.462,-22.3992 L 188.865,-20.7208 L 189,-19
 L 188.865,-17.2792 L 188.462,-15.6008 L 187.801,-14.0061 L 186.899,-12.5343 L 185.778,-11.2218 L 184.466,-10.1008
 L 182.994,-9.19891 L 181.399,-8.53838 L 179.721,-8.13542 L 178,-8 z
M 133.85,-6.34999 L 133.85,-18.05 L 154.15,-18.05 L 154.15,-6.34999 z
M 13,-2.89999 L 33,-2.89999 L 33,-0 L 45,-0 L 45,-2.89999 L 65,-2.89999
 L 65,-0 L 77,-0 L 77,-2.89999 L 97,-2.89999 L 97,-0 L 110,-0
 L 110,-8.75999 L 107.09,-8.75999 L 107.09,-17.52 L 110,-17.52 L 110,-26.28 L 107.09,-26.28
 L 107.09,-35.04 L 110,-35.04 L 110,-36.9 L 0,-36.9 L 0,-35.04 L 2.90999,-35.04
 L 2.90999,-26.28 L 0,-26.28 L 0,-17.52 L 2.90999,-17.52 L 2.90999,-8.75999 L 0,-8.75999
 L 0,-0 L 13,-0 z
M 27,-7.89999 L 27,-31.9 L 83,-31.9 L 83,-7.89999 z
"/>
</g>
<g id="etch" fill="#ff0000" stroke="#ff0000" stroke-width="0.1">
<path d="
M 107.1,-169.465 L 89.87,-169.465 L 89.87,-137.535 L 107.1,-137.535 z
M 90.27,-137.935 L 90.27,-169.065 L 106.7,-169.065 L 106.7,-137.935 z
M 101.936,-151.969 L 102.086,-151.987 L 102.229,-152.017 L 102.364,-152.059 L 102.492,-152.113 L 102.612,-152.179
 L 102.723,-152.257 L 102.825,-152.348 L 102.918,-152.451 L 103.001,-152.567 L 103.075,-152.696 L 103.14,-152.837
 L 102.582,-153.048 L 102.497,-152.87 L 102.393,-152.725 L 102.268,-152.611 L 102.124,-152.531 L 101.961,-152.482
 L 101.777,-152.466 L 101.638,-152.474 L 101.509,-152.497 L 101.392,-152.535 L 101.287,-152.589 L 101.193,-152.659
 L 101.11,-152.744 L 101.039,-152.843 L 100.982,-152.957 L 100.937,-153.084 L 100.905,-153.225 L 100.885,-153.38
 L 100.879,-153.549 L 100.885,-153.715 L 100.904,-153.867 L 100.935,-154.005 L 100.979,-154.129 L 101.035,-154.24
 L 101.104,-154.337 L 101.184,-154.419 L 101.277,-154.486 L 101.38,-154.538 L 101.496,-154.576 L 101.623,-154.598
 L 101.762,-154.606 L 101.855,-154.602 L 101.943,-154.591 L 102.028,-154.572 L 102.108,-154.545 L 102.184,-154.511
 L 102.256,-154.47 L 102.322,-154.422 L 102.38,-154.369 L 102.431,-154.311 L 102.474,-154.247 L 102.509,-154.178
 L 102.537,-154.104 L 103.101,-154.258 L 103.05,-154.392 L 102.987,-154.515 L 102.914,-154.627 L 102.829,-154.727
 L 102.733,-154.816 L 102.626,-154.893 L 102.507,-154.959 L 102.378,-155.013 L 102.237,-155.055 L 102.086,-155.085
 L 101.923,-155.103 L 101.749,-155.109 L 101.513,-155.098 L 101.296,-155.064 L 101.099,-155.008 L 100.921,-154.93
 L 100.762,-154.829 L 100.623,-154.705 L 100.504,-154.561 L 100.407,-154.398 L 100.332,-154.215 L 100.278,-154.012
 L 100.245,-153.79 L 100.234,-153.549 L 100.246,-153.308 L 100.279,-153.085 L 100.335,-152.881 L 100.413,-152.696
 L 100.514,-152.529 L 100.637,-152.38 L 100.78,-152.253 L 100.943,-152.148 L 101.123,-152.067 L 101.323,-152.009
 L 101.541,-151.974 L 101.777,-151.963 z
M 97.9399,-152.787 L 99.1051,-152.787 L 99.3764,-152.006 L 100.01,-152.006 L 98.899,-155.064 L 98.1438,-155.064
 L 97.0284,-152.006 L 97.6686,-152.006 z
M 98.0831,-153.269 L 98.1887,-153.577 L 98.2769,-153.835 L 98.3478,-154.043 L 98.4014,-154.201 L 98.4375,-154.309
 L 98.4563,-154.367 L 98.4662,-154.4 L 98.4756,-154.431 L 98.4845,-154.461 L 98.493,-154.49 L 98.5009,-154.518
 L 98.5084,-154.545 L 98.5214,-154.593 L 98.567,-154.443 L 98.6603,-154.148 L 98.9619,-153.269 z
M 95.4609,-152.011 L 95.5988,-152.027 L 95.7312,-152.053 L 95.8581,-152.089 L 95.9796,-152.136 L 96.0955,-152.193
 L 96.2044,-152.259 L 96.3048,-152.335 L 96.3966,-152.421 L 96.4799,-152.515 L 96.5545,-152.619 L 96.6207,-152.732
 L 96.6774,-152.853 L 96.7237,-152.98 L 96.7598,-153.115 L 96.7856,-153.256 L 96.801,-153.403 L 96.8062,-153.558
 L 96.7944,-153.79 L 96.7592,-154.005 L 96.7004,-154.2 L 96.6181,-154.377 L 96.5123,-154.535 L 96.383,-154.674
 L 96.2323,-154.793 L 96.0621,-154.89 L 95.8726,-154.966 L 95.6636,-155.02 L 95.4352,-155.053 L 95.1874,-155.064
 L 94.0807,-155.064 L 94.0807,-152.006 L 95.3176,-152.006 z
M 94.7208,-152.501 L 94.7208,-154.569 L 95.1744,-154.569 L 95.3267,-154.562 L 95.4668,-154.54 L 95.5948,-154.504
 L 95.7106,-154.454 L 95.8142,-154.389 L 95.9057,-154.309 L 95.9839,-154.217 L 96.0479,-154.111 L 96.0977,-153.992
 L 96.1333,-153.86 L 96.1546,-153.715 L 96.1617,-153.558 L 96.155,-153.4 L 96.1347,-153.255 L 96.101,-153.12
 L 96.0537,-152.997 L 95.9929,-152.885 L 95.9187,-152.785 L 95.833,-152.698 L 95.7378,-152.627 L 95.6333,-152.572
 L 95.5194,-152.532 L 95.3961,-152.509 L 95.2633,-152.501 z
M 34.65,-138.6 L 2.89999,-138.6 L 2.89999,-104.6 L 34.65,-104.6 z
M 3.3,-105 L 3.3,-138.2 L 34.25,-138.2 L 34.25,-105 z
M 17.0979,-120.265 L 17.2392,-120.294 L 17.3684,-120.343 L 17.4854,-120.412 L 17.5903,-120.5 L 17.6831,-120.608
 L 17.7626,-120.736 L 17.8276,-120.883 L 17.8782,-121.051 L 17.9143,-121.238 L 17.936,-121.446 L 17.9432,-121.673
 L 17.9367,-121.887 L 17.9172,-122.081 L 17.8846,-122.258 L 17.839,-122.415 L 17.7804,-122.554 L 17.7087,-122.675
 L 17.6237,-122.777 L 17.5251,-122.86 L 17.4128,-122.925 L 17.2868,-122.971 L 17.1471,-122.999 L 16.9938,-123.008
 L 16.8507,-123.001 L 16.7188,-122.982 L 16.5982,-122.949 L 16.4888,-122.902 L 16.3906,-122.843 L 16.3036,-122.771
 L 16.2291,-122.686 L 16.1681,-122.592 L 16.1207,-122.487 L 16.0868,-122.372 L 16.0664,-122.247 L 16.0597,-122.112
 L 16.0654,-121.98 L 16.0828,-121.857 L 16.1116,-121.744 L 16.1521,-121.64 L 16.204,-121.546 L 16.2676,-121.461
 L 16.3409,-121.388 L 16.4223,-121.328 L 16.5118,-121.281 L 16.6093,-121.248 L 16.715,-121.228 L 16.8286,-121.221
 L 16.8912,-121.223 L 16.9524,-121.23 L 17.0121,-121.241 L 17.0704,-121.257 L 17.1273,-121.277 L 17.1828,-121.302
 L 17.235,-121.331 L 17.282,-121.363 L 17.324,-121.398 L 17.3608,-121.437 L 17.3925,-121.479 L 17.4191,-121.525
 L 17.4146,-121.39 L 17.4036,-121.267 L 17.3862,-121.155 L 17.3622,-121.055 L 17.3317,-120.966 L 17.2948,-120.889
 L 17.2517,-120.823 L 17.2029,-120.77 L 17.1484,-120.728 L 17.088,-120.698 L 17.022,-120.68 L 16.9502,-120.674
 L 16.8663,-120.682 L 16.7932,-120.705 L 16.7309,-120.744 L 16.6793,-120.798 L 16.6385,-120.868 L 16.6084,-120.954
 L 16.1071,-120.883 L 16.1382,-120.779 L 16.1758,-120.685 L 16.2199,-120.601 L 16.2704,-120.526 L 16.3275,-120.461
 L 16.391,-120.406 L 16.462,-120.36 L 16.5415,-120.322 L 16.6295,-120.293 L 16.726,-120.272 L 16.831,-120.259
 L 16.9445,-120.255 z
M 16.9245,-121.622 L 16.871,-121.633 L 16.822,-121.652 L 16.7774,-121.678 L 16.7372,-121.711 L 16.7014,-121.752
 L 16.6707,-121.799 L 16.6455,-121.851 L 16.6259,-121.908 L 16.612,-121.97 L 16.6036,-122.036 L 16.6008,-122.108
 L 16.6036,-122.181 L 16.6121,-122.248 L 16.6262,-122.309 L 16.6459,-122.366 L 16.6713,-122.417 L 16.7024,-122.462
 L 16.7383,-122.501 L 16.7784,-122.533 L 16.8227,-122.558 L 16.8712,-122.576 L 16.9238,-122.587 L 16.9805,-122.59
 L 17.0387,-122.586 L 17.0929,-122.574 L 17.1431,-122.553 L 17.1894,-122.525 L 17.2317,-122.488 L 17.2701,-122.443
 L 17.3035,-122.391 L 17.3307,-122.334 L 17.352,-122.271 L 17.3671,-122.202 L 17.3762,-122.127 L 17.3793,-122.047
 L 17.3761,-121.984 L 17.3667,-121.926 L 17.351,-121.871 L 17.3291,-121.821 L 17.3008,-121.776 L 17.2663,-121.735
 L 17.227,-121.699 L 17.1846,-121.67 L 17.1389,-121.647 L 17.0899,-121.631 L 17.0378,-121.621 L 16.9825,-121.618
 z
M 23.2731,-120.26 L 23.4048,-120.276 L 23.5298,-120.302 L 23.6482,-120.339 L 23.7598,-120.386 L 23.8647,-120.444
 L 23.9622,-120.512 L 24.0515,-120.592 L 24.1327,-120.682 L 24.2057,-120.784 L 24.2704,-120.896 L 24.3271,-121.02
 L 23.8391,-121.204 L 23.7647,-121.049 L 23.673,-120.921 L 23.5642,-120.822 L 23.4382,-120.752 L 23.295,-120.709
 L 23.1347,-120.695 L 23.0124,-120.702 L 22.9002,-120.722 L 22.7979,-120.756 L 22.7056,-120.803 L 22.6232,-120.864
 L 22.5508,-120.938 L 22.489,-121.025 L 22.4385,-121.125 L 22.3991,-121.236 L 22.371,-121.359 L 22.3542,-121.495
 L 22.3486,-121.643 L 22.354,-121.788 L 22.3704,-121.921 L 22.3977,-122.042 L 22.4359,-122.151 L 22.485,-122.247
 L 22.5451,-122.332 L 22.6157,-122.404 L 22.6965,-122.463 L 22.7874,-122.509 L 22.8885,-122.541 L 22.9999,-122.561
 L 23.1214,-122.567 L 23.2025,-122.564 L 23.2799,-122.554 L 23.3537,-122.538 L 23.4239,-122.515 L 23.4904,-122.485
 L 23.5533,-122.449 L 23.6111,-122.407 L 23.6621,-122.36 L 23.7064,-122.309 L 23.744,-122.254 L 23.775,-122.194
 L 23.7992,-122.129 L 24.2929,-122.264 L 24.2481,-122.381 L 24.1935,-122.488 L 24.1291,-122.586 L 24.0549,-122.673
 L 23.9709,-122.751 L 23.877,-122.819 L 23.7735,-122.877 L 23.6602,-122.924 L 23.5372,-122.961 L 23.4045,-122.987
 L 23.2621,-123.003 L 23.11,-123.008 L 22.9033,-122.998 L 22.7135,-122.969 L 22.5408,-122.92 L 22.3851,-122.851
 L 22.2463,-122.763 L 22.1245,-122.655 L 22.0207,-122.529 L 21.9357,-122.385 L 21.8696,-122.225 L 21.8224,-122.048
 L 21.7941,-121.854 L 21.7846,-121.643 L 21.7944,-121.432 L 21.8238,-121.237 L 21.8727,-121.059 L 21.9412,-120.896
 L 22.0292,-120.75 L 22.1368,-120.62 L 22.2624,-120.509 L 22.4043,-120.417 L 22.5624,-120.346 L 22.7369,-120.295
 L 22.9276,-120.265 L 23.1347,-120.255 z
M 26.1226,-120.298 L 26.2669,-120.315 L 26.3994,-120.343 L 26.5201,-120.381 L 26.629,-120.431 L 26.726,-120.492
 L 26.8095,-120.563 L 26.8779,-120.643 L 26.9311,-120.733 L 26.969,-120.831 L 26.9918,-120.939 L 26.9994,-121.056
 L 26.9947,-121.144 L 26.9805,-121.226 L 26.9569,-121.303 L 26.9239,-121.373 L 26.8814,-121.437 L 26.8295,-121.496
 L 26.7685,-121.547 L 26.699,-121.592 L 26.6209,-121.63 L 26.5341,-121.66 L 26.4388,-121.683 L 26.3349,-121.7
 L 26.4173,-121.721 L 26.4923,-121.748 L 26.5601,-121.78 L 26.6205,-121.818 L 26.6736,-121.862 L 26.7193,-121.911
 L 26.7579,-121.966 L 26.7895,-122.024 L 26.814,-122.086 L 26.8316,-122.152 L 26.8421,-122.222 L 26.8456,-122.296
 L 26.8386,-122.402 L 26.8177,-122.499 L 26.7827,-122.588 L 26.7338,-122.667 L 26.6709,-122.737 L 26.594,-122.798
 L 26.5036,-122.85 L 26.3998,-122.893 L 26.2829,-122.926 L 26.1527,-122.949 L 26.0092,-122.963 L 25.8526,-122.968
 L 24.6279,-122.968 L 24.6279,-120.293 L 25.9665,-120.293 z
M 25.188,-121.89 L 25.188,-122.552 L 25.826,-122.552 L 25.8982,-122.55 L 25.9643,-122.544 L 26.0242,-122.533
 L 26.0779,-122.518 L 26.1254,-122.499 L 26.1668,-122.476 L 26.2019,-122.448 L 26.2306,-122.414 L 26.253,-122.374
 L 26.2689,-122.329 L 26.2785,-122.277 L 26.2817,-122.22 L 26.2787,-122.167 L 26.2698,-122.119 L 26.2549,-122.075
 L 26.234,-122.036 L 26.2072,-122.002 L 26.1744,-121.972 L 26.135,-121.947 L 26.0884,-121.926 L 26.0346,-121.91
 L 25.9736,-121.899 L 25.9053,-121.892 L 25.8298,-121.89 z
M 25.188,-120.709 L 25.188,-121.476 L 25.8981,-121.476 L 26.0629,-121.465 L 26.1977,-121.434 L 26.3026,-121.382
 L 26.3775,-121.309 L 26.4224,-121.215 L 26.4374,-121.1 L 26.4339,-121.037 L 26.4236,-120.98 L 26.4063,-120.929
 L 26.3821,-120.882 L 26.351,-120.842 L 26.313,-120.806 L 26.2675,-120.776 L 26.214,-120.752 L 26.1523,-120.733
 L 26.0826,-120.719 L 26.0049,-120.711 L 25.919,-120.709 z
M 19.9123,-121.235 L 20.5769,-121.235 L 20.6752,-121.238 L 20.769,-121.247 L 20.8582,-121.262 L 20.9427,-121.284
 L 21.0227,-121.312 L 21.0981,-121.346 L 21.1684,-121.385 L 21.233,-121.43 L 21.292,-121.48 L 21.3454,-121.535
 L 21.3931,-121.595 L 21.4351,-121.66 L 21.4711,-121.729 L 21.5005,-121.801 L 21.5234,-121.877 L 21.5398,-121.955
 L 21.5496,-122.037 L 21.5529,-122.121 L 21.5457,-122.251 L 21.5241,-122.37 L 21.4881,-122.48 L 21.4377,-122.579
 L 21.3729,-122.668 L 21.2937,-122.747 L 21.2011,-122.814 L 21.0963,-122.87 L 20.9792,-122.913 L 20.8498,-122.943
 L 20.7081,-122.962 L 20.5541,-122.968 L 19.3522,-122.968 L 19.3522,-120.293 L 19.9123,-120.293 z
M 19.9123,-121.666 L 19.9123,-122.533 L 20.4915,-122.533 L 20.6435,-122.522 L 20.7678,-122.486 L 20.8646,-122.428
 L 20.9337,-122.346 L 20.9751,-122.241 L 20.9889,-122.112 L 20.9855,-122.042 L 20.975,-121.979 L 20.9576,-121.921
 L 20.9332,-121.868 L 20.9019,-121.822 L 20.8636,-121.78 L 20.8189,-121.745 L 20.7682,-121.717 L 20.7117,-121.694
 L 20.6493,-121.678 L 20.5809,-121.669 L 20.5066,-121.666 z
M 14.9371,-120.298 L 15.0814,-120.315 L 15.2139,-120.343 L 15.3346,-120.381 L 15.4434,-120.431 L 15.5405,-120.492
 L 15.624,-120.563 L 15.6924,-120.643 L 15.7455,-120.733 L 15.7835,-120.831 L 15.8063,-120.939 L 15.8139,-121.056
 L 15.8092,-121.144 L 15.795,-121.226 L 15.7714,-121.303 L 15.7384,-121.373 L 15.6959,-121.437 L 15.644,-121.496
 L 15.583,-121.547 L 15.5135,-121.592 L 15.4353,-121.63 L 15.3486,-121.66 L 15.2533,-121.683 L 15.1494,-121.7
 L 15.2318,-121.721 L 15.3068,-121.748 L 15.3746,-121.78 L 15.435,-121.818 L 15.4881,-121.862 L 15.5338,-121.911
 L 15.5724,-121.966 L 15.604,-122.024 L 15.6285,-122.086 L 15.6461,-122.152 L 15.6566,-122.222 L 15.6601,-122.296
 L 15.6531,-122.402 L 15.6321,-122.499 L 15.5972,-122.588 L 15.5483,-122.667 L 15.4854,-122.737 L 15.4085,-122.798
 L 15.318,-122.85 L 15.2143,-122.893 L 15.0974,-122.926 L 14.9672,-122.949 L 14.8237,-122.963 L 14.6671,-122.968
 L 13.4424,-122.968 L 13.4424,-120.293 L 14.781,-120.293 z
M 14.0025,-121.89 L 14.0025,-122.552 L 14.6405,-122.552 L 14.7127,-122.55 L 14.7788,-122.544 L 14.8387,-122.533
 L 14.8924,-122.518 L 14.9399,-122.499 L 14.9813,-122.476 L 15.0164,-122.448 L 15.0451,-122.414 L 15.0675,-122.374
 L 15.0834,-122.329 L 15.093,-122.277 L 15.0962,-122.22 L 15.0932,-122.167 L 15.0843,-122.119 L 15.0694,-122.075
 L 15.0485,-122.036 L 15.0217,-122.002 L 14.9889,-121.972 L 14.9495,-121.947 L 14.9029,-121.926 L 14.8491,-121.91
 L 14.7881,-121.899 L 14.7198,-121.892 L 14.6443,-121.89 z
M 14.0025,-120.709 L 14.0025,-121.476 L 14.7126,-121.476 L 14.8774,-121.465 L 15.0122,-121.434 L 15.1171,-121.382
 L 15.192,-121.309 L 15.2369,-121.215 L 15.2519,-121.1 L 15.2484,-121.037 L 15.2381,-120.98 L 15.2208,-120.929
 L 15.1966,-120.882 L 15.1655,-120.842 L 15.1275,-120.806 L 15.082,-120.776 L 15.0285,-120.752 L 14.9668,-120.733
 L 14.8971,-120.719 L 14.8194,-120.711 L 14.7335,-120.709 z
M 11.9075,-120.297 L 12.0281,-120.311 L 12.144,-120.334 L 12.2551,-120.365 L 12.3613,-120.406 L 12.4627,-120.456
 L 12.558,-120.515 L 12.6459,-120.581 L 12.7262,-120.656 L 12.799,-120.738 L 12.8644,-120.829 L 12.9222,-120.928
 L 12.9718,-121.034 L 13.0124,-121.145 L 13.044,-121.263 L 13.0666,-121.386 L 13.0801,-121.515 L 13.0846,-121.65
 L 13.0743,-121.854 L 13.0435,-122.042 L 12.992,-122.213 L 12.92,-122.367 L 12.8275,-122.505 L 12.7143,-122.627
 L 12.5824,-122.731 L 12.4335,-122.817 L 12.2677,-122.883 L 12.0848,-122.93 L 11.8849,-122.959 L 11.6681,-122.968
 L 10.6998,-122.968 L 10.6998,-120.293 L 11.782,-120.293 z
M 11.2599,-120.726 L 11.2599,-122.535 L 11.6567,-122.535 L 11.79,-122.529 L 11.9126,-122.51 L 12.0246,-122.478
 L 12.1259,-122.434 L 12.2166,-122.378 L 12.2966,-122.308 L 12.3651,-122.227 L 12.4211,-122.134 L 12.4647,-122.03
 L 12.4958,-121.915 L 12.5145,-121.788 L 12.5207,-121.65 L 12.5148,-121.513 L 12.497,-121.385 L 12.4675,-121.268
 L 12.4262,-121.16 L 12.373,-121.062 L 12.308,-120.974 L 12.233,-120.898 L 12.1498,-120.836 L 12.0583,-120.788
 L 11.9586,-120.753 L 11.8507,-120.733 L 11.7346,-120.726 z
M 107.1,-129.49 L 85.64,-129.49 L 85.64,-111.71 L 107.1,-111.71 z
M 86.04,-112.11 L 86.04,-129.09 L 106.7,-129.09 L 106.7,-112.11 z
M 94.3307,-119.168 L 94.5078,-119.186 L 94.6687,-119.217 L 94.8133,-119.261 L 94.9417,-119.316 L 95.0539,-119.384
 L 95.1493,-119.464 L 95.2274,-119.555 L 95.2881,-119.657 L 95.3315,-119.769 L 95.3575,-119.893 L 95.3662,-120.028
 L 95.3647,-120.087 L 95.3601,-120.143 L 95.3525,-120.197 L 95.3418,-120.248 L 95.3281,-120.298 L 95.3113,-120.344
 L 95.2916,-120.389 L 95.2692,-120.432 L 95.2441,-120.472 L 95.2163,-120.51 L 95.1858,-120.547 L 95.1526,-120.58
 L 95.1159,-120.613 L 95.0752,-120.644 L 95.0303,-120.673 L 94.9812,-120.701 L 94.9281,-120.728 L 94.8708,-120.753
 L 94.805,-120.779 L 94.7261,-120.804 L 94.6341,-120.831 L 94.5291,-120.858 L 94.411,-120.886 L 94.2799,-120.915
 L 94.1704,-120.939 L 94.0739,-120.962 L 93.9905,-120.984 L 93.92,-121.004 L 93.8625,-121.023 L 93.818,-121.04
 L 93.7816,-121.057 L 93.7483,-121.076 L 93.7181,-121.095 L 93.691,-121.116 L 93.667,-121.138 L 93.6461,-121.161
 L 93.6284,-121.186 L 93.6139,-121.213 L 93.6027,-121.243 L 93.5946,-121.274 L 93.5898,-121.308 L 93.5882,-121.344
 L 93.6033,-121.449 L 93.6488,-121.534 L 93.7245,-121.601 L 93.8305,-121.648 L 93.9668,-121.677 L 94.1334,-121.686
 L 94.2155,-121.684 L 94.291,-121.676 L 94.36,-121.663 L 94.4223,-121.645 L 94.478,-121.621 L 94.527,-121.593
 L 94.5702,-121.559 L 94.6083,-121.52 L 94.6412,-121.476 L 94.669,-121.427 L 94.6916,-121.373 L 94.7091,-121.314
 L 95.291,-121.393 L 95.2599,-121.515 L 95.2183,-121.625 L 95.1661,-121.723 L 95.1033,-121.809 L 95.03,-121.883
 L 94.9461,-121.945 L 94.8495,-121.995 L 94.7383,-122.037 L 94.6122,-122.07 L 94.4714,-122.093 L 94.3159,-122.107
 L 94.1456,-122.111 L 93.9671,-122.106 L 93.8035,-122.088 L 93.6545,-122.06 L 93.5204,-122.02 L 93.4009,-121.968
 L 93.2962,-121.905 L 93.207,-121.831 L 93.1341,-121.747 L 93.0773,-121.653 L 93.0368,-121.549 L 93.0124,-121.434
 L 93.0043,-121.31 L 93.0054,-121.26 L 93.0087,-121.212 L 93.0142,-121.166 L 93.0219,-121.122 L 93.0319,-121.08
 L 93.044,-121.039 L 93.0581,-121.001 L 93.0739,-120.964 L 93.0915,-120.929 L 93.1109,-120.895 L 93.132,-120.864
 L 93.1548,-120.834 L 93.1794,-120.805 L 93.2057,-120.778 L 93.2337,-120.753 L 93.2633,-120.728 L 93.2947,-120.706
 L 93.3277,-120.684 L 93.3623,-120.664 L 93.3983,-120.645 L 93.4356,-120.626 L 93.4742,-120.609 L 93.5142,-120.592
 L 93.5556,-120.576 L 93.6031,-120.56 L 93.6614,-120.543 L 93.7306,-120.523 L 93.8106,-120.502 L 93.9015,-120.48
 L 94.0032,-120.455 L 94.1206,-120.431 L 94.2246,-120.408 L 94.3152,-120.386 L 94.3924,-120.365 L 94.4563,-120.345
 L 94.5067,-120.327 L 94.5488,-120.309 L 94.5876,-120.289 L 94.6232,-120.268 L 94.6554,-120.245 L 94.6844,-120.221
 L 94.7101,-120.195 L 94.7322,-120.167 L 94.7502,-120.137 L 94.7643,-120.105 L 94.7743,-120.07 L 94.7803,-120.033
 L 94.7824,-119.994 L 94.7649,-119.877 L 94.7125,-119.781 L 94.6252,-119.707 L 94.503,-119.654 L 94.3458,-119.622
 L 94.1537,-119.611 L 94.0564,-119.614 L 93.9664,-119.622 L 93.8837,-119.637 L 93.8083,-119.657 L 93.7404,-119.682
 L 93.6797,-119.714 L 93.6259,-119.752 L 93.5782,-119.796 L 93.5368,-119.848 L 93.5016,-119.906 L 93.4726,-119.972
 L 93.4498,-120.044 L 92.87,-119.949 L 92.9061,-119.822 L 92.9546,-119.707 L 93.0155,-119.602 L 93.0889,-119.509
 L 93.1746,-119.428 L 93.2728,-119.357 L 93.3839,-119.297 L 93.5081,-119.248 L 93.6456,-119.21 L 93.7964,-119.183
 L 93.9603,-119.167 L 94.1375,-119.161 z
M 102.591,-119.672 L 101.261,-119.672 L 101.281,-119.716 L 101.305,-119.758 L 101.333,-119.8 L 101.363,-119.841
 L 101.397,-119.881 L 101.435,-119.92 L 101.474,-119.959 L 101.516,-119.997 L 101.558,-120.036 L 101.602,-120.074
 L 101.647,-120.112 L 101.694,-120.15 L 101.742,-120.188 L 101.839,-120.266 L 101.938,-120.344 L 101.988,-120.384
 L 102.038,-120.425 L 102.086,-120.466 L 102.133,-120.508 L 102.178,-120.552 L 102.222,-120.596 L 102.264,-120.641
 L 102.304,-120.688 L 102.342,-120.736 L 102.377,-120.785 L 102.409,-120.836 L 102.44,-120.888 L 102.467,-120.942
 L 102.491,-120.997 L 102.511,-121.054 L 102.527,-121.114 L 102.538,-121.176 L 102.544,-121.24 L 102.547,-121.306
 L 102.54,-121.428 L 102.519,-121.542 L 102.485,-121.645 L 102.436,-121.74 L 102.374,-121.824 L 102.298,-121.9
 L 102.21,-121.964 L 102.109,-122.017 L 101.996,-122.058 L 101.872,-122.088 L 101.735,-122.105 L 101.586,-122.111
 L 101.448,-122.106 L 101.32,-122.088 L 101.202,-122.059 L 101.094,-122.018 L 100.996,-121.966 L 100.908,-121.902
 L 100.83,-121.827 L 100.764,-121.741 L 100.709,-121.645 L 100.665,-121.538 L 100.632,-121.421 L 100.61,-121.294
 L 101.186,-121.261 L 101.197,-121.324 L 101.212,-121.382 L 101.231,-121.434 L 101.254,-121.48 L 101.28,-121.521
 L 101.311,-121.557 L 101.345,-121.587 L 101.385,-121.612 L 101.429,-121.631 L 101.478,-121.645 L 101.532,-121.653
 L 101.59,-121.656 L 101.705,-121.645 L 101.799,-121.614 L 101.873,-121.562 L 101.925,-121.489 L 101.956,-121.396
 L 101.967,-121.281 L 101.963,-121.23 L 101.953,-121.179 L 101.936,-121.127 L 101.913,-121.075 L 101.883,-121.023
 L 101.846,-120.97 L 101.8,-120.915 L 101.745,-120.855 L 101.68,-120.79 L 101.604,-120.72 L 101.519,-120.646
 L 101.424,-120.567 L 101.322,-120.483 L 101.227,-120.4 L 101.137,-120.318 L 101.053,-120.237 L 100.976,-120.158
 L 100.904,-120.079 L 100.838,-120.001 L 100.777,-119.922 L 100.721,-119.842 L 100.671,-119.762 L 100.625,-119.681
 L 100.585,-119.599 L 100.585,-119.202 L 102.591,-119.202 z
M 99.4839,-119.161 L 99.6281,-119.18 L 99.7597,-119.21 L 99.879,-119.253 L 99.9857,-119.308 L 100.08,-119.375
 L 100.161,-119.453 L 100.227,-119.542 L 100.278,-119.641 L 100.315,-119.749 L 100.337,-119.868 L 100.345,-119.998
 L 100.34,-120.087 L 100.325,-120.171 L 100.3,-120.25 L 100.265,-120.323 L 100.221,-120.39 L 100.167,-120.452
 L 100.103,-120.508 L 100.031,-120.555 L 99.9507,-120.595 L 99.8619,-120.628 L 99.7647,-120.652 L 99.659,-120.669
 L 99.659,-120.677 L 99.7542,-120.699 L 99.8416,-120.728 L 99.9212,-120.763 L 99.9931,-120.805 L 100.057,-120.853
 L 100.114,-120.907 L 100.162,-120.967 L 100.201,-121.033 L 100.232,-121.104 L 100.254,-121.18 L 100.267,-121.262
 L 100.271,-121.348 L 100.264,-121.463 L 100.243,-121.57 L 100.208,-121.668 L 100.159,-121.757 L 100.095,-121.837
 L 100.018,-121.909 L 99.9282,-121.971 L 99.8274,-122.021 L 99.7157,-122.061 L 99.5931,-122.089 L 99.4596,-122.106
 L 99.3152,-122.111 L 99.1786,-122.106 L 99.051,-122.088 L 98.9322,-122.059 L 98.8224,-122.018 L 98.7216,-121.966
 L 98.6296,-121.902 L 98.5482,-121.827 L 98.4789,-121.744 L 98.4216,-121.652 L 98.3765,-121.551 L 98.3434,-121.441
 L 98.3224,-121.322 L 98.8941,-121.281 L 98.9021,-121.339 L 98.9152,-121.392 L 98.9335,-121.44 L 98.9569,-121.484
 L 98.9855,-121.523 L 99.0192,-121.558 L 99.0574,-121.588 L 99.0993,-121.612 L 99.1451,-121.631 L 99.1946,-121.645
 L 99.2479,-121.653 L 99.305,-121.656 L 99.3656,-121.653 L 99.4211,-121.644 L 99.4716,-121.63 L 99.5171,-121.611
 L 99.5575,-121.586 L 99.5929,-121.555 L 99.6231,-121.519 L 99.6477,-121.479 L 99.6669,-121.435 L 99.6806,-121.387
 L 99.6888,-121.334 L 99.6916,-121.277 L 99.6881,-121.217 L 99.6778,-121.162 L 99.6606,-121.112 L 99.6364,-121.066
 L 99.6054,-121.025 L 99.5675,-120.989 L 99.5227,-120.959 L 99.4712,-120.933 L 99.4129,-120.914 L 99.3478,-120.9
 L 99.2759,-120.891 L 99.1972,-120.889 L 99.0101,-120.889 L 99.0101,-120.427 L 99.2094,-120.427 L 99.2966,-120.424
 L 99.3763,-120.416 L 99.4485,-120.401 L 99.5132,-120.382 L 99.5705,-120.356 L 99.6204,-120.325 L 99.6626,-120.289
 L 99.6972,-120.247 L 99.7241,-120.201 L 99.7433,-120.15 L 99.7549,-120.093 L 99.7587,-120.032 L 99.7555,-119.965
 L 99.746,-119.905 L 99.7302,-119.85 L 99.7081,-119.801 L 99.6796,-119.758 L 99.6448,-119.721 L 99.6042,-119.69
 L 99.5586,-119.664 L 99.508,-119.645 L 99.4522,-119.631 L 99.3913,-119.622 L 99.3254,-119.619 L 99.1971,-119.631
 L 99.0887,-119.665 L 99.0004,-119.722 L 98.9321,-119.803 L 98.8838,-119.906 L 98.8555,-120.032 L 98.2736,-119.981
 L 98.2955,-119.853 L 98.3299,-119.735 L 98.3769,-119.628 L 98.4364,-119.531 L 98.5084,-119.444 L 98.593,-119.368
 L 98.6891,-119.303 L 98.7958,-119.25 L 98.9129,-119.209 L 99.0406,-119.179 L 99.1787,-119.161 L 99.3274,-119.155
 z
M 92.6522,-119.666 L 90.9149,-119.666 L 90.9149,-120.421 L 92.4447,-120.421 L 92.4447,-120.885 L 90.9149,-120.885
 L 90.9149,-121.605 L 92.5688,-121.605 L 92.5688,-122.069 L 90.3147,-122.069 L 90.3147,-119.202 L 92.6522,-119.202
 z
M 96.3429,-120.211 L 97.0549,-120.211 L 97.1602,-120.215 L 97.2607,-120.224 L 97.3562,-120.241 L 97.4468,-120.264
 L 97.5325,-120.294 L 97.6133,-120.33 L 97.6886,-120.373 L 97.7579,-120.421 L 97.8211,-120.474 L 97.8782,-120.533
 L 97.9293,-120.597 L 97.9744,-120.667 L 98.0129,-120.741 L 98.0445,-120.819 L 98.069,-120.899 L 98.0865,-120.983
 L 98.097,-121.071 L 98.1005,-121.161 L 98.0928,-121.3 L 98.0697,-121.428 L 98.0311,-121.546 L 97.9771,-121.652
 L 97.9077,-121.747 L 97.8228,-121.832 L 97.7237,-121.904 L 97.6114,-121.963 L 97.4859,-122.009 L 97.3473,-122.042
 L 97.1954,-122.062 L 97.0305,-122.069 L 95.7427,-122.069 L 95.7427,-119.202 L 96.3429,-119.202 z
M 96.3429,-120.673 L 96.3429,-121.603 L 96.9633,-121.603 L 97.1262,-121.59 L 97.2594,-121.553 L 97.3631,-121.49
 L 97.4371,-121.402 L 97.4815,-121.289 L 97.4964,-121.151 L 97.4926,-121.077 L 97.4814,-121.009 L 97.4628,-120.946
 L 97.4367,-120.89 L 97.4031,-120.84 L 97.3621,-120.796 L 97.3141,-120.758 L 97.2599,-120.728 L 97.1993,-120.704
 L 97.1324,-120.687 L 97.0592,-120.676 L 96.9796,-120.673 z
M 61.5981,-67.4594 L 61.7263,-67.4734 L 61.8488,-67.4968 L 61.9655,-67.5294 L 62.0766,-67.5715 L 62.182,-67.6228
 L 62.2806,-67.683 L 62.3712,-67.7514 L 62.454,-67.8281 L 62.5288,-67.9131 L 62.5958,-68.0064 L 62.6548,-68.1079
 L 62.7053,-68.2164 L 62.7466,-68.3305 L 62.7787,-68.4502 L 62.8016,-68.5755 L 62.8154,-68.7063 L 62.82,-68.8427
 L 62.81,-69.0472 L 62.7802,-69.2366 L 62.7305,-69.4109 L 62.6609,-69.5702 L 62.5714,-69.7143 L 62.4621,-69.8434
 L 62.335,-69.9548 L 62.1926,-70.0459 L 62.0346,-70.1168 L 61.8612,-70.1674 L 61.6724,-70.1978 L 61.4681,-70.2079
 L 61.2638,-70.1979 L 61.075,-70.1679 L 60.9018,-70.1178 L 60.744,-70.0476 L 60.6018,-69.9574 L 60.475,-69.8472
 L 60.366,-69.7191 L 60.2767,-69.5752 L 60.2073,-69.4157 L 60.1577,-69.2404 L 60.128,-69.0495 L 60.1181,-68.8427
 L 60.128,-68.6352 L 60.1578,-68.4429 L 60.2076,-68.2658 L 60.2771,-68.1039 L 60.3666,-67.9573 L 60.476,-67.826
 L 60.6029,-67.7126 L 60.7449,-67.6198 L 60.902,-67.5476 L 61.0743,-67.496 L 61.2617,-67.4651 L 61.4643,-67.4548
 z
M 61.3476,-67.9023 L 61.2395,-67.9234 L 61.1398,-67.9586 L 61.0487,-68.0079 L 60.966,-68.0713 L 60.8918,-68.1488
 L 60.8277,-68.2384 L 60.7753,-68.3385 L 60.7345,-68.449 L 60.7053,-68.5699 L 60.6878,-68.7011 L 60.682,-68.8427
 L 60.6877,-68.983 L 60.7048,-69.1125 L 60.7333,-69.2313 L 60.7731,-69.3394 L 60.8244,-69.4368 L 60.8871,-69.5234
 L 60.9602,-69.598 L 61.0428,-69.659 L 61.1348,-69.7064 L 61.2364,-69.7403 L 61.3475,-69.7607 L 61.4681,-69.7674
 L 61.5869,-69.7606 L 61.6966,-69.7401 L 61.797,-69.7059 L 61.8883,-69.6581 L 61.9705,-69.5967 L 62.0434,-69.5215
 L 62.1061,-69.4344 L 62.1573,-69.3368 L 62.1972,-69.2289 L 62.2257,-69.1106 L 62.2428,-68.9819 L 62.2485,-68.8427
 L 62.2428,-68.6973 L 62.2258,-68.5632 L 62.1974,-68.4407 L 62.1577,-68.3297 L 62.1067,-68.2301 L 62.0444,-68.1421
 L 61.9715,-68.0667 L 61.8892,-68.005 L 61.7973,-67.957 L 61.6958,-67.9227 L 61.5848,-67.9021 L 61.4643,-67.8953
 z
M 56.1213,-67.46 L 56.253,-67.4758 L 56.3781,-67.502 L 56.4964,-67.5387 L 56.608,-67.586 L 56.713,-67.6437
 L 56.8104,-67.7122 L 56.8998,-67.7917 L 56.9809,-67.8822 L 57.0539,-67.9838 L 57.1187,-68.0964 L 57.1753,-68.22
 L 56.6873,-68.4041 L 56.6129,-68.2487 L 56.5213,-68.1214 L 56.4125,-68.0225 L 56.2865,-67.9518 L 56.1433,-67.9094
 L 55.9829,-67.8953 L 55.8606,-67.902 L 55.7484,-67.9223 L 55.6461,-67.956 L 55.5538,-68.0033 L 55.4714,-68.0641
 L 55.399,-68.1383 L 55.3372,-68.2254 L 55.2867,-68.3246 L 55.2474,-68.4359 L 55.2193,-68.5594 L 55.2024,-68.695
 L 55.1968,-68.8427 L 55.2023,-68.9879 L 55.2186,-69.121 L 55.2459,-69.242 L 55.2841,-69.3508 L 55.3333,-69.4474
 L 55.3933,-69.532 L 55.4639,-69.6039 L 55.5447,-69.6628 L 55.6356,-69.7086 L 55.7368,-69.7413 L 55.8481,-69.7609
 L 55.9696,-69.7674 L 56.0507,-69.7641 L 56.1281,-69.7542 L 56.202,-69.7378 L 56.2721,-69.7147 L 56.3387,-69.685
 L 56.4016,-69.6488 L 56.4593,-69.6069 L 56.5103,-69.5605 L 56.5546,-69.5094 L 56.5923,-69.4538 L 56.6232,-69.3936
 L 56.6474,-69.3288 L 57.1411,-69.4636 L 57.0963,-69.5808 L 57.0417,-69.6882 L 56.9773,-69.7857 L 56.9031,-69.8733
 L 56.8191,-69.9511 L 56.7253,-70.019 L 56.6217,-70.0767 L 56.5084,-70.124 L 56.3854,-70.1607 L 56.2527,-70.187
 L 56.1103,-70.2027 L 55.9582,-70.2079 L 55.7515,-70.1981 L 55.5618,-70.1687 L 55.389,-70.1197 L 55.2333,-70.051
 L 55.0945,-69.9627 L 54.9727,-69.8548 L 54.8689,-69.7286 L 54.7839,-69.5854 L 54.7178,-69.4252 L 54.6706,-69.248
 L 54.6423,-69.0539 L 54.6329,-68.8427 L 54.6427,-68.6319 L 54.672,-68.4372 L 54.7209,-68.2587 L 54.7894,-68.0963
 L 54.8775,-67.9502 L 54.9851,-67.8203 L 55.1106,-67.7086 L 55.2525,-67.6172 L 55.4106,-67.5462 L 55.5851,-67.4954
 L 55.7758,-67.4649 L 55.9829,-67.4548 z
M 49.6545,-70.1681 L 49.0754,-70.1681 L 48.5267,-68.4497 L 48.4298,-68.1079 L 48.39,-67.9446 L 48.3613,-68.0526
 L 48.3347,-68.151 L 48.3102,-68.2399 L 48.2878,-68.3193 L 48.2676,-68.3893 L 48.2495,-68.4497 L 47.6988,-70.1681
 L 47.114,-70.1681 L 48.1033,-67.4928 L 48.671,-67.4928 z
M 58.0362,-68.5086 L 58.6932,-68.5086 L 59.3141,-67.4928 L 59.9445,-67.4928 L 59.2211,-68.6168 L 59.3084,-68.6422
 L 59.3896,-68.6754 L 59.4646,-68.7162 L 59.5333,-68.7649 L 59.5958,-68.8213 L 59.6521,-68.8855 L 59.7008,-68.9556
 L 59.7407,-69.0301 L 59.7717,-69.1088 L 59.7939,-69.1918 L 59.8071,-69.2791 L 59.8116,-69.3706 L 59.8044,-69.4941
 L 59.7827,-69.6076 L 59.7465,-69.7112 L 59.696,-69.8048 L 59.6309,-69.8884 L 59.5514,-69.9621 L 59.4586,-70.025
 L 59.3537,-70.0765 L 59.2367,-70.1166 L 59.1075,-70.1452 L 58.9662,-70.1624 L 58.8128,-70.1681 L 57.4761,-70.1681
 L 57.4761,-67.4928 L 58.0362,-67.4928 z
M 58.0362,-68.9434 L 58.0362,-69.7333 L 58.754,-69.7333 L 58.9048,-69.7225 L 59.0282,-69.6904 L 59.1242,-69.6369
 L 59.1928,-69.562 L 59.2339,-69.4656 L 59.2476,-69.3478 L 59.2442,-69.2863 L 59.2341,-69.2295 L 59.2172,-69.1774
 L 59.1936,-69.1301 L 59.1632,-69.0875 L 59.1261,-69.0497 L 59.0824,-69.0172 L 59.0324,-68.9906 L 58.9761,-68.97
 L 58.9135,-68.9552 L 58.8445,-68.9463 L 58.7692,-68.9434 z
M 52.0623,-67.9257 L 50.4408,-67.9257 L 50.4408,-68.6301 L 51.8686,-68.6301 L 51.8686,-69.063 L 50.4408,-69.063
 L 50.4408,-69.7352 L 51.9845,-69.7352 L 51.9845,-70.1681 L 49.8806,-70.1681 L 49.8806,-67.4928 L 52.0623,-67.4928
 z
M 54.4093,-67.9257 L 52.9738,-67.9257 L 52.9738,-70.1681 L 52.4137,-70.1681 L 52.4137,-67.4928 L 54.4093,-67.4928
 z
M 176.189,-64.3827 L 176.358,-64.406 L 176.512,-64.4449 L 176.652,-64.4994 L 176.778,-64.5694 L 176.89,-64.655
 L 176.986,-64.7547 L 177.065,-64.8671 L 177.126,-64.9922 L 177.169,-65.1301 L 177.196,-65.2806 L 177.204,-65.4439
 L 177.204,-67.0882 L 176.644,-67.0882 L 176.644,-65.4781 L 176.64,-65.3752 L 176.626,-65.2807 L 176.604,-65.1944
 L 176.572,-65.1165 L 176.532,-65.0468 L 176.483,-64.9853 L 176.425,-64.9328 L 176.36,-64.8899 L 176.287,-64.8564
 L 176.206,-64.8326 L 176.118,-64.8183 L 176.021,-64.8135 L 175.928,-64.8181 L 175.842,-64.8317 L 175.764,-64.8546
 L 175.694,-64.8865 L 175.632,-64.9276 L 175.578,-64.9777 L 175.532,-65.0367 L 175.494,-65.1042 L 175.465,-65.1802
 L 175.444,-65.2647 L 175.431,-65.3576 L 175.427,-65.4591 L 175.427,-67.0882 L 174.867,-67.0882 L 174.867,-65.4154
 L 174.875,-65.2547 L 174.9,-65.107 L 174.94,-64.972 L 174.997,-64.85 L 175.071,-64.7408 L 175.16,-64.6445
 L 175.265,-64.5621 L 175.385,-64.4947 L 175.519,-64.4423 L 175.667,-64.4048 L 175.829,-64.3824 L 176.006,-64.3749
 z
M 172.785,-65.0964 L 173.805,-65.0964 L 174.042,-64.4129 L 174.597,-64.4129 L 173.624,-67.0882 L 172.964,-67.0882
 L 171.988,-64.4129 L 172.548,-64.4129 z
M 172.91,-65.5179 L 173.003,-65.7872 L 173.08,-66.0129 L 173.142,-66.1948 L 173.189,-66.3331 L 173.221,-66.4277
 L 173.237,-66.4787 L 173.246,-66.5073 L 173.254,-66.5348 L 173.262,-66.5613 L 173.269,-66.5867 L 173.276,-66.6111
 L 173.283,-66.6344 L 173.294,-66.6762 L 173.334,-66.5451 L 173.416,-66.2869 L 173.679,-65.5179 z
M 178.675,-65.4781 L 179.347,-64.4129 L 179.936,-64.4129 L 179.045,-65.8198 L 179.858,-67.0882 L 179.269,-67.0882
 L 178.675,-66.1426 L 178.08,-67.0882 L 177.488,-67.0882 L 178.337,-65.8198 L 177.41,-64.4129 L 178.003,-64.4129
 z
M 143.209,-60.3605 L 143.374,-60.3779 L 143.524,-60.4068 L 143.659,-60.4472 L 143.779,-60.4991 L 143.884,-60.5627
 L 143.973,-60.6371 L 144.046,-60.7219 L 144.102,-60.8169 L 144.143,-60.9222 L 144.167,-61.0378 L 144.175,-61.1636
 L 144.174,-61.2182 L 144.17,-61.2707 L 144.162,-61.321 L 144.152,-61.3691 L 144.14,-61.4151 L 144.124,-61.4589
 L 144.106,-61.5006 L 144.085,-61.5403 L 144.061,-61.578 L 144.035,-61.6137 L 144.007,-61.6474 L 143.976,-61.6791
 L 143.942,-61.7092 L 143.904,-61.738 L 143.862,-61.7655 L 143.816,-61.7918 L 143.766,-61.8168 L 143.713,-61.8405
 L 143.651,-61.864 L 143.578,-61.8881 L 143.492,-61.9129 L 143.394,-61.9384 L 143.284,-61.9646 L 143.161,-61.9915
 L 143.059,-62.0142 L 142.969,-62.0357 L 142.891,-62.0558 L 142.825,-62.0746 L 142.772,-62.0921 L 142.73,-62.1082
 L 142.696,-62.1243 L 142.665,-62.1415 L 142.637,-62.1597 L 142.612,-62.1791 L 142.589,-62.1996 L 142.57,-62.2212
 L 142.553,-62.2444 L 142.54,-62.2697 L 142.529,-62.2972 L 142.522,-62.3267 L 142.517,-62.3584 L 142.516,-62.3921
 L 142.53,-62.4896 L 142.572,-62.5693 L 142.643,-62.6313 L 142.742,-62.6757 L 142.869,-62.7022 L 143.025,-62.7111
 L 143.101,-62.7087 L 143.172,-62.7014 L 143.236,-62.6893 L 143.294,-62.6723 L 143.346,-62.6504 L 143.392,-62.6237
 L 143.432,-62.5923 L 143.468,-62.556 L 143.499,-62.515 L 143.525,-62.4693 L 143.546,-62.4188 L 143.562,-62.3636
 L 144.105,-62.4377 L 144.076,-62.5517 L 144.037,-62.6543 L 143.988,-62.7458 L 143.93,-62.8259 L 143.861,-62.8947
 L 143.783,-62.9522 L 143.693,-62.9998 L 143.589,-63.0387 L 143.472,-63.069 L 143.34,-63.0906 L 143.195,-63.1036
 L 143.036,-63.1079 L 142.869,-63.1026 L 142.717,-63.0865 L 142.578,-63.0598 L 142.452,-63.0223 L 142.341,-62.9741
 L 142.243,-62.9152 L 142.16,-62.8463 L 142.092,-62.7679 L 142.039,-62.68 L 142.001,-62.5827 L 141.978,-62.476
 L 141.971,-62.3598 L 141.972,-62.3133 L 141.975,-62.2685 L 141.98,-62.2255 L 141.987,-62.1843 L 141.997,-62.1449
 L 142.008,-62.1073 L 142.021,-62.0714 L 142.036,-62.037 L 142.052,-62.0043 L 142.07,-61.9731 L 142.09,-61.9435
 L 142.111,-61.9155 L 142.134,-61.889 L 142.159,-61.8637 L 142.185,-61.8398 L 142.213,-61.8172 L 142.242,-61.7959
 L 142.273,-61.776 L 142.305,-61.7571 L 142.339,-61.739 L 142.373,-61.7218 L 142.409,-61.7055 L 142.447,-61.69
 L 142.485,-61.6753 L 142.53,-61.6603 L 142.584,-61.6438 L 142.649,-61.6257 L 142.723,-61.6062 L 142.808,-61.585
 L 142.903,-61.5624 L 143.013,-61.5395 L 143.11,-61.5179 L 143.194,-61.4973 L 143.266,-61.478 L 143.326,-61.4598
 L 143.373,-61.4427 L 143.412,-61.4256 L 143.449,-61.4071 L 143.482,-61.3872 L 143.512,-61.366 L 143.539,-61.3433
 L 143.563,-61.3193 L 143.583,-61.2935 L 143.6,-61.2655 L 143.613,-61.2353 L 143.623,-61.2029 L 143.628,-61.1682
 L 143.63,-61.1313 L 143.614,-61.0223 L 143.565,-60.933 L 143.484,-60.8636 L 143.37,-60.814 L 143.223,-60.7843
 L 143.044,-60.7744 L 142.953,-60.777 L 142.869,-60.785 L 142.792,-60.7983 L 142.721,-60.817 L 142.658,-60.841
 L 142.601,-60.8703 L 142.551,-60.9055 L 142.506,-60.9472 L 142.468,-60.9953 L 142.435,-61.05 L 142.408,-61.1112
 L 142.387,-61.1788 L 141.846,-61.0896 L 141.879,-60.9714 L 141.924,-60.8636 L 141.981,-60.7663 L 142.05,-60.6795
 L 142.13,-60.603 L 142.221,-60.537 L 142.325,-60.4814 L 142.441,-60.4358 L 142.569,-60.4003 L 142.71,-60.375
 L 142.863,-60.3598 L 143.028,-60.3548 z
M 140.546,-60.3625 L 140.715,-60.3859 L 140.869,-60.4248 L 141.01,-60.4792 L 141.136,-60.5493 L 141.248,-60.6348
 L 141.344,-60.7345 L 141.422,-60.847 L 141.483,-60.9721 L 141.527,-61.1099 L 141.553,-61.2605 L 141.562,-61.4238
 L 141.562,-63.0681 L 141.002,-63.0681 L 141.002,-61.4579 L 140.997,-61.3551 L 140.984,-61.2606 L 140.961,-61.1743
 L 140.93,-61.0963 L 140.89,-61.0266 L 140.84,-60.9652 L 140.783,-60.9127 L 140.717,-60.8697 L 140.644,-60.8363
 L 140.563,-60.8125 L 140.475,-60.7981 L 140.379,-60.7934 L 140.285,-60.7979 L 140.2,-60.8116 L 140.122,-60.8344
 L 140.052,-60.8664 L 139.99,-60.9074 L 139.936,-60.9576 L 139.889,-61.0166 L 139.852,-61.0841 L 139.822,-61.1601
 L 139.801,-61.2445 L 139.789,-61.3375 L 139.785,-61.439 L 139.785,-63.0681 L 139.224,-63.0681 L 139.224,-61.3953
 L 139.233,-61.2346 L 139.257,-61.0868 L 139.298,-60.9519 L 139.355,-60.8299 L 139.428,-60.7207 L 139.518,-60.6244
 L 139.623,-60.542 L 139.742,-60.4746 L 139.876,-60.4222 L 140.024,-60.3847 L 140.187,-60.3623 L 140.364,-60.3548
 z
M 146.021,-60.3983 L 146.166,-60.4149 L 146.298,-60.4426 L 146.419,-60.4813 L 146.528,-60.5312 L 146.625,-60.5921
 L 146.708,-60.6631 L 146.777,-60.7434 L 146.83,-60.8328 L 146.868,-60.9314 L 146.891,-61.0391 L 146.898,-61.1561
 L 146.893,-61.2442 L 146.879,-61.3264 L 146.856,-61.4026 L 146.823,-61.4729 L 146.78,-61.5372 L 146.728,-61.5956
 L 146.667,-61.6474 L 146.598,-61.6921 L 146.52,-61.7297 L 146.433,-61.7601 L 146.338,-61.7835 L 146.234,-61.7997
 L 146.316,-61.8209 L 146.391,-61.8477 L 146.459,-61.8802 L 146.519,-61.9183 L 146.572,-61.962 L 146.618,-62.0114
 L 146.657,-62.0656 L 146.688,-62.1237 L 146.713,-62.1859 L 146.73,-62.2519 L 146.741,-62.3219 L 146.744,-62.3959
 L 146.737,-62.5022 L 146.716,-62.5994 L 146.681,-62.6876 L 146.633,-62.7668 L 146.57,-62.837 L 146.493,-62.8981
 L 146.402,-62.95 L 146.299,-62.9925 L 146.182,-63.0256 L 146.051,-63.0492 L 145.908,-63.0634 L 145.751,-63.0681
 L 144.527,-63.0681 L 144.527,-60.3927 L 145.865,-60.3927 z
M 145.087,-61.9896 L 145.087,-62.6522 L 145.725,-62.6522 L 145.797,-62.6501 L 145.863,-62.6438 L 145.923,-62.6333
 L 145.977,-62.6185 L 146.024,-62.5995 L 146.066,-62.5763 L 146.101,-62.5481 L 146.129,-62.5141 L 146.152,-62.4742
 L 146.168,-62.4286 L 146.177,-62.3772 L 146.18,-62.32 L 146.177,-62.2672 L 146.169,-62.219 L 146.154,-62.1754
 L 146.133,-62.1364 L 146.106,-62.102 L 146.073,-62.0722 L 146.034,-62.0469 L 145.987,-62.0263 L 145.933,-62.0102
 L 145.872,-61.9987 L 145.804,-61.9919 L 145.729,-61.9896 z
M 145.087,-60.8086 L 145.087,-61.5757 L 145.797,-61.5757 L 145.962,-61.5652 L 146.097,-61.5339 L 146.201,-61.4817
 L 146.276,-61.4086 L 146.321,-61.3146 L 146.336,-61.1997 L 146.333,-61.1372 L 146.322,-61.0802 L 146.305,-61.0286
 L 146.281,-60.9824 L 146.25,-60.9417 L 146.212,-60.9063 L 146.166,-60.8765 L 146.113,-60.852 L 146.051,-60.833
 L 145.981,-60.8194 L 145.904,-60.8113 L 145.818,-60.8086 z
M 90,-35.9 L 20,-35.9 L 20,-3.89999 L 90,-3.89999 z
M 20.4,-4.3 L 20.4,-35.5 L 89.6,-35.5 L 89.6,-4.3 z
M 175.248,-31.6982 L 175.369,-31.7118 L 175.485,-31.7345 L 175.596,-31.7662 L 175.702,-31.807 L 175.803,-31.8569
 L 175.899,-31.9154 L 175.987,-31.9819 L 176.067,-32.0565 L 176.14,-32.1392 L 176.205,-32.2299 L 176.263,-32.3288
 L 176.313,-32.4345 L 176.353,-32.5462 L 176.385,-32.6637 L 176.407,-32.787 L 176.421,-32.9162 L 176.425,-33.0512
 L 176.415,-33.2551 L 176.384,-33.4425 L 176.333,-33.6135 L 176.261,-33.7681 L 176.168,-33.9063 L 176.055,-34.0281
 L 175.923,-34.1323 L 175.774,-34.2175 L 175.608,-34.2838 L 175.426,-34.3311 L 175.226,-34.3595 L 175.009,-34.369
 L 174.041,-34.369 L 174.041,-31.6936 L 175.123,-31.6936 z
M 174.601,-32.1265 L 174.601,-33.9361 L 174.997,-33.9361 L 175.131,-33.9297 L 175.253,-33.9108 L 175.365,-33.8793
 L 175.467,-33.8352 L 175.557,-33.7785 L 175.637,-33.7091 L 175.706,-33.6278 L 175.762,-33.5352 L 175.805,-33.4312
 L 175.837,-33.3159 L 175.855,-33.1892 L 175.861,-33.0512 L 175.856,-32.9138 L 175.838,-32.7863 L 175.808,-32.6686
 L 175.767,-32.5609 L 175.714,-32.4631 L 175.649,-32.3753 L 175.574,-32.2993 L 175.491,-32.2371 L 175.399,-32.1887
 L 175.299,-32.1542 L 175.191,-32.1335 L 175.075,-32.1265 z
M 180.985,-32.7588 L 181.657,-31.6936 L 182.246,-31.6936 L 181.356,-33.1006 L 182.168,-34.369 L 181.58,-34.369
 L 180.985,-33.4234 L 180.391,-34.369 L 179.799,-34.369 L 180.647,-33.1006 L 179.721,-31.6936 L 180.313,-31.6936
 z
M 177.281,-33.3152 L 177.28,-33.3709 L 177.278,-33.4432 L 177.275,-33.5321 L 177.27,-33.6375 L 177.265,-33.7595
 L 177.258,-33.8981 L 177.461,-33.1861 L 177.943,-31.6936 L 178.342,-31.6936 L 178.824,-33.1861 L 178.848,-33.2617
 L 178.875,-33.3546 L 178.906,-33.4647 L 178.942,-33.5919 L 178.981,-33.7364 L 179.024,-33.8981 L 179.018,-33.7689
 L 179.014,-33.6599 L 179.011,-33.571 L 179.008,-33.5023 L 179.006,-33.4537 L 179.006,-33.4253 L 179.005,-33.4069
 L 179.005,-33.3886 L 179.005,-33.3702 L 179.005,-33.3519 L 179.005,-33.3335 L 179.005,-31.6936 L 179.502,-31.6936
 L 179.502,-34.369 L 178.756,-34.369 L 178.264,-32.7987 L 178.145,-32.3696 L 178.053,-32.7285 L 178.012,-32.8728
 L 177.533,-34.369 L 176.783,-34.369 L 176.783,-31.6936 L 177.281,-31.6936 z
M 147.064,-22.7692 L 147.215,-22.8007 L 147.354,-22.8533 L 147.479,-22.9269 L 147.591,-23.0215 L 147.691,-23.1371
 L 147.776,-23.2739 L 147.846,-23.4321 L 147.9,-23.6116 L 147.939,-23.8125 L 147.962,-24.0348 L 147.97,-24.2784
 L 147.963,-24.5071 L 147.942,-24.7159 L 147.907,-24.9047 L 147.858,-25.0736 L 147.795,-25.2225 L 147.718,-25.3515
 L 147.627,-25.4606 L 147.522,-25.5499 L 147.401,-25.6193 L 147.266,-25.6689 L 147.117,-25.6986 L 146.952,-25.7085
 L 146.799,-25.7015 L 146.658,-25.6803 L 146.528,-25.6449 L 146.411,-25.5955 L 146.306,-25.5319 L 146.213,-25.4542
 L 146.133,-25.364 L 146.068,-25.2628 L 146.017,-25.1506 L 145.98,-25.0275 L 145.959,-24.8934 L 145.951,-24.7483
 L 145.958,-24.6069 L 145.976,-24.4756 L 146.007,-24.3544 L 146.05,-24.2433 L 146.106,-24.1424 L 146.174,-24.0515
 L 146.253,-23.9729 L 146.34,-23.9086 L 146.436,-23.8585 L 146.54,-23.8228 L 146.654,-23.8013 L 146.775,-23.7942
 L 146.842,-23.7966 L 146.908,-23.8038 L 146.972,-23.8158 L 147.034,-23.8326 L 147.095,-23.8542 L 147.155,-23.8806
 L 147.211,-23.9113 L 147.261,-23.9456 L 147.306,-23.9836 L 147.346,-24.0253 L 147.38,-24.0707 L 147.408,-24.1197
 L 147.403,-23.9753 L 147.391,-23.8432 L 147.373,-23.7235 L 147.347,-23.6161 L 147.314,-23.521 L 147.275,-23.4382
 L 147.229,-23.3679 L 147.176,-23.3105 L 147.118,-23.2657 L 147.053,-23.2338 L 146.983,-23.2147 L 146.906,-23.2083
 L 146.816,-23.2166 L 146.737,-23.2415 L 146.671,-23.2831 L 146.615,-23.3412 L 146.572,-23.416 L 146.539,-23.5074
 L 146.002,-23.4321 L 146.036,-23.3207 L 146.076,-23.2197 L 146.123,-23.1292 L 146.177,-23.0492 L 146.238,-22.9796
 L 146.306,-22.9204 L 146.383,-22.871 L 146.468,-22.8306 L 146.562,-22.7991 L 146.665,-22.7767 L 146.778,-22.7632
 L 146.899,-22.7587 z
M 146.878,-24.2233 L 146.821,-24.2353 L 146.768,-24.2552 L 146.72,-24.2831 L 146.677,-24.319 L 146.639,-24.3628
 L 146.606,-24.4132 L 146.579,-24.4689 L 146.558,-24.5299 L 146.543,-24.5961 L 146.534,-24.6675 L 146.531,-24.7442
 L 146.534,-24.822 L 146.543,-24.894 L 146.558,-24.9601 L 146.58,-25.0204 L 146.607,-25.0749 L 146.64,-25.1236
 L 146.679,-25.1656 L 146.722,-25.1999 L 146.769,-25.2266 L 146.821,-25.2457 L 146.877,-25.2571 L 146.938,-25.261
 L 147,-25.2566 L 147.058,-25.2434 L 147.112,-25.2215 L 147.162,-25.1909 L 147.207,-25.1515 L 147.248,-25.1033
 L 147.284,-25.0477 L 147.313,-24.9861 L 147.336,-24.9184 L 147.352,-24.8447 L 147.362,-24.7649 L 147.365,-24.6791
 L 147.362,-24.6116 L 147.352,-24.5488 L 147.335,-24.4907 L 147.312,-24.4373 L 147.281,-24.3885 L 147.244,-24.3445
 L 147.202,-24.3062 L 147.157,-24.2749 L 147.108,-24.2506 L 147.055,-24.2333 L 146.999,-24.2228 L 146.94,-24.2194
 z
M 141.503,-22.8042 L 141.632,-22.8188 L 141.756,-22.8431 L 141.875,-22.8771 L 141.989,-22.9209 L 142.098,-22.9743
 L 142.2,-23.037 L 142.294,-23.1083 L 142.38,-23.1882 L 142.458,-23.2768 L 142.528,-23.374 L 142.59,-23.4799
 L 142.643,-23.5932 L 142.687,-23.7128 L 142.72,-23.8387 L 142.745,-23.9708 L 142.759,-24.1093 L 142.764,-24.2539
 L 142.753,-24.4723 L 142.72,-24.6731 L 142.665,-24.8564 L 142.588,-25.022 L 142.488,-25.1701 L 142.367,-25.3006
 L 142.226,-25.4122 L 142.066,-25.5035 L 141.889,-25.5745 L 141.693,-25.6252 L 141.479,-25.6557 L 141.246,-25.6658
 L 140.209,-25.6658 L 140.209,-22.7994 L 141.368,-22.7994 z
M 140.809,-23.2632 L 140.809,-25.202 L 141.234,-25.202 L 141.377,-25.1952 L 141.508,-25.175 L 141.628,-25.1412
 L 141.737,-25.0939 L 141.834,-25.0331 L 141.92,-24.9588 L 141.993,-24.8717 L 142.053,-24.7725 L 142.1,-24.6611
 L 142.133,-24.5375 L 142.153,-24.4018 L 142.16,-24.2539 L 142.153,-24.1067 L 142.134,-23.97 L 142.103,-23.844
 L 142.058,-23.7286 L 142.001,-23.6239 L 141.932,-23.5297 L 141.852,-23.4483 L 141.762,-23.3817 L 141.664,-23.3298
 L 141.558,-23.2928 L 141.442,-23.2706 L 141.317,-23.2632 z
M 144.749,-22.8053 L 144.903,-22.8231 L 145.045,-22.8528 L 145.175,-22.8943 L 145.291,-22.9477 L 145.395,-23.013
 L 145.485,-23.0891 L 145.558,-23.1751 L 145.615,-23.2709 L 145.656,-23.3765 L 145.68,-23.4919 L 145.688,-23.6172
 L 145.683,-23.7117 L 145.668,-23.7997 L 145.643,-23.8814 L 145.607,-23.9567 L 145.562,-24.0256 L 145.506,-24.0882
 L 145.441,-24.1437 L 145.366,-24.1916 L 145.283,-24.2318 L 145.19,-24.2645 L 145.087,-24.2895 L 144.976,-24.3068
 L 145.064,-24.3295 L 145.145,-24.3583 L 145.217,-24.3931 L 145.282,-24.4339 L 145.339,-24.4807 L 145.388,-24.5337
 L 145.429,-24.5917 L 145.463,-24.654 L 145.49,-24.7206 L 145.508,-24.7914 L 145.52,-24.8664 L 145.523,-24.9456
 L 145.516,-25.0595 L 145.493,-25.1636 L 145.456,-25.2581 L 145.404,-25.343 L 145.336,-25.4182 L 145.254,-25.4837
 L 145.157,-25.5394 L 145.046,-25.5849 L 144.92,-25.6203 L 144.781,-25.6456 L 144.627,-25.6608 L 144.459,-25.6658
 L 143.147,-25.6658 L 143.147,-22.7994 L 144.581,-22.7994 z
M 143.747,-24.5103 L 143.747,-25.2203 L 144.431,-25.2203 L 144.508,-25.218 L 144.579,-25.2112 L 144.643,-25.1999
 L 144.701,-25.1841 L 144.752,-25.1638 L 144.796,-25.1389 L 144.834,-25.1087 L 144.864,-25.0722 L 144.888,-25.0296
 L 144.905,-24.9807 L 144.916,-24.9256 L 144.919,-24.8643 L 144.916,-24.8077 L 144.906,-24.7561 L 144.89,-24.7094
 L 144.868,-24.6676 L 144.839,-24.6307 L 144.804,-24.5988 L 144.762,-24.5717 L 144.712,-24.5496 L 144.654,-24.5324
 L 144.589,-24.5201 L 144.516,-24.5127 L 144.435,-24.5103 z
M 143.747,-23.2449 L 143.747,-24.0668 L 144.508,-24.0668 L 144.685,-24.0556 L 144.829,-24.022 L 144.942,-23.9661
 L 145.022,-23.8878 L 145.07,-23.7871 L 145.086,-23.664 L 145.082,-23.597 L 145.071,-23.5359 L 145.053,-23.4806
 L 145.027,-23.4312 L 144.993,-23.3875 L 144.953,-23.3497 L 144.904,-23.3177 L 144.847,-23.2915 L 144.781,-23.2711
 L 144.706,-23.2565 L 144.623,-23.2478 L 144.531,-23.2449 z
M 14.5282,-18.368 L 14.6747,-18.3839 L 14.8146,-18.4106 L 14.9481,-18.448 L 15.075,-18.496 L 15.1954,-18.5546
 L 15.3081,-18.6234 L 15.4117,-18.7016 L 15.5063,-18.7893 L 15.5918,-18.8864 L 15.6683,-18.993 L 15.7358,-19.1091
 L 15.7935,-19.2331 L 15.8407,-19.3634 L 15.8774,-19.5002 L 15.9036,-19.6434 L 15.9193,-19.7929 L 15.9246,-19.9489
 L 15.9132,-20.1826 L 15.8791,-20.399 L 15.8223,-20.5982 L 15.7428,-20.7802 L 15.6405,-20.9449 L 15.5155,-21.0925
 L 15.3703,-21.2198 L 15.2075,-21.3239 L 15.027,-21.4049 L 14.8289,-21.4628 L 14.613,-21.4975 L 14.3795,-21.5091
 L 14.1461,-21.4976 L 13.9304,-21.4633 L 13.7323,-21.406 L 13.5521,-21.3258 L 13.3895,-21.2228 L 13.2446,-21.0968
 L 13.12,-20.9504 L 13.018,-20.786 L 12.9387,-20.6037 L 12.882,-20.4034 L 12.848,-20.1851 L 12.8367,-19.9489
 L 12.848,-19.7117 L 12.8821,-19.4918 L 12.9389,-19.2895 L 13.0185,-19.1045 L 13.1207,-18.937 L 13.2457,-18.7868
 L 13.3907,-18.6572 L 13.553,-18.5511 L 13.7326,-18.4687 L 13.9295,-18.4097 L 14.1437,-18.3744 L 14.3752,-18.3626
 z
M 14.2419,-18.8741 L 14.1183,-18.8982 L 14.0044,-18.9385 L 13.9002,-18.9948 L 13.8057,-19.0672 L 13.721,-19.1557
 L 13.6477,-19.2582 L 13.5878,-19.3726 L 13.5411,-19.4989 L 13.5078,-19.637 L 13.4878,-19.787 L 13.4812,-19.9489
 L 13.4877,-20.1091 L 13.5072,-20.2571 L 13.5398,-20.3929 L 13.5853,-20.5164 L 13.6439,-20.6277 L 13.7155,-20.7268
 L 13.7991,-20.812 L 13.8935,-20.8817 L 13.9987,-20.9359 L 14.1148,-20.9747 L 14.2418,-20.9979 L 14.3795,-21.0056
 L 14.5154,-20.9978 L 14.6407,-20.9744 L 14.7555,-20.9354 L 14.8598,-20.8807 L 14.9537,-20.8105 L 15.037,-20.7246
 L 15.1087,-20.625 L 15.1673,-20.5135 L 15.2128,-20.3902 L 15.2454,-20.2549 L 15.2649,-20.1078 L 15.2714,-19.9489
 L 15.2649,-19.7826 L 15.2455,-19.6294 L 15.2131,-19.4894 L 15.1677,-19.3625 L 15.1094,-19.2487 L 15.0381,-19.1481
 L 14.9549,-19.062 L 14.8608,-18.9914 L 14.7558,-18.9366 L 14.6398,-18.8974 L 14.513,-18.8739 L 14.3752,-18.866
 z
M 11.4456,-18.3692 L 11.6344,-18.389 L 11.806,-18.422 L 11.9603,-18.4682 L 12.0973,-18.5276 L 12.217,-18.6002
 L 12.3188,-18.6853 L 12.402,-18.7821 L 12.4668,-18.8907 L 12.5131,-19.0111 L 12.5408,-19.1432 L 12.5501,-19.287
 L 12.5485,-19.3494 L 12.5436,-19.4094 L 12.5354,-19.4668 L 12.524,-19.5219 L 12.5094,-19.5744 L 12.4915,-19.6244
 L 12.4705,-19.6721 L 12.4466,-19.7175 L 12.4199,-19.7606 L 12.3902,-19.8014 L 12.3577,-19.84 L 12.3222,-19.8762
 L 12.2831,-19.9105 L 12.2396,-19.9434 L 12.1917,-19.9749 L 12.1395,-20.0049 L 12.0828,-20.0335 L 12.0217,-20.0606
 L 11.9514,-20.0874 L 11.8672,-20.115 L 11.7691,-20.1433 L 11.6571,-20.1725 L 11.5312,-20.2024 L 11.3913,-20.2331
 L 11.2745,-20.2591 L 11.1716,-20.2836 L 11.0826,-20.3066 L 11.0074,-20.3281 L 10.9461,-20.3481 L 10.8987,-20.3666
 L 10.8598,-20.3849 L 10.8243,-20.4045 L 10.7921,-20.4254 L 10.7632,-20.4476 L 10.7376,-20.471 L 10.7153,-20.4957
 L 10.6964,-20.5222 L 10.681,-20.5511 L 10.669,-20.5825 L 10.6604,-20.6163 L 10.6552,-20.6524 L 10.6535,-20.691
 L 10.6697,-20.8024 L 10.7181,-20.8935 L 10.7989,-20.9644 L 10.912,-21.015 L 11.0574,-21.0454 L 11.2351,-21.0556
 L 11.3227,-21.0528 L 11.4032,-21.0445 L 11.4767,-21.0306 L 11.5432,-21.0112 L 11.6026,-20.9862 L 11.655,-20.9557
 L 11.701,-20.9197 L 11.7416,-20.8783 L 11.7767,-20.8315 L 11.8064,-20.7792 L 11.8305,-20.7215 L 11.8492,-20.6584
 L 12.4698,-20.7431 L 12.4367,-20.8733 L 12.3923,-20.9907 L 12.3366,-21.0952 L 12.2697,-21.1867 L 12.1915,-21.2654
 L 12.102,-21.3311 L 11.999,-21.3855 L 11.8803,-21.43 L 11.7458,-21.4646 L 11.5956,-21.4893 L 11.4297,-21.5042
 L 11.2481,-21.5091 L 11.0578,-21.503 L 10.8832,-21.4846 L 10.7243,-21.454 L 10.5812,-21.4112 L 10.4538,-21.3561
 L 10.3421,-21.2888 L 10.247,-21.21 L 10.1691,-21.1204 L 10.1086,-21.02 L 10.0653,-20.9088 L 10.0394,-20.7869
 L 10.0307,-20.6541 L 10.0319,-20.6009 L 10.0354,-20.5497 L 10.0413,-20.5006 L 10.0495,-20.4535 L 10.0601,-20.4085
 L 10.073,-20.3655 L 10.0881,-20.3245 L 10.105,-20.2852 L 10.1237,-20.2478 L 10.1444,-20.2122 L 10.1669,-20.1783
 L 10.1913,-20.1463 L 10.2175,-20.116 L 10.2455,-20.0871 L 10.2754,-20.0598 L 10.307,-20.034 L 10.3405,-20.0096
 L 10.3757,-19.9868 L 10.4126,-19.9652 L 10.4509,-19.9446 L 10.4907,-19.925 L 10.532,-19.9063 L 10.5746,-19.8886
 L 10.6188,-19.8718 L 10.6694,-19.8547 L 10.7316,-19.8358 L 10.8054,-19.8152 L 10.8908,-19.7928 L 10.9877,-19.7686
 L 11.0962,-19.7427 L 11.2214,-19.7166 L 11.3324,-19.6918 L 11.429,-19.6684 L 11.5114,-19.6463 L 11.5795,-19.6255
 L 11.6333,-19.606 L 11.6782,-19.5864 L 11.7196,-19.5653 L 11.7575,-19.5425 L 11.7919,-19.5182 L 11.8228,-19.4924
 L 11.8503,-19.465 L 11.8738,-19.4355 L 11.8931,-19.4035 L 11.908,-19.3689 L 11.9187,-19.3319 L 11.9252,-19.2923
 L 11.9273,-19.2501 L 11.9087,-19.1255 L 11.8528,-19.0235 L 11.7597,-18.9442 L 11.6293,-18.8875 L 11.4617,-18.8535
 L 11.2568,-18.8422 L 11.1529,-18.8452 L 11.0569,-18.8543 L 10.9687,-18.8696 L 10.8884,-18.8909 L 10.8158,-18.9182
 L 10.7511,-18.9517 L 10.6937,-18.992 L 10.6429,-19.0396 L 10.5987,-19.0947 L 10.5612,-19.1572 L 10.5302,-19.2271
 L 10.506,-19.3044 L 9.88751,-19.2024 L 9.92596,-19.0673 L 9.97769,-18.9442 L 10.0426,-18.8329 L 10.1209,-18.7337
 L 10.2124,-18.6463 L 10.3172,-18.5709 L 10.4356,-18.5073 L 10.5681,-18.4552 L 10.7148,-18.4147 L 10.8756,-18.3858
 L 11.0504,-18.3684 L 11.2394,-18.3626 z
M 2.5213,-18.3692 L 2.71019,-18.389 L 2.88176,-18.422 L 3.03604,-18.4682 L 3.17302,-18.5276 L 3.29269,-18.6002
 L 3.39449,-18.6853 L 3.47777,-18.7821 L 3.54254,-18.8907 L 3.58881,-19.0111 L 3.61656,-19.1432 L 3.62582,-19.287
 L 3.62419,-19.3494 L 3.61931,-19.4094 L 3.61118,-19.4668 L 3.59978,-19.5219 L 3.58513,-19.5744 L 3.56723,-19.6244
 L 3.54625,-19.6721 L 3.52238,-19.7175 L 3.49561,-19.7606 L 3.46596,-19.8014 L 3.4334,-19.84 L 3.39795,-19.8762
 L 3.35886,-19.9105 L 3.31537,-19.9434 L 3.26749,-19.9749 L 3.21519,-20.0049 L 3.15849,-20.0335 L 3.0974,-20.0606
 L 3.02716,-20.0874 L 2.94298,-20.115 L 2.84488,-20.1433 L 2.73286,-20.1725 L 2.6069,-20.2024 L 2.46704,-20.2331
 L 2.35028,-20.2591 L 2.24738,-20.2836 L 2.15834,-20.3066 L 2.08318,-20.3281 L 2.02187,-20.3481 L 1.97443,-20.3666
 L 1.93558,-20.3849 L 1.90005,-20.4045 L 1.86783,-20.4254 L 1.83893,-20.4476 L 1.81334,-20.471 L 1.79106,-20.4957
 L 1.77217,-20.5222 L 1.75671,-20.5511 L 1.74471,-20.5825 L 1.73611,-20.6163 L 1.73096,-20.6524 L 1.72925,-20.691
 L 1.74539,-20.8024 L 1.79387,-20.8935 L 1.87463,-20.9644 L 1.98772,-21.015 L 2.1331,-21.0454 L 2.31081,-21.0556
 L 2.39842,-21.0528 L 2.47897,-21.0445 L 2.55249,-21.0306 L 2.61894,-21.0112 L 2.67833,-20.9862 L 2.73068,-20.9557
 L 2.77676,-20.9197 L 2.81737,-20.8783 L 2.85248,-20.8315 L 2.88211,-20.7792 L 2.90625,-20.7215 L 2.9249,-20.6584
 L 3.54553,-20.7431 L 3.51241,-20.8733 L 3.468,-20.9907 L 3.41234,-21.0952 L 3.3454,-21.1867 L 3.26718,-21.2654
 L 3.17769,-21.3311 L 3.07471,-21.3855 L 2.95599,-21.43 L 2.82155,-21.4646 L 2.67137,-21.4893 L 2.50545,-21.5042
 L 2.32381,-21.5091 L 2.13348,-21.503 L 1.95889,-21.4846 L 1.80003,-21.454 L 1.65691,-21.4112 L 1.52951,-21.3561
 L 1.41785,-21.2888 L 1.32271,-21.21 L 1.24486,-21.1204 L 1.18431,-21.02 L 1.14105,-20.9088 L 1.11511,-20.7869
 L 1.10646,-20.6541 L 1.10764,-20.6009 L 1.11116,-20.5497 L 1.11703,-20.5006 L 1.12526,-20.4535 L 1.13583,-20.4085
 L 1.14876,-20.3655 L 1.1638,-20.3245 L 1.18071,-20.2852 L 1.19948,-20.2478 L 1.22012,-20.2122 L 1.24263,-20.1783
 L 1.267,-20.1463 L 1.29323,-20.116 L 1.32126,-20.0871 L 1.3511,-20.0598 L 1.38274,-20.034 L 1.4162,-20.0096
 L 1.45145,-19.9868 L 1.48834,-19.9652 L 1.52669,-19.9446 L 1.56647,-19.925 L 1.6077,-19.9063 L 1.65038,-19.8886
 L 1.69449,-19.8718 L 1.74513,-19.8547 L 1.80734,-19.8358 L 1.88113,-19.8152 L 1.96649,-19.7928 L 2.06343,-19.7686
 L 2.17194,-19.7427 L 2.29715,-19.7166 L 2.40808,-19.6918 L 2.50475,-19.6684 L 2.58711,-19.6463 L 2.65518,-19.6255
 L 2.70898,-19.606 L 2.75389,-19.5864 L 2.7953,-19.5653 L 2.83322,-19.5425 L 2.86763,-19.5182 L 2.89856,-19.4924
 L 2.92598,-19.465 L 2.94952,-19.4355 L 2.96878,-19.4035 L 2.98376,-19.3689 L 2.99448,-19.3319 L 3.0009,-19.2923
 L 3.00304,-19.2501 L 2.98441,-19.1255 L 2.92853,-19.0235 L 2.8354,-18.9442 L 2.70502,-18.8875 L 2.53738,-18.8535
 L 2.3325,-18.8422 L 2.22865,-18.8452 L 2.13263,-18.8543 L 2.04443,-18.8696 L 1.96408,-18.8909 L 1.89156,-18.9182
 L 1.82687,-18.9517 L 1.76944,-18.992 L 1.71863,-19.0396 L 1.67444,-19.0947 L 1.6369,-19.1572 L 1.60597,-19.2271
 L 1.5817,-19.3044 L 0.963226,-19.2024 L 1.00169,-19.0673 L 1.05341,-18.9442 L 1.11839,-18.8329 L 1.19662,-18.7337
 L 1.28813,-18.6463 L 1.3929,-18.5709 L 1.51134,-18.5073 L 1.64389,-18.4552 L 1.79054,-18.4147 L 1.95129,-18.3858
 L 2.12616,-18.3684 L 2.31512,-18.3626 z
M 16.9678,-19.567 L 17.7187,-19.567 L 18.4283,-18.406 L 19.1487,-18.406 L 18.3219,-19.6906 L 18.4218,-19.7197
 L 18.5146,-19.7576 L 18.6002,-19.8043 L 18.6788,-19.8599 L 18.7502,-19.9243 L 18.8145,-19.9977 L 18.8702,-20.0779
 L 18.9158,-20.1629 L 18.9512,-20.2529 L 18.9765,-20.3478 L 18.9917,-20.4475 L 18.9968,-20.5521 L 18.9885,-20.6933
 L 18.9638,-20.823 L 18.9225,-20.9414 L 18.8647,-21.0483 L 18.7903,-21.1439 L 18.6995,-21.2281 L 18.5935,-21.3
 L 18.4736,-21.3589 L 18.3398,-21.4047 L 18.1922,-21.4374 L 18.0307,-21.457 L 17.8554,-21.4635 L 16.3277,-21.4635
 L 16.3277,-18.406 L 16.9678,-18.406 z
M 16.9678,-20.0639 L 16.9678,-20.9666 L 17.7881,-20.9666 L 17.9605,-20.9544 L 18.1015,-20.9176 L 18.2112,-20.8565
 L 18.2896,-20.7708 L 18.3366,-20.6607 L 18.3523,-20.5261 L 18.3484,-20.4557 L 18.3369,-20.3908 L 18.3176,-20.3313
 L 18.2906,-20.2773 L 18.2558,-20.2286 L 18.2134,-20.1854 L 18.1635,-20.1483 L 18.1064,-20.1179 L 18.042,-20.0943
 L 17.9704,-20.0774 L 17.8915,-20.0672 L 17.8055,-20.0639 z
M 6.52075,-18.9008 L 4.66757,-18.9008 L 4.66757,-19.7058 L 6.29941,-19.7058 L 6.29941,-20.2006 L 4.66757,-20.2006
 L 4.66757,-20.9688 L 6.43179,-20.9688 L 6.43179,-21.4635 L 4.02742,-21.4635 L 4.02742,-18.406 L 6.52075,-18.406
 z
M 7.49089,-20.2092 L 7.48981,-20.2824 L 7.48656,-20.3631 L 7.48114,-20.4512 L 7.47354,-20.5468 L 7.46378,-20.6499
 L 7.45186,-20.7605 L 8.78421,-18.406 L 9.53505,-18.406 L 9.53505,-21.4635 L 8.96651,-21.4635 L 8.96651,-19.6863
 L 8.96759,-19.595 L 8.97084,-19.5004 L 8.97627,-19.4026 L 8.98386,-19.3015 L 8.99362,-19.1972 L 9.00555,-19.0896
 L 7.65364,-21.4635 L 6.92235,-21.4635 L 6.92235,-18.406 L 7.49089,-18.406 z
"/>
</g>
</svg>