<svg xmlns="http://www.w3.org/2000/svg" version="1.1" width="231mm" height="178mm" viewBox="0 -178 231 178">
<g id="cut" fill="none" stroke="#000000" stroke-width="0.2">
<path d="
M 33,-102.5 L 45,-102.5 L 45,-99.6 L 65,-99.6 L 65,-102.5 L 77,-102.5
 L 77,-99.6 L 97,-99.6 L 97,-102.5 L 107.1,-102.5 L 107.1,-110.6 L 110,-110.6
 L 110,-130.6 L 107.1,-130.6 L 107.1,-146.6 L 110,-146.6 L 110,-166.6 L 107.1,-166.6
 L 107.1,-174.7 L 97,-174.7 L 97,-177.6 L 77,-177.6 L 77,-174.7 L 65,-174.7
 L 65,-177.6 L 45,-177.6 L 45,-174.7 L 33,-174.7 L 33,-177.6 L 13,-177.6
 L 13,-174.7 L 2.89999,-174.7 L 2.89999,-166.6 L 0,-166.6 L 0,-146.6 L 2.89999,-146.6
 L 2.89999,-130.6 L 0,-130.6 L 0,-110.6 L 2.89999,-110.6 L 2.89999,-102.5 L 13,-102.5
 L 13,-99.6 L 33,-99.6 z
M 169.386,-100.695 L 169.643,-101.763 L 170.063,-102.778 L 170.637,-103.714 L 171.35,-104.55 L 172.186,-105.263
 L 173.122,-105.837 L 174.137,-106.257 L 175.205,-106.514 L 176.3,-106.6 L 177.395,-106.514 L 178.463,-106.257
 L 179.478,-105.837 L 180.414,-105.263 L 181.25,-104.55 L 181.963,-103.714 L 182.537,-102.778 L 182.957,-101.763
 L 183.214,-100.695 L 183.3,-99.6 L 228.2,-99.6 L 228.2,-102.7 L 230.6,-102.7 L 230.6,-174.7
 L 122,-174.7 L 122,-102.7 L 124.4,-102.7 L 124.4,-99.6 L 169.3,-99.6 z
M 13,-52.7 L 33,-52.7 L 33,-49.8 L 45,-49.8 L 45,-52.7 L 65,-52.7
 L 65,-49.8 L 77,-49.8 L 77,-52.7 L 97,-52.7 L 97,-49.8 L 110,-49.8
 L 110,-58.56 L 107.09,-58.56 L 107.09,-67.32 L 110,-67.32 L 110,-76.08 L 107.09,-76.08
 L 107.09,-84.84 L 110,-84.84 L 110,-93.6 L 0,-93.6 L 0,-84.84 L 2.90999,-84.84
 L 2.90999,-76.08 L 0,-76.08 L 0,-67.32 L 2.90999,-67.32 L 2.90999,-58.56 L 0,-58.56
 L 0,-49.8 L 13,-49.8 z
M 25.5,-57.7 L 25.5,-81.7 L 30.5,-81.7 L 30.5,-57.7 z
M 79.5,-57.7 L 79.5,-81.7 L 84.5,-81.7 L 84.5,-57.7 z
M 197.09,-93.6 L 124.91,-93.6 L 124.91,-90 L 197.09,-90 z
M 133,-52.7 L 153,-52.7 L 153,-49.8 L 169,-49.8 L 169,-52.7 L 189,-52.7
 L 189,-49.8 L 197.09,-49.8 L 197.09,-58.56 L 200,-58.56 L 200,-67.32 L 197.09,-67.32
 L 197.09,-76.08 L 200,-76.08 L 200,-84.84 L 197.09,-84.84 L 197.09,-86.7 L 124.91,-86.7
 L 124.91,-84.84 L 122,-84.84 L 122,-76.08 L 124.91,-76.08 L 124.91,-67.32 L 122,-67.32
 L 122,-58.56 L 124.91,-58.56 L 124.91,-49.8 L 133,-49.8 z
M 13,-2.89999 L 33,-2.89999 L 33,-0 L 45,-0 L 45,-2.89999 L 65,-2.89999
 L 65,-0 L 77,-0 L 77,-2.89999 L 97,-2.89999 L 97,-0 L 110,-0
 L 110,-8.75999 L 107.09,-8.75999 L 107.09,-17.52 L 110,-17.52 L 110,-26.28 L 107.09,-26.28
 L 107.09,-35.04 L 110,-35.04 L 110,-43.8 L 0,-43.8 L 0,-35.04 L 2.90999,-35.04
 L 2.90999,-26.28 L 0,-26.28 L 0,-17.52 L 2.90999,-17.52 L 2.90999,-8.75999 L 0,-8.75999
 L 0,-0 L 13,-0 z
M 2.89999,-36.9 L 2.89999,-40.2 L 107.1,-40.2 L 107.1,-36.9 z
M 21,-7.89999 L 21,-31.9 L 89,-31.9 L 89,-7.89999 z
M 197.09,-43.8 L 124.91,-43.8 L 124.91,-40.2 L 197.09,-40.2 z
M 133,-2.89999 L 153,-2.89999 L 153,-0 L 169,-0 L 169,-2.89999 L 189,-2.89999
 L 189,-0 L 197.09,-0 L 197.09,-8.75999 L 200,-8.75999 L 200,-17.52 L 197.09,-17.52
 L 197.09,-26.28 L 200,-26.28 L 200,-35.04 L 197.09,-35.04 L 197.09,-36.9 L 124.91,-36.9
 L 124.91,-35.04 L 122,-35.04 L 122,-26.28 L 124.91,-26.28 L 124.91,-17.52 L 122,-17.52
 L 122,-8.75999 L 124.91,-8.75999 L 124.91,-0 L 133,-0 z
M 168.15,-8.45 L 168.15,-19.55 L 187.85,-19.55 L 187.85,-8.45 z
M 165.255,-12.4197 L 165.011,-12.4783 L 164.779,-12.5744 L 164.565,-12.7056 L 164.374,-12.8686 L 164.211,-13.0595
 L 164.079,-13.2736 L 163.983,-13.5056 L 163.925,-13.7497 L 163.905,-14 L 163.925,-14.2503 L 163.983,-14.4944
 L 164.079,-14.7264 L 164.211,-14.9404 L 164.374,-15.1314 L 164.565,-15.2944 L 164.779,-15.4256 L 165.011,-15.5217
 L 165.255,-15.5803 L 165.505,-15.6 L 165.755,-15.5803 L 165.999,-15.5217 L 166.231,-15.4256 L 166.445,-15.2944
 L 166.636,-15.1314 L 166.799,-14.9404 L 166.931,-14.7264 L 167.027,-14.4944 L 167.085,-14.2503 L 167.105,-14
 L 167.085,-13.7497 L 167.027,-13.5056 L 166.931,-13.2736 L 166.799,-13.0595 L 166.636,-12.8686 L 166.445,-12.7056
 L 166.231,-12.5744 L 165.999,-12.4783 L 165.755,-12.4197 L 165.505,-12.4 z
M 190.245,-12.4197 L 190.001,-12.4783 L 189.769,-12.5744 L 189.555,-12.7056 L 189.364,-12.8686 L 189.201,-13.0595
 L 189.069,-13.2736 L 188.973,-13.5056 L 188.915,-13.7497 L 188.895,-14 L 188.915,-14.2503 L 188.973,-14.4944
 L 189.069,-14.7264 L 189.201,-14.9404 L 189.364,-15.1314 L 189.555,-15.2944 L 189.769,-15.4256 L 190.001,-15.5217
 L 190.245,-15.5803 L 190.495,-15.6 L 190.745,-15.5803 L 190.989,-15.5217 L 191.221,-15.4256 L 191.435,-15.2944
 L 191.626,-15.1314 L 191.789,-14.9404 L 191.921,-14.7264 L 192.017,-14.4944 L 192.075,-14.2503 L 192.095,-14
 L 192.075,-13.7497 L 192.017,-13.5056 L 191.921,-13.2736 L 191.789,-13.0595 L 191.626,-12.8686 L 191.435,-12.7056
 L 191.221,-12.5744 L 190.989,-12.4783 L 190.745,-12.4197 L 190.495,-12.4 z
"/>
</g>
<g id="etch" fill="#ff0000" stroke="#ff0000" stroke-width="0.1">
<path d="
M 94.5855,-164.969 L 94.7361,-164.987 L 94.879,-165.017 L 95.0142,-165.059 L 95.1418,-165.113 L 95.2617,-165.179
 L 95.3731,-165.257 L 95.4752,-165.348 L 95.5679,-165.451 L 95.6513,-165.567 L 95.7254,-165.696 L 95.7901,-165.837
 L 95.2324,-166.048 L 95.1473,-165.87 L 95.0426,-165.725 L 94.9183,-165.611 L 94.7743,-165.531 L 94.6106,-165.482
 L 94.4273,-165.466 L 94.2876,-165.474 L 94.1593,-165.497 L 94.0424,-165.535 L 93.9369,-165.589 L 93.8428,-165.659
 L 93.7601,-165.744 L 93.6895,-165.843 L 93.6317,-165.957 L 93.5867,-166.084 L 93.5546,-166.225 L 93.5354,-166.38
 L 93.529,-166.549 L 93.5352,-166.715 L 93.5539,-166.867 L 93.5851,-167.005 L 93.6288,-167.129 L 93.6849,-167.24
 L 93.7535,-167.337 L 93.8342,-167.419 L 93.9265,-167.486 L 94.0305,-167.538 L 94.1461,-167.576 L 94.2733,-167.598
 L 94.4121,-167.606 L 94.5048,-167.602 L 94.5933,-167.591 L 94.6777,-167.572 L 94.7579,-167.545 L 94.8339,-167.511
 L 94.9058,-167.47 L 94.9718,-167.422 L 95.0301,-167.369 L 95.0808,-167.311 L 95.1238,-167.247 L 95.1591,-167.178
 L 95.1868,-167.104 L 95.751,-167.258 L 95.6999,-167.392 L 95.6375,-167.515 L 95.5639,-167.627 L 95.479,-167.727
 L 95.383,-167.816 L 95.2758,-167.893 L 95.1574,-167.959 L 95.0279,-168.013 L 94.8874,-168.055 L 94.7357,-168.085
 L 94.573,-168.103 L 94.3991,-168.109 L 94.1629,-168.098 L 93.9461,-168.064 L 93.7486,-168.008 L 93.5706,-167.93
 L 93.412,-167.829 L 93.2729,-167.705 L 93.1542,-167.561 L 93.0571,-167.398 L 92.9816,-167.215 L 92.9276,-167.012
 L 92.8952,-166.79 L 92.8844,-166.549 L 92.8956,-166.308 L 92.9292,-166.085 L 92.9851,-165.881 L 93.0634,-165.696
 L 93.164,-165.529 L 93.287,-165.38 L 93.4305,-165.253 L 93.5926,-165.148 L 93.7733,-165.067 L 93.9727,-165.009
 L 94.1907,-164.974 L 94.4273,-164.963 z
M 88.1109,-165.011 L 88.2488,-165.027 L 88.3812,-165.053 L 88.5081,-165.089 L 88.6296,-165.136 L 88.7455,-165.193
 L 88.8544,-165.259 L 88.9548,-165.335 L 89.0466,-165.421 L 89.1299,-165.515 L 89.2045,-165.619 L 89.2707,-165.732
 L 89.3273,-165.853 L 89.3737,-165.98 L 89.4098,-166.115 L 89.4356,-166.256 L 89.451,-166.403 L 89.4562,-166.558
 L 89.4444,-166.79 L 89.4092,-167.005 L 89.3504,-167.2 L 89.2681,-167.377 L 89.1623,-167.535 L 89.033,-167.674
 L 88.8823,-167.793 L 88.7121,-167.89 L 88.5226,-167.966 L 88.3136,-168.02 L 88.0852,-168.053 L 87.8374,-168.064
 L 86.7307,-168.064 L 86.7307,-165.006 L 87.9676,-165.006 z
M 87.3708,-165.501 L 87.3708,-167.569 L 87.8244,-167.569 L 87.9767,-167.562 L 88.1168,-167.54 L 88.2448,-167.504
 L 88.3606,-167.454 L 88.4642,-167.389 L 88.5556,-167.309 L 88.6339,-167.217 L 88.6979,-167.111 L 88.7477,-166.992
 L 88.7833,-166.86 L 88.8046,-166.715 L 88.8117,-166.558 L 88.805,-166.4 L 88.7847,-166.255 L 88.7509,-166.12
 L 88.7037,-165.997 L 88.6429,-165.885 L 88.5687,-165.785 L 88.483,-165.698 L 88.3878,-165.627 L 88.2833,-165.572
 L 88.1694,-165.532 L 88.0461,-165.509 L 87.9133,-165.501 z
M 90.5899,-165.787 L 91.7551,-165.787 L 92.0264,-165.006 L 92.66,-165.006 L 91.549,-168.064 L 90.7938,-168.064
 L 89.6784,-165.006 L 90.3186,-165.006 z
M 90.7331,-166.269 L 90.8387,-166.577 L 90.9269,-166.835 L 90.9978,-167.043 L 91.0513,-167.201 L 91.0875,-167.309
 L 91.1063,-167.367 L 91.1162,-167.4 L 91.1256,-167.431 L 91.1345,-167.461 L 91.1429,-167.49 L 91.1509,-167.518
 L 91.1584,-167.545 L 91.1714,-167.593 L 91.217,-167.443 L 91.3103,-167.148 L 91.6119,-166.269 z
M 107.1,-162.115 L 75.17,-162.115 L 75.17,-144.885 L 107.1,-144.885 z
M 75.57,-145.285 L 75.57,-161.715 L 106.7,-161.715 L 106.7,-145.285 z
M 13.6222,-126.065 L 13.7993,-126.083 L 13.9601,-126.114 L 14.1048,-126.158 L 14.2332,-126.213 L 14.3454,-126.281
 L 14.4408,-126.361 L 14.5189,-126.452 L 14.5796,-126.554 L 14.623,-126.667 L 14.649,-126.79 L 14.6577,-126.925
 L 14.6562,-126.984 L 14.6516,-127.04 L 14.644,-127.094 L 14.6333,-127.145 L 14.6196,-127.195 L 14.6028,-127.242
 L 14.5831,-127.286 L 14.5607,-127.329 L 14.5356,-127.369 L 14.5078,-127.408 L 14.4773,-127.444 L 14.4441,-127.478
 L 14.4074,-127.51 L 14.3667,-127.541 L 14.3218,-127.57 L 14.2727,-127.598 L 14.2196,-127.625 L 14.1623,-127.651
 L 14.0965,-127.676 L 14.0175,-127.702 L 13.9256,-127.728 L 13.8205,-127.755 L 13.7025,-127.784 L 13.5713,-127.812
 L 13.4619,-127.837 L 13.3654,-127.86 L 13.2819,-127.881 L 13.2115,-127.901 L 13.154,-127.92 L 13.1095,-127.937
 L 13.0731,-127.955 L 13.0398,-127.973 L 13.0096,-127.993 L 12.9825,-128.013 L 12.9585,-128.035 L 12.9376,-128.058
 L 12.9199,-128.083 L 12.9054,-128.11 L 12.8941,-128.14 L 12.8861,-128.171 L 12.8813,-128.205 L 12.8797,-128.242
 L 12.8948,-128.346 L 12.9402,-128.431 L 13.016,-128.498 L 13.122,-128.545 L 13.2583,-128.574 L 13.4249,-128.583
 L 13.507,-128.581 L 13.5825,-128.573 L 13.6514,-128.56 L 13.7137,-128.542 L 13.7694,-128.518 L 13.8185,-128.49
 L 13.8617,-128.456 L 13.8998,-128.417 L 13.9327,-128.373 L 13.9605,-128.324 L 13.9831,-128.27 L 14.0006,-128.211
 L 14.5824,-128.29 L 14.5514,-128.413 L 14.5098,-128.523 L 14.4576,-128.62 L 14.3948,-128.706 L 14.3215,-128.78
 L 14.2376,-128.842 L 14.141,-128.893 L 14.0297,-128.934 L 13.9037,-128.967 L 13.7629,-128.99 L 13.6073,-129.004
 L 13.4371,-129.009 L 13.2586,-129.003 L 13.095,-128.986 L 12.946,-128.957 L 12.8118,-128.917 L 12.6924,-128.865
 L 12.5877,-128.802 L 12.4985,-128.728 L 12.4255,-128.644 L 12.3688,-128.55 L 12.3282,-128.446 L 12.3039,-128.331
 L 12.2958,-128.207 L 12.2969,-128.157 L 12.3002,-128.109 L 12.3057,-128.063 L 12.3134,-128.019 L 12.3233,-127.977
 L 12.3354,-127.936 L 12.3495,-127.898 L 12.3654,-127.861 L 12.383,-127.826 L 12.4023,-127.793 L 12.4234,-127.761
 L 12.4463,-127.731 L 12.4709,-127.702 L 12.4972,-127.675 L 12.5251,-127.65 L 12.5548,-127.626 L 12.5862,-127.603
 L 12.6192,-127.581 L 12.6538,-127.561 L 12.6898,-127.542 L 12.7271,-127.523 L 12.7657,-127.506 L 12.8057,-127.489
 L 12.8471,-127.474 L 12.8945,-127.458 L 12.9529,-127.44 L 13.022,-127.42 L 13.1021,-127.399 L 13.1929,-127.377
 L 13.2947,-127.353 L 13.4121,-127.328 L 13.5161,-127.305 L 13.6067,-127.283 L 13.6839,-127.262 L 13.7477,-127.243
 L 13.7982,-127.224 L 13.8403,-127.206 L 13.8791,-127.186 L 13.9146,-127.165 L 13.9469,-127.142 L 13.9759,-127.118
 L 14.0016,-127.092 L 14.0237,-127.065 L 14.0417,-127.035 L 14.0558,-127.002 L 14.0658,-126.967 L 14.0718,-126.93
 L 14.0738,-126.891 L 14.0564,-126.774 L 14.004,-126.678 L 13.9167,-126.604 L 13.7944,-126.551 L 13.6373,-126.519
 L 13.4452,-126.508 L 13.3479,-126.511 L 13.2578,-126.52 L 13.1752,-126.534 L 13.0998,-126.554 L 13.0318,-126.58
 L 12.9712,-126.611 L 12.9173,-126.649 L 12.8697,-126.693 L 12.8283,-126.745 L 12.7931,-126.804 L 12.7641,-126.869
 L 12.7413,-126.942 L 12.1615,-126.846 L 12.1976,-126.719 L 12.2461,-126.604 L 12.307,-126.5 L 12.3803,-126.407
 L 12.4661,-126.325 L 12.5643,-126.254 L 12.6754,-126.194 L 12.7996,-126.146 L 12.9371,-126.108 L 13.0878,-126.08
 L 13.2518,-126.064 L 13.4289,-126.059 z
M 18.1257,-126.832 L 19.2181,-126.832 L 19.4724,-126.099 L 20.0665,-126.099 L 19.0249,-128.966 L 18.3169,-128.966
 L 17.2712,-126.099 L 17.8714,-126.099 z
M 18.2599,-127.283 L 18.359,-127.572 L 18.4417,-127.814 L 18.5082,-128.009 L 18.5583,-128.157 L 18.5922,-128.258
 L 18.6099,-128.313 L 18.6191,-128.343 L 18.6279,-128.373 L 18.6363,-128.401 L 18.6442,-128.428 L 18.6517,-128.455
 L 18.6587,-128.48 L 18.6709,-128.524 L 18.7136,-128.384 L 18.8011,-128.107 L 19.0839,-127.283 z
M 15.6343,-127.108 L 16.3464,-127.108 L 16.4517,-127.112 L 16.5522,-127.122 L 16.6477,-127.138 L 16.7383,-127.161
 L 16.824,-127.191 L 16.9048,-127.227 L 16.9801,-127.27 L 17.0494,-127.318 L 17.1126,-127.371 L 17.1697,-127.43
 L 17.2208,-127.494 L 17.2659,-127.564 L 17.3044,-127.638 L 17.336,-127.716 L 17.3605,-127.797 L 17.378,-127.881
 L 17.3885,-127.968 L 17.392,-128.058 L 17.3843,-128.197 L 17.3612,-128.326 L 17.3226,-128.443 L 17.2686,-128.549
 L 17.1992,-128.644 L 17.1143,-128.729 L 17.0152,-128.801 L 16.9029,-128.86 L 16.7774,-128.907 L 16.6388,-128.939
 L 16.487,-128.959 L 16.322,-128.966 L 15.0342,-128.966 L 15.0342,-126.099 L 15.6343,-126.099 z
M 15.6343,-127.57 L 15.6343,-128.5 L 16.2548,-128.5 L 16.4177,-128.487 L 16.5509,-128.45 L 16.6546,-128.387
 L 16.7286,-128.299 L 16.773,-128.186 L 16.7878,-128.048 L 16.7841,-127.974 L 16.7729,-127.906 L 16.7543,-127.844
 L 16.7282,-127.787 L 16.6946,-127.737 L 16.6536,-127.693 L 16.6056,-127.656 L 16.5514,-127.625 L 16.4908,-127.601
 L 16.4239,-127.584 L 16.3507,-127.574 L 16.2711,-127.57 z
M 20.9848,-127.188 L 21.6887,-127.188 L 22.354,-126.099 L 23.0294,-126.099 L 22.2543,-127.304 L 22.3479,-127.331
 L 22.4349,-127.366 L 22.5152,-127.41 L 22.5888,-127.462 L 22.6558,-127.523 L 22.7161,-127.592 L 22.7683,-127.667
 L 22.811,-127.747 L 22.8443,-127.831 L 22.868,-127.92 L 22.8822,-128.013 L 22.887,-128.111 L 22.8793,-128.244
 L 22.856,-128.365 L 22.8173,-128.476 L 22.7631,-128.577 L 22.6934,-128.666 L 22.6083,-128.745 L 22.5089,-128.813
 L 22.3965,-128.868 L 22.2711,-128.911 L 22.1327,-128.941 L 21.9813,-128.96 L 21.8169,-128.966 L 20.3847,-128.966
 L 20.3847,-126.099 L 20.9848,-126.099 z
M 20.9848,-127.654 L 20.9848,-128.5 L 21.7538,-128.5 L 21.9155,-128.488 L 22.0477,-128.454 L 22.1505,-128.397
 L 22.224,-128.316 L 22.2681,-128.213 L 22.2828,-128.087 L 22.2791,-128.021 L 22.2683,-127.96 L 22.2502,-127.904
 L 22.2249,-127.854 L 22.1924,-127.808 L 22.1526,-127.768 L 22.1058,-127.733 L 22.0522,-127.704 L 21.9919,-127.682
 L 21.9247,-127.666 L 21.8508,-127.657 L 21.7701,-127.654 z
M 25.6607,-126.563 L 23.9234,-126.563 L 23.9234,-127.318 L 25.4532,-127.318 L 25.4532,-127.782 L 23.9234,-127.782
 L 23.9234,-128.502 L 25.5773,-128.502 L 25.5773,-128.966 L 23.3232,-128.966 L 23.3232,-126.099 L 25.6607,-126.099
 z
M 107.1,-126.23 L 89.32,-126.23 L 89.32,-104.77 L 107.1,-104.77 z
M 89.72,-105.17 L 89.72,-125.83 L 106.7,-125.83 L 106.7,-105.17 z
M 101.776,-114.064 L 101.913,-114.079 L 102.044,-114.104 L 102.169,-114.139 L 102.288,-114.184 L 102.401,-114.239
 L 102.507,-114.303 L 102.604,-114.377 L 102.693,-114.459 L 102.773,-114.55 L 102.845,-114.65 L 102.908,-114.759
 L 102.962,-114.875 L 103.006,-114.997 L 103.041,-115.125 L 103.065,-115.259 L 103.08,-115.4 L 103.085,-115.546
 L 103.074,-115.765 L 103.042,-115.968 L 102.989,-116.155 L 102.914,-116.325 L 102.818,-116.48 L 102.701,-116.618
 L 102.565,-116.737 L 102.413,-116.835 L 102.243,-116.911 L 102.058,-116.965 L 101.855,-116.998 L 101.636,-117.009
 L 101.417,-116.998 L 101.215,-116.966 L 101.03,-116.912 L 100.861,-116.837 L 100.708,-116.74 L 100.572,-116.622
 L 100.455,-116.485 L 100.36,-116.331 L 100.285,-116.16 L 100.232,-115.972 L 100.201,-115.767 L 100.19,-115.546
 L 100.201,-115.323 L 100.232,-115.117 L 100.286,-114.928 L 100.36,-114.754 L 100.456,-114.597 L 100.573,-114.456
 L 100.709,-114.335 L 100.861,-114.235 L 101.03,-114.158 L 101.214,-114.103 L 101.415,-114.07 L 101.632,-114.059
 z
M 101.507,-114.538 L 101.391,-114.561 L 101.285,-114.599 L 101.187,-114.651 L 101.098,-114.719 L 101.019,-114.802
 L 100.95,-114.898 L 100.894,-115.006 L 100.85,-115.124 L 100.819,-115.253 L 100.8,-115.394 L 100.794,-115.546
 L 100.8,-115.696 L 100.819,-115.835 L 100.849,-115.962 L 100.892,-116.078 L 100.947,-116.182 L 101.014,-116.275
 L 101.092,-116.355 L 101.181,-116.42 L 101.279,-116.471 L 101.388,-116.507 L 101.507,-116.529 L 101.636,-116.537
 L 101.764,-116.529 L 101.881,-116.507 L 101.989,-116.471 L 102.087,-116.419 L 102.175,-116.354 L 102.253,-116.273
 L 102.32,-116.18 L 102.375,-116.075 L 102.418,-115.96 L 102.448,-115.833 L 102.466,-115.695 L 102.472,-115.546
 L 102.466,-115.39 L 102.448,-115.246 L 102.418,-115.115 L 102.375,-114.996 L 102.321,-114.889 L 102.254,-114.795
 L 102.176,-114.714 L 102.087,-114.648 L 101.989,-114.597 L 101.88,-114.56 L 101.761,-114.538 L 101.632,-114.531
 z
M 94.6275,-115.241 L 95.3477,-114.099 L 95.9783,-114.099 L 95.0242,-115.607 L 95.8949,-116.966 L 95.2643,-116.966
 L 94.6275,-115.953 L 93.9907,-116.966 L 93.356,-116.966 L 94.2654,-115.607 L 93.2726,-114.099 L 93.9073,-114.099
 z
M 96.8288,-116.966 L 96.2287,-116.966 L 96.2287,-114.099 L 96.8288,-114.099 z
M 98.0387,-114.832 L 99.1311,-114.832 L 99.3855,-114.099 L 99.9795,-114.099 L 98.9379,-116.966 L 98.2299,-116.966
 L 97.1842,-114.099 L 97.7844,-114.099 z
M 98.173,-115.283 L 98.2719,-115.572 L 98.3547,-115.814 L 98.4211,-116.009 L 98.4713,-116.157 L 98.5052,-116.258
 L 98.5229,-116.313 L 98.5321,-116.343 L 98.5409,-116.373 L 98.5493,-116.401 L 98.5572,-116.428 L 98.5647,-116.455
 L 98.5717,-116.48 L 98.5839,-116.524 L 98.6266,-116.384 L 98.7141,-116.107 L 98.9969,-115.283 z
M 19.6822,-111.562 L 20.4451,-111.745 L 21.1699,-112.045 L 21.8389,-112.455 L 22.4355,-112.964 L 22.9451,-113.561
 L 23.355,-114.23 L 23.6553,-114.955 L 23.8384,-115.718 L 23.9,-116.5 L 23.8384,-117.282 L 23.6553,-118.045
 L 23.355,-118.77 L 22.9451,-119.439 L 22.4355,-120.036 L 21.8389,-120.545 L 21.1699,-120.955 L 20.4451,-121.255
 L 19.6822,-121.438 L 18.9,-121.5 L 18.1178,-121.438 L 17.3549,-121.255 L 16.6301,-120.955 L 15.9611,-120.545
 L 15.3645,-120.036 L 14.8549,-119.439 L 14.445,-118.77 L 14.1447,-118.045 L 13.9616,-117.282 L 13.9,-116.5
 L 13.9616,-115.718 L 14.1447,-114.955 L 14.445,-114.23 L 14.8549,-113.561 L 15.3645,-112.964 L 15.9611,-112.455
 L 16.6301,-112.045 L 17.3549,-111.745 L 18.1178,-111.562 L 18.9,-111.5 z
M 18.1804,-111.957 L 17.4785,-112.125 L 16.8116,-112.401 L 16.1962,-112.779 L 15.6473,-113.247 L 15.1785,-113.796
 L 14.8014,-114.412 L 14.5251,-115.079 L 14.3566,-115.78 L 14.3,-116.5 L 14.3566,-117.22 L 14.5251,-117.921
 L 14.8014,-118.588 L 15.1785,-119.204 L 15.6473,-119.753 L 16.1962,-120.221 L 16.8116,-120.599 L 17.4785,-120.875
 L 18.1804,-121.043 L 18.9,-121.1 L 19.6196,-121.043 L 20.3215,-120.875 L 20.9883,-120.599 L 21.6038,-120.221
 L 22.1527,-119.753 L 22.6215,-119.204 L 22.9986,-118.588 L 23.2748,-117.921 L 23.4434,-117.22 L 23.5,-116.5
 L 23.4434,-115.78 L 23.2748,-115.079 L 22.9986,-114.412 L 22.6215,-113.796 L 22.1527,-113.247 L 21.6038,-112.779
 L 20.9883,-112.401 L 20.3215,-112.125 L 19.6196,-111.957 L 18.9,-111.9 z
M 61.5981,-67.4594 L 61.7263,-67.4734 L 61.8488,-67.4968 L 61.9655,-67.5294 L 62.0766,-67.5715 L 62.182,-67.6228
 L 62.2806,-67.683 L 62.3712,-67.7514 L 62.454,-67.8281 L 62.5288,-67.9131 L 62.5958,-68.0064 L 62.6548,-68.1079
 L 62.7053,-68.2164 L 62.7466,-68.3305 L 62.7787,-68.4502 L 62.8016,-68.5755 L 62.8154,-68.7063 L 62.82,-68.8427
 L 62.81,-69.0472 L 62.7802,-69.2366 L 62.7305,-69.4109 L 62.6609,-69.5702 L 62.5714,-69.7143 L 62.4621,-69.8434
 L 62.335,-69.9548 L 62.1926,-70.0459 L 62.0346,-70.1168 L 61.8612,-70.1674 L 61.6724,-70.1978 L 61.4681,-70.2079
 L 61.2638,-70.1979 L 61.075,-70.1679 L 60.9018,-70.1178 L 60.744,-70.0476 L 60.6018,-69.9574 L 60.475,-69.8472
 L 60.366,-69.7191 L 60.2767,-69.5752 L 60.2073,-69.4157 L 60.1577,-69.2404 L 60.128,-69.0495 L 60.1181,-68.8427
 L 60.128,-68.6352 L 60.1578,-68.4429 L 60.2076,-68.2658 L 60.2771,-68.1039 L 60.3666,-67.9573 L 60.476,-67.826
 L 60.6029,-67.7126 L 60.7449,-67.6198 L 60.902,-67.5476 L 61.0743,-67.496 L 61.2617,-67.4651 L 61.4643,-67.4548
 z
M 61.3476,-67.9023 L 61.2395,-67.9234 L 61.1398,-67.9586 L 61.0487,-68.0079 L 60.966,-68.0713 L 60.8918,-68.1488
 L 60.8277,-68.2384 L 60.7753,-68.3385 L 60.7345,-68.449 L 60.7053,-68.5699 L 60.6878,-68.7011 L 60.682,-68.8427
 L 60.6877,-68.983 L 60.7048,-69.1125 L 60.7333,-69.2313 L 60.7731,-69.3394 L 60.8244,-69.4368 L 60.8871,-69.5234
 L 60.9602,-69.598 L 61.0428,-69.659 L 61.1348,-69.7064 L 61.2364,-69.7403 L 61.3475,-69.7607 L 61.4681,-69.7674
 L 61.5869,-69.7606 L 61.6966,-69.7401 L 61.797,-69.7059 L 61.8883,-69.6581 L 61.9705,-69.5967 L 62.0434,-69.5215
 L 62.1061,-69.4344 L 62.1573,-69.3368 L 62.1972,-69.2289 L 62.2257,-69.1106 L 62.2428,-68.9819 L 62.2485,-68.8427
 L 62.2428,-68.6973 L 62.2258,-68.5632 L 62.1974,-68.4407 L 62.1577,-68.3297 L 62.1067,-68.2301 L 62.0444,-68.1421
 L 61.9715,-68.0667 L 61.8892,-68.005 L 61.7973,-67.957 L 61.6958,-67.9227 L 61.5848,-67.9021 L 61.4643,-67.8953
 z
M 56.1213,-67.46 L 56.253,-67.4758 L 56.3781,-67.502 L 56.4964,-67.5387 L 56.608,-67.586 L 56.713,-67.6437
 L 56.8104,-67.7122 L 56.8998,-67.7917 L 56.9809,-67.8822 L 57.0539,-67.9838 L 57.1187,-68.0964 L 57.1753,-68.22
 L 56.6873,-68.4041 L 56.6129,-68.2487 L 56.5213,-68.1214 L 56.4125,-68.0225 L 56.2865,-67.9518 L 56.1433,-67.9094
 L 55.9829,-67.8953 L 55.8606,-67.902 L 55.7484,-67.9223 L 55.6461,-67.956 L 55.5538,-68.0033 L 55.4714,-68.0641
 L 55.399,-68.1383 L 55.3372,-68.2254 L 55.2867,-68.3246 L 55.2474,-68.4359 L 55.2193,-68.5594 L 55.2024,-68.695
 L 55.1968,-68.8427 L 55.2023,-68.9879 L 55.2186,-69.121 L 55.2459,-69.242 L 55.2841,-69.3508 L 55.3333,-69.4474
 L 55.3933,-69.532 L 55.4639,-69.6039 L 55.5447,-69.6628 L 55.6356,-69.7086 L 55.7368,-69.7413 L 55.8481,-69.7609
 L 55.9696,-69.7674 L 56.0507,-69.7641 L 56.1281,-69.7542 L 56.202,-69.7378 L 56.2721,-69.7147 L 56.3387,-69.685
 L 56.4016,-69.6488 L 56.4593,-69.6069 L 56.5103,-69.5605 L 56.5546,-69.5094 L 56.5923,-69.4538 L 56.6232,-69.3936
 L 56.6474,-69.3288 L 57.1411,-69.4636 L 57.0963,-69.5808 L 57.0417,-69.6882 L 56.9773,-69.7857 L 56.9031,-69.8733
 L 56.8191,-69.9511 L 56.7253,-70.019 L 56.6217,-70.0767 L 56.5084,-70.124 L 56.3854,-70.1607 L 56.2527,-70.187
 L 56.1103,-70.2027 L 55.9582,-70.2079 L 55.7515,-70.1981 L 55.5618,-70.1687 L 55.389,-70.1197 L 55.2333,-70.051
 L 55.0945,-69.9627 L 54.9727,-69.8548 L 54.8689,-69.7286 L 54.7839,-69.5854 L 54.7178,-69.4252 L 54.6706,-69.248
 L 54.6423,-69.0539 L 54.6329,-68.8427 L 54.6427,-68.6319 L 54.672,-68.4372 L 54.7209,-68.2587 L 54.7894,-68.0963
 L 54.8775,-67.9502 L 54.9851,-67.8203 L 55.1106,-67.7086 L 55.2525,-67.6172 L 55.4106,-67.5462 L 55.5851,-67.4954
 L 55.7758,-67.4649 L 55.9829,-67.4548 z
M 58.0362,-68.5086 L 58.6932,-68.5086 L 59.3141,-67.4928 L 59.9445,-67.4928 L 59.2211,-68.6168 L 59.3084,-68.6422
 L 59.3896,-68.6754 L 59.4646,-68.7162 L 59.5333,-68.7649 L 59.5958,-68.8213 L 59.6521,-68.8855 L 59.7008,-68.9556
 L 59.7407,-69.0301 L 59.7717,-69.1088 L 59.7939,-69.1918 L 59.8071,-69.2791 L 59.8116,-69.3706 L 59.8044,-69.4941
 L 59.7827,-69.6076 L 59.7465,-69.7112 L 59.696,-69.8048 L 59.6309,-69.8884 L 59.5514,-69.9621 L 59.4586,-70.025
 L 59.3537,-70.0765 L 59.2367,-70.1166 L 59.1075,-70.1452 L 58.9662,-70.1624 L 58.8128,-70.1681 L 57.4761,-70.1681
 L 57.4761,-67.4928 L 58.0362,-67.4928 z
M 58.0362,-68.9434 L 58.0362,-69.7333 L 58.754,-69.7333 L 58.9048,-69.7225 L 59.0282,-69.6904 L 59.1242,-69.6369
 L 59.1928,-69.562 L 59.2339,-69.4656 L 59.2476,-69.3478 L 59.2442,-69.2863 L 59.2341,-69.2295 L 59.2172,-69.1774
 L 59.1936,-69.1301 L 59.1632,-69.0875 L 59.1261,-69.0497 L 59.0824,-69.0172 L 59.0324,-68.9906 L 58.9761,-68.97
 L 58.9135,-68.9552 L 58.8445,-68.9463 L 58.7692,-68.9434 z
M 49.6545,-70.1681 L 49.0754,-70.1681 L 48.5267,-68.4497 L 48.4298,-68.1079 L 48.39,-67.9446 L 48.3613,-68.0526
 L 48.3347,-68.151 L 48.3102,-68.2399 L 48.2878,-68.3193 L 48.2676,-68.3893 L 48.2495,-68.4497 L 47.6988,-70.1681
 L 47.114,-70.1681 L 48.1033,-67.4928 L 48.671,-67.4928 z
M 52.0623,-67.9257 L 50.4408,-67.9257 L 50.4408,-68.6301 L 51.8686,-68.6301 L 51.8686,-69.063 L 50.4408,-69.063
 L 50.4408,-69.7352 L 51.9845,-69.7352 L 51.9845,-70.1681 L 49.8806,-70.1681 L 49.8806,-67.4928 L 52.0623,-67.4928
 z
M 54.4093,-67.9257 L 52.9738,-67.9257 L 52.9738,-70.1681 L 52.4137,-70.1681 L 52.4137,-67.4928 L 54.4093,-67.4928
 z
M 172.785,-67.0964 L 173.805,-67.0964 L 174.042,-66.4129 L 174.597,-66.4129 L 173.624,-69.0882 L 172.964,-69.0882
 L 171.988,-66.4129 L 172.548,-66.4129 z
M 172.91,-67.5179 L 173.003,-67.7872 L 173.08,-68.0129 L 173.142,-68.1948 L 173.189,-68.3331 L 173.221,-68.4277
 L 173.237,-68.4787 L 173.246,-68.5073 L 173.254,-68.5348 L 173.262,-68.5613 L 173.269,-68.5867 L 173.276,-68.6111
 L 173.283,-68.6344 L 173.294,-68.6762 L 173.334,-68.5451 L 173.416,-68.2869 L 173.679,-67.5179 z
M 178.675,-67.4781 L 179.347,-66.4129 L 179.936,-66.4129 L 179.045,-67.8198 L 179.858,-69.0882 L 179.269,-69.0882
 L 178.675,-68.1426 L 178.08,-69.0882 L 177.488,-69.0882 L 178.337,-67.8198 L 177.41,-66.4129 L 178.003,-66.4129
 z
M 176.189,-66.3827 L 176.358,-66.406 L 176.512,-66.4449 L 176.652,-66.4994 L 176.778,-66.5694 L 176.89,-66.655
 L 176.986,-66.7547 L 177.065,-66.8671 L 177.126,-66.9922 L 177.169,-67.1301 L 177.196,-67.2806 L 177.204,-67.4439
 L 177.204,-69.0882 L 176.644,-69.0882 L 176.644,-67.4781 L 176.64,-67.3752 L 176.626,-67.2807 L 176.604,-67.1944
 L 176.572,-67.1165 L 176.532,-67.0468 L 176.483,-66.9853 L 176.425,-66.9328 L 176.36,-66.8899 L 176.287,-66.8564
 L 176.206,-66.8326 L 176.118,-66.8183 L 176.021,-66.8135 L 175.928,-66.8181 L 175.842,-66.8317 L 175.764,-66.8546
 L 175.694,-66.8865 L 175.632,-66.9276 L 175.578,-66.9777 L 175.532,-67.0367 L 175.494,-67.1042 L 175.465,-67.1802
 L 175.444,-67.2647 L 175.431,-67.3576 L 175.427,-67.4591 L 175.427,-69.0882 L 174.867,-69.0882 L 174.867,-67.4154
 L 174.875,-67.2547 L 174.9,-67.107 L 174.94,-66.972 L 174.997,-66.85 L 175.071,-66.7408 L 175.16,-66.6445
 L 175.265,-66.5621 L 175.385,-66.4947 L 175.519,-66.4423 L 175.667,-66.4048 L 175.829,-66.3824 L 176.006,-66.3749
 z
M 138.109,-62.3605 L 138.274,-62.3779 L 138.424,-62.4068 L 138.559,-62.4472 L 138.679,-62.4991 L 138.784,-62.5627
 L 138.873,-62.6371 L 138.946,-62.7219 L 139.002,-62.8169 L 139.043,-62.9222 L 139.067,-63.0378 L 139.075,-63.1636
 L 139.074,-63.2182 L 139.07,-63.2707 L 139.062,-63.321 L 139.052,-63.3691 L 139.04,-63.4151 L 139.024,-63.4589
 L 139.006,-63.5006 L 138.985,-63.5403 L 138.961,-63.578 L 138.935,-63.6137 L 138.907,-63.6474 L 138.876,-63.6791
 L 138.842,-63.7092 L 138.804,-63.738 L 138.762,-63.7655 L 138.716,-63.7918 L 138.666,-63.8168 L 138.613,-63.8405
 L 138.551,-63.864 L 138.478,-63.8881 L 138.392,-63.9129 L 138.294,-63.9384 L 138.184,-63.9646 L 138.061,-63.9915
 L 137.959,-64.0142 L 137.869,-64.0357 L 137.791,-64.0558 L 137.725,-64.0746 L 137.672,-64.0921 L 137.63,-64.1082
 L 137.596,-64.1243 L 137.565,-64.1415 L 137.537,-64.1597 L 137.512,-64.1791 L 137.489,-64.1996 L 137.47,-64.2212
 L 137.453,-64.2444 L 137.44,-64.2697 L 137.429,-64.2972 L 137.422,-64.3267 L 137.417,-64.3584 L 137.416,-64.3921
 L 137.43,-64.4896 L 137.472,-64.5693 L 137.543,-64.6313 L 137.642,-64.6757 L 137.769,-64.7022 L 137.925,-64.7111
 L 138.001,-64.7087 L 138.072,-64.7014 L 138.136,-64.6893 L 138.194,-64.6723 L 138.246,-64.6504 L 138.292,-64.6237
 L 138.332,-64.5923 L 138.368,-64.556 L 138.399,-64.515 L 138.424,-64.4693 L 138.446,-64.4188 L 138.462,-64.3636
 L 139.005,-64.4377 L 138.976,-64.5517 L 138.937,-64.6543 L 138.888,-64.7458 L 138.83,-64.8259 L 138.761,-64.8947
 L 138.683,-64.9522 L 138.593,-64.9998 L 138.489,-65.0387 L 138.372,-65.069 L 138.24,-65.0906 L 138.095,-65.1036
 L 137.936,-65.1079 L 137.769,-65.1026 L 137.617,-65.0865 L 137.478,-65.0598 L 137.352,-65.0223 L 137.241,-64.9741
 L 137.143,-64.9152 L 137.06,-64.8463 L 136.992,-64.7679 L 136.939,-64.68 L 136.901,-64.5827 L 136.878,-64.476
 L 136.871,-64.3598 L 136.872,-64.3133 L 136.875,-64.2685 L 136.88,-64.2255 L 136.887,-64.1843 L 136.897,-64.1449
 L 136.908,-64.1073 L 136.921,-64.0714 L 136.936,-64.037 L 136.952,-64.0043 L 136.97,-63.9731 L 136.99,-63.9435
 L 137.011,-63.9155 L 137.034,-63.889 L 137.059,-63.8637 L 137.085,-63.8398 L 137.113,-63.8172 L 137.142,-63.7959
 L 137.173,-63.776 L 137.205,-63.7571 L 137.239,-63.739 L 137.273,-63.7218 L 137.309,-63.7055 L 137.347,-63.69
 L 137.385,-63.6753 L 137.43,-63.6603 L 137.484,-63.6438 L 137.549,-63.6257 L 137.623,-63.6062 L 137.708,-63.585
 L 137.803,-63.5624 L 137.913,-63.5395 L 138.01,-63.5179 L 138.094,-63.4973 L 138.166,-63.478 L 138.226,-63.4598
 L 138.273,-63.4427 L 138.312,-63.4256 L 138.349,-63.4071 L 138.382,-63.3872 L 138.412,-63.366 L 138.439,-63.3433
 L 138.463,-63.3193 L 138.483,-63.2935 L 138.5,-63.2655 L 138.513,-63.2353 L 138.523,-63.2029 L 138.528,-63.1682
 L 138.53,-63.1313 L 138.514,-63.0223 L 138.465,-62.933 L 138.384,-62.8636 L 138.27,-62.814 L 138.123,-62.7843
 L 137.944,-62.7744 L 137.853,-62.777 L 137.769,-62.785 L 137.692,-62.7983 L 137.621,-62.817 L 137.558,-62.841
 L 137.501,-62.8703 L 137.451,-62.9055 L 137.406,-62.9472 L 137.368,-62.9953 L 137.335,-63.05 L 137.308,-63.1112
 L 137.287,-63.1788 L 136.745,-63.0896 L 136.779,-62.9714 L 136.824,-62.8636 L 136.881,-62.7663 L 136.95,-62.6795
 L 137.03,-62.603 L 137.121,-62.537 L 137.225,-62.4814 L 137.341,-62.4358 L 137.469,-62.4003 L 137.61,-62.375
 L 137.763,-62.3598 L 137.928,-62.3548 z
M 140.921,-62.3983 L 141.066,-62.4149 L 141.198,-62.4426 L 141.319,-62.4813 L 141.428,-62.5312 L 141.525,-62.5921
 L 141.608,-62.6631 L 141.677,-62.7434 L 141.73,-62.8328 L 141.768,-62.9314 L 141.791,-63.0391 L 141.798,-63.1561
 L 141.793,-63.2442 L 141.779,-63.3264 L 141.756,-63.4026 L 141.723,-63.4729 L 141.68,-63.5372 L 141.628,-63.5956
 L 141.567,-63.6474 L 141.498,-63.6921 L 141.42,-63.7297 L 141.333,-63.7601 L 141.238,-63.7835 L 141.134,-63.7997
 L 141.216,-63.8209 L 141.291,-63.8477 L 141.359,-63.8802 L 141.419,-63.9183 L 141.472,-63.962 L 141.518,-64.0114
 L 141.557,-64.0656 L 141.588,-64.1237 L 141.613,-64.1859 L 141.63,-64.2519 L 141.641,-64.3219 L 141.644,-64.3959
 L 141.637,-64.5022 L 141.616,-64.5994 L 141.581,-64.6876 L 141.533,-64.7668 L 141.47,-64.837 L 141.393,-64.8981
 L 141.302,-64.95 L 141.199,-64.9925 L 141.082,-65.0256 L 140.951,-65.0492 L 140.808,-65.0634 L 140.651,-65.0681
 L 139.427,-65.0681 L 139.427,-62.3927 L 140.765,-62.3927 z
M 139.987,-63.9896 L 139.987,-64.6522 L 140.625,-64.6522 L 140.697,-64.6501 L 140.763,-64.6438 L 140.823,-64.6333
 L 140.877,-64.6185 L 140.924,-64.5995 L 140.966,-64.5763 L 141.001,-64.5481 L 141.029,-64.5141 L 141.052,-64.4742
 L 141.068,-64.4286 L 141.077,-64.3772 L 141.08,-64.32 L 141.077,-64.2672 L 141.069,-64.219 L 141.054,-64.1754
 L 141.033,-64.1364 L 141.006,-64.102 L 140.973,-64.0722 L 140.934,-64.0469 L 140.887,-64.0263 L 140.833,-64.0102
 L 140.772,-63.9987 L 140.704,-63.9919 L 140.629,-63.9896 z
M 139.987,-62.8086 L 139.987,-63.5757 L 140.697,-63.5757 L 140.862,-63.5652 L 140.997,-63.5339 L 141.101,-63.4817
 L 141.176,-63.4086 L 141.221,-63.3146 L 141.236,-63.1997 L 141.233,-63.1372 L 141.222,-63.0802 L 141.205,-63.0286
 L 141.181,-62.9824 L 141.15,-62.9417 L 141.112,-62.9063 L 141.066,-62.8765 L 141.013,-62.852 L 140.951,-62.833
 L 140.881,-62.8194 L 140.804,-62.8113 L 140.718,-62.8086 z
M 135.446,-62.3625 L 135.615,-62.3859 L 135.769,-62.4248 L 135.91,-62.4792 L 136.036,-62.5493 L 136.148,-62.6348
 L 136.244,-62.7345 L 136.322,-62.847 L 136.383,-62.9721 L 136.427,-63.1099 L 136.453,-63.2605 L 136.462,-63.4238
 L 136.462,-65.0681 L 135.902,-65.0681 L 135.902,-63.4579 L 135.897,-63.3551 L 135.884,-63.2606 L 135.861,-63.1743
 L 135.83,-63.0963 L 135.79,-63.0266 L 135.74,-62.9652 L 135.683,-62.9127 L 135.617,-62.8697 L 135.544,-62.8363
 L 135.463,-62.8125 L 135.375,-62.7981 L 135.279,-62.7934 L 135.185,-62.7979 L 135.1,-62.8116 L 135.022,-62.8344
 L 134.952,-62.8664 L 134.89,-62.9074 L 134.835,-62.9576 L 134.789,-63.0166 L 134.752,-63.0841 L 134.722,-63.1601
 L 134.701,-63.2445 L 134.689,-63.3375 L 134.685,-63.439 L 134.685,-65.0681 L 134.124,-65.0681 L 134.124,-63.3953
 L 134.133,-63.2346 L 134.157,-63.0868 L 134.198,-62.9519 L 134.255,-62.8299 L 134.328,-62.7207 L 134.418,-62.6244
 L 134.523,-62.542 L 134.642,-62.4746 L 134.776,-62.4222 L 134.924,-62.3847 L 135.087,-62.3623 L 135.264,-62.3548
 z
M 176.604,-54.2554 L 177.291,-54.4202 L 177.943,-54.6905 L 178.545,-55.0594 L 179.082,-55.518 L 179.541,-56.055
 L 179.91,-56.657 L 180.18,-57.3094 L 180.345,-57.996 L 180.4,-58.7 L 180.345,-59.4039 L 180.18,-60.0905
 L 179.91,-60.7429 L 179.541,-61.345 L 179.082,-61.882 L 178.545,-62.3405 L 177.943,-62.7095 L 177.291,-62.9797
 L 176.604,-63.1446 L 175.9,-63.2 L 175.196,-63.1446 L 174.509,-62.9797 L 173.857,-62.7095 L 173.255,-62.3405
 L 172.718,-61.882 L 172.259,-61.345 L 171.89,-60.7429 L 171.62,-60.0905 L 171.455,-59.4039 L 171.4,-58.7
 L 171.455,-57.996 L 171.62,-57.3094 L 171.89,-56.657 L 172.259,-56.055 L 172.718,-55.518 L 173.255,-55.0594
 L 173.857,-54.6905 L 174.509,-54.4202 L 175.196,-54.2554 L 175.9,-54.2 z
M 175.259,-54.6505 L 174.633,-54.8007 L 174.039,-55.0469 L 173.49,-55.383 L 173.001,-55.8009 L 172.583,-56.2901
 L 172.247,-56.8386 L 172.001,-57.433 L 171.85,-58.0586 L 171.8,-58.7 L 171.85,-59.3414 L 172.001,-59.9669
 L 172.247,-60.5613 L 172.583,-61.1099 L 173.001,-61.5991 L 173.49,-62.0169 L 174.039,-62.3531 L 174.633,-62.5993
 L 175.259,-62.7495 L 175.9,-62.8 L 176.541,-62.7495 L 177.167,-62.5993 L 177.761,-62.3531 L 178.31,-62.0169
 L 178.799,-61.5991 L 179.217,-61.1099 L 179.553,-60.5613 L 179.799,-59.9669 L 179.95,-59.3414 L 180,-58.7
 L 179.95,-58.0586 L 179.799,-57.433 L 179.553,-56.8386 L 179.217,-56.2901 L 178.799,-55.8009 L 178.31,-55.383
 L 177.761,-55.0469 L 177.167,-54.8007 L 176.541,-54.6505 L 175.9,-54.6 z
M 142.9,-58.4 L 132.9,-58.4 L 132.9,-54.4 L 142.9,-54.4 z
M 133.3,-54.8 L 133.3,-58 L 142.5,-58 L 142.5,-54.8 z
M 96,-35.9 L 14,-35.9 L 14,-3.89999 L 96,-3.89999 z
M 14.4,-4.3 L 14.4,-35.5 L 95.6,-35.5 L 95.6,-4.3 z
M 88.63,-27.9 L 66.49,-27.9 L 66.49,-11.9 L 88.63,-11.9 z
M 66.89,-12.3 L 66.89,-27.5 L 88.23,-27.5 L 88.23,-12.3 z
M 65.49,-27.6 L 21.37,-27.6 L 21.37,-12.2 L 65.49,-12.2 z
M 21.77,-12.6 L 21.77,-27.2 L 65.09,-27.2 L 65.09,-12.6 z
M 92.75,-19.65 L 94.5,-19.65 L 94.5,-20.15 L 92.75,-20.15 L 92.75,-21.9 L 92.25,-21.9
 L 92.25,-20.15 L 90.5,-20.15 L 90.5,-19.65 L 92.25,-19.65 L 92.25,-17.9 L 92.75,-17.9
 z
M 17.75,-19.65 L 19.5,-19.65 L 19.5,-20.15 L 17.75,-20.15 L 17.75,-21.9 L 17.25,-21.9
 L 17.25,-20.15 L 15.5,-20.15 L 15.5,-19.65 L 17.25,-19.65 L 17.25,-17.9 L 17.75,-17.9
 z
M 173.943,-24.5692 L 174.094,-24.6007 L 174.233,-24.6533 L 174.358,-24.7269 L 174.471,-24.8215 L 174.57,-24.9371
 L 174.655,-25.0739 L 174.725,-25.2321 L 174.779,-25.4116 L 174.818,-25.6125 L 174.841,-25.8348 L 174.849,-26.0784
 L 174.842,-26.3071 L 174.821,-26.5159 L 174.786,-26.7047 L 174.737,-26.8736 L 174.674,-27.0225 L 174.598,-27.1515
 L 174.506,-27.2606 L 174.401,-27.3499 L 174.28,-27.4193 L 174.145,-27.4689 L 173.996,-27.4986 L 173.832,-27.5085
 L 173.678,-27.5015 L 173.537,-27.4803 L 173.408,-27.4449 L 173.29,-27.3955 L 173.185,-27.3319 L 173.092,-27.2542
 L 173.012,-27.164 L 172.947,-27.0628 L 172.896,-26.9506 L 172.86,-26.8275 L 172.838,-26.6934 L 172.831,-26.5483
 L 172.837,-26.4069 L 172.855,-26.2756 L 172.886,-26.1544 L 172.93,-26.0433 L 172.985,-25.9424 L 173.053,-25.8515
 L 173.132,-25.7729 L 173.219,-25.7086 L 173.315,-25.6585 L 173.42,-25.6228 L 173.533,-25.6013 L 173.655,-25.5942
 L 173.722,-25.5966 L 173.787,-25.6038 L 173.851,-25.6158 L 173.914,-25.6326 L 173.975,-25.6542 L 174.034,-25.6806
 L 174.09,-25.7113 L 174.14,-25.7456 L 174.185,-25.7836 L 174.225,-25.8253 L 174.259,-25.8707 L 174.287,-25.9197
 L 174.282,-25.7753 L 174.271,-25.6432 L 174.252,-25.5235 L 174.226,-25.4161 L 174.194,-25.321 L 174.154,-25.2382
 L 174.108,-25.1679 L 174.056,-25.1105 L 173.997,-25.0658 L 173.933,-25.0338 L 173.862,-25.0147 L 173.785,-25.0083
 L 173.695,-25.0166 L 173.617,-25.0415 L 173.55,-25.0831 L 173.495,-25.1412 L 173.451,-25.216 L 173.419,-25.3074
 L 172.882,-25.2321 L 172.915,-25.1207 L 172.955,-25.0197 L 173.002,-24.9292 L 173.057,-24.8492 L 173.118,-24.7796
 L 173.186,-24.7204 L 173.262,-24.671 L 173.347,-24.6306 L 173.441,-24.5991 L 173.545,-24.5767 L 173.657,-24.5632
 L 173.779,-24.5587 z
M 173.757,-26.0233 L 173.7,-26.0353 L 173.647,-26.0552 L 173.6,-26.0831 L 173.557,-26.119 L 173.518,-26.1628
 L 173.485,-26.2132 L 173.458,-26.2689 L 173.437,-26.3299 L 173.422,-26.3961 L 173.413,-26.4675 L 173.41,-26.5442
 L 173.413,-26.622 L 173.423,-26.694 L 173.438,-26.7601 L 173.459,-26.8204 L 173.486,-26.8749 L 173.519,-26.9236
 L 173.558,-26.9656 L 173.601,-26.9999 L 173.648,-27.0266 L 173.7,-27.0457 L 173.757,-27.0571 L 173.817,-27.061
 L 173.88,-27.0566 L 173.938,-27.0434 L 173.992,-27.0215 L 174.041,-26.9909 L 174.086,-26.9515 L 174.128,-26.9033
 L 174.163,-26.8477 L 174.193,-26.7861 L 174.215,-26.7184 L 174.232,-26.6447 L 174.241,-26.5649 L 174.245,-26.4791
 L 174.241,-26.4116 L 174.231,-26.3488 L 174.214,-26.2907 L 174.191,-26.2373 L 174.161,-26.1885 L 174.124,-26.1445
 L 174.081,-26.1062 L 174.036,-26.075 L 173.987,-26.0506 L 173.935,-26.0333 L 173.879,-26.0228 L 173.819,-26.0194
 z
M 145.105,-24.5692 L 145.256,-24.6007 L 145.395,-24.6533 L 145.52,-24.7269 L 145.632,-24.8215 L 145.732,-24.9371
 L 145.817,-25.0739 L 145.887,-25.2321 L 145.941,-25.4116 L 145.98,-25.6125 L 146.003,-25.8348 L 146.011,-26.0784
 L 146.004,-26.3071 L 145.983,-26.5159 L 145.948,-26.7047 L 145.899,-26.8736 L 145.836,-27.0225 L 145.759,-27.1515
 L 145.668,-27.2606 L 145.563,-27.3499 L 145.442,-27.4193 L 145.307,-27.4689 L 145.158,-27.4986 L 144.993,-27.5085
 L 144.84,-27.5015 L 144.699,-27.4803 L 144.569,-27.4449 L 144.452,-27.3955 L 144.347,-27.3319 L 144.254,-27.2542
 L 144.174,-27.164 L 144.109,-27.0628 L 144.058,-26.9506 L 144.021,-26.8275 L 144,-26.6934 L 143.992,-26.5483
 L 143.999,-26.4069 L 144.017,-26.2756 L 144.048,-26.1544 L 144.091,-26.0433 L 144.147,-25.9424 L 144.215,-25.8515
 L 144.294,-25.7729 L 144.381,-25.7086 L 144.477,-25.6585 L 144.581,-25.6228 L 144.695,-25.6013 L 144.816,-25.5942
 L 144.883,-25.5966 L 144.949,-25.6038 L 145.013,-25.6158 L 145.075,-25.6326 L 145.136,-25.6542 L 145.196,-25.6806
 L 145.252,-25.7113 L 145.302,-25.7456 L 145.347,-25.7836 L 145.387,-25.8253 L 145.421,-25.8707 L 145.449,-25.9197
 L 145.444,-25.7753 L 145.432,-25.6432 L 145.414,-25.5235 L 145.388,-25.4161 L 145.355,-25.321 L 145.316,-25.2382
 L 145.27,-25.1679 L 145.217,-25.1105 L 145.159,-25.0658 L 145.094,-25.0338 L 145.024,-25.0147 L 144.947,-25.0083
 L 144.857,-25.0166 L 144.778,-25.0415 L 144.712,-25.0831 L 144.656,-25.1412 L 144.613,-25.216 L 144.58,-25.3074
 L 144.043,-25.2321 L 144.077,-25.1207 L 144.117,-25.0197 L 144.164,-24.9292 L 144.218,-24.8492 L 144.279,-24.7796
 L 144.347,-24.7204 L 144.424,-24.671 L 144.509,-24.6306 L 144.603,-24.5991 L 144.706,-24.5767 L 144.819,-24.5632
 L 144.94,-24.5587 z
M 144.919,-26.0233 L 144.862,-26.0353 L 144.809,-26.0552 L 144.761,-26.0831 L 144.718,-26.119 L 144.68,-26.1628
 L 144.647,-26.2132 L 144.62,-26.2689 L 144.599,-26.3299 L 144.584,-26.3961 L 144.575,-26.4675 L 144.572,-26.5442
 L 144.575,-26.622 L 144.584,-26.694 L 144.599,-26.7601 L 144.621,-26.8204 L 144.648,-26.8749 L 144.681,-26.9236
 L 144.72,-26.9656 L 144.763,-26.9999 L 144.81,-27.0266 L 144.862,-27.0457 L 144.918,-27.0571 L 144.979,-27.061
 L 145.041,-27.0566 L 145.099,-27.0434 L 145.153,-27.0215 L 145.203,-26.9909 L 145.248,-26.9515 L 145.289,-26.9033
 L 145.325,-26.8477 L 145.354,-26.7861 L 145.377,-26.7184 L 145.393,-26.6447 L 145.403,-26.5649 L 145.406,-26.4791
 L 145.403,-26.4116 L 145.393,-26.3488 L 145.376,-26.2907 L 145.353,-26.2373 L 145.322,-26.1885 L 145.285,-26.1445
 L 145.243,-26.1062 L 145.198,-26.075 L 145.149,-26.0506 L 145.096,-26.0333 L 145.04,-26.0228 L 144.981,-26.0194
 z
M 187.868,-25.7407 L 188.588,-24.5994 L 189.219,-24.5994 L 188.265,-26.1068 L 189.136,-27.4658 L 188.505,-27.4658
 L 187.868,-26.4527 L 187.232,-27.4658 L 186.597,-27.4658 L 187.506,-26.1068 L 186.513,-24.5994 L 187.148,-24.5994
 z
M 181.721,-24.6042 L 181.851,-24.6188 L 181.975,-24.6431 L 182.094,-24.6771 L 182.208,-24.7209 L 182.316,-24.7743
 L 182.418,-24.837 L 182.513,-24.9083 L 182.599,-24.9882 L 182.677,-25.0768 L 182.747,-25.174 L 182.809,-25.2799
 L 182.862,-25.3932 L 182.905,-25.5128 L 182.939,-25.6387 L 182.963,-25.7708 L 182.978,-25.9093 L 182.983,-26.0539
 L 182.972,-26.2723 L 182.939,-26.4731 L 182.883,-26.6564 L 182.806,-26.822 L 182.707,-26.9701 L 182.586,-27.1006
 L 182.445,-27.2122 L 182.285,-27.3035 L 182.107,-27.3745 L 181.911,-27.4252 L 181.697,-27.4557 L 181.465,-27.4658
 L 180.427,-27.4658 L 180.427,-24.5994 L 181.587,-24.5994 z
M 181.028,-25.0632 L 181.028,-27.002 L 181.453,-27.002 L 181.596,-26.9952 L 181.727,-26.975 L 181.847,-26.9412
 L 181.955,-26.8939 L 182.053,-26.8331 L 182.138,-26.7589 L 182.212,-26.6717 L 182.272,-26.5725 L 182.318,-26.4611
 L 182.352,-26.3375 L 182.372,-26.2018 L 182.378,-26.0539 L 182.372,-25.9067 L 182.353,-25.7701 L 182.321,-25.644
 L 182.277,-25.5286 L 182.22,-25.4239 L 182.151,-25.3297 L 182.07,-25.2483 L 181.981,-25.1817 L 181.883,-25.1298
 L 181.776,-25.0928 L 181.661,-25.0706 L 181.536,-25.0632 z
M 177.96,-24.6053 L 178.115,-24.6231 L 178.256,-24.6528 L 178.386,-24.6943 L 178.502,-24.7477 L 178.606,-24.813
 L 178.696,-24.8891 L 178.769,-24.9751 L 178.826,-25.0709 L 178.867,-25.1765 L 178.891,-25.2919 L 178.899,-25.4172
 L 178.894,-25.5117 L 178.879,-25.5997 L 178.854,-25.6814 L 178.818,-25.7567 L 178.773,-25.8256 L 178.717,-25.8882
 L 178.652,-25.9437 L 178.577,-25.9916 L 178.494,-26.0318 L 178.401,-26.0645 L 178.299,-26.0895 L 178.187,-26.1068
 L 178.276,-26.1295 L 178.356,-26.1583 L 178.429,-26.1931 L 178.493,-26.2339 L 178.55,-26.2807 L 178.599,-26.3337
 L 178.641,-26.3917 L 178.674,-26.454 L 178.701,-26.5206 L 178.72,-26.5914 L 178.731,-26.6664 L 178.735,-26.7456
 L 178.727,-26.8595 L 178.705,-26.9636 L 178.667,-27.0582 L 178.615,-27.143 L 178.547,-27.2182 L 178.465,-27.2837
 L 178.368,-27.3394 L 178.257,-27.3849 L 178.132,-27.4203 L 177.992,-27.4456 L 177.838,-27.4608 L 177.671,-27.4658
 L 176.358,-27.4658 L 176.358,-24.5994 L 177.793,-24.5994 z
M 176.959,-26.3103 L 176.959,-27.0203 L 177.642,-27.0203 L 177.72,-27.018 L 177.79,-27.0112 L 177.854,-26.9999
 L 177.912,-26.9841 L 177.963,-26.9638 L 178.007,-26.9389 L 178.045,-26.9087 L 178.076,-26.8722 L 178.1,-26.8296
 L 178.117,-26.7807 L 178.127,-26.7256 L 178.13,-26.6643 L 178.127,-26.6077 L 178.118,-26.5561 L 178.102,-26.5094
 L 178.079,-26.4676 L 178.051,-26.4307 L 178.015,-26.3988 L 177.973,-26.3717 L 177.923,-26.3496 L 177.866,-26.3324
 L 177.8,-26.3201 L 177.727,-26.3127 L 177.646,-26.3103 z
M 176.959,-25.0449 L 176.959,-25.8668 L 177.719,-25.8668 L 177.896,-25.8556 L 178.04,-25.822 L 178.153,-25.7661
 L 178.233,-25.6878 L 178.281,-25.5871 L 178.297,-25.464 L 178.293,-25.397 L 178.282,-25.3359 L 178.264,-25.2806
 L 178.238,-25.2312 L 178.205,-25.1875 L 178.164,-25.1497 L 178.115,-25.1177 L 178.058,-25.0915 L 177.992,-25.0711
 L 177.917,-25.0565 L 177.834,-25.0478 L 177.742,-25.0449 z
M 168.382,-24.6042 L 168.511,-24.6188 L 168.635,-24.6431 L 168.754,-24.6771 L 168.868,-24.7209 L 168.977,-24.7743
 L 169.079,-24.837 L 169.173,-24.9083 L 169.259,-24.9882 L 169.337,-25.0768 L 169.407,-25.174 L 169.469,-25.2799
 L 169.522,-25.3932 L 169.566,-25.5128 L 169.6,-25.6387 L 169.624,-25.7708 L 169.638,-25.9093 L 169.643,-26.0539
 L 169.632,-26.2723 L 169.599,-26.4731 L 169.544,-26.6564 L 169.467,-26.822 L 169.368,-26.9701 L 169.246,-27.1006
 L 169.105,-27.2122 L 168.946,-27.3035 L 168.768,-27.3745 L 168.572,-27.4252 L 168.358,-27.4557 L 168.125,-27.4658
 L 167.088,-27.4658 L 167.088,-24.5994 L 168.248,-24.5994 z
M 167.688,-25.0632 L 167.688,-27.002 L 168.113,-27.002 L 168.256,-26.9952 L 168.387,-26.975 L 168.507,-26.9412
 L 168.616,-26.8939 L 168.713,-26.8331 L 168.799,-26.7589 L 168.872,-26.6717 L 168.932,-26.5725 L 168.979,-26.4611
 L 169.012,-26.3375 L 169.032,-26.2018 L 169.039,-26.0539 L 169.033,-25.9067 L 169.014,-25.7701 L 168.982,-25.644
 L 168.938,-25.5286 L 168.881,-25.4239 L 168.811,-25.3297 L 168.731,-25.2483 L 168.642,-25.1817 L 168.544,-25.1298
 L 168.437,-25.0928 L 168.321,-25.0706 L 168.197,-25.0632 z
M 183.899,-26.3367 L 183.898,-26.3965 L 183.896,-26.4739 L 183.893,-26.5692 L 183.888,-26.6821 L 183.882,-26.8128
 L 183.875,-26.9613 L 184.092,-26.1984 L 184.609,-24.5994 L 185.036,-24.5994 L 185.553,-26.1984 L 185.578,-26.2795
 L 185.607,-26.379 L 185.641,-26.4969 L 185.679,-26.6333 L 185.72,-26.7881 L 185.767,-26.9613 L 185.761,-26.8229
 L 185.756,-26.7061 L 185.753,-26.6109 L 185.75,-26.5372 L 185.748,-26.4852 L 185.747,-26.4547 L 185.747,-26.435
 L 185.747,-26.4154 L 185.746,-26.3957 L 185.746,-26.3761 L 185.746,-26.3564 L 185.746,-24.5994 L 186.279,-24.5994
 L 186.279,-27.4658 L 185.48,-27.4658 L 184.953,-25.7834 L 184.825,-25.3236 L 184.727,-25.7081 L 184.682,-25.8627
 L 184.17,-27.4658 L 183.366,-27.4658 L 183.366,-24.5994 L 183.899,-24.5994 z
M 148.049,-25.3318 L 149.141,-25.3318 L 149.395,-24.5994 L 149.989,-24.5994 L 148.948,-27.4658 L 148.24,-27.4658
 L 147.194,-24.5994 L 147.794,-24.5994 z
M 148.183,-25.7834 L 148.282,-26.0719 L 148.365,-26.3137 L 148.431,-26.5086 L 148.481,-26.6568 L 148.515,-26.7582
 L 148.533,-26.8128 L 148.542,-26.8434 L 148.551,-26.8729 L 148.559,-26.9013 L 148.567,-26.9285 L 148.575,-26.9546
 L 148.582,-26.9796 L 148.594,-27.0244 L 148.637,-26.884 L 148.724,-26.6073 L 149.007,-25.7834 z
M 142.79,-24.6053 L 142.944,-24.6231 L 143.086,-24.6528 L 143.216,-24.6943 L 143.332,-24.7477 L 143.436,-24.813
 L 143.526,-24.8891 L 143.599,-24.9751 L 143.656,-25.0709 L 143.697,-25.1765 L 143.721,-25.2919 L 143.729,-25.4172
 L 143.724,-25.5117 L 143.709,-25.5997 L 143.684,-25.6814 L 143.648,-25.7567 L 143.603,-25.8256 L 143.547,-25.8882
 L 143.482,-25.9437 L 143.407,-25.9916 L 143.324,-26.0318 L 143.231,-26.0645 L 143.128,-26.0895 L 143.017,-26.1068
 L 143.105,-26.1295 L 143.186,-26.1583 L 143.258,-26.1931 L 143.323,-26.2339 L 143.38,-26.2807 L 143.429,-26.3337
 L 143.47,-26.3917 L 143.504,-26.454 L 143.531,-26.5206 L 143.549,-26.5914 L 143.561,-26.6664 L 143.564,-26.7456
 L 143.557,-26.8595 L 143.534,-26.9636 L 143.497,-27.0582 L 143.445,-27.143 L 143.377,-27.2182 L 143.295,-27.2837
 L 143.198,-27.3394 L 143.087,-27.3849 L 142.961,-27.4203 L 142.822,-27.4456 L 142.668,-27.4608 L 142.5,-27.4658
 L 141.188,-27.4658 L 141.188,-24.5994 L 142.622,-24.5994 z
M 141.788,-26.3103 L 141.788,-27.0203 L 142.472,-27.0203 L 142.549,-27.018 L 142.62,-27.0112 L 142.684,-26.9999
 L 142.742,-26.9841 L 142.793,-26.9638 L 142.837,-26.9389 L 142.875,-26.9087 L 142.905,-26.8722 L 142.929,-26.8296
 L 142.946,-26.7807 L 142.957,-26.7256 L 142.96,-26.6643 L 142.957,-26.6077 L 142.947,-26.5561 L 142.931,-26.5094
 L 142.909,-26.4676 L 142.88,-26.4307 L 142.845,-26.3988 L 142.803,-26.3717 L 142.753,-26.3496 L 142.695,-26.3324
 L 142.63,-26.3201 L 142.557,-26.3127 L 142.476,-26.3103 z
M 141.788,-25.0449 L 141.788,-25.8668 L 142.549,-25.8668 L 142.726,-25.8556 L 142.87,-25.822 L 142.983,-25.7661
 L 143.063,-25.6878 L 143.111,-25.5871 L 143.127,-25.464 L 143.123,-25.397 L 143.112,-25.3359 L 143.094,-25.2806
 L 143.068,-25.2312 L 143.034,-25.1875 L 142.994,-25.1497 L 142.945,-25.1177 L 142.888,-25.0915 L 142.822,-25.0711
 L 142.747,-25.0565 L 142.664,-25.0478 L 142.572,-25.0449 z
M 171.628,-24.6053 L 171.783,-24.6231 L 171.925,-24.6528 L 172.054,-24.6943 L 172.17,-24.7477 L 172.274,-24.813
 L 172.364,-24.8891 L 172.437,-24.9751 L 172.494,-25.0709 L 172.535,-25.1765 L 172.559,-25.2919 L 172.567,-25.4172
 L 172.562,-25.5117 L 172.547,-25.5997 L 172.522,-25.6814 L 172.486,-25.7567 L 172.441,-25.8256 L 172.385,-25.8882
 L 172.32,-25.9437 L 172.245,-25.9916 L 172.162,-26.0318 L 172.069,-26.0645 L 171.967,-26.0895 L 171.855,-26.1068
 L 171.944,-26.1295 L 172.024,-26.1583 L 172.097,-26.1931 L 172.161,-26.2339 L 172.218,-26.2807 L 172.267,-26.3337
 L 172.309,-26.3917 L 172.342,-26.454 L 172.369,-26.5206 L 172.388,-26.5914 L 172.399,-26.6664 L 172.403,-26.7456
 L 172.395,-26.8595 L 172.373,-26.9636 L 172.335,-27.0582 L 172.283,-27.143 L 172.215,-27.2182 L 172.133,-27.2837
 L 172.036,-27.3394 L 171.925,-27.3849 L 171.8,-27.4203 L 171.66,-27.4456 L 171.506,-27.4608 L 171.339,-27.4658
 L 170.026,-27.4658 L 170.026,-24.5994 L 171.461,-24.5994 z
M 170.627,-26.3103 L 170.627,-27.0203 L 171.31,-27.0203 L 171.388,-27.018 L 171.458,-27.0112 L 171.522,-26.9999
 L 171.58,-26.9841 L 171.631,-26.9638 L 171.675,-26.9389 L 171.713,-26.9087 L 171.744,-26.8722 L 171.768,-26.8296
 L 171.785,-26.7807 L 171.795,-26.7256 L 171.798,-26.6643 L 171.795,-26.6077 L 171.786,-26.5561 L 171.77,-26.5094
 L 171.747,-26.4676 L 171.719,-26.4307 L 171.683,-26.3988 L 171.641,-26.3717 L 171.591,-26.3496 L 171.534,-26.3324
 L 171.468,-26.3201 L 171.395,-26.3127 L 171.314,-26.3103 z
M 170.627,-25.0449 L 170.627,-25.8668 L 171.387,-25.8668 L 171.564,-25.8556 L 171.708,-25.822 L 171.821,-25.7661
 L 171.901,-25.6878 L 171.949,-25.5871 L 171.965,-25.464 L 171.962,-25.397 L 171.95,-25.3359 L 171.932,-25.2806
 L 171.906,-25.2312 L 171.873,-25.1875 L 171.832,-25.1497 L 171.783,-25.1177 L 171.726,-25.0915 L 171.66,-25.0711
 L 171.585,-25.0565 L 171.502,-25.0478 L 171.41,-25.0449 z
M 139.544,-24.6042 L 139.673,-24.6188 L 139.797,-24.6431 L 139.916,-24.6771 L 140.03,-24.7209 L 140.139,-24.7743
 L 140.241,-24.837 L 140.335,-24.9083 L 140.421,-24.9882 L 140.499,-25.0768 L 140.569,-25.174 L 140.631,-25.2799
 L 140.684,-25.3932 L 140.728,-25.5128 L 140.761,-25.6387 L 140.786,-25.7708 L 140.8,-25.9093 L 140.805,-26.0539
 L 140.794,-26.2723 L 140.761,-26.4731 L 140.706,-26.6564 L 140.629,-26.822 L 140.529,-26.9701 L 140.408,-27.1006
 L 140.267,-27.2122 L 140.107,-27.3035 L 139.93,-27.3745 L 139.734,-27.4252 L 139.52,-27.4557 L 139.287,-27.4658
 L 138.25,-27.4658 L 138.25,-24.5994 L 139.409,-24.5994 z
M 138.85,-25.0632 L 138.85,-27.002 L 139.275,-27.002 L 139.418,-26.9952 L 139.549,-26.975 L 139.669,-26.9412
 L 139.778,-26.8939 L 139.875,-26.8331 L 139.961,-26.7589 L 140.034,-26.6717 L 140.094,-26.5725 L 140.141,-26.4611
 L 140.174,-26.3375 L 140.194,-26.2018 L 140.201,-26.0539 L 140.194,-25.9067 L 140.175,-25.7701 L 140.144,-25.644
 L 140.099,-25.5286 L 140.042,-25.4239 L 139.973,-25.3297 L 139.892,-25.2483 L 139.803,-25.1817 L 139.705,-25.1298
 L 139.599,-25.0928 L 139.483,-25.0706 L 139.358,-25.0632 z
M 153.85,-19.55 L 134.15,-19.55 L 134.15,-8.45001 L 153.85,-8.45001 z
M 134.55,-8.85001 L 134.55,-19.15 L 153.45,-19.15 L 153.45,-8.85001 z
M 156.745,-13.75 L 158.495,-13.75 L 158.495,-14.25 L 156.745,-14.25 L 156.745,-16 L 156.245,-16
 L 156.245,-14.25 L 154.495,-14.25 L 154.495,-13.75 L 156.245,-13.75 L 156.245,-12 L 156.745,-12
 z
M 131.755,-13.75 L 133.505,-13.75 L 133.505,-14.25 L 131.755,-14.25 L 131.755,-16 L 131.255,-16
 L 131.255,-14.25 L 129.505,-14.25 L 129.505,-13.75 L 131.255,-13.75 L 131.255,-12 L 131.755,-12
 z
"/>
</g>
</svg>