<svg xmlns="http://www.w3.org/2000/svg" version="1.1" width="232mm" height="202mm" viewBox="0 -202 232 202">
<g id="cut" fill="none" stroke="#000000" stroke-width="0.2">
<path d="
M 186,-202 L 122,-202 L 122,-170 L 186,-170 z
M 232,-164 L 122,-164 L 122,-86 L 232,-86 z
M 33,-89 L 45,-89 L 45,-86 L 65,-86 L 65,-89 L 77,-89
 L 77,-86 L 97,-86 L 97,-89 L 107,-89 L 107,-97 L 110,-97
 L 110,-117 L 107,-117 L 107,-133 L 110,-133 L 110,-153 L 107,-153
 L 107,-161 L 97,-161 L 97,-164 L 77,-164 L 77,-161 L 65,-161
 L 65,-164 L 45,-164 L 45,-161 L 33,-161 L 33,-164 L 13,-164
 L 13,-161 L 3,-161 L 3,-153 L 0,-153 L 0,-133 L 3,-133
 L 3,-117 L 0,-117 L 0,-97 L 3,-97 L 3,-89 L 13,-89
 L 13,-86 L 33,-86 z
M 13,-46 L 33,-46 L 33,-43 L 45,-43 L 45,-46 L 65,-46
 L 65,-43 L 77,-43 L 77,-46 L 97,-46 L 97,-43 L 110,-43
 L 110,-50.4 L 106.99,-50.4 L 106.99,-57.8 L 110,-57.8 L 110,-65.2 L 106.99,-65.2
 L 106.99,-72.6 L 110,-72.6 L 110,-80 L 0,-80 L 0,-72.6 L 3.00999,-72.6
 L 3.00999,-65.2 L 0,-65.2 L 0,-57.8 L 3.00999,-57.8 L 3.00999,-50.4 L 0,-50.4
 L 0,-43 L 13,-43 z
M 25.5,-49.5 L 25.5,-73.5 L 30.5,-73.5 L 30.5,-49.5 z
M 79.5,-49.5 L 79.5,-73.5 L 84.5,-73.5 L 84.5,-49.5 z
M 133,-46 L 153,-46 L 153,-43 L 169,-43 L 169,-46 L 189,-46
 L 189,-43 L 196.99,-43 L 196.99,-50.4 L 200,-50.4 L 200,-57.8 L 196.99,-57.8
 L 196.99,-65.2 L 200,-65.2 L 200,-72.6 L 196.99,-72.6 L 196.99,-80 L 125.01,-80
 L 125.01,-72.6 L 122,-72.6 L 122,-65.2 L 125.01,-65.2 L 125.01,-57.8 L 122,-57.8
 L 122,-50.4 L 125.01,-50.4 L 125.01,-43 L 133,-43 z
M 13,-3 L 33,-3 L 33,-0 L 45,-0 L 45,-3 L 65,-3
 L 65,-0 L 77,-0 L 77,-3 L 97,-3 L 97,-0 L 110,-0
 L 110,-7.39999 L 106.99,-7.39999 L 106.99,-14.8 L 110,-14.8 L 110,-22.2 L 106.99,-22.2
 L 106.99,-29.6 L 110,-29.6 L 110,-37 L 0,-37 L 0,-29.6 L 3.00999,-29.6
 L 3.00999,-22.2 L 0,-22.2 L 0,-14.8 L 3.00999,-14.8 L 3.00999,-7.39999 L 0,-7.39999
 L 0,-0 L 13,-0 z
M 27,-8 L 27,-32 L 83,-32 L 83,-8 z
M 133,-3 L 153,-3 L 153,-0 L 169,-0 L 169,-3 L 189,-3
 L 189,-0 L 196.99,-0 L 196.99,-7.39999 L 200,-7.39999 L 200,-14.8 L 196.99,-14.8
 L 196.99,-22.2 L 200,-22.2 L 200,-29.6 L 196.99,-29.6 L 196.99,-37 L 125.01,-37
 L 125.01,-29.6 L 122,-29.6 L 122,-22.2 L 125.01,-22.2 L 125.01,-14.8 L 122,-14.8
 L 122,-7.39999 L 125.01,-7.39999 L 125.01,-0 L 133,-0 z
"/>
</g>
<g id="etch" fill="#ff0000" stroke="#ff0000" stroke-width="0.1">
<path d="
M 184.25,-199.75 L 186,-199.75 L 186,-200.25 L 184.25,-200.25 L 184.25,-202 L 183.75,-202
 L 183.75,-200.25 L 182,-200.25 L 182,-199.75 L 183.75,-199.75 L 183.75,-198 L 184.25,-198
 z
M 124.25,-199.75 L 126,-199.75 L 126,-200.25 L 124.25,-200.25 L 124.25,-202 L 123.75,-202
 L 123.75,-200.25 L 122,-200.25 L 122,-199.75 L 123.75,-199.75 L 123.75,-198 L 124.25,-198
 z
M 162,-194 L 146,-194 L 146,-178 L 162,-178 z
M 146.4,-178.4 L 146.4,-193.6 L 161.6,-193.6 L 161.6,-178.4 z
M 184.25,-171.75 L 186,-171.75 L 186,-172.25 L 184.25,-172.25 L 184.25,-174 L 183.75,-174
 L 183.75,-172.25 L 182,-172.25 L 182,-171.75 L 183.75,-171.75 L 183.75,-170 L 184.25,-170
 z
M 124.25,-171.75 L 126,-171.75 L 126,-172.25 L 124.25,-172.25 L 124.25,-174 L 123.75,-174
 L 123.75,-172.25 L 122,-172.25 L 122,-171.75 L 123.75,-171.75 L 123.75,-170 L 124.25,-170
 z
M 220.25,-162.25 L 221.5,-162.25 L 221.5,-162.75 L 220.25,-162.75 L 220.25,-164 L 219.75,-164
 L 219.75,-162.75 L 218.5,-162.75 L 218.5,-162.25 L 219.75,-162.25 L 219.75,-161 L 220.25,-161
 z
M 134.25,-162.25 L 135.5,-162.25 L 135.5,-162.75 L 134.25,-162.75 L 134.25,-164 L 133.75,-164
 L 133.75,-162.75 L 132.5,-162.75 L 132.5,-162.25 L 133.75,-162.25 L 133.75,-161 L 134.25,-161
 z
M 90.4505,-153.469 L 90.6011,-153.487 L 90.744,-153.517 L 90.8792,-153.559 L 91.0068,-153.613 L 91.1267,-153.679
 L 91.2381,-153.757 L 91.3402,-153.848 L 91.433,-153.951 L 91.5163,-154.067 L 91.5904,-154.196 L 91.6551,-154.337
 L 91.0974,-154.548 L 91.0124,-154.37 L 90.9077,-154.225 L 90.7833,-154.111 L 90.6393,-154.031 L 90.4756,-153.982
 L 90.2923,-153.966 L 90.1527,-153.974 L 90.0244,-153.997 L 89.9075,-154.035 L 89.8019,-154.089 L 89.7078,-154.159
 L 89.6251,-154.244 L 89.5545,-154.343 L 89.4967,-154.457 L 89.4518,-154.584 L 89.4197,-154.725 L 89.4004,-154.88
 L 89.394,-155.049 L 89.4002,-155.215 L 89.4189,-155.367 L 89.4501,-155.505 L 89.4938,-155.629 L 89.5499,-155.74
 L 89.6186,-155.837 L 89.6992,-155.919 L 89.7916,-155.986 L 89.8955,-156.038 L 90.0111,-156.076 L 90.1383,-156.098
 L 90.2771,-156.106 L 90.3698,-156.102 L 90.4584,-156.091 L 90.5427,-156.072 L 90.6229,-156.045 L 90.699,-156.011
 L 90.7708,-155.97 L 90.8368,-155.922 L 90.8951,-155.869 L 90.9458,-155.811 L 90.9888,-155.747 L 91.0241,-155.678
 L 91.0518,-155.604 L 91.6161,-155.758 L 91.5649,-155.892 L 91.5025,-156.015 L 91.4289,-156.127 L 91.3441,-156.227
 L 91.248,-156.316 L 91.1408,-156.393 L 91.0224,-156.459 L 90.8929,-156.513 L 90.7524,-156.555 L 90.6007,-156.585
 L 90.438,-156.603 L 90.2641,-156.609 L 90.0279,-156.598 L 89.8111,-156.564 L 89.6137,-156.508 L 89.4357,-156.43
 L 89.2771,-156.329 L 89.1379,-156.205 L 89.0192,-156.061 L 88.9221,-155.898 L 88.8466,-155.715 L 88.7926,-155.512
 L 88.7603,-155.29 L 88.7495,-155.049 L 88.7607,-154.808 L 88.7942,-154.585 L 88.8501,-154.381 L 88.9284,-154.196
 L 89.029,-154.029 L 89.152,-153.88 L 89.2955,-153.753 L 89.4576,-153.648 L 89.6384,-153.567 L 89.8377,-153.509
 L 90.0557,-153.474 L 90.2923,-153.463 z
M 86.4549,-154.287 L 87.6201,-154.287 L 87.8914,-153.506 L 88.525,-153.506 L 87.414,-156.564 L 86.6589,-156.564
 L 85.5435,-153.506 L 86.1836,-153.506 z
M 86.5981,-154.769 L 86.7037,-155.077 L 86.7919,-155.335 L 86.8628,-155.543 L 86.9164,-155.701 L 86.9525,-155.809
 L 86.9713,-155.867 L 86.9812,-155.9 L 86.9906,-155.931 L 86.9995,-155.961 L 87.008,-155.99 L 87.0159,-156.018
 L 87.0234,-156.045 L 87.0364,-156.093 L 87.082,-155.943 L 87.1753,-155.648 L 87.4769,-154.769 z
M 83.976,-153.511 L 84.1138,-153.527 L 84.2462,-153.553 L 84.3732,-153.589 L 84.4946,-153.636 L 84.6105,-153.693
 L 84.7195,-153.759 L 84.8198,-153.835 L 84.9116,-153.921 L 84.9949,-154.015 L 85.0695,-154.119 L 85.1357,-154.232
 L 85.1924,-154.353 L 85.2388,-154.48 L 85.2748,-154.615 L 85.3006,-154.756 L 85.3161,-154.903 L 85.3212,-155.058
 L 85.3095,-155.29 L 85.2742,-155.505 L 85.2154,-155.7 L 85.1331,-155.877 L 85.0273,-156.035 L 84.898,-156.174
 L 84.7473,-156.293 L 84.5771,-156.39 L 84.3876,-156.466 L 84.1786,-156.52 L 83.9502,-156.553 L 83.7024,-156.564
 L 82.5957,-156.564 L 82.5957,-153.506 L 83.8326,-153.506 z
M 83.2358,-154.001 L 83.2358,-156.069 L 83.6894,-156.069 L 83.8417,-156.062 L 83.9818,-156.04 L 84.1098,-156.004
 L 84.2256,-155.954 L 84.3292,-155.889 L 84.4207,-155.809 L 84.4989,-155.717 L 84.5629,-155.611 L 84.6127,-155.492
 L 84.6483,-155.36 L 84.6696,-155.215 L 84.6767,-155.058 L 84.67,-154.9 L 84.6497,-154.755 L 84.616,-154.62
 L 84.5687,-154.497 L 84.5079,-154.385 L 84.4337,-154.285 L 84.348,-154.198 L 84.2529,-154.127 L 84.1483,-154.072
 L 84.0344,-154.032 L 83.9111,-154.009 L 83.7783,-154.001 z
M 102.25,-150.5 L 71.75,-150.5 L 71.75,-129.5 L 102.25,-129.5 z
M 72.15,-129.9 L 72.15,-150.1 L 101.85,-150.1 L 101.85,-129.9 z
M 99.95,-147.4 L 101.45,-147.4 L 101.45,-147.9 L 99.95,-147.9 L 99.95,-149.4 L 99.45,-149.4
 L 99.45,-147.9 L 97.95,-147.9 L 97.95,-147.4 L 99.45,-147.4 L 99.45,-145.9 L 99.95,-145.9
 z
M 74.55,-147.4 L 76.05,-147.4 L 76.05,-147.9 L 74.55,-147.9 L 74.55,-149.4 L 74.05,-149.4
 L 74.05,-147.9 L 72.55,-147.9 L 72.55,-147.4 L 74.05,-147.4 L 74.05,-145.9 L 74.55,-145.9
 z
M 99.95,-132.1 L 101.45,-132.1 L 101.45,-132.6 L 99.95,-132.6 L 99.95,-134.1 L 99.45,-134.1
 L 99.45,-132.6 L 97.95,-132.6 L 97.95,-132.1 L 99.45,-132.1 L 99.45,-130.6 L 99.95,-130.6
 z
M 74.55,-132.1 L 76.05,-132.1 L 76.05,-132.6 L 74.55,-132.6 L 74.55,-134.1 L 74.05,-134.1
 L 74.05,-132.6 L 72.55,-132.6 L 72.55,-132.1 L 74.05,-132.1 L 74.05,-130.6 L 74.55,-130.6
 z
M 77.9542,-96.9751 L 78.885,-97.1986 L 79.7693,-97.5649 L 80.5855,-98.065 L 81.3133,-98.6867 L 81.935,-99.4145
 L 82.4351,-100.231 L 82.7952,-101.1 L 103.7,-101.1 L 103.7,-118.9 L 82.3,-118.9 L 82.3,-105.99
 L 81.935,-106.585 L 81.3133,-107.313 L 80.5855,-107.935 L 79.7693,-108.435 L 78.885,-108.801 L 77.9542,-109.025
 L 77,-109.1 L 76.0458,-109.025 L 75.115,-108.801 L 74.2307,-108.435 L 73.4145,-107.935 L 72.6867,-107.313
 L 72.065,-106.585 L 71.5649,-105.769 L 71.1986,-104.885 L 70.9751,-103.954 L 70.9,-103 L 70.9751,-102.046
 L 71.1986,-101.115 L 71.5649,-100.231 L 72.065,-99.4145 L 72.6867,-98.6867 L 73.4145,-98.065 L 74.2307,-97.5649
 L 75.115,-97.1986 L 76.0458,-96.9751 L 77,-96.9 z
M 82.8939,-101.5 L 83.0249,-102.046 L 83.1,-103 L 83.0249,-103.954 L 82.8014,-104.885 L 82.7,-105.13
 L 82.7,-118.5 L 103.3,-118.5 L 103.3,-101.5 z
M 96.5657,-108.564 L 96.703,-108.579 L 96.8342,-108.604 L 96.9593,-108.639 L 97.0783,-108.684 L 97.1912,-108.739
 L 97.2969,-108.803 L 97.394,-108.877 L 97.4827,-108.959 L 97.5629,-109.05 L 97.6346,-109.15 L 97.6978,-109.259
 L 97.7519,-109.375 L 97.7961,-109.497 L 97.8305,-109.625 L 97.8551,-109.759 L 97.8699,-109.9 L 97.8748,-110.046
 L 97.8641,-110.265 L 97.8322,-110.468 L 97.7789,-110.655 L 97.7043,-110.825 L 97.6085,-110.98 L 97.4913,-111.118
 L 97.3552,-111.237 L 97.2025,-111.335 L 97.0333,-111.411 L 96.8475,-111.465 L 96.6452,-111.498 L 96.4263,-111.509
 L 96.2075,-111.498 L 96.0052,-111.466 L 95.8196,-111.412 L 95.6506,-111.337 L 95.4982,-111.24 L 95.3624,-111.122
 L 95.2455,-110.985 L 95.1499,-110.831 L 95.0755,-110.66 L 95.0224,-110.472 L 94.9905,-110.267 L 94.9799,-110.046
 L 94.9905,-109.823 L 95.0225,-109.617 L 95.0758,-109.428 L 95.1503,-109.254 L 95.2462,-109.097 L 95.3634,-108.956
 L 95.4993,-108.835 L 95.6515,-108.735 L 95.8198,-108.658 L 96.0044,-108.603 L 96.2052,-108.57 L 96.4223,-108.559
 z
M 96.2973,-109.038 L 96.1814,-109.061 L 96.0746,-109.099 L 95.977,-109.151 L 95.8884,-109.219 L 95.8089,-109.302
 L 95.7402,-109.398 L 95.684,-109.506 L 95.6403,-109.624 L 95.6091,-109.753 L 95.5904,-109.894 L 95.5841,-110.046
 L 95.5902,-110.196 L 95.6085,-110.335 L 95.639,-110.462 L 95.6817,-110.578 L 95.7367,-110.682 L 95.8038,-110.775
 L 95.8821,-110.855 L 95.9706,-110.92 L 96.0693,-110.971 L 96.1781,-111.007 L 96.2971,-111.029 L 96.4263,-111.037
 L 96.5536,-111.029 L 96.6711,-111.007 L 96.7788,-110.971 L 96.8766,-110.919 L 96.9646,-110.854 L 97.0427,-110.773
 L 97.1099,-110.68 L 97.1648,-110.575 L 97.2075,-110.46 L 97.2381,-110.333 L 97.2564,-110.195 L 97.2625,-110.046
 L 97.2564,-109.89 L 97.2382,-109.746 L 97.2078,-109.615 L 97.1653,-109.496 L 97.1106,-109.389 L 97.0438,-109.295
 L 96.9657,-109.214 L 96.8775,-109.148 L 96.779,-109.097 L 96.6703,-109.06 L 96.5514,-109.038 L 96.4223,-109.031
 z
M 89.4175,-109.741 L 90.1377,-108.599 L 90.7683,-108.599 L 89.8142,-110.107 L 90.6849,-111.466 L 90.0543,-111.466
 L 89.4175,-110.453 L 88.7807,-111.466 L 88.146,-111.466 L 89.0554,-110.107 L 88.0626,-108.599 L 88.6973,-108.599
 z
M 91.6189,-111.466 L 91.0187,-111.466 L 91.0187,-108.599 L 91.6189,-108.599 z
M 92.8287,-109.332 L 93.9211,-109.332 L 94.1755,-108.599 L 94.7695,-108.599 L 93.7279,-111.466 L 93.0199,-111.466
 L 91.9742,-108.599 L 92.5744,-108.599 z
M 92.963,-109.783 L 93.062,-110.072 L 93.1447,-110.314 L 93.2112,-110.509 L 93.2613,-110.657 L 93.2952,-110.758
 L 93.3129,-110.813 L 93.3221,-110.843 L 93.3309,-110.873 L 93.3393,-110.901 L 93.3472,-110.928 L 93.3547,-110.955
 L 93.3617,-110.98 L 93.3739,-111.024 L 93.4166,-110.884 L 93.5041,-110.607 L 93.7869,-109.783 z
M 76.1083,-97.3702 L 75.2386,-97.579 L 74.4123,-97.9213 L 73.6496,-98.3886 L 72.9695,-98.9695 L 72.3886,-99.6496
 L 71.9213,-100.412 L 71.579,-101.239 L 71.3702,-102.108 L 71.3,-103 L 71.3702,-103.892 L 71.579,-104.761
 L 71.9213,-105.588 L 72.3886,-106.35 L 72.9695,-107.031 L 73.6496,-107.611 L 74.4123,-108.079 L 75.2386,-108.421
 L 76.1083,-108.63 L 77,-108.7 L 77.8917,-108.63 L 78.7614,-108.421 L 79.5877,-108.079 L 80.3504,-107.611
 L 81.0305,-107.031 L 81.6114,-106.35 L 82.0787,-105.588 L 82.3,-105.054 L 82.3,-101.1 L 82.3636,-101.1
 L 82.0787,-100.412 L 81.6114,-99.6496 L 81.0305,-98.9695 L 80.3504,-98.3886 L 79.5877,-97.9213 L 78.7614,-97.579
 L 77.8917,-97.3702 L 77,-97.3 z
M 52.307,-112.47 L 52.4463,-112.481 L 52.5836,-112.501 L 52.7187,-112.528 L 52.8517,-112.564 L 52.9826,-112.607
 L 53.1083,-112.657 L 53.226,-112.713 L 53.3355,-112.775 L 53.4368,-112.843 L 53.53,-112.917 L 53.6151,-112.997
 L 53.6151,-114.121 L 52.2827,-114.121 L 52.2827,-113.648 L 53.0292,-113.648 L 53.0292,-113.225 L 52.9836,-113.189
 L 52.9321,-113.154 L 52.8746,-113.122 L 52.8113,-113.092 L 52.742,-113.065 L 52.6668,-113.04 L 52.5883,-113.017
 L 52.5089,-112.999 L 52.4287,-112.985 L 52.3476,-112.975 L 52.2657,-112.969 L 52.1829,-112.967 L 52.0423,-112.975
 L 51.9125,-112.998 L 51.7937,-113.038 L 51.6858,-113.093 L 51.5888,-113.164 L 51.5027,-113.25 L 51.4287,-113.351
 L 51.3682,-113.465 L 51.3212,-113.592 L 51.2876,-113.732 L 51.2674,-113.886 L 51.2607,-114.052 L 51.2672,-114.215
 L 51.2867,-114.366 L 51.3193,-114.503 L 51.3649,-114.627 L 51.4234,-114.738 L 51.495,-114.835 L 51.5792,-114.919
 L 51.6754,-114.987 L 51.7836,-115.04 L 51.904,-115.078 L 52.0363,-115.101 L 52.1808,-115.109 L 52.2706,-115.105
 L 52.3565,-115.095 L 52.4384,-115.079 L 52.5164,-115.056 L 52.5903,-115.026 L 52.6603,-114.989 L 52.7253,-114.946
 L 52.7843,-114.897 L 52.8372,-114.842 L 52.8841,-114.78 L 52.925,-114.712 L 52.9598,-114.638 L 53.55,-114.816
 L 53.4306,-115.059 L 53.2677,-115.258 L 53.0612,-115.413 L 52.8113,-115.524 L 52.5178,-115.59 L 52.1808,-115.612
 L 51.9382,-115.601 L 51.7152,-115.567 L 51.5119,-115.511 L 51.3282,-115.433 L 51.1642,-115.333 L 51.0198,-115.21
 L 50.8965,-115.066 L 50.7956,-114.902 L 50.7171,-114.719 L 50.661,-114.516 L 50.6274,-114.294 L 50.6162,-114.052
 L 50.6273,-113.808 L 50.6608,-113.584 L 50.7166,-113.379 L 50.7946,-113.193 L 50.895,-113.026 L 51.0176,-112.879
 L 51.161,-112.753 L 51.3236,-112.649 L 51.5053,-112.569 L 51.7063,-112.512 L 51.9263,-112.477 L 52.1656,-112.466
 z
M 66.5453,-112.466 L 66.699,-112.485 L 66.8394,-112.518 L 66.9666,-112.563 L 67.0805,-112.622 L 67.1812,-112.693
 L 67.2674,-112.777 L 67.3379,-112.871 L 67.3928,-112.977 L 67.4319,-113.093 L 67.4554,-113.22 L 67.4633,-113.357
 L 67.458,-113.453 L 67.4422,-113.543 L 67.4158,-113.626 L 67.3789,-113.704 L 67.3314,-113.776 L 67.2734,-113.842
 L 67.2056,-113.902 L 67.1289,-113.953 L 67.0431,-113.995 L 66.9484,-114.03 L 66.8447,-114.056 L 66.732,-114.074
 L 66.732,-114.082 L 66.8335,-114.106 L 66.9267,-114.136 L 67.0117,-114.174 L 67.0884,-114.218 L 67.1568,-114.269
 L 67.217,-114.327 L 67.2684,-114.392 L 67.3104,-114.462 L 67.3431,-114.537 L 67.3665,-114.619 L 67.3805,-114.706
 L 67.3852,-114.798 L 67.3777,-114.921 L 67.3551,-115.035 L 67.3176,-115.139 L 67.2651,-115.234 L 67.1976,-115.32
 L 67.115,-115.396 L 67.0191,-115.462 L 66.9116,-115.516 L 66.7925,-115.558 L 66.6617,-115.588 L 66.5193,-115.606
 L 66.3653,-115.612 L 66.2196,-115.606 L 66.0834,-115.587 L 65.9568,-115.556 L 65.8396,-115.513 L 65.732,-115.457
 L 65.634,-115.389 L 65.5471,-115.309 L 65.4732,-115.221 L 65.4121,-115.122 L 65.364,-115.014 L 65.3287,-114.897
 L 65.3063,-114.77 L 65.9161,-114.727 L 65.9246,-114.788 L 65.9386,-114.844 L 65.9581,-114.896 L 65.9831,-114.943
 L 66.0136,-114.985 L 66.0495,-115.022 L 66.0902,-115.054 L 66.135,-115.08 L 66.1838,-115.1 L 66.2366,-115.114
 L 66.2935,-115.123 L 66.3544,-115.126 L 66.419,-115.123 L 66.4782,-115.114 L 66.5321,-115.099 L 66.5806,-115.078
 L 66.6237,-115.051 L 66.6615,-115.019 L 66.6936,-114.981 L 66.72,-114.938 L 66.7404,-114.891 L 66.7551,-114.839
 L 66.7638,-114.783 L 66.7667,-114.722 L 66.7631,-114.658 L 66.752,-114.6 L 66.7336,-114.546 L 66.7079,-114.497
 L 66.6748,-114.454 L 66.6344,-114.415 L 66.5866,-114.383 L 66.5316,-114.356 L 66.4694,-114.335 L 66.4,-114.32
 L 66.3233,-114.311 L 66.2394,-114.308 L 66.0398,-114.308 L 66.0398,-113.815 L 66.2524,-113.815 L 66.3454,-113.812
 L 66.4304,-113.803 L 66.5074,-113.788 L 66.5765,-113.767 L 66.6376,-113.74 L 66.6908,-113.707 L 66.7359,-113.668
 L 66.7728,-113.624 L 66.8014,-113.574 L 66.8219,-113.52 L 66.8342,-113.46 L 66.8383,-113.394 L 66.8349,-113.323
 L 66.8248,-113.258 L 66.8079,-113.2 L 66.7843,-113.147 L 66.7539,-113.102 L 66.7168,-113.062 L 66.6736,-113.029
 L 66.6249,-113.002 L 66.5709,-112.981 L 66.5114,-112.966 L 66.4465,-112.957 L 66.3761,-112.954 L 66.2392,-112.966
 L 66.1237,-113.003 L 66.0295,-113.064 L 65.9566,-113.15 L 65.9051,-113.26 L 65.8749,-113.394 L 65.2542,-113.34
 L 65.2776,-113.203 L 65.3143,-113.077 L 65.3644,-112.963 L 65.4278,-112.859 L 65.5047,-112.767 L 65.5949,-112.686
 L 65.6975,-112.617 L 65.8112,-112.56 L 65.9362,-112.516 L 66.0723,-112.484 L 66.2197,-112.465 L 66.3783,-112.459
 z
M 61.4124,-113.01 L 59.9932,-113.01 L 60.0152,-113.057 L 60.0408,-113.102 L 60.0699,-113.147 L 60.1026,-113.191
 L 60.1389,-113.233 L 60.1787,-113.275 L 60.2211,-113.316 L 60.2649,-113.357 L 60.3103,-113.398 L 60.3571,-113.439
 L 60.4055,-113.48 L 60.4554,-113.52 L 60.5063,-113.561 L 60.5577,-113.602 L 60.6097,-113.643 L 60.6623,-113.685
 L 60.7153,-113.727 L 60.769,-113.77 L 60.822,-113.813 L 60.8735,-113.857 L 60.9233,-113.902 L 60.9715,-113.949
 L 61.0181,-113.996 L 61.063,-114.044 L 61.1058,-114.094 L 61.146,-114.145 L 61.1834,-114.198 L 61.2183,-114.252
 L 61.2505,-114.307 L 61.28,-114.364 L 61.3058,-114.423 L 61.327,-114.485 L 61.3435,-114.548 L 61.3552,-114.614
 L 61.3623,-114.682 L 61.3646,-114.753 L 61.3573,-114.884 L 61.3352,-115.004 L 61.2984,-115.115 L 61.247,-115.216
 L 61.1808,-115.306 L 61.0999,-115.386 L 61.0053,-115.455 L 60.8978,-115.512 L 60.7776,-115.556 L 60.6447,-115.587
 L 60.4989,-115.606 L 60.3404,-115.612 L 60.1931,-115.606 L 60.0565,-115.587 L 59.9305,-115.556 L 59.8152,-115.513
 L 59.7106,-115.457 L 59.6167,-115.389 L 59.534,-115.308 L 59.4632,-115.217 L 59.4043,-115.115 L 59.3573,-115.001
 L 59.3221,-114.876 L 59.2988,-114.74 L 59.9129,-114.705 L 59.925,-114.772 L 59.9412,-114.834 L 59.9615,-114.889
 L 59.9857,-114.939 L 60.014,-114.983 L 60.0464,-115.021 L 60.0833,-115.053 L 60.1253,-115.079 L 60.1725,-115.1
 L 60.2248,-115.114 L 60.2822,-115.123 L 60.3447,-115.126 L 60.4674,-115.115 L 60.5677,-115.082 L 60.6458,-115.026
 L 60.7016,-114.949 L 60.735,-114.849 L 60.7462,-114.727 L 60.7426,-114.672 L 60.7318,-114.617 L 60.7139,-114.562
 L 60.6888,-114.507 L 60.6565,-114.451 L 60.6171,-114.395 L 60.5687,-114.336 L 60.5096,-114.272 L 60.4399,-114.203
 L 60.3596,-114.129 L 60.2685,-114.049 L 60.1668,-113.965 L 60.0585,-113.875 L 59.9566,-113.787 L 59.8611,-113.699
 L 59.7718,-113.613 L 59.6889,-113.528 L 59.6124,-113.444 L 59.5417,-113.361 L 59.4767,-113.276 L 59.4173,-113.191
 L 59.3635,-113.106 L 59.3153,-113.019 L 59.2728,-112.932 L 59.2728,-112.509 L 61.4124,-112.509 z
M 23.5727,-112.47 L 23.7159,-112.493 L 23.8476,-112.532 L 23.9677,-112.586 L 24.0762,-112.656 L 24.1731,-112.74
 L 24.2566,-112.839 L 24.325,-112.949 L 24.3781,-113.071 L 24.4161,-113.204 L 24.4389,-113.349 L 24.4465,-113.506
 L 24.4399,-113.65 L 24.42,-113.784 L 24.3868,-113.907 L 24.3404,-114.019 L 24.2807,-114.122 L 24.2078,-114.214
 L 24.1235,-114.293 L 24.0296,-114.358 L 23.9263,-114.409 L 23.8134,-114.445 L 23.6909,-114.467 L 23.559,-114.474
 L 23.4872,-114.472 L 23.4179,-114.465 L 23.3512,-114.452 L 23.287,-114.436 L 23.2253,-114.414 L 23.1662,-114.387
 L 23.1105,-114.356 L 23.0589,-114.321 L 23.0116,-114.282 L 22.9685,-114.238 L 22.9296,-114.19 L 22.8949,-114.138
 L 22.8988,-114.297 L 22.9105,-114.442 L 22.9299,-114.573 L 22.9572,-114.69 L 22.9921,-114.793 L 23.0349,-114.882
 L 23.0845,-114.957 L 23.1399,-115.018 L 23.2012,-115.066 L 23.2683,-115.1 L 23.3413,-115.121 L 23.4201,-115.127
 L 23.5099,-115.119 L 23.5884,-115.094 L 23.6555,-115.052 L 23.7114,-114.993 L 23.7558,-114.918 L 23.789,-114.826
 L 24.364,-114.906 L 24.3293,-115.021 L 24.2873,-115.125 L 24.2379,-115.219 L 24.1813,-115.302 L 24.1174,-115.375
 L 24.0461,-115.438 L 23.9667,-115.49 L 23.8782,-115.533 L 23.7806,-115.566 L 23.6739,-115.59 L 23.558,-115.604
 L 23.4331,-115.609 L 23.2579,-115.598 L 23.0966,-115.563 L 22.9495,-115.506 L 22.8163,-115.425 L 22.6973,-115.322
 L 22.5922,-115.196 L 22.5024,-115.047 L 22.4289,-114.875 L 22.3717,-114.681 L 22.3309,-114.465 L 22.3064,-114.226
 L 22.2982,-113.964 L 22.3063,-113.726 L 22.3304,-113.509 L 22.3706,-113.311 L 22.427,-113.134 L 22.4994,-112.978
 L 22.5879,-112.841 L 22.6914,-112.726 L 22.8089,-112.631 L 22.9403,-112.557 L 23.0856,-112.505 L 23.2448,-112.473
 L 23.4179,-112.463 z
M 23.3319,-112.943 L 23.2698,-112.957 L 23.2121,-112.982 L 23.1588,-113.015 L 23.1098,-113.059 L 23.0653,-113.113
 L 23.0265,-113.173 L 22.9948,-113.239 L 22.9701,-113.31 L 22.9525,-113.386 L 22.9419,-113.468 L 22.9384,-113.554
 L 22.9417,-113.623 L 22.9519,-113.687 L 22.9688,-113.746 L 22.9924,-113.801 L 23.0228,-113.851 L 23.0599,-113.896
 L 23.1026,-113.935 L 23.1498,-113.968 L 23.2015,-113.993 L 23.2576,-114.011 L 23.3182,-114.021 L 23.3832,-114.025
 L 23.4509,-114.021 L 23.5135,-114.01 L 23.5712,-113.991 L 23.6238,-113.964 L 23.6715,-113.929 L 23.7141,-113.887
 L 23.7509,-113.838 L 23.781,-113.782 L 23.8045,-113.719 L 23.8212,-113.649 L 23.8312,-113.572 L 23.8346,-113.489
 L 23.8314,-113.406 L 23.8218,-113.329 L 23.8058,-113.259 L 23.7834,-113.194 L 23.7547,-113.136 L 23.7196,-113.084
 L 23.6787,-113.04 L 23.6328,-113.003 L 23.5818,-112.974 L 23.5257,-112.954 L 23.4646,-112.942 L 23.3984,-112.938
 z
M 15.3238,-112.467 L 15.4631,-112.478 L 15.6003,-112.498 L 15.7354,-112.525 L 15.8684,-112.561 L 15.9993,-112.604
 L 16.1251,-112.654 L 16.2428,-112.71 L 16.3522,-112.772 L 16.4536,-112.84 L 16.5468,-112.914 L 16.6319,-112.994
 L 16.6319,-114.118 L 15.2995,-114.118 L 15.2995,-113.645 L 16.046,-113.645 L 16.046,-113.222 L 16.0004,-113.186
 L 15.9489,-113.151 L 15.8914,-113.119 L 15.828,-113.089 L 15.7588,-113.062 L 15.6836,-113.037 L 15.6051,-113.014
 L 15.5257,-112.996 L 15.4455,-112.982 L 15.3644,-112.972 L 15.2825,-112.966 L 15.1997,-112.964 L 15.0591,-112.972
 L 14.9293,-112.995 L 14.8105,-113.035 L 14.7026,-113.09 L 14.6055,-113.161 L 14.5194,-113.247 L 14.4455,-113.348
 L 14.385,-113.462 L 14.338,-113.589 L 14.3044,-113.729 L 14.2842,-113.883 L 14.2775,-114.049 L 14.284,-114.212
 L 14.3035,-114.363 L 14.3361,-114.5 L 14.3816,-114.624 L 14.4402,-114.735 L 14.5118,-114.832 L 14.596,-114.916
 L 14.6922,-114.984 L 14.8004,-115.037 L 14.9207,-115.075 L 15.0531,-115.098 L 15.1975,-115.106 L 15.2874,-115.102
 L 15.3733,-115.092 L 15.4552,-115.076 L 15.5332,-115.053 L 15.6071,-115.023 L 15.6771,-114.986 L 15.7421,-114.943
 L 15.801,-114.894 L 15.854,-114.839 L 15.9009,-114.777 L 15.9417,-114.709 L 15.9766,-114.635 L 16.5668,-114.813
 L 16.4474,-115.056 L 16.2845,-115.255 L 16.078,-115.41 L 15.828,-115.521 L 15.5346,-115.587 L 15.1975,-115.609
 L 14.9549,-115.598 L 14.732,-115.564 L 14.5286,-115.508 L 14.345,-115.43 L 14.181,-115.33 L 14.0366,-115.207
 L 13.9133,-115.063 L 13.8123,-114.899 L 13.7339,-114.716 L 13.6778,-114.513 L 13.6442,-114.291 L 13.633,-114.049
 L 13.6441,-113.805 L 13.6776,-113.581 L 13.7333,-113.376 L 13.8114,-113.19 L 13.9117,-113.023 L 14.0344,-112.876
 L 14.1778,-112.75 L 14.3404,-112.646 L 14.5221,-112.566 L 14.723,-112.509 L 14.9431,-112.474 L 15.1823,-112.463
 z
M 55.2942,-113.726 L 56.0624,-112.509 L 56.7351,-112.509 L 55.7173,-114.117 L 56.6461,-115.567 L 55.9734,-115.567
 L 55.2942,-114.486 L 54.615,-115.567 L 53.9379,-115.567 L 54.9079,-114.117 L 53.849,-112.509 L 54.526,-112.509
 z
M 59.0528,-112.963 L 58.3519,-112.963 L 58.3519,-115.567 L 57.7747,-115.567 L 57.0087,-115.07 L 57.0087,-114.59
 L 57.7421,-115.048 L 57.7421,-112.963 L 56.9848,-112.963 L 56.9848,-112.509 L 59.0528,-112.509 z
M 22.0695,-112.96 L 21.3687,-112.96 L 21.3687,-115.564 L 20.7914,-115.564 L 20.0254,-115.067 L 20.0254,-114.587
 L 20.7589,-115.045 L 20.7589,-112.96 L 20.0016,-112.96 L 20.0016,-112.506 L 22.0695,-112.506 z
M 18.311,-113.723 L 19.0791,-112.506 L 19.7518,-112.506 L 18.7341,-114.114 L 19.6629,-115.564 L 18.9902,-115.564
 L 18.311,-114.483 L 17.6317,-115.564 L 16.9547,-115.564 L 17.9247,-114.114 L 16.8658,-112.506 L 17.5428,-112.506
 z
M 63.9688,-113.36 L 64.5156,-112.509 L 65.1775,-112.509 L 64.3116,-113.729 L 65.1297,-114.857 L 64.4679,-114.857
 L 63.9688,-114.089 L 63.4675,-114.857 L 62.81,-114.857 L 63.6281,-113.722 L 62.7688,-112.509 L 63.4176,-112.509
 z
M 20.2671,-94.9997 L 21.503,-95.2964 L 22.6773,-95.7829 L 23.761,-96.447 L 24.7276,-97.2724 L 25.553,-98.239
 L 26.2171,-99.3227 L 26.7036,-100.497 L 27.0003,-101.733 L 27.1,-103 L 27.0003,-104.267 L 26.7036,-105.503
 L 26.2171,-106.677 L 25.553,-107.761 L 24.7276,-108.728 L 23.761,-109.553 L 22.6773,-110.217 L 21.503,-110.704
 L 20.2671,-111 L 19,-111.1 L 17.7329,-111 L 16.497,-110.704 L 15.3227,-110.217 L 14.239,-109.553
 L 13.2724,-108.728 L 12.447,-107.761 L 11.7829,-106.677 L 11.2964,-105.503 L 10.9997,-104.267 L 10.9,-103
 L 10.9997,-101.733 L 11.2964,-100.497 L 11.7829,-99.3227 L 12.447,-98.239 L 13.2724,-97.2724 L 14.239,-96.447
 L 15.3227,-95.7829 L 16.497,-95.2964 L 17.7329,-94.9997 L 19,-94.9 z
M 17.7955,-95.3948 L 16.6206,-95.6769 L 15.5043,-96.1393 L 14.4741,-96.7706 L 13.5553,-97.5553 L 12.7706,-98.4741
 L 12.1393,-99.5043 L 11.6769,-100.621 L 11.3948,-101.795 L 11.3,-103 L 11.3948,-104.205 L 11.6769,-105.379
 L 12.1393,-106.496 L 12.7706,-107.526 L 13.5553,-108.445 L 14.4741,-109.229 L 15.5043,-109.861 L 16.6206,-110.323
 L 17.7955,-110.605 L 19,-110.7 L 20.2045,-110.605 L 21.3794,-110.323 L 22.4957,-109.861 L 23.5259,-109.229
 L 24.4447,-108.445 L 25.2294,-107.526 L 25.8607,-106.496 L 26.3231,-105.379 L 26.6052,-104.205 L 26.7,-103
 L 26.6052,-101.795 L 26.3231,-100.621 L 25.8607,-99.5043 L 25.2294,-98.4741 L 24.4447,-97.5553 L 23.5259,-96.7706
 L 22.4957,-96.1393 L 21.3794,-95.6769 L 20.2045,-95.3948 L 19,-95.3 z
M 41.9542,-96.9751 L 42.885,-97.1986 L 43.7693,-97.5649 L 44.5855,-98.065 L 45.3133,-98.6867 L 45.935,-99.4145
 L 46.4351,-100.231 L 46.8014,-101.115 L 47.0249,-102.046 L 47.1,-103 L 47.0249,-103.954 L 46.8014,-104.885
 L 46.4351,-105.769 L 45.935,-106.585 L 45.3133,-107.313 L 44.5855,-107.935 L 43.7693,-108.435 L 42.885,-108.801
 L 41.9542,-109.025 L 41,-109.1 L 40.0458,-109.025 L 39.115,-108.801 L 38.2307,-108.435 L 37.4145,-107.935
 L 36.6867,-107.313 L 36.065,-106.585 L 35.5649,-105.769 L 35.1986,-104.885 L 34.9751,-103.954 L 34.9,-103
 L 34.9751,-102.046 L 35.1986,-101.115 L 35.5649,-100.231 L 36.065,-99.4145 L 36.6867,-98.6867 L 37.4145,-98.065
 L 38.2307,-97.5649 L 39.115,-97.1986 L 40.0458,-96.9751 L 41,-96.9 z
M 40.1083,-97.3702 L 39.2386,-97.579 L 38.4123,-97.9213 L 37.6496,-98.3886 L 36.9695,-98.9695 L 36.3886,-99.6496
 L 35.9213,-100.412 L 35.579,-101.239 L 35.3702,-102.108 L 35.3,-103 L 35.3702,-103.892 L 35.579,-104.761
 L 35.9213,-105.588 L 36.3886,-106.35 L 36.9695,-107.031 L 37.6496,-107.611 L 38.4123,-108.079 L 39.2386,-108.421
 L 40.1083,-108.63 L 41,-108.7 L 41.8917,-108.63 L 42.7614,-108.421 L 43.5877,-108.079 L 44.3504,-107.611
 L 45.0305,-107.031 L 45.6114,-106.35 L 46.0787,-105.588 L 46.421,-104.761 L 46.6298,-103.892 L 46.7,-103
 L 46.6298,-102.108 L 46.421,-101.239 L 46.0787,-100.412 L 45.6114,-99.6496 L 45.0305,-98.9695 L 44.3504,-98.3886
 L 43.5877,-97.9213 L 42.7614,-97.579 L 41.8917,-97.3702 L 41,-97.3 z
M 59.9542,-96.9751 L 60.885,-97.1986 L 61.7693,-97.5649 L 62.5855,-98.065 L 63.3133,-98.6867 L 63.935,-99.4145
 L 64.4351,-100.231 L 64.8014,-101.115 L 65.0249,-102.046 L 65.1,-103 L 65.0249,-103.954 L 64.8014,-104.885
 L 64.4351,-105.769 L 63.935,-106.585 L 63.3133,-107.313 L 62.5855,-107.935 L 61.7693,-108.435 L 60.885,-108.801
 L 59.9542,-109.025 L 59,-109.1 L 58.0458,-109.025 L 57.115,-108.801 L 56.2307,-108.435 L 55.4145,-107.935
 L 54.6867,-107.313 L 54.065,-106.585 L 53.5649,-105.769 L 53.1986,-104.885 L 52.9751,-103.954 L 52.9,-103
 L 52.9751,-102.046 L 53.1986,-101.115 L 53.5649,-100.231 L 54.065,-99.4145 L 54.6867,-98.6867 L 55.4145,-98.065
 L 56.2307,-97.5649 L 57.115,-97.1986 L 58.0458,-96.9751 L 59,-96.9 z
M 58.1083,-97.3702 L 57.2386,-97.579 L 56.4123,-97.9213 L 55.6496,-98.3886 L 54.9695,-98.9695 L 54.3886,-99.6496
 L 53.9213,-100.412 L 53.579,-101.239 L 53.3702,-102.108 L 53.3,-103 L 53.3702,-103.892 L 53.579,-104.761
 L 53.9213,-105.588 L 54.3886,-106.35 L 54.9695,-107.031 L 55.6496,-107.611 L 56.4123,-108.079 L 57.2386,-108.421
 L 58.1083,-108.63 L 59,-108.7 L 59.8917,-108.63 L 60.7614,-108.421 L 61.5877,-108.079 L 62.3504,-107.611
 L 63.0305,-107.031 L 63.6114,-106.35 L 64.0787,-105.588 L 64.421,-104.761 L 64.6298,-103.892 L 64.7,-103
 L 64.6298,-102.108 L 64.421,-101.239 L 64.0787,-100.412 L 63.6114,-99.6496 L 63.0305,-98.9695 L 62.3504,-98.3886
 L 61.5877,-97.9213 L 60.7614,-97.579 L 59.8917,-97.3702 L 59,-97.3 z
M 220.25,-87.25 L 221.5,-87.25 L 221.5,-87.75 L 220.25,-87.75 L 220.25,-89 L 219.75,-89
 L 219.75,-87.75 L 218.5,-87.75 L 218.5,-87.25 L 219.75,-87.25 L 219.75,-86 L 220.25,-86
 z
M 134.25,-87.25 L 135.5,-87.25 L 135.5,-87.75 L 134.25,-87.75 L 134.25,-89 L 133.75,-89
 L 133.75,-87.75 L 132.5,-87.75 L 132.5,-87.25 L 133.75,-87.25 L 133.75,-86 L 134.25,-86
 z
M 184.508,-68.79 L 185.004,-68.9091 L 185.475,-69.1042 L 185.91,-69.3707 L 186.298,-69.7019 L 186.629,-70.0897
 L 186.896,-70.5245 L 187.091,-70.9957 L 187.21,-71.4916 L 187.25,-72 L 187.21,-72.5084 L 187.091,-73.0043
 L 186.896,-73.4755 L 186.629,-73.9103 L 186.298,-74.2981 L 185.91,-74.6293 L 185.475,-74.8958 L 185.004,-75.0909
 L 184.508,-75.21 L 184,-75.25 L 183.492,-75.21 L 182.996,-75.0909 L 182.525,-74.8958 L 182.09,-74.6293
 L 181.702,-74.2981 L 181.371,-73.9103 L 181.104,-73.4755 L 180.909,-73.0043 L 180.79,-72.5084 L 180.75,-72
 L 180.79,-71.4916 L 180.909,-70.9957 L 181.104,-70.5245 L 181.371,-70.0897 L 181.702,-69.7019 L 182.09,-69.3707
 L 182.525,-69.1042 L 182.996,-68.9091 L 183.492,-68.79 L 184,-68.75 z
M 183.554,-69.1851 L 183.119,-69.2895 L 182.706,-69.4606 L 182.325,-69.6943 L 181.985,-69.9848 L 181.694,-70.3248
 L 181.461,-70.7061 L 181.289,-71.1193 L 181.185,-71.5542 L 181.15,-72 L 181.185,-72.4458 L 181.289,-72.8807
 L 181.461,-73.2939 L 181.694,-73.6752 L 181.985,-74.0152 L 182.325,-74.3057 L 182.706,-74.5394 L 183.119,-74.7105
 L 183.554,-74.8149 L 184,-74.85 L 184.446,-74.8149 L 184.881,-74.7105 L 185.294,-74.5394 L 185.675,-74.3057
 L 186.015,-74.0152 L 186.306,-73.6752 L 186.539,-73.2939 L 186.711,-72.8807 L 186.815,-72.4458 L 186.85,-72
 L 186.815,-71.5542 L 186.711,-71.1193 L 186.539,-70.7061 L 186.306,-70.3248 L 186.015,-69.9848 L 185.675,-69.6943
 L 185.294,-69.4606 L 184.881,-69.2895 L 184.446,-69.1851 L 184,-69.15 z
M 172.775,-64.7781 L 173.447,-63.7129 L 174.036,-63.7129 L 173.145,-65.1198 L 173.958,-66.3882 L 173.369,-66.3882
 L 172.775,-65.4426 L 172.18,-66.3882 L 171.588,-66.3882 L 172.437,-65.1198 L 171.51,-63.7129 L 172.103,-63.7129
 z
M 170.289,-63.6827 L 170.458,-63.706 L 170.612,-63.7449 L 170.752,-63.7994 L 170.878,-63.8694 L 170.99,-63.955
 L 171.086,-64.0547 L 171.165,-64.1671 L 171.226,-64.2922 L 171.269,-64.4301 L 171.296,-64.5806 L 171.304,-64.7439
 L 171.304,-66.3882 L 170.744,-66.3882 L 170.744,-64.7781 L 170.74,-64.6753 L 170.726,-64.5807 L 170.704,-64.4945
 L 170.672,-64.4165 L 170.632,-64.3468 L 170.583,-64.2853 L 170.525,-64.2328 L 170.46,-64.1899 L 170.387,-64.1565
 L 170.306,-64.1326 L 170.218,-64.1183 L 170.121,-64.1135 L 170.028,-64.1181 L 169.942,-64.1318 L 169.864,-64.1546
 L 169.794,-64.1865 L 169.732,-64.2276 L 169.678,-64.2778 L 169.632,-64.3367 L 169.594,-64.4042 L 169.565,-64.4802
 L 169.544,-64.5647 L 169.531,-64.6577 L 169.527,-64.7591 L 169.527,-66.3882 L 168.967,-66.3882 L 168.967,-64.7154
 L 168.975,-64.5548 L 169,-64.407 L 169.04,-64.2721 L 169.097,-64.15 L 169.171,-64.0408 L 169.26,-63.9445
 L 169.365,-63.8622 L 169.485,-63.7947 L 169.619,-63.7423 L 169.767,-63.7049 L 169.929,-63.6824 L 170.106,-63.6749
 z
M 166.885,-64.3965 L 167.905,-64.3965 L 168.142,-63.7129 L 168.697,-63.7129 L 167.724,-66.3882 L 167.064,-66.3882
 L 166.088,-63.7129 L 166.648,-63.7129 z
M 167.01,-64.818 L 167.103,-65.0872 L 167.18,-65.3129 L 167.242,-65.4949 L 167.289,-65.6331 L 167.321,-65.7278
 L 167.337,-65.7787 L 167.346,-65.8073 L 167.354,-65.8348 L 167.362,-65.8613 L 167.369,-65.8867 L 167.376,-65.9111
 L 167.383,-65.9344 L 167.394,-65.9762 L 167.434,-65.8452 L 167.516,-65.5869 L 167.779,-64.818 z
M 183.598,-64.2715 L 183.597,-64.3355 L 183.594,-64.4061 L 183.589,-64.4832 L 183.583,-64.5668 L 183.574,-64.657
 L 183.564,-64.7538 L 184.729,-62.6936 L 185.386,-62.6936 L 185.386,-65.369 L 184.889,-65.369 L 184.889,-63.8139
 L 184.89,-63.734 L 184.893,-63.6512 L 184.897,-63.5656 L 184.904,-63.4772 L 184.913,-63.3859 L 184.923,-63.2917
 L 183.74,-65.369 L 183.1,-65.369 L 183.1,-62.6936 L 183.598,-62.6936 z
M 180.992,-63.3772 L 182.011,-63.3772 L 182.249,-62.6936 L 182.803,-62.6936 L 181.831,-65.369 L 181.17,-65.369
 L 180.194,-62.6936 L 180.754,-62.6936 z
M 181.117,-63.7987 L 181.21,-64.068 L 181.287,-64.2936 L 181.349,-64.4756 L 181.396,-64.6139 L 181.427,-64.7085
 L 181.444,-64.7595 L 181.452,-64.788 L 181.461,-64.8156 L 181.468,-64.8421 L 181.476,-64.8675 L 181.483,-64.8918
 L 181.489,-64.9152 L 181.501,-64.9569 L 181.541,-64.8259 L 181.622,-64.5677 L 181.886,-63.7987 z
M 187.05,-64.9361 L 187.916,-64.9361 L 187.916,-65.369 L 185.626,-65.369 L 185.626,-64.9361 L 186.49,-64.9361
 L 186.49,-62.6936 L 187.05,-62.6936 z
M 56.1213,-60.66 L 56.253,-60.6758 L 56.3781,-60.702 L 56.4964,-60.7388 L 56.608,-60.786 L 56.713,-60.8437
 L 56.8104,-60.9122 L 56.8998,-60.9917 L 56.9809,-61.0822 L 57.0539,-61.1838 L 57.1187,-61.2964 L 57.1753,-61.42
 L 56.6873,-61.6042 L 56.6129,-61.4487 L 56.5213,-61.3215 L 56.4125,-61.2225 L 56.2865,-61.1518 L 56.1433,-61.1094
 L 55.9829,-61.0953 L 55.8606,-61.102 L 55.7484,-61.1223 L 55.6461,-61.1561 L 55.5538,-61.2033 L 55.4714,-61.2641
 L 55.399,-61.3383 L 55.3372,-61.4254 L 55.2867,-61.5246 L 55.2474,-61.636 L 55.2193,-61.7594 L 55.2024,-61.895
 L 55.1968,-62.0428 L 55.2023,-62.188 L 55.2186,-62.321 L 55.2459,-62.442 L 55.2841,-62.5508 L 55.3333,-62.6474
 L 55.3933,-62.732 L 55.4639,-62.8039 L 55.5447,-62.8628 L 55.6356,-62.9086 L 55.7368,-62.9413 L 55.8481,-62.9609
 L 55.9696,-62.9674 L 56.0507,-62.9641 L 56.1281,-62.9543 L 56.202,-62.9378 L 56.2721,-62.9147 L 56.3387,-62.885
 L 56.4016,-62.8488 L 56.4593,-62.8069 L 56.5103,-62.7605 L 56.5546,-62.7095 L 56.5923,-62.6538 L 56.6232,-62.5936
 L 56.6474,-62.5288 L 57.1411,-62.6636 L 57.0963,-62.7809 L 57.0417,-62.8882 L 56.9773,-62.9857 L 56.9031,-63.0733
 L 56.8191,-63.1511 L 56.7253,-63.219 L 56.6217,-63.2767 L 56.5084,-63.324 L 56.3854,-63.3607 L 56.2527,-63.387
 L 56.1103,-63.4027 L 55.9582,-63.408 L 55.7515,-63.3981 L 55.5618,-63.3687 L 55.389,-63.3197 L 55.2333,-63.251
 L 55.0945,-63.1627 L 54.9727,-63.0548 L 54.8689,-62.9286 L 54.7839,-62.7854 L 54.7178,-62.6252 L 54.6706,-62.448
 L 54.6423,-62.2539 L 54.6329,-62.0428 L 54.6427,-61.8319 L 54.672,-61.6372 L 54.7209,-61.4587 L 54.7894,-61.2964
 L 54.8775,-61.1502 L 54.9851,-61.0203 L 55.1106,-60.9086 L 55.2525,-60.8172 L 55.4106,-60.7462 L 55.5851,-60.6954
 L 55.7758,-60.6649 L 55.9829,-60.6548 z
M 61.5981,-60.6595 L 61.7263,-60.6735 L 61.8488,-60.6968 L 61.9655,-60.7295 L 62.0766,-60.7715 L 62.182,-60.8228
 L 62.2806,-60.883 L 62.3712,-60.9514 L 62.454,-61.0281 L 62.5288,-61.1131 L 62.5958,-61.2064 L 62.6548,-61.308
 L 62.7053,-61.4164 L 62.7466,-61.5305 L 62.7787,-61.6502 L 62.8016,-61.7755 L 62.8154,-61.9063 L 62.82,-62.0428
 L 62.81,-62.2472 L 62.7802,-62.4366 L 62.7305,-62.611 L 62.6609,-62.7702 L 62.5714,-62.9143 L 62.4621,-63.0434
 L 62.335,-63.1548 L 62.1926,-63.2459 L 62.0346,-63.3168 L 61.8612,-63.3674 L 61.6724,-63.3978 L 61.4681,-63.408
 L 61.2638,-63.3979 L 61.075,-63.3679 L 60.9018,-63.3178 L 60.744,-63.2476 L 60.6018,-63.1574 L 60.475,-63.0472
 L 60.366,-62.9191 L 60.2767,-62.7752 L 60.2073,-62.6157 L 60.1577,-62.4404 L 60.128,-62.2495 L 60.1181,-62.0428
 L 60.128,-61.8352 L 60.1578,-61.6429 L 60.2076,-61.4658 L 60.2771,-61.3039 L 60.3666,-61.1573 L 60.476,-61.026
 L 60.6029,-60.9126 L 60.7449,-60.8198 L 60.902,-60.7476 L 61.0743,-60.696 L 61.2617,-60.6651 L 61.4643,-60.6548
 z
M 61.3476,-61.1023 L 61.2395,-61.1234 L 61.1398,-61.1587 L 61.0487,-61.2079 L 60.966,-61.2713 L 60.8918,-61.3488
 L 60.8277,-61.4385 L 60.7753,-61.5385 L 60.7345,-61.649 L 60.7053,-61.7699 L 60.6878,-61.9011 L 60.682,-62.0428
 L 60.6877,-62.183 L 60.7048,-62.3125 L 60.7333,-62.4313 L 60.7731,-62.5394 L 60.8244,-62.6368 L 60.8871,-62.7234
 L 60.9602,-62.798 L 61.0428,-62.859 L 61.1348,-62.9064 L 61.2364,-62.9403 L 61.3475,-62.9607 L 61.4681,-62.9674
 L 61.5869,-62.9606 L 61.6966,-62.9401 L 61.797,-62.906 L 61.8883,-62.8582 L 61.9705,-62.7967 L 62.0434,-62.7215
 L 62.1061,-62.6344 L 62.1573,-62.5368 L 62.1972,-62.4289 L 62.2257,-62.3106 L 62.2428,-62.1819 L 62.2485,-62.0428
 L 62.2428,-61.8973 L 62.2258,-61.7632 L 62.1974,-61.6407 L 62.1577,-61.5297 L 62.1067,-61.4302 L 62.0444,-61.3421
 L 61.9715,-61.2667 L 61.8892,-61.205 L 61.7973,-61.157 L 61.6958,-61.1227 L 61.5848,-61.1021 L 61.4643,-61.0953
 z
M 54.4093,-61.1257 L 52.9738,-61.1257 L 52.9738,-63.3681 L 52.4137,-63.3681 L 52.4137,-60.6928 L 54.4093,-60.6928
 z
M 49.6545,-63.3681 L 49.0754,-63.3681 L 48.5267,-61.6497 L 48.4298,-61.308 L 48.39,-61.1447 L 48.3613,-61.2526
 L 48.3347,-61.351 L 48.3102,-61.4399 L 48.2878,-61.5193 L 48.2676,-61.5893 L 48.2495,-61.6497 L 47.6988,-63.3681
 L 47.114,-63.3681 L 48.1033,-60.6928 L 48.671,-60.6928 z
M 52.0623,-61.1257 L 50.4408,-61.1257 L 50.4408,-61.8301 L 51.8686,-61.8301 L 51.8686,-62.263 L 50.4408,-62.263
 L 50.4408,-62.9352 L 51.9845,-62.9352 L 51.9845,-63.3681 L 49.8806,-63.3681 L 49.8806,-60.6928 L 52.0623,-60.6928
 z
M 58.0362,-61.7086 L 58.6932,-61.7086 L 59.3141,-60.6928 L 59.9445,-60.6928 L 59.2211,-61.8168 L 59.3084,-61.8422
 L 59.3896,-61.8754 L 59.4646,-61.9163 L 59.5333,-61.9649 L 59.5958,-62.0213 L 59.6521,-62.0855 L 59.7008,-62.1556
 L 59.7407,-62.2301 L 59.7717,-62.3088 L 59.7939,-62.3918 L 59.8071,-62.4791 L 59.8116,-62.5706 L 59.8044,-62.6941
 L 59.7827,-62.8076 L 59.7465,-62.9112 L 59.696,-63.0048 L 59.6309,-63.0884 L 59.5514,-63.1621 L 59.4586,-63.225
 L 59.3537,-63.2765 L 59.2367,-63.3166 L 59.1075,-63.3452 L 58.9662,-63.3624 L 58.8128,-63.3681 L 57.4761,-63.3681
 L 57.4761,-60.6928 L 58.0362,-60.6928 z
M 58.0362,-62.1434 L 58.0362,-62.9333 L 58.754,-62.9333 L 58.9048,-62.9226 L 59.0282,-62.8904 L 59.1242,-62.8369
 L 59.1928,-62.762 L 59.2339,-62.6656 L 59.2476,-62.5478 L 59.2442,-62.4863 L 59.2341,-62.4295 L 59.2172,-62.3774
 L 59.1936,-62.3301 L 59.1632,-62.2875 L 59.1261,-62.2497 L 59.0824,-62.2172 L 59.0324,-62.1906 L 58.9761,-62.17
 L 58.9135,-62.1552 L 58.8445,-62.1463 L 58.7692,-62.1434 z
M 170.508,-53.79 L 171.004,-53.9091 L 171.475,-54.1042 L 171.91,-54.3707 L 172.298,-54.7019 L 172.629,-55.0897
 L 172.896,-55.5245 L 173.091,-55.9957 L 173.21,-56.4916 L 173.25,-57 L 173.21,-57.5084 L 173.091,-58.0043
 L 172.896,-58.4755 L 172.629,-58.9103 L 172.298,-59.2981 L 171.91,-59.6293 L 171.475,-59.8958 L 171.004,-60.0909
 L 170.508,-60.21 L 170,-60.25 L 169.492,-60.21 L 168.996,-60.0909 L 168.525,-59.8958 L 168.09,-59.6293
 L 167.702,-59.2981 L 167.371,-58.9103 L 167.104,-58.4755 L 166.909,-58.0043 L 166.79,-57.5084 L 166.75,-57
 L 166.79,-56.4916 L 166.909,-55.9957 L 167.104,-55.5245 L 167.371,-55.0897 L 167.702,-54.7019 L 168.09,-54.3707
 L 168.525,-54.1042 L 168.996,-53.9091 L 169.492,-53.79 L 170,-53.75 z
M 169.554,-54.1851 L 169.119,-54.2895 L 168.706,-54.4606 L 168.325,-54.6943 L 167.985,-54.9848 L 167.694,-55.3248
 L 167.461,-55.7061 L 167.289,-56.1193 L 167.185,-56.5542 L 167.15,-57 L 167.185,-57.4458 L 167.289,-57.8807
 L 167.461,-58.2939 L 167.694,-58.6752 L 167.985,-59.0152 L 168.325,-59.3057 L 168.706,-59.5394 L 169.119,-59.7105
 L 169.554,-59.8149 L 170,-59.85 L 170.446,-59.8149 L 170.881,-59.7105 L 171.294,-59.5394 L 171.675,-59.3057
 L 172.015,-59.0152 L 172.306,-58.6752 L 172.539,-58.2939 L 172.711,-57.8807 L 172.815,-57.4458 L 172.85,-57
 L 172.815,-56.5542 L 172.711,-56.1193 L 172.539,-55.7061 L 172.306,-55.3248 L 172.015,-54.9848 L 171.675,-54.6943
 L 171.294,-54.4606 L 170.881,-54.2895 L 170.446,-54.1851 L 170,-54.15 z
M 138.209,-54.6606 L 138.374,-54.6779 L 138.524,-54.7068 L 138.659,-54.7472 L 138.779,-54.7992 L 138.884,-54.8627
 L 138.973,-54.9371 L 139.046,-55.0219 L 139.102,-55.1169 L 139.143,-55.2222 L 139.167,-55.3378 L 139.175,-55.4637
 L 139.174,-55.5183 L 139.17,-55.5707 L 139.162,-55.621 L 139.152,-55.6691 L 139.14,-55.7151 L 139.124,-55.7589
 L 139.106,-55.8006 L 139.085,-55.8403 L 139.061,-55.8781 L 139.035,-55.9138 L 139.007,-55.9475 L 138.976,-55.9792
 L 138.942,-56.0092 L 138.904,-56.038 L 138.862,-56.0655 L 138.816,-56.0918 L 138.766,-56.1168 L 138.713,-56.1405
 L 138.651,-56.164 L 138.578,-56.1881 L 138.492,-56.2129 L 138.394,-56.2384 L 138.284,-56.2646 L 138.161,-56.2915
 L 138.059,-56.3142 L 137.969,-56.3357 L 137.891,-56.3558 L 137.825,-56.3746 L 137.772,-56.3921 L 137.73,-56.4082
 L 137.696,-56.4243 L 137.665,-56.4415 L 137.637,-56.4598 L 137.612,-56.4791 L 137.589,-56.4996 L 137.57,-56.5212
 L 137.553,-56.5444 L 137.54,-56.5698 L 137.529,-56.5972 L 137.522,-56.6267 L 137.517,-56.6584 L 137.516,-56.6921
 L 137.53,-56.7896 L 137.572,-56.8694 L 137.643,-56.9314 L 137.742,-56.9757 L 137.869,-57.0023 L 138.025,-57.0111
 L 138.101,-57.0087 L 138.172,-57.0014 L 138.236,-56.9893 L 138.294,-56.9723 L 138.346,-56.9505 L 138.392,-56.9238
 L 138.432,-56.8923 L 138.468,-56.856 L 138.499,-56.8151 L 138.525,-56.7693 L 138.546,-56.7189 L 138.562,-56.6636
 L 139.105,-56.7377 L 139.076,-56.8517 L 139.037,-56.9544 L 138.988,-57.0458 L 138.93,-57.1259 L 138.861,-57.1947
 L 138.783,-57.2522 L 138.693,-57.2998 L 138.589,-57.3388 L 138.472,-57.369 L 138.34,-57.3907 L 138.195,-57.4036
 L 138.036,-57.408 L 137.869,-57.4026 L 137.717,-57.3866 L 137.578,-57.3598 L 137.452,-57.3223 L 137.341,-57.2741
 L 137.243,-57.2152 L 137.16,-57.1463 L 137.092,-57.0679 L 137.039,-56.98 L 137.001,-56.8827 L 136.978,-56.776
 L 136.971,-56.6599 L 136.972,-56.6133 L 136.975,-56.5685 L 136.98,-56.5255 L 136.987,-56.4843 L 136.997,-56.4449
 L 137.008,-56.4073 L 137.021,-56.3714 L 137.036,-56.3371 L 137.052,-56.3043 L 137.07,-56.2731 L 137.09,-56.2436
 L 137.111,-56.2155 L 137.134,-56.189 L 137.159,-56.1638 L 137.185,-56.1398 L 137.213,-56.1172 L 137.242,-56.0959
 L 137.273,-56.076 L 137.305,-56.0571 L 137.339,-56.039 L 137.373,-56.0219 L 137.409,-56.0055 L 137.447,-55.99
 L 137.485,-55.9754 L 137.53,-55.9604 L 137.584,-55.9438 L 137.649,-55.9258 L 137.723,-55.9062 L 137.808,-55.8851
 L 137.903,-55.8624 L 138.013,-55.8396 L 138.11,-55.8179 L 138.194,-55.7973 L 138.266,-55.778 L 138.326,-55.7598
 L 138.373,-55.7428 L 138.412,-55.7256 L 138.449,-55.7071 L 138.482,-55.6872 L 138.512,-55.666 L 138.539,-55.6433
 L 138.563,-55.6193 L 138.583,-55.5936 L 138.6,-55.5656 L 138.613,-55.5353 L 138.623,-55.5029 L 138.628,-55.4682
 L 138.63,-55.4314 L 138.614,-55.3223 L 138.565,-55.233 L 138.484,-55.1636 L 138.37,-55.1141 L 138.223,-55.0843
 L 138.044,-55.0744 L 137.953,-55.0771 L 137.869,-55.0851 L 137.792,-55.0984 L 137.721,-55.117 L 137.658,-55.141
 L 137.601,-55.1703 L 137.551,-55.2055 L 137.506,-55.2472 L 137.468,-55.2954 L 137.435,-55.35 L 137.408,-55.4112
 L 137.387,-55.4788 L 136.846,-55.3896 L 136.879,-55.2714 L 136.924,-55.1637 L 136.981,-55.0663 L 137.05,-54.9795
 L 137.13,-54.903 L 137.221,-54.8371 L 137.325,-54.7814 L 137.441,-54.7358 L 137.569,-54.7004 L 137.71,-54.675
 L 137.863,-54.6599 L 138.028,-54.6548 z
M 141.021,-54.6983 L 141.166,-54.7149 L 141.298,-54.7426 L 141.419,-54.7814 L 141.528,-54.8312 L 141.625,-54.8921
 L 141.708,-54.9632 L 141.777,-55.0434 L 141.83,-55.1328 L 141.868,-55.2314 L 141.891,-55.3391 L 141.898,-55.4561
 L 141.893,-55.5442 L 141.879,-55.6264 L 141.856,-55.7027 L 141.823,-55.7729 L 141.78,-55.8372 L 141.728,-55.8956
 L 141.667,-55.9474 L 141.598,-55.9921 L 141.52,-56.0297 L 141.433,-56.0602 L 141.338,-56.0835 L 141.234,-56.0997
 L 141.316,-56.1209 L 141.391,-56.1477 L 141.459,-56.1802 L 141.519,-56.2183 L 141.572,-56.262 L 141.618,-56.3114
 L 141.657,-56.3656 L 141.688,-56.4238 L 141.713,-56.4859 L 141.73,-56.5519 L 141.741,-56.6219 L 141.744,-56.6959
 L 141.737,-56.8022 L 141.716,-56.8994 L 141.681,-56.9876 L 141.633,-57.0668 L 141.57,-57.137 L 141.493,-57.1981
 L 141.402,-57.2501 L 141.299,-57.2925 L 141.182,-57.3256 L 141.051,-57.3492 L 140.908,-57.3634 L 140.751,-57.3681
 L 139.527,-57.3681 L 139.527,-54.6928 L 140.865,-54.6928 z
M 140.087,-56.2896 L 140.087,-56.9523 L 140.725,-56.9523 L 140.797,-56.9501 L 140.863,-56.9438 L 140.923,-56.9333
 L 140.977,-56.9185 L 141.024,-56.8995 L 141.066,-56.8763 L 141.101,-56.8481 L 141.129,-56.8141 L 141.152,-56.7742
 L 141.168,-56.7286 L 141.177,-56.6772 L 141.18,-56.62 L 141.177,-56.5672 L 141.169,-56.519 L 141.154,-56.4754
 L 141.133,-56.4364 L 141.106,-56.402 L 141.073,-56.3722 L 141.034,-56.3469 L 140.987,-56.3263 L 140.933,-56.3102
 L 140.872,-56.2988 L 140.804,-56.2919 L 140.729,-56.2896 z
M 140.087,-55.1086 L 140.087,-55.8757 L 140.797,-55.8757 L 140.962,-55.8652 L 141.097,-55.8339 L 141.201,-55.7817
 L 141.276,-55.7086 L 141.321,-55.6146 L 141.336,-55.4997 L 141.333,-55.4373 L 141.322,-55.3802 L 141.305,-55.3286
 L 141.281,-55.2824 L 141.25,-55.2417 L 141.212,-55.2064 L 141.166,-55.1765 L 141.113,-55.152 L 141.051,-55.133
 L 140.981,-55.1194 L 140.904,-55.1113 L 140.818,-55.1086 z
M 135.546,-54.6626 L 135.715,-54.6859 L 135.869,-54.7248 L 136.01,-54.7793 L 136.136,-54.8493 L 136.248,-54.9348
 L 136.344,-55.0346 L 136.422,-55.147 L 136.483,-55.2721 L 136.527,-55.4099 L 136.553,-55.5605 L 136.562,-55.7238
 L 136.562,-57.3681 L 136.002,-57.3681 L 136.002,-55.758 L 135.997,-55.6551 L 135.984,-55.5606 L 135.961,-55.4743
 L 135.93,-55.3963 L 135.89,-55.3266 L 135.84,-55.2652 L 135.783,-55.2127 L 135.717,-55.1698 L 135.644,-55.1363
 L 135.563,-55.1125 L 135.475,-55.0982 L 135.379,-55.0934 L 135.285,-55.0979 L 135.2,-55.1116 L 135.122,-55.1344
 L 135.052,-55.1664 L 134.99,-55.2074 L 134.936,-55.2576 L 134.889,-55.3166 L 134.852,-55.3841 L 134.822,-55.4601
 L 134.801,-55.5446 L 134.789,-55.6375 L 134.785,-55.739 L 134.785,-57.3681 L 134.224,-57.3681 L 134.224,-55.6953
 L 134.233,-55.5347 L 134.257,-55.3869 L 134.298,-55.252 L 134.355,-55.1299 L 134.428,-55.0207 L 134.518,-54.9244
 L 134.623,-54.842 L 134.742,-54.7746 L 134.876,-54.7222 L 135.024,-54.6848 L 135.187,-54.6623 L 135.364,-54.6548
 z
M 143,-52 L 133,-52 L 133,-48 L 143,-48 z
M 133.4,-48.4 L 133.4,-51.6 L 142.6,-51.6 L 142.6,-48.4 z
M 87,-36 L 23,-36 L 23,-4 L 87,-4 z
M 23.4,-34.25 L 23.4,-35.6 L 24.75,-35.6 L 24.75,-34.25 z
M 25.25,-4.40001 L 25.25,-5.75 L 27,-5.75 L 27,-6.25 L 25.25,-6.25 L 25.25,-8
 L 24.75,-8 L 24.75,-6.25 L 23.4,-6.25 L 23.4,-33.75 L 24.75,-33.75 L 24.75,-32
 L 25.25,-32 L 25.25,-33.75 L 27,-33.75 L 27,-34.25 L 25.25,-34.25 L 25.25,-35.6
 L 84.75,-35.6 L 84.75,-34.25 L 83,-34.25 L 83,-33.75 L 84.75,-33.75 L 84.75,-32
 L 85.25,-32 L 85.25,-33.75 L 86.6,-33.75 L 86.6,-6.25 L 85.25,-6.25 L 85.25,-8
 L 84.75,-8 L 84.75,-6.25 L 83,-6.25 L 83,-5.75 L 84.75,-5.75 L 84.75,-4.40001
 z
M 66,-28 L 44,-28 L 44,-12 L 66,-12 z
M 44.4,-12.4 L 44.4,-27.6 L 65.6,-27.6 L 65.6,-12.4 z
M 85.25,-34.25 L 85.25,-35.6 L 86.6,-35.6 L 86.6,-34.25 z
M 23.4,-4.40001 L 23.4,-5.75 L 24.75,-5.75 L 24.75,-4.40001 z
M 85.25,-4.40001 L 85.25,-5.75 L 86.6,-5.75 L 86.6,-4.40001 z
M 2.5213,-18.4692 L 2.71019,-18.489 L 2.88176,-18.522 L 3.03604,-18.5682 L 3.17302,-18.6276 L 3.29269,-18.7002
 L 3.39449,-18.7853 L 3.47777,-18.8821 L 3.54254,-18.9907 L 3.58881,-19.1111 L 3.61656,-19.2432 L 3.62582,-19.387
 L 3.62419,-19.4494 L 3.61931,-19.5094 L 3.61118,-19.5668 L 3.59978,-19.6219 L 3.58513,-19.6744 L 3.56723,-19.7244
 L 3.54625,-19.7721 L 3.52238,-19.8175 L 3.49561,-19.8606 L 3.46596,-19.9014 L 3.4334,-19.94 L 3.39795,-19.9762
 L 3.35886,-20.0105 L 3.31537,-20.0434 L 3.26749,-20.0749 L 3.21519,-20.1049 L 3.15849,-20.1335 L 3.0974,-20.1606
 L 3.02716,-20.1874 L 2.94298,-20.215 L 2.84488,-20.2433 L 2.73286,-20.2725 L 2.6069,-20.3024 L 2.46704,-20.3331
 L 2.35028,-20.3591 L 2.24738,-20.3836 L 2.15834,-20.4066 L 2.08318,-20.4281 L 2.02187,-20.4481 L 1.97443,-20.4666
 L 1.93558,-20.4849 L 1.90005,-20.5045 L 1.86783,-20.5254 L 1.83893,-20.5476 L 1.81334,-20.571 L 1.79106,-20.5957
 L 1.77217,-20.6222 L 1.75671,-20.6512 L 1.74471,-20.6825 L 1.73611,-20.7163 L 1.73096,-20.7524 L 1.72925,-20.791
 L 1.74539,-20.9024 L 1.79387,-20.9935 L 1.87463,-21.0644 L 1.98772,-21.1151 L 2.1331,-21.1454 L 2.31081,-21.1556
 L 2.39842,-21.1528 L 2.47897,-21.1445 L 2.55249,-21.1306 L 2.61894,-21.1112 L 2.67833,-21.0862 L 2.73068,-21.0557
 L 2.77676,-21.0197 L 2.81737,-20.9783 L 2.85248,-20.9315 L 2.88211,-20.8792 L 2.90625,-20.8215 L 2.9249,-20.7584
 L 3.54553,-20.8431 L 3.51241,-20.9733 L 3.468,-21.0907 L 3.41234,-21.1952 L 3.3454,-21.2867 L 3.26718,-21.3654
 L 3.17769,-21.4311 L 3.07471,-21.4855 L 2.95599,-21.53 L 2.82155,-21.5646 L 2.67137,-21.5893 L 2.50545,-21.6042
 L 2.32381,-21.6091 L 2.13348,-21.603 L 1.95889,-21.5846 L 1.80003,-21.554 L 1.65691,-21.5112 L 1.52951,-21.4561
 L 1.41785,-21.3888 L 1.32271,-21.31 L 1.24486,-21.2204 L 1.18431,-21.12 L 1.14105,-21.0089 L 1.11511,-20.8869
 L 1.10646,-20.7541 L 1.10764,-20.7009 L 1.11116,-20.6497 L 1.11703,-20.6006 L 1.12526,-20.5535 L 1.13583,-20.5085
 L 1.14876,-20.4655 L 1.1638,-20.4245 L 1.18071,-20.3852 L 1.19948,-20.3478 L 1.22012,-20.3122 L 1.24263,-20.2784
 L 1.267,-20.2463 L 1.29323,-20.216 L 1.32126,-20.1871 L 1.3511,-20.1598 L 1.38274,-20.134 L 1.4162,-20.1096
 L 1.45145,-20.0868 L 1.48834,-20.0652 L 1.52669,-20.0446 L 1.56647,-20.025 L 1.6077,-20.0063 L 1.65038,-19.9886
 L 1.69449,-19.9718 L 1.74513,-19.9547 L 1.80734,-19.9358 L 1.88113,-19.9152 L 1.96649,-19.8928 L 2.06343,-19.8686
 L 2.17194,-19.8427 L 2.29715,-19.8166 L 2.40808,-19.7919 L 2.50475,-19.7684 L 2.58711,-19.7463 L 2.65518,-19.7255
 L 2.70898,-19.706 L 2.75389,-19.6864 L 2.7953,-19.6653 L 2.83322,-19.6425 L 2.86763,-19.6182 L 2.89856,-19.5924
 L 2.92598,-19.565 L 2.94952,-19.5355 L 2.96878,-19.5035 L 2.98376,-19.4689 L 2.99448,-19.4319 L 3.0009,-19.3923
 L 3.00304,-19.3501 L 2.98441,-19.2255 L 2.92853,-19.1235 L 2.8354,-19.0442 L 2.70502,-18.9875 L 2.53738,-18.9535
 L 2.3325,-18.9422 L 2.22865,-18.9452 L 2.13263,-18.9543 L 2.04443,-18.9696 L 1.96408,-18.9909 L 1.89156,-19.0182
 L 1.82687,-19.0517 L 1.76944,-19.092 L 1.71863,-19.1396 L 1.67444,-19.1947 L 1.6369,-19.2572 L 1.60597,-19.3271
 L 1.5817,-19.4044 L 0.963226,-19.3024 L 1.00169,-19.1673 L 1.05341,-19.0442 L 1.11839,-18.933 L 1.19662,-18.8337
 L 1.28813,-18.7463 L 1.3929,-18.6709 L 1.51134,-18.6073 L 1.64389,-18.5552 L 1.79054,-18.5147 L 1.95129,-18.4858
 L 2.12616,-18.4684 L 2.31512,-18.4626 z
M 11.4456,-18.4692 L 11.6344,-18.489 L 11.806,-18.522 L 11.9603,-18.5682 L 12.0973,-18.6276 L 12.217,-18.7002
 L 12.3188,-18.7853 L 12.402,-18.8821 L 12.4668,-18.9907 L 12.5131,-19.1111 L 12.5408,-19.2432 L 12.5501,-19.387
 L 12.5485,-19.4494 L 12.5436,-19.5094 L 12.5354,-19.5668 L 12.524,-19.6219 L 12.5094,-19.6744 L 12.4915,-19.7244
 L 12.4705,-19.7721 L 12.4466,-19.8175 L 12.4199,-19.8606 L 12.3902,-19.9014 L 12.3577,-19.94 L 12.3222,-19.9762
 L 12.2831,-20.0105 L 12.2396,-20.0434 L 12.1917,-20.0749 L 12.1395,-20.1049 L 12.0828,-20.1335 L 12.0217,-20.1606
 L 11.9514,-20.1874 L 11.8672,-20.215 L 11.7691,-20.2433 L 11.6571,-20.2725 L 11.5312,-20.3024 L 11.3913,-20.3331
 L 11.2745,-20.3591 L 11.1716,-20.3836 L 11.0826,-20.4066 L 11.0074,-20.4281 L 10.9461,-20.4481 L 10.8987,-20.4666
 L 10.8598,-20.4849 L 10.8243,-20.5045 L 10.7921,-20.5254 L 10.7632,-20.5476 L 10.7376,-20.571 L 10.7153,-20.5957
 L 10.6964,-20.6222 L 10.681,-20.6512 L 10.669,-20.6825 L 10.6604,-20.7163 L 10.6552,-20.7524 L 10.6535,-20.791
 L 10.6697,-20.9024 L 10.7181,-20.9935 L 10.7989,-21.0644 L 10.912,-21.1151 L 11.0574,-21.1454 L 11.2351,-21.1556
 L 11.3227,-21.1528 L 11.4032,-21.1445 L 11.4767,-21.1306 L 11.5432,-21.1112 L 11.6026,-21.0862 L 11.655,-21.0557
 L 11.701,-21.0197 L 11.7416,-20.9783 L 11.7767,-20.9315 L 11.8064,-20.8792 L 11.8305,-20.8215 L 11.8492,-20.7584
 L 12.4698,-20.8431 L 12.4367,-20.9733 L 12.3923,-21.0907 L 12.3366,-21.1952 L 12.2697,-21.2867 L 12.1915,-21.3654
 L 12.102,-21.4311 L 11.999,-21.4855 L 11.8803,-21.53 L 11.7458,-21.5646 L 11.5956,-21.5893 L 11.4297,-21.6042
 L 11.2481,-21.6091 L 11.0578,-21.603 L 10.8832,-21.5846 L 10.7243,-21.554 L 10.5812,-21.5112 L 10.4538,-21.4561
 L 10.3421,-21.3888 L 10.247,-21.31 L 10.1691,-21.2204 L 10.1086,-21.12 L 10.0653,-21.0089 L 10.0394,-20.8869
 L 10.0307,-20.7541 L 10.0319,-20.7009 L 10.0354,-20.6497 L 10.0413,-20.6006 L 10.0495,-20.5535 L 10.0601,-20.5085
 L 10.073,-20.4655 L 10.0881,-20.4245 L 10.105,-20.3852 L 10.1237,-20.3478 L 10.1444,-20.3122 L 10.1669,-20.2784
 L 10.1913,-20.2463 L 10.2175,-20.216 L 10.2455,-20.1871 L 10.2754,-20.1598 L 10.307,-20.134 L 10.3405,-20.1096
 L 10.3757,-20.0868 L 10.4126,-20.0652 L 10.4509,-20.0446 L 10.4907,-20.025 L 10.532,-20.0063 L 10.5746,-19.9886
 L 10.6188,-19.9718 L 10.6694,-19.9547 L 10.7316,-19.9358 L 10.8054,-19.9152 L 10.8908,-19.8928 L 10.9877,-19.8686
 L 11.0962,-19.8427 L 11.2214,-19.8166 L 11.3324,-19.7919 L 11.429,-19.7684 L 11.5114,-19.7463 L 11.5795,-19.7255
 L 11.6333,-19.706 L 11.6782,-19.6864 L 11.7196,-19.6653 L 11.7575,-19.6425 L 11.7919,-19.6182 L 11.8228,-19.5924
 L 11.8503,-19.565 L 11.8738,-19.5355 L 11.8931,-19.5035 L 11.908,-19.4689 L 11.9187,-19.4319 L 11.9252,-19.3923
 L 11.9273,-19.3501 L 11.9087,-19.2255 L 11.8528,-19.1235 L 11.7597,-19.0442 L 11.6293,-18.9875 L 11.4617,-18.9535
 L 11.2568,-18.9422 L 11.1529,-18.9452 L 11.0569,-18.9543 L 10.9687,-18.9696 L 10.8884,-18.9909 L 10.8158,-19.0182
 L 10.7511,-19.0517 L 10.6937,-19.092 L 10.6429,-19.1396 L 10.5987,-19.1947 L 10.5612,-19.2572 L 10.5302,-19.3271
 L 10.506,-19.4044 L 9.88751,-19.3024 L 9.92596,-19.1673 L 9.97769,-19.0442 L 10.0426,-18.933 L 10.1209,-18.8337
 L 10.2124,-18.7463 L 10.3172,-18.6709 L 10.4356,-18.6073 L 10.5681,-18.5552 L 10.7148,-18.5147 L 10.8756,-18.4858
 L 11.0504,-18.4684 L 11.2394,-18.4626 z
M 14.5282,-18.468 L 14.6747,-18.4839 L 14.8146,-18.5106 L 14.9481,-18.548 L 15.075,-18.596 L 15.1954,-18.6546
 L 15.3081,-18.7234 L 15.4117,-18.8016 L 15.5063,-18.8893 L 15.5918,-18.9864 L 15.6683,-19.093 L 15.7358,-19.2091
 L 15.7935,-19.3331 L 15.8407,-19.4635 L 15.8774,-19.6002 L 15.9036,-19.7434 L 15.9193,-19.8929 L 15.9246,-20.0489
 L 15.9132,-20.2826 L 15.8791,-20.499 L 15.8223,-20.6982 L 15.7428,-20.8802 L 15.6405,-21.045 L 15.5155,-21.1925
 L 15.3703,-21.3198 L 15.2075,-21.4239 L 15.027,-21.5049 L 14.8289,-21.5628 L 14.613,-21.5975 L 14.3795,-21.6091
 L 14.1461,-21.5976 L 13.9304,-21.5633 L 13.7323,-21.506 L 13.5521,-21.4258 L 13.3895,-21.3228 L 13.2446,-21.1968
 L 13.12,-21.0504 L 13.018,-20.886 L 12.9387,-20.7037 L 12.882,-20.5034 L 12.848,-20.2851 L 12.8367,-20.0489
 L 12.848,-19.8117 L 12.8821,-19.5918 L 12.9389,-19.3895 L 13.0185,-19.2045 L 13.1207,-19.037 L 13.2457,-18.8868
 L 13.3907,-18.7572 L 13.553,-18.6512 L 13.7326,-18.5687 L 13.9295,-18.5098 L 14.1437,-18.4744 L 14.3752,-18.4626
 z
M 14.2419,-18.9741 L 14.1183,-18.9982 L 14.0044,-19.0385 L 13.9002,-19.0948 L 13.8057,-19.1672 L 13.721,-19.2557
 L 13.6477,-19.3582 L 13.5878,-19.4726 L 13.5411,-19.5989 L 13.5078,-19.737 L 13.4878,-19.887 L 13.4812,-20.0489
 L 13.4877,-20.2091 L 13.5072,-20.3571 L 13.5398,-20.4929 L 13.5853,-20.6164 L 13.6439,-20.7277 L 13.7155,-20.8268
 L 13.7991,-20.912 L 13.8935,-20.9817 L 13.9987,-21.0359 L 14.1148,-21.0747 L 14.2418,-21.0979 L 14.3795,-21.1056
 L 14.5154,-21.0978 L 14.6407,-21.0744 L 14.7555,-21.0354 L 14.8598,-20.9807 L 14.9537,-20.9105 L 15.037,-20.8246
 L 15.1087,-20.725 L 15.1673,-20.6135 L 15.2128,-20.4902 L 15.2454,-20.3549 L 15.2649,-20.2079 L 15.2714,-20.0489
 L 15.2649,-19.8826 L 15.2455,-19.7294 L 15.2131,-19.5894 L 15.1677,-19.4625 L 15.1094,-19.3488 L 15.0381,-19.2482
 L 14.9549,-19.162 L 14.8608,-19.0914 L 14.7558,-19.0366 L 14.6398,-18.9974 L 14.513,-18.9739 L 14.3752,-18.966
 z
M 6.52075,-19.0008 L 4.66757,-19.0008 L 4.66757,-19.8058 L 6.29941,-19.8058 L 6.29941,-20.3006 L 4.66757,-20.3006
 L 4.66757,-21.0688 L 6.43179,-21.0688 L 6.43179,-21.5635 L 4.02742,-21.5635 L 4.02742,-18.506 L 6.52075,-18.506
 z
M 7.49089,-20.3092 L 7.48981,-20.3824 L 7.48656,-20.4631 L 7.48114,-20.5512 L 7.47354,-20.6468 L 7.46378,-20.7499
 L 7.45186,-20.8605 L 8.78421,-18.506 L 9.53505,-18.506 L 9.53505,-21.5635 L 8.96651,-21.5635 L 8.96651,-19.7863
 L 8.96759,-19.695 L 8.97084,-19.6004 L 8.97627,-19.5026 L 8.98386,-19.4015 L 8.99362,-19.2972 L 9.00555,-19.1896
 L 7.65364,-21.5635 L 6.92235,-21.5635 L 6.92235,-18.506 L 7.49089,-18.506 z
M 16.9678,-19.667 L 17.7187,-19.667 L 18.4283,-18.506 L 19.1487,-18.506 L 18.3219,-19.7906 L 18.4218,-19.8197
 L 18.5146,-19.8576 L 18.6002,-19.9043 L 18.6788,-19.9599 L 18.7502,-20.0244 L 18.8145,-20.0977 L 18.8702,-20.1779
 L 18.9158,-20.263 L 18.9512,-20.3529 L 18.9765,-20.4478 L 18.9917,-20.5475 L 18.9968,-20.6521 L 18.9885,-20.7933
 L 18.9638,-20.923 L 18.9225,-21.0414 L 18.8647,-21.1483 L 18.7903,-21.2439 L 18.6995,-21.3281 L 18.5935,-21.4
 L 18.4736,-21.4589 L 18.3398,-21.5047 L 18.1922,-21.5374 L 18.0307,-21.557 L 17.8554,-21.5635 L 16.3277,-21.5635
 L 16.3277,-18.506 L 16.9678,-18.506 z
M 16.9678,-20.1639 L 16.9678,-21.0666 L 17.7881,-21.0666 L 17.9605,-21.0544 L 18.1015,-21.0177 L 18.2112,-20.9565
 L 18.2896,-20.8708 L 18.3366,-20.7607 L 18.3523,-20.6261 L 18.3484,-20.5557 L 18.3369,-20.4908 L 18.3176,-20.4313
 L 18.2906,-20.3773 L 18.2558,-20.3286 L 18.2134,-20.2854 L 18.1635,-20.2483 L 18.1064,-20.2179 L 18.042,-20.1943
 L 17.9704,-20.1774 L 17.8915,-20.1673 L 17.8055,-20.1639 z
"/>
</g>
</svg>