<svg xmlns="http://www.w3.org/2000/svg" version="1.1" width="232mm" height="170mm" viewBox="0 -170 232 170">
<g id="cut" fill="none" stroke="#000000" stroke-width="0.2">
<path d="
M 33,-94.5 L 45,-94.5 L 45,-91.6 L 65,-91.6 L 65,-94.5 L 77,-94.5
 L 77,-91.6 L 97,-91.6 L 97,-94.5 L 107.1,-94.5 L 107.1,-102.6 L 110,-102.6
 L 110,-122.6 L 107.1,-122.6 L 107.1,-138.6 L 110,-138.6 L 110,-158.6 L 107.1,-158.6
 L 107.1,-166.7 L 97,-166.7 L 97,-169.6 L 77,-169.6 L 77,-166.7 L 65,-166.7
 L 65,-169.6 L 45,-169.6 L 45,-166.7 L 33,-166.7 L 33,-169.6 L 13,-169.6
 L 13,-166.7 L 2.89999,-166.7 L 2.89999,-158.6 L 0,-158.6 L 0,-138.6 L 2.89999,-138.6
 L 2.89999,-122.6 L 0,-122.6 L 0,-102.6 L 2.89999,-102.6 L 2.89999,-94.5 L 13,-94.5
 L 13,-91.6 L 33,-91.6 z
M 155,-94.5 L 170,-94.5 L 170.086,-95.595 L 170.343,-96.6631 L 170.763,-97.6779 L 171.337,-98.6145
 L 172.05,-99.4497 L 172.885,-100.163 L 173.822,-100.737 L 174.837,-101.157 L 175.905,-101.414 L 177,-101.5
 L 178.095,-101.414 L 179.163,-101.157 L 180.178,-100.737 L 181.114,-100.163 L 181.95,-99.4497 L 182.663,-98.6145
 L 183.237,-97.6779 L 183.657,-96.6631 L 183.914,-95.595 L 184,-94.5 L 199,-94.5 L 199,-91.6
 L 219,-91.6 L 219,-94.5 L 229.1,-94.5 L 229.1,-102.6 L 232,-102.6 L 232,-122.6
 L 229.1,-122.6 L 229.1,-138.6 L 232,-138.6 L 232,-158.6 L 229.1,-158.6 L 229.1,-166.7
 L 219,-166.7 L 219,-169.6 L 199,-169.6 L 199,-166.7 L 187,-166.7 L 187,-169.6
 L 167,-169.6 L 167,-166.7 L 155,-166.7 L 155,-169.6 L 135,-169.6 L 135,-166.7
 L 124.9,-166.7 L 124.9,-158.6 L 122,-158.6 L 122,-138.6 L 124.9,-138.6 L 124.9,-122.6
 L 122,-122.6 L 122,-102.6 L 124.9,-102.6 L 124.9,-94.5 L 135,-94.5 L 135,-91.6
 L 155,-91.6 z
M 13,-48.7 L 33,-48.7 L 33,-45.8 L 45,-45.8 L 45,-48.7 L 65,-48.7
 L 65,-45.8 L 77,-45.8 L 77,-48.7 L 97,-48.7 L 97,-45.8 L 110,-45.8
 L 110,-53.76 L 107.09,-53.76 L 107.09,-61.72 L 110,-61.72 L 110,-69.68 L 107.09,-69.68
 L 107.09,-77.64 L 110,-77.64 L 110,-85.6 L 97,-85.6 L 97,-82.7 L 77,-82.7
 L 77,-85.6 L 65,-85.6 L 65,-82.7 L 45,-82.7 L 45,-85.6 L 33,-85.6
 L 33,-82.7 L 13,-82.7 L 13,-85.6 L 0,-85.6 L 0,-77.64 L 2.90999,-77.64
 L 2.90999,-69.68 L 0,-69.68 L 0,-61.72 L 2.90999,-61.72 L 2.90999,-53.76 L 0,-53.76
 L 0,-45.8 L 13,-45.8 z
M 25.5,-53.7 L 25.5,-77.7 L 30.5,-77.7 L 30.5,-53.7 z
M 79.5,-53.7 L 79.5,-77.7 L 84.5,-77.7 L 84.5,-53.7 z
M 133,-48.7 L 136.5,-48.7 L 136.5,-55.9 L 149.5,-55.9 L 149.5,-48.7 L 153,-48.7
 L 153,-45.8 L 169,-45.8 L 169,-48.7 L 189,-48.7 L 189,-45.8 L 197.09,-45.8
 L 197.09,-53.76 L 200,-53.76 L 200,-61.72 L 197.09,-61.72 L 197.09,-69.68 L 200,-69.68
 L 200,-77.64 L 197.09,-77.64 L 197.09,-85.6 L 189,-85.6 L 189,-82.7 L 169,-82.7
 L 169,-85.6 L 153,-85.6 L 153,-82.7 L 133,-82.7 L 133,-85.6 L 124.91,-85.6
 L 124.91,-77.64 L 122,-77.64 L 122,-69.68 L 124.91,-69.68 L 124.91,-61.72 L 122,-61.72
 L 122,-53.76 L 124.91,-53.76 L 124.91,-45.8 L 133,-45.8 z
M 185.296,-50.2554 L 184.609,-50.4202 L 183.957,-50.6904 L 183.355,-51.0594 L 182.818,-51.518 L 182.359,-52.0549
 L 181.99,-52.657 L 181.72,-53.3094 L 181.555,-53.996 L 181.5,-54.7 L 181.555,-55.4039 L 181.72,-56.0906
 L 181.99,-56.7429 L 182.359,-57.345 L 182.818,-57.882 L 183.355,-58.3406 L 183.957,-58.7095 L 184.609,-58.9797
 L 185.296,-59.1446 L 186,-59.2 L 186.704,-59.1446 L 187.391,-58.9797 L 188.043,-58.7095 L 188.645,-58.3406
 L 189.182,-57.882 L 189.641,-57.345 L 190.01,-56.7429 L 190.28,-56.0906 L 190.445,-55.4039 L 190.5,-54.7
 L 190.445,-53.996 L 190.28,-53.3094 L 190.01,-52.657 L 189.641,-52.0549 L 189.182,-51.518 L 188.645,-51.0594
 L 188.043,-50.6904 L 187.391,-50.4202 L 186.704,-50.2554 L 186,-50.2 z
M 13,-2.89999 L 33,-2.89999 L 33,-0 L 45,-0 L 45,-2.89999 L 65,-2.89999
 L 65,-0 L 77,-0 L 77,-2.89999 L 97,-2.89999 L 97,-0 L 110,-0
 L 110,-7.95999 L 107.09,-7.95999 L 107.09,-15.92 L 110,-15.92 L 110,-23.88 L 107.09,-23.88
 L 107.09,-31.84 L 110,-31.84 L 110,-39.8 L 97,-39.8 L 97,-36.9 L 77,-36.9
 L 77,-39.8 L 33,-39.8 L 33,-36.9 L 13,-36.9 L 13,-39.8 L 0,-39.8
 L 0,-31.84 L 2.90999,-31.84 L 2.90999,-23.88 L 0,-23.88 L 0,-15.92 L 2.90999,-15.92
 L 2.90999,-7.95999 L 0,-7.95999 L 0,-0 L 13,-0 z
M 27,-7.89999 L 27,-31.9 L 83,-31.9 L 83,-7.89999 z
M 133,-2.89999 L 153,-2.89999 L 153,-0 L 169,-0 L 169,-2.89999 L 189,-2.89999
 L 189,-0 L 197.09,-0 L 197.09,-7.95999 L 200,-7.95999 L 200,-15.92 L 197.09,-15.92
 L 197.09,-23.88 L 200,-23.88 L 200,-31.84 L 197.09,-31.84 L 197.09,-39.8 L 189,-39.8
 L 189,-36.9 L 169,-36.9 L 169,-39.8 L 153,-39.8 L 153,-36.9 L 133,-36.9
 L 133,-39.8 L 124.91,-39.8 L 124.91,-31.84 L 122,-31.84 L 122,-23.88 L 124.91,-23.88
 L 124.91,-15.92 L 122,-15.92 L 122,-7.95999 L 124.91,-7.95999 L 124.91,-0 L 133,-0
 z
M 142.123,-7.04773 L 140.292,-7.48732 L 138.552,-8.20792 L 136.947,-9.19179 L 135.515,-10.4147 L 134.292,-11.8466
 L 133.308,-13.4521 L 132.587,-15.1918 L 132.148,-17.0228 L 132,-18.9 L 132.148,-20.7772 L 132.587,-22.6082
 L 133.308,-24.3479 L 134.292,-25.9534 L 135.515,-27.3853 L 136.947,-28.6082 L 138.552,-29.5921 L 140.292,-30.3127
 L 142.123,-30.7523 L 144,-30.9 L 145.877,-30.7523 L 147.708,-30.3127 L 149.448,-29.5921 L 151.053,-28.6082
 L 152.485,-27.3853 L 153.708,-25.9534 L 154.692,-24.3479 L 155.413,-22.6082 L 155.852,-20.7772 L 156,-18.9
 L 155.852,-17.0228 L 155.413,-15.1918 L 154.692,-13.4521 L 153.708,-11.8466 L 152.485,-10.4147 L 151.053,-9.19179
 L 149.448,-8.20792 L 147.708,-7.48732 L 145.877,-7.04773 L 144,-6.89999 z
M 168.95,-6.39 L 168.95,-18.09 L 189.25,-18.09 L 189.25,-6.39 z
"/>
</g>
<g id="etch" fill="#ff0000" stroke="#ff0000" stroke-width="0.1">
<path d="
M 107.1,-161.565 L 89.87,-161.565 L 89.87,-129.635 L 107.1,-129.635 z
M 90.27,-130.035 L 90.27,-161.165 L 106.7,-161.165 L 106.7,-130.035 z
M 101.936,-144.069 L 102.086,-144.087 L 102.229,-144.117 L 102.364,-144.159 L 102.492,-144.213 L 102.612,-144.279
 L 102.723,-144.357 L 102.825,-144.448 L 102.918,-144.551 L 103.001,-144.667 L 103.075,-144.796 L 103.14,-144.937
 L 102.582,-145.148 L 102.497,-144.97 L 102.393,-144.825 L 102.268,-144.711 L 102.124,-144.631 L 101.961,-144.582
 L 101.777,-144.566 L 101.638,-144.574 L 101.509,-144.597 L 101.392,-144.635 L 101.287,-144.689 L 101.193,-144.759
 L 101.11,-144.844 L 101.039,-144.943 L 100.982,-145.057 L 100.937,-145.184 L 100.905,-145.325 L 100.885,-145.48
 L 100.879,-145.649 L 100.885,-145.815 L 100.904,-145.967 L 100.935,-146.105 L 100.979,-146.229 L 101.035,-146.34
 L 101.104,-146.437 L 101.184,-146.519 L 101.277,-146.586 L 101.38,-146.638 L 101.496,-146.676 L 101.623,-146.698
 L 101.762,-146.706 L 101.855,-146.702 L 101.943,-146.691 L 102.028,-146.672 L 102.108,-146.645 L 102.184,-146.611
 L 102.256,-146.57 L 102.322,-146.522 L 102.38,-146.469 L 102.431,-146.411 L 102.474,-146.347 L 102.509,-146.278
 L 102.537,-146.204 L 103.101,-146.358 L 103.05,-146.492 L 102.987,-146.615 L 102.914,-146.727 L 102.829,-146.827
 L 102.733,-146.916 L 102.626,-146.993 L 102.507,-147.059 L 102.378,-147.113 L 102.237,-147.155 L 102.086,-147.185
 L 101.923,-147.203 L 101.749,-147.209 L 101.513,-147.198 L 101.296,-147.164 L 101.099,-147.108 L 100.921,-147.03
 L 100.762,-146.929 L 100.623,-146.805 L 100.504,-146.661 L 100.407,-146.498 L 100.332,-146.315 L 100.278,-146.112
 L 100.245,-145.89 L 100.234,-145.649 L 100.246,-145.408 L 100.279,-145.185 L 100.335,-144.981 L 100.413,-144.796
 L 100.514,-144.629 L 100.637,-144.48 L 100.78,-144.353 L 100.943,-144.248 L 101.123,-144.167 L 101.323,-144.109
 L 101.541,-144.074 L 101.777,-144.063 z
M 95.4609,-144.111 L 95.5988,-144.127 L 95.7312,-144.153 L 95.8581,-144.189 L 95.9796,-144.236 L 96.0955,-144.293
 L 96.2044,-144.359 L 96.3048,-144.435 L 96.3966,-144.521 L 96.4799,-144.615 L 96.5545,-144.719 L 96.6207,-144.832
 L 96.6774,-144.953 L 96.7237,-145.08 L 96.7598,-145.215 L 96.7856,-145.356 L 96.801,-145.503 L 96.8062,-145.658
 L 96.7944,-145.89 L 96.7592,-146.105 L 96.7004,-146.3 L 96.6181,-146.477 L 96.5123,-146.635 L 96.383,-146.774
 L 96.2323,-146.893 L 96.0621,-146.99 L 95.8726,-147.066 L 95.6636,-147.12 L 95.4352,-147.153 L 95.1874,-147.164
 L 94.0807,-147.164 L 94.0807,-144.106 L 95.3176,-144.106 z
M 94.7208,-144.601 L 94.7208,-146.669 L 95.1744,-146.669 L 95.3267,-146.662 L 95.4668,-146.64 L 95.5948,-146.604
 L 95.7106,-146.554 L 95.8142,-146.489 L 95.9057,-146.409 L 95.9839,-146.317 L 96.0479,-146.211 L 96.0977,-146.092
 L 96.1333,-145.96 L 96.1546,-145.815 L 96.1617,-145.658 L 96.155,-145.5 L 96.1347,-145.355 L 96.101,-145.22
 L 96.0537,-145.097 L 95.9929,-144.985 L 95.9187,-144.885 L 95.833,-144.798 L 95.7378,-144.727 L 95.6333,-144.672
 L 95.5194,-144.632 L 95.3961,-144.609 L 95.2633,-144.601 z
M 97.9399,-144.887 L 99.1051,-144.887 L 99.3764,-144.106 L 100.01,-144.106 L 98.899,-147.164 L 98.1438,-147.164
 L 97.0284,-144.106 L 97.6686,-144.106 z
M 98.0831,-145.369 L 98.1887,-145.677 L 98.2769,-145.935 L 98.3478,-146.143 L 98.4014,-146.301 L 98.4375,-146.409
 L 98.4563,-146.467 L 98.4662,-146.5 L 98.4756,-146.531 L 98.4845,-146.561 L 98.493,-146.59 L 98.5009,-146.618
 L 98.5084,-146.645 L 98.5214,-146.693 L 98.567,-146.543 L 98.6603,-146.248 L 98.9619,-145.369 z
M 57.9,-161.5 L 36.9,-161.5 L 36.9,-151.5 L 57.9,-151.5 z
M 37.3,-151.9 L 37.3,-161.1 L 57.5,-161.1 L 57.5,-151.9 z
M 49.0601,-155.304 L 49.1777,-155.318 L 49.2893,-155.341 L 49.395,-155.374 L 49.4947,-155.416 L 49.5884,-155.468
 L 49.6754,-155.529 L 49.7552,-155.6 L 49.8276,-155.681 L 49.8928,-155.771 L 49.9506,-155.872 L 50.0012,-155.982
 L 49.5655,-156.147 L 49.499,-156.008 L 49.4172,-155.894 L 49.3201,-155.806 L 49.2076,-155.743 L 49.0797,-155.705
 L 48.9365,-155.692 L 48.8274,-155.698 L 48.7271,-155.716 L 48.6358,-155.746 L 48.5534,-155.789 L 48.4798,-155.843
 L 48.4152,-155.909 L 48.36,-155.987 L 48.3149,-156.076 L 48.2798,-156.175 L 48.2547,-156.285 L 48.2397,-156.406
 L 48.2346,-156.538 L 48.2395,-156.668 L 48.2542,-156.787 L 48.2785,-156.895 L 48.3126,-156.992 L 48.3565,-157.078
 L 48.4101,-157.154 L 48.4731,-157.218 L 48.5453,-157.27 L 48.6265,-157.311 L 48.7168,-157.34 L 48.8162,-157.358
 L 48.9246,-157.364 L 48.997,-157.361 L 49.0662,-157.352 L 49.1321,-157.337 L 49.1948,-157.317 L 49.2542,-157.29
 L 49.3103,-157.258 L 49.3619,-157.22 L 49.4074,-157.179 L 49.447,-157.133 L 49.4806,-157.084 L 49.5082,-157.03
 L 49.5299,-156.972 L 49.9707,-157.093 L 49.9307,-157.197 L 49.8819,-157.293 L 49.8244,-157.38 L 49.7582,-157.458
 L 49.6831,-157.528 L 49.5993,-157.588 L 49.5069,-157.64 L 49.4057,-157.682 L 49.2959,-157.715 L 49.1774,-157.738
 L 49.0503,-157.752 L 48.9145,-157.757 L 48.7299,-157.748 L 48.5605,-157.722 L 48.4063,-157.678 L 48.2672,-157.617
 L 48.1433,-157.538 L 48.0346,-157.442 L 47.9419,-157.329 L 47.866,-157.201 L 47.807,-157.058 L 47.7648,-156.9
 L 47.7396,-156.727 L 47.7311,-156.538 L 47.7399,-156.35 L 47.7661,-156.176 L 47.8098,-156.017 L 47.8709,-155.872
 L 47.9495,-155.741 L 48.0456,-155.625 L 48.1577,-155.526 L 48.2844,-155.444 L 48.4256,-155.381 L 48.5813,-155.335
 L 48.7516,-155.308 L 48.9365,-155.299 z
M 51.348,-157.335 L 52.121,-157.335 L 52.121,-157.722 L 50.0765,-157.722 L 50.0765,-157.335 L 50.8478,-157.335
 L 50.8478,-155.333 L 51.348,-155.333 z
M 43.4897,-155.943 L 44.4001,-155.943 L 44.612,-155.333 L 45.1071,-155.333 L 44.2391,-157.722 L 43.6491,-157.722
 L 42.7777,-155.333 L 43.2778,-155.333 z
M 43.6016,-156.319 L 43.6841,-156.56 L 43.7531,-156.761 L 43.8085,-156.924 L 43.8503,-157.047 L 43.8785,-157.132
 L 43.8932,-157.177 L 43.9009,-157.203 L 43.9083,-157.227 L 43.9153,-157.251 L 43.9218,-157.274 L 43.9281,-157.296
 L 43.9339,-157.316 L 43.9441,-157.354 L 43.9797,-157.237 L 44.0526,-157.006 L 44.2882,-156.319 z
M 45.8724,-156.357 L 46.9133,-156.357 L 46.9133,-155.333 L 47.4134,-155.333 L 47.4134,-157.722 L 46.9133,-157.722
 L 46.9133,-156.77 L 45.8724,-156.77 L 45.8724,-157.722 L 45.3722,-157.722 L 45.3722,-155.333 L 45.8724,-155.333
 z
M 78.12,-145.55 L 28.9,-145.55 L 28.9,-131.5 L 78.12,-131.5 z
M 29.3,-131.9 L 29.3,-145.15 L 77.72,-145.15 L 77.72,-131.9 z
M 51.9219,-137.186 L 52.0872,-137.203 L 52.2373,-137.232 L 52.3723,-137.272 L 52.4922,-137.324 L 52.5969,-137.388
 L 52.686,-137.462 L 52.7588,-137.547 L 52.8155,-137.642 L 52.856,-137.747 L 52.8803,-137.863 L 52.8884,-137.989
 L 52.887,-138.043 L 52.8827,-138.096 L 52.8756,-138.146 L 52.8656,-138.194 L 52.8528,-138.24 L 52.8371,-138.284
 L 52.8188,-138.326 L 52.7979,-138.365 L 52.7744,-138.403 L 52.7485,-138.439 L 52.72,-138.472 L 52.689,-138.504
 L 52.6548,-138.534 L 52.6167,-138.563 L 52.5748,-138.591 L 52.5291,-138.617 L 52.4795,-138.642 L 52.426,-138.666
 L 52.3645,-138.689 L 52.2909,-138.713 L 52.2051,-138.738 L 52.107,-138.763 L 51.9968,-138.79 L 51.8745,-138.816
 L 51.7723,-138.839 L 51.6823,-138.861 L 51.6043,-138.881 L 51.5386,-138.9 L 51.4849,-138.917 L 51.4434,-138.933
 L 51.4094,-138.949 L 51.3783,-138.966 L 51.3501,-138.985 L 51.3249,-139.004 L 51.3025,-139.025 L 51.283,-139.046
 L 51.2664,-139.069 L 51.2529,-139.095 L 51.2424,-139.122 L 51.2349,-139.152 L 51.2304,-139.183 L 51.2289,-139.217
 L 51.243,-139.315 L 51.2854,-139.394 L 51.3561,-139.456 L 51.455,-139.501 L 51.5823,-139.527 L 51.7377,-139.536
 L 51.8144,-139.534 L 51.8849,-139.526 L 51.9492,-139.514 L 52.0074,-139.497 L 52.0593,-139.475 L 52.1051,-139.449
 L 52.1455,-139.417 L 52.181,-139.381 L 52.2117,-139.34 L 52.2376,-139.294 L 52.2588,-139.244 L 52.2751,-139.189
 L 52.8181,-139.263 L 52.7891,-139.377 L 52.7503,-139.479 L 52.7016,-139.571 L 52.643,-139.651 L 52.5746,-139.72
 L 52.4963,-139.777 L 52.4062,-139.825 L 52.3023,-139.864 L 52.1846,-139.894 L 52.0532,-139.916 L 51.9081,-139.929
 L 51.7491,-139.933 L 51.5826,-139.928 L 51.4298,-139.912 L 51.2908,-139.885 L 51.1656,-139.847 L 51.0541,-139.799
 L 50.9564,-139.74 L 50.8732,-139.671 L 50.805,-139.593 L 50.7521,-139.505 L 50.7142,-139.408 L 50.6915,-139.301
 L 50.6839,-139.185 L 50.685,-139.138 L 50.688,-139.093 L 50.6932,-139.051 L 50.7004,-139.009 L 50.7096,-138.97
 L 50.721,-138.932 L 50.7341,-138.896 L 50.7489,-138.862 L 50.7653,-138.829 L 50.7834,-138.798 L 50.8031,-138.769
 L 50.8244,-138.741 L 50.8474,-138.714 L 50.8719,-138.689 L 50.898,-138.665 L 50.9257,-138.642 L 50.955,-138.621
 L 50.9858,-138.601 L 51.0181,-138.582 L 51.0516,-138.564 L 51.0864,-138.547 L 51.1225,-138.531 L 51.1599,-138.515
 L 51.1985,-138.5 L 51.2428,-138.485 L 51.2972,-138.469 L 51.3618,-138.451 L 51.4365,-138.431 L 51.5213,-138.41
 L 51.6162,-138.387 L 51.7258,-138.365 L 51.8229,-138.343 L 51.9074,-138.322 L 51.9795,-138.303 L 52.0391,-138.285
 L 52.0862,-138.268 L 52.1254,-138.251 L 52.1617,-138.232 L 52.1949,-138.212 L 52.225,-138.191 L 52.252,-138.168
 L 52.276,-138.144 L 52.2966,-138.119 L 52.3135,-138.091 L 52.3266,-138.06 L 52.336,-138.028 L 52.3416,-137.993
 L 52.3434,-137.956 L 52.3271,-137.847 L 52.2783,-137.758 L 52.1968,-137.689 L 52.0827,-137.639 L 51.936,-137.609
 L 51.7567,-137.599 L 51.6659,-137.602 L 51.5818,-137.61 L 51.5047,-137.623 L 51.4344,-137.642 L 51.3709,-137.666
 L 51.3143,-137.695 L 51.264,-137.73 L 51.2196,-137.772 L 51.1809,-137.82 L 51.1481,-137.875 L 51.121,-137.936
 L 51.0998,-138.004 L 50.5586,-137.915 L 50.5923,-137.796 L 50.6375,-137.689 L 50.6944,-137.591 L 50.7628,-137.504
 L 50.8429,-137.428 L 50.9346,-137.362 L 51.0382,-137.306 L 51.1542,-137.261 L 51.2825,-137.225 L 51.4232,-137.2
 L 51.5762,-137.185 L 51.7415,-137.18 z
M 56.3238,-137.186 L 56.4599,-137.203 L 56.5842,-137.232 L 56.6966,-137.272 L 56.7972,-137.324 L 56.886,-137.388
 L 56.9621,-137.462 L 57.0242,-137.545 L 57.0726,-137.638 L 57.1072,-137.74 L 57.1279,-137.851 L 57.1348,-137.972
 L 57.1307,-138.058 L 57.1185,-138.139 L 57.098,-138.215 L 57.0694,-138.285 L 57.0326,-138.35 L 56.9876,-138.409
 L 56.9355,-138.462 L 56.8772,-138.508 L 56.8127,-138.547 L 56.7421,-138.579 L 56.6653,-138.603 L 56.5823,-138.621
 L 56.5823,-138.629 L 56.6538,-138.646 L 56.7204,-138.671 L 56.7819,-138.703 L 56.8384,-138.741 L 56.8899,-138.786
 L 56.9364,-138.837 L 56.9767,-138.894 L 57.0097,-138.953 L 57.0354,-139.016 L 57.0537,-139.081 L 57.0647,-139.15
 L 57.0684,-139.221 L 57.0619,-139.33 L 57.0425,-139.431 L 57.0102,-139.524 L 56.965,-139.607 L 56.9068,-139.682
 L 56.8358,-139.748 L 56.7526,-139.804 L 56.6582,-139.851 L 56.5526,-139.887 L 56.4358,-139.912 L 56.3077,-139.928
 L 56.1684,-139.933 L 56.0319,-139.928 L 55.9062,-139.912 L 55.7912,-139.885 L 55.6869,-139.849 L 55.5933,-139.801
 L 55.5104,-139.743 L 55.4394,-139.676 L 55.3812,-139.601 L 55.336,-139.519 L 55.3037,-139.428 L 55.2843,-139.33
 L 55.2778,-139.225 L 55.2815,-139.153 L 55.2926,-139.085 L 55.3111,-139.019 L 55.3369,-138.956 L 55.3701,-138.896
 L 55.4107,-138.839 L 55.4574,-138.787 L 55.5086,-138.741 L 55.5645,-138.702 L 55.6251,-138.67 L 55.6903,-138.644
 L 55.7601,-138.625 L 55.7601,-138.617 L 55.68,-138.599 L 55.6055,-138.574 L 55.5365,-138.542 L 55.4732,-138.502
 L 55.4154,-138.455 L 55.3633,-138.4 L 55.318,-138.339 L 55.281,-138.274 L 55.2522,-138.204 L 55.2316,-138.13
 L 55.2193,-138.051 L 55.2152,-137.968 L 55.2222,-137.848 L 55.2431,-137.737 L 55.2781,-137.635 L 55.327,-137.543
 L 55.3899,-137.46 L 55.4668,-137.387 L 55.5563,-137.324 L 55.6574,-137.272 L 55.7698,-137.232 L 55.8938,-137.203
 L 56.0291,-137.186 L 56.1759,-137.18 z
M 56.0654,-138.82 L 55.978,-138.852 L 55.9101,-138.905 L 55.8616,-138.979 L 55.8325,-139.075 L 55.8228,-139.192
 L 55.8324,-139.304 L 55.8612,-139.396 L 55.9092,-139.467 L 55.9764,-139.518 L 56.0628,-139.549 L 56.1684,-139.559
 L 56.2247,-139.556 L 56.2762,-139.549 L 56.3226,-139.537 L 56.3641,-139.52 L 56.4007,-139.498 L 56.4323,-139.471
 L 56.4589,-139.438 L 56.4808,-139.4 L 56.4978,-139.357 L 56.5099,-139.308 L 56.5172,-139.253 L 56.5196,-139.192
 L 56.5172,-139.127 L 56.51,-139.069 L 56.498,-139.016 L 56.4812,-138.97 L 56.4596,-138.931 L 56.4332,-138.898
 L 56.402,-138.871 L 56.3658,-138.849 L 56.3248,-138.831 L 56.2788,-138.819 L 56.2279,-138.811 L 56.1721,-138.809
 z
M 56.1125,-137.559 L 56.0513,-137.568 L 55.996,-137.583 L 55.9468,-137.604 L 55.9036,-137.631 L 55.8664,-137.664
 L 55.8351,-137.704 L 55.8095,-137.75 L 55.7896,-137.804 L 55.7753,-137.865 L 55.7668,-137.933 L 55.7639,-138.008
 L 55.7668,-138.074 L 55.7754,-138.135 L 55.7898,-138.19 L 55.8099,-138.241 L 55.8358,-138.285 L 55.8674,-138.325
 L 55.9044,-138.358 L 55.9464,-138.386 L 55.9934,-138.407 L 56.0455,-138.423 L 56.1025,-138.432 L 56.1646,-138.435
 L 56.2922,-138.423 L 56.3966,-138.388 L 56.4778,-138.33 L 56.5359,-138.248 L 56.5707,-138.143 L 56.5823,-138.015
 L 56.5796,-137.938 L 56.5714,-137.868 L 56.5578,-137.806 L 56.5388,-137.751 L 56.5144,-137.704 L 56.4845,-137.664
 L 56.4489,-137.631 L 56.4072,-137.604 L 56.3594,-137.583 L 56.3056,-137.568 L 56.2457,-137.559 L 56.1797,-137.556
 z
M 58.4155,-137.187 L 58.5529,-137.208 L 58.6794,-137.243 L 58.795,-137.292 L 58.8997,-137.354 L 58.9934,-137.431
 L 59.0744,-137.52 L 59.1406,-137.618 L 59.1921,-137.726 L 59.2289,-137.844 L 59.2509,-137.971 L 59.2583,-138.108
 L 59.252,-138.24 L 59.2329,-138.361 L 59.2011,-138.474 L 59.1566,-138.577 L 59.0994,-138.67 L 59.0295,-138.754
 L 58.949,-138.826 L 58.86,-138.886 L 58.7625,-138.932 L 58.6565,-138.965 L 58.542,-138.985 L 58.4191,-138.991
 L 58.3249,-138.986 L 58.2362,-138.972 L 58.1528,-138.948 L 58.0748,-138.915 L 58.0021,-138.872 L 57.9349,-138.82
 L 57.9786,-139.496 L 59.1026,-139.496 L 59.1026,-139.893 L 57.4944,-139.893 L 57.4014,-138.387 L 57.9216,-138.387
 L 57.9707,-138.44 L 58.0243,-138.483 L 58.0825,-138.517 L 58.1452,-138.541 L 58.2125,-138.555 L 58.2842,-138.56
 L 58.3489,-138.557 L 58.4085,-138.546 L 58.4632,-138.529 L 58.5129,-138.504 L 58.5577,-138.472 L 58.5975,-138.434
 L 58.6318,-138.389 L 58.6598,-138.34 L 58.6816,-138.286 L 58.6971,-138.228 L 58.7065,-138.165 L 58.7096,-138.097
 L 58.7063,-138.02 L 58.6964,-137.95 L 58.6799,-137.886 L 58.6568,-137.828 L 58.6272,-137.776 L 58.5909,-137.73
 L 58.5491,-137.692 L 58.5028,-137.66 L 58.4521,-137.635 L 58.3968,-137.617 L 58.3371,-137.607 L 58.2729,-137.603
 L 58.2206,-137.605 L 58.1714,-137.612 L 58.1252,-137.623 L 58.0821,-137.638 L 58.0421,-137.657 L 58.0051,-137.681
 L 57.9715,-137.71 L 57.9414,-137.743 L 57.9149,-137.782 L 57.8921,-137.826 L 57.8728,-137.875 L 57.8571,-137.93
 L 57.3235,-137.886 L 57.3476,-137.776 L 57.382,-137.675 L 57.4267,-137.583 L 57.4817,-137.5 L 57.547,-137.426
 L 57.6225,-137.361 L 57.7077,-137.306 L 57.8018,-137.26 L 57.9048,-137.225 L 58.0166,-137.2 L 58.1375,-137.185
 L 58.2672,-137.18 z
M 48.5242,-138.234 L 49.1812,-138.234 L 49.8021,-137.218 L 50.4325,-137.218 L 49.7091,-138.342 L 49.7964,-138.367
 L 49.8776,-138.4 L 49.9526,-138.441 L 50.0213,-138.49 L 50.0838,-138.546 L 50.1401,-138.61 L 50.1888,-138.681
 L 50.2287,-138.755 L 50.2597,-138.834 L 50.2819,-138.917 L 50.2952,-139.004 L 50.2996,-139.096 L 50.2924,-139.219
 L 50.2707,-139.333 L 50.2345,-139.436 L 50.184,-139.53 L 50.1189,-139.613 L 50.0394,-139.687 L 49.9467,-139.75
 L 49.8418,-139.802 L 49.7247,-139.842 L 49.5956,-139.87 L 49.4543,-139.887 L 49.3008,-139.893 L 47.9641,-139.893
 L 47.9641,-137.218 L 48.5242,-137.218 z
M 48.5242,-138.668 L 48.5242,-139.458 L 49.242,-139.458 L 49.3928,-139.448 L 49.5162,-139.415 L 49.6122,-139.362
 L 49.6808,-139.287 L 49.7219,-139.191 L 49.7356,-139.073 L 49.7323,-139.011 L 49.7221,-138.954 L 49.7052,-138.902
 L 49.6816,-138.855 L 49.6512,-138.813 L 49.6141,-138.775 L 49.5704,-138.742 L 49.5204,-138.716 L 49.4641,-138.695
 L 49.4015,-138.68 L 49.3325,-138.671 L 49.2572,-138.668 z
M 54.7645,-137.763 L 55.1214,-137.763 L 55.1214,-138.16 L 54.7645,-138.16 L 54.7645,-139.893 L 54.1683,-139.893
 L 53.0385,-138.163 L 53.0385,-137.763 L 54.2556,-137.763 L 54.2556,-137.218 L 54.7645,-137.218 z
M 53.4733,-138.16 L 54.0942,-139.103 L 54.135,-139.168 L 54.1714,-139.227 L 54.2034,-139.281 L 54.2309,-139.329
 L 54.254,-139.373 L 54.2727,-139.411 L 54.2713,-139.397 L 54.2698,-139.379 L 54.2682,-139.355 L 54.2664,-139.327
 L 54.2644,-139.294 L 54.2622,-139.257 L 54.2602,-139.218 L 54.2585,-139.179 L 54.2573,-139.142 L 54.2563,-139.105
 L 54.2558,-139.07 L 54.2556,-139.035 L 54.2556,-138.16 z
M 23.3045,-139.688 L 22.9494,-139.688 L 22.5153,-137.413 L 22.8779,-137.413 z
M 21.0333,-138.011 L 21.8344,-138.011 L 22.0209,-137.474 L 22.4565,-137.474 L 21.6927,-139.576 L 21.1735,-139.576
 L 20.4066,-137.474 L 20.8468,-137.474 z
M 21.1317,-138.342 L 21.2043,-138.554 L 21.265,-138.731 L 21.3137,-138.874 L 21.3505,-138.983 L 21.3754,-139.057
 L 21.3883,-139.097 L 21.3951,-139.119 L 21.4016,-139.141 L 21.4077,-139.162 L 21.4135,-139.182 L 21.419,-139.201
 L 21.4241,-139.219 L 21.4331,-139.252 L 21.4644,-139.149 L 21.5285,-138.946 L 21.7359,-138.342 z
M 24.6933,-137.478 L 24.8067,-137.491 L 24.9108,-137.513 L 25.0056,-137.543 L 25.0912,-137.583 L 25.1674,-137.63
 L 25.233,-137.686 L 25.2868,-137.749 L 25.3285,-137.82 L 25.3584,-137.897 L 25.3763,-137.982 L 25.3822,-138.074
 L 25.3785,-138.143 L 25.3674,-138.207 L 25.3489,-138.267 L 25.3229,-138.323 L 25.2895,-138.373 L 25.2487,-138.419
 L 25.2008,-138.46 L 25.1462,-138.495 L 25.0848,-138.524 L 25.0167,-138.548 L 24.9418,-138.567 L 24.8601,-138.579
 L 24.9248,-138.596 L 24.9838,-138.617 L 25.0371,-138.643 L 25.0845,-138.672 L 25.1262,-138.707 L 25.1622,-138.746
 L 25.1925,-138.788 L 25.2173,-138.834 L 25.2366,-138.883 L 25.2504,-138.935 L 25.2586,-138.99 L 25.2614,-139.048
 L 25.2559,-139.131 L 25.2394,-139.208 L 25.212,-139.277 L 25.1735,-139.339 L 25.1241,-139.394 L 25.0637,-139.442
 L 24.9926,-139.483 L 24.9111,-139.517 L 24.8192,-139.542 L 24.7169,-139.561 L 24.6042,-139.572 L 24.4811,-139.576
 L 23.5189,-139.576 L 23.5189,-137.474 L 24.5707,-137.474 z
M 23.959,-138.728 L 23.959,-139.249 L 24.4603,-139.249 L 24.517,-139.247 L 24.5689,-139.243 L 24.616,-139.234
 L 24.6582,-139.223 L 24.6955,-139.208 L 24.728,-139.189 L 24.7556,-139.167 L 24.7782,-139.141 L 24.7957,-139.109
 L 24.8083,-139.073 L 24.8158,-139.033 L 24.8183,-138.988 L 24.816,-138.947 L 24.8089,-138.909 L 24.7972,-138.874
 L 24.7809,-138.844 L 24.7598,-138.817 L 24.734,-138.793 L 24.7031,-138.774 L 24.6665,-138.757 L 24.6242,-138.745
 L 24.5762,-138.736 L 24.5226,-138.73 L 24.4633,-138.728 z
M 23.959,-137.801 L 23.959,-138.403 L 24.517,-138.403 L 24.6464,-138.395 L 24.7523,-138.37 L 24.8347,-138.329
 L 24.8936,-138.272 L 24.9289,-138.198 L 24.9407,-138.108 L 24.9379,-138.059 L 24.9298,-138.014 L 24.9162,-137.973
 L 24.8972,-137.937 L 24.8728,-137.905 L 24.8429,-137.877 L 24.8072,-137.854 L 24.7651,-137.835 L 24.7167,-137.82
 L 24.6619,-137.809 L 24.6008,-137.803 L 24.5334,-137.801 z
M 34.65,-129.5 L 2.89999,-129.5 L 2.89999,-95.5 L 34.65,-95.5 z
M 3.3,-95.9 L 3.3,-129.1 L 34.25,-129.1 L 34.25,-95.9 z
M 17.0979,-111.165 L 17.2392,-111.194 L 17.3684,-111.243 L 17.4854,-111.312 L 17.5903,-111.4 L 17.6831,-111.508
 L 17.7626,-111.636 L 17.8276,-111.783 L 17.8782,-111.951 L 17.9143,-112.138 L 17.936,-112.346 L 17.9432,-112.573
 L 17.9367,-112.787 L 17.9172,-112.981 L 17.8846,-113.158 L 17.839,-113.315 L 17.7804,-113.454 L 17.7087,-113.575
 L 17.6237,-113.677 L 17.5251,-113.76 L 17.4128,-113.825 L 17.2868,-113.871 L 17.1471,-113.899 L 16.9938,-113.908
 L 16.8507,-113.901 L 16.7188,-113.882 L 16.5982,-113.849 L 16.4888,-113.802 L 16.3906,-113.743 L 16.3036,-113.671
 L 16.2291,-113.586 L 16.1681,-113.492 L 16.1207,-113.387 L 16.0868,-113.272 L 16.0664,-113.147 L 16.0597,-113.012
 L 16.0654,-112.88 L 16.0828,-112.757 L 16.1116,-112.644 L 16.1521,-112.54 L 16.204,-112.446 L 16.2676,-112.361
 L 16.3409,-112.288 L 16.4223,-112.228 L 16.5118,-112.181 L 16.6093,-112.148 L 16.715,-112.128 L 16.8286,-112.121
 L 16.8912,-112.123 L 16.9524,-112.13 L 17.0121,-112.141 L 17.0704,-112.157 L 17.1273,-112.177 L 17.1828,-112.202
 L 17.235,-112.231 L 17.282,-112.263 L 17.324,-112.298 L 17.3608,-112.337 L 17.3925,-112.379 L 17.4191,-112.425
 L 17.4146,-112.29 L 17.4036,-112.167 L 17.3862,-112.055 L 17.3622,-111.955 L 17.3317,-111.866 L 17.2948,-111.789
 L 17.2517,-111.723 L 17.2029,-111.67 L 17.1484,-111.628 L 17.088,-111.598 L 17.022,-111.58 L 16.9502,-111.574
 L 16.8663,-111.582 L 16.7932,-111.605 L 16.7309,-111.644 L 16.6793,-111.698 L 16.6385,-111.768 L 16.6084,-111.854
 L 16.1071,-111.783 L 16.1382,-111.679 L 16.1758,-111.585 L 16.2199,-111.501 L 16.2704,-111.426 L 16.3275,-111.361
 L 16.391,-111.306 L 16.462,-111.26 L 16.5415,-111.222 L 16.6295,-111.193 L 16.726,-111.172 L 16.831,-111.159
 L 16.9445,-111.155 z
M 16.9245,-112.522 L 16.871,-112.533 L 16.822,-112.552 L 16.7774,-112.578 L 16.7372,-112.611 L 16.7014,-112.652
 L 16.6707,-112.699 L 16.6455,-112.751 L 16.6259,-112.808 L 16.612,-112.87 L 16.6036,-112.936 L 16.6008,-113.008
 L 16.6036,-113.081 L 16.6121,-113.148 L 16.6262,-113.209 L 16.6459,-113.266 L 16.6713,-113.317 L 16.7024,-113.362
 L 16.7383,-113.401 L 16.7784,-113.433 L 16.8227,-113.458 L 16.8712,-113.476 L 16.9238,-113.487 L 16.9805,-113.49
 L 17.0387,-113.486 L 17.0929,-113.474 L 17.1431,-113.453 L 17.1894,-113.425 L 17.2317,-113.388 L 17.2701,-113.343
 L 17.3035,-113.291 L 17.3307,-113.234 L 17.352,-113.171 L 17.3671,-113.102 L 17.3762,-113.027 L 17.3793,-112.947
 L 17.3761,-112.884 L 17.3667,-112.826 L 17.351,-112.771 L 17.3291,-112.721 L 17.3008,-112.676 L 17.2663,-112.635
 L 17.227,-112.599 L 17.1846,-112.57 L 17.1389,-112.547 L 17.0899,-112.531 L 17.0378,-112.521 L 16.9825,-112.518
 z
M 23.2731,-111.16 L 23.4048,-111.176 L 23.5298,-111.202 L 23.6482,-111.239 L 23.7598,-111.286 L 23.8647,-111.344
 L 23.9622,-111.412 L 24.0515,-111.492 L 24.1327,-111.582 L 24.2057,-111.684 L 24.2704,-111.796 L 24.3271,-111.92
 L 23.8391,-112.104 L 23.7647,-111.949 L 23.673,-111.821 L 23.5642,-111.723 L 23.4382,-111.652 L 23.295,-111.609
 L 23.1347,-111.595 L 23.0124,-111.602 L 22.9002,-111.622 L 22.7979,-111.656 L 22.7056,-111.703 L 22.6232,-111.764
 L 22.5508,-111.838 L 22.489,-111.925 L 22.4385,-112.025 L 22.3991,-112.136 L 22.371,-112.259 L 22.3542,-112.395
 L 22.3486,-112.543 L 22.354,-112.688 L 22.3704,-112.821 L 22.3977,-112.942 L 22.4359,-113.051 L 22.485,-113.147
 L 22.5451,-113.232 L 22.6157,-113.304 L 22.6965,-113.363 L 22.7874,-113.409 L 22.8885,-113.441 L 22.9999,-113.461
 L 23.1214,-113.467 L 23.2025,-113.464 L 23.2799,-113.454 L 23.3537,-113.438 L 23.4239,-113.415 L 23.4904,-113.385
 L 23.5533,-113.349 L 23.6111,-113.307 L 23.6621,-113.26 L 23.7064,-113.209 L 23.744,-113.154 L 23.775,-113.094
 L 23.7992,-113.029 L 24.2929,-113.164 L 24.2481,-113.281 L 24.1935,-113.388 L 24.1291,-113.486 L 24.0549,-113.573
 L 23.9709,-113.651 L 23.877,-113.719 L 23.7735,-113.777 L 23.6602,-113.824 L 23.5372,-113.861 L 23.4045,-113.887
 L 23.2621,-113.903 L 23.11,-113.908 L 22.9033,-113.898 L 22.7135,-113.869 L 22.5408,-113.82 L 22.3851,-113.751
 L 22.2463,-113.663 L 22.1245,-113.555 L 22.0207,-113.429 L 21.9357,-113.285 L 21.8696,-113.125 L 21.8224,-112.948
 L 21.7941,-112.754 L 21.7846,-112.543 L 21.7944,-112.332 L 21.8238,-112.137 L 21.8727,-111.959 L 21.9412,-111.796
 L 22.0292,-111.65 L 22.1368,-111.52 L 22.2624,-111.409 L 22.4043,-111.317 L 22.5624,-111.246 L 22.7369,-111.195
 L 22.9276,-111.165 L 23.1347,-111.155 z
M 14.9371,-111.198 L 15.0814,-111.215 L 15.2139,-111.243 L 15.3346,-111.281 L 15.4434,-111.331 L 15.5405,-111.392
 L 15.624,-111.463 L 15.6924,-111.543 L 15.7455,-111.633 L 15.7835,-111.731 L 15.8063,-111.839 L 15.8139,-111.956
 L 15.8092,-112.044 L 15.795,-112.126 L 15.7714,-112.203 L 15.7384,-112.273 L 15.6959,-112.337 L 15.644,-112.396
 L 15.583,-112.447 L 15.5135,-112.492 L 15.4353,-112.53 L 15.3486,-112.56 L 15.2533,-112.583 L 15.1494,-112.6
 L 15.2318,-112.621 L 15.3068,-112.648 L 15.3746,-112.68 L 15.435,-112.718 L 15.4881,-112.762 L 15.5338,-112.811
 L 15.5724,-112.866 L 15.604,-112.924 L 15.6285,-112.986 L 15.6461,-113.052 L 15.6566,-113.122 L 15.6601,-113.196
 L 15.6531,-113.302 L 15.6321,-113.399 L 15.5972,-113.488 L 15.5483,-113.567 L 15.4854,-113.637 L 15.4085,-113.698
 L 15.318,-113.75 L 15.2143,-113.793 L 15.0974,-113.826 L 14.9672,-113.849 L 14.8237,-113.863 L 14.6671,-113.868
 L 13.4424,-113.868 L 13.4424,-111.193 L 14.781,-111.193 z
M 14.0025,-112.79 L 14.0025,-113.452 L 14.6405,-113.452 L 14.7127,-113.45 L 14.7788,-113.444 L 14.8387,-113.433
 L 14.8924,-113.419 L 14.9399,-113.4 L 14.9813,-113.376 L 15.0164,-113.348 L 15.0451,-113.314 L 15.0675,-113.274
 L 15.0834,-113.229 L 15.093,-113.177 L 15.0962,-113.12 L 15.0932,-113.067 L 15.0843,-113.019 L 15.0694,-112.975
 L 15.0485,-112.936 L 15.0217,-112.902 L 14.9889,-112.872 L 14.9495,-112.847 L 14.9029,-112.826 L 14.8491,-112.81
 L 14.7881,-112.799 L 14.7198,-112.792 L 14.6443,-112.79 z
M 14.0025,-111.609 L 14.0025,-112.376 L 14.7126,-112.376 L 14.8774,-112.365 L 15.0122,-112.334 L 15.1171,-112.282
 L 15.192,-112.209 L 15.2369,-112.115 L 15.2519,-112 L 15.2484,-111.937 L 15.2381,-111.88 L 15.2208,-111.829
 L 15.1966,-111.782 L 15.1655,-111.742 L 15.1275,-111.706 L 15.082,-111.676 L 15.0285,-111.652 L 14.9668,-111.633
 L 14.8971,-111.619 L 14.8194,-111.611 L 14.7335,-111.609 z
M 11.9075,-111.197 L 12.0281,-111.211 L 12.144,-111.234 L 12.2551,-111.265 L 12.3613,-111.306 L 12.4627,-111.356
 L 12.558,-111.415 L 12.6459,-111.481 L 12.7262,-111.556 L 12.799,-111.638 L 12.8644,-111.729 L 12.9222,-111.828
 L 12.9718,-111.934 L 13.0124,-112.045 L 13.044,-112.163 L 13.0666,-112.286 L 13.0801,-112.415 L 13.0846,-112.55
 L 13.0743,-112.754 L 13.0435,-112.942 L 12.992,-113.113 L 12.92,-113.267 L 12.8275,-113.405 L 12.7143,-113.527
 L 12.5824,-113.631 L 12.4335,-113.717 L 12.2677,-113.783 L 12.0848,-113.83 L 11.8849,-113.859 L 11.6681,-113.868
 L 10.6998,-113.868 L 10.6998,-111.193 L 11.782,-111.193 z
M 11.2599,-111.626 L 11.2599,-113.435 L 11.6567,-113.435 L 11.79,-113.429 L 11.9126,-113.41 L 12.0246,-113.378
 L 12.1259,-113.334 L 12.2166,-113.278 L 12.2966,-113.208 L 12.3651,-113.127 L 12.4211,-113.034 L 12.4647,-112.93
 L 12.4958,-112.815 L 12.5145,-112.688 L 12.5207,-112.55 L 12.5148,-112.413 L 12.497,-112.285 L 12.4675,-112.168
 L 12.4262,-112.06 L 12.373,-111.962 L 12.308,-111.874 L 12.233,-111.798 L 12.1498,-111.736 L 12.0583,-111.688
 L 11.9586,-111.653 L 11.8507,-111.633 L 11.7346,-111.626 z
M 19.9123,-112.135 L 20.5769,-112.135 L 20.6752,-112.138 L 20.769,-112.147 L 20.8582,-112.162 L 20.9427,-112.184
 L 21.0227,-112.212 L 21.0981,-112.246 L 21.1684,-112.285 L 21.233,-112.33 L 21.292,-112.38 L 21.3454,-112.435
 L 21.3931,-112.495 L 21.4351,-112.56 L 21.4711,-112.629 L 21.5005,-112.701 L 21.5234,-112.777 L 21.5398,-112.855
 L 21.5496,-112.937 L 21.5529,-113.021 L 21.5457,-113.151 L 21.5241,-113.271 L 21.4881,-113.38 L 21.4377,-113.479
 L 21.3729,-113.568 L 21.2937,-113.647 L 21.2011,-113.714 L 21.0963,-113.77 L 20.9792,-113.813 L 20.8498,-113.844
 L 20.7081,-113.862 L 20.5541,-113.868 L 19.3522,-113.868 L 19.3522,-111.193 L 19.9123,-111.193 z
M 19.9123,-112.566 L 19.9123,-113.433 L 20.4915,-113.433 L 20.6435,-113.422 L 20.7678,-113.386 L 20.8646,-113.328
 L 20.9337,-113.246 L 20.9751,-113.141 L 20.9889,-113.012 L 20.9855,-112.942 L 20.975,-112.879 L 20.9576,-112.821
 L 20.9332,-112.768 L 20.9019,-112.722 L 20.8636,-112.68 L 20.8189,-112.645 L 20.7682,-112.617 L 20.7117,-112.594
 L 20.6493,-112.578 L 20.5809,-112.569 L 20.5066,-112.566 z
M 26.1226,-111.198 L 26.2669,-111.215 L 26.3994,-111.243 L 26.5201,-111.281 L 26.629,-111.331 L 26.726,-111.392
 L 26.8095,-111.463 L 26.8779,-111.543 L 26.9311,-111.633 L 26.969,-111.731 L 26.9918,-111.839 L 26.9994,-111.956
 L 26.9947,-112.044 L 26.9805,-112.126 L 26.9569,-112.203 L 26.9239,-112.273 L 26.8814,-112.337 L 26.8295,-112.396
 L 26.7685,-112.447 L 26.699,-112.492 L 26.6209,-112.53 L 26.5341,-112.56 L 26.4388,-112.583 L 26.3349,-112.6
 L 26.4173,-112.621 L 26.4923,-112.648 L 26.5601,-112.68 L 26.6205,-112.718 L 26.6736,-112.762 L 26.7193,-112.811
 L 26.7579,-112.866 L 26.7895,-112.924 L 26.814,-112.986 L 26.8316,-113.052 L 26.8421,-113.122 L 26.8456,-113.196
 L 26.8386,-113.302 L 26.8177,-113.399 L 26.7827,-113.488 L 26.7338,-113.567 L 26.6709,-113.637 L 26.594,-113.698
 L 26.5036,-113.75 L 26.3998,-113.793 L 26.2829,-113.826 L 26.1527,-113.849 L 26.0092,-113.863 L 25.8526,-113.868
 L 24.6279,-113.868 L 24.6279,-111.193 L 25.9665,-111.193 z
M 25.188,-112.79 L 25.188,-113.452 L 25.826,-113.452 L 25.8982,-113.45 L 25.9643,-113.444 L 26.0242,-113.433
 L 26.0779,-113.419 L 26.1254,-113.4 L 26.1668,-113.376 L 26.2019,-113.348 L 26.2306,-113.314 L 26.253,-113.274
 L 26.2689,-113.229 L 26.2785,-113.177 L 26.2817,-113.12 L 26.2787,-113.067 L 26.2698,-113.019 L 26.2549,-112.975
 L 26.234,-112.936 L 26.2072,-112.902 L 26.1744,-112.872 L 26.135,-112.847 L 26.0884,-112.826 L 26.0346,-112.81
 L 25.9736,-112.799 L 25.9053,-112.792 L 25.8298,-112.79 z
M 25.188,-111.609 L 25.188,-112.376 L 25.8981,-112.376 L 26.0629,-112.365 L 26.1977,-112.334 L 26.3026,-112.282
 L 26.3775,-112.209 L 26.4224,-112.115 L 26.4374,-112 L 26.4339,-111.937 L 26.4236,-111.88 L 26.4063,-111.829
 L 26.3821,-111.782 L 26.351,-111.742 L 26.313,-111.706 L 26.2675,-111.676 L 26.214,-111.652 L 26.1523,-111.633
 L 26.0826,-111.619 L 26.0049,-111.611 L 25.919,-111.609 z
M 107.1,-121.49 L 85.64,-121.49 L 85.64,-103.71 L 107.1,-103.71 z
M 86.04,-104.11 L 86.04,-121.09 L 106.7,-121.09 L 106.7,-104.11 z
M 102.591,-111.672 L 101.261,-111.672 L 101.281,-111.716 L 101.305,-111.758 L 101.333,-111.8 L 101.363,-111.841
 L 101.397,-111.881 L 101.435,-111.92 L 101.474,-111.959 L 101.516,-111.997 L 101.558,-112.036 L 101.602,-112.074
 L 101.647,-112.112 L 101.694,-112.15 L 101.742,-112.188 L 101.839,-112.266 L 101.938,-112.344 L 101.988,-112.384
 L 102.038,-112.425 L 102.086,-112.466 L 102.133,-112.508 L 102.178,-112.552 L 102.222,-112.596 L 102.264,-112.641
 L 102.304,-112.688 L 102.342,-112.736 L 102.377,-112.785 L 102.409,-112.836 L 102.44,-112.888 L 102.467,-112.942
 L 102.491,-112.997 L 102.511,-113.054 L 102.527,-113.114 L 102.538,-113.176 L 102.544,-113.24 L 102.547,-113.306
 L 102.54,-113.428 L 102.519,-113.542 L 102.485,-113.645 L 102.436,-113.74 L 102.374,-113.824 L 102.298,-113.9
 L 102.21,-113.964 L 102.109,-114.017 L 101.996,-114.058 L 101.872,-114.088 L 101.735,-114.105 L 101.586,-114.111
 L 101.448,-114.106 L 101.32,-114.088 L 101.202,-114.059 L 101.094,-114.018 L 100.996,-113.966 L 100.908,-113.902
 L 100.83,-113.827 L 100.764,-113.741 L 100.709,-113.645 L 100.665,-113.538 L 100.632,-113.421 L 100.61,-113.294
 L 101.186,-113.261 L 101.197,-113.324 L 101.212,-113.382 L 101.231,-113.434 L 101.254,-113.48 L 101.28,-113.521
 L 101.311,-113.557 L 101.345,-113.587 L 101.385,-113.612 L 101.429,-113.631 L 101.478,-113.645 L 101.532,-113.653
 L 101.59,-113.656 L 101.705,-113.645 L 101.799,-113.614 L 101.873,-113.562 L 101.925,-113.489 L 101.956,-113.396
 L 101.967,-113.281 L 101.963,-113.23 L 101.953,-113.179 L 101.936,-113.127 L 101.913,-113.075 L 101.883,-113.023
 L 101.846,-112.97 L 101.8,-112.915 L 101.745,-112.855 L 101.68,-112.79 L 101.604,-112.72 L 101.519,-112.646
 L 101.424,-112.567 L 101.322,-112.483 L 101.227,-112.4 L 101.137,-112.318 L 101.053,-112.237 L 100.976,-112.158
 L 100.904,-112.079 L 100.838,-112.001 L 100.777,-111.922 L 100.721,-111.842 L 100.671,-111.762 L 100.625,-111.681
 L 100.585,-111.599 L 100.585,-111.202 L 102.591,-111.202 z
M 99.4839,-111.161 L 99.6281,-111.18 L 99.7597,-111.21 L 99.879,-111.253 L 99.9857,-111.308 L 100.08,-111.375
 L 100.161,-111.453 L 100.227,-111.542 L 100.278,-111.641 L 100.315,-111.749 L 100.337,-111.868 L 100.345,-111.998
 L 100.34,-112.087 L 100.325,-112.171 L 100.3,-112.25 L 100.265,-112.323 L 100.221,-112.39 L 100.167,-112.452
 L 100.103,-112.508 L 100.031,-112.555 L 99.9507,-112.595 L 99.8619,-112.628 L 99.7647,-112.652 L 99.659,-112.669
 L 99.659,-112.677 L 99.7542,-112.699 L 99.8416,-112.728 L 99.9212,-112.763 L 99.9931,-112.805 L 100.057,-112.853
 L 100.114,-112.907 L 100.162,-112.967 L 100.201,-113.033 L 100.232,-113.104 L 100.254,-113.18 L 100.267,-113.262
 L 100.271,-113.348 L 100.264,-113.463 L 100.243,-113.57 L 100.208,-113.668 L 100.159,-113.757 L 100.095,-113.837
 L 100.018,-113.909 L 99.9282,-113.971 L 99.8274,-114.021 L 99.7157,-114.061 L 99.5931,-114.089 L 99.4596,-114.106
 L 99.3152,-114.111 L 99.1786,-114.106 L 99.051,-114.088 L 98.9322,-114.059 L 98.8224,-114.018 L 98.7216,-113.966
 L 98.6296,-113.902 L 98.5482,-113.827 L 98.4789,-113.744 L 98.4216,-113.652 L 98.3765,-113.551 L 98.3434,-113.441
 L 98.3224,-113.322 L 98.8941,-113.281 L 98.9021,-113.339 L 98.9152,-113.392 L 98.9335,-113.44 L 98.9569,-113.484
 L 98.9855,-113.523 L 99.0192,-113.558 L 99.0574,-113.588 L 99.0993,-113.612 L 99.1451,-113.631 L 99.1946,-113.645
 L 99.2479,-113.653 L 99.305,-113.656 L 99.3656,-113.653 L 99.4211,-113.644 L 99.4716,-113.63 L 99.5171,-113.611
 L 99.5575,-113.586 L 99.5929,-113.555 L 99.6231,-113.519 L 99.6477,-113.479 L 99.6669,-113.435 L 99.6806,-113.387
 L 99.6888,-113.334 L 99.6916,-113.277 L 99.6881,-113.217 L 99.6778,-113.162 L 99.6606,-113.112 L 99.6364,-113.066
 L 99.6054,-113.025 L 99.5675,-112.989 L 99.5227,-112.959 L 99.4712,-112.933 L 99.4129,-112.914 L 99.3478,-112.9
 L 99.2759,-112.891 L 99.1972,-112.889 L 99.0101,-112.889 L 99.0101,-112.427 L 99.2094,-112.427 L 99.2966,-112.424
 L 99.3763,-112.416 L 99.4485,-112.401 L 99.5132,-112.382 L 99.5705,-112.356 L 99.6204,-112.325 L 99.6626,-112.289
 L 99.6972,-112.247 L 99.7241,-112.201 L 99.7433,-112.15 L 99.7549,-112.093 L 99.7587,-112.032 L 99.7555,-111.965
 L 99.746,-111.905 L 99.7302,-111.85 L 99.7081,-111.801 L 99.6796,-111.758 L 99.6448,-111.721 L 99.6042,-111.69
 L 99.5586,-111.664 L 99.508,-111.645 L 99.4522,-111.631 L 99.3913,-111.622 L 99.3254,-111.619 L 99.1971,-111.631
 L 99.0887,-111.665 L 99.0004,-111.722 L 98.9321,-111.803 L 98.8838,-111.906 L 98.8555,-112.032 L 98.2736,-111.981
 L 98.2955,-111.853 L 98.3299,-111.735 L 98.3769,-111.628 L 98.4364,-111.531 L 98.5084,-111.444 L 98.593,-111.368
 L 98.6891,-111.303 L 98.7958,-111.25 L 98.9129,-111.209 L 99.0406,-111.179 L 99.1787,-111.161 L 99.3274,-111.155
 z
M 94.3307,-111.168 L 94.5078,-111.186 L 94.6687,-111.217 L 94.8133,-111.261 L 94.9417,-111.316 L 95.0539,-111.384
 L 95.1493,-111.464 L 95.2274,-111.555 L 95.2881,-111.657 L 95.3315,-111.769 L 95.3575,-111.893 L 95.3662,-112.028
 L 95.3647,-112.087 L 95.3601,-112.143 L 95.3525,-112.197 L 95.3418,-112.248 L 95.3281,-112.298 L 95.3113,-112.344
 L 95.2916,-112.389 L 95.2692,-112.432 L 95.2441,-112.472 L 95.2163,-112.51 L 95.1858,-112.547 L 95.1526,-112.58
 L 95.1159,-112.613 L 95.0752,-112.644 L 95.0303,-112.673 L 94.9812,-112.701 L 94.9281,-112.728 L 94.8708,-112.753
 L 94.805,-112.779 L 94.7261,-112.804 L 94.6341,-112.831 L 94.5291,-112.858 L 94.411,-112.886 L 94.2799,-112.915
 L 94.1704,-112.939 L 94.0739,-112.962 L 93.9905,-112.984 L 93.92,-113.004 L 93.8625,-113.023 L 93.818,-113.04
 L 93.7816,-113.057 L 93.7483,-113.076 L 93.7181,-113.095 L 93.691,-113.116 L 93.667,-113.138 L 93.6461,-113.161
 L 93.6284,-113.186 L 93.6139,-113.213 L 93.6027,-113.243 L 93.5946,-113.274 L 93.5898,-113.308 L 93.5882,-113.344
 L 93.6033,-113.449 L 93.6488,-113.534 L 93.7245,-113.601 L 93.8305,-113.648 L 93.9668,-113.677 L 94.1334,-113.686
 L 94.2155,-113.684 L 94.291,-113.676 L 94.36,-113.663 L 94.4223,-113.645 L 94.478,-113.621 L 94.527,-113.593
 L 94.5702,-113.559 L 94.6083,-113.52 L 94.6412,-113.476 L 94.669,-113.427 L 94.6916,-113.373 L 94.7091,-113.314
 L 95.291,-113.393 L 95.2599,-113.515 L 95.2183,-113.625 L 95.1661,-113.723 L 95.1033,-113.809 L 95.03,-113.883
 L 94.9461,-113.945 L 94.8495,-113.995 L 94.7383,-114.037 L 94.6122,-114.07 L 94.4714,-114.093 L 94.3159,-114.107
 L 94.1456,-114.111 L 93.9671,-114.106 L 93.8035,-114.088 L 93.6545,-114.06 L 93.5204,-114.02 L 93.4009,-113.968
 L 93.2962,-113.905 L 93.207,-113.831 L 93.1341,-113.747 L 93.0773,-113.653 L 93.0368,-113.549 L 93.0124,-113.434
 L 93.0043,-113.31 L 93.0054,-113.26 L 93.0087,-113.212 L 93.0142,-113.166 L 93.0219,-113.122 L 93.0319,-113.08
 L 93.044,-113.039 L 93.0581,-113.001 L 93.0739,-112.964 L 93.0915,-112.929 L 93.1109,-112.895 L 93.132,-112.864
 L 93.1548,-112.834 L 93.1794,-112.805 L 93.2057,-112.778 L 93.2337,-112.753 L 93.2633,-112.728 L 93.2947,-112.706
 L 93.3277,-112.684 L 93.3623,-112.664 L 93.3983,-112.645 L 93.4356,-112.626 L 93.4742,-112.609 L 93.5142,-112.592
 L 93.5556,-112.576 L 93.6031,-112.56 L 93.6614,-112.543 L 93.7306,-112.523 L 93.8106,-112.502 L 93.9015,-112.48
 L 94.0032,-112.455 L 94.1206,-112.431 L 94.2246,-112.408 L 94.3152,-112.386 L 94.3924,-112.365 L 94.4563,-112.345
 L 94.5067,-112.327 L 94.5488,-112.309 L 94.5876,-112.289 L 94.6232,-112.268 L 94.6554,-112.245 L 94.6844,-112.221
 L 94.7101,-112.195 L 94.7322,-112.167 L 94.7502,-112.137 L 94.7643,-112.105 L 94.7743,-112.07 L 94.7803,-112.033
 L 94.7824,-111.994 L 94.7649,-111.877 L 94.7125,-111.781 L 94.6252,-111.707 L 94.503,-111.654 L 94.3458,-111.622
 L 94.1537,-111.611 L 94.0564,-111.614 L 93.9664,-111.622 L 93.8837,-111.637 L 93.8083,-111.657 L 93.7404,-111.682
 L 93.6797,-111.714 L 93.6259,-111.752 L 93.5782,-111.796 L 93.5368,-111.848 L 93.5016,-111.906 L 93.4726,-111.972
 L 93.4498,-112.044 L 92.87,-111.949 L 92.9061,-111.822 L 92.9546,-111.707 L 93.0155,-111.602 L 93.0889,-111.509
 L 93.1746,-111.428 L 93.2728,-111.357 L 93.3839,-111.297 L 93.5081,-111.248 L 93.6456,-111.21 L 93.7964,-111.183
 L 93.9603,-111.167 L 94.1375,-111.161 z
M 96.3429,-112.211 L 97.0549,-112.211 L 97.1602,-112.215 L 97.2607,-112.224 L 97.3562,-112.241 L 97.4468,-112.264
 L 97.5325,-112.294 L 97.6133,-112.33 L 97.6886,-112.373 L 97.7579,-112.421 L 97.8211,-112.474 L 97.8782,-112.533
 L 97.9293,-112.597 L 97.9744,-112.667 L 98.0129,-112.741 L 98.0445,-112.819 L 98.069,-112.899 L 98.0865,-112.983
 L 98.097,-113.071 L 98.1005,-113.161 L 98.0928,-113.3 L 98.0697,-113.428 L 98.0311,-113.546 L 97.9771,-113.652
 L 97.9077,-113.747 L 97.8228,-113.832 L 97.7237,-113.904 L 97.6114,-113.963 L 97.4859,-114.009 L 97.3473,-114.042
 L 97.1954,-114.062 L 97.0305,-114.069 L 95.7427,-114.069 L 95.7427,-111.202 L 96.3429,-111.202 z
M 96.3429,-112.673 L 96.3429,-113.603 L 96.9633,-113.603 L 97.1262,-113.59 L 97.2594,-113.553 L 97.3631,-113.49
 L 97.4371,-113.402 L 97.4815,-113.289 L 97.4964,-113.151 L 97.4926,-113.077 L 97.4814,-113.009 L 97.4628,-112.946
 L 97.4367,-112.89 L 97.4031,-112.84 L 97.3621,-112.796 L 97.3141,-112.758 L 97.2599,-112.728 L 97.1993,-112.704
 L 97.1324,-112.687 L 97.0592,-112.676 L 96.9796,-112.673 z
M 92.6522,-111.666 L 90.9149,-111.666 L 90.9149,-112.421 L 92.4447,-112.421 L 92.4447,-112.885 L 90.9149,-112.885
 L 90.9149,-113.605 L 92.5688,-113.605 L 92.5688,-114.069 L 90.3147,-114.069 L 90.3147,-111.202 L 92.6522,-111.202
 z
M 56.1213,-63.46 L 56.253,-63.4758 L 56.3781,-63.502 L 56.4964,-63.5387 L 56.608,-63.586 L 56.713,-63.6437
 L 56.8104,-63.7122 L 56.8998,-63.7917 L 56.9809,-63.8822 L 57.0539,-63.9838 L 57.1187,-64.0964 L 57.1753,-64.22
 L 56.6873,-64.4041 L 56.6129,-64.2487 L 56.5213,-64.1214 L 56.4125,-64.0225 L 56.2865,-63.9518 L 56.1433,-63.9094
 L 55.9829,-63.8953 L 55.8606,-63.902 L 55.7484,-63.9223 L 55.6461,-63.956 L 55.5538,-64.0033 L 55.4714,-64.0641
 L 55.399,-64.1383 L 55.3372,-64.2254 L 55.2867,-64.3246 L 55.2474,-64.4359 L 55.2193,-64.5594 L 55.2024,-64.695
 L 55.1968,-64.8427 L 55.2023,-64.9879 L 55.2186,-65.121 L 55.2459,-65.242 L 55.2841,-65.3508 L 55.3333,-65.4474
 L 55.3933,-65.532 L 55.4639,-65.6039 L 55.5447,-65.6628 L 55.6356,-65.7086 L 55.7368,-65.7413 L 55.8481,-65.7609
 L 55.9696,-65.7674 L 56.0507,-65.7641 L 56.1281,-65.7542 L 56.202,-65.7378 L 56.2721,-65.7147 L 56.3387,-65.685
 L 56.4016,-65.6488 L 56.4593,-65.6069 L 56.5103,-65.5605 L 56.5546,-65.5094 L 56.5923,-65.4538 L 56.6232,-65.3936
 L 56.6474,-65.3288 L 57.1411,-65.4636 L 57.0963,-65.5808 L 57.0417,-65.6882 L 56.9773,-65.7857 L 56.9031,-65.8733
 L 56.8191,-65.9511 L 56.7253,-66.019 L 56.6217,-66.0767 L 56.5084,-66.124 L 56.3854,-66.1607 L 56.2527,-66.187
 L 56.1103,-66.2027 L 55.9582,-66.2079 L 55.7515,-66.1981 L 55.5618,-66.1687 L 55.389,-66.1197 L 55.2333,-66.051
 L 55.0945,-65.9627 L 54.9727,-65.8548 L 54.8689,-65.7286 L 54.7839,-65.5854 L 54.7178,-65.4252 L 54.6706,-65.248
 L 54.6423,-65.0539 L 54.6329,-64.8427 L 54.6427,-64.6319 L 54.672,-64.4372 L 54.7209,-64.2587 L 54.7894,-64.0963
 L 54.8775,-63.9502 L 54.9851,-63.8203 L 55.1106,-63.7086 L 55.2525,-63.6172 L 55.4106,-63.5462 L 55.5851,-63.4954
 L 55.7758,-63.4649 L 55.9829,-63.4548 z
M 61.5981,-63.4594 L 61.7263,-63.4734 L 61.8488,-63.4968 L 61.9655,-63.5294 L 62.0766,-63.5715 L 62.182,-63.6228
 L 62.2806,-63.683 L 62.3712,-63.7514 L 62.454,-63.8281 L 62.5288,-63.9131 L 62.5958,-64.0064 L 62.6548,-64.1079
 L 62.7053,-64.2164 L 62.7466,-64.3305 L 62.7787,-64.4502 L 62.8016,-64.5755 L 62.8154,-64.7063 L 62.82,-64.8427
 L 62.81,-65.0472 L 62.7802,-65.2366 L 62.7305,-65.4109 L 62.6609,-65.5702 L 62.5714,-65.7143 L 62.4621,-65.8434
 L 62.335,-65.9548 L 62.1926,-66.0459 L 62.0346,-66.1168 L 61.8612,-66.1674 L 61.6724,-66.1978 L 61.4681,-66.2079
 L 61.2638,-66.1979 L 61.075,-66.1679 L 60.9018,-66.1178 L 60.744,-66.0476 L 60.6018,-65.9574 L 60.475,-65.8472
 L 60.366,-65.7191 L 60.2767,-65.5752 L 60.2073,-65.4157 L 60.1577,-65.2404 L 60.128,-65.0495 L 60.1181,-64.8427
 L 60.128,-64.6352 L 60.1578,-64.4429 L 60.2076,-64.2658 L 60.2771,-64.1039 L 60.3666,-63.9573 L 60.476,-63.826
 L 60.6029,-63.7126 L 60.7449,-63.6198 L 60.902,-63.5476 L 61.0743,-63.496 L 61.2617,-63.4651 L 61.4643,-63.4548
 z
M 61.3476,-63.9023 L 61.2395,-63.9234 L 61.1398,-63.9586 L 61.0487,-64.0079 L 60.966,-64.0713 L 60.8918,-64.1488
 L 60.8277,-64.2384 L 60.7753,-64.3385 L 60.7345,-64.449 L 60.7053,-64.5699 L 60.6878,-64.7011 L 60.682,-64.8427
 L 60.6877,-64.983 L 60.7048,-65.1125 L 60.7333,-65.2313 L 60.7731,-65.3394 L 60.8244,-65.4368 L 60.8871,-65.5234
 L 60.9602,-65.598 L 61.0428,-65.659 L 61.1348,-65.7064 L 61.2364,-65.7403 L 61.3475,-65.7607 L 61.4681,-65.7674
 L 61.5869,-65.7606 L 61.6966,-65.7401 L 61.797,-65.7059 L 61.8883,-65.6581 L 61.9705,-65.5967 L 62.0434,-65.5215
 L 62.1061,-65.4344 L 62.1573,-65.3368 L 62.1972,-65.2289 L 62.2257,-65.1106 L 62.2428,-64.9819 L 62.2485,-64.8427
 L 62.2428,-64.6973 L 62.2258,-64.5632 L 62.1974,-64.4407 L 62.1577,-64.3297 L 62.1067,-64.2301 L 62.0444,-64.1421
 L 61.9715,-64.0667 L 61.8892,-64.005 L 61.7973,-63.957 L 61.6958,-63.9227 L 61.5848,-63.9021 L 61.4643,-63.8953
 z
M 58.0362,-64.5086 L 58.6932,-64.5086 L 59.3141,-63.4928 L 59.9445,-63.4928 L 59.2211,-64.6168 L 59.3084,-64.6422
 L 59.3896,-64.6754 L 59.4646,-64.7162 L 59.5333,-64.7649 L 59.5958,-64.8213 L 59.6521,-64.8855 L 59.7008,-64.9556
 L 59.7407,-65.0301 L 59.7717,-65.1088 L 59.7939,-65.1918 L 59.8071,-65.2791 L 59.8116,-65.3706 L 59.8044,-65.4941
 L 59.7827,-65.6076 L 59.7465,-65.7112 L 59.696,-65.8048 L 59.6309,-65.8884 L 59.5514,-65.9621 L 59.4586,-66.025
 L 59.3537,-66.0765 L 59.2367,-66.1166 L 59.1075,-66.1452 L 58.9662,-66.1624 L 58.8128,-66.1681 L 57.4761,-66.1681
 L 57.4761,-63.4928 L 58.0362,-63.4928 z
M 58.0362,-64.9434 L 58.0362,-65.7333 L 58.754,-65.7333 L 58.9048,-65.7225 L 59.0282,-65.6904 L 59.1242,-65.6369
 L 59.1928,-65.562 L 59.2339,-65.4656 L 59.2476,-65.3478 L 59.2442,-65.2863 L 59.2341,-65.2295 L 59.2172,-65.1774
 L 59.1936,-65.1301 L 59.1632,-65.0875 L 59.1261,-65.0497 L 59.0824,-65.0172 L 59.0324,-64.9906 L 58.9761,-64.97
 L 58.9135,-64.9552 L 58.8445,-64.9463 L 58.7692,-64.9434 z
M 54.4093,-63.9257 L 52.9738,-63.9257 L 52.9738,-66.1681 L 52.4137,-66.1681 L 52.4137,-63.4928 L 54.4093,-63.4928
 z
M 52.0623,-63.9257 L 50.4408,-63.9257 L 50.4408,-64.6301 L 51.8686,-64.6301 L 51.8686,-65.063 L 50.4408,-65.063
 L 50.4408,-65.7352 L 51.9845,-65.7352 L 51.9845,-66.1681 L 49.8806,-66.1681 L 49.8806,-63.4928 L 52.0623,-63.4928
 z
M 49.6545,-66.1681 L 49.0754,-66.1681 L 48.5267,-64.4497 L 48.4298,-64.1079 L 48.39,-63.9446 L 48.3613,-64.0526
 L 48.3347,-64.151 L 48.3102,-64.2399 L 48.2878,-64.3193 L 48.2676,-64.3893 L 48.2495,-64.4497 L 47.6988,-66.1681
 L 47.114,-66.1681 L 48.1033,-63.4928 L 48.671,-63.4928 z
M 188.775,-61.4781 L 189.447,-60.4129 L 190.036,-60.4129 L 189.145,-61.8198 L 189.958,-63.0882 L 189.369,-63.0882
 L 188.775,-62.1426 L 188.18,-63.0882 L 187.588,-63.0882 L 188.437,-61.8198 L 187.51,-60.4129 L 188.103,-60.4129
 z
M 182.885,-61.0964 L 183.905,-61.0964 L 184.142,-60.4129 L 184.697,-60.4129 L 183.724,-63.0882 L 183.064,-63.0882
 L 182.088,-60.4129 L 182.648,-60.4129 z
M 183.01,-61.5179 L 183.103,-61.7872 L 183.18,-62.0129 L 183.242,-62.1948 L 183.289,-62.3331 L 183.321,-62.4277
 L 183.337,-62.4787 L 183.346,-62.5073 L 183.354,-62.5348 L 183.362,-62.5613 L 183.369,-62.5867 L 183.376,-62.6111
 L 183.383,-62.6344 L 183.394,-62.6762 L 183.434,-62.5451 L 183.516,-62.2869 L 183.779,-61.5179 z
M 186.289,-60.3827 L 186.458,-60.406 L 186.612,-60.4449 L 186.752,-60.4994 L 186.878,-60.5694 L 186.99,-60.655
 L 187.086,-60.7547 L 187.165,-60.8671 L 187.226,-60.9922 L 187.269,-61.1301 L 187.296,-61.2806 L 187.304,-61.4439
 L 187.304,-63.0882 L 186.744,-63.0882 L 186.744,-61.4781 L 186.74,-61.3752 L 186.726,-61.2807 L 186.704,-61.1944
 L 186.672,-61.1165 L 186.632,-61.0468 L 186.583,-60.9853 L 186.525,-60.9328 L 186.46,-60.8899 L 186.387,-60.8564
 L 186.306,-60.8326 L 186.218,-60.8183 L 186.121,-60.8135 L 186.028,-60.8181 L 185.942,-60.8317 L 185.864,-60.8546
 L 185.794,-60.8865 L 185.732,-60.9276 L 185.678,-60.9777 L 185.632,-61.0367 L 185.594,-61.1042 L 185.565,-61.1802
 L 185.544,-61.2647 L 185.531,-61.3576 L 185.527,-61.4591 L 185.527,-63.0882 L 184.967,-63.0882 L 184.967,-61.4154
 L 184.975,-61.2547 L 185,-61.107 L 185.04,-60.972 L 185.097,-60.85 L 185.171,-60.7408 L 185.26,-60.6445
 L 185.365,-60.5621 L 185.485,-60.4947 L 185.619,-60.4423 L 185.767,-60.4048 L 185.929,-60.3824 L 186.106,-60.3749
 z
M 143.209,-56.3605 L 143.374,-56.3779 L 143.524,-56.4068 L 143.659,-56.4472 L 143.779,-56.4991 L 143.884,-56.5627
 L 143.973,-56.6371 L 144.046,-56.7219 L 144.102,-56.8169 L 144.143,-56.9222 L 144.167,-57.0378 L 144.175,-57.1636
 L 144.174,-57.2182 L 144.17,-57.2707 L 144.162,-57.321 L 144.152,-57.3691 L 144.14,-57.4151 L 144.124,-57.4589
 L 144.106,-57.5006 L 144.085,-57.5403 L 144.061,-57.578 L 144.035,-57.6137 L 144.007,-57.6474 L 143.976,-57.6791
 L 143.942,-57.7092 L 143.904,-57.738 L 143.862,-57.7655 L 143.816,-57.7918 L 143.766,-57.8168 L 143.713,-57.8405
 L 143.651,-57.864 L 143.578,-57.8881 L 143.492,-57.9129 L 143.394,-57.9384 L 143.284,-57.9646 L 143.161,-57.9915
 L 143.059,-58.0142 L 142.969,-58.0357 L 142.891,-58.0558 L 142.825,-58.0746 L 142.772,-58.0921 L 142.73,-58.1082
 L 142.696,-58.1243 L 142.665,-58.1415 L 142.637,-58.1597 L 142.612,-58.1791 L 142.589,-58.1996 L 142.57,-58.2212
 L 142.553,-58.2444 L 142.54,-58.2697 L 142.529,-58.2972 L 142.522,-58.3267 L 142.517,-58.3584 L 142.516,-58.3921
 L 142.53,-58.4896 L 142.572,-58.5693 L 142.643,-58.6313 L 142.742,-58.6757 L 142.869,-58.7022 L 143.025,-58.7111
 L 143.101,-58.7087 L 143.172,-58.7014 L 143.236,-58.6893 L 143.294,-58.6723 L 143.346,-58.6504 L 143.392,-58.6237
 L 143.432,-58.5923 L 143.468,-58.556 L 143.499,-58.515 L 143.525,-58.4693 L 143.546,-58.4188 L 143.562,-58.3636
 L 144.105,-58.4377 L 144.076,-58.5517 L 144.037,-58.6543 L 143.988,-58.7458 L 143.93,-58.8259 L 143.861,-58.8947
 L 143.783,-58.9522 L 143.693,-58.9998 L 143.589,-59.0387 L 143.472,-59.069 L 143.34,-59.0906 L 143.195,-59.1036
 L 143.036,-59.1079 L 142.869,-59.1026 L 142.717,-59.0865 L 142.578,-59.0598 L 142.452,-59.0223 L 142.341,-58.9741
 L 142.243,-58.9152 L 142.16,-58.8463 L 142.092,-58.7679 L 142.039,-58.68 L 142.001,-58.5827 L 141.978,-58.476
 L 141.971,-58.3598 L 141.972,-58.3133 L 141.975,-58.2685 L 141.98,-58.2255 L 141.987,-58.1843 L 141.997,-58.1449
 L 142.008,-58.1073 L 142.021,-58.0714 L 142.036,-58.037 L 142.052,-58.0043 L 142.07,-57.9731 L 142.09,-57.9435
 L 142.111,-57.9155 L 142.134,-57.889 L 142.159,-57.8637 L 142.185,-57.8398 L 142.213,-57.8172 L 142.242,-57.7959
 L 142.273,-57.776 L 142.305,-57.7571 L 142.339,-57.739 L 142.373,-57.7218 L 142.409,-57.7055 L 142.447,-57.69
 L 142.485,-57.6753 L 142.53,-57.6603 L 142.584,-57.6438 L 142.649,-57.6257 L 142.723,-57.6062 L 142.808,-57.585
 L 142.903,-57.5624 L 143.013,-57.5395 L 143.11,-57.5179 L 143.194,-57.4973 L 143.266,-57.478 L 143.326,-57.4598
 L 143.373,-57.4427 L 143.412,-57.4256 L 143.449,-57.4071 L 143.482,-57.3872 L 143.512,-57.366 L 143.539,-57.3433
 L 143.563,-57.3193 L 143.583,-57.2935 L 143.6,-57.2655 L 143.613,-57.2353 L 143.623,-57.2029 L 143.628,-57.1682
 L 143.63,-57.1313 L 143.614,-57.0223 L 143.565,-56.933 L 143.484,-56.8636 L 143.37,-56.814 L 143.223,-56.7843
 L 143.044,-56.7744 L 142.953,-56.777 L 142.869,-56.785 L 142.792,-56.7983 L 142.721,-56.817 L 142.658,-56.841
 L 142.601,-56.8703 L 142.551,-56.9055 L 142.506,-56.9472 L 142.468,-56.9953 L 142.435,-57.05 L 142.408,-57.1112
 L 142.387,-57.1788 L 141.846,-57.0896 L 141.879,-56.9714 L 141.924,-56.8636 L 141.981,-56.7663 L 142.05,-56.6795
 L 142.13,-56.603 L 142.221,-56.537 L 142.325,-56.4814 L 142.441,-56.4358 L 142.569,-56.4003 L 142.71,-56.375
 L 142.863,-56.3598 L 143.028,-56.3548 z
M 140.546,-56.3625 L 140.715,-56.3859 L 140.869,-56.4248 L 141.01,-56.4792 L 141.136,-56.5493 L 141.248,-56.6348
 L 141.344,-56.7345 L 141.422,-56.847 L 141.483,-56.9721 L 141.527,-57.1099 L 141.553,-57.2605 L 141.562,-57.4238
 L 141.562,-59.0681 L 141.002,-59.0681 L 141.002,-57.4579 L 140.997,-57.3551 L 140.984,-57.2606 L 140.961,-57.1743
 L 140.93,-57.0963 L 140.89,-57.0266 L 140.84,-56.9652 L 140.783,-56.9127 L 140.717,-56.8697 L 140.644,-56.8363
 L 140.563,-56.8125 L 140.475,-56.7981 L 140.379,-56.7934 L 140.285,-56.7979 L 140.2,-56.8116 L 140.122,-56.8344
 L 140.052,-56.8664 L 139.99,-56.9074 L 139.936,-56.9576 L 139.889,-57.0166 L 139.852,-57.0841 L 139.822,-57.1601
 L 139.801,-57.2445 L 139.789,-57.3375 L 139.785,-57.439 L 139.785,-59.0681 L 139.224,-59.0681 L 139.224,-57.3953
 L 139.233,-57.2346 L 139.257,-57.0868 L 139.298,-56.9519 L 139.355,-56.8299 L 139.428,-56.7207 L 139.518,-56.6244
 L 139.623,-56.542 L 139.742,-56.4746 L 139.876,-56.4222 L 140.024,-56.3847 L 140.187,-56.3623 L 140.364,-56.3548
 z
M 146.021,-56.3983 L 146.166,-56.4149 L 146.298,-56.4426 L 146.419,-56.4813 L 146.528,-56.5312 L 146.625,-56.5921
 L 146.708,-56.6631 L 146.777,-56.7434 L 146.83,-56.8328 L 146.868,-56.9314 L 146.891,-57.0391 L 146.898,-57.1561
 L 146.893,-57.2442 L 146.879,-57.3264 L 146.856,-57.4026 L 146.823,-57.4729 L 146.78,-57.5372 L 146.728,-57.5956
 L 146.667,-57.6474 L 146.598,-57.6921 L 146.52,-57.7297 L 146.433,-57.7601 L 146.338,-57.7835 L 146.234,-57.7997
 L 146.316,-57.8209 L 146.391,-57.8477 L 146.459,-57.8802 L 146.519,-57.9183 L 146.572,-57.962 L 146.618,-58.0114
 L 146.657,-58.0656 L 146.688,-58.1237 L 146.713,-58.1859 L 146.73,-58.2519 L 146.741,-58.3219 L 146.744,-58.3959
 L 146.737,-58.5022 L 146.716,-58.5994 L 146.681,-58.6876 L 146.633,-58.7668 L 146.57,-58.837 L 146.493,-58.8981
 L 146.402,-58.95 L 146.299,-58.9925 L 146.182,-59.0256 L 146.051,-59.0492 L 145.908,-59.0634 L 145.751,-59.0681
 L 144.527,-59.0681 L 144.527,-56.3927 L 145.865,-56.3927 z
M 145.087,-57.9896 L 145.087,-58.6522 L 145.725,-58.6522 L 145.797,-58.6501 L 145.863,-58.6438 L 145.923,-58.6333
 L 145.977,-58.6185 L 146.024,-58.5995 L 146.066,-58.5763 L 146.101,-58.5481 L 146.129,-58.5141 L 146.152,-58.4742
 L 146.168,-58.4286 L 146.177,-58.3772 L 146.18,-58.32 L 146.177,-58.2672 L 146.169,-58.219 L 146.154,-58.1754
 L 146.133,-58.1364 L 146.106,-58.102 L 146.073,-58.0722 L 146.034,-58.0469 L 145.987,-58.0263 L 145.933,-58.0102
 L 145.872,-57.9987 L 145.804,-57.9919 L 145.729,-57.9896 z
M 145.087,-56.8086 L 145.087,-57.5757 L 145.797,-57.5757 L 145.962,-57.5652 L 146.097,-57.5339 L 146.201,-57.4817
 L 146.276,-57.4086 L 146.321,-57.3146 L 146.336,-57.1997 L 146.333,-57.1372 L 146.322,-57.0802 L 146.305,-57.0286
 L 146.281,-56.9824 L 146.25,-56.9417 L 146.212,-56.9063 L 146.166,-56.8765 L 146.113,-56.852 L 146.051,-56.833
 L 145.981,-56.8194 L 145.904,-56.8113 L 145.818,-56.8086 z
M 90,-35.9 L 20,-35.9 L 20,-3.89999 L 90,-3.89999 z
M 20.4,-4.3 L 20.4,-35.5 L 89.6,-35.5 L 89.6,-4.3 z
M 141.248,-31.5982 L 141.369,-31.6118 L 141.485,-31.6344 L 141.596,-31.6662 L 141.702,-31.707 L 141.803,-31.7569
 L 141.899,-31.8154 L 141.987,-31.8819 L 142.067,-31.9565 L 142.14,-32.0392 L 142.205,-32.1299 L 142.263,-32.2287
 L 142.313,-32.3345 L 142.353,-32.4462 L 142.385,-32.5636 L 142.407,-32.687 L 142.421,-32.8162 L 142.425,-32.9512
 L 142.415,-33.155 L 142.384,-33.3425 L 142.333,-33.5135 L 142.261,-33.6681 L 142.168,-33.8063 L 142.055,-33.9281
 L 141.923,-34.0323 L 141.774,-34.1175 L 141.608,-34.1837 L 141.426,-34.2311 L 141.226,-34.2595 L 141.009,-34.269
 L 140.041,-34.269 L 140.041,-31.5936 L 141.123,-31.5936 z
M 140.601,-32.0265 L 140.601,-33.836 L 140.997,-33.836 L 141.131,-33.8297 L 141.253,-33.8108 L 141.365,-33.7793
 L 141.467,-33.7352 L 141.557,-33.6785 L 141.637,-33.6091 L 141.706,-33.5278 L 141.762,-33.4352 L 141.805,-33.3312
 L 141.837,-33.2159 L 141.855,-33.0892 L 141.861,-32.9512 L 141.856,-32.8138 L 141.838,-32.6862 L 141.808,-32.5686
 L 141.767,-32.4609 L 141.714,-32.3631 L 141.649,-32.2753 L 141.574,-32.1993 L 141.491,-32.1371 L 141.399,-32.0887
 L 141.299,-32.0542 L 141.191,-32.0334 L 141.075,-32.0265 z
M 146.985,-32.6588 L 147.657,-31.5936 L 148.246,-31.5936 L 147.356,-33.0006 L 148.168,-34.269 L 147.58,-34.269
 L 146.985,-33.3234 L 146.391,-34.269 L 145.799,-34.269 L 146.647,-33.0006 L 145.721,-31.5936 L 146.313,-31.5936
 z
M 143.281,-33.2151 L 143.28,-33.2709 L 143.278,-33.3432 L 143.275,-33.4321 L 143.27,-33.5375 L 143.265,-33.6595
 L 143.258,-33.798 L 143.461,-33.086 L 143.943,-31.5936 L 144.342,-31.5936 L 144.824,-33.086 L 144.848,-33.1617
 L 144.875,-33.2546 L 144.906,-33.3647 L 144.942,-33.4919 L 144.981,-33.6364 L 145.024,-33.798 L 145.018,-33.6689
 L 145.014,-33.5599 L 145.011,-33.471 L 145.008,-33.4023 L 145.006,-33.3537 L 145.006,-33.3253 L 145.005,-33.3069
 L 145.005,-33.2886 L 145.005,-33.2702 L 145.005,-33.2518 L 145.005,-33.2335 L 145.005,-31.5936 L 145.502,-31.5936
 L 145.502,-34.269 L 144.756,-34.269 L 144.264,-32.6987 L 144.145,-32.2696 L 144.053,-32.6284 L 144.012,-32.7728
 L 143.533,-34.269 L 142.783,-34.269 L 142.783,-31.5936 L 143.281,-31.5936 z
M 182.164,-22.8092 L 182.315,-22.8407 L 182.454,-22.8933 L 182.579,-22.9669 L 182.691,-23.0615 L 182.791,-23.1771
 L 182.876,-23.3139 L 182.946,-23.4721 L 183,-23.6516 L 183.039,-23.8525 L 183.062,-24.0748 L 183.07,-24.3184
 L 183.063,-24.5471 L 183.042,-24.7559 L 183.007,-24.9447 L 182.958,-25.1136 L 182.895,-25.2625 L 182.818,-25.3915
 L 182.727,-25.5006 L 182.622,-25.5898 L 182.501,-25.6593 L 182.366,-25.7088 L 182.217,-25.7386 L 182.052,-25.7485
 L 181.899,-25.7415 L 181.758,-25.7203 L 181.628,-25.6849 L 181.511,-25.6355 L 181.406,-25.5719 L 181.313,-25.4942
 L 181.233,-25.404 L 181.168,-25.3028 L 181.117,-25.1906 L 181.08,-25.0674 L 181.059,-24.9333 L 181.051,-24.7883
 L 181.058,-24.6469 L 181.076,-24.5156 L 181.107,-24.3944 L 181.15,-24.2833 L 181.206,-24.1824 L 181.274,-24.0915
 L 181.353,-24.0129 L 181.44,-23.9485 L 181.536,-23.8985 L 181.64,-23.8628 L 181.754,-23.8413 L 181.875,-23.8342
 L 181.942,-23.8366 L 182.008,-23.8438 L 182.072,-23.8558 L 182.134,-23.8726 L 182.195,-23.8942 L 182.255,-23.9206
 L 182.311,-23.9513 L 182.361,-23.9856 L 182.406,-24.0236 L 182.446,-24.0653 L 182.48,-24.1107 L 182.508,-24.1597
 L 182.503,-24.0153 L 182.491,-23.8832 L 182.473,-23.7635 L 182.447,-23.6561 L 182.414,-23.561 L 182.375,-23.4782
 L 182.329,-23.4079 L 182.276,-23.3504 L 182.218,-23.3057 L 182.153,-23.2738 L 182.083,-23.2547 L 182.006,-23.2483
 L 181.916,-23.2566 L 181.837,-23.2815 L 181.771,-23.323 L 181.715,-23.3812 L 181.672,-23.456 L 181.639,-23.5473
 L 181.102,-23.4721 L 181.136,-23.3607 L 181.176,-23.2597 L 181.223,-23.1692 L 181.277,-23.0892 L 181.338,-23.0196
 L 181.406,-22.9604 L 181.483,-22.911 L 181.568,-22.8706 L 181.662,-22.8391 L 181.765,-22.8167 L 181.878,-22.8032
 L 181.999,-22.7987 z
M 181.978,-24.2633 L 181.921,-24.2753 L 181.868,-24.2952 L 181.82,-24.3231 L 181.777,-24.3589 L 181.739,-24.4028
 L 181.706,-24.4532 L 181.679,-24.5089 L 181.658,-24.5699 L 181.643,-24.6361 L 181.634,-24.7075 L 181.631,-24.7842
 L 181.634,-24.862 L 181.643,-24.934 L 181.658,-25.0001 L 181.68,-25.0604 L 181.707,-25.1149 L 181.74,-25.1636
 L 181.779,-25.2056 L 181.822,-25.2399 L 181.869,-25.2666 L 181.921,-25.2857 L 181.977,-25.2971 L 182.038,-25.3009
 L 182.1,-25.2966 L 182.158,-25.2834 L 182.212,-25.2615 L 182.262,-25.2309 L 182.307,-25.1915 L 182.348,-25.1433
 L 182.384,-25.0877 L 182.413,-25.0261 L 182.436,-24.9584 L 182.452,-24.8847 L 182.462,-24.8049 L 182.465,-24.7191
 L 182.462,-24.6516 L 182.452,-24.5888 L 182.435,-24.5307 L 182.412,-24.4772 L 182.381,-24.4285 L 182.344,-24.3844
 L 182.302,-24.3462 L 182.257,-24.3149 L 182.208,-24.2906 L 182.155,-24.2733 L 182.099,-24.2628 L 182.04,-24.2594
 z
M 176.603,-22.8442 L 176.732,-22.8588 L 176.856,-22.8831 L 176.975,-22.9171 L 177.089,-22.9609 L 177.198,-23.0143
 L 177.3,-23.077 L 177.394,-23.1483 L 177.48,-23.2282 L 177.558,-23.3168 L 177.628,-23.414 L 177.69,-23.5199
 L 177.743,-23.6332 L 177.787,-23.7528 L 177.82,-23.8787 L 177.845,-24.0108 L 177.859,-24.1493 L 177.864,-24.2939
 L 177.853,-24.5123 L 177.82,-24.7131 L 177.765,-24.8964 L 177.688,-25.062 L 177.588,-25.2101 L 177.467,-25.3406
 L 177.326,-25.4522 L 177.166,-25.5435 L 176.989,-25.6145 L 176.793,-25.6652 L 176.579,-25.6956 L 176.346,-25.7058
 L 175.309,-25.7058 L 175.309,-22.8394 L 176.468,-22.8394 z
M 175.909,-23.3032 L 175.909,-25.242 L 176.334,-25.242 L 176.477,-25.2352 L 176.608,-25.215 L 176.728,-25.1812
 L 176.837,-25.1339 L 176.934,-25.0731 L 177.02,-24.9988 L 177.093,-24.9117 L 177.153,-24.8125 L 177.2,-24.7011
 L 177.233,-24.5775 L 177.253,-24.4418 L 177.26,-24.2939 L 177.253,-24.1467 L 177.234,-24.01 L 177.203,-23.884
 L 177.158,-23.7686 L 177.101,-23.6638 L 177.032,-23.5697 L 176.951,-23.4883 L 176.862,-23.4216 L 176.764,-23.3698
 L 176.658,-23.3328 L 176.542,-23.3106 L 176.417,-23.3032 z
M 179.849,-22.8453 L 180.003,-22.8631 L 180.145,-22.8928 L 180.275,-22.9343 L 180.391,-22.9877 L 180.495,-23.053
 L 180.585,-23.1291 L 180.658,-23.2151 L 180.715,-23.3109 L 180.756,-23.4165 L 180.78,-23.5319 L 180.788,-23.6572
 L 180.783,-23.7517 L 180.768,-23.8397 L 180.743,-23.9214 L 180.707,-23.9967 L 180.662,-24.0656 L 180.606,-24.1281
 L 180.541,-24.1837 L 180.466,-24.2316 L 180.383,-24.2718 L 180.29,-24.3044 L 180.187,-24.3295 L 180.076,-24.3468
 L 180.164,-24.3695 L 180.245,-24.3983 L 180.317,-24.433 L 180.382,-24.4739 L 180.439,-24.5207 L 180.488,-24.5737
 L 180.529,-24.6317 L 180.563,-24.694 L 180.59,-24.7606 L 180.608,-24.8313 L 180.62,-24.9064 L 180.623,-24.9856
 L 180.616,-25.0995 L 180.593,-25.2036 L 180.556,-25.2981 L 180.504,-25.383 L 180.436,-25.4582 L 180.354,-25.5237
 L 180.257,-25.5793 L 180.146,-25.6249 L 180.02,-25.6603 L 179.881,-25.6856 L 179.727,-25.7007 L 179.559,-25.7058
 L 178.247,-25.7058 L 178.247,-22.8394 L 179.681,-22.8394 z
M 178.847,-24.5503 L 178.847,-25.2603 L 179.531,-25.2603 L 179.608,-25.258 L 179.679,-25.2512 L 179.743,-25.2399
 L 179.801,-25.2241 L 179.852,-25.2038 L 179.896,-25.1789 L 179.934,-25.1487 L 179.964,-25.1122 L 179.988,-25.0695
 L 180.005,-25.0207 L 180.016,-24.9656 L 180.019,-24.9043 L 180.016,-24.8477 L 180.006,-24.7961 L 179.99,-24.7494
 L 179.968,-24.7076 L 179.939,-24.6707 L 179.904,-24.6388 L 179.862,-24.6117 L 179.812,-24.5896 L 179.754,-24.5724
 L 179.689,-24.5601 L 179.616,-24.5527 L 179.535,-24.5503 z
M 178.847,-23.2849 L 178.847,-24.1068 L 179.608,-24.1068 L 179.785,-24.0956 L 179.929,-24.062 L 180.042,-24.0061
 L 180.122,-23.9277 L 180.17,-23.8271 L 180.186,-23.704 L 180.182,-23.637 L 180.171,-23.5759 L 180.153,-23.5206
 L 180.127,-23.4712 L 180.093,-23.4275 L 180.053,-23.3897 L 180.004,-23.3577 L 179.947,-23.3315 L 179.881,-23.3111
 L 179.806,-23.2965 L 179.723,-23.2878 L 179.631,-23.2849 z
M 14.5282,-18.368 L 14.6747,-18.3839 L 14.8146,-18.4106 L 14.9481,-18.448 L 15.075,-18.496 L 15.1954,-18.5546
 L 15.3081,-18.6234 L 15.4117,-18.7016 L 15.5063,-18.7893 L 15.5918,-18.8864 L 15.6683,-18.993 L 15.7358,-19.1091
 L 15.7935,-19.2331 L 15.8407,-19.3634 L 15.8774,-19.5002 L 15.9036,-19.6434 L 15.9193,-19.7929 L 15.9246,-19.9489
 L 15.9132,-20.1826 L 15.8791,-20.399 L 15.8223,-20.5982 L 15.7428,-20.7802 L 15.6405,-20.9449 L 15.5155,-21.0925
 L 15.3703,-21.2198 L 15.2075,-21.3239 L 15.027,-21.4049 L 14.8289,-21.4628 L 14.613,-21.4975 L 14.3795,-21.5091
 L 14.1461,-21.4976 L 13.9304,-21.4633 L 13.7323,-21.406 L 13.5521,-21.3258 L 13.3895,-21.2228 L 13.2446,-21.0968
 L 13.12,-20.9504 L 13.018,-20.786 L 12.9387,-20.6037 L 12.882,-20.4034 L 12.848,-20.1851 L 12.8367,-19.9489
 L 12.848,-19.7117 L 12.8821,-19.4918 L 12.9389,-19.2895 L 13.0185,-19.1045 L 13.1207,-18.937 L 13.2457,-18.7868
 L 13.3907,-18.6572 L 13.553,-18.5511 L 13.7326,-18.4687 L 13.9295,-18.4097 L 14.1437,-18.3744 L 14.3752,-18.3626
 z
M 14.2419,-18.8741 L 14.1183,-18.8982 L 14.0044,-18.9385 L 13.9002,-18.9948 L 13.8057,-19.0672 L 13.721,-19.1557
 L 13.6477,-19.2582 L 13.5878,-19.3726 L 13.5411,-19.4989 L 13.5078,-19.637 L 13.4878,-19.787 L 13.4812,-19.9489
 L 13.4877,-20.1091 L 13.5072,-20.2571 L 13.5398,-20.3929 L 13.5853,-20.5164 L 13.6439,-20.6277 L 13.7155,-20.7268
 L 13.7991,-20.812 L 13.8935,-20.8817 L 13.9987,-20.9359 L 14.1148,-20.9747 L 14.2418,-20.9979 L 14.3795,-21.0056
 L 14.5154,-20.9978 L 14.6407,-20.9744 L 14.7555,-20.9354 L 14.8598,-20.8807 L 14.9537,-20.8105 L 15.037,-20.7246
 L 15.1087,-20.625 L 15.1673,-20.5135 L 15.2128,-20.3902 L 15.2454,-20.2549 L 15.2649,-20.1078 L 15.2714,-19.9489
 L 15.2649,-19.7826 L 15.2455,-19.6294 L 15.2131,-19.4894 L 15.1677,-19.3625 L 15.1094,-19.2487 L 15.0381,-19.1481
 L 14.9549,-19.062 L 14.8608,-18.9914 L 14.7558,-18.9366 L 14.6398,-18.8974 L 14.513,-18.8739 L 14.3752,-18.866
 z
M 11.4456,-18.3692 L 11.6344,-18.389 L 11.806,-18.422 L 11.9603,-18.4682 L 12.0973,-18.5276 L 12.217,-18.6002
 L 12.3188,-18.6853 L 12.402,-18.7821 L 12.4668,-18.8907 L 12.5131,-19.0111 L 12.5408,-19.1432 L 12.5501,-19.287
 L 12.5485,-19.3494 L 12.5436,-19.4094 L 12.5354,-19.4668 L 12.524,-19.5219 L 12.5094,-19.5744 L 12.4915,-19.6244
 L 12.4705,-19.6721 L 12.4466,-19.7175 L 12.4199,-19.7606 L 12.3902,-19.8014 L 12.3577,-19.84 L 12.3222,-19.8762
 L 12.2831,-19.9105 L 12.2396,-19.9434 L 12.1917,-19.9749 L 12.1395,-20.0049 L 12.0828,-20.0335 L 12.0217,-20.0606
 L 11.9514,-20.0874 L 11.8672,-20.115 L 11.7691,-20.1433 L 11.6571,-20.1725 L 11.5312,-20.2024 L 11.3913,-20.2331
 L 11.2745,-20.2591 L 11.1716,-20.2836 L 11.0826,-20.3066 L 11.0074,-20.3281 L 10.9461,-20.3481 L 10.8987,-20.3666
 L 10.8598,-20.3849 L 10.8243,-20.4045 L 10.7921,-20.4254 L 10.7632,-20.4476 L 10.7376,-20.471 L 10.7153,-20.4957
 L 10.6964,-20.5222 L 10.681,-20.5511 L 10.669,-20.5825 L 10.6604,-20.6163 L 10.6552,-20.6524 L 10.6535,-20.691
 L 10.6697,-20.8024 L 10.7181,-20.8935 L 10.7989,-20.9644 L 10.912,-21.015 L 11.0574,-21.0454 L 11.2351,-21.0556
 L 11.3227,-21.0528 L 11.4032,-21.0445 L 11.4767,-21.0306 L 11.5432,-21.0112 L 11.6026,-20.9862 L 11.655,-20.9557
 L 11.701,-20.9197 L 11.7416,-20.8783 L 11.7767,-20.8315 L 11.8064,-20.7792 L 11.8305,-20.7215 L 11.8492,-20.6584
 L 12.4698,-20.7431 L 12.4367,-20.8733 L 12.3923,-20.9907 L 12.3366,-21.0952 L 12.2697,-21.1867 L 12.1915,-21.2654
 L 12.102,-21.3311 L 11.999,-21.3855 L 11.8803,-21.43 L 11.7458,-21.4646 L 11.5956,-21.4893 L 11.4297,-21.5042
 L 11.2481,-21.5091 L 11.0578,-21.503 L 10.8832,-21.4846 L 10.7243,-21.454 L 10.5812,-21.4112 L 10.4538,-21.3561
 L 10.3421,-21.2888 L 10.247,-21.21 L 10.1691,-21.1204 L 10.1086,-21.02 L 10.0653,-20.9088 L 10.0394,-20.7869
 L 10.0307,-20.6541 L 10.0319,-20.6009 L 10.0354,-20.5497 L 10.0413,-20.5006 L 10.0495,-20.4535 L 10.0601,-20.4085
 L 10.073,-20.3655 L 10.0881,-20.3245 L 10.105,-20.2852 L 10.1237,-20.2478 L 10.1444,-20.2122 L 10.1669,-20.1783
 L 10.1913,-20.1463 L 10.2175,-20.116 L 10.2455,-20.0871 L 10.2754,-20.0598 L 10.307,-20.034 L 10.3405,-20.0096
 L 10.3757,-19.9868 L 10.4126,-19.9652 L 10.4509,-19.9446 L 10.4907,-19.925 L 10.532,-19.9063 L 10.5746,-19.8886
 L 10.6188,-19.8718 L 10.6694,-19.8547 L 10.7316,-19.8358 L 10.8054,-19.8152 L 10.8908,-19.7928 L 10.9877,-19.7686
 L 11.0962,-19.7427 L 11.2214,-19.7166 L 11.3324,-19.6918 L 11.429,-19.6684 L 11.5114,-19.6463 L 11.5795,-19.6255
 L 11.6333,-19.606 L 11.6782,-19.5864 L 11.7196,-19.5653 L 11.7575,-19.5425 L 11.7919,-19.5182 L 11.8228,-19.4924
 L 11.8503,-19.465 L 11.8738,-19.4355 L 11.8931,-19.4035 L 11.908,-19.3689 L 11.9187,-19.3319 L 11.9252,-19.2923
 L 11.9273,-19.2501 L 11.9087,-19.1255 L 11.8528,-19.0235 L 11.7597,-18.9442 L 11.6293,-18.8875 L 11.4617,-18.8535
 L 11.2568,-18.8422 L 11.1529,-18.8452 L 11.0569,-18.8543 L 10.9687,-18.8696 L 10.8884,-18.8909 L 10.8158,-18.9182
 L 10.7511,-18.9517 L 10.6937,-18.992 L 10.6429,-19.0396 L 10.5987,-19.0947 L 10.5612,-19.1572 L 10.5302,-19.2271
 L 10.506,-19.3044 L 9.88751,-19.2024 L 9.92596,-19.0673 L 9.97769,-18.9442 L 10.0426,-18.8329 L 10.1209,-18.7337
 L 10.2124,-18.6463 L 10.3172,-18.5709 L 10.4356,-18.5073 L 10.5681,-18.4552 L 10.7148,-18.4147 L 10.8756,-18.3858
 L 11.0504,-18.3684 L 11.2394,-18.3626 z
M 2.5213,-18.3692 L 2.71019,-18.389 L 2.88176,-18.422 L 3.03604,-18.4682 L 3.17302,-18.5276 L 3.29269,-18.6002
 L 3.39449,-18.6853 L 3.47777,-18.7821 L 3.54254,-18.8907 L 3.58881,-19.0111 L 3.61656,-19.1432 L 3.62582,-19.287
 L 3.62419,-19.3494 L 3.61931,-19.4094 L 3.61118,-19.4668 L 3.59978,-19.5219 L 3.58513,-19.5744 L 3.56723,-19.6244
 L 3.54625,-19.6721 L 3.52238,-19.7175 L 3.49561,-19.7606 L 3.46596,-19.8014 L 3.4334,-19.84 L 3.39795,-19.8762
 L 3.35886,-19.9105 L 3.31537,-19.9434 L 3.26749,-19.9749 L 3.21519,-20.0049 L 3.15849,-20.0335 L 3.0974,-20.0606
 L 3.02716,-20.0874 L 2.94298,-20.115 L 2.84488,-20.1433 L 2.73286,-20.1725 L 2.6069,-20.2024 L 2.46704,-20.2331
 L 2.35028,-20.2591 L 2.24738,-20.2836 L 2.15834,-20.3066 L 2.08318,-20.3281 L 2.02187,-20.3481 L 1.97443,-20.3666
 L 1.93558,-20.3849 L 1.90005,-20.4045 L 1.86783,-20.4254 L 1.83893,-20.4476 L 1.81334,-20.471 L 1.79106,-20.4957
 L 1.77217,-20.5222 L 1.75671,-20.5511 L 1.74471,-20.5825 L 1.73611,-20.6163 L 1.73096,-20.6524 L 1.72925,-20.691
 L 1.74539,-20.8024 L 1.79387,-20.8935 L 1.87463,-20.9644 L 1.98772,-21.015 L 2.1331,-21.0454 L 2.31081,-21.0556
 L 2.39842,-21.0528 L 2.47897,-21.0445 L 2.55249,-21.0306 L 2.61894,-21.0112 L 2.67833,-20.9862 L 2.73068,-20.9557
 L 2.77676,-20.9197 L 2.81737,-20.8783 L 2.85248,-20.8315 L 2.88211,-20.7792 L 2.90625,-20.7215 L 2.9249,-20.6584
 L 3.54553,-20.7431 L 3.51241,-20.8733 L 3.468,-20.9907 L 3.41234,-21.0952 L 3.3454,-21.1867 L 3.26718,-21.2654
 L 3.17769,-21.3311 L 3.07471,-21.3855 L 2.95599,-21.43 L 2.82155,-21.4646 L 2.67137,-21.4893 L 2.50545,-21.5042
 L 2.32381,-21.5091 L 2.13348,-21.503 L 1.95889,-21.4846 L 1.80003,-21.454 L 1.65691,-21.4112 L 1.52951,-21.3561
 L 1.41785,-21.2888 L 1.32271,-21.21 L 1.24486,-21.1204 L 1.18431,-21.02 L 1.14105,-20.9088 L 1.11511,-20.7869
 L 1.10646,-20.6541 L 1.10764,-20.6009 L 1.11116,-20.5497 L 1.11703,-20.5006 L 1.12526,-20.4535 L 1.13583,-20.4085
 L 1.14876,-20.3655 L 1.1638,-20.3245 L 1.18071,-20.2852 L 1.19948,-20.2478 L 1.22012,-20.2122 L 1.24263,-20.1783
 L 1.267,-20.1463 L 1.29323,-20.116 L 1.32126,-20.0871 L 1.3511,-20.0598 L 1.38274,-20.034 L 1.4162,-20.0096
 L 1.45145,-19.9868 L 1.48834,-19.9652 L 1.52669,-19.9446 L 1.56647,-19.925 L 1.6077,-19.9063 L 1.65038,-19.8886
 L 1.69449,-19.8718 L 1.74513,-19.8547 L 1.80734,-19.8358 L 1.88113,-19.8152 L 1.96649,-19.7928 L 2.06343,-19.7686
 L 2.17194,-19.7427 L 2.29715,-19.7166 L 2.40808,-19.6918 L 2.50475,-19.6684 L 2.58711,-19.6463 L 2.65518,-19.6255
 L 2.70898,-19.606 L 2.75389,-19.5864 L 2.7953,-19.5653 L 2.83322,-19.5425 L 2.86763,-19.5182 L 2.89856,-19.4924
 L 2.92598,-19.465 L 2.94952,-19.4355 L 2.96878,-19.4035 L 2.98376,-19.3689 L 2.99448,-19.3319 L 3.0009,-19.2923
 L 3.00304,-19.2501 L 2.98441,-19.1255 L 2.92853,-19.0235 L 2.8354,-18.9442 L 2.70502,-18.8875 L 2.53738,-18.8535
 L 2.3325,-18.8422 L 2.22865,-18.8452 L 2.13263,-18.8543 L 2.04443,-18.8696 L 1.96408,-18.8909 L 1.89156,-18.9182
 L 1.82687,-18.9517 L 1.76944,-18.992 L 1.71863,-19.0396 L 1.67444,-19.0947 L 1.6369,-19.1572 L 1.60597,-19.2271
 L 1.5817,-19.3044 L 0.963226,-19.2024 L 1.00169,-19.0673 L 1.05341,-18.9442 L 1.11839,-18.8329 L 1.19662,-18.7337
 L 1.28813,-18.6463 L 1.3929,-18.5709 L 1.51134,-18.5073 L 1.64389,-18.4552 L 1.79054,-18.4147 L 1.95129,-18.3858
 L 2.12616,-18.3684 L 2.31512,-18.3626 z
M 16.9678,-19.567 L 17.7187,-19.567 L 18.4283,-18.406 L 19.1487,-18.406 L 18.3219,-19.6906 L 18.4218,-19.7197
 L 18.5146,-19.7576 L 18.6002,-19.8043 L 18.6788,-19.8599 L 18.7502,-19.9243 L 18.8145,-19.9977 L 18.8702,-20.0779
 L 18.9158,-20.1629 L 18.9512,-20.2529 L 18.9765,-20.3478 L 18.9917,-20.4475 L 18.9968,-20.5521 L 18.9885,-20.6933
 L 18.9638,-20.823 L 18.9225,-20.9414 L 18.8647,-21.0483 L 18.7903,-21.1439 L 18.6995,-21.2281 L 18.5935,-21.3
 L 18.4736,-21.3589 L 18.3398,-21.4047 L 18.1922,-21.4374 L 18.0307,-21.457 L 17.8554,-21.4635 L 16.3277,-21.4635
 L 16.3277,-18.406 L 16.9678,-18.406 z
M 16.9678,-20.0639 L 16.9678,-20.9666 L 17.7881,-20.9666 L 17.9605,-20.9544 L 18.1015,-20.9176 L 18.2112,-20.8565
 L 18.2896,-20.7708 L 18.3366,-20.6607 L 18.3523,-20.5261 L 18.3484,-20.4557 L 18.3369,-20.3908 L 18.3176,-20.3313
 L 18.2906,-20.2773 L 18.2558,-20.2286 L 18.2134,-20.1854 L 18.1635,-20.1483 L 18.1064,-20.1179 L 18.042,-20.0943
 L 17.9704,-20.0774 L 17.8915,-20.0672 L 17.8055,-20.0639 z
M 6.52075,-18.9008 L 4.66757,-18.9008 L 4.66757,-19.7058 L 6.29941,-19.7058 L 6.29941,-20.2006 L 4.66757,-20.2006
 L 4.66757,-20.9688 L 6.43179,-20.9688 L 6.43179,-21.4635 L 4.02742,-21.4635 L 4.02742,-18.406 L 6.52075,-18.406
 z
M 7.49089,-20.2092 L 7.48981,-20.2824 L 7.48656,-20.3631 L 7.48114,-20.4512 L 7.47354,-20.5468 L 7.46378,-20.6499
 L 7.45186,-20.7605 L 8.78421,-18.406 L 9.53505,-18.406 L 9.53505,-21.4635 L 8.96651,-21.4635 L 8.96651,-19.6863
 L 8.96759,-19.595 L 8.97084,-19.5004 L 8.97627,-19.4026 L 8.98386,-19.3015 L 8.99362,-19.1972 L 9.00555,-19.0896
 L 7.65364,-21.4635 L 6.92235,-21.4635 L 6.92235,-18.406 L 7.49089,-18.406 z
"/>
</g>
</svg>