<svg xmlns="http://www.w3.org/2000/svg" version="1.1" width="231mm" height="178mm" viewBox="0 -178 231 178">
<g id="cut" fill="none" stroke="#000000" stroke-width="0.2">
<path d="
M 33,-103 L 45,-103 L 45,-100 L 65,-100 L 65,-103 L 77,-103
 L 77,-100 L 97,-100 L 97,-103 L 107,-103 L 107,-111 L 110,-111
 L 110,-131 L 107,-131 L 107,-147 L 110,-147 L 110,-167 L 107,-167
 L 107,-175 L 97,-175 L 97,-178 L 77,-178 L 77,-175 L 65,-175
 L 65,-178 L 45,-178 L 45,-175 L 33,-175 L 33,-178 L 13,-178
 L 13,-175 L 3,-175 L 3,-167 L 0,-167 L 0,-147 L 3,-147
 L 3,-131 L 0,-131 L 0,-111 L 3,-111 L 3,-103 L 13,-103
 L 13,-100 L 33,-100 z
M 169.286,-101.095 L 169.543,-102.163 L 169.963,-103.178 L 170.537,-104.114 L 171.25,-104.95 L 172.085,-105.663
 L 173.022,-106.237 L 174.037,-106.657 L 175.105,-106.914 L 176.2,-107 L 177.295,-106.914 L 178.363,-106.657
 L 179.378,-106.237 L 180.314,-105.663 L 181.15,-104.95 L 181.863,-104.114 L 182.437,-103.178 L 182.857,-102.163
 L 183.114,-101.095 L 183.2,-100 L 228,-100 L 228,-103.2 L 230.4,-103.2 L 230.4,-175
 L 122,-175 L 122,-103.2 L 124.4,-103.2 L 124.4,-100 L 169.2,-100 z
M 13,-53 L 33,-53 L 33,-50 L 45,-50 L 45,-53 L 65,-53
 L 65,-50 L 77,-50 L 77,-53 L 97,-53 L 97,-50 L 110,-50
 L 110,-58.8 L 106.99,-58.8 L 106.99,-67.6 L 110,-67.6 L 110,-76.4 L 106.99,-76.4
 L 106.99,-85.2 L 110,-85.2 L 110,-94 L 0,-94 L 0,-85.2 L 3.00999,-85.2
 L 3.00999,-76.4 L 0,-76.4 L 0,-67.6 L 3.00999,-67.6 L 3.00999,-58.8 L 0,-58.8
 L 0,-50 L 13,-50 z
M 25.5,-58 L 25.5,-82 L 30.5,-82 L 30.5,-58 z
M 79.5,-58 L 79.5,-82 L 84.5,-82 L 84.5,-58 z
M 196.99,-94 L 125.01,-94 L 125.01,-90.4 L 196.99,-90.4 z
M 133,-53 L 153,-53 L 153,-50 L 169,-50 L 169,-53 L 189,-53
 L 189,-50 L 196.99,-50 L 196.99,-58.8 L 200,-58.8 L 200,-67.6 L 196.99,-67.6
 L 196.99,-76.4 L 200,-76.4 L 200,-85.2 L 196.99,-85.2 L 196.99,-87 L 125.01,-87
 L 125.01,-85.2 L 122,-85.2 L 122,-76.4 L 125.01,-76.4 L 125.01,-67.6 L 122,-67.6
 L 122,-58.8 L 125.01,-58.8 L 125.01,-50 L 133,-50 z
M 196.99,-44 L 125.01,-44 L 125.01,-40.4 L 196.99,-40.4 z
M 13,-3 L 33,-3 L 33,-0 L 45,-0 L 45,-3 L 65,-3
 L 65,-0 L 77,-0 L 77,-3 L 97,-3 L 97,-0 L 110,-0
 L 110,-8.79999 L 106.99,-8.79999 L 106.99,-17.6 L 110,-17.6 L 110,-26.4 L 106.99,-26.4
 L 106.99,-35.2 L 110,-35.2 L 110,-44 L 0,-44 L 0,-35.2 L 3.00999,-35.2
 L 3.00999,-26.4 L 0,-26.4 L 0,-17.6 L 3.00999,-17.6 L 3.00999,-8.79999 L 0,-8.79999
 L 0,-0 L 13,-0 z
M 3,-37 L 3,-40.4 L 107,-40.4 L 107,-37 z
M 27,-8 L 27,-32 L 83,-32 L 83,-8 z
M 133,-3 L 153,-3 L 153,-0 L 169,-0 L 169,-3 L 189,-3
 L 189,-0 L 196.99,-0 L 196.99,-8.79999 L 200,-8.79999 L 200,-17.6 L 196.99,-17.6
 L 196.99,-26.4 L 200,-26.4 L 200,-35.2 L 196.99,-35.2 L 196.99,-37 L 125.01,-37
 L 125.01,-35.2 L 122,-35.2 L 122,-26.4 L 125.01,-26.4 L 125.01,-17.6 L 122,-17.6
 L 122,-8.79999 L 125.01,-8.79999 L 125.01,-0 L 133,-0 z
"/>
</g>
<g id="etch" fill="#ff0000" stroke="#ff0000" stroke-width="0.1">
<path d="
M 90.4505,-167.469 L 90.6011,-167.487 L 90.744,-167.517 L 90.8792,-167.559 L 91.0068,-167.613 L 91.1267,-167.679
 L 91.2381,-167.757 L 91.3402,-167.848 L 91.433,-167.951 L 91.5163,-168.067 L 91.5904,-168.196 L 91.6551,-168.337
 L 91.0974,-168.548 L 91.0124,-168.37 L 90.9077,-168.225 L 90.7833,-168.111 L 90.6393,-168.031 L 90.4756,-167.982
 L 90.2923,-167.966 L 90.1527,-167.974 L 90.0244,-167.997 L 89.9075,-168.035 L 89.8019,-168.089 L 89.7078,-168.159
 L 89.6251,-168.244 L 89.5545,-168.343 L 89.4967,-168.457 L 89.4518,-168.584 L 89.4197,-168.725 L 89.4004,-168.88
 L 89.394,-169.049 L 89.4002,-169.215 L 89.4189,-169.367 L 89.4501,-169.505 L 89.4938,-169.629 L 89.5499,-169.74
 L 89.6186,-169.837 L 89.6992,-169.919 L 89.7916,-169.986 L 89.8955,-170.038 L 90.0111,-170.076 L 90.1383,-170.098
 L 90.2771,-170.106 L 90.3698,-170.102 L 90.4584,-170.091 L 90.5427,-170.072 L 90.6229,-170.045 L 90.699,-170.011
 L 90.7708,-169.97 L 90.8368,-169.922 L 90.8951,-169.869 L 90.9458,-169.811 L 90.9888,-169.747 L 91.0241,-169.678
 L 91.0518,-169.604 L 91.6161,-169.758 L 91.5649,-169.892 L 91.5025,-170.015 L 91.4289,-170.127 L 91.3441,-170.227
 L 91.248,-170.316 L 91.1408,-170.393 L 91.0224,-170.459 L 90.8929,-170.513 L 90.7524,-170.555 L 90.6007,-170.585
 L 90.438,-170.603 L 90.2641,-170.609 L 90.0279,-170.598 L 89.8111,-170.564 L 89.6137,-170.508 L 89.4357,-170.43
 L 89.2771,-170.329 L 89.1379,-170.205 L 89.0192,-170.061 L 88.9221,-169.898 L 88.8466,-169.715 L 88.7926,-169.512
 L 88.7603,-169.29 L 88.7495,-169.049 L 88.7607,-168.808 L 88.7942,-168.585 L 88.8501,-168.381 L 88.9284,-168.196
 L 89.029,-168.029 L 89.152,-167.88 L 89.2955,-167.753 L 89.4576,-167.648 L 89.6384,-167.567 L 89.8377,-167.509
 L 90.0557,-167.474 L 90.2923,-167.463 z
M 83.976,-167.511 L 84.1138,-167.527 L 84.2462,-167.553 L 84.3732,-167.589 L 84.4946,-167.636 L 84.6105,-167.693
 L 84.7195,-167.759 L 84.8198,-167.835 L 84.9116,-167.921 L 84.9949,-168.015 L 85.0695,-168.119 L 85.1357,-168.232
 L 85.1924,-168.353 L 85.2388,-168.48 L 85.2748,-168.615 L 85.3006,-168.756 L 85.3161,-168.903 L 85.3212,-169.058
 L 85.3095,-169.29 L 85.2742,-169.505 L 85.2154,-169.7 L 85.1331,-169.877 L 85.0273,-170.035 L 84.898,-170.174
 L 84.7473,-170.293 L 84.5771,-170.39 L 84.3876,-170.466 L 84.1786,-170.52 L 83.9502,-170.553 L 83.7024,-170.564
 L 82.5957,-170.564 L 82.5957,-167.506 L 83.8326,-167.506 z
M 83.2358,-168.001 L 83.2358,-170.069 L 83.6894,-170.069 L 83.8417,-170.062 L 83.9818,-170.04 L 84.1098,-170.004
 L 84.2256,-169.954 L 84.3292,-169.889 L 84.4207,-169.809 L 84.4989,-169.717 L 84.5629,-169.611 L 84.6127,-169.492
 L 84.6483,-169.36 L 84.6696,-169.215 L 84.6767,-169.058 L 84.67,-168.9 L 84.6497,-168.755 L 84.616,-168.62
 L 84.5687,-168.497 L 84.5079,-168.385 L 84.4337,-168.285 L 84.348,-168.198 L 84.2529,-168.127 L 84.1483,-168.072
 L 84.0344,-168.032 L 83.9111,-168.009 L 83.7783,-168.001 z
M 86.4549,-168.287 L 87.6201,-168.287 L 87.8914,-167.506 L 88.525,-167.506 L 87.414,-170.564 L 86.6589,-170.564
 L 85.5435,-167.506 L 86.1836,-167.506 z
M 86.5981,-168.769 L 86.7037,-169.077 L 86.7919,-169.335 L 86.8628,-169.543 L 86.9164,-169.701 L 86.9525,-169.809
 L 86.9713,-169.867 L 86.9812,-169.9 L 86.9906,-169.931 L 86.9995,-169.961 L 87.008,-169.99 L 87.0159,-170.018
 L 87.0234,-170.045 L 87.0364,-170.093 L 87.082,-169.943 L 87.1753,-169.648 L 87.4769,-168.769 z
M 102.25,-164.5 L 71.75,-164.5 L 71.75,-143.5 L 102.25,-143.5 z
M 72.15,-143.9 L 72.15,-164.1 L 101.85,-164.1 L 101.85,-143.9 z
M 74.55,-161.4 L 76.05,-161.4 L 76.05,-161.9 L 74.55,-161.9 L 74.55,-163.4 L 74.05,-163.4
 L 74.05,-161.9 L 72.55,-161.9 L 72.55,-161.4 L 74.05,-161.4 L 74.05,-159.9 L 74.55,-159.9
 z
M 99.95,-161.4 L 101.45,-161.4 L 101.45,-161.9 L 99.95,-161.9 L 99.95,-163.4 L 99.45,-163.4
 L 99.45,-161.9 L 97.95,-161.9 L 97.95,-161.4 L 99.45,-161.4 L 99.45,-159.9 L 99.95,-159.9
 z
M 74.55,-146.1 L 76.05,-146.1 L 76.05,-146.6 L 74.55,-146.6 L 74.55,-148.1 L 74.05,-148.1
 L 74.05,-146.6 L 72.55,-146.6 L 72.55,-146.1 L 74.05,-146.1 L 74.05,-144.6 L 74.55,-144.6
 z
M 99.95,-146.1 L 101.45,-146.1 L 101.45,-146.6 L 99.95,-146.6 L 99.95,-148.1 L 99.45,-148.1
 L 99.45,-146.6 L 97.95,-146.6 L 97.95,-146.1 L 99.45,-146.1 L 99.45,-144.6 L 99.95,-144.6
 z
M 59.4124,-127.01 L 57.9932,-127.01 L 58.0152,-127.057 L 58.0408,-127.102 L 58.0699,-127.147 L 58.1026,-127.191
 L 58.1389,-127.233 L 58.1787,-127.275 L 58.2211,-127.316 L 58.2649,-127.357 L 58.3103,-127.398 L 58.3571,-127.439
 L 58.4055,-127.48 L 58.4554,-127.52 L 58.5063,-127.561 L 58.5577,-127.602 L 58.6097,-127.643 L 58.6623,-127.685
 L 58.7153,-127.727 L 58.769,-127.77 L 58.822,-127.813 L 58.8735,-127.857 L 58.9233,-127.902 L 58.9715,-127.949
 L 59.0181,-127.996 L 59.063,-128.044 L 59.1058,-128.094 L 59.146,-128.145 L 59.1834,-128.198 L 59.2183,-128.252
 L 59.2505,-128.307 L 59.28,-128.364 L 59.3058,-128.423 L 59.327,-128.485 L 59.3435,-128.548 L 59.3552,-128.614
 L 59.3623,-128.682 L 59.3646,-128.753 L 59.3573,-128.884 L 59.3352,-129.004 L 59.2984,-129.115 L 59.247,-129.216
 L 59.1808,-129.306 L 59.0999,-129.386 L 59.0053,-129.455 L 58.8978,-129.512 L 58.7776,-129.556 L 58.6447,-129.587
 L 58.4989,-129.606 L 58.3404,-129.612 L 58.1931,-129.606 L 58.0565,-129.587 L 57.9305,-129.556 L 57.8152,-129.513
 L 57.7106,-129.457 L 57.6167,-129.389 L 57.534,-129.308 L 57.4632,-129.217 L 57.4043,-129.115 L 57.3573,-129.001
 L 57.3221,-128.876 L 57.2988,-128.74 L 57.9129,-128.705 L 57.925,-128.772 L 57.9412,-128.834 L 57.9615,-128.889
 L 57.9857,-128.939 L 58.014,-128.983 L 58.0464,-129.021 L 58.0833,-129.053 L 58.1253,-129.079 L 58.1725,-129.1
 L 58.2248,-129.114 L 58.2822,-129.123 L 58.3447,-129.126 L 58.4674,-129.115 L 58.5677,-129.082 L 58.6458,-129.026
 L 58.7016,-128.949 L 58.735,-128.849 L 58.7462,-128.727 L 58.7426,-128.672 L 58.7318,-128.617 L 58.7139,-128.562
 L 58.6888,-128.507 L 58.6565,-128.451 L 58.6171,-128.395 L 58.5687,-128.336 L 58.5096,-128.272 L 58.4399,-128.203
 L 58.3596,-128.129 L 58.2685,-128.049 L 58.1668,-127.965 L 58.0585,-127.875 L 57.9566,-127.787 L 57.8611,-127.699
 L 57.7718,-127.613 L 57.6889,-127.528 L 57.6124,-127.444 L 57.5417,-127.361 L 57.4767,-127.276 L 57.4173,-127.191
 L 57.3635,-127.106 L 57.3153,-127.019 L 57.2728,-126.932 L 57.2728,-126.509 L 59.4124,-126.509 z
M 64.5453,-126.466 L 64.699,-126.485 L 64.8394,-126.518 L 64.9666,-126.563 L 65.0805,-126.622 L 65.1812,-126.693
 L 65.2674,-126.777 L 65.3379,-126.871 L 65.3928,-126.977 L 65.4319,-127.093 L 65.4554,-127.22 L 65.4633,-127.357
 L 65.458,-127.453 L 65.4422,-127.543 L 65.4158,-127.626 L 65.3789,-127.704 L 65.3314,-127.776 L 65.2734,-127.842
 L 65.2056,-127.902 L 65.1289,-127.953 L 65.0431,-127.995 L 64.9484,-128.03 L 64.8447,-128.056 L 64.732,-128.074
 L 64.732,-128.082 L 64.8335,-128.106 L 64.9267,-128.136 L 65.0117,-128.174 L 65.0884,-128.218 L 65.1568,-128.269
 L 65.217,-128.327 L 65.2684,-128.392 L 65.3104,-128.462 L 65.3431,-128.537 L 65.3665,-128.619 L 65.3805,-128.706
 L 65.3852,-128.798 L 65.3777,-128.921 L 65.3551,-129.035 L 65.3176,-129.139 L 65.2651,-129.234 L 65.1976,-129.32
 L 65.115,-129.396 L 65.0191,-129.462 L 64.9116,-129.516 L 64.7925,-129.558 L 64.6617,-129.588 L 64.5193,-129.606
 L 64.3653,-129.612 L 64.2196,-129.606 L 64.0834,-129.587 L 63.9568,-129.556 L 63.8396,-129.513 L 63.732,-129.457
 L 63.634,-129.389 L 63.5471,-129.309 L 63.4732,-129.221 L 63.4121,-129.122 L 63.364,-129.014 L 63.3287,-128.897
 L 63.3063,-128.77 L 63.9161,-128.727 L 63.9246,-128.788 L 63.9386,-128.844 L 63.9581,-128.896 L 63.9831,-128.943
 L 64.0136,-128.985 L 64.0495,-129.022 L 64.0902,-129.054 L 64.135,-129.08 L 64.1838,-129.1 L 64.2366,-129.114
 L 64.2935,-129.123 L 64.3544,-129.126 L 64.419,-129.123 L 64.4782,-129.114 L 64.5321,-129.099 L 64.5806,-129.078
 L 64.6237,-129.051 L 64.6615,-129.019 L 64.6936,-128.981 L 64.72,-128.938 L 64.7404,-128.891 L 64.7551,-128.839
 L 64.7638,-128.783 L 64.7667,-128.722 L 64.7631,-128.658 L 64.752,-128.6 L 64.7336,-128.546 L 64.7079,-128.497
 L 64.6748,-128.454 L 64.6344,-128.415 L 64.5866,-128.383 L 64.5316,-128.356 L 64.4694,-128.335 L 64.4,-128.32
 L 64.3233,-128.311 L 64.2394,-128.308 L 64.0398,-128.308 L 64.0398,-127.815 L 64.2524,-127.815 L 64.3454,-127.812
 L 64.4304,-127.803 L 64.5074,-127.788 L 64.5765,-127.767 L 64.6376,-127.74 L 64.6908,-127.707 L 64.7359,-127.668
 L 64.7728,-127.624 L 64.8014,-127.574 L 64.8219,-127.52 L 64.8342,-127.46 L 64.8383,-127.394 L 64.8349,-127.323
 L 64.8248,-127.258 L 64.8079,-127.2 L 64.7843,-127.147 L 64.7539,-127.102 L 64.7168,-127.062 L 64.6736,-127.029
 L 64.6249,-127.002 L 64.5709,-126.981 L 64.5114,-126.966 L 64.4465,-126.957 L 64.3761,-126.954 L 64.2392,-126.966
 L 64.1237,-127.003 L 64.0295,-127.064 L 63.9566,-127.15 L 63.9051,-127.26 L 63.8749,-127.394 L 63.2542,-127.34
 L 63.2776,-127.203 L 63.3143,-127.077 L 63.3644,-126.963 L 63.4278,-126.859 L 63.5047,-126.767 L 63.5949,-126.686
 L 63.6975,-126.617 L 63.8112,-126.56 L 63.9362,-126.516 L 64.0723,-126.484 L 64.2197,-126.465 L 64.3783,-126.459
 z
M 50.307,-126.47 L 50.4463,-126.481 L 50.5836,-126.501 L 50.7187,-126.528 L 50.8517,-126.564 L 50.9826,-126.607
 L 51.1083,-126.657 L 51.226,-126.713 L 51.3355,-126.775 L 51.4368,-126.843 L 51.53,-126.917 L 51.6151,-126.997
 L 51.6151,-128.121 L 50.2827,-128.121 L 50.2827,-127.648 L 51.0292,-127.648 L 51.0292,-127.225 L 50.9836,-127.189
 L 50.9321,-127.154 L 50.8746,-127.122 L 50.8113,-127.092 L 50.742,-127.065 L 50.6668,-127.04 L 50.5883,-127.017
 L 50.5089,-126.999 L 50.4287,-126.985 L 50.3476,-126.975 L 50.2657,-126.969 L 50.1829,-126.967 L 50.0423,-126.975
 L 49.9125,-126.998 L 49.7937,-127.038 L 49.6858,-127.093 L 49.5888,-127.164 L 49.5027,-127.25 L 49.4287,-127.351
 L 49.3682,-127.465 L 49.3212,-127.592 L 49.2876,-127.732 L 49.2674,-127.886 L 49.2607,-128.052 L 49.2672,-128.215
 L 49.2867,-128.366 L 49.3193,-128.503 L 49.3649,-128.627 L 49.4234,-128.738 L 49.495,-128.835 L 49.5792,-128.919
 L 49.6754,-128.987 L 49.7836,-129.04 L 49.904,-129.078 L 50.0363,-129.101 L 50.1808,-129.109 L 50.2706,-129.105
 L 50.3565,-129.095 L 50.4384,-129.079 L 50.5164,-129.056 L 50.5903,-129.026 L 50.6603,-128.989 L 50.7253,-128.946
 L 50.7843,-128.897 L 50.8372,-128.842 L 50.8841,-128.78 L 50.925,-128.712 L 50.9598,-128.638 L 51.55,-128.816
 L 51.4306,-129.059 L 51.2677,-129.258 L 51.0612,-129.413 L 50.8113,-129.524 L 50.5178,-129.59 L 50.1808,-129.612
 L 49.9382,-129.601 L 49.7152,-129.567 L 49.5119,-129.511 L 49.3282,-129.433 L 49.1642,-129.333 L 49.0198,-129.21
 L 48.8965,-129.066 L 48.7956,-128.902 L 48.7171,-128.719 L 48.661,-128.516 L 48.6274,-128.294 L 48.6162,-128.052
 L 48.6273,-127.808 L 48.6608,-127.584 L 48.7166,-127.379 L 48.7946,-127.193 L 48.895,-127.026 L 49.0176,-126.879
 L 49.161,-126.753 L 49.3236,-126.649 L 49.5053,-126.569 L 49.7063,-126.512 L 49.9263,-126.477 L 50.1656,-126.466
 z
M 23.5727,-126.47 L 23.7159,-126.493 L 23.8476,-126.532 L 23.9677,-126.586 L 24.0762,-126.656 L 24.1731,-126.74
 L 24.2566,-126.839 L 24.325,-126.949 L 24.3781,-127.071 L 24.4161,-127.204 L 24.4389,-127.349 L 24.4465,-127.506
 L 24.4399,-127.65 L 24.42,-127.784 L 24.3868,-127.907 L 24.3404,-128.019 L 24.2807,-128.122 L 24.2078,-128.214
 L 24.1235,-128.293 L 24.0296,-128.358 L 23.9263,-128.409 L 23.8134,-128.445 L 23.6909,-128.467 L 23.559,-128.474
 L 23.4872,-128.472 L 23.4179,-128.465 L 23.3512,-128.452 L 23.287,-128.436 L 23.2253,-128.414 L 23.1662,-128.387
 L 23.1105,-128.356 L 23.0589,-128.321 L 23.0116,-128.282 L 22.9685,-128.238 L 22.9296,-128.19 L 22.8949,-128.138
 L 22.8988,-128.297 L 22.9105,-128.442 L 22.9299,-128.573 L 22.9572,-128.69 L 22.9921,-128.793 L 23.0349,-128.882
 L 23.0845,-128.957 L 23.1399,-129.018 L 23.2012,-129.066 L 23.2683,-129.1 L 23.3413,-129.121 L 23.4201,-129.127
 L 23.5099,-129.119 L 23.5884,-129.094 L 23.6555,-129.052 L 23.7114,-128.993 L 23.7558,-128.918 L 23.789,-128.826
 L 24.364,-128.906 L 24.3293,-129.021 L 24.2873,-129.125 L 24.2379,-129.219 L 24.1813,-129.302 L 24.1174,-129.375
 L 24.0461,-129.438 L 23.9667,-129.49 L 23.8782,-129.533 L 23.7806,-129.566 L 23.6739,-129.59 L 23.558,-129.604
 L 23.4331,-129.609 L 23.2579,-129.598 L 23.0966,-129.563 L 22.9495,-129.506 L 22.8163,-129.425 L 22.6973,-129.322
 L 22.5922,-129.196 L 22.5024,-129.047 L 22.4289,-128.875 L 22.3717,-128.681 L 22.3309,-128.465 L 22.3064,-128.226
 L 22.2982,-127.964 L 22.3063,-127.726 L 22.3304,-127.509 L 22.3706,-127.311 L 22.427,-127.134 L 22.4994,-126.978
 L 22.5879,-126.841 L 22.6914,-126.726 L 22.8089,-126.631 L 22.9403,-126.557 L 23.0856,-126.505 L 23.2448,-126.473
 L 23.4179,-126.463 z
M 23.3319,-126.943 L 23.2698,-126.957 L 23.2121,-126.982 L 23.1588,-127.015 L 23.1098,-127.059 L 23.0653,-127.113
 L 23.0265,-127.173 L 22.9948,-127.239 L 22.9701,-127.31 L 22.9525,-127.386 L 22.9419,-127.468 L 22.9384,-127.554
 L 22.9417,-127.623 L 22.9519,-127.687 L 22.9688,-127.746 L 22.9924,-127.801 L 23.0228,-127.851 L 23.0599,-127.896
 L 23.1026,-127.935 L 23.1498,-127.968 L 23.2015,-127.993 L 23.2576,-128.011 L 23.3182,-128.021 L 23.3832,-128.025
 L 23.4509,-128.021 L 23.5135,-128.01 L 23.5712,-127.991 L 23.6238,-127.964 L 23.6715,-127.929 L 23.7141,-127.887
 L 23.7509,-127.838 L 23.781,-127.782 L 23.8045,-127.719 L 23.8212,-127.649 L 23.8312,-127.572 L 23.8346,-127.489
 L 23.8314,-127.406 L 23.8218,-127.329 L 23.8058,-127.259 L 23.7834,-127.194 L 23.7547,-127.136 L 23.7196,-127.084
 L 23.6787,-127.04 L 23.6328,-127.003 L 23.5818,-126.974 L 23.5257,-126.954 L 23.4646,-126.942 L 23.3984,-126.938
 z
M 15.3238,-126.467 L 15.4631,-126.478 L 15.6003,-126.498 L 15.7354,-126.525 L 15.8684,-126.561 L 15.9993,-126.604
 L 16.1251,-126.654 L 16.2428,-126.71 L 16.3522,-126.772 L 16.4536,-126.84 L 16.5468,-126.914 L 16.6319,-126.994
 L 16.6319,-128.118 L 15.2995,-128.118 L 15.2995,-127.645 L 16.046,-127.645 L 16.046,-127.222 L 16.0004,-127.186
 L 15.9489,-127.151 L 15.8914,-127.119 L 15.828,-127.089 L 15.7588,-127.062 L 15.6836,-127.037 L 15.6051,-127.014
 L 15.5257,-126.996 L 15.4455,-126.982 L 15.3644,-126.972 L 15.2825,-126.966 L 15.1997,-126.964 L 15.0591,-126.972
 L 14.9293,-126.995 L 14.8105,-127.035 L 14.7026,-127.09 L 14.6055,-127.161 L 14.5194,-127.247 L 14.4455,-127.348
 L 14.385,-127.462 L 14.338,-127.589 L 14.3044,-127.729 L 14.2842,-127.883 L 14.2775,-128.049 L 14.284,-128.212
 L 14.3035,-128.363 L 14.3361,-128.5 L 14.3816,-128.624 L 14.4402,-128.735 L 14.5118,-128.832 L 14.596,-128.916
 L 14.6922,-128.984 L 14.8004,-129.037 L 14.9207,-129.075 L 15.0531,-129.098 L 15.1975,-129.106 L 15.2874,-129.102
 L 15.3733,-129.092 L 15.4552,-129.076 L 15.5332,-129.053 L 15.6071,-129.023 L 15.6771,-128.986 L 15.7421,-128.943
 L 15.801,-128.894 L 15.854,-128.839 L 15.9009,-128.777 L 15.9417,-128.709 L 15.9766,-128.635 L 16.5668,-128.813
 L 16.4474,-129.056 L 16.2845,-129.255 L 16.078,-129.41 L 15.828,-129.521 L 15.5346,-129.587 L 15.1975,-129.609
 L 14.9549,-129.598 L 14.732,-129.564 L 14.5286,-129.508 L 14.345,-129.43 L 14.181,-129.33 L 14.0366,-129.207
 L 13.9133,-129.063 L 13.8123,-128.899 L 13.7339,-128.716 L 13.6778,-128.513 L 13.6442,-128.291 L 13.633,-128.049
 L 13.6441,-127.805 L 13.6776,-127.581 L 13.7333,-127.376 L 13.8114,-127.19 L 13.9117,-127.023 L 14.0344,-126.876
 L 14.1778,-126.75 L 14.3404,-126.646 L 14.5221,-126.566 L 14.723,-126.509 L 14.9431,-126.474 L 15.1823,-126.463
 z
M 57.0528,-126.963 L 56.3519,-126.963 L 56.3519,-129.567 L 55.7747,-129.567 L 55.0087,-129.07 L 55.0087,-128.59
 L 55.7421,-129.048 L 55.7421,-126.963 L 54.9848,-126.963 L 54.9848,-126.509 L 57.0528,-126.509 z
M 53.2942,-127.726 L 54.0624,-126.509 L 54.7351,-126.509 L 53.7173,-128.117 L 54.6461,-129.567 L 53.9734,-129.567
 L 53.2942,-128.486 L 52.615,-129.567 L 51.9379,-129.567 L 52.9079,-128.117 L 51.849,-126.509 L 52.526,-126.509
 z
M 18.311,-127.723 L 19.0791,-126.506 L 19.7518,-126.506 L 18.7341,-128.114 L 19.6629,-129.564 L 18.9902,-129.564
 L 18.311,-128.483 L 17.6317,-129.564 L 16.9547,-129.564 L 17.9247,-128.114 L 16.8658,-126.506 L 17.5428,-126.506
 z
M 22.0695,-126.96 L 21.3687,-126.96 L 21.3687,-129.564 L 20.7914,-129.564 L 20.0254,-129.067 L 20.0254,-128.587
 L 20.7589,-129.045 L 20.7589,-126.96 L 20.0016,-126.96 L 20.0016,-126.506 L 22.0695,-126.506 z
M 61.9688,-127.36 L 62.5156,-126.509 L 63.1775,-126.509 L 62.3116,-127.729 L 63.1297,-128.857 L 62.4679,-128.857
 L 61.9688,-128.089 L 61.4675,-128.857 L 60.81,-128.857 L 61.6281,-127.722 L 60.7688,-126.509 L 61.4176,-126.509
 z
M 20.2671,-109 L 21.503,-109.296 L 22.6773,-109.783 L 23.761,-110.447 L 24.7276,-111.272 L 25.553,-112.239
 L 26.2171,-113.323 L 26.7036,-114.497 L 27.0003,-115.733 L 27.1,-117 L 27.0003,-118.267 L 26.7036,-119.503
 L 26.2171,-120.677 L 25.553,-121.761 L 24.7276,-122.728 L 23.761,-123.553 L 22.6773,-124.217 L 21.503,-124.704
 L 20.2671,-125 L 19,-125.1 L 17.7329,-125 L 16.497,-124.704 L 15.3227,-124.217 L 14.239,-123.553
 L 13.2724,-122.728 L 12.447,-121.761 L 11.7829,-120.677 L 11.2964,-119.503 L 10.9997,-118.267 L 10.9,-117
 L 10.9997,-115.733 L 11.2964,-114.497 L 11.7829,-113.323 L 12.447,-112.239 L 13.2724,-111.272 L 14.239,-110.447
 L 15.3227,-109.783 L 16.497,-109.296 L 17.7329,-109 L 19,-108.9 z
M 17.7955,-109.395 L 16.6206,-109.677 L 15.5043,-110.139 L 14.4741,-110.771 L 13.5553,-111.555 L 12.7706,-112.474
 L 12.1393,-113.504 L 11.6769,-114.621 L 11.3948,-115.795 L 11.3,-117 L 11.3948,-118.205 L 11.6769,-119.379
 L 12.1393,-120.496 L 12.7706,-121.526 L 13.5553,-122.445 L 14.4741,-123.229 L 15.5043,-123.861 L 16.6206,-124.323
 L 17.7955,-124.605 L 19,-124.7 L 20.2045,-124.605 L 21.3794,-124.323 L 22.4957,-123.861 L 23.5259,-123.229
 L 24.4447,-122.445 L 25.2294,-121.526 L 25.8607,-120.496 L 26.3231,-119.379 L 26.6052,-118.205 L 26.7,-117
 L 26.6052,-115.795 L 26.3231,-114.621 L 25.8607,-113.504 L 25.2294,-112.474 L 24.4447,-111.555 L 23.5259,-110.771
 L 22.4957,-110.139 L 21.3794,-109.677 L 20.2045,-109.395 L 19,-109.3 z
M 104.7,-124.9 L 83.3,-124.9 L 83.3,-107.1 L 104.7,-107.1 z
M 83.7,-107.5 L 83.7,-124.5 L 104.3,-124.5 L 104.3,-107.5 z
M 97.5657,-114.564 L 97.703,-114.579 L 97.8342,-114.604 L 97.9593,-114.639 L 98.0783,-114.684 L 98.1912,-114.739
 L 98.2969,-114.803 L 98.394,-114.877 L 98.4827,-114.959 L 98.5629,-115.05 L 98.6346,-115.15 L 98.6978,-115.259
 L 98.7519,-115.375 L 98.7961,-115.497 L 98.8305,-115.625 L 98.8551,-115.759 L 98.8699,-115.9 L 98.8748,-116.046
 L 98.8641,-116.265 L 98.8322,-116.468 L 98.7789,-116.655 L 98.7043,-116.825 L 98.6085,-116.98 L 98.4913,-117.118
 L 98.3552,-117.237 L 98.2025,-117.335 L 98.0333,-117.411 L 97.8475,-117.465 L 97.6452,-117.498 L 97.4263,-117.509
 L 97.2075,-117.498 L 97.0052,-117.466 L 96.8196,-117.412 L 96.6506,-117.337 L 96.4982,-117.24 L 96.3624,-117.122
 L 96.2455,-116.985 L 96.1499,-116.831 L 96.0755,-116.66 L 96.0224,-116.472 L 95.9905,-116.267 L 95.9799,-116.046
 L 95.9905,-115.823 L 96.0225,-115.617 L 96.0758,-115.428 L 96.1503,-115.254 L 96.2462,-115.097 L 96.3634,-114.956
 L 96.4993,-114.835 L 96.6515,-114.735 L 96.8198,-114.658 L 97.0044,-114.603 L 97.2052,-114.57 L 97.4223,-114.559
 z
M 97.2973,-115.038 L 97.1814,-115.061 L 97.0746,-115.099 L 96.977,-115.151 L 96.8884,-115.219 L 96.8089,-115.302
 L 96.7402,-115.398 L 96.684,-115.506 L 96.6403,-115.624 L 96.6091,-115.753 L 96.5904,-115.894 L 96.5841,-116.046
 L 96.5902,-116.196 L 96.6085,-116.335 L 96.639,-116.462 L 96.6817,-116.578 L 96.7367,-116.682 L 96.8038,-116.775
 L 96.8821,-116.855 L 96.9706,-116.92 L 97.0693,-116.971 L 97.1781,-117.007 L 97.2971,-117.029 L 97.4263,-117.037
 L 97.5536,-117.029 L 97.6711,-117.007 L 97.7788,-116.971 L 97.8766,-116.919 L 97.9646,-116.854 L 98.0427,-116.773
 L 98.1099,-116.68 L 98.1648,-116.575 L 98.2075,-116.46 L 98.2381,-116.333 L 98.2564,-116.195 L 98.2625,-116.046
 L 98.2564,-115.89 L 98.2382,-115.746 L 98.2078,-115.615 L 98.1653,-115.496 L 98.1106,-115.389 L 98.0438,-115.295
 L 97.9657,-115.214 L 97.8775,-115.148 L 97.779,-115.097 L 97.6703,-115.06 L 97.5514,-115.038 L 97.4223,-115.031
 z
M 92.6189,-117.466 L 92.0187,-117.466 L 92.0187,-114.599 L 92.6189,-114.599 z
M 93.8287,-115.332 L 94.9211,-115.332 L 95.1755,-114.599 L 95.7695,-114.599 L 94.7279,-117.466 L 94.0199,-117.466
 L 92.9742,-114.599 L 93.5744,-114.599 z
M 93.963,-115.783 L 94.062,-116.072 L 94.1447,-116.314 L 94.2112,-116.509 L 94.2613,-116.657 L 94.2952,-116.758
 L 94.3129,-116.813 L 94.3221,-116.843 L 94.3309,-116.873 L 94.3393,-116.901 L 94.3472,-116.928 L 94.3547,-116.955
 L 94.3617,-116.98 L 94.3739,-117.024 L 94.4166,-116.884 L 94.5041,-116.607 L 94.7869,-115.783 z
M 90.4175,-115.741 L 91.1377,-114.599 L 91.7683,-114.599 L 90.8142,-116.107 L 91.6849,-117.466 L 91.0543,-117.466
 L 90.4175,-116.453 L 89.7807,-117.466 L 89.146,-117.466 L 90.0554,-116.107 L 89.0626,-114.599 L 89.6973,-114.599
 z
M 41.9542,-110.975 L 42.885,-111.199 L 43.7693,-111.565 L 44.5855,-112.065 L 45.3133,-112.687 L 45.935,-113.415
 L 46.4351,-114.231 L 46.8014,-115.115 L 47.0249,-116.046 L 47.1,-117 L 47.0249,-117.954 L 46.8014,-118.885
 L 46.4351,-119.769 L 45.935,-120.585 L 45.3133,-121.313 L 44.5855,-121.935 L 43.7693,-122.435 L 42.885,-122.801
 L 41.9542,-123.025 L 41,-123.1 L 40.0458,-123.025 L 39.115,-122.801 L 38.2307,-122.435 L 37.4145,-121.935
 L 36.6867,-121.313 L 36.065,-120.585 L 35.5649,-119.769 L 35.1986,-118.885 L 34.9751,-117.954 L 34.9,-117
 L 34.9751,-116.046 L 35.1986,-115.115 L 35.5649,-114.231 L 36.065,-113.415 L 36.6867,-112.687 L 37.4145,-112.065
 L 38.2307,-111.565 L 39.115,-111.199 L 40.0458,-110.975 L 41,-110.9 z
M 40.1083,-111.37 L 39.2386,-111.579 L 38.4123,-111.921 L 37.6496,-112.389 L 36.9695,-112.969 L 36.3886,-113.65
 L 35.9213,-114.412 L 35.579,-115.239 L 35.3702,-116.108 L 35.3,-117 L 35.3702,-117.892 L 35.579,-118.761
 L 35.9213,-119.588 L 36.3886,-120.35 L 36.9695,-121.031 L 37.6496,-121.611 L 38.4123,-122.079 L 39.2386,-122.421
 L 40.1083,-122.63 L 41,-122.7 L 41.8917,-122.63 L 42.7614,-122.421 L 43.5877,-122.079 L 44.3504,-121.611
 L 45.0305,-121.031 L 45.6114,-120.35 L 46.0787,-119.588 L 46.421,-118.761 L 46.6298,-117.892 L 46.7,-117
 L 46.6298,-116.108 L 46.421,-115.239 L 46.0787,-114.412 L 45.6114,-113.65 L 45.0305,-112.969 L 44.3504,-112.389
 L 43.5877,-111.921 L 42.7614,-111.579 L 41.8917,-111.37 L 41,-111.3 z
M 57.9542,-110.975 L 58.885,-111.199 L 59.7693,-111.565 L 60.5855,-112.065 L 61.3133,-112.687 L 61.935,-113.415
 L 62.4351,-114.231 L 62.8014,-115.115 L 63.0249,-116.046 L 63.1,-117 L 63.0249,-117.954 L 62.8014,-118.885
 L 62.4351,-119.769 L 61.935,-120.585 L 61.3133,-121.313 L 60.5855,-121.935 L 59.7693,-122.435 L 58.885,-122.801
 L 57.9542,-123.025 L 57,-123.1 L 56.0458,-123.025 L 55.115,-122.801 L 54.2307,-122.435 L 53.4145,-121.935
 L 52.6867,-121.313 L 52.065,-120.585 L 51.5649,-119.769 L 51.1986,-118.885 L 50.9751,-117.954 L 50.9,-117
 L 50.9751,-116.046 L 51.1986,-115.115 L 51.5649,-114.231 L 52.065,-113.415 L 52.6867,-112.687 L 53.4145,-112.065
 L 54.2307,-111.565 L 55.115,-111.199 L 56.0458,-110.975 L 57,-110.9 z
M 56.1083,-111.37 L 55.2386,-111.579 L 54.4123,-111.921 L 53.6496,-112.389 L 52.9695,-112.969 L 52.3886,-113.65
 L 51.9213,-114.412 L 51.579,-115.239 L 51.3702,-116.108 L 51.3,-117 L 51.3702,-117.892 L 51.579,-118.761
 L 51.9213,-119.588 L 52.3886,-120.35 L 52.9695,-121.031 L 53.6496,-121.611 L 54.4123,-122.079 L 55.2386,-122.421
 L 56.1083,-122.63 L 57,-122.7 L 57.8917,-122.63 L 58.7614,-122.421 L 59.5877,-122.079 L 60.3504,-121.611
 L 61.0305,-121.031 L 61.6114,-120.35 L 62.0787,-119.588 L 62.421,-118.761 L 62.6298,-117.892 L 62.7,-117
 L 62.6298,-116.108 L 62.421,-115.239 L 62.0787,-114.412 L 61.6114,-113.65 L 61.0305,-112.969 L 60.3504,-112.389
 L 59.5877,-111.921 L 58.7614,-111.579 L 57.8917,-111.37 L 57,-111.3 z
M 73.9542,-110.975 L 74.885,-111.199 L 75.7693,-111.565 L 76.5855,-112.065 L 77.3133,-112.687 L 77.935,-113.415
 L 78.4351,-114.231 L 78.8014,-115.115 L 79.0249,-116.046 L 79.1,-117 L 79.0249,-117.954 L 78.8014,-118.885
 L 78.4351,-119.769 L 77.935,-120.585 L 77.3133,-121.313 L 76.5855,-121.935 L 75.7693,-122.435 L 74.885,-122.801
 L 73.9542,-123.025 L 73,-123.1 L 72.0458,-123.025 L 71.115,-122.801 L 70.2307,-122.435 L 69.4145,-121.935
 L 68.6867,-121.313 L 68.065,-120.585 L 67.5649,-119.769 L 67.1986,-118.885 L 66.9751,-117.954 L 66.9,-117
 L 66.9751,-116.046 L 67.1986,-115.115 L 67.5649,-114.231 L 68.065,-113.415 L 68.6867,-112.687 L 69.4145,-112.065
 L 70.2307,-111.565 L 71.115,-111.199 L 72.0458,-110.975 L 73,-110.9 z
M 72.1083,-111.37 L 71.2386,-111.579 L 70.4123,-111.921 L 69.6496,-112.389 L 68.9695,-112.969 L 68.3886,-113.65
 L 67.9213,-114.412 L 67.579,-115.239 L 67.3702,-116.108 L 67.3,-117 L 67.3702,-117.892 L 67.579,-118.761
 L 67.9213,-119.588 L 68.3886,-120.35 L 68.9695,-121.031 L 69.6496,-121.611 L 70.4123,-122.079 L 71.2386,-122.421
 L 72.1083,-122.63 L 73,-122.7 L 73.8917,-122.63 L 74.7614,-122.421 L 75.5877,-122.079 L 76.3504,-121.611
 L 77.0305,-121.031 L 77.6114,-120.35 L 78.0787,-119.588 L 78.421,-118.761 L 78.6298,-117.892 L 78.7,-117
 L 78.6298,-116.108 L 78.421,-115.239 L 78.0787,-114.412 L 77.6114,-113.65 L 77.0305,-112.969 L 76.3504,-112.389
 L 75.5877,-111.921 L 74.7614,-111.579 L 73.8917,-111.37 L 73,-111.3 z
M 184.508,-76.79 L 185.004,-76.9091 L 185.475,-77.1042 L 185.91,-77.3707 L 186.298,-77.7019 L 186.629,-78.0897
 L 186.896,-78.5245 L 187.091,-78.9957 L 187.21,-79.4916 L 187.25,-80 L 187.21,-80.5084 L 187.091,-81.0043
 L 186.896,-81.4755 L 186.629,-81.9103 L 186.298,-82.2981 L 185.91,-82.6293 L 185.475,-82.8958 L 185.004,-83.0909
 L 184.508,-83.21 L 184,-83.25 L 183.492,-83.21 L 182.996,-83.0909 L 182.525,-82.8958 L 182.09,-82.6293
 L 181.702,-82.2981 L 181.371,-81.9103 L 181.104,-81.4755 L 180.909,-81.0043 L 180.79,-80.5084 L 180.75,-80
 L 180.79,-79.4916 L 180.909,-78.9957 L 181.104,-78.5245 L 181.371,-78.0897 L 181.702,-77.7019 L 182.09,-77.3707
 L 182.525,-77.1042 L 182.996,-76.9091 L 183.492,-76.79 L 184,-76.75 z
M 183.554,-77.1851 L 183.119,-77.2895 L 182.706,-77.4606 L 182.325,-77.6943 L 181.985,-77.9848 L 181.694,-78.3248
 L 181.461,-78.7061 L 181.289,-79.1193 L 181.185,-79.5542 L 181.15,-80 L 181.185,-80.4458 L 181.289,-80.8807
 L 181.461,-81.2939 L 181.694,-81.6752 L 181.985,-82.0152 L 182.325,-82.3057 L 182.706,-82.5394 L 183.119,-82.7105
 L 183.554,-82.8149 L 184,-82.85 L 184.446,-82.8149 L 184.881,-82.7105 L 185.294,-82.5394 L 185.675,-82.3057
 L 186.015,-82.0152 L 186.306,-81.6752 L 186.539,-81.2939 L 186.711,-80.8807 L 186.815,-80.4458 L 186.85,-80
 L 186.815,-79.5542 L 186.711,-79.1193 L 186.539,-78.7061 L 186.306,-78.3248 L 186.015,-77.9848 L 185.675,-77.6943
 L 185.294,-77.4606 L 184.881,-77.2895 L 184.446,-77.1851 L 184,-77.15 z
M 170.289,-70.6827 L 170.458,-70.706 L 170.612,-70.7449 L 170.752,-70.7994 L 170.878,-70.8694 L 170.99,-70.955
 L 171.086,-71.0547 L 171.165,-71.1671 L 171.226,-71.2922 L 171.269,-71.4301 L 171.296,-71.5806 L 171.304,-71.7439
 L 171.304,-73.3882 L 170.744,-73.3882 L 170.744,-71.7781 L 170.74,-71.6753 L 170.726,-71.5807 L 170.704,-71.4945
 L 170.672,-71.4165 L 170.632,-71.3468 L 170.583,-71.2853 L 170.525,-71.2328 L 170.46,-71.1899 L 170.387,-71.1565
 L 170.306,-71.1326 L 170.218,-71.1183 L 170.121,-71.1135 L 170.028,-71.1181 L 169.942,-71.1318 L 169.864,-71.1546
 L 169.794,-71.1865 L 169.732,-71.2276 L 169.678,-71.2778 L 169.632,-71.3367 L 169.594,-71.4042 L 169.565,-71.4802
 L 169.544,-71.5647 L 169.531,-71.6577 L 169.527,-71.7591 L 169.527,-73.3882 L 168.967,-73.3882 L 168.967,-71.7154
 L 168.975,-71.5548 L 169,-71.407 L 169.04,-71.2721 L 169.097,-71.15 L 169.171,-71.0408 L 169.26,-70.9445
 L 169.365,-70.8622 L 169.485,-70.7947 L 169.619,-70.7423 L 169.767,-70.7049 L 169.929,-70.6824 L 170.106,-70.6749
 z
M 172.775,-71.7781 L 173.447,-70.7129 L 174.036,-70.7129 L 173.145,-72.1198 L 173.958,-73.3882 L 173.369,-73.3882
 L 172.775,-72.4426 L 172.18,-73.3882 L 171.588,-73.3882 L 172.437,-72.1198 L 171.51,-70.7129 L 172.103,-70.7129
 z
M 166.885,-71.3965 L 167.905,-71.3965 L 168.142,-70.7129 L 168.697,-70.7129 L 167.724,-73.3882 L 167.064,-73.3882
 L 166.088,-70.7129 L 166.648,-70.7129 z
M 167.01,-71.818 L 167.103,-72.0872 L 167.18,-72.3129 L 167.242,-72.4949 L 167.289,-72.6331 L 167.321,-72.7278
 L 167.337,-72.7787 L 167.346,-72.8073 L 167.354,-72.8348 L 167.362,-72.8613 L 167.369,-72.8867 L 167.376,-72.9111
 L 167.383,-72.9344 L 167.394,-72.9762 L 167.434,-72.8452 L 167.516,-72.5869 L 167.779,-71.818 z
M 180.992,-71.3772 L 182.011,-71.3772 L 182.249,-70.6936 L 182.803,-70.6936 L 181.831,-73.369 L 181.17,-73.369
 L 180.194,-70.6936 L 180.754,-70.6936 z
M 181.117,-71.7987 L 181.21,-72.068 L 181.287,-72.2936 L 181.349,-72.4756 L 181.396,-72.6139 L 181.427,-72.7085
 L 181.444,-72.7595 L 181.452,-72.788 L 181.461,-72.8156 L 181.468,-72.8421 L 181.476,-72.8675 L 181.483,-72.8918
 L 181.489,-72.9152 L 181.501,-72.9569 L 181.541,-72.8259 L 181.622,-72.5677 L 181.886,-71.7987 z
M 183.598,-72.2715 L 183.597,-72.3355 L 183.594,-72.4061 L 183.589,-72.4832 L 183.583,-72.5668 L 183.574,-72.657
 L 183.564,-72.7538 L 184.729,-70.6936 L 185.386,-70.6936 L 185.386,-73.369 L 184.889,-73.369 L 184.889,-71.8139
 L 184.89,-71.734 L 184.893,-71.6512 L 184.897,-71.5656 L 184.904,-71.4772 L 184.913,-71.3859 L 184.923,-71.2917
 L 183.74,-73.369 L 183.1,-73.369 L 183.1,-70.6936 L 183.598,-70.6936 z
M 187.05,-72.9361 L 187.916,-72.9361 L 187.916,-73.369 L 185.626,-73.369 L 185.626,-72.9361 L 186.49,-72.9361
 L 186.49,-70.6936 L 187.05,-70.6936 z
M 56.1213,-67.66 L 56.253,-67.6758 L 56.3781,-67.702 L 56.4964,-67.7388 L 56.608,-67.786 L 56.713,-67.8437
 L 56.8104,-67.9122 L 56.8998,-67.9917 L 56.9809,-68.0822 L 57.0539,-68.1838 L 57.1187,-68.2964 L 57.1753,-68.42
 L 56.6873,-68.6042 L 56.6129,-68.4487 L 56.5213,-68.3215 L 56.4125,-68.2225 L 56.2865,-68.1518 L 56.1433,-68.1094
 L 55.9829,-68.0953 L 55.8606,-68.102 L 55.7484,-68.1223 L 55.6461,-68.1561 L 55.5538,-68.2033 L 55.4714,-68.2641
 L 55.399,-68.3383 L 55.3372,-68.4254 L 55.2867,-68.5246 L 55.2474,-68.636 L 55.2193,-68.7594 L 55.2024,-68.895
 L 55.1968,-69.0428 L 55.2023,-69.188 L 55.2186,-69.321 L 55.2459,-69.442 L 55.2841,-69.5508 L 55.3333,-69.6474
 L 55.3933,-69.732 L 55.4639,-69.8039 L 55.5447,-69.8628 L 55.6356,-69.9086 L 55.7368,-69.9413 L 55.8481,-69.9609
 L 55.9696,-69.9674 L 56.0507,-69.9641 L 56.1281,-69.9543 L 56.202,-69.9378 L 56.2721,-69.9147 L 56.3387,-69.885
 L 56.4016,-69.8488 L 56.4593,-69.8069 L 56.5103,-69.7605 L 56.5546,-69.7095 L 56.5923,-69.6538 L 56.6232,-69.5936
 L 56.6474,-69.5288 L 57.1411,-69.6636 L 57.0963,-69.7809 L 57.0417,-69.8882 L 56.9773,-69.9857 L 56.9031,-70.0733
 L 56.8191,-70.1511 L 56.7253,-70.219 L 56.6217,-70.2767 L 56.5084,-70.324 L 56.3854,-70.3607 L 56.2527,-70.387
 L 56.1103,-70.4027 L 55.9582,-70.408 L 55.7515,-70.3981 L 55.5618,-70.3687 L 55.389,-70.3197 L 55.2333,-70.251
 L 55.0945,-70.1627 L 54.9727,-70.0548 L 54.8689,-69.9286 L 54.7839,-69.7854 L 54.7178,-69.6252 L 54.6706,-69.448
 L 54.6423,-69.2539 L 54.6329,-69.0428 L 54.6427,-68.8319 L 54.672,-68.6372 L 54.7209,-68.4587 L 54.7894,-68.2964
 L 54.8775,-68.1502 L 54.9851,-68.0203 L 55.1106,-67.9086 L 55.2525,-67.8172 L 55.4106,-67.7462 L 55.5851,-67.6954
 L 55.7758,-67.6649 L 55.9829,-67.6548 z
M 61.5981,-67.6595 L 61.7263,-67.6735 L 61.8488,-67.6968 L 61.9655,-67.7295 L 62.0766,-67.7715 L 62.182,-67.8228
 L 62.2806,-67.883 L 62.3712,-67.9514 L 62.454,-68.0281 L 62.5288,-68.1131 L 62.5958,-68.2064 L 62.6548,-68.308
 L 62.7053,-68.4164 L 62.7466,-68.5305 L 62.7787,-68.6502 L 62.8016,-68.7755 L 62.8154,-68.9063 L 62.82,-69.0428
 L 62.81,-69.2472 L 62.7802,-69.4366 L 62.7305,-69.611 L 62.6609,-69.7702 L 62.5714,-69.9143 L 62.4621,-70.0434
 L 62.335,-70.1548 L 62.1926,-70.2459 L 62.0346,-70.3168 L 61.8612,-70.3674 L 61.6724,-70.3978 L 61.4681,-70.408
 L 61.2638,-70.3979 L 61.075,-70.3679 L 60.9018,-70.3178 L 60.744,-70.2476 L 60.6018,-70.1574 L 60.475,-70.0472
 L 60.366,-69.9191 L 60.2767,-69.7752 L 60.2073,-69.6157 L 60.1577,-69.4404 L 60.128,-69.2495 L 60.1181,-69.0428
 L 60.128,-68.8352 L 60.1578,-68.6429 L 60.2076,-68.4658 L 60.2771,-68.3039 L 60.3666,-68.1573 L 60.476,-68.026
 L 60.6029,-67.9126 L 60.7449,-67.8198 L 60.902,-67.7476 L 61.0743,-67.696 L 61.2617,-67.6651 L 61.4643,-67.6548
 z
M 61.3476,-68.1023 L 61.2395,-68.1234 L 61.1398,-68.1587 L 61.0487,-68.2079 L 60.966,-68.2713 L 60.8918,-68.3488
 L 60.8277,-68.4385 L 60.7753,-68.5385 L 60.7345,-68.649 L 60.7053,-68.7699 L 60.6878,-68.9011 L 60.682,-69.0428
 L 60.6877,-69.183 L 60.7048,-69.3125 L 60.7333,-69.4313 L 60.7731,-69.5394 L 60.8244,-69.6368 L 60.8871,-69.7234
 L 60.9602,-69.798 L 61.0428,-69.859 L 61.1348,-69.9064 L 61.2364,-69.9403 L 61.3475,-69.9607 L 61.4681,-69.9674
 L 61.5869,-69.9606 L 61.6966,-69.9401 L 61.797,-69.906 L 61.8883,-69.8582 L 61.9705,-69.7967 L 62.0434,-69.7215
 L 62.1061,-69.6344 L 62.1573,-69.5368 L 62.1972,-69.4289 L 62.2257,-69.3106 L 62.2428,-69.1819 L 62.2485,-69.0428
 L 62.2428,-68.8973 L 62.2258,-68.7632 L 62.1974,-68.6407 L 62.1577,-68.5297 L 62.1067,-68.4302 L 62.0444,-68.3421
 L 61.9715,-68.2667 L 61.8892,-68.205 L 61.7973,-68.157 L 61.6958,-68.1227 L 61.5848,-68.1021 L 61.4643,-68.0953
 z
M 58.0362,-68.7086 L 58.6932,-68.7086 L 59.3141,-67.6928 L 59.9445,-67.6928 L 59.2211,-68.8168 L 59.3084,-68.8422
 L 59.3896,-68.8754 L 59.4646,-68.9163 L 59.5333,-68.9649 L 59.5958,-69.0213 L 59.6521,-69.0855 L 59.7008,-69.1556
 L 59.7407,-69.2301 L 59.7717,-69.3088 L 59.7939,-69.3918 L 59.8071,-69.4791 L 59.8116,-69.5706 L 59.8044,-69.6941
 L 59.7827,-69.8076 L 59.7465,-69.9112 L 59.696,-70.0048 L 59.6309,-70.0884 L 59.5514,-70.1621 L 59.4586,-70.225
 L 59.3537,-70.2765 L 59.2367,-70.3166 L 59.1075,-70.3452 L 58.9662,-70.3624 L 58.8128,-70.3681 L 57.4761,-70.3681
 L 57.4761,-67.6928 L 58.0362,-67.6928 z
M 58.0362,-69.1434 L 58.0362,-69.9333 L 58.754,-69.9333 L 58.9048,-69.9226 L 59.0282,-69.8904 L 59.1242,-69.8369
 L 59.1928,-69.762 L 59.2339,-69.6656 L 59.2476,-69.5478 L 59.2442,-69.4863 L 59.2341,-69.4295 L 59.2172,-69.3774
 L 59.1936,-69.3301 L 59.1632,-69.2875 L 59.1261,-69.2497 L 59.0824,-69.2172 L 59.0324,-69.1906 L 58.9761,-69.17
 L 58.9135,-69.1552 L 58.8445,-69.1463 L 58.7692,-69.1434 z
M 49.6545,-70.3681 L 49.0754,-70.3681 L 48.5267,-68.6497 L 48.4298,-68.308 L 48.39,-68.1447 L 48.3613,-68.2526
 L 48.3347,-68.351 L 48.3102,-68.4399 L 48.2878,-68.5193 L 48.2676,-68.5893 L 48.2495,-68.6497 L 47.6988,-70.3681
 L 47.114,-70.3681 L 48.1033,-67.6928 L 48.671,-67.6928 z
M 52.0623,-68.1257 L 50.4408,-68.1257 L 50.4408,-68.8301 L 51.8686,-68.8301 L 51.8686,-69.263 L 50.4408,-69.263
 L 50.4408,-69.9352 L 51.9845,-69.9352 L 51.9845,-70.3681 L 49.8806,-70.3681 L 49.8806,-67.6928 L 52.0623,-67.6928
 z
M 54.4093,-68.1257 L 52.9738,-68.1257 L 52.9738,-70.3681 L 52.4137,-70.3681 L 52.4137,-67.6928 L 54.4093,-67.6928
 z
M 170.508,-60.79 L 171.004,-60.9091 L 171.475,-61.1042 L 171.91,-61.3707 L 172.298,-61.7019 L 172.629,-62.0897
 L 172.896,-62.5245 L 173.091,-62.9957 L 173.21,-63.4916 L 173.25,-64 L 173.21,-64.5084 L 173.091,-65.0043
 L 172.896,-65.4755 L 172.629,-65.9103 L 172.298,-66.2981 L 171.91,-66.6293 L 171.475,-66.8958 L 171.004,-67.0909
 L 170.508,-67.21 L 170,-67.25 L 169.492,-67.21 L 168.996,-67.0909 L 168.525,-66.8958 L 168.09,-66.6293
 L 167.702,-66.2981 L 167.371,-65.9103 L 167.104,-65.4755 L 166.909,-65.0043 L 166.79,-64.5084 L 166.75,-64
 L 166.79,-63.4916 L 166.909,-62.9957 L 167.104,-62.5245 L 167.371,-62.0897 L 167.702,-61.7019 L 168.09,-61.3707
 L 168.525,-61.1042 L 168.996,-60.9091 L 169.492,-60.79 L 170,-60.75 z
M 169.554,-61.1851 L 169.119,-61.2895 L 168.706,-61.4606 L 168.325,-61.6943 L 167.985,-61.9848 L 167.694,-62.3248
 L 167.461,-62.7061 L 167.289,-63.1193 L 167.185,-63.5542 L 167.15,-64 L 167.185,-64.4458 L 167.289,-64.8807
 L 167.461,-65.2939 L 167.694,-65.6752 L 167.985,-66.0152 L 168.325,-66.3057 L 168.706,-66.5394 L 169.119,-66.7105
 L 169.554,-66.8149 L 170,-66.85 L 170.446,-66.8149 L 170.881,-66.7105 L 171.294,-66.5394 L 171.675,-66.3057
 L 172.015,-66.0152 L 172.306,-65.6752 L 172.539,-65.2939 L 172.711,-64.8807 L 172.815,-64.4458 L 172.85,-64
 L 172.815,-63.5542 L 172.711,-63.1193 L 172.539,-62.7061 L 172.306,-62.3248 L 172.015,-61.9848 L 171.675,-61.6943
 L 171.294,-61.4606 L 170.881,-61.2895 L 170.446,-61.1851 L 170,-61.15 z
M 138.209,-61.6606 L 138.374,-61.6779 L 138.524,-61.7068 L 138.659,-61.7472 L 138.779,-61.7992 L 138.884,-61.8627
 L 138.973,-61.9371 L 139.046,-62.0219 L 139.102,-62.1169 L 139.143,-62.2222 L 139.167,-62.3378 L 139.175,-62.4637
 L 139.174,-62.5183 L 139.17,-62.5707 L 139.162,-62.621 L 139.152,-62.6691 L 139.14,-62.7151 L 139.124,-62.7589
 L 139.106,-62.8006 L 139.085,-62.8403 L 139.061,-62.8781 L 139.035,-62.9138 L 139.007,-62.9475 L 138.976,-62.9792
 L 138.942,-63.0092 L 138.904,-63.038 L 138.862,-63.0655 L 138.816,-63.0918 L 138.766,-63.1168 L 138.713,-63.1405
 L 138.651,-63.164 L 138.578,-63.1881 L 138.492,-63.2129 L 138.394,-63.2384 L 138.284,-63.2646 L 138.161,-63.2915
 L 138.059,-63.3142 L 137.969,-63.3357 L 137.891,-63.3558 L 137.825,-63.3746 L 137.772,-63.3921 L 137.73,-63.4082
 L 137.696,-63.4243 L 137.665,-63.4415 L 137.637,-63.4598 L 137.612,-63.4791 L 137.589,-63.4996 L 137.57,-63.5212
 L 137.553,-63.5444 L 137.54,-63.5698 L 137.529,-63.5972 L 137.522,-63.6267 L 137.517,-63.6584 L 137.516,-63.6921
 L 137.53,-63.7896 L 137.572,-63.8694 L 137.643,-63.9314 L 137.742,-63.9757 L 137.869,-64.0023 L 138.025,-64.0111
 L 138.101,-64.0087 L 138.172,-64.0014 L 138.236,-63.9893 L 138.294,-63.9723 L 138.346,-63.9505 L 138.392,-63.9238
 L 138.432,-63.8923 L 138.468,-63.856 L 138.499,-63.8151 L 138.525,-63.7693 L 138.546,-63.7189 L 138.562,-63.6636
 L 139.105,-63.7377 L 139.076,-63.8517 L 139.037,-63.9544 L 138.988,-64.0458 L 138.93,-64.1259 L 138.861,-64.1947
 L 138.783,-64.2522 L 138.693,-64.2998 L 138.589,-64.3388 L 138.472,-64.369 L 138.34,-64.3907 L 138.195,-64.4036
 L 138.036,-64.408 L 137.869,-64.4026 L 137.717,-64.3866 L 137.578,-64.3598 L 137.452,-64.3223 L 137.341,-64.2741
 L 137.243,-64.2152 L 137.16,-64.1463 L 137.092,-64.0679 L 137.039,-63.98 L 137.001,-63.8827 L 136.978,-63.776
 L 136.971,-63.6599 L 136.972,-63.6133 L 136.975,-63.5685 L 136.98,-63.5255 L 136.987,-63.4843 L 136.997,-63.4449
 L 137.008,-63.4073 L 137.021,-63.3714 L 137.036,-63.3371 L 137.052,-63.3043 L 137.07,-63.2731 L 137.09,-63.2436
 L 137.111,-63.2155 L 137.134,-63.189 L 137.159,-63.1638 L 137.185,-63.1398 L 137.213,-63.1172 L 137.242,-63.0959
 L 137.273,-63.076 L 137.305,-63.0571 L 137.339,-63.039 L 137.373,-63.0219 L 137.409,-63.0055 L 137.447,-62.99
 L 137.485,-62.9754 L 137.53,-62.9604 L 137.584,-62.9438 L 137.649,-62.9258 L 137.723,-62.9062 L 137.808,-62.8851
 L 137.903,-62.8624 L 138.013,-62.8396 L 138.11,-62.8179 L 138.194,-62.7973 L 138.266,-62.778 L 138.326,-62.7598
 L 138.373,-62.7428 L 138.412,-62.7256 L 138.449,-62.7071 L 138.482,-62.6872 L 138.512,-62.666 L 138.539,-62.6433
 L 138.563,-62.6193 L 138.583,-62.5936 L 138.6,-62.5656 L 138.613,-62.5353 L 138.623,-62.5029 L 138.628,-62.4682
 L 138.63,-62.4314 L 138.614,-62.3223 L 138.565,-62.233 L 138.484,-62.1636 L 138.37,-62.1141 L 138.223,-62.0843
 L 138.044,-62.0744 L 137.953,-62.0771 L 137.869,-62.0851 L 137.792,-62.0984 L 137.721,-62.117 L 137.658,-62.141
 L 137.601,-62.1703 L 137.551,-62.2055 L 137.506,-62.2472 L 137.468,-62.2954 L 137.435,-62.35 L 137.408,-62.4112
 L 137.387,-62.4788 L 136.846,-62.3896 L 136.879,-62.2714 L 136.924,-62.1637 L 136.981,-62.0663 L 137.05,-61.9795
 L 137.13,-61.903 L 137.221,-61.8371 L 137.325,-61.7814 L 137.441,-61.7358 L 137.569,-61.7004 L 137.71,-61.675
 L 137.863,-61.6599 L 138.028,-61.6548 z
M 135.546,-61.6626 L 135.715,-61.6859 L 135.869,-61.7248 L 136.01,-61.7793 L 136.136,-61.8493 L 136.248,-61.9348
 L 136.344,-62.0346 L 136.422,-62.147 L 136.483,-62.2721 L 136.527,-62.4099 L 136.553,-62.5605 L 136.562,-62.7238
 L 136.562,-64.3681 L 136.002,-64.3681 L 136.002,-62.758 L 135.997,-62.6551 L 135.984,-62.5606 L 135.961,-62.4743
 L 135.93,-62.3963 L 135.89,-62.3266 L 135.84,-62.2652 L 135.783,-62.2127 L 135.717,-62.1698 L 135.644,-62.1363
 L 135.563,-62.1125 L 135.475,-62.0982 L 135.379,-62.0934 L 135.285,-62.0979 L 135.2,-62.1116 L 135.122,-62.1344
 L 135.052,-62.1664 L 134.99,-62.2074 L 134.936,-62.2576 L 134.889,-62.3166 L 134.852,-62.3841 L 134.822,-62.4601
 L 134.801,-62.5446 L 134.789,-62.6375 L 134.785,-62.739 L 134.785,-64.3681 L 134.224,-64.3681 L 134.224,-62.6953
 L 134.233,-62.5347 L 134.257,-62.3869 L 134.298,-62.252 L 134.355,-62.1299 L 134.428,-62.0207 L 134.518,-61.9244
 L 134.623,-61.842 L 134.742,-61.7746 L 134.876,-61.7222 L 135.024,-61.6848 L 135.187,-61.6623 L 135.364,-61.6548
 z
M 141.021,-61.6983 L 141.166,-61.7149 L 141.298,-61.7426 L 141.419,-61.7814 L 141.528,-61.8312 L 141.625,-61.8921
 L 141.708,-61.9632 L 141.777,-62.0434 L 141.83,-62.1328 L 141.868,-62.2314 L 141.891,-62.3391 L 141.898,-62.4561
 L 141.893,-62.5442 L 141.879,-62.6264 L 141.856,-62.7027 L 141.823,-62.7729 L 141.78,-62.8372 L 141.728,-62.8956
 L 141.667,-62.9474 L 141.598,-62.9921 L 141.52,-63.0297 L 141.433,-63.0602 L 141.338,-63.0835 L 141.234,-63.0997
 L 141.316,-63.1209 L 141.391,-63.1477 L 141.459,-63.1802 L 141.519,-63.2183 L 141.572,-63.262 L 141.618,-63.3114
 L 141.657,-63.3656 L 141.688,-63.4238 L 141.713,-63.4859 L 141.73,-63.5519 L 141.741,-63.6219 L 141.744,-63.6959
 L 141.737,-63.8022 L 141.716,-63.8994 L 141.681,-63.9876 L 141.633,-64.0668 L 141.57,-64.137 L 141.493,-64.1981
 L 141.402,-64.2501 L 141.299,-64.2925 L 141.182,-64.3256 L 141.051,-64.3492 L 140.908,-64.3634 L 140.751,-64.3681
 L 139.527,-64.3681 L 139.527,-61.6928 L 140.865,-61.6928 z
M 140.087,-63.2896 L 140.087,-63.9523 L 140.725,-63.9523 L 140.797,-63.9501 L 140.863,-63.9438 L 140.923,-63.9333
 L 140.977,-63.9185 L 141.024,-63.8995 L 141.066,-63.8763 L 141.101,-63.8481 L 141.129,-63.8141 L 141.152,-63.7742
 L 141.168,-63.7286 L 141.177,-63.6772 L 141.18,-63.62 L 141.177,-63.5672 L 141.169,-63.519 L 141.154,-63.4754
 L 141.133,-63.4364 L 141.106,-63.402 L 141.073,-63.3722 L 141.034,-63.3469 L 140.987,-63.3263 L 140.933,-63.3102
 L 140.872,-63.2988 L 140.804,-63.2919 L 140.729,-63.2896 z
M 140.087,-62.1086 L 140.087,-62.8757 L 140.797,-62.8757 L 140.962,-62.8652 L 141.097,-62.8339 L 141.201,-62.7817
 L 141.276,-62.7086 L 141.321,-62.6146 L 141.336,-62.4997 L 141.333,-62.4373 L 141.322,-62.3802 L 141.305,-62.3286
 L 141.281,-62.2824 L 141.25,-62.2417 L 141.212,-62.2064 L 141.166,-62.1765 L 141.113,-62.152 L 141.051,-62.133
 L 140.981,-62.1194 L 140.904,-62.1113 L 140.818,-62.1086 z
M 143,-59 L 133,-59 L 133,-55 L 143,-55 z
M 133.4,-55.4 L 133.4,-58.6 L 142.6,-58.6 L 142.6,-55.4 z
M 87,-36 L 23,-36 L 23,-4 L 87,-4 z
M 23.4,-34.25 L 23.4,-35.6 L 24.75,-35.6 L 24.75,-34.25 z
M 25.25,-4.40001 L 25.25,-5.75 L 27,-5.75 L 27,-6.25 L 25.25,-6.25 L 25.25,-8
 L 24.75,-8 L 24.75,-6.25 L 23.4,-6.25 L 23.4,-33.75 L 24.75,-33.75 L 24.75,-32
 L 25.25,-32 L 25.25,-33.75 L 27,-33.75 L 27,-34.25 L 25.25,-34.25 L 25.25,-35.6
 L 84.75,-35.6 L 84.75,-34.25 L 83,-34.25 L 83,-33.75 L 84.75,-33.75 L 84.75,-32
 L 85.25,-32 L 85.25,-33.75 L 86.6,-33.75 L 86.6,-6.25 L 85.25,-6.25 L 85.25,-8
 L 84.75,-8 L 84.75,-6.25 L 83,-6.25 L 83,-5.75 L 84.75,-5.75 L 84.75,-4.40001
 z
M 66,-28 L 44,-28 L 44,-12 L 66,-12 z
M 44.4,-12.4 L 44.4,-27.6 L 65.6,-27.6 L 65.6,-12.4 z
M 85.25,-34.25 L 85.25,-35.6 L 86.6,-35.6 L 86.6,-34.25 z
M 85.25,-4.40001 L 85.25,-5.75 L 86.6,-5.75 L 86.6,-4.40001 z
M 23.4,-4.40001 L 23.4,-5.75 L 24.75,-5.75 L 24.75,-4.40001 z
M 2.5213,-18.4692 L 2.71019,-18.489 L 2.88176,-18.522 L 3.03604,-18.5682 L 3.17302,-18.6276 L 3.29269,-18.7002
 L 3.39449,-18.7853 L 3.47777,-18.8821 L 3.54254,-18.9907 L 3.58881,-19.1111 L 3.61656,-19.2432 L 3.62582,-19.387
 L 3.62419,-19.4494 L 3.61931,-19.5094 L 3.61118,-19.5668 L 3.59978,-19.6219 L 3.58513,-19.6744 L 3.56723,-19.7244
 L 3.54625,-19.7721 L 3.52238,-19.8175 L 3.49561,-19.8606 L 3.46596,-19.9014 L 3.4334,-19.94 L 3.39795,-19.9762
 L 3.35886,-20.0105 L 3.31537,-20.0434 L 3.26749,-20.0749 L 3.21519,-20.1049 L 3.15849,-20.1335 L 3.0974,-20.1606
 L 3.02716,-20.1874 L 2.94298,-20.215 L 2.84488,-20.2433 L 2.73286,-20.2725 L 2.6069,-20.3024 L 2.46704,-20.3331
 L 2.35028,-20.3591 L 2.24738,-20.3836 L 2.15834,-20.4066 L 2.08318,-20.4281 L 2.02187,-20.4481 L 1.97443,-20.4666
 L 1.93558,-20.4849 L 1.90005,-20.5045 L 1.86783,-20.5254 L 1.83893,-20.5476 L 1.81334,-20.571 L 1.79106,-20.5957
 L 1.77217,-20.6222 L 1.75671,-20.6512 L 1.74471,-20.6825 L 1.73611,-20.7163 L 1.73096,-20.7524 L 1.72925,-20.791
 L 1.74539,-20.9024 L 1.79387,-20.9935 L 1.87463,-21.0644 L 1.98772,-21.1151 L 2.1331,-21.1454 L 2.31081,-21.1556
 L 2.39842,-21.1528 L 2.47897,-21.1445 L 2.55249,-21.1306 L 2.61894,-21.1112 L 2.67833,-21.0862 L 2.73068,-21.0557
 L 2.77676,-21.0197 L 2.81737,-20.9783 L 2.85248,-20.9315 L 2.88211,-20.8792 L 2.90625,-20.8215 L 2.9249,-20.7584
 L 3.54553,-20.8431 L 3.51241,-20.9733 L 3.468,-21.0907 L 3.41234,-21.1952 L 3.3454,-21.2867 L 3.26718,-21.3654
 L 3.17769,-21.4311 L 3.07471,-21.4855 L 2.95599,-21.53 L 2.82155,-21.5646 L 2.67137,-21.5893 L 2.50545,-21.6042
 L 2.32381,-21.6091 L 2.13348,-21.603 L 1.95889,-21.5846 L 1.80003,-21.554 L 1.65691,-21.5112 L 1.52951,-21.4561
 L 1.41785,-21.3888 L 1.32271,-21.31 L 1.24486,-21.2204 L 1.18431,-21.12 L 1.14105,-21.0089 L 1.11511,-20.8869
 L 1.10646,-20.7541 L 1.10764,-20.7009 L 1.11116,-20.6497 L 1.11703,-20.6006 L 1.12526,-20.5535 L 1.13583,-20.5085
 L 1.14876,-20.4655 L 1.1638,-20.4245 L 1.18071,-20.3852 L 1.19948,-20.3478 L 1.22012,-20.3122 L 1.24263,-20.2784
 L 1.267,-20.2463 L 1.29323,-20.216 L 1.32126,-20.1871 L 1.3511,-20.1598 L 1.38274,-20.134 L 1.4162,-20.1096
 L 1.45145,-20.0868 L 1.48834,-20.0652 L 1.52669,-20.0446 L 1.56647,-20.025 L 1.6077,-20.0063 L 1.65038,-19.9886
 L 1.69449,-19.9718 L 1.74513,-19.9547 L 1.80734,-19.9358 L 1.88113,-19.9152 L 1.96649,-19.8928 L 2.06343,-19.8686
 L 2.17194,-19.8427 L 2.29715,-19.8166 L 2.40808,-19.7919 L 2.50475,-19.7684 L 2.58711,-19.7463 L 2.65518,-19.7255
 L 2.70898,-19.706 L 2.75389,-19.6864 L 2.7953,-19.6653 L 2.83322,-19.6425 L 2.86763,-19.6182 L 2.89856,-19.5924
 L 2.92598,-19.565 L 2.94952,-19.5355 L 2.96878,-19.5035 L 2.98376,-19.4689 L 2.99448,-19.4319 L 3.0009,-19.3923
 L 3.00304,-19.3501 L 2.98441,-19.2255 L 2.92853,-19.1235 L 2.8354,-19.0442 L 2.70502,-18.9875 L 2.53738,-18.9535
 L 2.3325,-18.9422 L 2.22865,-18.9452 L 2.13263,-18.9543 L 2.04443,-18.9696 L 1.96408,-18.9909 L 1.89156,-19.0182
 L 1.82687,-19.0517 L 1.76944,-19.092 L 1.71863,-19.1396 L 1.67444,-19.1947 L 1.6369,-19.2572 L 1.60597,-19.3271
 L 1.5817,-19.4044 L 0.963226,-19.3024 L 1.00169,-19.1673 L 1.05341,-19.0442 L 1.11839,-18.933 L 1.19662,-18.8337
 L 1.28813,-18.7463 L 1.3929,-18.6709 L 1.51134,-18.6073 L 1.64389,-18.5552 L 1.79054,-18.5147 L 1.95129,-18.4858
 L 2.12616,-18.4684 L 2.31512,-18.4626 z
M 11.4456,-18.4692 L 11.6344,-18.489 L 11.806,-18.522 L 11.9603,-18.5682 L 12.0973,-18.6276 L 12.217,-18.7002
 L 12.3188,-18.7853 L 12.402,-18.8821 L 12.4668,-18.9907 L 12.5131,-19.1111 L 12.5408,-19.2432 L 12.5501,-19.387
 L 12.5485,-19.4494 L 12.5436,-19.5094 L 12.5354,-19.5668 L 12.524,-19.6219 L 12.5094,-19.6744 L 12.4915,-19.7244
 L 12.4705,-19.7721 L 12.4466,-19.8175 L 12.4199,-19.8606 L 12.3902,-19.9014 L 12.3577,-19.94 L 12.3222,-19.9762
 L 12.2831,-20.0105 L 12.2396,-20.0434 L 12.1917,-20.0749 L 12.1395,-20.1049 L 12.0828,-20.1335 L 12.0217,-20.1606
 L 11.9514,-20.1874 L 11.8672,-20.215 L 11.7691,-20.2433 L 11.6571,-20.2725 L 11.5312,-20.3024 L 11.3913,-20.3331
 L 11.2745,-20.3591 L 11.1716,-20.3836 L 11.0826,-20.4066 L 11.0074,-20.4281 L 10.9461,-20.4481 L 10.8987,-20.4666
 L 10.8598,-20.4849 L 10.8243,-20.5045 L 10.7921,-20.5254 L 10.7632,-20.5476 L 10.7376,-20.571 L 10.7153,-20.5957
 L 10.6964,-20.6222 L 10.681,-20.6512 L 10.669,-20.6825 L 10.6604,-20.7163 L 10.6552,-20.7524 L 10.6535,-20.791
 L 10.6697,-20.9024 L 10.7181,-20.9935 L 10.7989,-21.0644 L 10.912,-21.1151 L 11.0574,-21.1454 L 11.2351,-21.1556
 L 11.3227,-21.1528 L 11.4032,-21.1445 L 11.4767,-21.1306 L 11.5432,-21.1112 L 11.6026,-21.0862 L 11.655,-21.0557
 L 11.701,-21.0197 L 11.7416,-20.9783 L 11.7767,-20.9315 L 11.8064,-20.8792 L 11.8305,-20.8215 L 11.8492,-20.7584
 L 12.4698,-20.8431 L 12.4367,-20.9733 L 12.3923,-21.0907 L 12.3366,-21.1952 L 12.2697,-21.2867 L 12.1915,-21.3654
 L 12.102,-21.4311 L 11.999,-21.4855 L 11.8803,-21.53 L 11.7458,-21.5646 L 11.5956,-21.5893 L 11.4297,-21.6042
 L 11.2481,-21.6091 L 11.0578,-21.603 L 10.8832,-21.5846 L 10.7243,-21.554 L 10.5812,-21.5112 L 10.4538,-21.4561
 L 10.3421,-21.3888 L 10.247,-21.31 L 10.1691,-21.2204 L 10.1086,-21.12 L 10.0653,-21.0089 L 10.0394,-20.8869
 L 10.0307,-20.7541 L 10.0319,-20.7009 L 10.0354,-20.6497 L 10.0413,-20.6006 L 10.0495,-20.5535 L 10.0601,-20.5085
 L 10.073,-20.4655 L 10.0881,-20.4245 L 10.105,-20.3852 L 10.1237,-20.3478 L 10.1444,-20.3122 L 10.1669,-20.2784
 L 10.1913,-20.2463 L 10.2175,-20.216 L 10.2455,-20.1871 L 10.2754,-20.1598 L 10.307,-20.134 L 10.3405,-20.1096
 L 10.3757,-20.0868 L 10.4126,-20.0652 L 10.4509,-20.0446 L 10.4907,-20.025 L 10.532,-20.0063 L 10.5746,-19.9886
 L 10.6188,-19.9718 L 10.6694,-19.9547 L 10.7316,-19.9358 L 10.8054,-19.9152 L 10.8908,-19.8928 L 10.9877,-19.8686
 L 11.0962,-19.8427 L 11.2214,-19.8166 L 11.3324,-19.7919 L 11.429,-19.7684 L 11.5114,-19.7463 L 11.5795,-19.7255
 L 11.6333,-19.706 L 11.6782,-19.6864 L 11.7196,-19.6653 L 11.7575,-19.6425 L 11.7919,-19.6182 L 11.8228,-19.5924
 L 11.8503,-19.565 L 11.8738,-19.5355 L 11.8931,-19.5035 L 11.908,-19.4689 L 11.9187,-19.4319 L 11.9252,-19.3923
 L 11.9273,-19.3501 L 11.9087,-19.2255 L 11.8528,-19.1235 L 11.7597,-19.0442 L 11.6293,-18.9875 L 11.4617,-18.9535
 L 11.2568,-18.9422 L 11.1529,-18.9452 L 11.0569,-18.9543 L 10.9687,-18.9696 L 10.8884,-18.9909 L 10.8158,-19.0182
 L 10.7511,-19.0517 L 10.6937,-19.092 L 10.6429,-19.1396 L 10.5987,-19.1947 L 10.5612,-19.2572 L 10.5302,-19.3271
 L 10.506,-19.4044 L 9.88751,-19.3024 L 9.92596,-19.1673 L 9.97769,-19.0442 L 10.0426,-18.933 L 10.1209,-18.8337
 L 10.2124,-18.7463 L 10.3172,-18.6709 L 10.4356,-18.6073 L 10.5681,-18.5552 L 10.7148,-18.5147 L 10.8756,-18.4858
 L 11.0504,-18.4684 L 11.2394,-18.4626 z
M 14.5282,-18.468 L 14.6747,-18.4839 L 14.8146,-18.5106 L 14.9481,-18.548 L 15.075,-18.596 L 15.1954,-18.6546
 L 15.3081,-18.7234 L 15.4117,-18.8016 L 15.5063,-18.8893 L 15.5918,-18.9864 L 15.6683,-19.093 L 15.7358,-19.2091
 L 15.7935,-19.3331 L 15.8407,-19.4635 L 15.8774,-19.6002 L 15.9036,-19.7434 L 15.9193,-19.8929 L 15.9246,-20.0489
 L 15.9132,-20.2826 L 15.8791,-20.499 L 15.8223,-20.6982 L 15.7428,-20.8802 L 15.6405,-21.045 L 15.5155,-21.1925
 L 15.3703,-21.3198 L 15.2075,-21.4239 L 15.027,-21.5049 L 14.8289,-21.5628 L 14.613,-21.5975 L 14.3795,-21.6091
 L 14.1461,-21.5976 L 13.9304,-21.5633 L 13.7323,-21.506 L 13.5521,-21.4258 L 13.3895,-21.3228 L 13.2446,-21.1968
 L 13.12,-21.0504 L 13.018,-20.886 L 12.9387,-20.7037 L 12.882,-20.5034 L 12.848,-20.2851 L 12.8367,-20.0489
 L 12.848,-19.8117 L 12.8821,-19.5918 L 12.9389,-19.3895 L 13.0185,-19.2045 L 13.1207,-19.037 L 13.2457,-18.8868
 L 13.3907,-18.7572 L 13.553,-18.6512 L 13.7326,-18.5687 L 13.9295,-18.5098 L 14.1437,-18.4744 L 14.3752,-18.4626
 z
M 14.2419,-18.9741 L 14.1183,-18.9982 L 14.0044,-19.0385 L 13.9002,-19.0948 L 13.8057,-19.1672 L 13.721,-19.2557
 L 13.6477,-19.3582 L 13.5878,-19.4726 L 13.5411,-19.5989 L 13.5078,-19.737 L 13.4878,-19.887 L 13.4812,-20.0489
 L 13.4877,-20.2091 L 13.5072,-20.3571 L 13.5398,-20.4929 L 13.5853,-20.6164 L 13.6439,-20.7277 L 13.7155,-20.8268
 L 13.7991,-20.912 L 13.8935,-20.9817 L 13.9987,-21.0359 L 14.1148,-21.0747 L 14.2418,-21.0979 L 14.3795,-21.1056
 L 14.5154,-21.0978 L 14.6407,-21.0744 L 14.7555,-21.0354 L 14.8598,-20.9807 L 14.9537,-20.9105 L 15.037,-20.8246
 L 15.1087,-20.725 L 15.1673,-20.6135 L 15.2128,-20.4902 L 15.2454,-20.3549 L 15.2649,-20.2079 L 15.2714,-20.0489
 L 15.2649,-19.8826 L 15.2455,-19.7294 L 15.2131,-19.5894 L 15.1677,-19.4625 L 15.1094,-19.3488 L 15.0381,-19.2482
 L 14.9549,-19.162 L 14.8608,-19.0914 L 14.7558,-19.0366 L 14.6398,-18.9974 L 14.513,-18.9739 L 14.3752,-18.966
 z
M 7.49089,-20.3092 L 7.48981,-20.3824 L 7.48656,-20.4631 L 7.48114,-20.5512 L 7.47354,-20.6468 L 7.46378,-20.7499
 L 7.45186,-20.8605 L 8.78421,-18.506 L 9.53505,-18.506 L 9.53505,-21.5635 L 8.96651,-21.5635 L 8.96651,-19.7863
 L 8.96759,-19.695 L 8.97084,-19.6004 L 8.97627,-19.5026 L 8.98386,-19.4015 L 8.99362,-19.2972 L 9.00555,-19.1896
 L 7.65364,-21.5635 L 6.92235,-21.5635 L 6.92235,-18.506 L 7.49089,-18.506 z
M 6.52075,-19.0008 L 4.66757,-19.0008 L 4.66757,-19.8058 L 6.29941,-19.8058 L 6.29941,-20.3006 L 4.66757,-20.3006
 L 4.66757,-21.0688 L 6.43179,-21.0688 L 6.43179,-21.5635 L 4.02742,-21.5635 L 4.02742,-18.506 L 6.52075,-18.506
 z
M 16.9678,-19.667 L 17.7187,-19.667 L 18.4283,-18.506 L 19.1487,-18.506 L 18.3219,-19.7906 L 18.4218,-19.8197
 L 18.5146,-19.8576 L 18.6002,-19.9043 L 18.6788,-19.9599 L 18.7502,-20.0244 L 18.8145,-20.0977 L 18.8702,-20.1779
 L 18.9158,-20.263 L 18.9512,-20.3529 L 18.9765,-20.4478 L 18.9917,-20.5475 L 18.9968,-20.6521 L 18.9885,-20.7933
 L 18.9638,-20.923 L 18.9225,-21.0414 L 18.8647,-21.1483 L 18.7903,-21.2439 L 18.6995,-21.3281 L 18.5935,-21.4
 L 18.4736,-21.4589 L 18.3398,-21.5047 L 18.1922,-21.5374 L 18.0307,-21.557 L 17.8554,-21.5635 L 16.3277,-21.5635
 L 16.3277,-18.506 L 16.9678,-18.506 z
M 16.9678,-20.1639 L 16.9678,-21.0666 L 17.7881,-21.0666 L 17.9605,-21.0544 L 18.1015,-21.0177 L 18.2112,-20.9565
 L 18.2896,-20.8708 L 18.3366,-20.7607 L 18.3523,-20.6261 L 18.3484,-20.5557 L 18.3369,-20.4908 L 18.3176,-20.4313
 L 18.2906,-20.3773 L 18.2558,-20.3286 L 18.2134,-20.2854 L 18.1635,-20.2483 L 18.1064,-20.2179 L 18.042,-20.1943
 L 17.9704,-20.1774 L 17.8915,-20.1673 L 17.8055,-20.1639 z
"/>
</g>
</svg>