<svg xmlns="http://www.w3.org/2000/svg" version="1.1" width="225mm" height="190mm" viewBox="0 -190 225 190">
<g id="cut" fill="none" stroke="#000000" stroke-width="0.2">
<path d="
M 33,-118 L 45,-118 L 45,-112 L 65,-112 L 65,-118 L 77,-118
 L 77,-112 L 97,-112 L 97,-118 L 104,-118 L 104,-123 L 110,-123
 L 110,-143 L 104,-143 L 104,-159 L 110,-159 L 110,-179 L 104,-179
 L 104,-184 L 97,-184 L 97,-190 L 77,-190 L 77,-184 L 65,-184
 L 65,-190 L 45,-190 L 45,-184 L 33,-184 L 33,-190 L 13,-190
 L 13,-184 L 6,-184 L 6,-179 L 0,-179 L 0,-159 L 6,-159
 L 6,-143 L 0,-143 L 0,-123 L 6,-123 L 6,-118 L 13,-118
 L 13,-112 L 33,-112 z
M 166.286,-113.095 L 166.543,-114.163 L 166.963,-115.178 L 167.537,-116.114 L 168.25,-116.95 L 169.085,-117.663
 L 170.022,-118.237 L 171.037,-118.657 L 172.105,-118.914 L 173.2,-119 L 174.295,-118.914 L 175.363,-118.657
 L 176.378,-118.237 L 177.314,-117.663 L 178.15,-116.95 L 178.863,-116.114 L 179.437,-115.178 L 179.857,-114.163
 L 180.114,-113.095 L 180.2,-112 L 224.4,-112 L 224.4,-180.8 L 222,-180.8 L 222,-184
 L 124.4,-184 L 124.4,-180.8 L 122,-180.8 L 122,-112 L 166.2,-112 z
M 13,-62 L 33,-62 L 33,-56 L 45,-56 L 45,-62 L 65,-62
 L 65,-56 L 77,-56 L 77,-62 L 97,-62 L 97,-56 L 110,-56
 L 110,-66 L 103.99,-66 L 103.99,-76 L 110,-76 L 110,-86 L 103.99,-86
 L 103.99,-96 L 110,-96 L 110,-106 L 0,-106 L 0,-96 L 6.00999,-96
 L 6.00999,-86 L 0,-86 L 0,-76 L 6.00999,-76 L 6.00999,-66 L 0,-66
 L 0,-56 L 13,-56 z
M 25.5,-67 L 25.5,-91 L 30.5,-91 L 30.5,-67 z
M 79.5,-67 L 79.5,-91 L 84.5,-91 L 84.5,-67 z
M 133,-62 L 153,-62 L 153,-56 L 169,-56 L 169,-62 L 189,-62
 L 189,-56 L 193.99,-56 L 193.99,-66 L 200,-66 L 200,-76 L 193.99,-76
 L 193.99,-86 L 200,-86 L 200,-96 L 193.99,-96 L 193.99,-106 L 122,-106
 L 122,-102.4 L 191,-102.4 L 191,-96 L 122,-96 L 122,-86 L 128.01,-86
 L 128.01,-76 L 122,-76 L 122,-66 L 128.01,-66 L 128.01,-56 L 133,-56
 z
M 175.452,-64.5431 L 174.918,-64.6713 L 174.411,-64.8815 L 173.943,-65.1684 L 173.525,-65.5251 L 173.168,-65.9427
 L 172.881,-66.411 L 172.671,-66.9184 L 172.543,-67.4525 L 172.5,-68 L 172.543,-68.5475 L 172.671,-69.0816
 L 172.881,-69.589 L 173.168,-70.0572 L 173.525,-70.4749 L 173.943,-70.8316 L 174.411,-71.1185 L 174.918,-71.3287
 L 175.452,-71.4569 L 176,-71.5 L 176.548,-71.4569 L 177.082,-71.3287 L 177.589,-71.1185 L 178.057,-70.8316
 L 178.475,-70.4749 L 178.832,-70.0572 L 179.119,-69.589 L 179.329,-69.0816 L 179.457,-68.5475 L 179.5,-68
 L 179.457,-67.4525 L 179.329,-66.9184 L 179.119,-66.411 L 178.832,-65.9427 L 178.475,-65.5251 L 178.057,-65.1684
 L 177.589,-64.8815 L 177.082,-64.6713 L 176.548,-64.5431 L 176,-64.5 z
M 138,-63.7 L 138,-67.7 L 148,-67.7 L 148,-63.7 z
M 133,-6 L 153,-6 L 153,-0 L 169,-0 L 169,-6 L 189,-6
 L 189,-0 L 193.99,-0 L 193.99,-10 L 200,-10 L 200,-20 L 193.99,-20
 L 193.99,-30 L 200,-30 L 200,-40 L 193.99,-40 L 193.99,-50 L 122,-50
 L 122,-46.4 L 191,-46.4 L 191,-40 L 122,-40 L 122,-30 L 128.01,-30
 L 128.01,-20 L 122,-20 L 122,-10 L 128.01,-10 L 128.01,-0 L 133,-0
 z
M 176.123,-10.1477 L 174.292,-10.5873 L 172.552,-11.3079 L 170.947,-12.2918 L 169.515,-13.5147 L 168.292,-14.9466
 L 167.308,-16.5521 L 166.587,-18.2918 L 166.148,-20.1228 L 166,-22 L 166.148,-23.8772 L 166.587,-25.7082
 L 167.308,-27.4479 L 168.292,-29.0534 L 169.515,-30.4853 L 170.947,-31.7082 L 172.552,-32.6921 L 174.292,-33.4127
 L 176.123,-33.8522 L 178,-34 L 179.877,-33.8522 L 181.708,-33.4127 L 183.448,-32.6921 L 185.053,-31.7082
 L 186.485,-30.4853 L 187.708,-29.0534 L 188.692,-27.4479 L 189.413,-25.7082 L 189.852,-23.8772 L 190,-22
 L 189.852,-20.1228 L 189.413,-18.2918 L 188.692,-16.5521 L 187.708,-14.9466 L 186.485,-13.5147 L 185.053,-12.2918
 L 183.448,-11.3079 L 181.708,-10.5873 L 179.877,-10.1477 L 178,-10 z
M 135.85,-9.48999 L 135.85,-21.19 L 156.15,-21.19 L 156.15,-9.48999 z
M 13,-6 L 33,-6 L 33,-0 L 45,-0 L 45,-6 L 65,-6
 L 65,-0 L 77,-0 L 77,-6 L 97,-6 L 97,-0 L 110,-0
 L 110,-10 L 103.99,-10 L 103.99,-20 L 110,-20 L 110,-30 L 103.99,-30
 L 103.99,-40 L 6.00999,-40 L 6.00999,-30 L 0,-30 L 0,-20 L 6.00999,-20
 L 6.00999,-10 L 0,-10 L 0,-0 L 13,-0 z
M 21,-11 L 21,-35 L 89,-35 L 89,-11 z
"/>
</g>
<g id="etch" fill="#ff0000" stroke="#ff0000" stroke-width="0.1">
<path d="
M 104,-181.965 L 86.77,-181.965 L 86.77,-150.035 L 104,-150.035 z
M 87.17,-150.435 L 87.17,-181.565 L 103.6,-181.565 L 103.6,-150.435 z
M 98.8355,-164.469 L 98.9861,-164.487 L 99.129,-164.517 L 99.2642,-164.559 L 99.3918,-164.613 L 99.5117,-164.679
 L 99.6231,-164.757 L 99.7252,-164.848 L 99.8179,-164.951 L 99.9013,-165.067 L 99.9754,-165.196 L 100.04,-165.337
 L 99.4824,-165.548 L 99.3974,-165.37 L 99.2926,-165.225 L 99.1683,-165.111 L 99.0243,-165.031 L 98.8606,-164.982
 L 98.6773,-164.966 L 98.5377,-164.974 L 98.4093,-164.997 L 98.2924,-165.035 L 98.1869,-165.089 L 98.0928,-165.159
 L 98.0101,-165.244 L 97.9395,-165.343 L 97.8817,-165.457 L 97.8367,-165.584 L 97.8047,-165.725 L 97.7854,-165.88
 L 97.779,-166.049 L 97.7852,-166.215 L 97.8039,-166.367 L 97.8351,-166.505 L 97.8788,-166.629 L 97.9349,-166.74
 L 98.0036,-166.837 L 98.0842,-166.919 L 98.1766,-166.986 L 98.2805,-167.038 L 98.3961,-167.076 L 98.5233,-167.098
 L 98.6621,-167.106 L 98.7548,-167.102 L 98.8434,-167.091 L 98.9277,-167.072 L 99.0079,-167.045 L 99.084,-167.011
 L 99.1558,-166.97 L 99.2218,-166.922 L 99.2801,-166.869 L 99.3308,-166.811 L 99.3738,-166.747 L 99.4091,-166.678
 L 99.4368,-166.604 L 100.001,-166.758 L 99.9499,-166.892 L 99.8875,-167.015 L 99.8139,-167.127 L 99.729,-167.227
 L 99.633,-167.316 L 99.5258,-167.393 L 99.4074,-167.459 L 99.2779,-167.513 L 99.1374,-167.555 L 98.9857,-167.585
 L 98.823,-167.603 L 98.6491,-167.609 L 98.4129,-167.598 L 98.1961,-167.564 L 97.9987,-167.508 L 97.8207,-167.43
 L 97.6621,-167.329 L 97.5229,-167.205 L 97.4042,-167.061 L 97.3071,-166.898 L 97.2316,-166.715 L 97.1776,-166.512
 L 97.1452,-166.29 L 97.1345,-166.049 L 97.1456,-165.808 L 97.1792,-165.585 L 97.2351,-165.381 L 97.3134,-165.196
 L 97.414,-165.029 L 97.537,-164.88 L 97.6805,-164.753 L 97.8426,-164.648 L 98.0234,-164.567 L 98.2227,-164.509
 L 98.4407,-164.474 L 98.6773,-164.463 z
M 94.8399,-165.287 L 96.0051,-165.287 L 96.2764,-164.506 L 96.91,-164.506 L 95.799,-167.564 L 95.0439,-167.564
 L 93.9285,-164.506 L 94.5686,-164.506 z
M 94.9831,-165.769 L 95.0887,-166.077 L 95.1769,-166.335 L 95.2478,-166.543 L 95.3014,-166.701 L 95.3375,-166.809
 L 95.3563,-166.867 L 95.3662,-166.9 L 95.3756,-166.931 L 95.3845,-166.961 L 95.393,-166.99 L 95.4009,-167.018
 L 95.4084,-167.045 L 95.4214,-167.093 L 95.467,-166.943 L 95.5603,-166.648 L 95.8619,-165.769 z
M 92.3609,-164.511 L 92.4988,-164.527 L 92.6312,-164.553 L 92.7581,-164.589 L 92.8796,-164.636 L 92.9955,-164.693
 L 93.1044,-164.759 L 93.2048,-164.835 L 93.2966,-164.921 L 93.3799,-165.015 L 93.4545,-165.119 L 93.5207,-165.232
 L 93.5774,-165.353 L 93.6237,-165.48 L 93.6598,-165.615 L 93.6856,-165.756 L 93.701,-165.903 L 93.7062,-166.058
 L 93.6945,-166.29 L 93.6592,-166.505 L 93.6004,-166.7 L 93.5181,-166.877 L 93.4123,-167.035 L 93.283,-167.174
 L 93.1323,-167.293 L 92.9621,-167.39 L 92.7726,-167.466 L 92.5636,-167.52 L 92.3352,-167.553 L 92.0874,-167.564
 L 90.9807,-167.564 L 90.9807,-164.506 L 92.2176,-164.506 z
M 91.6208,-165.001 L 91.6208,-167.069 L 92.0744,-167.069 L 92.2267,-167.062 L 92.3668,-167.04 L 92.4948,-167.004
 L 92.6106,-166.954 L 92.7142,-166.889 L 92.8057,-166.809 L 92.8839,-166.717 L 92.9479,-166.611 L 92.9977,-166.492
 L 93.0333,-166.36 L 93.0546,-166.215 L 93.0617,-166.058 L 93.055,-165.9 L 93.0347,-165.755 L 93.001,-165.62
 L 92.9537,-165.497 L 92.8929,-165.385 L 92.8187,-165.285 L 92.733,-165.198 L 92.6378,-165.127 L 92.5333,-165.072
 L 92.4194,-165.032 L 92.2961,-165.009 L 92.1633,-165.001 z
M 76.22,-175.025 L 27,-175.025 L 27,-160.975 L 76.22,-160.975 z
M 27.4,-161.375 L 27.4,-174.625 L 75.82,-174.625 L 75.82,-161.375 z
M 54.4238,-166.661 L 54.5599,-166.678 L 54.6842,-166.707 L 54.7966,-166.747 L 54.8972,-166.799 L 54.9861,-166.863
 L 55.0621,-166.937 L 55.1243,-167.02 L 55.1726,-167.113 L 55.2072,-167.215 L 55.2279,-167.326 L 55.2348,-167.447
 L 55.2307,-167.533 L 55.2185,-167.614 L 55.198,-167.69 L 55.1694,-167.76 L 55.1326,-167.825 L 55.0876,-167.884
 L 55.0355,-167.937 L 54.9772,-167.983 L 54.9127,-168.022 L 54.8421,-168.054 L 54.7653,-168.078 L 54.6823,-168.096
 L 54.6823,-168.104 L 54.7538,-168.121 L 54.8204,-168.146 L 54.8819,-168.178 L 54.9384,-168.216 L 54.9899,-168.261
 L 55.0364,-168.312 L 55.0767,-168.369 L 55.1097,-168.428 L 55.1354,-168.491 L 55.1537,-168.556 L 55.1647,-168.625
 L 55.1684,-168.696 L 55.1619,-168.805 L 55.1425,-168.906 L 55.1102,-168.999 L 55.065,-169.082 L 55.0068,-169.157
 L 54.9358,-169.223 L 54.8526,-169.279 L 54.7582,-169.326 L 54.6526,-169.362 L 54.5358,-169.387 L 54.4077,-169.403
 L 54.2684,-169.408 L 54.1319,-169.403 L 54.0062,-169.387 L 53.8912,-169.36 L 53.7869,-169.324 L 53.6933,-169.276
 L 53.6104,-169.218 L 53.5394,-169.151 L 53.4812,-169.076 L 53.436,-168.994 L 53.4037,-168.903 L 53.3843,-168.805
 L 53.3779,-168.7 L 53.3815,-168.628 L 53.3926,-168.56 L 53.4111,-168.494 L 53.4369,-168.431 L 53.4701,-168.371
 L 53.5107,-168.314 L 53.5574,-168.262 L 53.6086,-168.216 L 53.6645,-168.177 L 53.7251,-168.145 L 53.7903,-168.119
 L 53.8601,-168.1 L 53.8601,-168.092 L 53.78,-168.074 L 53.7055,-168.049 L 53.6366,-168.017 L 53.5732,-167.977
 L 53.5154,-167.93 L 53.4633,-167.875 L 53.418,-167.814 L 53.381,-167.749 L 53.3522,-167.679 L 53.3316,-167.605
 L 53.3193,-167.526 L 53.3152,-167.443 L 53.3222,-167.323 L 53.3431,-167.212 L 53.3781,-167.11 L 53.427,-167.018
 L 53.4899,-166.935 L 53.5668,-166.862 L 53.6563,-166.799 L 53.7574,-166.747 L 53.8698,-166.707 L 53.9938,-166.678
 L 54.1291,-166.661 L 54.2759,-166.655 z
M 54.1654,-168.295 L 54.078,-168.327 L 54.0101,-168.38 L 53.9616,-168.454 L 53.9325,-168.55 L 53.9228,-168.667
 L 53.9324,-168.779 L 53.9612,-168.871 L 54.0092,-168.942 L 54.0764,-168.993 L 54.1628,-169.024 L 54.2684,-169.034
 L 54.3247,-169.031 L 54.3762,-169.024 L 54.4226,-169.012 L 54.4641,-168.995 L 54.5007,-168.973 L 54.5323,-168.946
 L 54.5589,-168.913 L 54.5808,-168.875 L 54.5978,-168.832 L 54.6099,-168.783 L 54.6172,-168.728 L 54.6196,-168.667
 L 54.6172,-168.602 L 54.61,-168.544 L 54.598,-168.491 L 54.5812,-168.445 L 54.5596,-168.406 L 54.5332,-168.373
 L 54.502,-168.346 L 54.4658,-168.324 L 54.4248,-168.306 L 54.3788,-168.294 L 54.3279,-168.286 L 54.2721,-168.284
 z
M 54.2125,-167.034 L 54.1513,-167.043 L 54.096,-167.058 L 54.0468,-167.079 L 54.0036,-167.106 L 53.9664,-167.139
 L 53.9351,-167.179 L 53.9095,-167.225 L 53.8896,-167.279 L 53.8753,-167.34 L 53.8668,-167.408 L 53.8639,-167.483
 L 53.8668,-167.549 L 53.8754,-167.61 L 53.8898,-167.665 L 53.9099,-167.716 L 53.9358,-167.76 L 53.9674,-167.8
 L 54.0044,-167.833 L 54.0464,-167.861 L 54.0934,-167.882 L 54.1455,-167.898 L 54.2025,-167.907 L 54.2646,-167.91
 L 54.3922,-167.898 L 54.4966,-167.863 L 54.5779,-167.805 L 54.6359,-167.723 L 54.6707,-167.618 L 54.6823,-167.49
 L 54.6796,-167.413 L 54.6714,-167.343 L 54.6578,-167.281 L 54.6388,-167.226 L 54.6144,-167.179 L 54.5845,-167.139
 L 54.5489,-167.106 L 54.5072,-167.079 L 54.4594,-167.058 L 54.4056,-167.043 L 54.3457,-167.034 L 54.2798,-167.031
 z
M 50.0219,-166.661 L 50.1872,-166.678 L 50.3373,-166.707 L 50.4723,-166.747 L 50.5922,-166.799 L 50.6969,-166.863
 L 50.786,-166.937 L 50.8588,-167.022 L 50.9155,-167.117 L 50.956,-167.222 L 50.9803,-167.338 L 50.9884,-167.464
 L 50.987,-167.518 L 50.9827,-167.571 L 50.9756,-167.621 L 50.9656,-167.669 L 50.9528,-167.715 L 50.9371,-167.759
 L 50.9188,-167.801 L 50.8979,-167.84 L 50.8745,-167.878 L 50.8485,-167.914 L 50.82,-167.947 L 50.789,-167.979
 L 50.7548,-168.009 L 50.7168,-168.038 L 50.6748,-168.066 L 50.6291,-168.092 L 50.5795,-168.117 L 50.526,-168.141
 L 50.4646,-168.164 L 50.3909,-168.188 L 50.3051,-168.213 L 50.207,-168.238 L 50.0968,-168.265 L 49.9745,-168.291
 L 49.8723,-168.314 L 49.7823,-168.336 L 49.7043,-168.356 L 49.6386,-168.375 L 49.5849,-168.392 L 49.5434,-168.408
 L 49.5094,-168.424 L 49.4783,-168.441 L 49.4501,-168.46 L 49.4249,-168.479 L 49.4025,-168.5 L 49.383,-168.521
 L 49.3665,-168.544 L 49.3529,-168.57 L 49.3424,-168.597 L 49.3349,-168.627 L 49.3304,-168.658 L 49.3289,-168.692
 L 49.343,-168.79 L 49.3854,-168.869 L 49.4561,-168.931 L 49.5551,-168.976 L 49.6823,-169.002 L 49.8378,-169.011
 L 49.9144,-169.009 L 49.9849,-169.001 L 50.0492,-168.989 L 50.1074,-168.972 L 50.1593,-168.95 L 50.2051,-168.924
 L 50.2455,-168.892 L 50.281,-168.856 L 50.3117,-168.815 L 50.3376,-168.769 L 50.3588,-168.719 L 50.3751,-168.664
 L 50.9181,-168.738 L 50.8891,-168.852 L 50.8503,-168.954 L 50.8016,-169.046 L 50.743,-169.126 L 50.6746,-169.195
 L 50.5963,-169.252 L 50.5062,-169.3 L 50.4023,-169.339 L 50.2847,-169.369 L 50.1532,-169.391 L 50.0081,-169.404
 L 49.8491,-169.408 L 49.6826,-169.403 L 49.5298,-169.387 L 49.3908,-169.36 L 49.2656,-169.322 L 49.1541,-169.274
 L 49.0564,-169.215 L 48.9732,-169.146 L 48.905,-169.068 L 48.8521,-168.98 L 48.8142,-168.883 L 48.7915,-168.776
 L 48.784,-168.66 L 48.785,-168.613 L 48.7881,-168.568 L 48.7932,-168.526 L 48.8004,-168.484 L 48.8096,-168.445
 L 48.821,-168.407 L 48.8341,-168.371 L 48.8489,-168.337 L 48.8653,-168.304 L 48.8834,-168.273 L 48.9031,-168.244
 L 48.9244,-168.216 L 48.9474,-168.189 L 48.9719,-168.164 L 48.998,-168.14 L 49.0257,-168.117 L 49.055,-168.096
 L 49.0858,-168.076 L 49.1181,-168.057 L 49.1516,-168.039 L 49.1864,-168.022 L 49.2225,-168.006 L 49.2599,-167.99
 L 49.2985,-167.975 L 49.3428,-167.96 L 49.3972,-167.944 L 49.4618,-167.926 L 49.5365,-167.906 L 49.6213,-167.885
 L 49.7162,-167.862 L 49.8258,-167.84 L 49.9229,-167.818 L 50.0074,-167.797 L 50.0795,-167.778 L 50.1391,-167.76
 L 50.1862,-167.743 L 50.2254,-167.726 L 50.2617,-167.707 L 50.2949,-167.687 L 50.325,-167.666 L 50.352,-167.643
 L 50.376,-167.619 L 50.3966,-167.594 L 50.4135,-167.566 L 50.4266,-167.535 L 50.436,-167.503 L 50.4416,-167.468
 L 50.4435,-167.431 L 50.4272,-167.322 L 50.3783,-167.233 L 50.2968,-167.164 L 50.1827,-167.114 L 50.036,-167.084
 L 49.8567,-167.074 L 49.7659,-167.077 L 49.6818,-167.085 L 49.6047,-167.098 L 49.5344,-167.117 L 49.4709,-167.141
 L 49.4143,-167.17 L 49.364,-167.205 L 49.3196,-167.247 L 49.2809,-167.295 L 49.2481,-167.35 L 49.221,-167.411
 L 49.1998,-167.479 L 48.6586,-167.39 L 48.6923,-167.271 L 48.7375,-167.164 L 48.7944,-167.066 L 48.8628,-166.979
 L 48.9429,-166.903 L 49.0346,-166.837 L 49.1382,-166.781 L 49.2542,-166.736 L 49.3825,-166.7 L 49.5232,-166.675
 L 49.6762,-166.66 L 49.8415,-166.655 z
M 46.6243,-167.709 L 47.2812,-167.709 L 47.9021,-166.693 L 48.5325,-166.693 L 47.8091,-167.817 L 47.8965,-167.842
 L 47.9776,-167.875 L 48.0526,-167.916 L 48.1213,-167.965 L 48.1838,-168.021 L 48.2401,-168.085 L 48.2888,-168.156
 L 48.3287,-168.23 L 48.3597,-168.309 L 48.3819,-168.392 L 48.3952,-168.479 L 48.3996,-168.571 L 48.3924,-168.694
 L 48.3707,-168.808 L 48.3345,-168.911 L 48.284,-169.005 L 48.2189,-169.088 L 48.1394,-169.162 L 48.0467,-169.225
 L 47.9418,-169.277 L 47.8247,-169.317 L 47.6956,-169.345 L 47.5543,-169.362 L 47.4008,-169.368 L 46.0641,-169.368
 L 46.0641,-166.693 L 46.6243,-166.693 z
M 46.6243,-168.143 L 46.6243,-168.933 L 47.342,-168.933 L 47.4928,-168.923 L 47.6162,-168.89 L 47.7122,-168.837
 L 47.7808,-168.762 L 47.8219,-168.666 L 47.8356,-168.548 L 47.8323,-168.486 L 47.8221,-168.429 L 47.8053,-168.377
 L 47.7816,-168.33 L 47.7513,-168.288 L 47.7141,-168.25 L 47.6704,-168.217 L 47.6205,-168.191 L 47.5641,-168.17
 L 47.5015,-168.155 L 47.4325,-168.146 L 47.3572,-168.143 z
M 52.8645,-167.238 L 53.2215,-167.238 L 53.2215,-167.635 L 52.8645,-167.635 L 52.8645,-169.368 L 52.2683,-169.368
 L 51.1385,-167.638 L 51.1385,-167.238 L 52.3556,-167.238 L 52.3556,-166.693 L 52.8645,-166.693 z
M 51.5733,-167.635 L 52.1942,-168.578 L 52.235,-168.643 L 52.2714,-168.702 L 52.3034,-168.756 L 52.3309,-168.804
 L 52.354,-168.848 L 52.3727,-168.886 L 52.3714,-168.872 L 52.3698,-168.854 L 52.3682,-168.83 L 52.3664,-168.802
 L 52.3644,-168.769 L 52.3622,-168.732 L 52.3602,-168.693 L 52.3586,-168.654 L 52.3573,-168.617 L 52.3563,-168.58
 L 52.3558,-168.545 L 52.3556,-168.51 L 52.3556,-167.635 z
M 56.5155,-166.662 L 56.6529,-166.683 L 56.7794,-166.718 L 56.895,-166.767 L 56.9997,-166.829 L 57.0934,-166.906
 L 57.1744,-166.995 L 57.2406,-167.093 L 57.2921,-167.201 L 57.3289,-167.319 L 57.351,-167.446 L 57.3583,-167.583
 L 57.352,-167.715 L 57.3329,-167.836 L 57.3011,-167.949 L 57.2566,-168.052 L 57.1994,-168.145 L 57.1295,-168.229
 L 57.049,-168.301 L 56.96,-168.361 L 56.8625,-168.407 L 56.7565,-168.44 L 56.642,-168.46 L 56.5191,-168.466
 L 56.4249,-168.461 L 56.3362,-168.447 L 56.2528,-168.423 L 56.1748,-168.39 L 56.1021,-168.348 L 56.0349,-168.295
 L 56.0786,-168.971 L 57.2026,-168.971 L 57.2026,-169.368 L 55.5944,-169.368 L 55.5014,-167.862 L 56.0216,-167.862
 L 56.0707,-167.915 L 56.1243,-167.958 L 56.1825,-167.992 L 56.2452,-168.016 L 56.3125,-168.03 L 56.3842,-168.035
 L 56.4489,-168.032 L 56.5085,-168.021 L 56.5632,-168.004 L 56.6129,-167.979 L 56.6577,-167.947 L 56.6975,-167.909
 L 56.7318,-167.864 L 56.7598,-167.815 L 56.7816,-167.762 L 56.7971,-167.703 L 56.8065,-167.64 L 56.8096,-167.572
 L 56.8063,-167.495 L 56.7964,-167.425 L 56.7799,-167.361 L 56.7568,-167.303 L 56.7272,-167.251 L 56.6909,-167.205
 L 56.6491,-167.167 L 56.6028,-167.135 L 56.5521,-167.11 L 56.4968,-167.092 L 56.4371,-167.082 L 56.3729,-167.078
 L 56.3206,-167.08 L 56.2714,-167.087 L 56.2252,-167.098 L 56.1821,-167.113 L 56.1421,-167.132 L 56.1051,-167.156
 L 56.0715,-167.185 L 56.0414,-167.218 L 56.015,-167.257 L 55.9921,-167.301 L 55.9728,-167.35 L 55.9571,-167.405
 L 55.4235,-167.361 L 55.4476,-167.251 L 55.482,-167.15 L 55.5267,-167.058 L 55.5817,-166.975 L 55.647,-166.901
 L 55.7225,-166.836 L 55.8077,-166.781 L 55.9018,-166.735 L 56.0048,-166.7 L 56.1167,-166.675 L 56.2375,-166.66
 L 56.3672,-166.655 z
M 22.4045,-169.163 L 22.0495,-169.163 L 21.6153,-166.888 L 21.9779,-166.888 z
M 23.7933,-166.953 L 23.9067,-166.966 L 24.0108,-166.988 L 24.1056,-167.018 L 24.1912,-167.058 L 24.2674,-167.105
 L 24.3331,-167.161 L 24.3868,-167.224 L 24.4285,-167.295 L 24.4584,-167.372 L 24.4763,-167.457 L 24.4823,-167.549
 L 24.4785,-167.618 L 24.4674,-167.682 L 24.4489,-167.742 L 24.4229,-167.798 L 24.3895,-167.848 L 24.3487,-167.894
 L 24.3008,-167.935 L 24.2462,-167.97 L 24.1848,-167.999 L 24.1167,-168.023 L 24.0418,-168.042 L 23.9601,-168.054
 L 24.0248,-168.071 L 24.0838,-168.092 L 24.1371,-168.118 L 24.1845,-168.147 L 24.2262,-168.182 L 24.2622,-168.221
 L 24.2925,-168.263 L 24.3173,-168.309 L 24.3366,-168.358 L 24.3504,-168.41 L 24.3586,-168.465 L 24.3614,-168.523
 L 24.3559,-168.606 L 24.3394,-168.683 L 24.312,-168.752 L 24.2735,-168.814 L 24.2241,-168.869 L 24.1637,-168.917
 L 24.0926,-168.958 L 24.0112,-168.992 L 23.9193,-169.017 L 23.817,-169.036 L 23.7043,-169.047 L 23.5811,-169.051
 L 22.6189,-169.051 L 22.6189,-166.949 L 23.6707,-166.949 z
M 23.059,-168.203 L 23.059,-168.724 L 23.5603,-168.724 L 23.617,-168.722 L 23.6689,-168.718 L 23.716,-168.709
 L 23.7582,-168.698 L 23.7955,-168.683 L 23.828,-168.664 L 23.8556,-168.642 L 23.8782,-168.616 L 23.8958,-168.584
 L 23.9083,-168.548 L 23.9158,-168.508 L 23.9183,-168.463 L 23.916,-168.422 L 23.909,-168.384 L 23.8972,-168.349
 L 23.8809,-168.319 L 23.8598,-168.292 L 23.834,-168.268 L 23.8031,-168.249 L 23.7665,-168.232 L 23.7242,-168.22
 L 23.6762,-168.211 L 23.6226,-168.205 L 23.5633,-168.203 z
M 23.059,-167.276 L 23.059,-167.878 L 23.617,-167.878 L 23.7464,-167.87 L 23.8524,-167.845 L 23.9347,-167.804
 L 23.9936,-167.747 L 24.0289,-167.673 L 24.0407,-167.583 L 24.0379,-167.534 L 24.0298,-167.489 L 24.0162,-167.448
 L 23.9972,-167.412 L 23.9728,-167.38 L 23.9429,-167.352 L 23.9072,-167.329 L 23.8651,-167.31 L 23.8167,-167.295
 L 23.7619,-167.284 L 23.7008,-167.278 L 23.6334,-167.276 z
M 20.1333,-167.486 L 20.9344,-167.486 L 21.1209,-166.949 L 21.5565,-166.949 L 20.7927,-169.051 L 20.2735,-169.051
 L 19.5067,-166.949 L 19.9468,-166.949 z
M 20.2317,-167.817 L 20.3043,-168.029 L 20.365,-168.206 L 20.4137,-168.349 L 20.4505,-168.458 L 20.4754,-168.532
 L 20.4883,-168.572 L 20.4951,-168.594 L 20.5016,-168.616 L 20.5077,-168.637 L 20.5135,-168.657 L 20.519,-168.676
 L 20.5241,-168.694 L 20.5331,-168.727 L 20.5644,-168.624 L 20.6286,-168.421 L 20.8359,-167.817 z
M 37.75,-153 L 6,-153 L 6,-119 L 37.75,-119 z
M 6.40001,-119.4 L 6.40001,-152.6 L 37.35,-152.6 L 37.35,-119.4 z
M 26.3731,-134.66 L 26.5048,-134.676 L 26.6298,-134.702 L 26.7482,-134.739 L 26.8598,-134.786 L 26.9647,-134.844
 L 27.0622,-134.912 L 27.1516,-134.992 L 27.2327,-135.082 L 27.3057,-135.184 L 27.3705,-135.296 L 27.4271,-135.42
 L 26.9391,-135.604 L 26.8647,-135.449 L 26.7731,-135.321 L 26.6642,-135.223 L 26.5383,-135.152 L 26.3951,-135.109
 L 26.2347,-135.095 L 26.1124,-135.102 L 26.0002,-135.122 L 25.8979,-135.156 L 25.8056,-135.203 L 25.7232,-135.264
 L 25.6508,-135.338 L 25.589,-135.425 L 25.5385,-135.525 L 25.4991,-135.636 L 25.4711,-135.759 L 25.4542,-135.895
 L 25.4486,-136.043 L 25.4541,-136.188 L 25.4704,-136.321 L 25.4977,-136.442 L 25.5359,-136.551 L 25.5851,-136.647
 L 25.6451,-136.732 L 25.7157,-136.804 L 25.7965,-136.863 L 25.8874,-136.909 L 25.9886,-136.941 L 26.0999,-136.961
 L 26.2214,-136.967 L 26.3025,-136.964 L 26.3799,-136.954 L 26.4537,-136.938 L 26.5239,-136.915 L 26.5905,-136.885
 L 26.6534,-136.849 L 26.7111,-136.807 L 26.7621,-136.76 L 26.8064,-136.709 L 26.8441,-136.654 L 26.875,-136.594
 L 26.8992,-136.529 L 27.3929,-136.664 L 27.3481,-136.781 L 27.2935,-136.888 L 27.2291,-136.986 L 27.1549,-137.073
 L 27.0709,-137.151 L 26.9771,-137.219 L 26.8735,-137.277 L 26.7602,-137.324 L 26.6372,-137.361 L 26.5045,-137.387
 L 26.3621,-137.403 L 26.21,-137.408 L 26.0033,-137.398 L 25.8136,-137.369 L 25.6408,-137.32 L 25.4851,-137.251
 L 25.3463,-137.163 L 25.2245,-137.055 L 25.1207,-136.929 L 25.0357,-136.785 L 24.9696,-136.625 L 24.9224,-136.448
 L 24.8941,-136.254 L 24.8846,-136.043 L 24.8944,-135.832 L 24.9238,-135.637 L 24.9727,-135.459 L 25.0412,-135.296
 L 25.1292,-135.15 L 25.2368,-135.02 L 25.3624,-134.909 L 25.5043,-134.817 L 25.6624,-134.746 L 25.8369,-134.695
 L 26.0276,-134.665 L 26.2347,-134.655 z
M 20.1979,-134.665 L 20.3392,-134.694 L 20.4684,-134.743 L 20.5854,-134.812 L 20.6903,-134.9 L 20.7831,-135.008
 L 20.8626,-135.136 L 20.9276,-135.283 L 20.9782,-135.451 L 21.0143,-135.638 L 21.036,-135.846 L 21.0432,-136.073
 L 21.0367,-136.287 L 21.0172,-136.481 L 20.9846,-136.658 L 20.939,-136.815 L 20.8804,-136.954 L 20.8087,-137.075
 L 20.7237,-137.177 L 20.6251,-137.26 L 20.5128,-137.325 L 20.3868,-137.371 L 20.2471,-137.399 L 20.0938,-137.408
 L 19.9507,-137.401 L 19.8188,-137.382 L 19.6982,-137.349 L 19.5888,-137.302 L 19.4906,-137.243 L 19.4037,-137.171
 L 19.3291,-137.086 L 19.2681,-136.992 L 19.2207,-136.887 L 19.1868,-136.772 L 19.1664,-136.647 L 19.1597,-136.512
 L 19.1654,-136.38 L 19.1828,-136.257 L 19.2116,-136.144 L 19.2521,-136.04 L 19.304,-135.946 L 19.3676,-135.861
 L 19.4409,-135.788 L 19.5223,-135.728 L 19.6118,-135.681 L 19.7094,-135.648 L 19.815,-135.628 L 19.9286,-135.621
 L 19.9912,-135.623 L 20.0524,-135.63 L 20.1121,-135.641 L 20.1704,-135.657 L 20.2273,-135.677 L 20.2828,-135.702
 L 20.335,-135.731 L 20.382,-135.763 L 20.424,-135.798 L 20.4608,-135.837 L 20.4926,-135.879 L 20.5191,-135.925
 L 20.5146,-135.79 L 20.5036,-135.667 L 20.4862,-135.555 L 20.4622,-135.455 L 20.4317,-135.366 L 20.3948,-135.289
 L 20.3517,-135.223 L 20.3029,-135.17 L 20.2484,-135.128 L 20.188,-135.098 L 20.122,-135.08 L 20.0502,-135.074
 L 19.9663,-135.082 L 19.8932,-135.105 L 19.8309,-135.144 L 19.7793,-135.198 L 19.7385,-135.268 L 19.7084,-135.354
 L 19.2071,-135.283 L 19.2382,-135.179 L 19.2758,-135.085 L 19.3199,-135.001 L 19.3704,-134.926 L 19.4275,-134.861
 L 19.491,-134.806 L 19.562,-134.76 L 19.6415,-134.722 L 19.7295,-134.693 L 19.826,-134.672 L 19.931,-134.659
 L 20.0445,-134.655 z
M 20.0245,-136.022 L 19.9711,-136.033 L 19.922,-136.052 L 19.8774,-136.078 L 19.8372,-136.111 L 19.8014,-136.152
 L 19.7707,-136.199 L 19.7455,-136.251 L 19.726,-136.308 L 19.712,-136.37 L 19.7036,-136.436 L 19.7008,-136.508
 L 19.7036,-136.581 L 19.7121,-136.648 L 19.7262,-136.709 L 19.7459,-136.766 L 19.7713,-136.817 L 19.8024,-136.862
 L 19.8383,-136.901 L 19.8784,-136.933 L 19.9227,-136.958 L 19.9712,-136.976 L 20.0238,-136.987 L 20.0806,-136.99
 L 20.1387,-136.986 L 20.1929,-136.974 L 20.2431,-136.953 L 20.2894,-136.925 L 20.3317,-136.888 L 20.3701,-136.843
 L 20.4035,-136.791 L 20.4308,-136.734 L 20.452,-136.671 L 20.4671,-136.602 L 20.4762,-136.527 L 20.4793,-136.447
 L 20.4761,-136.384 L 20.4667,-136.326 L 20.451,-136.271 L 20.4291,-136.221 L 20.4008,-136.176 L 20.3663,-136.135
 L 20.327,-136.099 L 20.2846,-136.07 L 20.2389,-136.047 L 20.1899,-136.031 L 20.1378,-136.021 L 20.0825,-136.018
 z
M 18.0371,-134.698 L 18.1814,-134.715 L 18.3139,-134.743 L 18.4346,-134.781 L 18.5434,-134.831 L 18.6405,-134.892
 L 18.724,-134.963 L 18.7924,-135.043 L 18.8456,-135.133 L 18.8835,-135.231 L 18.9063,-135.339 L 18.9139,-135.456
 L 18.9092,-135.544 L 18.895,-135.626 L 18.8714,-135.703 L 18.8384,-135.773 L 18.7959,-135.837 L 18.744,-135.896
 L 18.683,-135.947 L 18.6135,-135.992 L 18.5354,-136.03 L 18.4486,-136.06 L 18.3533,-136.083 L 18.2494,-136.1
 L 18.3318,-136.121 L 18.4068,-136.148 L 18.4746,-136.18 L 18.535,-136.218 L 18.5881,-136.262 L 18.6338,-136.311
 L 18.6724,-136.366 L 18.704,-136.424 L 18.7285,-136.486 L 18.7461,-136.552 L 18.7566,-136.622 L 18.7601,-136.696
 L 18.7531,-136.802 L 18.7321,-136.899 L 18.6972,-136.988 L 18.6483,-137.067 L 18.5854,-137.137 L 18.5085,-137.198
 L 18.418,-137.25 L 18.3143,-137.293 L 18.1974,-137.326 L 18.0672,-137.349 L 17.9237,-137.363 L 17.7671,-137.368
 L 16.5424,-137.368 L 16.5424,-134.693 L 17.881,-134.693 z
M 17.1025,-136.29 L 17.1025,-136.952 L 17.7405,-136.952 L 17.8127,-136.95 L 17.8788,-136.944 L 17.9387,-136.933
 L 17.9924,-136.919 L 18.0399,-136.9 L 18.0813,-136.876 L 18.1164,-136.848 L 18.1451,-136.814 L 18.1675,-136.774
 L 18.1834,-136.729 L 18.193,-136.677 L 18.1962,-136.62 L 18.1932,-136.567 L 18.1843,-136.519 L 18.1694,-136.475
 L 18.1485,-136.436 L 18.1217,-136.402 L 18.0889,-136.372 L 18.0495,-136.347 L 18.0029,-136.326 L 17.9491,-136.31
 L 17.8881,-136.299 L 17.8198,-136.292 L 17.7443,-136.29 z
M 17.1025,-135.109 L 17.1025,-135.876 L 17.8126,-135.876 L 17.9774,-135.865 L 18.1122,-135.834 L 18.2171,-135.782
 L 18.292,-135.709 L 18.3369,-135.615 L 18.3519,-135.5 L 18.3484,-135.437 L 18.3381,-135.38 L 18.3208,-135.329
 L 18.2966,-135.282 L 18.2655,-135.242 L 18.2275,-135.206 L 18.182,-135.176 L 18.1285,-135.152 L 18.0668,-135.133
 L 17.9971,-135.119 L 17.9194,-135.111 L 17.8335,-135.109 z
M 15.0075,-134.697 L 15.1281,-134.711 L 15.244,-134.734 L 15.3551,-134.765 L 15.4613,-134.806 L 15.5627,-134.856
 L 15.6581,-134.915 L 15.7459,-134.981 L 15.8262,-135.056 L 15.899,-135.138 L 15.9644,-135.229 L 16.0222,-135.328
 L 16.0719,-135.434 L 16.1124,-135.545 L 16.144,-135.663 L 16.1666,-135.786 L 16.1801,-135.915 L 16.1846,-136.05
 L 16.1743,-136.254 L 16.1435,-136.442 L 16.092,-136.613 L 16.02,-136.767 L 15.9275,-136.905 L 15.8143,-137.027
 L 15.6824,-137.131 L 15.5335,-137.217 L 15.3677,-137.283 L 15.1848,-137.33 L 14.985,-137.359 L 14.7681,-137.368
 L 13.7998,-137.368 L 13.7998,-134.693 L 14.882,-134.693 z
M 14.3599,-135.126 L 14.3599,-136.935 L 14.7567,-136.935 L 14.89,-136.929 L 15.0126,-136.91 L 15.1246,-136.878
 L 15.2259,-136.834 L 15.3166,-136.778 L 15.3966,-136.708 L 15.4651,-136.627 L 15.5211,-136.534 L 15.5647,-136.43
 L 15.5958,-136.315 L 15.6145,-136.188 L 15.6207,-136.05 L 15.6148,-135.913 L 15.597,-135.785 L 15.5675,-135.668
 L 15.5262,-135.56 L 15.473,-135.462 L 15.408,-135.374 L 15.333,-135.298 L 15.2498,-135.236 L 15.1583,-135.188
 L 15.0586,-135.153 L 14.9507,-135.133 L 14.8346,-135.126 z
M 29.2226,-134.698 L 29.3669,-134.715 L 29.4994,-134.743 L 29.6201,-134.781 L 29.729,-134.831 L 29.826,-134.892
 L 29.9095,-134.963 L 29.9779,-135.043 L 30.0311,-135.133 L 30.069,-135.231 L 30.0918,-135.339 L 30.0994,-135.456
 L 30.0947,-135.544 L 30.0805,-135.626 L 30.0569,-135.703 L 30.0239,-135.773 L 29.9814,-135.837 L 29.9295,-135.896
 L 29.8685,-135.947 L 29.799,-135.992 L 29.7209,-136.03 L 29.6341,-136.06 L 29.5388,-136.083 L 29.4349,-136.1
 L 29.5173,-136.121 L 29.5923,-136.148 L 29.6601,-136.18 L 29.7205,-136.218 L 29.7736,-136.262 L 29.8193,-136.311
 L 29.8579,-136.366 L 29.8895,-136.424 L 29.914,-136.486 L 29.9316,-136.552 L 29.9421,-136.622 L 29.9456,-136.696
 L 29.9386,-136.802 L 29.9177,-136.899 L 29.8827,-136.988 L 29.8338,-137.067 L 29.7709,-137.137 L 29.694,-137.198
 L 29.6036,-137.25 L 29.4998,-137.293 L 29.3829,-137.326 L 29.2527,-137.349 L 29.1093,-137.363 L 28.9526,-137.368
 L 27.7279,-137.368 L 27.7279,-134.693 L 29.0665,-134.693 z
M 28.288,-136.29 L 28.288,-136.952 L 28.926,-136.952 L 28.9982,-136.95 L 29.0643,-136.944 L 29.1242,-136.933
 L 29.1779,-136.919 L 29.2254,-136.9 L 29.2668,-136.876 L 29.3019,-136.848 L 29.3306,-136.814 L 29.353,-136.774
 L 29.3689,-136.729 L 29.3785,-136.677 L 29.3817,-136.62 L 29.3787,-136.567 L 29.3698,-136.519 L 29.3549,-136.475
 L 29.334,-136.436 L 29.3072,-136.402 L 29.2744,-136.372 L 29.235,-136.347 L 29.1884,-136.326 L 29.1346,-136.31
 L 29.0736,-136.299 L 29.0053,-136.292 L 28.9298,-136.29 z
M 28.288,-135.109 L 28.288,-135.876 L 28.9982,-135.876 L 29.1629,-135.865 L 29.2977,-135.834 L 29.4026,-135.782
 L 29.4775,-135.709 L 29.5224,-135.615 L 29.5374,-135.5 L 29.534,-135.437 L 29.5236,-135.38 L 29.5063,-135.329
 L 29.4821,-135.282 L 29.451,-135.242 L 29.413,-135.206 L 29.3675,-135.176 L 29.314,-135.152 L 29.2523,-135.133
 L 29.1826,-135.119 L 29.1049,-135.111 L 29.019,-135.109 z
M 23.0123,-135.635 L 23.6769,-135.635 L 23.7752,-135.638 L 23.869,-135.647 L 23.9582,-135.662 L 24.0427,-135.684
 L 24.1227,-135.712 L 24.1981,-135.746 L 24.2684,-135.785 L 24.333,-135.83 L 24.392,-135.88 L 24.4454,-135.935
 L 24.4931,-135.995 L 24.5351,-136.06 L 24.5711,-136.129 L 24.6005,-136.201 L 24.6234,-136.277 L 24.6398,-136.355
 L 24.6496,-136.437 L 24.6529,-136.521 L 24.6457,-136.651 L 24.6241,-136.771 L 24.5881,-136.88 L 24.5377,-136.979
 L 24.4729,-137.068 L 24.3937,-137.147 L 24.3011,-137.214 L 24.1963,-137.27 L 24.0792,-137.313 L 23.9498,-137.344
 L 23.8081,-137.362 L 23.6541,-137.368 L 22.4522,-137.368 L 22.4522,-134.693 L 23.0123,-134.693 z
M 23.0123,-136.066 L 23.0123,-136.933 L 23.5915,-136.933 L 23.7435,-136.922 L 23.8678,-136.886 L 23.9646,-136.828
 L 24.0337,-136.746 L 24.0751,-136.641 L 24.0889,-136.512 L 24.0855,-136.442 L 24.075,-136.379 L 24.0576,-136.321
 L 24.0332,-136.268 L 24.0019,-136.222 L 23.9636,-136.18 L 23.9189,-136.145 L 23.8683,-136.117 L 23.8117,-136.094
 L 23.7493,-136.078 L 23.6809,-136.069 L 23.6066,-136.066 z
M 104,-141.89 L 82.54,-141.89 L 82.54,-124.11 L 104,-124.11 z
M 82.94,-124.51 L 82.94,-141.49 L 103.6,-141.49 L 103.6,-124.51 z
M 91.2307,-131.568 L 91.4078,-131.586 L 91.5687,-131.617 L 91.7133,-131.661 L 91.8417,-131.716 L 91.9539,-131.784
 L 92.0493,-131.864 L 92.1274,-131.955 L 92.1882,-132.057 L 92.2315,-132.169 L 92.2576,-132.293 L 92.2662,-132.428
 L 92.2647,-132.487 L 92.2601,-132.543 L 92.2525,-132.597 L 92.2418,-132.648 L 92.2281,-132.698 L 92.2113,-132.744
 L 92.1916,-132.789 L 92.1693,-132.832 L 92.1441,-132.872 L 92.1163,-132.91 L 92.0858,-132.947 L 92.0526,-132.98
 L 92.0159,-133.013 L 91.9752,-133.044 L 91.9303,-133.073 L 91.8813,-133.101 L 91.8281,-133.128 L 91.7708,-133.153
 L 91.705,-133.179 L 91.6261,-133.204 L 91.5341,-133.231 L 91.4291,-133.258 L 91.311,-133.286 L 91.1799,-133.315
 L 91.0704,-133.34 L 90.9739,-133.362 L 90.8905,-133.384 L 90.82,-133.404 L 90.7625,-133.423 L 90.718,-133.44
 L 90.6816,-133.457 L 90.6483,-133.476 L 90.6181,-133.495 L 90.591,-133.516 L 90.567,-133.538 L 90.5461,-133.561
 L 90.5284,-133.586 L 90.5139,-133.613 L 90.5027,-133.643 L 90.4946,-133.674 L 90.4898,-133.708 L 90.4882,-133.744
 L 90.5033,-133.849 L 90.5488,-133.934 L 90.6245,-134.001 L 90.7305,-134.048 L 90.8668,-134.077 L 91.0334,-134.086
 L 91.1155,-134.084 L 91.1911,-134.076 L 91.26,-134.063 L 91.3223,-134.045 L 91.378,-134.021 L 91.427,-133.993
 L 91.4702,-133.959 L 91.5083,-133.92 L 91.5412,-133.876 L 91.569,-133.827 L 91.5916,-133.773 L 91.6091,-133.714
 L 92.191,-133.793 L 92.1599,-133.915 L 92.1183,-134.025 L 92.0661,-134.123 L 92.0033,-134.209 L 91.93,-134.283
 L 91.8461,-134.345 L 91.7496,-134.395 L 91.6383,-134.437 L 91.5122,-134.47 L 91.3714,-134.493 L 91.2159,-134.507
 L 91.0456,-134.511 L 90.8672,-134.506 L 90.7035,-134.488 L 90.5546,-134.46 L 90.4204,-134.42 L 90.3009,-134.368
 L 90.1963,-134.305 L 90.1071,-134.231 L 90.0341,-134.147 L 89.9773,-134.053 L 89.9368,-133.949 L 89.9124,-133.834
 L 89.9043,-133.71 L 89.9054,-133.66 L 89.9087,-133.612 L 89.9142,-133.566 L 89.922,-133.522 L 89.9319,-133.48
 L 89.944,-133.439 L 89.9581,-133.401 L 89.9739,-133.364 L 89.9915,-133.329 L 90.0109,-133.295 L 90.032,-133.264
 L 90.0548,-133.234 L 90.0794,-133.205 L 90.1057,-133.178 L 90.1337,-133.153 L 90.1633,-133.128 L 90.1947,-133.106
 L 90.2278,-133.084 L 90.2623,-133.064 L 90.2983,-133.045 L 90.3356,-133.026 L 90.3742,-133.009 L 90.4142,-132.992
 L 90.4556,-132.976 L 90.5031,-132.96 L 90.5614,-132.943 L 90.6306,-132.923 L 90.7106,-132.902 L 90.8015,-132.88
 L 90.9032,-132.855 L 91.0206,-132.831 L 91.1246,-132.808 L 91.2152,-132.786 L 91.2924,-132.765 L 91.3563,-132.745
 L 91.4067,-132.727 L 91.4488,-132.709 L 91.4876,-132.689 L 91.5232,-132.668 L 91.5554,-132.645 L 91.5844,-132.621
 L 91.6101,-132.595 L 91.6322,-132.567 L 91.6503,-132.537 L 91.6643,-132.505 L 91.6743,-132.47 L 91.6804,-132.433
 L 91.6824,-132.394 L 91.6649,-132.277 L 91.6125,-132.181 L 91.5252,-132.107 L 91.403,-132.054 L 91.2458,-132.022
 L 91.0537,-132.011 L 90.9564,-132.014 L 90.8664,-132.023 L 90.7837,-132.037 L 90.7083,-132.057 L 90.6404,-132.082
 L 90.5797,-132.114 L 90.5259,-132.152 L 90.4782,-132.196 L 90.4368,-132.248 L 90.4016,-132.306 L 90.3726,-132.372
 L 90.3499,-132.444 L 89.7701,-132.349 L 89.8061,-132.222 L 89.8546,-132.107 L 89.9155,-132.002 L 89.9889,-131.909
 L 90.0746,-131.828 L 90.1729,-131.757 L 90.2839,-131.697 L 90.4082,-131.648 L 90.5457,-131.61 L 90.6964,-131.583
 L 90.8603,-131.567 L 91.0375,-131.562 z
M 96.384,-131.561 L 96.5281,-131.58 L 96.6597,-131.61 L 96.779,-131.653 L 96.8858,-131.708 L 96.9801,-131.775
 L 97.0609,-131.853 L 97.1271,-131.942 L 97.1785,-132.041 L 97.2152,-132.149 L 97.2373,-132.268 L 97.2446,-132.398
 L 97.2397,-132.487 L 97.2248,-132.571 L 97.2001,-132.65 L 97.1655,-132.723 L 97.121,-132.79 L 97.0666,-132.852
 L 97.0031,-132.908 L 96.9311,-132.955 L 96.8507,-132.995 L 96.7619,-133.028 L 96.6647,-133.052 L 96.5591,-133.069
 L 96.5591,-133.077 L 96.6542,-133.099 L 96.7416,-133.128 L 96.8212,-133.163 L 96.8931,-133.205 L 96.9573,-133.253
 L 97.0137,-133.307 L 97.0619,-133.367 L 97.1013,-133.433 L 97.132,-133.504 L 97.1539,-133.58 L 97.167,-133.662
 L 97.1714,-133.748 L 97.1643,-133.863 L 97.1432,-133.97 L 97.1081,-134.068 L 97.0588,-134.157 L 96.9955,-134.237
 L 96.9181,-134.309 L 96.8282,-134.371 L 96.7274,-134.421 L 96.6157,-134.461 L 96.4931,-134.489 L 96.3596,-134.506
 L 96.2152,-134.511 L 96.0786,-134.506 L 95.951,-134.488 L 95.8322,-134.459 L 95.7224,-134.418 L 95.6216,-134.366
 L 95.5296,-134.302 L 95.4482,-134.227 L 95.3789,-134.144 L 95.3216,-134.052 L 95.2765,-133.951 L 95.2434,-133.841
 L 95.2225,-133.722 L 95.7941,-133.681 L 95.8021,-133.739 L 95.8152,-133.792 L 95.8335,-133.84 L 95.8569,-133.884
 L 95.8855,-133.923 L 95.9192,-133.958 L 95.9574,-133.988 L 95.9993,-134.012 L 96.0451,-134.031 L 96.0946,-134.045
 L 96.1479,-134.053 L 96.205,-134.056 L 96.2656,-134.053 L 96.3211,-134.044 L 96.3716,-134.03 L 96.4171,-134.011
 L 96.4575,-133.986 L 96.4929,-133.955 L 96.5231,-133.919 L 96.5477,-133.879 L 96.5669,-133.835 L 96.5806,-133.787
 L 96.5889,-133.734 L 96.5916,-133.677 L 96.5882,-133.617 L 96.5778,-133.562 L 96.5606,-133.512 L 96.5364,-133.466
 L 96.5054,-133.425 L 96.4675,-133.389 L 96.4227,-133.359 L 96.3712,-133.333 L 96.3129,-133.314 L 96.2478,-133.3
 L 96.1759,-133.291 L 96.0972,-133.289 L 95.9101,-133.289 L 95.9101,-132.827 L 96.1094,-132.827 L 96.1966,-132.824
 L 96.2763,-132.816 L 96.3485,-132.801 L 96.4132,-132.782 L 96.4705,-132.756 L 96.5204,-132.725 L 96.5627,-132.689
 L 96.5972,-132.647 L 96.6241,-132.601 L 96.6433,-132.55 L 96.6549,-132.493 L 96.6587,-132.432 L 96.6555,-132.365
 L 96.646,-132.305 L 96.6302,-132.25 L 96.6081,-132.201 L 96.5796,-132.158 L 96.5448,-132.121 L 96.5043,-132.09
 L 96.4586,-132.064 L 96.408,-132.045 L 96.3522,-132.031 L 96.2913,-132.022 L 96.2254,-132.019 L 96.0971,-132.031
 L 95.9887,-132.065 L 95.9004,-132.122 L 95.8321,-132.203 L 95.7838,-132.306 L 95.7555,-132.432 L 95.1736,-132.381
 L 95.1955,-132.253 L 95.2299,-132.135 L 95.2769,-132.028 L 95.3364,-131.931 L 95.4084,-131.844 L 95.493,-131.768
 L 95.5892,-131.703 L 95.6958,-131.65 L 95.8129,-131.609 L 95.9406,-131.579 L 96.0788,-131.561 L 96.2274,-131.555
 z
M 99.4913,-132.072 L 98.1608,-132.072 L 98.1815,-132.116 L 98.2055,-132.158 L 98.2328,-132.2 L 98.2635,-132.241
 L 98.2974,-132.281 L 98.3348,-132.32 L 98.3745,-132.359 L 98.4156,-132.397 L 98.4581,-132.436 L 98.502,-132.474
 L 98.5474,-132.512 L 98.5941,-132.55 L 98.6419,-132.588 L 98.7388,-132.666 L 98.8378,-132.744 L 98.8881,-132.784
 L 98.9379,-132.825 L 98.9861,-132.866 L 99.0328,-132.909 L 99.078,-132.952 L 99.1217,-132.996 L 99.1638,-133.041
 L 99.2039,-133.088 L 99.2415,-133.136 L 99.2767,-133.185 L 99.3094,-133.236 L 99.3395,-133.288 L 99.3672,-133.342
 L 99.3915,-133.397 L 99.4113,-133.454 L 99.4267,-133.514 L 99.4377,-133.576 L 99.4444,-133.64 L 99.4466,-133.706
 L 99.4397,-133.828 L 99.419,-133.942 L 99.3845,-134.045 L 99.3363,-134.14 L 99.2742,-134.224 L 99.1984,-134.3
 L 99.1096,-134.364 L 99.009,-134.417 L 98.8963,-134.458 L 98.7716,-134.488 L 98.635,-134.505 L 98.4863,-134.511
 L 98.3483,-134.506 L 98.2202,-134.488 L 98.1021,-134.459 L 97.994,-134.418 L 97.896,-134.366 L 97.8079,-134.302
 L 97.7304,-134.227 L 97.664,-134.141 L 97.6088,-134.045 L 97.5647,-133.938 L 97.5317,-133.821 L 97.5098,-133.694
 L 98.0856,-133.661 L 98.097,-133.724 L 98.1121,-133.782 L 98.1311,-133.834 L 98.1538,-133.88 L 98.1804,-133.921
 L 98.2107,-133.957 L 98.2453,-133.987 L 98.2847,-134.012 L 98.3289,-134.031 L 98.378,-134.045 L 98.4318,-134.053
 L 98.4904,-134.056 L 98.6054,-134.045 L 98.6995,-134.014 L 98.7727,-133.962 L 98.8249,-133.889 L 98.8563,-133.796
 L 98.8668,-133.681 L 98.8634,-133.63 L 98.8533,-133.579 L 98.8365,-133.527 L 98.813,-133.475 L 98.7827,-133.423
 L 98.7457,-133.37 L 98.7004,-133.315 L 98.645,-133.255 L 98.5797,-133.19 L 98.5043,-133.12 L 98.4189,-133.046
 L 98.3236,-132.967 L 98.2221,-132.883 L 98.1266,-132.8 L 98.037,-132.718 L 97.9533,-132.637 L 97.8756,-132.558
 L 97.8038,-132.479 L 97.7376,-132.401 L 97.6767,-132.322 L 97.621,-132.242 L 97.5705,-132.162 L 97.5254,-132.081
 L 97.4854,-131.999 L 97.4854,-131.602 L 99.4913,-131.602 z
M 93.2429,-132.611 L 93.9549,-132.611 L 94.0602,-132.615 L 94.1607,-132.624 L 94.2562,-132.641 L 94.3468,-132.664
 L 94.4325,-132.694 L 94.5133,-132.73 L 94.5886,-132.773 L 94.6579,-132.821 L 94.7211,-132.874 L 94.7782,-132.933
 L 94.8293,-132.997 L 94.8744,-133.067 L 94.9129,-133.141 L 94.9445,-133.219 L 94.969,-133.299 L 94.9865,-133.383
 L 94.9971,-133.471 L 95.0005,-133.561 L 94.9928,-133.7 L 94.9697,-133.828 L 94.9311,-133.946 L 94.8771,-134.052
 L 94.8077,-134.147 L 94.7228,-134.232 L 94.6237,-134.304 L 94.5114,-134.363 L 94.3859,-134.409 L 94.2473,-134.442
 L 94.0955,-134.462 L 93.9305,-134.469 L 92.6427,-134.469 L 92.6427,-131.602 L 93.2429,-131.602 z
M 93.2429,-133.073 L 93.2429,-134.003 L 93.8633,-134.003 L 94.0262,-133.99 L 94.1595,-133.953 L 94.2631,-133.89
 L 94.3371,-133.802 L 94.3815,-133.689 L 94.3964,-133.551 L 94.3926,-133.477 L 94.3814,-133.409 L 94.3628,-133.346
 L 94.3367,-133.29 L 94.3031,-133.24 L 94.2621,-133.196 L 94.2142,-133.158 L 94.1599,-133.128 L 94.0993,-133.104
 L 94.0324,-133.087 L 93.9592,-133.076 L 93.8796,-133.073 z
M 89.5522,-132.066 L 87.8149,-132.066 L 87.8149,-132.821 L 89.3447,-132.821 L 89.3447,-133.285 L 87.8149,-133.285
 L 87.8149,-134.005 L 89.4688,-134.005 L 89.4688,-134.469 L 87.2147,-134.469 L 87.2147,-131.602 L 89.5522,-131.602
 z
M 61.5981,-73.6595 L 61.7263,-73.6735 L 61.8488,-73.6968 L 61.9655,-73.7295 L 62.0766,-73.7715 L 62.182,-73.8228
 L 62.2806,-73.883 L 62.3712,-73.9514 L 62.454,-74.0281 L 62.5288,-74.1131 L 62.5958,-74.2064 L 62.6548,-74.308
 L 62.7053,-74.4164 L 62.7466,-74.5305 L 62.7787,-74.6502 L 62.8016,-74.7755 L 62.8154,-74.9063 L 62.82,-75.0428
 L 62.81,-75.2472 L 62.7802,-75.4366 L 62.7305,-75.611 L 62.6609,-75.7702 L 62.5714,-75.9143 L 62.4621,-76.0434
 L 62.335,-76.1548 L 62.1926,-76.2459 L 62.0346,-76.3168 L 61.8612,-76.3674 L 61.6724,-76.3978 L 61.4681,-76.408
 L 61.2638,-76.3979 L 61.075,-76.3679 L 60.9018,-76.3178 L 60.744,-76.2476 L 60.6018,-76.1574 L 60.475,-76.0472
 L 60.366,-75.9191 L 60.2767,-75.7752 L 60.2073,-75.6157 L 60.1577,-75.4404 L 60.128,-75.2495 L 60.1181,-75.0428
 L 60.128,-74.8352 L 60.1578,-74.6429 L 60.2076,-74.4658 L 60.2771,-74.3039 L 60.3666,-74.1573 L 60.476,-74.026
 L 60.6029,-73.9126 L 60.7449,-73.8198 L 60.902,-73.7476 L 61.0743,-73.696 L 61.2617,-73.6651 L 61.4643,-73.6548
 z
M 61.3476,-74.1023 L 61.2395,-74.1234 L 61.1398,-74.1587 L 61.0487,-74.2079 L 60.966,-74.2713 L 60.8918,-74.3488
 L 60.8277,-74.4385 L 60.7753,-74.5385 L 60.7345,-74.649 L 60.7053,-74.7699 L 60.6878,-74.9011 L 60.682,-75.0428
 L 60.6877,-75.183 L 60.7048,-75.3125 L 60.7333,-75.4313 L 60.7731,-75.5394 L 60.8244,-75.6368 L 60.8871,-75.7234
 L 60.9602,-75.798 L 61.0428,-75.859 L 61.1348,-75.9064 L 61.2364,-75.9403 L 61.3475,-75.9607 L 61.4681,-75.9674
 L 61.5869,-75.9606 L 61.6966,-75.9401 L 61.797,-75.906 L 61.8883,-75.8582 L 61.9705,-75.7967 L 62.0434,-75.7215
 L 62.1061,-75.6344 L 62.1573,-75.5368 L 62.1972,-75.4289 L 62.2257,-75.3106 L 62.2428,-75.1819 L 62.2485,-75.0428
 L 62.2428,-74.8973 L 62.2258,-74.7632 L 62.1974,-74.6407 L 62.1577,-74.5297 L 62.1067,-74.4302 L 62.0444,-74.3421
 L 61.9715,-74.2667 L 61.8892,-74.205 L 61.7973,-74.157 L 61.6958,-74.1227 L 61.5848,-74.1021 L 61.4643,-74.0953
 z
M 56.1213,-73.66 L 56.253,-73.6758 L 56.3781,-73.702 L 56.4964,-73.7388 L 56.608,-73.786 L 56.713,-73.8437
 L 56.8104,-73.9122 L 56.8998,-73.9917 L 56.9809,-74.0822 L 57.0539,-74.1838 L 57.1187,-74.2964 L 57.1753,-74.42
 L 56.6873,-74.6042 L 56.6129,-74.4487 L 56.5213,-74.3215 L 56.4125,-74.2225 L 56.2865,-74.1518 L 56.1433,-74.1094
 L 55.9829,-74.0953 L 55.8606,-74.102 L 55.7484,-74.1223 L 55.6461,-74.1561 L 55.5538,-74.2033 L 55.4714,-74.2641
 L 55.399,-74.3383 L 55.3372,-74.4254 L 55.2867,-74.5246 L 55.2474,-74.636 L 55.2193,-74.7594 L 55.2024,-74.895
 L 55.1968,-75.0428 L 55.2023,-75.188 L 55.2186,-75.321 L 55.2459,-75.442 L 55.2841,-75.5508 L 55.3333,-75.6474
 L 55.3933,-75.732 L 55.4639,-75.8039 L 55.5447,-75.8628 L 55.6356,-75.9086 L 55.7368,-75.9413 L 55.8481,-75.9609
 L 55.9696,-75.9674 L 56.0507,-75.9641 L 56.1281,-75.9543 L 56.202,-75.9378 L 56.2721,-75.9147 L 56.3387,-75.885
 L 56.4016,-75.8488 L 56.4593,-75.8069 L 56.5103,-75.7605 L 56.5546,-75.7095 L 56.5923,-75.6538 L 56.6232,-75.5936
 L 56.6474,-75.5288 L 57.1411,-75.6636 L 57.0963,-75.7809 L 57.0417,-75.8882 L 56.9773,-75.9857 L 56.9031,-76.0733
 L 56.8191,-76.1511 L 56.7253,-76.219 L 56.6217,-76.2767 L 56.5084,-76.324 L 56.3854,-76.3607 L 56.2527,-76.387
 L 56.1103,-76.4027 L 55.9582,-76.408 L 55.7515,-76.3981 L 55.5618,-76.3687 L 55.389,-76.3197 L 55.2333,-76.251
 L 55.0945,-76.1627 L 54.9727,-76.0548 L 54.8689,-75.9286 L 54.7839,-75.7854 L 54.7178,-75.6252 L 54.6706,-75.448
 L 54.6423,-75.2539 L 54.6329,-75.0428 L 54.6427,-74.8319 L 54.672,-74.6372 L 54.7209,-74.4587 L 54.7894,-74.2964
 L 54.8775,-74.1502 L 54.9851,-74.0203 L 55.1106,-73.9086 L 55.2525,-73.8172 L 55.4106,-73.7462 L 55.5851,-73.6954
 L 55.7758,-73.6649 L 55.9829,-73.6548 z
M 178.775,-74.7781 L 179.447,-73.7129 L 180.036,-73.7129 L 179.145,-75.1198 L 179.958,-76.3882 L 179.369,-76.3882
 L 178.775,-75.4426 L 178.18,-76.3882 L 177.588,-76.3882 L 178.437,-75.1198 L 177.51,-73.7129 L 178.103,-73.7129
 z
M 176.289,-73.6827 L 176.458,-73.706 L 176.612,-73.7449 L 176.752,-73.7994 L 176.878,-73.8694 L 176.99,-73.955
 L 177.086,-74.0547 L 177.165,-74.1671 L 177.226,-74.2922 L 177.269,-74.4301 L 177.296,-74.5806 L 177.304,-74.7439
 L 177.304,-76.3882 L 176.744,-76.3882 L 176.744,-74.7781 L 176.74,-74.6753 L 176.726,-74.5807 L 176.704,-74.4945
 L 176.672,-74.4165 L 176.632,-74.3468 L 176.583,-74.2853 L 176.525,-74.2328 L 176.46,-74.1899 L 176.387,-74.1565
 L 176.306,-74.1326 L 176.218,-74.1183 L 176.121,-74.1135 L 176.028,-74.1181 L 175.942,-74.1318 L 175.864,-74.1546
 L 175.794,-74.1865 L 175.732,-74.2276 L 175.678,-74.2778 L 175.632,-74.3367 L 175.594,-74.4042 L 175.565,-74.4802
 L 175.544,-74.5647 L 175.531,-74.6577 L 175.527,-74.7591 L 175.527,-76.3882 L 174.967,-76.3882 L 174.967,-74.7154
 L 174.975,-74.5548 L 175,-74.407 L 175.04,-74.2721 L 175.097,-74.15 L 175.171,-74.0408 L 175.26,-73.9445
 L 175.365,-73.8622 L 175.485,-73.7947 L 175.619,-73.7423 L 175.767,-73.7049 L 175.929,-73.6824 L 176.106,-73.6749
 z
M 172.885,-74.3965 L 173.905,-74.3965 L 174.142,-73.7129 L 174.697,-73.7129 L 173.724,-76.3882 L 173.064,-76.3882
 L 172.088,-73.7129 L 172.648,-73.7129 z
M 173.01,-74.818 L 173.103,-75.0872 L 173.18,-75.3129 L 173.242,-75.4949 L 173.289,-75.6331 L 173.321,-75.7278
 L 173.337,-75.7787 L 173.346,-75.8073 L 173.354,-75.8348 L 173.362,-75.8613 L 173.369,-75.8867 L 173.376,-75.9111
 L 173.383,-75.9344 L 173.394,-75.9762 L 173.434,-75.8452 L 173.516,-75.5869 L 173.779,-74.818 z
M 58.0362,-74.7086 L 58.6932,-74.7086 L 59.3141,-73.6928 L 59.9445,-73.6928 L 59.2211,-74.8168 L 59.3084,-74.8422
 L 59.3896,-74.8754 L 59.4646,-74.9163 L 59.5333,-74.9649 L 59.5958,-75.0213 L 59.6521,-75.0855 L 59.7008,-75.1556
 L 59.7407,-75.2301 L 59.7717,-75.3088 L 59.7939,-75.3918 L 59.8071,-75.4791 L 59.8116,-75.5706 L 59.8044,-75.6941
 L 59.7827,-75.8076 L 59.7465,-75.9112 L 59.696,-76.0048 L 59.6309,-76.0884 L 59.5514,-76.1621 L 59.4586,-76.225
 L 59.3537,-76.2765 L 59.2367,-76.3166 L 59.1075,-76.3452 L 58.9662,-76.3624 L 58.8128,-76.3681 L 57.4761,-76.3681
 L 57.4761,-73.6928 L 58.0362,-73.6928 z
M 58.0362,-75.1434 L 58.0362,-75.9333 L 58.754,-75.9333 L 58.9048,-75.9226 L 59.0282,-75.8904 L 59.1242,-75.8369
 L 59.1928,-75.762 L 59.2339,-75.6656 L 59.2476,-75.5478 L 59.2442,-75.4863 L 59.2341,-75.4295 L 59.2172,-75.3774
 L 59.1936,-75.3301 L 59.1632,-75.2875 L 59.1261,-75.2497 L 59.0824,-75.2172 L 59.0324,-75.1906 L 58.9761,-75.17
 L 58.9135,-75.1552 L 58.8445,-75.1463 L 58.7692,-75.1434 z
M 49.6545,-76.3681 L 49.0754,-76.3681 L 48.5267,-74.6497 L 48.4298,-74.308 L 48.39,-74.1447 L 48.3613,-74.2526
 L 48.3347,-74.351 L 48.3102,-74.4399 L 48.2878,-74.5193 L 48.2676,-74.5893 L 48.2495,-74.6497 L 47.6988,-76.3681
 L 47.114,-76.3681 L 48.1033,-73.6928 L 48.671,-73.6928 z
M 52.0623,-74.1257 L 50.4408,-74.1257 L 50.4408,-74.8301 L 51.8686,-74.8301 L 51.8686,-75.263 L 50.4408,-75.263
 L 50.4408,-75.9352 L 51.9845,-75.9352 L 51.9845,-76.3681 L 49.8806,-76.3681 L 49.8806,-73.6928 L 52.0623,-73.6928
 z
M 54.4093,-74.1257 L 52.9738,-74.1257 L 52.9738,-76.3681 L 52.4137,-76.3681 L 52.4137,-73.6928 L 54.4093,-73.6928
 z
M 143.209,-69.6606 L 143.374,-69.6779 L 143.524,-69.7068 L 143.659,-69.7472 L 143.779,-69.7992 L 143.884,-69.8627
 L 143.973,-69.9371 L 144.046,-70.0219 L 144.102,-70.1169 L 144.143,-70.2222 L 144.167,-70.3378 L 144.175,-70.4637
 L 144.174,-70.5183 L 144.17,-70.5707 L 144.162,-70.621 L 144.152,-70.6691 L 144.14,-70.7151 L 144.124,-70.7589
 L 144.106,-70.8006 L 144.085,-70.8403 L 144.061,-70.8781 L 144.035,-70.9138 L 144.007,-70.9475 L 143.976,-70.9792
 L 143.942,-71.0092 L 143.904,-71.038 L 143.862,-71.0655 L 143.816,-71.0918 L 143.766,-71.1168 L 143.713,-71.1405
 L 143.651,-71.164 L 143.578,-71.1881 L 143.492,-71.2129 L 143.394,-71.2384 L 143.284,-71.2646 L 143.161,-71.2915
 L 143.059,-71.3142 L 142.969,-71.3357 L 142.891,-71.3558 L 142.825,-71.3746 L 142.772,-71.3921 L 142.73,-71.4082
 L 142.696,-71.4243 L 142.665,-71.4415 L 142.637,-71.4598 L 142.612,-71.4791 L 142.589,-71.4996 L 142.57,-71.5212
 L 142.553,-71.5444 L 142.54,-71.5698 L 142.529,-71.5972 L 142.522,-71.6267 L 142.517,-71.6584 L 142.516,-71.6921
 L 142.53,-71.7896 L 142.572,-71.8694 L 142.643,-71.9314 L 142.742,-71.9757 L 142.869,-72.0023 L 143.025,-72.0111
 L 143.101,-72.0087 L 143.172,-72.0014 L 143.236,-71.9893 L 143.294,-71.9723 L 143.346,-71.9505 L 143.392,-71.9238
 L 143.432,-71.8923 L 143.468,-71.856 L 143.499,-71.8151 L 143.525,-71.7693 L 143.546,-71.7189 L 143.562,-71.6636
 L 144.105,-71.7377 L 144.076,-71.8517 L 144.037,-71.9544 L 143.988,-72.0458 L 143.93,-72.1259 L 143.861,-72.1947
 L 143.783,-72.2522 L 143.693,-72.2998 L 143.589,-72.3388 L 143.472,-72.369 L 143.34,-72.3907 L 143.195,-72.4036
 L 143.036,-72.408 L 142.869,-72.4026 L 142.717,-72.3866 L 142.578,-72.3598 L 142.452,-72.3223 L 142.341,-72.2741
 L 142.243,-72.2152 L 142.16,-72.1463 L 142.092,-72.0679 L 142.039,-71.98 L 142.001,-71.8827 L 141.978,-71.776
 L 141.971,-71.6599 L 141.972,-71.6133 L 141.975,-71.5685 L 141.98,-71.5255 L 141.987,-71.4843 L 141.997,-71.4449
 L 142.008,-71.4073 L 142.021,-71.3714 L 142.036,-71.3371 L 142.052,-71.3043 L 142.07,-71.2731 L 142.09,-71.2436
 L 142.111,-71.2155 L 142.134,-71.189 L 142.159,-71.1638 L 142.185,-71.1398 L 142.213,-71.1172 L 142.242,-71.0959
 L 142.273,-71.076 L 142.305,-71.0571 L 142.339,-71.039 L 142.373,-71.0219 L 142.409,-71.0055 L 142.447,-70.99
 L 142.485,-70.9754 L 142.53,-70.9604 L 142.584,-70.9438 L 142.649,-70.9258 L 142.723,-70.9062 L 142.808,-70.8851
 L 142.903,-70.8624 L 143.013,-70.8396 L 143.11,-70.8179 L 143.194,-70.7973 L 143.266,-70.778 L 143.326,-70.7598
 L 143.373,-70.7428 L 143.412,-70.7256 L 143.449,-70.7071 L 143.482,-70.6872 L 143.512,-70.666 L 143.539,-70.6433
 L 143.563,-70.6193 L 143.583,-70.5936 L 143.6,-70.5656 L 143.613,-70.5353 L 143.623,-70.5029 L 143.628,-70.4682
 L 143.63,-70.4314 L 143.614,-70.3223 L 143.565,-70.233 L 143.484,-70.1636 L 143.37,-70.1141 L 143.223,-70.0843
 L 143.044,-70.0744 L 142.953,-70.0771 L 142.869,-70.0851 L 142.792,-70.0984 L 142.721,-70.117 L 142.658,-70.141
 L 142.601,-70.1703 L 142.551,-70.2055 L 142.506,-70.2472 L 142.468,-70.2954 L 142.435,-70.35 L 142.408,-70.4112
 L 142.387,-70.4788 L 141.846,-70.3896 L 141.879,-70.2714 L 141.924,-70.1637 L 141.981,-70.0663 L 142.05,-69.9795
 L 142.13,-69.903 L 142.221,-69.8371 L 142.325,-69.7814 L 142.441,-69.7358 L 142.569,-69.7004 L 142.71,-69.675
 L 142.863,-69.6599 L 143.028,-69.6548 z
M 140.546,-69.6626 L 140.715,-69.6859 L 140.869,-69.7248 L 141.01,-69.7793 L 141.136,-69.8493 L 141.248,-69.9348
 L 141.344,-70.0346 L 141.422,-70.147 L 141.483,-70.2721 L 141.527,-70.4099 L 141.553,-70.5605 L 141.562,-70.7238
 L 141.562,-72.3681 L 141.002,-72.3681 L 141.002,-70.758 L 140.997,-70.6551 L 140.984,-70.5606 L 140.961,-70.4743
 L 140.93,-70.3963 L 140.89,-70.3266 L 140.84,-70.2652 L 140.783,-70.2127 L 140.717,-70.1698 L 140.644,-70.1363
 L 140.563,-70.1125 L 140.475,-70.0982 L 140.379,-70.0934 L 140.285,-70.0979 L 140.2,-70.1116 L 140.122,-70.1344
 L 140.052,-70.1664 L 139.99,-70.2074 L 139.936,-70.2576 L 139.889,-70.3166 L 139.852,-70.3841 L 139.822,-70.4601
 L 139.801,-70.5446 L 139.789,-70.6375 L 139.785,-70.739 L 139.785,-72.3681 L 139.224,-72.3681 L 139.224,-70.6953
 L 139.233,-70.5347 L 139.257,-70.3869 L 139.298,-70.252 L 139.355,-70.1299 L 139.428,-70.0207 L 139.518,-69.9244
 L 139.623,-69.842 L 139.742,-69.7746 L 139.876,-69.7222 L 140.024,-69.6848 L 140.187,-69.6623 L 140.364,-69.6548
 z
M 146.021,-69.6983 L 146.166,-69.7149 L 146.298,-69.7426 L 146.419,-69.7814 L 146.528,-69.8312 L 146.625,-69.8921
 L 146.708,-69.9632 L 146.777,-70.0434 L 146.83,-70.1328 L 146.868,-70.2314 L 146.891,-70.3391 L 146.898,-70.4561
 L 146.893,-70.5442 L 146.879,-70.6264 L 146.856,-70.7027 L 146.823,-70.7729 L 146.78,-70.8372 L 146.728,-70.8956
 L 146.667,-70.9474 L 146.598,-70.9921 L 146.52,-71.0297 L 146.433,-71.0602 L 146.338,-71.0835 L 146.234,-71.0997
 L 146.316,-71.1209 L 146.391,-71.1477 L 146.459,-71.1802 L 146.519,-71.2183 L 146.572,-71.262 L 146.618,-71.3114
 L 146.657,-71.3656 L 146.688,-71.4238 L 146.713,-71.4859 L 146.73,-71.5519 L 146.741,-71.6219 L 146.744,-71.6959
 L 146.737,-71.8022 L 146.716,-71.8994 L 146.681,-71.9876 L 146.633,-72.0668 L 146.57,-72.137 L 146.493,-72.1981
 L 146.402,-72.2501 L 146.299,-72.2925 L 146.182,-72.3256 L 146.051,-72.3492 L 145.908,-72.3634 L 145.751,-72.3681
 L 144.527,-72.3681 L 144.527,-69.6928 L 145.865,-69.6928 z
M 145.087,-71.2896 L 145.087,-71.9523 L 145.725,-71.9523 L 145.797,-71.9501 L 145.863,-71.9438 L 145.923,-71.9333
 L 145.977,-71.9185 L 146.024,-71.8995 L 146.066,-71.8763 L 146.101,-71.8481 L 146.129,-71.8141 L 146.152,-71.7742
 L 146.168,-71.7286 L 146.177,-71.6772 L 146.18,-71.62 L 146.177,-71.5672 L 146.169,-71.519 L 146.154,-71.4754
 L 146.133,-71.4364 L 146.106,-71.402 L 146.073,-71.3722 L 146.034,-71.3469 L 145.987,-71.3263 L 145.933,-71.3102
 L 145.872,-71.2988 L 145.804,-71.2919 L 145.729,-71.2896 z
M 145.087,-70.1086 L 145.087,-70.8757 L 145.797,-70.8757 L 145.962,-70.8652 L 146.097,-70.8339 L 146.201,-70.7817
 L 146.276,-70.7086 L 146.321,-70.6146 L 146.336,-70.4997 L 146.333,-70.4373 L 146.322,-70.3802 L 146.305,-70.3286
 L 146.281,-70.2824 L 146.25,-70.2417 L 146.212,-70.2064 L 146.166,-70.1765 L 146.113,-70.152 L 146.051,-70.133
 L 145.981,-70.1194 L 145.904,-70.1113 L 145.818,-70.1086 z
M 96,-39 L 14,-39 L 14,-24.5744 L 13.9304,-24.5633 L 13.7323,-24.506 L 13.5521,-24.4258
 L 13.3895,-24.3228 L 13.2446,-24.1968 L 13.12,-24.0504 L 13.018,-23.886 L 12.9387,-23.7037 L 12.882,-23.5034
 L 12.848,-23.2851 L 12.8367,-23.0489 L 12.848,-22.8117 L 12.8821,-22.5918 L 12.9389,-22.3895 L 13.0185,-22.2045
 L 13.1207,-22.037 L 13.2457,-21.8868 L 13.3907,-21.7572 L 13.553,-21.6512 L 13.7326,-21.5687 L 13.9295,-21.5098
 L 14,-21.4981 L 14,-7 L 96,-7 z
M 14.4,-7.40001 L 14.4,-21.4635 L 14.5282,-21.468 L 14.6747,-21.4839 L 14.8146,-21.5106 L 14.9481,-21.548
 L 15.075,-21.596 L 15.1954,-21.6546 L 15.3081,-21.7234 L 15.4117,-21.8016 L 15.5063,-21.8893 L 15.5918,-21.9864
 L 15.6683,-22.093 L 15.7358,-22.2091 L 15.7935,-22.3331 L 15.8407,-22.4635 L 15.8774,-22.6002 L 15.9036,-22.7434
 L 15.9193,-22.8929 L 15.9246,-23.0489 L 15.9132,-23.2826 L 15.8791,-23.499 L 15.8223,-23.6982 L 15.7428,-23.8802
 L 15.6405,-24.045 L 15.5155,-24.1925 L 15.3703,-24.3198 L 15.2075,-24.4239 L 15.027,-24.5049 L 14.8289,-24.5628
 L 14.613,-24.5975 L 14.4,-24.6081 L 14.4,-38.6 L 95.6,-38.6 L 95.6,-7.40001 z
M 16.9678,-22.667 L 17.7187,-22.667 L 18.4283,-21.506 L 19.1487,-21.506 L 18.3219,-22.7906 L 18.4218,-22.8197
 L 18.5146,-22.8576 L 18.6002,-22.9043 L 18.6788,-22.9599 L 18.7502,-23.0244 L 18.8145,-23.0977 L 18.8702,-23.1779
 L 18.9158,-23.263 L 18.9512,-23.3529 L 18.9765,-23.4478 L 18.9917,-23.5475 L 18.9968,-23.6521 L 18.9885,-23.7933
 L 18.9638,-23.923 L 18.9225,-24.0414 L 18.8647,-24.1483 L 18.7903,-24.2439 L 18.6995,-24.3281 L 18.5935,-24.4
 L 18.4736,-24.4589 L 18.3398,-24.5047 L 18.1922,-24.5374 L 18.0307,-24.557 L 17.8554,-24.5635 L 16.3277,-24.5635
 L 16.3277,-21.506 L 16.9678,-21.506 z
M 16.9678,-23.1639 L 16.9678,-24.0666 L 17.7881,-24.0666 L 17.9605,-24.0544 L 18.1015,-24.0177 L 18.2112,-23.9565
 L 18.2896,-23.8708 L 18.3366,-23.7607 L 18.3523,-23.6261 L 18.3484,-23.5557 L 18.3369,-23.4908 L 18.3176,-23.4313
 L 18.2906,-23.3773 L 18.2558,-23.3286 L 18.2134,-23.2854 L 18.1635,-23.2483 L 18.1064,-23.2179 L 18.042,-23.1943
 L 17.9704,-23.1774 L 17.8915,-23.1673 L 17.8055,-23.1639 z
M 14.4,-24.1045 L 14.5154,-24.0978 L 14.6407,-24.0744 L 14.7555,-24.0354 L 14.8598,-23.9807 L 14.9537,-23.9105
 L 15.037,-23.8246 L 15.1087,-23.725 L 15.1673,-23.6135 L 15.2128,-23.4902 L 15.2454,-23.3549 L 15.2649,-23.2079
 L 15.2714,-23.0489 L 15.2649,-22.8826 L 15.2455,-22.7294 L 15.2131,-22.5894 L 15.1677,-22.4625 L 15.1094,-22.3488
 L 15.0381,-22.2482 L 14.9549,-22.162 L 14.8608,-22.0914 L 14.7558,-22.0366 L 14.6398,-21.9974 L 14.513,-21.9739
 L 14.4,-21.9675 z
M 13.9002,-22.0948 L 13.8057,-22.1672 L 13.721,-22.2557 L 13.6477,-22.3582 L 13.5878,-22.4726 L 13.5411,-22.5989
 L 13.5078,-22.737 L 13.4878,-22.887 L 13.4812,-23.0489 L 13.4877,-23.2091 L 13.5072,-23.3571 L 13.5398,-23.4929
 L 13.5853,-23.6164 L 13.6439,-23.7277 L 13.7155,-23.8268 L 13.7991,-23.912 L 13.8935,-23.9817 L 13.9987,-24.0359
 L 14,-24.0364 L 14,-22.0408 z
M 175.248,-34.6982 L 175.369,-34.7118 L 175.485,-34.7345 L 175.596,-34.7662 L 175.702,-34.807 L 175.803,-34.8569
 L 175.899,-34.9154 L 175.987,-34.9819 L 176.067,-35.0565 L 176.14,-35.1392 L 176.205,-35.2299 L 176.263,-35.3288
 L 176.313,-35.4345 L 176.353,-35.5462 L 176.385,-35.6637 L 176.407,-35.787 L 176.421,-35.9162 L 176.425,-36.0512
 L 176.415,-36.2551 L 176.384,-36.4425 L 176.333,-36.6135 L 176.261,-36.7681 L 176.168,-36.9063 L 176.055,-37.0281
 L 175.923,-37.1323 L 175.774,-37.2175 L 175.608,-37.2838 L 175.426,-37.3311 L 175.226,-37.3595 L 175.009,-37.369
 L 174.041,-37.369 L 174.041,-34.6936 L 175.123,-34.6936 z
M 174.601,-35.1265 L 174.601,-36.9361 L 174.997,-36.9361 L 175.131,-36.9297 L 175.253,-36.9108 L 175.365,-36.8793
 L 175.467,-36.8352 L 175.557,-36.7785 L 175.637,-36.7091 L 175.706,-36.6278 L 175.762,-36.5352 L 175.805,-36.4312
 L 175.837,-36.3159 L 175.855,-36.1892 L 175.861,-36.0512 L 175.856,-35.9138 L 175.838,-35.7863 L 175.808,-35.6686
 L 175.767,-35.5609 L 175.714,-35.4631 L 175.649,-35.3753 L 175.574,-35.2993 L 175.491,-35.2371 L 175.399,-35.1887
 L 175.299,-35.1542 L 175.191,-35.1335 L 175.075,-35.1265 z
M 180.985,-35.7588 L 181.657,-34.6936 L 182.246,-34.6936 L 181.356,-36.1006 L 182.168,-37.369 L 181.58,-37.369
 L 180.985,-36.4234 L 180.391,-37.369 L 179.799,-37.369 L 180.647,-36.1006 L 179.721,-34.6936 L 180.313,-34.6936
 z
M 177.281,-36.3152 L 177.28,-36.3709 L 177.278,-36.4432 L 177.275,-36.5321 L 177.27,-36.6375 L 177.265,-36.7595
 L 177.258,-36.8981 L 177.461,-36.1861 L 177.943,-34.6936 L 178.342,-34.6936 L 178.824,-36.1861 L 178.848,-36.2617
 L 178.875,-36.3546 L 178.906,-36.4647 L 178.942,-36.5919 L 178.981,-36.7364 L 179.024,-36.8981 L 179.018,-36.7689
 L 179.014,-36.6599 L 179.011,-36.571 L 179.008,-36.5023 L 179.006,-36.4537 L 179.006,-36.4253 L 179.005,-36.4069
 L 179.005,-36.3886 L 179.005,-36.3702 L 179.005,-36.3519 L 179.005,-36.3335 L 179.005,-34.6936 L 179.502,-34.6936
 L 179.502,-37.369 L 178.756,-37.369 L 178.264,-35.7987 L 178.145,-35.3696 L 178.053,-35.7285 L 178.012,-35.8728
 L 177.533,-37.369 L 176.783,-37.369 L 176.783,-34.6936 L 177.281,-34.6936 z
M 149.064,-25.9092 L 149.215,-25.9407 L 149.354,-25.9933 L 149.479,-26.0669 L 149.591,-26.1615 L 149.691,-26.2771
 L 149.776,-26.4139 L 149.846,-26.5721 L 149.9,-26.7516 L 149.939,-26.9525 L 149.962,-27.1748 L 149.97,-27.4184
 L 149.963,-27.6471 L 149.942,-27.8559 L 149.907,-28.0447 L 149.858,-28.2136 L 149.795,-28.3625 L 149.718,-28.4915
 L 149.627,-28.6006 L 149.522,-28.6898 L 149.401,-28.7593 L 149.266,-28.8089 L 149.117,-28.8386 L 148.952,-28.8485
 L 148.799,-28.8415 L 148.658,-28.8203 L 148.528,-28.7849 L 148.411,-28.7355 L 148.306,-28.6719 L 148.213,-28.5942
 L 148.133,-28.504 L 148.068,-28.4028 L 148.017,-28.2906 L 147.98,-28.1674 L 147.959,-28.0334 L 147.951,-27.8883
 L 147.958,-27.7469 L 147.976,-27.6156 L 148.007,-27.4944 L 148.05,-27.3833 L 148.106,-27.2824 L 148.174,-27.1915
 L 148.253,-27.1129 L 148.34,-27.0486 L 148.436,-26.9985 L 148.54,-26.9628 L 148.654,-26.9413 L 148.775,-26.9342
 L 148.842,-26.9366 L 148.908,-26.9438 L 148.972,-26.9558 L 149.034,-26.9726 L 149.095,-26.9942 L 149.155,-27.0206
 L 149.211,-27.0513 L 149.261,-27.0856 L 149.306,-27.1236 L 149.346,-27.1653 L 149.38,-27.2107 L 149.408,-27.2597
 L 149.403,-27.1153 L 149.391,-26.9832 L 149.373,-26.8635 L 149.347,-26.7561 L 149.314,-26.661 L 149.275,-26.5782
 L 149.229,-26.5079 L 149.176,-26.4505 L 149.118,-26.4057 L 149.053,-26.3738 L 148.983,-26.3547 L 148.906,-26.3483
 L 148.816,-26.3566 L 148.737,-26.3815 L 148.671,-26.423 L 148.615,-26.4812 L 148.572,-26.556 L 148.539,-26.6474
 L 148.002,-26.5721 L 148.036,-26.4607 L 148.076,-26.3597 L 148.123,-26.2692 L 148.177,-26.1892 L 148.238,-26.1196
 L 148.306,-26.0604 L 148.383,-26.011 L 148.468,-25.9706 L 148.562,-25.9391 L 148.665,-25.9167 L 148.778,-25.9032
 L 148.899,-25.8987 z
M 148.878,-27.3633 L 148.821,-27.3753 L 148.768,-27.3952 L 148.72,-27.4231 L 148.677,-27.459 L 148.639,-27.5028
 L 148.606,-27.5532 L 148.579,-27.6089 L 148.558,-27.6699 L 148.543,-27.7361 L 148.534,-27.8075 L 148.531,-27.8842
 L 148.534,-27.962 L 148.543,-28.034 L 148.558,-28.1001 L 148.58,-28.1604 L 148.607,-28.2149 L 148.64,-28.2636
 L 148.679,-28.3056 L 148.722,-28.3399 L 148.769,-28.3666 L 148.821,-28.3857 L 148.877,-28.3971 L 148.938,-28.401
 L 149,-28.3966 L 149.058,-28.3834 L 149.112,-28.3615 L 149.162,-28.3309 L 149.207,-28.2915 L 149.248,-28.2433
 L 149.284,-28.1877 L 149.313,-28.1261 L 149.336,-28.0584 L 149.352,-27.9847 L 149.362,-27.9049 L 149.365,-27.8191
 L 149.362,-27.7516 L 149.352,-27.6888 L 149.335,-27.6307 L 149.312,-27.5773 L 149.281,-27.5285 L 149.244,-27.4845
 L 149.202,-27.4462 L 149.157,-27.4149 L 149.108,-27.3906 L 149.055,-27.3733 L 148.999,-27.3628 L 148.94,-27.3594
 z
M 143.503,-25.9442 L 143.632,-25.9588 L 143.756,-25.9831 L 143.875,-26.0171 L 143.989,-26.0609 L 144.098,-26.1143
 L 144.2,-26.177 L 144.294,-26.2483 L 144.38,-26.3282 L 144.458,-26.4168 L 144.528,-26.514 L 144.59,-26.6199
 L 144.643,-26.7332 L 144.687,-26.8528 L 144.72,-26.9787 L 144.745,-27.1108 L 144.759,-27.2493 L 144.764,-27.3939
 L 144.753,-27.6123 L 144.72,-27.8131 L 144.665,-27.9964 L 144.588,-28.162 L 144.488,-28.3101 L 144.367,-28.4406
 L 144.226,-28.5522 L 144.066,-28.6435 L 143.889,-28.7145 L 143.693,-28.7652 L 143.479,-28.7957 L 143.246,-28.8058
 L 142.209,-28.8058 L 142.209,-25.9394 L 143.368,-25.9394 z
M 142.809,-26.4032 L 142.809,-28.342 L 143.234,-28.342 L 143.377,-28.3352 L 143.508,-28.315 L 143.628,-28.2812
 L 143.737,-28.2339 L 143.834,-28.1731 L 143.92,-28.0988 L 143.993,-28.0117 L 144.053,-27.9125 L 144.1,-27.8011
 L 144.133,-27.6775 L 144.153,-27.5418 L 144.16,-27.3939 L 144.153,-27.2467 L 144.134,-27.11 L 144.103,-26.984
 L 144.058,-26.8686 L 144.001,-26.7639 L 143.932,-26.6697 L 143.852,-26.5883 L 143.762,-26.5217 L 143.664,-26.4698
 L 143.558,-26.4328 L 143.442,-26.4106 L 143.317,-26.4032 z
M 146.749,-25.9453 L 146.903,-25.9631 L 147.045,-25.9928 L 147.175,-26.0343 L 147.291,-26.0877 L 147.395,-26.153
 L 147.485,-26.2291 L 147.558,-26.3151 L 147.615,-26.4109 L 147.656,-26.5165 L 147.68,-26.6319 L 147.688,-26.7572
 L 147.683,-26.8517 L 147.668,-26.9397 L 147.643,-27.0214 L 147.607,-27.0967 L 147.562,-27.1656 L 147.506,-27.2281
 L 147.441,-27.2837 L 147.366,-27.3316 L 147.283,-27.3718 L 147.19,-27.4044 L 147.087,-27.4295 L 146.976,-27.4468
 L 147.064,-27.4695 L 147.145,-27.4983 L 147.217,-27.5331 L 147.282,-27.5739 L 147.339,-27.6207 L 147.388,-27.6737
 L 147.429,-27.7317 L 147.463,-27.794 L 147.49,-27.8606 L 147.508,-27.9314 L 147.52,-28.0064 L 147.523,-28.0856
 L 147.516,-28.1995 L 147.493,-28.3036 L 147.456,-28.3981 L 147.404,-28.483 L 147.336,-28.5582 L 147.254,-28.6237
 L 147.157,-28.6794 L 147.046,-28.7249 L 146.92,-28.7603 L 146.781,-28.7856 L 146.627,-28.8008 L 146.459,-28.8058
 L 145.147,-28.8058 L 145.147,-25.9394 L 146.581,-25.9394 z
M 145.747,-27.6503 L 145.747,-28.3603 L 146.431,-28.3603 L 146.508,-28.358 L 146.579,-28.3512 L 146.643,-28.3399
 L 146.701,-28.3241 L 146.752,-28.3038 L 146.796,-28.2789 L 146.834,-28.2487 L 146.864,-28.2122 L 146.888,-28.1696
 L 146.905,-28.1207 L 146.916,-28.0656 L 146.919,-28.0043 L 146.916,-27.9477 L 146.906,-27.8961 L 146.89,-27.8494
 L 146.868,-27.8076 L 146.839,-27.7707 L 146.804,-27.7388 L 146.762,-27.7117 L 146.712,-27.6896 L 146.654,-27.6724
 L 146.589,-27.6601 L 146.516,-27.6527 L 146.435,-27.6503 z
M 145.747,-26.3849 L 145.747,-27.2068 L 146.508,-27.2068 L 146.685,-27.1956 L 146.829,-27.162 L 146.942,-27.1061
 L 147.022,-27.0278 L 147.07,-26.9271 L 147.086,-26.804 L 147.082,-26.737 L 147.071,-26.6759 L 147.053,-26.6206
 L 147.027,-26.5712 L 146.993,-26.5275 L 146.953,-26.4897 L 146.904,-26.4577 L 146.847,-26.4315 L 146.781,-26.4111
 L 146.706,-26.3965 L 146.623,-26.3878 L 146.531,-26.3849 z
M 2.5213,-21.4692 L 2.71019,-21.489 L 2.88176,-21.522 L 3.03604,-21.5682 L 3.17302,-21.6276 L 3.29269,-21.7002
 L 3.39449,-21.7853 L 3.47777,-21.8821 L 3.54254,-21.9907 L 3.58881,-22.1111 L 3.61656,-22.2432 L 3.62582,-22.387
 L 3.62419,-22.4494 L 3.61931,-22.5094 L 3.61118,-22.5668 L 3.59978,-22.6219 L 3.58513,-22.6744 L 3.56723,-22.7244
 L 3.54625,-22.7721 L 3.52238,-22.8175 L 3.49561,-22.8606 L 3.46596,-22.9014 L 3.4334,-22.94 L 3.39795,-22.9762
 L 3.35886,-23.0105 L 3.31537,-23.0434 L 3.26749,-23.0749 L 3.21519,-23.1049 L 3.15849,-23.1335 L 3.0974,-23.1606
 L 3.02716,-23.1874 L 2.94298,-23.215 L 2.84488,-23.2433 L 2.73286,-23.2725 L 2.6069,-23.3024 L 2.46704,-23.3331
 L 2.35028,-23.3591 L 2.24738,-23.3836 L 2.15834,-23.4066 L 2.08318,-23.4281 L 2.02187,-23.4481 L 1.97443,-23.4666
 L 1.93558,-23.4849 L 1.90005,-23.5045 L 1.86783,-23.5254 L 1.83893,-23.5476 L 1.81334,-23.571 L 1.79106,-23.5957
 L 1.77217,-23.6222 L 1.75671,-23.6512 L 1.74471,-23.6825 L 1.73611,-23.7163 L 1.73096,-23.7524 L 1.72925,-23.791
 L 1.74539,-23.9024 L 1.79387,-23.9935 L 1.87463,-24.0644 L 1.98772,-24.1151 L 2.1331,-24.1454 L 2.31081,-24.1556
 L 2.39842,-24.1528 L 2.47897,-24.1445 L 2.55249,-24.1306 L 2.61894,-24.1112 L 2.67833,-24.0862 L 2.73068,-24.0557
 L 2.77676,-24.0197 L 2.81737,-23.9783 L 2.85248,-23.9315 L 2.88211,-23.8792 L 2.90625,-23.8215 L 2.9249,-23.7584
 L 3.54553,-23.8431 L 3.51241,-23.9733 L 3.468,-24.0907 L 3.41234,-24.1952 L 3.3454,-24.2867 L 3.26718,-24.3654
 L 3.17769,-24.4311 L 3.07471,-24.4855 L 2.95599,-24.53 L 2.82155,-24.5646 L 2.67137,-24.5893 L 2.50545,-24.6042
 L 2.32381,-24.6091 L 2.13348,-24.603 L 1.95889,-24.5846 L 1.80003,-24.554 L 1.65691,-24.5112 L 1.52951,-24.4561
 L 1.41785,-24.3888 L 1.32271,-24.31 L 1.24486,-24.2204 L 1.18431,-24.12 L 1.14105,-24.0089 L 1.11511,-23.8869
 L 1.10646,-23.7541 L 1.10764,-23.7009 L 1.11116,-23.6497 L 1.11703,-23.6006 L 1.12526,-23.5535 L 1.13583,-23.5085
 L 1.14876,-23.4655 L 1.1638,-23.4245 L 1.18071,-23.3852 L 1.19948,-23.3478 L 1.22012,-23.3122 L 1.24263,-23.2784
 L 1.267,-23.2463 L 1.29323,-23.216 L 1.32126,-23.1871 L 1.3511,-23.1598 L 1.38274,-23.134 L 1.4162,-23.1096
 L 1.45145,-23.0868 L 1.48834,-23.0652 L 1.52669,-23.0446 L 1.56647,-23.025 L 1.6077,-23.0063 L 1.65038,-22.9886
 L 1.69449,-22.9718 L 1.74513,-22.9547 L 1.80734,-22.9358 L 1.88113,-22.9152 L 1.96649,-22.8928 L 2.06343,-22.8686
 L 2.17194,-22.8427 L 2.29715,-22.8166 L 2.40808,-22.7919 L 2.50475,-22.7684 L 2.58711,-22.7463 L 2.65518,-22.7255
 L 2.70898,-22.706 L 2.75389,-22.6864 L 2.7953,-22.6653 L 2.83322,-22.6425 L 2.86763,-22.6182 L 2.89856,-22.5924
 L 2.92598,-22.565 L 2.94952,-22.5355 L 2.96878,-22.5035 L 2.98376,-22.4689 L 2.99448,-22.4319 L 3.0009,-22.3923
 L 3.00304,-22.3501 L 2.98441,-22.2255 L 2.92853,-22.1235 L 2.8354,-22.0442 L 2.70502,-21.9875 L 2.53738,-21.9535
 L 2.3325,-21.9422 L 2.22865,-21.9452 L 2.13263,-21.9543 L 2.04443,-21.9696 L 1.96408,-21.9909 L 1.89156,-22.0182
 L 1.82687,-22.0517 L 1.76944,-22.092 L 1.71863,-22.1396 L 1.67444,-22.1947 L 1.6369,-22.2572 L 1.60597,-22.3271
 L 1.5817,-22.4044 L 0.963226,-22.3024 L 1.00169,-22.1673 L 1.05341,-22.0442 L 1.11839,-21.933 L 1.19662,-21.8337
 L 1.28813,-21.7463 L 1.3929,-21.6709 L 1.51134,-21.6073 L 1.64389,-21.5552 L 1.79054,-21.5147 L 1.95129,-21.4858
 L 2.12616,-21.4684 L 2.31512,-21.4626 z
M 11.4456,-21.4692 L 11.6344,-21.489 L 11.806,-21.522 L 11.9603,-21.5682 L 12.0973,-21.6276 L 12.217,-21.7002
 L 12.3188,-21.7853 L 12.402,-21.8821 L 12.4668,-21.9907 L 12.5131,-22.1111 L 12.5408,-22.2432 L 12.5501,-22.387
 L 12.5485,-22.4494 L 12.5436,-22.5094 L 12.5354,-22.5668 L 12.524,-22.6219 L 12.5094,-22.6744 L 12.4915,-22.7244
 L 12.4705,-22.7721 L 12.4466,-22.8175 L 12.4199,-22.8606 L 12.3902,-22.9014 L 12.3577,-22.94 L 12.3222,-22.9762
 L 12.2831,-23.0105 L 12.2396,-23.0434 L 12.1917,-23.0749 L 12.1395,-23.1049 L 12.0828,-23.1335 L 12.0217,-23.1606
 L 11.9514,-23.1874 L 11.8672,-23.215 L 11.7691,-23.2433 L 11.6571,-23.2725 L 11.5312,-23.3024 L 11.3913,-23.3331
 L 11.2745,-23.3591 L 11.1716,-23.3836 L 11.0826,-23.4066 L 11.0074,-23.4281 L 10.9461,-23.4481 L 10.8987,-23.4666
 L 10.8598,-23.4849 L 10.8243,-23.5045 L 10.7921,-23.5254 L 10.7632,-23.5476 L 10.7376,-23.571 L 10.7153,-23.5957
 L 10.6964,-23.6222 L 10.681,-23.6512 L 10.669,-23.6825 L 10.6604,-23.7163 L 10.6552,-23.7524 L 10.6535,-23.791
 L 10.6697,-23.9024 L 10.7181,-23.9935 L 10.7989,-24.0644 L 10.912,-24.1151 L 11.0574,-24.1454 L 11.2351,-24.1556
 L 11.3227,-24.1528 L 11.4032,-24.1445 L 11.4767,-24.1306 L 11.5432,-24.1112 L 11.6026,-24.0862 L 11.655,-24.0557
 L 11.701,-24.0197 L 11.7416,-23.9783 L 11.7767,-23.9315 L 11.8064,-23.8792 L 11.8305,-23.8215 L 11.8492,-23.7584
 L 12.4698,-23.8431 L 12.4367,-23.9733 L 12.3923,-24.0907 L 12.3366,-24.1952 L 12.2697,-24.2867 L 12.1915,-24.3654
 L 12.102,-24.4311 L 11.999,-24.4855 L 11.8803,-24.53 L 11.7458,-24.5646 L 11.5956,-24.5893 L 11.4297,-24.6042
 L 11.2481,-24.6091 L 11.0578,-24.603 L 10.8832,-24.5846 L 10.7243,-24.554 L 10.5812,-24.5112 L 10.4538,-24.4561
 L 10.3421,-24.3888 L 10.247,-24.31 L 10.1691,-24.2204 L 10.1086,-24.12 L 10.0653,-24.0089 L 10.0394,-23.8869
 L 10.0307,-23.7541 L 10.0319,-23.7009 L 10.0354,-23.6497 L 10.0413,-23.6006 L 10.0495,-23.5535 L 10.0601,-23.5085
 L 10.073,-23.4655 L 10.0881,-23.4245 L 10.105,-23.3852 L 10.1237,-23.3478 L 10.1444,-23.3122 L 10.1669,-23.2784
 L 10.1913,-23.2463 L 10.2175,-23.216 L 10.2455,-23.1871 L 10.2754,-23.1598 L 10.307,-23.134 L 10.3405,-23.1096
 L 10.3757,-23.0868 L 10.4126,-23.0652 L 10.4509,-23.0446 L 10.4907,-23.025 L 10.532,-23.0063 L 10.5746,-22.9886
 L 10.6188,-22.9718 L 10.6694,-22.9547 L 10.7316,-22.9358 L 10.8054,-22.9152 L 10.8908,-22.8928 L 10.9877,-22.8686
 L 11.0962,-22.8427 L 11.2214,-22.8166 L 11.3324,-22.7919 L 11.429,-22.7684 L 11.5114,-22.7463 L 11.5795,-22.7255
 L 11.6333,-22.706 L 11.6782,-22.6864 L 11.7196,-22.6653 L 11.7575,-22.6425 L 11.7919,-22.6182 L 11.8228,-22.5924
 L 11.8503,-22.565 L 11.8738,-22.5355 L 11.8931,-22.5035 L 11.908,-22.4689 L 11.9187,-22.4319 L 11.9252,-22.3923
 L 11.9273,-22.3501 L 11.9087,-22.2255 L 11.8528,-22.1235 L 11.7597,-22.0442 L 11.6293,-21.9875 L 11.4617,-21.9535
 L 11.2568,-21.9422 L 11.1529,-21.9452 L 11.0569,-21.9543 L 10.9687,-21.9696 L 10.8884,-21.9909 L 10.8158,-22.0182
 L 10.7511,-22.0517 L 10.6937,-22.092 L 10.6429,-22.1396 L 10.5987,-22.1947 L 10.5612,-22.2572 L 10.5302,-22.3271
 L 10.506,-22.4044 L 9.88751,-22.3024 L 9.92596,-22.1673 L 9.97769,-22.0442 L 10.0426,-21.933 L 10.1209,-21.8337
 L 10.2124,-21.7463 L 10.3172,-21.6709 L 10.4356,-21.6073 L 10.5681,-21.5552 L 10.7148,-21.5147 L 10.8756,-21.4858
 L 11.0504,-21.4684 L 11.2394,-21.4626 z
M 7.49089,-23.3092 L 7.48981,-23.3824 L 7.48656,-23.4631 L 7.48114,-23.5512 L 7.47354,-23.6468 L 7.46378,-23.7499
 L 7.45186,-23.8605 L 8.78421,-21.506 L 9.53505,-21.506 L 9.53505,-24.5635 L 8.96651,-24.5635 L 8.96651,-22.7863
 L 8.96759,-22.695 L 8.97084,-22.6004 L 8.97627,-22.5026 L 8.98386,-22.4015 L 8.99362,-22.2972 L 9.00555,-22.1896
 L 7.65364,-24.5635 L 6.92235,-24.5635 L 6.92235,-21.506 L 7.49089,-21.506 z
M 6.52075,-22.0008 L 4.66757,-22.0008 L 4.66757,-22.8058 L 6.29941,-22.8058 L 6.29941,-23.3006 L 4.66757,-23.3006
 L 4.66757,-24.0688 L 6.43179,-24.0688 L 6.43179,-24.5635 L 4.02742,-24.5635 L 4.02742,-21.506 L 6.52075,-21.506
 z
"/>
</g>
</svg>