<svg xmlns="http://www.w3.org/2000/svg" version="1.1" width="138mm" height="37mm" viewBox="-14 -37 138 37">
<g id="cut" fill="none" stroke="#000000" stroke-width="0.2">
<path d="
M 110,-7.39999 L 106.99,-7.39999 L 106.99,-14.8 L 110.01,-14.8 L 110.01,-14 L 124,-14
 L 124,-30 L 110,-30 L 110,-37 L 0,-37 L 0,-30 L -14,-30
 L -14,-14 L -0.00999451,-14 L -0.00999451,-14.8 L 3.00999,-14.8 L 3.00999,-7.39999 L 0,-7.39999
 L 0,-0 L 13,-0 L 13,-3 L 33,-3 L 33,-0 L 45,-0
 L 45,-3 L 65,-3 L 65,-0 L 77,-0 L 77,-3 L 97,-3
 L 97,-0 L 110,-0 z
M 17,-28 L 17,-32 L 39,-32 L 39,-28 z
M 71,-28 L 71,-32 L 93,-32 L 93,-28 z
M -0.00999451,-22.2 L -0.00999451,-29.6 L 3.00999,-29.6 L 3.00999,-22.2 z
M 106.99,-22.2 L 106.99,-29.6 L 110.01,-29.6 L 110.01,-22.2 z
"/>
</g>
<g id="etch" fill="#ff0000" stroke="#ff0000" stroke-width="0.1">
<path d="
M -6.75,-21.75 L -4.5,-21.75 L -4.5,-22.25 L -6.75,-22.25 L -6.75,-24.5 L -7.25,-24.5
 L -7.25,-22.25 L -9.5,-22.25 L -9.5,-21.75 L -7.25,-21.75 L -7.25,-19.5 L -6.75,-19.5
 z
M 117.25,-21.75 L 119.5,-21.75 L 119.5,-22.25 L 117.25,-22.25 L 117.25,-24.5 L 116.75,-24.5
 L 116.75,-22.25 L 114.5,-22.25 L 114.5,-21.75 L 116.75,-21.75 L 116.75,-19.5 L 117.25,-19.5
 z
"/>
</g>
</svg>