<svg xmlns="http://www.w3.org/2000/svg" version="1.1" width="138mm" height="37mm" viewBox="-14 -37 138 37">
<g id="cut" fill="none" stroke="#000000" stroke-width="0.2">
<path d="
M 110,-7.39999 L 106.99,-7.39999 L 106.99,-14.8 L 110.01,-14.8 L 110.01,-14 L 124,-14
 L 124,-30 L 110,-30 L 110,-37 L 0,-37 L 0,-30 L -14,-30
 L -14,-14 L -0.00999451,-14 L -0.00999451,-14.8 L 3.00999,-14.8 L 3.00999,-7.39999 L 0,-7.39999
 L 0,-0 L 13,-0 L 13,-3 L 33,-3 L 33,-0 L 45,-0
 L 45,-3 L 65,-3 L 65,-0 L 77,-0 L 77,-3 L 97,-3
 L 97,-0 L 110,-0 z
M 25.5,-6.5 L 25.5,-30.5 L 30.5,-30.5 L 30.5,-6.5 z
M 79.5,-6.5 L 79.5,-30.5 L 84.5,-30.5 L 84.5,-6.5 z
M -0.00999451,-22.2 L -0.00999451,-29.6 L 3.00999,-29.6 L 3.00999,-22.2 z
M 106.99,-22.2 L 106.99,-29.6 L 110.01,-29.6 L 110.01,-22.2 z
"/>
</g>
<g id="etch" fill="#ff0000" stroke="#ff0000" stroke-width="0.1">
<path d="
M -6.75,-21.75 L -4.5,-21.75 L -4.5,-22.25 L -6.75,-22.25 L -6.75,-24.5 L -7.25,-24.5
 L -7.25,-22.25 L -9.5,-22.25 L -9.5,-21.75 L -7.25,-21.75 L -7.25,-19.5 L -6.75,-19.5
 z
M 117.25,-21.75 L 119.5,-21.75 L 119.5,-22.25 L 117.25,-22.25 L 117.25,-24.5 L 116.75,-24.5
 L 116.75,-22.25 L 114.5,-22.25 L 114.5,-21.75 L 116.75,-21.75 L 116.75,-19.5 L 117.25,-19.5
 z
M 56.1213,-17.66 L 56.253,-17.6758 L 56.3781,-17.702 L 56.4964,-17.7388 L 56.608,-17.786 L 56.713,-17.8437
 L 56.8104,-17.9122 L 56.8998,-17.9917 L 56.9809,-18.0822 L 57.0539,-18.1838 L 57.1187,-18.2964 L 57.1753,-18.42
 L 56.6873,-18.6042 L 56.6129,-18.4487 L 56.5213,-18.3215 L 56.4125,-18.2225 L 56.2865,-18.1518 L 56.1433,-18.1094
 L 55.9829,-18.0953 L 55.8606,-18.102 L 55.7484,-18.1223 L 55.6461,-18.1561 L 55.5538,-18.2033 L 55.4714,-18.2641
 L 55.399,-18.3383 L 55.3372,-18.4254 L 55.2867,-18.5246 L 55.2474,-18.636 L 55.2193,-18.7594 L 55.2024,-18.895
 L 55.1968,-19.0428 L 55.2023,-19.188 L 55.2186,-19.321 L 55.2459,-19.442 L 55.2841,-19.5508 L 55.3333,-19.6474
 L 55.3933,-19.732 L 55.4639,-19.8039 L 55.5447,-19.8628 L 55.6356,-19.9086 L 55.7368,-19.9413 L 55.8481,-19.9609
 L 55.9696,-19.9674 L 56.0507,-19.9641 L 56.1281,-19.9543 L 56.202,-19.9378 L 56.2721,-19.9147 L 56.3387,-19.885
 L 56.4016,-19.8488 L 56.4593,-19.8069 L 56.5103,-19.7605 L 56.5546,-19.7095 L 56.5923,-19.6538 L 56.6232,-19.5936
 L 56.6474,-19.5288 L 57.1411,-19.6636 L 57.0963,-19.7809 L 57.0417,-19.8882 L 56.9773,-19.9857 L 56.9031,-20.0733
 L 56.8191,-20.1511 L 56.7253,-20.219 L 56.6217,-20.2767 L 56.5084,-20.324 L 56.3854,-20.3607 L 56.2527,-20.387
 L 56.1103,-20.4027 L 55.9582,-20.408 L 55.7515,-20.3981 L 55.5618,-20.3687 L 55.389,-20.3197 L 55.2333,-20.251
 L 55.0945,-20.1627 L 54.9727,-20.0548 L 54.8689,-19.9286 L 54.7839,-19.7854 L 54.7178,-19.6252 L 54.6706,-19.448
 L 54.6423,-19.2539 L 54.6329,-19.0428 L 54.6427,-18.8319 L 54.672,-18.6372 L 54.7209,-18.4587 L 54.7894,-18.2964
 L 54.8775,-18.1502 L 54.9851,-18.0203 L 55.1106,-17.9086 L 55.2525,-17.8172 L 55.4106,-17.7462 L 55.5851,-17.6954
 L 55.7758,-17.6649 L 55.9829,-17.6548 z
M 61.5981,-17.6595 L 61.7263,-17.6735 L 61.8488,-17.6968 L 61.9655,-17.7295 L 62.0766,-17.7715 L 62.182,-17.8228
 L 62.2806,-17.883 L 62.3712,-17.9514 L 62.454,-18.0281 L 62.5288,-18.1131 L 62.5958,-18.2064 L 62.6548,-18.308
 L 62.7053,-18.4164 L 62.7466,-18.5305 L 62.7787,-18.6502 L 62.8016,-18.7755 L 62.8154,-18.9063 L 62.82,-19.0428
 L 62.81,-19.2472 L 62.7802,-19.4366 L 62.7305,-19.611 L 62.6609,-19.7702 L 62.5714,-19.9143 L 62.4621,-20.0434
 L 62.335,-20.1548 L 62.1926,-20.2459 L 62.0346,-20.3168 L 61.8612,-20.3674 L 61.6724,-20.3978 L 61.4681,-20.408
 L 61.2638,-20.3979 L 61.075,-20.3679 L 60.9018,-20.3178 L 60.744,-20.2476 L 60.6018,-20.1574 L 60.475,-20.0472
 L 60.366,-19.9191 L 60.2767,-19.7752 L 60.2073,-19.6157 L 60.1577,-19.4404 L 60.128,-19.2495 L 60.1181,-19.0428
 L 60.128,-18.8352 L 60.1578,-18.6429 L 60.2076,-18.4658 L 60.2771,-18.3039 L 60.3666,-18.1573 L 60.476,-18.026
 L 60.6029,-17.9126 L 60.7449,-17.8198 L 60.902,-17.7476 L 61.0743,-17.696 L 61.2617,-17.6651 L 61.4643,-17.6548
 z
M 61.3476,-18.1023 L 61.2395,-18.1234 L 61.1398,-18.1587 L 61.0487,-18.2079 L 60.966,-18.2713 L 60.8918,-18.3488
 L 60.8277,-18.4385 L 60.7753,-18.5385 L 60.7345,-18.649 L 60.7053,-18.7699 L 60.6878,-18.9011 L 60.682,-19.0428
 L 60.6877,-19.183 L 60.7048,-19.3125 L 60.7333,-19.4313 L 60.7731,-19.5394 L 60.8244,-19.6368 L 60.8871,-19.7234
 L 60.9602,-19.798 L 61.0428,-19.859 L 61.1348,-19.9064 L 61.2364,-19.9403 L 61.3475,-19.9607 L 61.4681,-19.9674
 L 61.5869,-19.9606 L 61.6966,-19.9401 L 61.797,-19.906 L 61.8883,-19.8582 L 61.9705,-19.7967 L 62.0434,-19.7215
 L 62.1061,-19.6344 L 62.1573,-19.5368 L 62.1972,-19.4289 L 62.2257,-19.3106 L 62.2428,-19.1819 L 62.2485,-19.0428
 L 62.2428,-18.8973 L 62.2258,-18.7632 L 62.1974,-18.6407 L 62.1577,-18.5297 L 62.1067,-18.4302 L 62.0444,-18.3421
 L 61.9715,-18.2667 L 61.8892,-18.205 L 61.7973,-18.157 L 61.6958,-18.1227 L 61.5848,-18.1021 L 61.4643,-18.0953
 z
M 49.6545,-20.3681 L 49.0754,-20.3681 L 48.5267,-18.6497 L 48.4298,-18.308 L 48.39,-18.1447 L 48.3613,-18.2526
 L 48.3347,-18.351 L 48.3102,-18.4399 L 48.2878,-18.5193 L 48.2676,-18.5893 L 48.2495,-18.6497 L 47.6988,-20.3681
 L 47.114,-20.3681 L 48.1033,-17.6928 L 48.671,-17.6928 z
M 52.0623,-18.1257 L 50.4408,-18.1257 L 50.4408,-18.8301 L 51.8686,-18.8301 L 51.8686,-19.263 L 50.4408,-19.263
 L 50.4408,-19.9352 L 51.9845,-19.9352 L 51.9845,-20.3681 L 49.8806,-20.3681 L 49.8806,-17.6928 L 52.0623,-17.6928
 z
M 54.4093,-18.1257 L 52.9738,-18.1257 L 52.9738,-20.3681 L 52.4137,-20.3681 L 52.4137,-17.6928 L 54.4093,-17.6928
 z
M 58.0362,-18.7086 L 58.6932,-18.7086 L 59.3141,-17.6928 L 59.9445,-17.6928 L 59.2211,-18.8168 L 59.3084,-18.8422
 L 59.3896,-18.8754 L 59.4646,-18.9163 L 59.5333,-18.9649 L 59.5958,-19.0213 L 59.6521,-19.0855 L 59.7008,-19.1556
 L 59.7407,-19.2301 L 59.7717,-19.3088 L 59.7939,-19.3918 L 59.8071,-19.4791 L 59.8116,-19.5706 L 59.8044,-19.6941
 L 59.7827,-19.8076 L 59.7465,-19.9112 L 59.696,-20.0048 L 59.6309,-20.0884 L 59.5514,-20.1621 L 59.4586,-20.225
 L 59.3537,-20.2765 L 59.2367,-20.3166 L 59.1075,-20.3452 L 58.9662,-20.3624 L 58.8128,-20.3681 L 57.4761,-20.3681
 L 57.4761,-17.6928 L 58.0362,-17.6928 z
M 58.0362,-19.1434 L 58.0362,-19.9333 L 58.754,-19.9333 L 58.9048,-19.9226 L 59.0282,-19.8904 L 59.1242,-19.8369
 L 59.1928,-19.762 L 59.2339,-19.6656 L 59.2476,-19.5478 L 59.2442,-19.4863 L 59.2341,-19.4295 L 59.2172,-19.3774
 L 59.1936,-19.3301 L 59.1632,-19.2875 L 59.1261,-19.2497 L 59.0824,-19.2172 L 59.0324,-19.1906 L 58.9761,-19.17
 L 58.9135,-19.1552 L 58.8445,-19.1463 L 58.7692,-19.1434 z
"/>
</g>
</svg>