<svg xmlns="http://www.w3.org/2000/svg" version="1.1" width="110mm" height="37mm" viewBox="0 -37 110 37">
<g id="cut" fill="none" stroke="#000000" stroke-width="0.2">
<path d="
M 110,-7.39999 L 106.99,-7.39999 L 106.99,-14.8 L 110,-14.8 L 110,-22.2 L 106.99,-22.2
 L 106.99,-29.6 L 110,-29.6 L 110,-37 L 0,-37 L 0,-29.6 L 3.00999,-29.6
 L 3.00999,-22.2 L 0,-22.2 L 0,-14.8 L 3.00999,-14.8 L 3.00999,-7.39999 L 0,-7.39999
 L 0,-0 L 13,-0 L 13,-3 L 33,-3 L 33,-0 L 45,-0
 L 45,-3 L 65,-3 L 65,-0 L 77,-0 L 77,-3 L 97,-3
 L 97,-0 L 110,-0 z
M 64.7341,-5.32092 L 64.4747,-5.38319 L 64.2282,-5.48528 L 64.0008,-5.62466 L 63.7979,-5.79791 L 63.6247,-6.00076
 L 63.4853,-6.22821 L 63.3832,-6.47467 L 63.3209,-6.73405 L 63.3,-7 L 63.3209,-7.26593 L 63.3832,-7.52531
 L 63.4853,-7.77177 L 63.6247,-7.99922 L 63.6253,-8 L 46.3746,-8 L 46.3753,-7.99922 L 46.5147,-7.77177
 L 46.6168,-7.52531 L 46.6791,-7.26593 L 46.7,-7 L 46.6791,-6.73405 L 46.6168,-6.47467 L 46.5147,-6.22821
 L 46.3753,-6.00076 L 46.2021,-5.79791 L 45.9992,-5.62466 L 45.7718,-5.48528 L 45.5253,-5.38319 L 45.2659,-5.32092
 L 45,-5.29999 L 44.7341,-5.32092 L 44.4747,-5.38319 L 44.2282,-5.48528 L 44.0008,-5.62466 L 43.7979,-5.79791
 L 43.6247,-6.00076 L 43.4853,-6.22821 L 43.3832,-6.47467 L 43.3209,-6.73405 L 43.3,-7 L 43.3209,-7.26593
 L 43.3832,-7.52531 L 43.4853,-7.77177 L 43.6247,-7.99922 L 43.6253,-8 L 27,-8 L 27,-32
 L 43.6253,-32 L 43.6247,-32.0008 L 43.4853,-32.2282 L 43.3832,-32.4747 L 43.3209,-32.7341 L 43.3,-33
 L 43.3209,-33.2659 L 43.3832,-33.5253 L 43.4853,-33.7718 L 43.6247,-33.9992 L 43.7979,-34.2021 L 44.0008,-34.3753
 L 44.2282,-34.5147 L 44.4747,-34.6168 L 44.7341,-34.6791 L 45,-34.7 L 45.2659,-34.6791 L 45.5253,-34.6168
 L 45.7718,-34.5147 L 45.9992,-34.3753 L 46.2021,-34.2021 L 46.3753,-33.9992 L 46.5147,-33.7718 L 46.6168,-33.5253
 L 46.6791,-33.2659 L 46.7,-33 L 46.6791,-32.7341 L 46.6168,-32.4747 L 46.5147,-32.2282 L 46.3753,-32.0008
 L 46.3747,-32 L 63.6253,-32 L 63.6247,-32.0008 L 63.4853,-32.2282 L 63.3832,-32.4747 L 63.3209,-32.7341
 L 63.3,-33 L 63.3209,-33.2659 L 63.3832,-33.5253 L 63.4853,-33.7718 L 63.6247,-33.9992 L 63.7979,-34.2021
 L 64.0008,-34.3753 L 64.2282,-34.5147 L 64.4747,-34.6168 L 64.7341,-34.6791 L 65,-34.7 L 65.2659,-34.6791
 L 65.5253,-34.6168 L 65.7718,-34.5147 L 65.9992,-34.3753 L 66.2021,-34.2021 L 66.3753,-33.9992 L 66.5147,-33.7718
 L 66.6168,-33.5253 L 66.6791,-33.2659 L 66.7,-33 L 66.6791,-32.7341 L 66.6168,-32.4747 L 66.5147,-32.2282
 L 66.3753,-32.0008 L 66.3747,-32 L 83,-32 L 83,-8 L 66.3746,-8 L 66.3753,-7.99922
 L 66.5147,-7.77177 L 66.6168,-7.52531 L 66.6791,-7.26593 L 66.7,-7 L 66.6791,-6.73405 L 66.6168,-6.47467
 L 66.5147,-6.22821 L 66.3753,-6.00076 L 66.2021,-5.79791 L 65.9992,-5.62466 L 65.7718,-5.48528 L 65.5253,-5.38319
 L 65.2659,-5.32092 L 65,-5.29999 z
"/>
</g>
<g id="etch" fill="#ff0000" stroke="#ff0000" stroke-width="0.1">
<path d="
M 23,-36 L 23,-4 L 87,-4 L 87,-36 z
M 23.4,-35.6 L 24.75,-35.6 L 24.75,-34.25 L 23.4,-34.25 z
M 25.25,-4.40001 L 25.25,-5.75 L 27,-5.75 L 27,-6.25 L 25.25,-6.25 L 25.25,-8
 L 24.75,-8 L 24.75,-6.25 L 23.4,-6.25 L 23.4,-33.75 L 24.75,-33.75 L 24.75,-32
 L 25.25,-32 L 25.25,-33.75 L 27,-33.75 L 27,-34.25 L 25.25,-34.25 L 25.25,-35.6
 L 84.75,-35.6 L 84.75,-34.25 L 83,-34.25 L 83,-33.75 L 84.75,-33.75 L 84.75,-32
 L 85.25,-32 L 85.25,-33.75 L 86.6,-33.75 L 86.6,-6.25 L 85.25,-6.25 L 85.25,-8
 L 84.75,-8 L 84.75,-6.25 L 83,-6.25 L 83,-5.75 L 84.75,-5.75 L 84.75,-4.40001
 z
M 66,-28 L 44,-28 L 44,-12 L 66,-12 z
M 44.4,-12.4 L 44.4,-27.6 L 65.6,-27.6 L 65.6,-12.4 z
M 85.25,-34.25 L 85.25,-35.6 L 86.6,-35.6 L 86.6,-34.25 z
M 86.6,-4.40001 L 85.25,-4.40001 L 85.25,-5.75 L 86.6,-5.75 z
M 23.4,-4.40001 L 23.4,-5.75 L 24.75,-5.75 L 24.75,-4.40001 z
M 2.5213,-18.4692 L 2.71019,-18.489 L 2.88176,-18.522 L 3.03604,-18.5682 L 3.17302,-18.6276 L 3.29269,-18.7002
 L 3.39449,-18.7853 L 3.47777,-18.8821 L 3.54254,-18.9907 L 3.58881,-19.1111 L 3.61656,-19.2432 L 3.62582,-19.387
 L 3.62419,-19.4494 L 3.61931,-19.5094 L 3.61118,-19.5668 L 3.59978,-19.6219 L 3.58513,-19.6744 L 3.56723,-19.7244
 L 3.54625,-19.7721 L 3.52238,-19.8175 L 3.49561,-19.8606 L 3.46596,-19.9014 L 3.4334,-19.94 L 3.39795,-19.9762
 L 3.35886,-20.0105 L 3.31537,-20.0434 L 3.26749,-20.0749 L 3.21519,-20.1049 L 3.15849,-20.1335 L 3.0974,-20.1606
 L 3.02716,-20.1874 L 2.94298,-20.215 L 2.84488,-20.2433 L 2.73286,-20.2725 L 2.6069,-20.3024 L 2.46704,-20.3331
 L 2.35028,-20.3591 L 2.24738,-20.3836 L 2.15834,-20.4066 L 2.08318,-20.4281 L 2.02187,-20.4481 L 1.97443,-20.4666
 L 1.93558,-20.4849 L 1.90005,-20.5045 L 1.86783,-20.5254 L 1.83893,-20.5476 L 1.81334,-20.571 L 1.79106,-20.5957
 L 1.77217,-20.6222 L 1.75671,-20.6512 L 1.74471,-20.6825 L 1.73611,-20.7163 L 1.73096,-20.7524 L 1.72925,-20.791
 L 1.74539,-20.9024 L 1.79387,-20.9935 L 1.87463,-21.0644 L 1.98772,-21.1151 L 2.1331,-21.1454 L 2.31081,-21.1556
 L 2.39842,-21.1528 L 2.47897,-21.1445 L 2.55249,-21.1306 L 2.61894,-21.1112 L 2.67833,-21.0862 L 2.73068,-21.0557
 L 2.77676,-21.0197 L 2.81737,-20.9783 L 2.85248,-20.9315 L 2.88211,-20.8792 L 2.90625,-20.8215 L 2.9249,-20.7584
 L 3.54553,-20.8431 L 3.51241,-20.9733 L 3.468,-21.0907 L 3.41234,-21.1952 L 3.3454,-21.2867 L 3.26718,-21.3654
 L 3.17769,-21.4311 L 3.07471,-21.4855 L 2.95599,-21.53 L 2.82155,-21.5646 L 2.67137,-21.5893 L 2.50545,-21.6042
 L 2.32381,-21.6091 L 2.13348,-21.603 L 1.95889,-21.5846 L 1.80003,-21.554 L 1.65691,-21.5112 L 1.52951,-21.4561
 L 1.41785,-21.3888 L 1.32271,-21.31 L 1.24486,-21.2204 L 1.18431,-21.12 L 1.14105,-21.0089 L 1.11511,-20.8869
 L 1.10646,-20.7541 L 1.10764,-20.7009 L 1.11116,-20.6497 L 1.11703,-20.6006 L 1.12526,-20.5535 L 1.13583,-20.5085
 L 1.14876,-20.4655 L 1.1638,-20.4245 L 1.18071,-20.3852 L 1.19948,-20.3478 L 1.22012,-20.3122 L 1.24263,-20.2784
 L 1.267,-20.2463 L 1.29323,-20.216 L 1.32126,-20.1871 L 1.3511,-20.1598 L 1.38274,-20.134 L 1.4162,-20.1096
 L 1.45145,-20.0868 L 1.48834,-20.0652 L 1.52669,-20.0446 L 1.56647,-20.025 L 1.6077,-20.0063 L 1.65038,-19.9886
 L 1.69449,-19.9718 L 1.74513,-19.9547 L 1.80734,-19.9358 L 1.88113,-19.9152 L 1.96649,-19.8928 L 2.06343,-19.8686
 L 2.17194,-19.8427 L 2.29715,-19.8166 L 2.40808,-19.7919 L 2.50475,-19.7684 L 2.58711,-19.7463 L 2.65518,-19.7255
 L 2.70898,-19.706 L 2.75389,-19.6864 L 2.7953,-19.6653 L 2.83322,-19.6425 L 2.86763,-19.6182 L 2.89856,-19.5924
 L 2.92598,-19.565 L 2.94952,-19.5355 L 2.96878,-19.5035 L 2.98376,-19.4689 L 2.99448,-19.4319 L 3.0009,-19.3923
 L 3.00304,-19.3501 L 2.98441,-19.2255 L 2.92853,-19.1235 L 2.8354,-19.0442 L 2.70502,-18.9875 L 2.53738,-18.9535
 L 2.3325,-18.9422 L 2.22865,-18.9452 L 2.13263,-18.9543 L 2.04443,-18.9696 L 1.96408,-18.9909 L 1.89156,-19.0182
 L 1.82687,-19.0517 L 1.76944,-19.092 L 1.71863,-19.1396 L 1.67444,-19.1947 L 1.6369,-19.2572 L 1.60597,-19.3271
 L 1.5817,-19.4044 L 0.963226,-19.3024 L 1.00169,-19.1673 L 1.05341,-19.0442 L 1.11839,-18.933 L 1.19662,-18.8337
 L 1.28813,-18.7463 L 1.3929,-18.6709 L 1.51134,-18.6073 L 1.64389,-18.5552 L 1.79054,-18.5147 L 1.95129,-18.4858
 L 2.12616,-18.4684 L 2.31512,-18.4626 z
M 11.4456,-18.4692 L 11.6344,-18.489 L 11.806,-18.522 L 11.9603,-18.5682 L 12.0973,-18.6276 L 12.217,-18.7002
 L 12.3188,-18.7853 L 12.402,-18.8821 L 12.4668,-18.9907 L 12.5131,-19.1111 L 12.5408,-19.2432 L 12.5501,-19.387
 L 12.5485,-19.4494 L 12.5436,-19.5094 L 12.5354,-19.5668 L 12.524,-19.6219 L 12.5094,-19.6744 L 12.4915,-19.7244
 L 12.4705,-19.7721 L 12.4466,-19.8175 L 12.4199,-19.8606 L 12.3902,-19.9014 L 12.3577,-19.94 L 12.3222,-19.9762
 L 12.2831,-20.0105 L 12.2396,-20.0434 L 12.1917,-20.0749 L 12.1395,-20.1049 L 12.0828,-20.1335 L 12.0217,-20.1606
 L 11.9514,-20.1874 L 11.8672,-20.215 L 11.7691,-20.2433 L 11.6571,-20.2725 L 11.5312,-20.3024 L 11.3913,-20.3331
 L 11.2745,-20.3591 L 11.1716,-20.3836 L 11.0826,-20.4066 L 11.0074,-20.4281 L 10.9461,-20.4481 L 10.8987,-20.4666
 L 10.8598,-20.4849 L 10.8243,-20.5045 L 10.7921,-20.5254 L 10.7632,-20.5476 L 10.7376,-20.571 L 10.7153,-20.5957
 L 10.6964,-20.6222 L 10.681,-20.6512 L 10.669,-20.6825 L 10.6604,-20.7163 L 10.6552,-20.7524 L 10.6535,-20.791
 L 10.6697,-20.9024 L 10.7181,-20.9935 L 10.7989,-21.0644 L 10.912,-21.1151 L 11.0574,-21.1454 L 11.2351,-21.1556
 L 11.3227,-21.1528 L 11.4032,-21.1445 L 11.4767,-21.1306 L 11.5432,-21.1112 L 11.6026,-21.0862 L 11.655,-21.0557
 L 11.701,-21.0197 L 11.7416,-20.9783 L 11.7767,-20.9315 L 11.8064,-20.8792 L 11.8305,-20.8215 L 11.8492,-20.7584
 L 12.4698,-20.8431 L 12.4367,-20.9733 L 12.3923,-21.0907 L 12.3366,-21.1952 L 12.2697,-21.2867 L 12.1915,-21.3654
 L 12.102,-21.4311 L 11.999,-21.4855 L 11.8803,-21.53 L 11.7458,-21.5646 L 11.5956,-21.5893 L 11.4297,-21.6042
 L 11.2481,-21.6091 L 11.0578,-21.603 L 10.8832,-21.5846 L 10.7243,-21.554 L 10.5812,-21.5112 L 10.4538,-21.4561
 L 10.3421,-21.3888 L 10.247,-21.31 L 10.1691,-21.2204 L 10.1086,-21.12 L 10.0653,-21.0089 L 10.0394,-20.8869
 L 10.0307,-20.7541 L 10.0319,-20.7009 L 10.0354,-20.6497 L 10.0413,-20.6006 L 10.0495,-20.5535 L 10.0601,-20.5085
 L 10.073,-20.4655 L 10.0881,-20.4245 L 10.105,-20.3852 L 10.1237,-20.3478 L 10.1444,-20.3122 L 10.1669,-20.2784
 L 10.1913,-20.2463 L 10.2175,-20.216 L 10.2455,-20.1871 L 10.2754,-20.1598 L 10.307,-20.134 L 10.3405,-20.1096
 L 10.3757,-20.0868 L 10.4126,-20.0652 L 10.4509,-20.0446 L 10.4907,-20.025 L 10.532,-20.0063 L 10.5746,-19.9886
 L 10.6188,-19.9718 L 10.6694,-19.9547 L 10.7316,-19.9358 L 10.8054,-19.9152 L 10.8908,-19.8928 L 10.9877,-19.8686
 L 11.0962,-19.8427 L 11.2214,-19.8166 L 11.3324,-19.7919 L 11.429,-19.7684 L 11.5114,-19.7463 L 11.5795,-19.7255
 L 11.6333,-19.706 L 11.6782,-19.6864 L 11.7196,-19.6653 L 11.7575,-19.6425 L 11.7919,-19.6182 L 11.8228,-19.5924
 L 11.8503,-19.565 L 11.8738,-19.5355 L 11.8931,-19.5035 L 11.908,-19.4689 L 11.9187,-19.4319 L 11.9252,-19.3923
 L 11.9273,-19.3501 L 11.9087,-19.2255 L 11.8528,-19.1235 L 11.7597,-19.0442 L 11.6293,-18.9875 L 11.4617,-18.9535
 L 11.2568,-18.9422 L 11.1529,-18.9452 L 11.0569,-18.9543 L 10.9687,-18.9696 L 10.8884,-18.9909 L 10.8158,-19.0182
 L 10.7511,-19.0517 L 10.6937,-19.092 L 10.6429,-19.1396 L 10.5987,-19.1947 L 10.5612,-19.2572 L 10.5302,-19.3271
 L 10.506,-19.4044 L 9.88751,-19.3024 L 9.92596,-19.1673 L 9.97769,-19.0442 L 10.0426,-18.933 L 10.1209,-18.8337
 L 10.2124,-18.7463 L 10.3172,-18.6709 L 10.4356,-18.6073 L 10.5681,-18.5552 L 10.7148,-18.5147 L 10.8756,-18.4858
 L 11.0504,-18.4684 L 11.2394,-18.4626 z
M 14.5282,-18.468 L 14.6747,-18.4839 L 14.8146,-18.5106 L 14.9481,-18.548 L 15.075,-18.596 L 15.1954,-18.6546
 L 15.3081,-18.7234 L 15.4117,-18.8016 L 15.5063,-18.8893 L 15.5918,-18.9864 L 15.6683,-19.093 L 15.7358,-19.2091
 L 15.7935,-19.3331 L 15.8407,-19.4635 L 15.8774,-19.6002 L 15.9036,-19.7434 L 15.9193,-19.8929 L 15.9246,-20.0489
 L 15.9132,-20.2826 L 15.8791,-20.499 L 15.8223,-20.6982 L 15.7428,-20.8802 L 15.6405,-21.045 L 15.5155,-21.1925
 L 15.3703,-21.3198 L 15.2075,-21.4239 L 15.027,-21.5049 L 14.8289,-21.5628 L 14.613,-21.5975 L 14.3795,-21.6091
 L 14.1461,-21.5976 L 13.9304,-21.5633 L 13.7323,-21.506 L 13.5521,-21.4258 L 13.3895,-21.3228 L 13.2446,-21.1968
 L 13.12,-21.0504 L 13.018,-20.886 L 12.9387,-20.7037 L 12.882,-20.5034 L 12.848,-20.2851 L 12.8367,-20.0489
 L 12.848,-19.8117 L 12.8821,-19.5918 L 12.9389,-19.3895 L 13.0185,-19.2045 L 13.1207,-19.037 L 13.2457,-18.8868
 L 13.3907,-18.7572 L 13.553,-18.6512 L 13.7326,-18.5687 L 13.9295,-18.5098 L 14.1437,-18.4744 L 14.3752,-18.4626
 z
M 14.2419,-18.9741 L 14.1183,-18.9982 L 14.0044,-19.0385 L 13.9002,-19.0948 L 13.8057,-19.1672 L 13.721,-19.2557
 L 13.6477,-19.3582 L 13.5878,-19.4726 L 13.5411,-19.5989 L 13.5078,-19.737 L 13.4878,-19.887 L 13.4812,-20.0489
 L 13.4877,-20.2091 L 13.5072,-20.3571 L 13.5398,-20.4929 L 13.5853,-20.6164 L 13.6439,-20.7277 L 13.7155,-20.8268
 L 13.7991,-20.912 L 13.8935,-20.9817 L 13.9987,-21.0359 L 14.1148,-21.0747 L 14.2418,-21.0979 L 14.3795,-21.1056
 L 14.5154,-21.0978 L 14.6407,-21.0744 L 14.7555,-21.0354 L 14.8598,-20.9807 L 14.9537,-20.9105 L 15.037,-20.8246
 L 15.1087,-20.725 L 15.1673,-20.6135 L 15.2128,-20.4902 L 15.2454,-20.3549 L 15.2649,-20.2079 L 15.2714,-20.0489
 L 15.2649,-19.8826 L 15.2455,-19.7294 L 15.2131,-19.5894 L 15.1677,-19.4625 L 15.1094,-19.3488 L 15.0381,-19.2482
 L 14.9549,-19.162 L 14.8608,-19.0914 L 14.7558,-19.0366 L 14.6398,-18.9974 L 14.513,-18.9739 L 14.3752,-18.966
 z
M 16.9678,-19.667 L 17.7187,-19.667 L 18.4283,-18.506 L 19.1487,-18.506 L 18.3219,-19.7906 L 18.4218,-19.8197
 L 18.5146,-19.8576 L 18.6002,-19.9043 L 18.6788,-19.9599 L 18.7502,-20.0244 L 18.8145,-20.0977 L 18.8702,-20.1779
 L 18.9158,-20.263 L 18.9512,-20.3529 L 18.9765,-20.4478 L 18.9917,-20.5475 L 18.9968,-20.6521 L 18.9885,-20.7933
 L 18.9638,-20.923 L 18.9225,-21.0414 L 18.8647,-21.1483 L 18.7903,-21.2439 L 18.6995,-21.3281 L 18.5935,-21.4
 L 18.4736,-21.4589 L 18.3398,-21.5047 L 18.1922,-21.5374 L 18.0307,-21.557 L 17.8554,-21.5635 L 16.3277,-21.5635
 L 16.3277,-18.506 L 16.9678,-18.506 z
M 16.9678,-20.1639 L 16.9678,-21.0666 L 17.7881,-21.0666 L 17.9605,-21.0544 L 18.1015,-21.0177 L 18.2112,-20.9565
 L 18.2896,-20.8708 L 18.3366,-20.7607 L 18.3523,-20.6261 L 18.3484,-20.5557 L 18.3369,-20.4908 L 18.3176,-20.4313
 L 18.2906,-20.3773 L 18.2558,-20.3286 L 18.2134,-20.2854 L 18.1635,-20.2483 L 18.1064,-20.2179 L 18.042,-20.1943
 L 17.9704,-20.1774 L 17.8915,-20.1673 L 17.8055,-20.1639 z
M 7.49089,-20.3092 L 7.48981,-20.3824 L 7.48656,-20.4631 L 7.48114,-20.5512 L 7.47354,-20.6468 L 7.46378,-20.7499
 L 7.45186,-20.8605 L 8.78421,-18.506 L 9.53505,-18.506 L 9.53505,-21.5635 L 8.96651,-21.5635 L 8.96651,-19.7863
 L 8.96759,-19.695 L 8.97084,-19.6004 L 8.97627,-19.5026 L 8.98386,-19.4015 L 8.99362,-19.2972 L 9.00555,-19.1896
 L 7.65364,-21.5635 L 6.92235,-21.5635 L 6.92235,-18.506 L 7.49089,-18.506 z
M 6.52075,-19.0008 L 4.66757,-19.0008 L 4.66757,-19.8058 L 6.29941,-19.8058 L 6.29941,-20.3006 L 4.66757,-20.3006
 L 4.66757,-21.0688 L 6.43179,-21.0688 L 6.43179,-21.5635 L 4.02742,-21.5635 L 4.02742,-18.506 L 6.52075,-18.506
 z
"/>
</g>
</svg>