<svg xmlns="http://www.w3.org/2000/svg" version="1.1" width="110mm" height="78mm" viewBox="0 -78 110 78">
<g id="cut" fill="none" stroke="#000000" stroke-width="0.2">
<path d="
M 0,-0 L 110,-0 L 110,-78 L 0,-78 z
"/>
</g>
<g id="etch" fill="#ff0000" stroke="#ff0000" stroke-width="0.1">
<path d="
M 12.25,-76.25 L 13.5,-76.25 L 13.5,-76.75 L 12.25,-76.75 L 12.25,-78 L 11.75,-78
 L 11.75,-76.75 L 10.5,-76.75 L 10.5,-76.25 L 11.75,-76.25 L 11.75,-75 L 12.25,-75
 z
M 98.25,-76.25 L 99.5,-76.25 L 99.5,-76.75 L 98.25,-76.75 L 98.25,-78 L 97.75,-78
 L 97.75,-76.75 L 96.5,-76.75 L 96.5,-76.25 L 97.75,-76.25 L 97.75,-75 L 98.25,-75
 z
M 12.25,-1.25 L 13.5,-1.25 L 13.5,-1.75 L 12.25,-1.75 L 12.25,-3 L 11.75,-3
 L 11.75,-1.75 L 10.5,-1.75 L 10.5,-1.25 L 11.75,-1.25 L 11.75,-0 L 12.25,-0
 z
M 98.25,-1.25 L 99.5,-1.25 L 99.5,-1.75 L 98.25,-1.75 L 98.25,-3 L 97.75,-3
 L 97.75,-1.75 L 96.5,-1.75 L 96.5,-1.25 L 97.75,-1.25 L 97.75,-0 L 98.25,-0
 z
"/>
</g>
</svg>