<?xml version="1.0" standalone="no"?>
<!DOCTYPE svg PUBLIC "-//W3C//DTD SVG 1.1//EN" "http://www.w3.org/Graphics/SVG/1.1/DTD/svg11.dtd">
<svg width="110mm" height="37mm" viewBox="0 -37 110 37" xmlns="http://www.w3.org/2000/svg" version="1.1">
<title>OpenSCAD Model</title>
<path d="
M 110,-7.39999 L 106.99,-7.39999 L 106.99,-14.8 L 110,-14.8 L 110,-22.2 L 106.99,-22.2
 L 106.99,-29.6 L 110,-29.6 L 110,-37 L 94.7,-37 L 94.7,-28 L 95.85,-28
 L 95.85,-25.3 L 94.7,-25.3 L 94.7,-23 L 91.3,-23 L 91.3,-25.3 L 90.15,-25.3
 L 90.15,-28 L 91.3,-28 L 91.3,-37 L 18.7,-37 L 18.7,-28 L 19.85,-28
 L 19.85,-25.3 L 18.7,-25.3 L 18.7,-23 L 15.3,-23 L 15.3,-25.3 L 14.15,-25.3
 L 14.15,-28 L 15.3,-28 L 15.3,-37 L 0,-37 L 0,-29.6 L 3.00999,-29.6
 L 3.00999,-22.2 L 0,-22.2 L 0,-14.8 L 3.00999,-14.8 L 3.00999,-7.39999 L 0,-7.39999
 L 0,-0 L 13,-0 L 13,-3 L 33,-3 L 33,-0 L 45,-0
 L 45,-3 L 65,-3 L 65,-0 L 77,-0 L 77,-3 L 97,-3
 L 97,-0 L 110,-0 z
M 84.8279,-32.9135 L 84.6601,-32.9538 L 84.5006,-33.0199 L 84.3534,-33.1101 L 84.2222,-33.2222 L 84.1101,-33.3534
 L 84.0199,-33.5006 L 83.9538,-33.6601 L 83.9135,-33.8279 L 83.9,-34 L 83.9135,-34.1721 L 83.9538,-34.3399
 L 84.0199,-34.4994 L 84.1101,-34.6466 L 84.2222,-34.7778 L 84.3534,-34.8899 L 84.5006,-34.9801 L 84.6601,-35.0462
 L 84.8279,-35.0865 L 85,-35.1 L 85.1721,-35.0865 L 85.3399,-35.0462 L 85.4994,-34.9801 L 85.6466,-34.8899
 L 85.7778,-34.7778 L 85.8899,-34.6466 L 85.9801,-34.4994 L 86.0462,-34.3399 L 86.0865,-34.1721 L 86.1,-34
 L 86.0865,-33.8279 L 86.0462,-33.6601 L 85.9801,-33.5006 L 85.8899,-33.3534 L 85.7778,-33.2222 L 85.6466,-33.1101
 L 85.4994,-33.0199 L 85.3399,-32.9538 L 85.1721,-32.9135 L 85,-32.9 z
M 24.8279,-32.9135 L 24.6601,-32.9538 L 24.5006,-33.0199 L 24.3534,-33.1101 L 24.2222,-33.2222 L 24.1101,-33.3534
 L 24.0199,-33.5006 L 23.9538,-33.6601 L 23.9135,-33.8279 L 23.9,-34 L 23.9135,-34.1721 L 23.9538,-34.3399
 L 24.0199,-34.4994 L 24.1101,-34.6466 L 24.2222,-34.7778 L 24.3534,-34.8899 L 24.5006,-34.9801 L 24.6601,-35.0462
 L 24.8279,-35.0865 L 25,-35.1 L 25.1721,-35.0865 L 25.3399,-35.0462 L 25.4994,-34.9801 L 25.6466,-34.8899
 L 25.7778,-34.7778 L 25.8899,-34.6466 L 25.9801,-34.4994 L 26.0462,-34.3399 L 26.0865,-34.1721 L 26.1,-34
 L 26.0865,-33.8279 L 26.0462,-33.6601 L 25.9801,-33.5006 L 25.8899,-33.3534 L 25.7778,-33.2222 L 25.6466,-33.1101
 L 25.4994,-33.0199 L 25.3399,-32.9538 L 25.1721,-32.9135 L 25,-32.9 z
M 64.7341,-5.32092 L 64.4747,-5.38319 L 64.2282,-5.48528 L 64.0008,-5.62466 L 63.7979,-5.79791 L 63.6247,-6.00076
 L 63.4853,-6.22821 L 63.3832,-6.47467 L 63.3209,-6.73405 L 63.3,-7 L 63.3209,-7.26593 L 63.3832,-7.52531
 L 63.4853,-7.77177 L 63.6247,-7.99922 L 63.6253,-8 L 46.3746,-8 L 46.3753,-7.99922 L 46.5147,-7.77177
 L 46.6168,-7.52531 L 46.6791,-7.26593 L 46.7,-7 L 46.6791,-6.73405 L 46.6168,-6.47467 L 46.5147,-6.22821
 L 46.3753,-6.00076 L 46.2021,-5.79791 L 45.9992,-5.62466 L 45.7718,-5.48528 L 45.5253,-5.38319 L 45.2659,-5.32092
 L 45,-5.29999 L 44.7341,-5.32092 L 44.4747,-5.38319 L 44.2282,-5.48528 L 44.0008,-5.62466 L 43.7979,-5.79791
 L 43.6247,-6.00076 L 43.4853,-6.22821 L 43.3832,-6.47467 L 43.3209,-6.73405 L 43.3,-7 L 43.3209,-7.26593
 L 43.3832,-7.52531 L 43.4853,-7.77177 L 43.6247,-7.99922 L 43.6253,-8 L 27,-8 L 27,-32
 L 43.6253,-32 L 43.6247,-32.0008 L 43.4853,-32.2282 L 43.3832,-32.4747 L 43.3209,-32.7341 L 43.3,-33
 L 43.3209,-33.2659 L 43.3832,-33.5253 L 43.4853,-33.7718 L 43.6247,-33.9992 L 43.7979,-34.2021 L 44.0008,-34.3753
 L 44.2282,-34.5147 L 44.4747,-34.6168 L 44.7341,-34.6791 L 45,-34.7 L 45.2659,-34.6791 L 45.5253,-34.6168
 L 45.7718,-34.5147 L 45.9992,-34.3753 L 46.2021,-34.2021 L 46.3753,-33.9992 L 46.5147,-33.7718 L 46.6168,-33.5253
 L 46.6791,-33.2659 L 46.7,-33 L 46.6791,-32.7341 L 46.6168,-32.4747 L 46.5147,-32.2282 L 46.3753,-32.0008
 L 46.3747,-32 L 63.6253,-32 L 63.6247,-32.0008 L 63.4853,-32.2282 L 63.3832,-32.4747 L 63.3209,-32.7341
 L 63.3,-33 L 63.3209,-33.2659 L 63.3832,-33.5253 L 63.4853,-33.7718 L 63.6247,-33.9992 L 63.7979,-34.2021
 L 64.0008,-34.3753 L 64.2282,-34.5147 L 64.4747,-34.6168 L 64.7341,-34.6791 L 65,-34.7 L 65.2659,-34.6791
 L 65.5253,-34.6168 L 65.7718,-34.5147 L 65.9992,-34.3753 L 66.2021,-34.2021 L 66.3753,-33.9992 L 66.5147,-33.7718
 L 66.6168,-33.5253 L 66.6791,-33.2659 L 66.7,-33 L 66.6791,-32.7341 L 66.6168,-32.4747 L 66.5147,-32.2282
 L 66.3753,-32.0008 L 66.3747,-32 L 83,-32 L 83,-8 L 66.3746,-8 L 66.3753,-7.99922
 L 66.5147,-7.77177 L 66.6168,-7.52531 L 66.6791,-7.26593 L 66.7,-7 L 66.6791,-6.73405 L 66.6168,-6.47467
 L 66.5147,-6.22821 L 66.3753,-6.00076 L 66.2021,-5.79791 L 65.9992,-5.62466 L 65.7718,-5.48528 L 65.5253,-5.38319
 L 65.2659,-5.32092 L 65,-5.29999 z
M 24.8279,-4.91353 L 24.6601,-4.95383 L 24.5006,-5.01988 L 24.3534,-5.11008 L 24.2222,-5.22217 L 24.1101,-5.35342
 L 24.0199,-5.50061 L 23.9538,-5.66008 L 23.9135,-5.82791 L 23.9,-6 L 23.9135,-6.17207 L 23.9538,-6.3399
 L 24.0199,-6.49937 L 24.1101,-6.64656 L 24.2222,-6.77782 L 24.3534,-6.88991 L 24.5006,-6.9801 L 24.6601,-7.04616
 L 24.8279,-7.08646 L 25,-7.09999 L 25.1721,-7.08646 L 25.3399,-7.04616 L 25.4994,-6.9801 L 25.6466,-6.88991
 L 25.7778,-6.77782 L 25.8899,-6.64656 L 25.9801,-6.49937 L 26.0462,-6.3399 L 26.0865,-6.17207 L 26.1,-6
 L 26.0865,-5.82791 L 26.0462,-5.66008 L 25.9801,-5.50061 L 25.8899,-5.35342 L 25.7778,-5.22217 L 25.6466,-5.11008
 L 25.4994,-5.01988 L 25.3399,-4.95383 L 25.1721,-4.91353 L 25,-4.89999 z
M 84.8279,-4.91353 L 84.6601,-4.95383 L 84.5006,-5.01988 L 84.3534,-5.11008 L 84.2222,-5.22217 L 84.1101,-5.35342
 L 84.0199,-5.50061 L 83.9538,-5.66008 L 83.9135,-5.82791 L 83.9,-6 L 83.9135,-6.17207 L 83.9538,-6.3399
 L 84.0199,-6.49937 L 84.1101,-6.64656 L 84.2222,-6.77782 L 84.3534,-6.88991 L 84.5006,-6.9801 L 84.6601,-7.04616
 L 84.8279,-7.08646 L 85,-7.09999 L 85.1721,-7.08646 L 85.3399,-7.04616 L 85.4994,-6.9801 L 85.6466,-6.88991
 L 85.7778,-6.77782 L 85.8899,-6.64656 L 85.9801,-6.49937 L 86.0462,-6.3399 L 86.0865,-6.17207 L 86.1,-6
 L 86.0865,-5.82791 L 86.0462,-5.66008 L 85.9801,-5.50061 L 85.8899,-5.35342 L 85.7778,-5.22217 L 85.6466,-5.11008
 L 85.4994,-5.01988 L 85.3399,-4.95383 L 85.1721,-4.91353 L 85,-4.89999 z
" stroke="black" fill="lightgray" stroke-width="0.5"/>
</svg>
