<?xml version="1.0" standalone="no"?>
<!DOCTYPE svg PUBLIC "-//W3C//DTD SVG 1.1//EN" "http://www.w3.org/Graphics/SVG/1.1/DTD/svg11.dtd">
<svg width="64mm" height="32mm" viewBox="-32 -16 64 32" xmlns="http://www.w3.org/2000/svg" version="1.1">
<title>OpenSCAD Model</title>
<path d="
M 32,-16 L -32,-16 L -32,16 L 32,16 z
M -30.219,-12.6172 L -30.4326,-12.6685 L -30.6356,-12.7526 L -30.8229,-12.8674 L -30.9899,-13.01 L -31.1326,-13.1771
 L -31.2474,-13.3644 L -31.3315,-13.5674 L -31.3828,-13.781 L -31.4,-14 L -31.3828,-14.219 L -31.3315,-14.4326
 L -31.2474,-14.6356 L -31.1326,-14.8229 L -30.9899,-14.9899 L -30.8229,-15.1326 L -30.6356,-15.2474 L -30.4326,-15.3315
 L -30.219,-15.3828 L -30,-15.4 L -29.781,-15.3828 L -29.5674,-15.3315 L -29.3644,-15.2474 L -29.1771,-15.1326
 L -29.01,-14.9899 L -28.8674,-14.8229 L -28.7526,-14.6356 L -28.6685,-14.4326 L -28.6172,-14.219 L -28.6,-14
 L -28.6172,-13.781 L -28.6685,-13.5674 L -28.7526,-13.3644 L -28.8674,-13.1771 L -29.01,-13.01 L -29.1771,-12.8674
 L -29.3644,-12.7526 L -29.5674,-12.6685 L -29.781,-12.6172 L -30,-12.6 z
M 29.781,-12.6172 L 29.5674,-12.6685 L 29.3644,-12.7526 L 29.1771,-12.8674 L 29.01,-13.01 L 28.8674,-13.1771
 L 28.7526,-13.3644 L 28.6685,-13.5674 L 28.6172,-13.781 L 28.6,-14 L 28.6172,-14.219 L 28.6685,-14.4326
 L 28.7526,-14.6356 L 28.8674,-14.8229 L 29.01,-14.9899 L 29.1771,-15.1326 L 29.3644,-15.2474 L 29.5674,-15.3315
 L 29.781,-15.3828 L 30,-15.4 L 30.219,-15.3828 L 30.4326,-15.3315 L 30.6356,-15.2474 L 30.8229,-15.1326
 L 30.9899,-14.9899 L 31.1326,-14.8229 L 31.2474,-14.6356 L 31.3315,-14.4326 L 31.3828,-14.219 L 31.4,-14
 L 31.3828,-13.781 L 31.3315,-13.5674 L 31.2474,-13.3644 L 31.1326,-13.1771 L 30.9899,-13.01 L 30.8229,-12.8674
 L 30.6356,-12.7526 L 30.4326,-12.6685 L 30.219,-12.6172 L 30,-12.6 z
M -30.219,15.3828 L -30.4326,15.3315 L -30.6356,15.2474 L -30.8229,15.1326 L -30.9899,14.9899 L -31.1326,14.8229
 L -31.2474,14.6356 L -31.3315,14.4326 L -31.3828,14.219 L -31.4,14 L -31.3828,13.781 L -31.3315,13.5674
 L -31.2474,13.3644 L -31.1326,13.1771 L -30.9899,13.01 L -30.8229,12.8674 L -30.6356,12.7526 L -30.4326,12.6685
 L -30.219,12.6172 L -30,12.6 L -29.781,12.6172 L -29.5674,12.6685 L -29.3644,12.7526 L -29.1771,12.8674
 L -29.01,13.01 L -28.8674,13.1771 L -28.7526,13.3644 L -28.6685,13.5674 L -28.6172,13.781 L -28.6,14
 L -28.6172,14.219 L -28.6685,14.4326 L -28.7526,14.6356 L -28.8674,14.8229 L -29.01,14.9899 L -29.1771,15.1326
 L -29.3644,15.2474 L -29.5674,15.3315 L -29.781,15.3828 L -30,15.4 z
M 29.781,15.3828 L 29.5674,15.3315 L 29.3644,15.2474 L 29.1771,15.1326 L 29.01,14.9899 L 28.8674,14.8229
 L 28.7526,14.6356 L 28.6685,14.4326 L 28.6172,14.219 L 28.6,14 L 28.6172,13.781 L 28.6685,13.5674
 L 28.7526,13.3644 L 28.8674,13.1771 L 29.01,13.01 L 29.1771,12.8674 L 29.3644,12.7526 L 29.5674,12.6685
 L 29.781,12.6172 L 30,12.6 L 30.219,12.6172 L 30.4326,12.6685 L 30.6356,12.7526 L 30.8229,12.8674
 L 30.9899,13.01 L 31.1326,13.1771 L 31.2474,13.3644 L 31.3315,13.5674 L 31.3828,13.781 L 31.4,14
 L 31.3828,14.219 L 31.3315,14.4326 L 31.2474,14.6356 L 31.1326,14.8229 L 30.9899,14.9899 L 30.8229,15.1326
 L 30.6356,15.2474 L 30.4326,15.3315 L 30.219,15.3828 L 30,15.4 z
" stroke="black" fill="lightgray" stroke-width="0.5"/>
</svg>
