<?xml version="1.0" standalone="no"?>
<!DOCTYPE svg PUBLIC "-//W3C//DTD SVG 1.1//EN" "http://www.w3.org/Graphics/SVG/1.1/DTD/svg11.dtd">
<svg width="246mm" height="202mm" viewBox="0 -202 246 202" xmlns="http://www.w3.org/2000/svg" version="1.1">
<title>OpenSCAD Model</title>
<path d="
M 200,-202 L 136,-202 L 136,-170 L 200,-170 z
M 197.781,-198.617 L 197.567,-198.669 L 197.364,-198.753 L 197.177,-198.867 L 197.01,-199.01 L 196.867,-199.177
 L 196.753,-199.364 L 196.669,-199.567 L 196.617,-199.781 L 196.6,-200 L 196.617,-200.219 L 196.669,-200.433
 L 196.753,-200.636 L 196.867,-200.823 L 197.01,-200.99 L 197.177,-201.133 L 197.364,-201.247 L 197.567,-201.331
 L 197.781,-201.383 L 198,-201.4 L 198.219,-201.383 L 198.433,-201.331 L 198.636,-201.247 L 198.823,-201.133
 L 198.99,-200.99 L 199.133,-200.823 L 199.247,-200.636 L 199.331,-200.433 L 199.383,-200.219 L 199.4,-200
 L 199.383,-199.781 L 199.331,-199.567 L 199.247,-199.364 L 199.133,-199.177 L 198.99,-199.01 L 198.823,-198.867
 L 198.636,-198.753 L 198.433,-198.669 L 198.219,-198.617 L 198,-198.6 z
M 137.781,-198.617 L 137.567,-198.669 L 137.364,-198.753 L 137.177,-198.867 L 137.01,-199.01 L 136.867,-199.177
 L 136.753,-199.364 L 136.669,-199.567 L 136.617,-199.781 L 136.6,-200 L 136.617,-200.219 L 136.669,-200.433
 L 136.753,-200.636 L 136.867,-200.823 L 137.01,-200.99 L 137.177,-201.133 L 137.364,-201.247 L 137.567,-201.331
 L 137.781,-201.383 L 138,-201.4 L 138.219,-201.383 L 138.433,-201.331 L 138.636,-201.247 L 138.823,-201.133
 L 138.99,-200.99 L 139.133,-200.823 L 139.247,-200.636 L 139.331,-200.433 L 139.383,-200.219 L 139.4,-200
 L 139.383,-199.781 L 139.331,-199.567 L 139.247,-199.364 L 139.133,-199.177 L 138.99,-199.01 L 138.823,-198.867
 L 138.636,-198.753 L 138.433,-198.669 L 138.219,-198.617 L 138,-198.6 z
M 197.781,-170.617 L 197.567,-170.669 L 197.364,-170.753 L 197.177,-170.867 L 197.01,-171.01 L 196.867,-171.177
 L 196.753,-171.364 L 196.669,-171.567 L 196.617,-171.781 L 196.6,-172 L 196.617,-172.219 L 196.669,-172.433
 L 196.753,-172.636 L 196.867,-172.823 L 197.01,-172.99 L 197.177,-173.133 L 197.364,-173.247 L 197.567,-173.331
 L 197.781,-173.383 L 198,-173.4 L 198.219,-173.383 L 198.433,-173.331 L 198.636,-173.247 L 198.823,-173.133
 L 198.99,-172.99 L 199.133,-172.823 L 199.247,-172.636 L 199.331,-172.433 L 199.383,-172.219 L 199.4,-172
 L 199.383,-171.781 L 199.331,-171.567 L 199.247,-171.364 L 199.133,-171.177 L 198.99,-171.01 L 198.823,-170.867
 L 198.636,-170.753 L 198.433,-170.669 L 198.219,-170.617 L 198,-170.6 z
M 137.781,-170.617 L 137.567,-170.669 L 137.364,-170.753 L 137.177,-170.867 L 137.01,-171.01 L 136.867,-171.177
 L 136.753,-171.364 L 136.669,-171.567 L 136.617,-171.781 L 136.6,-172 L 136.617,-172.219 L 136.669,-172.433
 L 136.753,-172.636 L 136.867,-172.823 L 137.01,-172.99 L 137.177,-173.133 L 137.364,-173.247 L 137.567,-173.331
 L 137.781,-173.383 L 138,-173.4 L 138.219,-173.383 L 138.433,-173.331 L 138.636,-173.247 L 138.823,-173.133
 L 138.99,-172.99 L 139.133,-172.823 L 139.247,-172.636 L 139.331,-172.433 L 139.383,-172.219 L 139.4,-172
 L 139.383,-171.781 L 139.331,-171.567 L 139.247,-171.364 L 139.133,-171.177 L 138.99,-171.01 L 138.823,-170.867
 L 138.636,-170.753 L 138.433,-170.669 L 138.219,-170.617 L 138,-170.6 z
M 152.001,-86.1247 L 151.798,-86.2979 L 151.625,-86.5008 L 151.485,-86.7282 L 151.383,-86.9747 L 151.321,-87.2341
 L 151.3,-87.5 L 151.321,-87.7659 L 151.383,-88.0253 L 151.485,-88.2718 L 151.625,-88.4992 L 151.798,-88.7021
 L 152.001,-88.8753 L 152.228,-89.0147 L 152.475,-89.1168 L 152.734,-89.1791 L 153,-89.2 L 153.266,-89.1791
 L 153.525,-89.1168 L 153.772,-89.0147 L 153.999,-88.8753 L 154.202,-88.7021 L 154.375,-88.4992 L 154.515,-88.2718
 L 154.617,-88.0253 L 154.679,-87.7659 L 154.7,-87.5 L 154.679,-87.2341 L 154.617,-86.9747 L 154.515,-86.7282
 L 154.375,-86.5008 L 154.202,-86.2979 L 153.999,-86.1247 L 153.796,-86 L 228.204,-86 L 228.001,-86.1247
 L 227.798,-86.2979 L 227.625,-86.5008 L 227.485,-86.7282 L 227.383,-86.9747 L 227.321,-87.2341 L 227.3,-87.5
 L 227.321,-87.7659 L 227.383,-88.0253 L 227.485,-88.2718 L 227.625,-88.4992 L 227.798,-88.7021 L 228.001,-88.8753
 L 228.228,-89.0147 L 228.475,-89.1168 L 228.734,-89.1791 L 229,-89.2 L 229.266,-89.1791 L 229.525,-89.1168
 L 229.772,-89.0147 L 229.999,-88.8753 L 230.202,-88.7021 L 230.375,-88.4992 L 230.515,-88.2718 L 230.617,-88.0253
 L 230.679,-87.7659 L 230.7,-87.5 L 230.679,-87.2341 L 230.617,-86.9747 L 230.515,-86.7282 L 230.375,-86.5008
 L 230.202,-86.2979 L 229.999,-86.1247 L 229.796,-86 L 246,-86 L 246,-164 L 229.796,-164
 L 229.999,-163.875 L 230.202,-163.702 L 230.375,-163.499 L 230.515,-163.272 L 230.617,-163.025 L 230.679,-162.766
 L 230.7,-162.5 L 230.679,-162.234 L 230.617,-161.975 L 230.515,-161.728 L 230.375,-161.501 L 230.202,-161.298
 L 229.999,-161.125 L 229.772,-160.985 L 229.525,-160.883 L 229.266,-160.821 L 229,-160.8 L 228.734,-160.821
 L 228.475,-160.883 L 228.228,-160.985 L 228.001,-161.125 L 227.798,-161.298 L 227.625,-161.501 L 227.485,-161.728
 L 227.383,-161.975 L 227.321,-162.234 L 227.3,-162.5 L 227.321,-162.766 L 227.383,-163.025 L 227.485,-163.272
 L 227.625,-163.499 L 227.798,-163.702 L 228.001,-163.875 L 228.204,-164 L 153.796,-164 L 153.999,-163.875
 L 154.202,-163.702 L 154.375,-163.499 L 154.515,-163.272 L 154.617,-163.025 L 154.679,-162.766 L 154.7,-162.5
 L 154.679,-162.234 L 154.617,-161.975 L 154.515,-161.728 L 154.375,-161.501 L 154.202,-161.298 L 153.999,-161.125
 L 153.772,-160.985 L 153.525,-160.883 L 153.266,-160.821 L 153,-160.8 L 152.734,-160.821 L 152.475,-160.883
 L 152.228,-160.985 L 152.001,-161.125 L 151.798,-161.298 L 151.625,-161.501 L 151.485,-161.728 L 151.383,-161.975
 L 151.321,-162.234 L 151.3,-162.5 L 151.321,-162.766 L 151.383,-163.025 L 151.485,-163.272 L 151.625,-163.499
 L 151.798,-163.702 L 152.001,-163.875 L 152.204,-164 L 136,-164 L 136,-86 L 152.204,-86
 z
M 47,-89 L 59,-89 L 59,-86 L 79,-86 L 79,-89 L 91,-89
 L 91,-86 L 111,-86 L 111,-89 L 121,-89 L 121,-97 L 124,-97
 L 124,-117 L 121,-117 L 121,-133 L 124,-133 L 124,-153 L 121,-153
 L 121,-161 L 111,-161 L 111,-164 L 91,-164 L 91,-161 L 79,-161
 L 79,-164 L 59,-164 L 59,-161 L 47,-161 L 47,-164 L 27,-164
 L 27,-161 L 17,-161 L 17,-153 L 14,-153 L 14,-133 L 17,-133
 L 17,-117 L 14,-117 L 14,-97 L 17,-97 L 17,-89 L 27,-89
 L 27,-86 L 47,-86 z
M 99,-127 L 99,-151 L 102,-151 L 102,-127 z
M 91,-127 L 91,-151 L 94,-151 L 94,-127 z
M 83,-127 L 83,-151 L 86,-151 L 86,-127 z
M 75,-127 L 75,-151 L 78,-151 L 78,-127 z
M 107,-127 L 107,-151 L 110,-151 L 110,-127 z
M 88.1123,-146.465 L 87.9292,-146.509 L 87.7552,-146.581 L 87.5947,-146.679 L 87.4515,-146.801 L 87.3292,-146.945
 L 87.2308,-147.105 L 87.1587,-147.279 L 87.1148,-147.462 L 87.1,-147.65 L 87.1148,-147.838 L 87.1587,-148.021
 L 87.2308,-148.195 L 87.3292,-148.355 L 87.4515,-148.499 L 87.5947,-148.621 L 87.7552,-148.719 L 87.9292,-148.791
 L 88.1123,-148.835 L 88.3,-148.85 L 88.4877,-148.835 L 88.6708,-148.791 L 88.8448,-148.719 L 89.0053,-148.621
 L 89.1485,-148.499 L 89.2708,-148.355 L 89.3692,-148.195 L 89.4413,-148.021 L 89.4852,-147.838 L 89.5,-147.65
 L 89.4852,-147.462 L 89.4413,-147.279 L 89.3692,-147.105 L 89.2708,-146.945 L 89.1485,-146.801 L 89.0053,-146.679
 L 88.8448,-146.581 L 88.6708,-146.509 L 88.4877,-146.465 L 88.3,-146.45 z
M 113.512,-146.465 L 113.329,-146.509 L 113.155,-146.581 L 112.995,-146.679 L 112.851,-146.801 L 112.729,-146.945
 L 112.631,-147.105 L 112.559,-147.279 L 112.515,-147.462 L 112.5,-147.65 L 112.515,-147.838 L 112.559,-148.021
 L 112.631,-148.195 L 112.729,-148.355 L 112.851,-148.499 L 112.995,-148.621 L 113.155,-148.719 L 113.329,-148.791
 L 113.512,-148.835 L 113.7,-148.85 L 113.888,-148.835 L 114.071,-148.791 L 114.245,-148.719 L 114.405,-148.621
 L 114.549,-148.499 L 114.671,-148.355 L 114.769,-148.195 L 114.841,-148.021 L 114.885,-147.838 L 114.9,-147.65
 L 114.885,-147.462 L 114.841,-147.279 L 114.769,-147.105 L 114.671,-146.945 L 114.549,-146.801 L 114.405,-146.679
 L 114.245,-146.581 L 114.071,-146.509 L 113.888,-146.465 L 113.7,-146.45 z
M 88.1123,-131.165 L 87.9292,-131.209 L 87.7552,-131.281 L 87.5947,-131.379 L 87.4515,-131.501 L 87.3292,-131.645
 L 87.2308,-131.805 L 87.1587,-131.979 L 87.1148,-132.162 L 87.1,-132.35 L 87.1148,-132.538 L 87.1587,-132.721
 L 87.2308,-132.895 L 87.3292,-133.055 L 87.4515,-133.199 L 87.5947,-133.321 L 87.7552,-133.419 L 87.9292,-133.491
 L 88.1123,-133.535 L 88.3,-133.55 L 88.4877,-133.535 L 88.6708,-133.491 L 88.8448,-133.419 L 89.0053,-133.321
 L 89.1485,-133.199 L 89.2708,-133.055 L 89.3692,-132.895 L 89.4413,-132.721 L 89.4852,-132.538 L 89.5,-132.35
 L 89.4852,-132.162 L 89.4413,-131.979 L 89.3692,-131.805 L 89.2708,-131.645 L 89.1485,-131.501 L 89.0053,-131.379
 L 88.8448,-131.281 L 88.6708,-131.209 L 88.4877,-131.165 L 88.3,-131.15 z
M 113.512,-131.165 L 113.329,-131.209 L 113.155,-131.281 L 112.995,-131.379 L 112.851,-131.501 L 112.729,-131.645
 L 112.631,-131.805 L 112.559,-131.979 L 112.515,-132.162 L 112.5,-132.35 L 112.515,-132.538 L 112.559,-132.721
 L 112.631,-132.895 L 112.729,-133.055 L 112.851,-133.199 L 112.995,-133.321 L 113.155,-133.419 L 113.329,-133.491
 L 113.512,-133.535 L 113.7,-133.55 L 113.888,-133.535 L 114.071,-133.491 L 114.245,-133.419 L 114.405,-133.321
 L 114.549,-133.199 L 114.671,-133.055 L 114.769,-132.895 L 114.841,-132.721 L 114.885,-132.538 L 114.9,-132.35
 L 114.885,-132.162 L 114.841,-131.979 L 114.769,-131.805 L 114.671,-131.645 L 114.549,-131.501 L 114.405,-131.379
 L 114.245,-131.281 L 114.071,-131.209 L 113.888,-131.165 L 113.7,-131.15 z
M 31.7329,-94.9997 L 30.4969,-95.2964 L 29.3227,-95.7828 L 28.2389,-96.447 L 27.2724,-97.2724 L 26.447,-98.2389
 L 25.7828,-99.3227 L 25.2964,-100.497 L 24.9997,-101.733 L 24.9,-103 L 24.9997,-104.267 L 25.2964,-105.503
 L 25.7828,-106.677 L 26.447,-107.761 L 27.2724,-108.728 L 28.2389,-109.553 L 29.3227,-110.217 L 30.4969,-110.704
 L 31.7329,-111 L 33,-111.1 L 34.2671,-111 L 35.503,-110.704 L 36.6773,-110.217 L 37.761,-109.553
 L 38.7276,-108.728 L 39.553,-107.761 L 40.2171,-106.677 L 40.7036,-105.503 L 41.0003,-104.267 L 41.1,-103
 L 41.0003,-101.733 L 40.7036,-100.497 L 40.2171,-99.3227 L 39.553,-98.2389 L 38.7276,-97.2724 L 37.761,-96.447
 L 36.6773,-95.7828 L 35.503,-95.2964 L 34.2671,-94.9997 L 33,-94.9 z
M 90.0457,-96.9751 L 89.115,-97.1985 L 88.2307,-97.5648 L 87.4145,-98.065 L 86.6866,-98.6866 L 86.065,-99.4145
 L 85.5648,-100.231 L 85.1985,-101.115 L 84.9751,-102.046 L 84.9,-103 L 84.9751,-103.954 L 85.1985,-104.885
 L 85.5648,-105.769 L 86.065,-106.585 L 86.6866,-107.313 L 87.4145,-107.935 L 88.2307,-108.435 L 89.115,-108.801
 L 90.0457,-109.025 L 91,-109.1 L 91.9542,-109.025 L 92.885,-108.801 L 93.7693,-108.435 L 94.5855,-107.935
 L 95.3133,-107.313 L 95.935,-106.585 L 96.4351,-105.769 L 96.8014,-104.885 L 97.0249,-103.954 L 97.1,-103
 L 97.0249,-102.046 L 96.8014,-101.115 L 96.4351,-100.231 L 95.935,-99.4145 L 95.3133,-98.6866 L 94.5855,-98.065
 L 93.7693,-97.5648 L 92.885,-97.1985 L 91.9542,-96.9751 L 91,-96.9 z
M 72.0457,-96.9751 L 71.115,-97.1985 L 70.2307,-97.5648 L 69.4145,-98.065 L 68.6866,-98.6866 L 68.065,-99.4145
 L 67.5648,-100.231 L 67.1985,-101.115 L 66.9751,-102.046 L 66.9,-103 L 66.9751,-103.954 L 67.1985,-104.885
 L 67.5648,-105.769 L 68.065,-106.585 L 68.6866,-107.313 L 69.4145,-107.935 L 70.2307,-108.435 L 71.115,-108.801
 L 72.0457,-109.025 L 73,-109.1 L 73.9542,-109.025 L 74.885,-108.801 L 75.7693,-108.435 L 76.5855,-107.935
 L 77.3133,-107.313 L 77.935,-106.585 L 78.4351,-105.769 L 78.8014,-104.885 L 79.0249,-103.954 L 79.1,-103
 L 79.0249,-102.046 L 78.8014,-101.115 L 78.4351,-100.231 L 77.935,-99.4145 L 77.3133,-98.6866 L 76.5855,-98.065
 L 75.7693,-97.5648 L 74.885,-97.1985 L 73.9542,-96.9751 L 73,-96.9 z
M 54.0457,-96.9751 L 53.115,-97.1985 L 52.2307,-97.5648 L 51.4145,-98.065 L 50.6866,-98.6866 L 50.065,-99.4145
 L 49.5648,-100.231 L 49.1985,-101.115 L 48.9751,-102.046 L 48.9,-103 L 48.9751,-103.954 L 49.1985,-104.885
 L 49.5648,-105.769 L 50.065,-106.585 L 50.6866,-107.313 L 51.4145,-107.935 L 52.2307,-108.435 L 53.115,-108.801
 L 54.0457,-109.025 L 55,-109.1 L 55.9542,-109.025 L 56.885,-108.801 L 57.7693,-108.435 L 58.5855,-107.935
 L 59.3133,-107.313 L 59.935,-106.585 L 60.4351,-105.769 L 60.8014,-104.885 L 61.0249,-103.954 L 61.1,-103
 L 61.0249,-102.046 L 60.8014,-101.115 L 60.4351,-100.231 L 59.935,-99.4145 L 59.3133,-98.6866 L 58.5855,-98.065
 L 57.7693,-97.5648 L 56.885,-97.1985 L 55.9542,-96.9751 L 55,-96.9 z
M 27,-46 L 47,-46 L 47,-43 L 59,-43 L 59,-46 L 79,-46
 L 79,-43 L 91,-43 L 91,-46 L 111,-46 L 111,-43 L 124,-43
 L 124,-50.4 L 120.99,-50.4 L 120.99,-57.8 L 124.01,-57.8 L 124.01,-57 L 136,-57
 L 136,-50.4 L 139.01,-50.4 L 139.01,-43 L 147,-43 L 147,-46 L 167,-46
 L 167,-43 L 183,-43 L 183,-46 L 203,-46 L 203,-43 L 210.99,-43
 L 210.99,-50.4 L 214,-50.4 L 214,-57.8 L 210.99,-57.8 L 210.99,-65.2 L 214,-65.2
 L 214,-72.6 L 210.99,-72.6 L 210.99,-80 L 139.01,-80 L 139.01,-72.6 L 138,-72.6
 L 138,-73 L 124,-73 L 124,-80 L 108.7,-80 L 108.7,-71 L 109.85,-71
 L 109.85,-68.3 L 108.7,-68.3 L 108.7,-66 L 105.3,-66 L 105.3,-68.3 L 104.15,-68.3
 L 104.15,-71 L 85,-71 L 85,-75 L 105.3,-75 L 105.3,-80 L 32.7,-80
 L 32.7,-75 L 53,-75 L 53,-71 L 33.85,-71 L 33.85,-68.3 L 32.7,-68.3
 L 32.7,-66 L 29.3,-66 L 29.3,-68.3 L 28.15,-68.3 L 28.15,-71 L 29.3,-71
 L 29.3,-80 L 14,-80 L 14,-73 L 0,-73 L 0,-57 L 13.99,-57
 L 13.99,-57.8 L 17.01,-57.8 L 17.01,-50.4 L 14,-50.4 L 14,-43 L 27,-43
 z
M 197.492,-68.79 L 196.996,-68.9091 L 196.525,-69.1042 L 196.09,-69.3707 L 195.702,-69.7019 L 195.371,-70.0897
 L 195.104,-70.5245 L 194.909,-70.9957 L 194.79,-71.4916 L 194.75,-72 L 194.79,-72.5084 L 194.909,-73.0043
 L 195.104,-73.4755 L 195.371,-73.9103 L 195.702,-74.2981 L 196.09,-74.6293 L 196.525,-74.8958 L 196.996,-75.0909
 L 197.492,-75.21 L 198,-75.25 L 198.508,-75.21 L 199.004,-75.0909 L 199.475,-74.8958 L 199.91,-74.6293
 L 200.298,-74.2981 L 200.629,-73.9103 L 200.896,-73.4755 L 201.091,-73.0043 L 201.21,-72.5084 L 201.25,-72
 L 201.21,-71.4916 L 201.091,-70.9957 L 200.896,-70.5245 L 200.629,-70.0897 L 200.298,-69.7019 L 199.91,-69.3707
 L 199.475,-69.1042 L 199.004,-68.9091 L 198.508,-68.79 L 198,-68.75 z
M 120.99,-65.2 L 120.99,-72.6 L 124.01,-72.6 L 124.01,-65.2 z
M 13.99,-65.2 L 13.99,-72.6 L 17.01,-72.6 L 17.01,-65.2 z
M 130.609,-62.5308 L 130.227,-62.6223 L 129.865,-62.7725 L 129.531,-62.9774 L 129.232,-63.2322 L 128.977,-63.5305
 L 128.772,-63.865 L 128.622,-64.2274 L 128.531,-64.6089 L 128.5,-65 L 128.531,-65.3911 L 128.622,-65.7725
 L 128.772,-66.135 L 128.977,-66.4695 L 129.232,-66.7678 L 129.531,-67.0225 L 129.865,-67.2275 L 130.227,-67.3776
 L 130.609,-67.4692 L 131,-67.5 L 131.391,-67.4692 L 131.773,-67.3776 L 132.135,-67.2275 L 132.469,-67.0225
 L 132.768,-66.7678 L 133.023,-66.4695 L 133.228,-66.135 L 133.378,-65.7725 L 133.469,-65.3911 L 133.5,-65
 L 133.469,-64.6089 L 133.378,-64.2274 L 133.228,-63.865 L 133.023,-63.5305 L 132.768,-63.2322 L 132.469,-62.9774
 L 132.135,-62.7725 L 131.773,-62.6223 L 131.391,-62.5308 L 131,-62.5 z
M 6.60892,-62.5308 L 6.22746,-62.6223 L 5.86504,-62.7725 L 5.53055,-62.9774 L 5.23224,-63.2322 L 4.97746,-63.5305
 L 4.77249,-63.865 L 4.62236,-64.2274 L 4.53079,-64.6089 L 4.5,-65 L 4.53079,-65.3911 L 4.62236,-65.7725
 L 4.77249,-66.135 L 4.97746,-66.4695 L 5.23224,-66.7678 L 5.53055,-67.0225 L 5.86504,-67.2275 L 6.22746,-67.3776
 L 6.60892,-67.4692 L 7,-67.5 L 7.3911,-67.4692 L 7.77255,-67.3776 L 8.13498,-67.2275 L 8.46947,-67.0225
 L 8.76778,-66.7678 L 9.02255,-66.4695 L 9.22752,-66.135 L 9.37766,-65.7725 L 9.46922,-65.3911 L 9.5,-65
 L 9.46922,-64.6089 L 9.37766,-64.2274 L 9.22752,-63.865 L 9.02255,-63.5305 L 8.76778,-63.2322 L 8.46947,-62.9774
 L 8.13498,-62.7725 L 7.77255,-62.6223 L 7.3911,-62.5308 L 7,-62.5 z
M 138,-65.2 L 139.01,-65.2 L 139.01,-57.8 L 138,-57.8 z
M 183.492,-53.79 L 182.996,-53.9091 L 182.525,-54.1042 L 182.09,-54.3707 L 181.702,-54.7019 L 181.371,-55.0897
 L 181.104,-55.5245 L 180.909,-55.9957 L 180.79,-56.4916 L 180.75,-57 L 180.79,-57.5084 L 180.909,-58.0043
 L 181.104,-58.4755 L 181.371,-58.9103 L 181.702,-59.2981 L 182.09,-59.6293 L 182.525,-59.8958 L 182.996,-60.0909
 L 183.492,-60.21 L 184,-60.25 L 184.508,-60.21 L 185.004,-60.0909 L 185.475,-59.8958 L 185.91,-59.6293
 L 186.298,-59.2981 L 186.629,-58.9103 L 186.896,-58.4755 L 187.091,-58.0043 L 187.21,-57.5084 L 187.25,-57
 L 187.21,-56.4916 L 187.091,-55.9957 L 186.896,-55.5245 L 186.629,-55.0897 L 186.298,-54.7019 L 185.91,-54.3707
 L 185.475,-54.1042 L 185.004,-53.9091 L 184.508,-53.79 L 184,-53.75 z
M 147,-48 L 147,-52 L 157,-52 L 157,-48 z
M 27,-3 L 47,-3 L 47,-0 L 59,-0 L 59,-3 L 79,-3
 L 79,-0 L 91,-0 L 91,-3 L 111,-3 L 111,-0 L 124,-0
 L 124,-7.39999 L 120.99,-7.39999 L 120.99,-14.8 L 124,-14.8 L 124,-22.2 L 120.99,-22.2
 L 120.99,-29.6 L 124,-29.6 L 124,-37 L 108.7,-37 L 108.7,-28 L 109.85,-28
 L 109.85,-25.3 L 108.7,-25.3 L 108.7,-23 L 105.3,-23 L 105.3,-25.3 L 104.15,-25.3
 L 104.15,-28 L 105.3,-28 L 105.3,-37 L 32.7,-37 L 32.7,-28 L 33.85,-28
 L 33.85,-25.3 L 32.7,-25.3 L 32.7,-23 L 29.3,-23 L 29.3,-25.3 L 28.15,-25.3
 L 28.15,-28 L 29.3,-28 L 29.3,-37 L 14,-37 L 14,-29.6 L 17.01,-29.6
 L 17.01,-22.2 L 14,-22.2 L 14,-14.8 L 17.01,-14.8 L 17.01,-7.39999 L 14,-7.39999
 L 14,-0 L 27,-0 z
M 38.8279,-32.9135 L 38.6601,-32.9538 L 38.5006,-33.0199 L 38.3534,-33.1101 L 38.2222,-33.2222 L 38.1101,-33.3534
 L 38.0199,-33.5006 L 37.9538,-33.6601 L 37.9135,-33.8279 L 37.9,-34 L 37.9135,-34.1721 L 37.9538,-34.3399
 L 38.0199,-34.4994 L 38.1101,-34.6466 L 38.2222,-34.7778 L 38.3534,-34.8899 L 38.5006,-34.9801 L 38.6601,-35.0462
 L 38.8279,-35.0865 L 39,-35.1 L 39.1721,-35.0865 L 39.3399,-35.0462 L 39.4994,-34.9801 L 39.6466,-34.8899
 L 39.7778,-34.7778 L 39.8899,-34.6466 L 39.9801,-34.4994 L 40.0462,-34.3399 L 40.0865,-34.1721 L 40.1,-34
 L 40.0865,-33.8279 L 40.0462,-33.6601 L 39.9801,-33.5006 L 39.8899,-33.3534 L 39.7778,-33.2222 L 39.6466,-33.1101
 L 39.4994,-33.0199 L 39.3399,-32.9538 L 39.1721,-32.9135 L 39,-32.9 z
M 98.8279,-32.9135 L 98.6601,-32.9538 L 98.5006,-33.0199 L 98.3534,-33.1101 L 98.2222,-33.2222 L 98.1101,-33.3534
 L 98.0199,-33.5006 L 97.9538,-33.6601 L 97.9135,-33.8279 L 97.9,-34 L 97.9135,-34.1721 L 97.9538,-34.3399
 L 98.0199,-34.4994 L 98.1101,-34.6466 L 98.2222,-34.7778 L 98.3534,-34.8899 L 98.5006,-34.9801 L 98.6601,-35.0462
 L 98.8279,-35.0865 L 99,-35.1 L 99.1721,-35.0865 L 99.3399,-35.0462 L 99.4994,-34.9801 L 99.6466,-34.8899
 L 99.7778,-34.7778 L 99.8899,-34.6466 L 99.9801,-34.4994 L 100.046,-34.3399 L 100.086,-34.1721 L 100.1,-34
 L 100.086,-33.8279 L 100.046,-33.6601 L 99.9801,-33.5006 L 99.8899,-33.3534 L 99.7778,-33.2222 L 99.6466,-33.1101
 L 99.4994,-33.0199 L 99.3399,-32.9538 L 99.1721,-32.9135 L 99,-32.9 z
M 78.7341,-5.32092 L 78.4747,-5.38319 L 78.2282,-5.48528 L 78.0008,-5.62466 L 77.7979,-5.79791 L 77.6247,-6.00076
 L 77.4853,-6.22821 L 77.3832,-6.47467 L 77.3209,-6.73405 L 77.3,-7 L 77.3209,-7.26593 L 77.3832,-7.52531
 L 77.4853,-7.77177 L 77.6247,-7.99922 L 77.6253,-8 L 60.3746,-8 L 60.3753,-7.99922 L 60.5147,-7.77177
 L 60.6168,-7.52531 L 60.6791,-7.26593 L 60.7,-7 L 60.6791,-6.73405 L 60.6168,-6.47467 L 60.5147,-6.22821
 L 60.3753,-6.00076 L 60.2021,-5.79791 L 59.9992,-5.62466 L 59.7718,-5.48528 L 59.5253,-5.38319 L 59.2659,-5.32092
 L 59,-5.29999 L 58.7341,-5.32092 L 58.4747,-5.38319 L 58.2282,-5.48528 L 58.0008,-5.62466 L 57.7979,-5.79791
 L 57.6247,-6.00076 L 57.4853,-6.22821 L 57.3832,-6.47467 L 57.3209,-6.73405 L 57.3,-7 L 57.3209,-7.26593
 L 57.3832,-7.52531 L 57.4853,-7.77177 L 57.6247,-7.99922 L 57.6253,-8 L 41,-8 L 41,-32
 L 57.6253,-32 L 57.6247,-32.0008 L 57.4853,-32.2282 L 57.3832,-32.4747 L 57.3209,-32.7341 L 57.3,-33
 L 57.3209,-33.2659 L 57.3832,-33.5253 L 57.4853,-33.7718 L 57.6247,-33.9992 L 57.7979,-34.2021 L 58.0008,-34.3753
 L 58.2282,-34.5147 L 58.4747,-34.6168 L 58.7341,-34.6791 L 59,-34.7 L 59.2659,-34.6791 L 59.5253,-34.6168
 L 59.7718,-34.5147 L 59.9992,-34.3753 L 60.2021,-34.2021 L 60.3753,-33.9992 L 60.5147,-33.7718 L 60.6168,-33.5253
 L 60.6791,-33.2659 L 60.7,-33 L 60.6791,-32.7341 L 60.6168,-32.4747 L 60.5147,-32.2282 L 60.3753,-32.0008
 L 60.3747,-32 L 77.6253,-32 L 77.6247,-32.0008 L 77.4853,-32.2282 L 77.3832,-32.4747 L 77.3209,-32.7341
 L 77.3,-33 L 77.3209,-33.2659 L 77.3832,-33.5253 L 77.4853,-33.7718 L 77.6247,-33.9992 L 77.7979,-34.2021
 L 78.0008,-34.3753 L 78.2282,-34.5147 L 78.4747,-34.6168 L 78.7341,-34.6791 L 79,-34.7 L 79.2659,-34.6791
 L 79.5253,-34.6168 L 79.7718,-34.5147 L 79.9992,-34.3753 L 80.2021,-34.2021 L 80.3753,-33.9992 L 80.5147,-33.7718
 L 80.6168,-33.5253 L 80.6791,-33.2659 L 80.7,-33 L 80.6791,-32.7341 L 80.6168,-32.4747 L 80.5147,-32.2282
 L 80.3753,-32.0008 L 80.3747,-32 L 97,-32 L 97,-8 L 80.3746,-8 L 80.3753,-7.99922
 L 80.5147,-7.77177 L 80.6168,-7.52531 L 80.6791,-7.26593 L 80.7,-7 L 80.6791,-6.73405 L 80.6168,-6.47467
 L 80.5147,-6.22821 L 80.3753,-6.00076 L 80.2021,-5.79791 L 79.9992,-5.62466 L 79.7718,-5.48528 L 79.5253,-5.38319
 L 79.2659,-5.32092 L 79,-5.29999 z
M 98.8279,-4.91353 L 98.6601,-4.95383 L 98.5006,-5.01988 L 98.3534,-5.11008 L 98.2222,-5.22217 L 98.1101,-5.35342
 L 98.0199,-5.50061 L 97.9538,-5.66008 L 97.9135,-5.82791 L 97.9,-6 L 97.9135,-6.17207 L 97.9538,-6.3399
 L 98.0199,-6.49937 L 98.1101,-6.64656 L 98.2222,-6.77782 L 98.3534,-6.88991 L 98.5006,-6.9801 L 98.6601,-7.04616
 L 98.8279,-7.08646 L 99,-7.09999 L 99.1721,-7.08646 L 99.3399,-7.04616 L 99.4994,-6.9801 L 99.6466,-6.88991
 L 99.7778,-6.77782 L 99.8899,-6.64656 L 99.9801,-6.49937 L 100.046,-6.3399 L 100.086,-6.17207 L 100.1,-6
 L 100.086,-5.82791 L 100.046,-5.66008 L 99.9801,-5.50061 L 99.8899,-5.35342 L 99.7778,-5.22217 L 99.6466,-5.11008
 L 99.4994,-5.01988 L 99.3399,-4.95383 L 99.1721,-4.91353 L 99,-4.89999 z
M 38.8279,-4.91353 L 38.6601,-4.95383 L 38.5006,-5.01988 L 38.3534,-5.11008 L 38.2222,-5.22217 L 38.1101,-5.35342
 L 38.0199,-5.50061 L 37.9538,-5.66008 L 37.9135,-5.82791 L 37.9,-6 L 37.9135,-6.17207 L 37.9538,-6.3399
 L 38.0199,-6.49937 L 38.1101,-6.64656 L 38.2222,-6.77782 L 38.3534,-6.88991 L 38.5006,-6.9801 L 38.6601,-7.04616
 L 38.8279,-7.08646 L 39,-7.09999 L 39.1721,-7.08646 L 39.3399,-7.04616 L 39.4994,-6.9801 L 39.6466,-6.88991
 L 39.7778,-6.77782 L 39.8899,-6.64656 L 39.9801,-6.49937 L 40.0462,-6.3399 L 40.0865,-6.17207 L 40.1,-6
 L 40.0865,-5.82791 L 40.0462,-5.66008 L 39.9801,-5.50061 L 39.8899,-5.35342 L 39.7778,-5.22217 L 39.6466,-5.11008
 L 39.4994,-5.01988 L 39.3399,-4.95383 L 39.1721,-4.91353 L 39,-4.89999 z
M 147,-3 L 167,-3 L 167,-0 L 183,-0 L 183,-3 L 203,-3
 L 203,-0 L 210.99,-0 L 210.99,-7.39999 L 214,-7.39999 L 214,-14.8 L 210.99,-14.8
 L 210.99,-22.2 L 214,-22.2 L 214,-29.6 L 210.99,-29.6 L 210.99,-37 L 139.01,-37
 L 139.01,-29.6 L 136,-29.6 L 136,-22.2 L 139.01,-22.2 L 139.01,-14.8 L 136,-14.8
 L 136,-7.39999 L 139.01,-7.39999 L 139.01,-0 L 147,-0 z
" stroke="black" fill="lightgray" stroke-width="0.5"/>
</svg>
