<svg xmlns="http://www.w3.org/2000/svg" version="1.1" width="246mm" height="202mm" viewBox="0 -202 246 202">
<g id="cut" fill="none" stroke="#000000" stroke-width="0.2">
<path d="
M 200,-202 L 136,-202 L 136,-170 L 200,-170 z
M 246,-164 L 136,-164 L 136,-86 L 246,-86 z
M 47,-89 L 59,-89 L 59,-86 L 79,-86 L 79,-89 L 91,-89
 L 91,-86 L 111,-86 L 111,-89 L 121,-89 L 121,-97 L 124,-97
 L 124,-117 L 121,-117 L 121,-133 L 124,-133 L 124,-153 L 121,-153
 L 121,-161 L 111,-161 L 111,-164 L 91,-164 L 91,-161 L 79,-161
 L 79,-164 L 59,-164 L 59,-161 L 47,-161 L 47,-164 L 27,-164
 L 27,-161 L 17,-161 L 17,-153 L 14,-153 L 14,-133 L 17,-133
 L 17,-117 L 14,-117 L 14,-97 L 17,-97 L 17,-89 L 27,-89
 L 27,-86 L 47,-86 z
M 27,-46 L 47,-46 L 47,-43 L 59,-43 L 59,-46 L 79,-46
 L 79,-43 L 91,-43 L 91,-46 L 111,-46 L 111,-43 L 124,-43
 L 124,-50.4 L 120.99,-50.4 L 120.99,-57.8 L 124.01,-57.8 L 124.01,-57 L 136,-57
 L 136,-50.4 L 139.01,-50.4 L 139.01,-43 L 147,-43 L 147,-46 L 167,-46
 L 167,-43 L 183,-43 L 183,-46 L 203,-46 L 203,-43 L 210.99,-43
 L 210.99,-50.4 L 214,-50.4 L 214,-57.8 L 210.99,-57.8 L 210.99,-65.2 L 214,-65.2
 L 214,-72.6 L 210.99,-72.6 L 210.99,-80 L 139.01,-80 L 139.01,-72.6 L 138,-72.6
 L 138,-73 L 124,-73 L 124,-80 L 14,-80 L 14,-73 L 0,-73
 L 0,-57 L 13.99,-57 L 13.99,-57.8 L 17.01,-57.8 L 17.01,-50.4 L 14,-50.4
 L 14,-43 L 27,-43 z
M 39.5,-49.5 L 39.5,-73.5 L 44.5,-73.5 L 44.5,-49.5 z
M 93.5,-49.5 L 93.5,-73.5 L 98.5,-73.5 L 98.5,-49.5 z
M 120.99,-65.2 L 120.99,-72.6 L 124.01,-72.6 L 124.01,-65.2 z
M 13.99,-65.2 L 13.99,-72.6 L 17.01,-72.6 L 17.01,-65.2 z
M 138,-65.2 L 139.01,-65.2 L 139.01,-57.8 L 138,-57.8 z
M 27,-3 L 47,-3 L 47,-0 L 59,-0 L 59,-3 L 79,-3
 L 79,-0 L 91,-0 L 91,-3 L 111,-3 L 111,-0 L 124,-0
 L 124,-7.39999 L 120.99,-7.39999 L 120.99,-14.8 L 124,-14.8 L 124,-22.2 L 120.99,-22.2
 L 120.99,-29.6 L 124,-29.6 L 124,-37 L 14,-37 L 14,-29.6 L 17.01,-29.6
 L 17.01,-22.2 L 14,-22.2 L 14,-14.8 L 17.01,-14.8 L 17.01,-7.39999 L 14,-7.39999
 L 14,-0 L 27,-0 z
M 41,-8 L 41,-32 L 97,-32 L 97,-8 z
M 147,-3 L 167,-3 L 167,-0 L 183,-0 L 183,-3 L 203,-3
 L 203,-0 L 210.99,-0 L 210.99,-7.39999 L 214,-7.39999 L 214,-14.8 L 210.99,-14.8
 L 210.99,-22.2 L 214,-22.2 L 214,-29.6 L 210.99,-29.6 L 210.99,-37 L 139.01,-37
 L 139.01,-29.6 L 136,-29.6 L 136,-22.2 L 139.01,-22.2 L 139.01,-14.8 L 136,-14.8
 L 136,-7.39999 L 139.01,-7.39999 L 139.01,-0 L 147,-0 z
"/>
</g>
<g id="etch" fill="#ff0000" stroke="#ff0000" stroke-width="0.1">
<path d="
M 198.25,-199.75 L 200,-199.75 L 200,-200.25 L 198.25,-200.25 L 198.25,-202 L 197.75,-202
 L 197.75,-200.25 L 196,-200.25 L 196,-199.75 L 197.75,-199.75 L 197.75,-198 L 198.25,-198
 z
M 138.25,-199.75 L 140,-199.75 L 140,-200.25 L 138.25,-200.25 L 138.25,-202 L 137.75,-202
 L 137.75,-200.25 L 136,-200.25 L 136,-199.75 L 137.75,-199.75 L 137.75,-198 L 138.25,-198
 z
M 176,-194 L 160,-194 L 160,-178 L 176,-178 z
M 160.4,-178.4 L 160.4,-193.6 L 175.6,-193.6 L 175.6,-178.4 z
M 198.25,-171.75 L 200,-171.75 L 200,-172.25 L 198.25,-172.25 L 198.25,-174 L 197.75,-174
 L 197.75,-172.25 L 196,-172.25 L 196,-171.75 L 197.75,-171.75 L 197.75,-170 L 198.25,-170
 z
M 138.25,-171.75 L 140,-171.75 L 140,-172.25 L 138.25,-172.25 L 138.25,-174 L 137.75,-174
 L 137.75,-172.25 L 136,-172.25 L 136,-171.75 L 137.75,-171.75 L 137.75,-170 L 138.25,-170
 z
M 234.25,-162.25 L 235.5,-162.25 L 235.5,-162.75 L 234.25,-162.75 L 234.25,-164 L 233.75,-164
 L 233.75,-162.75 L 232.5,-162.75 L 232.5,-162.25 L 233.75,-162.25 L 233.75,-161 L 234.25,-161
 z
M 148.25,-162.25 L 149.5,-162.25 L 149.5,-162.75 L 148.25,-162.75 L 148.25,-164 L 147.75,-164
 L 147.75,-162.75 L 146.5,-162.75 L 146.5,-162.25 L 147.75,-162.25 L 147.75,-161 L 148.25,-161
 z
M 104.451,-153.469 L 104.601,-153.487 L 104.744,-153.517 L 104.879,-153.559 L 105.007,-153.613 L 105.127,-153.679
 L 105.238,-153.757 L 105.34,-153.848 L 105.433,-153.951 L 105.516,-154.067 L 105.59,-154.196 L 105.655,-154.337
 L 105.097,-154.548 L 105.012,-154.37 L 104.908,-154.225 L 104.783,-154.111 L 104.639,-154.031 L 104.476,-153.982
 L 104.292,-153.966 L 104.153,-153.974 L 104.024,-153.997 L 103.907,-154.035 L 103.802,-154.089 L 103.708,-154.159
 L 103.625,-154.244 L 103.554,-154.343 L 103.497,-154.457 L 103.452,-154.584 L 103.42,-154.725 L 103.4,-154.88
 L 103.394,-155.049 L 103.4,-155.215 L 103.419,-155.367 L 103.45,-155.505 L 103.494,-155.629 L 103.55,-155.74
 L 103.619,-155.837 L 103.699,-155.919 L 103.792,-155.986 L 103.896,-156.038 L 104.011,-156.076 L 104.138,-156.098
 L 104.277,-156.106 L 104.37,-156.102 L 104.458,-156.091 L 104.543,-156.072 L 104.623,-156.045 L 104.699,-156.011
 L 104.771,-155.97 L 104.837,-155.922 L 104.895,-155.869 L 104.946,-155.811 L 104.989,-155.747 L 105.024,-155.678
 L 105.052,-155.604 L 105.616,-155.758 L 105.565,-155.892 L 105.502,-156.015 L 105.429,-156.127 L 105.344,-156.227
 L 105.248,-156.316 L 105.141,-156.393 L 105.022,-156.459 L 104.893,-156.513 L 104.752,-156.555 L 104.601,-156.585
 L 104.438,-156.603 L 104.264,-156.609 L 104.028,-156.598 L 103.811,-156.564 L 103.614,-156.508 L 103.436,-156.43
 L 103.277,-156.329 L 103.138,-156.205 L 103.019,-156.061 L 102.922,-155.898 L 102.847,-155.715 L 102.793,-155.512
 L 102.76,-155.29 L 102.749,-155.049 L 102.761,-154.808 L 102.794,-154.585 L 102.85,-154.381 L 102.928,-154.196
 L 103.029,-154.029 L 103.152,-153.88 L 103.296,-153.753 L 103.458,-153.648 L 103.638,-153.567 L 103.838,-153.509
 L 104.056,-153.474 L 104.292,-153.463 z
M 100.455,-154.287 L 101.62,-154.287 L 101.891,-153.506 L 102.525,-153.506 L 101.414,-156.564 L 100.659,-156.564
 L 99.5435,-153.506 L 100.184,-153.506 z
M 100.598,-154.769 L 100.704,-155.077 L 100.792,-155.335 L 100.863,-155.543 L 100.916,-155.701 L 100.953,-155.809
 L 100.971,-155.867 L 100.981,-155.9 L 100.991,-155.931 L 101,-155.961 L 101.008,-155.99 L 101.016,-156.018
 L 101.023,-156.045 L 101.036,-156.093 L 101.082,-155.943 L 101.175,-155.648 L 101.477,-154.769 z
M 97.976,-153.511 L 98.1138,-153.527 L 98.2462,-153.553 L 98.3732,-153.589 L 98.4946,-153.636 L 98.6105,-153.693
 L 98.7195,-153.759 L 98.8198,-153.835 L 98.9116,-153.921 L 98.9949,-154.015 L 99.0695,-154.119 L 99.1357,-154.232
 L 99.1924,-154.353 L 99.2388,-154.48 L 99.2748,-154.615 L 99.3006,-154.756 L 99.3161,-154.903 L 99.3212,-155.058
 L 99.3095,-155.29 L 99.2742,-155.505 L 99.2154,-155.7 L 99.1331,-155.877 L 99.0273,-156.035 L 98.898,-156.174
 L 98.7473,-156.293 L 98.5771,-156.39 L 98.3876,-156.466 L 98.1786,-156.52 L 97.9502,-156.553 L 97.7024,-156.564
 L 96.5957,-156.564 L 96.5957,-153.506 L 97.8326,-153.506 z
M 97.2358,-154.001 L 97.2358,-156.069 L 97.6894,-156.069 L 97.8417,-156.062 L 97.9818,-156.04 L 98.1098,-156.004
 L 98.2256,-155.954 L 98.3292,-155.889 L 98.4207,-155.809 L 98.4989,-155.717 L 98.5629,-155.611 L 98.6127,-155.492
 L 98.6483,-155.36 L 98.6696,-155.215 L 98.6767,-155.058 L 98.67,-154.9 L 98.6497,-154.755 L 98.616,-154.62
 L 98.5687,-154.497 L 98.5079,-154.385 L 98.4337,-154.285 L 98.348,-154.198 L 98.2529,-154.127 L 98.1483,-154.072
 L 98.0344,-154.032 L 97.9111,-154.009 L 97.7783,-154.001 z
M 116.25,-150.5 L 85.75,-150.5 L 85.75,-129.5 L 116.25,-129.5 z
M 86.15,-129.9 L 86.15,-150.1 L 115.85,-150.1 L 115.85,-129.9 z
M 113.95,-147.4 L 115.45,-147.4 L 115.45,-147.9 L 113.95,-147.9 L 113.95,-149.4 L 113.45,-149.4
 L 113.45,-147.9 L 111.95,-147.9 L 111.95,-147.4 L 113.45,-147.4 L 113.45,-145.9 L 113.95,-145.9
 z
M 88.55,-147.4 L 90.05,-147.4 L 90.05,-147.9 L 88.55,-147.9 L 88.55,-149.4 L 88.05,-149.4
 L 88.05,-147.9 L 86.55,-147.9 L 86.55,-147.4 L 88.05,-147.4 L 88.05,-145.9 L 88.55,-145.9
 z
M 113.95,-132.1 L 115.45,-132.1 L 115.45,-132.6 L 113.95,-132.6 L 113.95,-134.1 L 113.45,-134.1
 L 113.45,-132.6 L 111.95,-132.6 L 111.95,-132.1 L 113.45,-132.1 L 113.45,-130.6 L 113.95,-130.6
 z
M 88.55,-132.1 L 90.05,-132.1 L 90.05,-132.6 L 88.55,-132.6 L 88.55,-134.1 L 88.05,-134.1
 L 88.05,-132.6 L 86.55,-132.6 L 86.55,-132.1 L 88.05,-132.1 L 88.05,-130.6 L 88.55,-130.6
 z
M 91.9542,-96.9751 L 92.885,-97.1986 L 93.7693,-97.5649 L 94.5855,-98.065 L 95.3133,-98.6867 L 95.935,-99.4145
 L 96.4351,-100.231 L 96.7952,-101.1 L 117.7,-101.1 L 117.7,-118.9 L 96.3,-118.9 L 96.3,-105.99
 L 95.935,-106.585 L 95.3133,-107.313 L 94.5855,-107.935 L 93.7693,-108.435 L 92.885,-108.801 L 91.9542,-109.025
 L 91,-109.1 L 90.0458,-109.025 L 89.115,-108.801 L 88.2307,-108.435 L 87.4145,-107.935 L 86.6867,-107.313
 L 86.065,-106.585 L 85.5649,-105.769 L 85.1986,-104.885 L 84.9751,-103.954 L 84.9,-103 L 84.9751,-102.046
 L 85.1986,-101.115 L 85.5649,-100.231 L 86.065,-99.4145 L 86.6867,-98.6867 L 87.4145,-98.065 L 88.2307,-97.5649
 L 89.115,-97.1986 L 90.0458,-96.9751 L 91,-96.9 z
M 96.8939,-101.5 L 97.0249,-102.046 L 97.1,-103 L 97.0249,-103.954 L 96.8014,-104.885 L 96.7,-105.13
 L 96.7,-118.5 L 117.3,-118.5 L 117.3,-101.5 z
M 110.566,-108.564 L 110.703,-108.579 L 110.834,-108.604 L 110.959,-108.639 L 111.078,-108.684 L 111.191,-108.739
 L 111.297,-108.803 L 111.394,-108.877 L 111.483,-108.959 L 111.563,-109.05 L 111.635,-109.15 L 111.698,-109.259
 L 111.752,-109.375 L 111.796,-109.497 L 111.831,-109.625 L 111.855,-109.759 L 111.87,-109.9 L 111.875,-110.046
 L 111.864,-110.265 L 111.832,-110.468 L 111.779,-110.655 L 111.704,-110.825 L 111.608,-110.98 L 111.491,-111.118
 L 111.355,-111.237 L 111.203,-111.335 L 111.033,-111.411 L 110.848,-111.465 L 110.645,-111.498 L 110.426,-111.509
 L 110.207,-111.498 L 110.005,-111.466 L 109.82,-111.412 L 109.651,-111.337 L 109.498,-111.24 L 109.362,-111.122
 L 109.245,-110.985 L 109.15,-110.831 L 109.076,-110.66 L 109.022,-110.472 L 108.991,-110.267 L 108.98,-110.046
 L 108.991,-109.823 L 109.022,-109.617 L 109.076,-109.428 L 109.15,-109.254 L 109.246,-109.097 L 109.363,-108.956
 L 109.499,-108.835 L 109.651,-108.735 L 109.82,-108.658 L 110.004,-108.603 L 110.205,-108.57 L 110.422,-108.559
 z
M 110.297,-109.038 L 110.181,-109.061 L 110.075,-109.099 L 109.977,-109.151 L 109.888,-109.219 L 109.809,-109.302
 L 109.74,-109.398 L 109.684,-109.506 L 109.64,-109.624 L 109.609,-109.753 L 109.59,-109.894 L 109.584,-110.046
 L 109.59,-110.196 L 109.609,-110.335 L 109.639,-110.462 L 109.682,-110.578 L 109.737,-110.682 L 109.804,-110.775
 L 109.882,-110.855 L 109.971,-110.92 L 110.069,-110.971 L 110.178,-111.007 L 110.297,-111.029 L 110.426,-111.037
 L 110.554,-111.029 L 110.671,-111.007 L 110.779,-110.971 L 110.877,-110.919 L 110.965,-110.854 L 111.043,-110.773
 L 111.11,-110.68 L 111.165,-110.575 L 111.208,-110.46 L 111.238,-110.333 L 111.256,-110.195 L 111.262,-110.046
 L 111.256,-109.89 L 111.238,-109.746 L 111.208,-109.615 L 111.165,-109.496 L 111.111,-109.389 L 111.044,-109.295
 L 110.966,-109.214 L 110.878,-109.148 L 110.779,-109.097 L 110.67,-109.06 L 110.551,-109.038 L 110.422,-109.031
 z
M 103.418,-109.741 L 104.138,-108.599 L 104.768,-108.599 L 103.814,-110.107 L 104.685,-111.466 L 104.054,-111.466
 L 103.418,-110.453 L 102.781,-111.466 L 102.146,-111.466 L 103.055,-110.107 L 102.063,-108.599 L 102.697,-108.599
 z
M 105.619,-111.466 L 105.019,-111.466 L 105.019,-108.599 L 105.619,-108.599 z
M 106.829,-109.332 L 107.921,-109.332 L 108.175,-108.599 L 108.769,-108.599 L 107.728,-111.466 L 107.02,-111.466
 L 105.974,-108.599 L 106.574,-108.599 z
M 106.963,-109.783 L 107.062,-110.072 L 107.145,-110.314 L 107.211,-110.509 L 107.261,-110.657 L 107.295,-110.758
 L 107.313,-110.813 L 107.322,-110.843 L 107.331,-110.873 L 107.339,-110.901 L 107.347,-110.928 L 107.355,-110.955
 L 107.362,-110.98 L 107.374,-111.024 L 107.417,-110.884 L 107.504,-110.607 L 107.787,-109.783 z
M 90.1083,-97.3702 L 89.2386,-97.579 L 88.4123,-97.9213 L 87.6496,-98.3886 L 86.9695,-98.9695 L 86.3886,-99.6496
 L 85.9213,-100.412 L 85.579,-101.239 L 85.3702,-102.108 L 85.3,-103 L 85.3702,-103.892 L 85.579,-104.761
 L 85.9213,-105.588 L 86.3886,-106.35 L 86.9695,-107.031 L 87.6496,-107.611 L 88.4123,-108.079 L 89.2386,-108.421
 L 90.1083,-108.63 L 91,-108.7 L 91.8917,-108.63 L 92.7614,-108.421 L 93.5877,-108.079 L 94.3504,-107.611
 L 95.0305,-107.031 L 95.6114,-106.35 L 96.0787,-105.588 L 96.3,-105.054 L 96.3,-101.1 L 96.3636,-101.1
 L 96.0787,-100.412 L 95.6114,-99.6496 L 95.0305,-98.9695 L 94.3504,-98.3886 L 93.5877,-97.9213 L 92.7614,-97.579
 L 91.8917,-97.3702 L 91,-97.3 z
M 75.4124,-113.01 L 73.9932,-113.01 L 74.0152,-113.057 L 74.0408,-113.102 L 74.0699,-113.147 L 74.1026,-113.191
 L 74.1389,-113.233 L 74.1787,-113.275 L 74.2211,-113.316 L 74.2649,-113.357 L 74.3103,-113.398 L 74.3571,-113.439
 L 74.4055,-113.48 L 74.4554,-113.52 L 74.5063,-113.561 L 74.5577,-113.602 L 74.6097,-113.643 L 74.6623,-113.685
 L 74.7153,-113.727 L 74.769,-113.77 L 74.822,-113.813 L 74.8735,-113.857 L 74.9233,-113.902 L 74.9715,-113.949
 L 75.0181,-113.996 L 75.063,-114.044 L 75.1058,-114.094 L 75.146,-114.145 L 75.1834,-114.198 L 75.2183,-114.252
 L 75.2505,-114.307 L 75.28,-114.364 L 75.3058,-114.423 L 75.327,-114.485 L 75.3435,-114.548 L 75.3552,-114.614
 L 75.3623,-114.682 L 75.3646,-114.753 L 75.3573,-114.884 L 75.3352,-115.004 L 75.2984,-115.115 L 75.247,-115.216
 L 75.1808,-115.306 L 75.0999,-115.386 L 75.0053,-115.455 L 74.8978,-115.512 L 74.7776,-115.556 L 74.6447,-115.587
 L 74.4989,-115.606 L 74.3404,-115.612 L 74.1931,-115.606 L 74.0565,-115.587 L 73.9305,-115.556 L 73.8152,-115.513
 L 73.7106,-115.457 L 73.6167,-115.389 L 73.534,-115.308 L 73.4632,-115.217 L 73.4043,-115.115 L 73.3573,-115.001
 L 73.3221,-114.876 L 73.2988,-114.74 L 73.9129,-114.705 L 73.925,-114.772 L 73.9412,-114.834 L 73.9615,-114.889
 L 73.9857,-114.939 L 74.014,-114.983 L 74.0464,-115.021 L 74.0833,-115.053 L 74.1253,-115.079 L 74.1725,-115.1
 L 74.2248,-115.114 L 74.2822,-115.123 L 74.3447,-115.126 L 74.4674,-115.115 L 74.5677,-115.082 L 74.6458,-115.026
 L 74.7016,-114.949 L 74.735,-114.849 L 74.7462,-114.727 L 74.7426,-114.672 L 74.7318,-114.617 L 74.7139,-114.562
 L 74.6888,-114.507 L 74.6565,-114.451 L 74.6171,-114.395 L 74.5687,-114.336 L 74.5096,-114.272 L 74.4399,-114.203
 L 74.3596,-114.129 L 74.2685,-114.049 L 74.1668,-113.965 L 74.0585,-113.875 L 73.9566,-113.787 L 73.8611,-113.699
 L 73.7718,-113.613 L 73.6889,-113.528 L 73.6124,-113.444 L 73.5417,-113.361 L 73.4767,-113.276 L 73.4173,-113.191
 L 73.3635,-113.106 L 73.3153,-113.019 L 73.2728,-112.932 L 73.2728,-112.509 L 75.4124,-112.509 z
M 80.5453,-112.466 L 80.699,-112.485 L 80.8394,-112.518 L 80.9666,-112.563 L 81.0805,-112.622 L 81.1812,-112.693
 L 81.2674,-112.777 L 81.3379,-112.871 L 81.3928,-112.977 L 81.4319,-113.093 L 81.4554,-113.22 L 81.4633,-113.357
 L 81.458,-113.453 L 81.4422,-113.543 L 81.4158,-113.626 L 81.3789,-113.704 L 81.3314,-113.776 L 81.2734,-113.842
 L 81.2056,-113.902 L 81.1289,-113.953 L 81.0431,-113.995 L 80.9484,-114.03 L 80.8447,-114.056 L 80.732,-114.074
 L 80.732,-114.082 L 80.8335,-114.106 L 80.9267,-114.136 L 81.0117,-114.174 L 81.0884,-114.218 L 81.1568,-114.269
 L 81.217,-114.327 L 81.2684,-114.392 L 81.3104,-114.462 L 81.3431,-114.537 L 81.3665,-114.619 L 81.3805,-114.706
 L 81.3852,-114.798 L 81.3777,-114.921 L 81.3551,-115.035 L 81.3176,-115.139 L 81.2651,-115.234 L 81.1976,-115.32
 L 81.115,-115.396 L 81.0191,-115.462 L 80.9116,-115.516 L 80.7925,-115.558 L 80.6617,-115.588 L 80.5193,-115.606
 L 80.3653,-115.612 L 80.2196,-115.606 L 80.0834,-115.587 L 79.9568,-115.556 L 79.8396,-115.513 L 79.732,-115.457
 L 79.634,-115.389 L 79.5471,-115.309 L 79.4732,-115.221 L 79.4121,-115.122 L 79.364,-115.014 L 79.3287,-114.897
 L 79.3063,-114.77 L 79.9161,-114.727 L 79.9246,-114.788 L 79.9386,-114.844 L 79.9581,-114.896 L 79.9831,-114.943
 L 80.0136,-114.985 L 80.0495,-115.022 L 80.0902,-115.054 L 80.135,-115.08 L 80.1838,-115.1 L 80.2366,-115.114
 L 80.2935,-115.123 L 80.3544,-115.126 L 80.419,-115.123 L 80.4782,-115.114 L 80.5321,-115.099 L 80.5806,-115.078
 L 80.6237,-115.051 L 80.6615,-115.019 L 80.6936,-114.981 L 80.72,-114.938 L 80.7404,-114.891 L 80.7551,-114.839
 L 80.7638,-114.783 L 80.7667,-114.722 L 80.7631,-114.658 L 80.752,-114.6 L 80.7336,-114.546 L 80.7079,-114.497
 L 80.6748,-114.454 L 80.6344,-114.415 L 80.5866,-114.383 L 80.5316,-114.356 L 80.4694,-114.335 L 80.4,-114.32
 L 80.3233,-114.311 L 80.2394,-114.308 L 80.0398,-114.308 L 80.0398,-113.815 L 80.2524,-113.815 L 80.3454,-113.812
 L 80.4304,-113.803 L 80.5074,-113.788 L 80.5765,-113.767 L 80.6376,-113.74 L 80.6908,-113.707 L 80.7359,-113.668
 L 80.7728,-113.624 L 80.8014,-113.574 L 80.8219,-113.52 L 80.8342,-113.46 L 80.8383,-113.394 L 80.8349,-113.323
 L 80.8248,-113.258 L 80.8079,-113.2 L 80.7843,-113.147 L 80.7539,-113.102 L 80.7168,-113.062 L 80.6736,-113.029
 L 80.6249,-113.002 L 80.5709,-112.981 L 80.5114,-112.966 L 80.4465,-112.957 L 80.3761,-112.954 L 80.2392,-112.966
 L 80.1237,-113.003 L 80.0295,-113.064 L 79.9566,-113.15 L 79.9051,-113.26 L 79.8749,-113.394 L 79.2542,-113.34
 L 79.2776,-113.203 L 79.3143,-113.077 L 79.3644,-112.963 L 79.4278,-112.859 L 79.5047,-112.767 L 79.5949,-112.686
 L 79.6975,-112.617 L 79.8112,-112.56 L 79.9362,-112.516 L 80.0723,-112.484 L 80.2197,-112.465 L 80.3783,-112.459
 z
M 66.307,-112.47 L 66.4463,-112.481 L 66.5836,-112.501 L 66.7187,-112.528 L 66.8517,-112.564 L 66.9826,-112.607
 L 67.1083,-112.657 L 67.226,-112.713 L 67.3355,-112.775 L 67.4368,-112.843 L 67.53,-112.917 L 67.6151,-112.997
 L 67.6151,-114.121 L 66.2827,-114.121 L 66.2827,-113.648 L 67.0292,-113.648 L 67.0292,-113.225 L 66.9836,-113.189
 L 66.9321,-113.154 L 66.8746,-113.122 L 66.8113,-113.092 L 66.742,-113.065 L 66.6668,-113.04 L 66.5883,-113.017
 L 66.5089,-112.999 L 66.4287,-112.985 L 66.3476,-112.975 L 66.2657,-112.969 L 66.1829,-112.967 L 66.0423,-112.975
 L 65.9125,-112.998 L 65.7937,-113.038 L 65.6858,-113.093 L 65.5888,-113.164 L 65.5027,-113.25 L 65.4287,-113.351
 L 65.3682,-113.465 L 65.3212,-113.592 L 65.2876,-113.732 L 65.2674,-113.886 L 65.2607,-114.052 L 65.2672,-114.215
 L 65.2867,-114.366 L 65.3193,-114.503 L 65.3649,-114.627 L 65.4234,-114.738 L 65.495,-114.835 L 65.5792,-114.919
 L 65.6754,-114.987 L 65.7836,-115.04 L 65.904,-115.078 L 66.0363,-115.101 L 66.1808,-115.109 L 66.2706,-115.105
 L 66.3565,-115.095 L 66.4384,-115.079 L 66.5164,-115.056 L 66.5903,-115.026 L 66.6603,-114.989 L 66.7253,-114.946
 L 66.7843,-114.897 L 66.8372,-114.842 L 66.8841,-114.78 L 66.925,-114.712 L 66.9598,-114.638 L 67.55,-114.816
 L 67.4306,-115.059 L 67.2677,-115.258 L 67.0612,-115.413 L 66.8113,-115.524 L 66.5178,-115.59 L 66.1808,-115.612
 L 65.9382,-115.601 L 65.7152,-115.567 L 65.5119,-115.511 L 65.3282,-115.433 L 65.1642,-115.333 L 65.0198,-115.21
 L 64.8965,-115.066 L 64.7956,-114.902 L 64.7171,-114.719 L 64.661,-114.516 L 64.6274,-114.294 L 64.6162,-114.052
 L 64.6273,-113.808 L 64.6608,-113.584 L 64.7166,-113.379 L 64.7946,-113.193 L 64.895,-113.026 L 65.0176,-112.879
 L 65.161,-112.753 L 65.3236,-112.649 L 65.5053,-112.569 L 65.7063,-112.512 L 65.9263,-112.477 L 66.1656,-112.466
 z
M 37.5727,-112.47 L 37.7159,-112.493 L 37.8476,-112.532 L 37.9677,-112.586 L 38.0762,-112.656 L 38.1731,-112.74
 L 38.2566,-112.839 L 38.325,-112.949 L 38.3781,-113.071 L 38.4161,-113.204 L 38.4389,-113.349 L 38.4465,-113.506
 L 38.4399,-113.65 L 38.42,-113.784 L 38.3868,-113.907 L 38.3404,-114.019 L 38.2807,-114.122 L 38.2078,-114.214
 L 38.1235,-114.293 L 38.0296,-114.358 L 37.9263,-114.409 L 37.8134,-114.445 L 37.6909,-114.467 L 37.559,-114.474
 L 37.4872,-114.472 L 37.4179,-114.465 L 37.3512,-114.452 L 37.287,-114.436 L 37.2253,-114.414 L 37.1662,-114.387
 L 37.1105,-114.356 L 37.0589,-114.321 L 37.0116,-114.282 L 36.9685,-114.238 L 36.9296,-114.19 L 36.8949,-114.138
 L 36.8988,-114.297 L 36.9105,-114.442 L 36.9299,-114.573 L 36.9572,-114.69 L 36.9921,-114.793 L 37.0349,-114.882
 L 37.0845,-114.957 L 37.1399,-115.018 L 37.2012,-115.066 L 37.2683,-115.1 L 37.3413,-115.121 L 37.4201,-115.127
 L 37.5099,-115.119 L 37.5884,-115.094 L 37.6555,-115.052 L 37.7114,-114.993 L 37.7558,-114.918 L 37.789,-114.826
 L 38.364,-114.906 L 38.3293,-115.021 L 38.2873,-115.125 L 38.2379,-115.219 L 38.1813,-115.302 L 38.1174,-115.375
 L 38.0461,-115.438 L 37.9667,-115.49 L 37.8782,-115.533 L 37.7806,-115.566 L 37.6739,-115.59 L 37.558,-115.604
 L 37.4331,-115.609 L 37.2579,-115.598 L 37.0966,-115.563 L 36.9495,-115.506 L 36.8163,-115.425 L 36.6973,-115.322
 L 36.5922,-115.196 L 36.5024,-115.047 L 36.4289,-114.875 L 36.3717,-114.681 L 36.3309,-114.465 L 36.3064,-114.226
 L 36.2982,-113.964 L 36.3063,-113.726 L 36.3304,-113.509 L 36.3706,-113.311 L 36.427,-113.134 L 36.4994,-112.978
 L 36.5879,-112.841 L 36.6914,-112.726 L 36.8089,-112.631 L 36.9403,-112.557 L 37.0856,-112.505 L 37.2448,-112.473
 L 37.4179,-112.463 z
M 37.3319,-112.943 L 37.2698,-112.957 L 37.2121,-112.982 L 37.1588,-113.015 L 37.1098,-113.059 L 37.0653,-113.113
 L 37.0265,-113.173 L 36.9948,-113.239 L 36.9701,-113.31 L 36.9525,-113.386 L 36.9419,-113.468 L 36.9384,-113.554
 L 36.9417,-113.623 L 36.9519,-113.687 L 36.9688,-113.746 L 36.9924,-113.801 L 37.0228,-113.851 L 37.0599,-113.896
 L 37.1026,-113.935 L 37.1498,-113.968 L 37.2015,-113.993 L 37.2576,-114.011 L 37.3182,-114.021 L 37.3832,-114.025
 L 37.4509,-114.021 L 37.5135,-114.01 L 37.5712,-113.991 L 37.6238,-113.964 L 37.6715,-113.929 L 37.7141,-113.887
 L 37.7509,-113.838 L 37.781,-113.782 L 37.8045,-113.719 L 37.8212,-113.649 L 37.8312,-113.572 L 37.8346,-113.489
 L 37.8314,-113.406 L 37.8218,-113.329 L 37.8058,-113.259 L 37.7834,-113.194 L 37.7547,-113.136 L 37.7196,-113.084
 L 37.6787,-113.04 L 37.6328,-113.003 L 37.5818,-112.974 L 37.5257,-112.954 L 37.4646,-112.942 L 37.3984,-112.938
 z
M 29.3238,-112.467 L 29.4631,-112.478 L 29.6003,-112.498 L 29.7354,-112.525 L 29.8684,-112.561 L 29.9993,-112.604
 L 30.1251,-112.654 L 30.2428,-112.71 L 30.3522,-112.772 L 30.4536,-112.84 L 30.5468,-112.914 L 30.6319,-112.994
 L 30.6319,-114.118 L 29.2995,-114.118 L 29.2995,-113.645 L 30.046,-113.645 L 30.046,-113.222 L 30.0004,-113.186
 L 29.9489,-113.151 L 29.8914,-113.119 L 29.828,-113.089 L 29.7588,-113.062 L 29.6836,-113.037 L 29.6051,-113.014
 L 29.5257,-112.996 L 29.4455,-112.982 L 29.3644,-112.972 L 29.2825,-112.966 L 29.1997,-112.964 L 29.0591,-112.972
 L 28.9293,-112.995 L 28.8105,-113.035 L 28.7026,-113.09 L 28.6055,-113.161 L 28.5194,-113.247 L 28.4455,-113.348
 L 28.385,-113.462 L 28.338,-113.589 L 28.3044,-113.729 L 28.2842,-113.883 L 28.2775,-114.049 L 28.284,-114.212
 L 28.3035,-114.363 L 28.3361,-114.5 L 28.3816,-114.624 L 28.4402,-114.735 L 28.5118,-114.832 L 28.596,-114.916
 L 28.6922,-114.984 L 28.8004,-115.037 L 28.9207,-115.075 L 29.0531,-115.098 L 29.1975,-115.106 L 29.2874,-115.102
 L 29.3733,-115.092 L 29.4552,-115.076 L 29.5332,-115.053 L 29.6071,-115.023 L 29.6771,-114.986 L 29.7421,-114.943
 L 29.801,-114.894 L 29.854,-114.839 L 29.9009,-114.777 L 29.9417,-114.709 L 29.9766,-114.635 L 30.5668,-114.813
 L 30.4474,-115.056 L 30.2845,-115.255 L 30.078,-115.41 L 29.828,-115.521 L 29.5346,-115.587 L 29.1975,-115.609
 L 28.9549,-115.598 L 28.732,-115.564 L 28.5286,-115.508 L 28.345,-115.43 L 28.181,-115.33 L 28.0366,-115.207
 L 27.9133,-115.063 L 27.8123,-114.899 L 27.7339,-114.716 L 27.6778,-114.513 L 27.6442,-114.291 L 27.633,-114.049
 L 27.6441,-113.805 L 27.6776,-113.581 L 27.7333,-113.376 L 27.8114,-113.19 L 27.9117,-113.023 L 28.0344,-112.876
 L 28.1778,-112.75 L 28.3404,-112.646 L 28.5221,-112.566 L 28.723,-112.509 L 28.9431,-112.474 L 29.1823,-112.463
 z
M 73.0528,-112.963 L 72.3519,-112.963 L 72.3519,-115.567 L 71.7747,-115.567 L 71.0087,-115.07 L 71.0087,-114.59
 L 71.7421,-115.048 L 71.7421,-112.963 L 70.9848,-112.963 L 70.9848,-112.509 L 73.0528,-112.509 z
M 69.2942,-113.726 L 70.0624,-112.509 L 70.7351,-112.509 L 69.7173,-114.117 L 70.6461,-115.567 L 69.9734,-115.567
 L 69.2942,-114.486 L 68.615,-115.567 L 67.9379,-115.567 L 68.9079,-114.117 L 67.849,-112.509 L 68.526,-112.509
 z
M 32.311,-113.723 L 33.0791,-112.506 L 33.7518,-112.506 L 32.7341,-114.114 L 33.6629,-115.564 L 32.9902,-115.564
 L 32.311,-114.483 L 31.6317,-115.564 L 30.9547,-115.564 L 31.9247,-114.114 L 30.8658,-112.506 L 31.5428,-112.506
 z
M 36.0695,-112.96 L 35.3687,-112.96 L 35.3687,-115.564 L 34.7914,-115.564 L 34.0254,-115.067 L 34.0254,-114.587
 L 34.7589,-115.045 L 34.7589,-112.96 L 34.0016,-112.96 L 34.0016,-112.506 L 36.0695,-112.506 z
M 77.9688,-113.36 L 78.5156,-112.509 L 79.1775,-112.509 L 78.3116,-113.729 L 79.1297,-114.857 L 78.4679,-114.857
 L 77.9688,-114.089 L 77.4675,-114.857 L 76.81,-114.857 L 77.6281,-113.722 L 76.7688,-112.509 L 77.4176,-112.509
 z
M 34.2671,-94.9997 L 35.503,-95.2964 L 36.6773,-95.7829 L 37.761,-96.447 L 38.7276,-97.2724 L 39.553,-98.239
 L 40.2171,-99.3227 L 40.7036,-100.497 L 41.0003,-101.733 L 41.1,-103 L 41.0003,-104.267 L 40.7036,-105.503
 L 40.2171,-106.677 L 39.553,-107.761 L 38.7276,-108.728 L 37.761,-109.553 L 36.6773,-110.217 L 35.503,-110.704
 L 34.2671,-111 L 33,-111.1 L 31.7329,-111 L 30.497,-110.704 L 29.3227,-110.217 L 28.239,-109.553
 L 27.2724,-108.728 L 26.447,-107.761 L 25.7829,-106.677 L 25.2964,-105.503 L 24.9997,-104.267 L 24.9,-103
 L 24.9997,-101.733 L 25.2964,-100.497 L 25.7829,-99.3227 L 26.447,-98.239 L 27.2724,-97.2724 L 28.239,-96.447
 L 29.3227,-95.7829 L 30.497,-95.2964 L 31.7329,-94.9997 L 33,-94.9 z
M 31.7955,-95.3948 L 30.6206,-95.6769 L 29.5043,-96.1393 L 28.4741,-96.7706 L 27.5553,-97.5553 L 26.7706,-98.4741
 L 26.1393,-99.5043 L 25.6769,-100.621 L 25.3948,-101.795 L 25.3,-103 L 25.3948,-104.205 L 25.6769,-105.379
 L 26.1393,-106.496 L 26.7706,-107.526 L 27.5553,-108.445 L 28.4741,-109.229 L 29.5043,-109.861 L 30.6206,-110.323
 L 31.7955,-110.605 L 33,-110.7 L 34.2045,-110.605 L 35.3794,-110.323 L 36.4957,-109.861 L 37.5259,-109.229
 L 38.4447,-108.445 L 39.2294,-107.526 L 39.8607,-106.496 L 40.3231,-105.379 L 40.6052,-104.205 L 40.7,-103
 L 40.6052,-101.795 L 40.3231,-100.621 L 39.8607,-99.5043 L 39.2294,-98.4741 L 38.4447,-97.5553 L 37.5259,-96.7706
 L 36.4957,-96.1393 L 35.3794,-95.6769 L 34.2045,-95.3948 L 33,-95.3 z
M 55.9542,-96.9751 L 56.885,-97.1986 L 57.7693,-97.5649 L 58.5855,-98.065 L 59.3133,-98.6867 L 59.935,-99.4145
 L 60.4351,-100.231 L 60.8014,-101.115 L 61.0249,-102.046 L 61.1,-103 L 61.0249,-103.954 L 60.8014,-104.885
 L 60.4351,-105.769 L 59.935,-106.585 L 59.3133,-107.313 L 58.5855,-107.935 L 57.7693,-108.435 L 56.885,-108.801
 L 55.9542,-109.025 L 55,-109.1 L 54.0458,-109.025 L 53.115,-108.801 L 52.2307,-108.435 L 51.4145,-107.935
 L 50.6867,-107.313 L 50.065,-106.585 L 49.5649,-105.769 L 49.1986,-104.885 L 48.9751,-103.954 L 48.9,-103
 L 48.9751,-102.046 L 49.1986,-101.115 L 49.5649,-100.231 L 50.065,-99.4145 L 50.6867,-98.6867 L 51.4145,-98.065
 L 52.2307,-97.5649 L 53.115,-97.1986 L 54.0458,-96.9751 L 55,-96.9 z
M 54.1083,-97.3702 L 53.2386,-97.579 L 52.4123,-97.9213 L 51.6496,-98.3886 L 50.9695,-98.9695 L 50.3886,-99.6496
 L 49.9213,-100.412 L 49.579,-101.239 L 49.3702,-102.108 L 49.3,-103 L 49.3702,-103.892 L 49.579,-104.761
 L 49.9213,-105.588 L 50.3886,-106.35 L 50.9695,-107.031 L 51.6496,-107.611 L 52.4123,-108.079 L 53.2386,-108.421
 L 54.1083,-108.63 L 55,-108.7 L 55.8917,-108.63 L 56.7614,-108.421 L 57.5877,-108.079 L 58.3504,-107.611
 L 59.0305,-107.031 L 59.6114,-106.35 L 60.0787,-105.588 L 60.421,-104.761 L 60.6298,-103.892 L 60.7,-103
 L 60.6298,-102.108 L 60.421,-101.239 L 60.0787,-100.412 L 59.6114,-99.6496 L 59.0305,-98.9695 L 58.3504,-98.3886
 L 57.5877,-97.9213 L 56.7614,-97.579 L 55.8917,-97.3702 L 55,-97.3 z
M 73.9542,-96.9751 L 74.885,-97.1986 L 75.7693,-97.5649 L 76.5855,-98.065 L 77.3133,-98.6867 L 77.935,-99.4145
 L 78.4351,-100.231 L 78.8014,-101.115 L 79.0249,-102.046 L 79.1,-103 L 79.0249,-103.954 L 78.8014,-104.885
 L 78.4351,-105.769 L 77.935,-106.585 L 77.3133,-107.313 L 76.5855,-107.935 L 75.7693,-108.435 L 74.885,-108.801
 L 73.9542,-109.025 L 73,-109.1 L 72.0458,-109.025 L 71.115,-108.801 L 70.2307,-108.435 L 69.4145,-107.935
 L 68.6867,-107.313 L 68.065,-106.585 L 67.5649,-105.769 L 67.1986,-104.885 L 66.9751,-103.954 L 66.9,-103
 L 66.9751,-102.046 L 67.1986,-101.115 L 67.5649,-100.231 L 68.065,-99.4145 L 68.6867,-98.6867 L 69.4145,-98.065
 L 70.2307,-97.5649 L 71.115,-97.1986 L 72.0458,-96.9751 L 73,-96.9 z
M 72.1083,-97.3702 L 71.2386,-97.579 L 70.4123,-97.9213 L 69.6496,-98.3886 L 68.9695,-98.9695 L 68.3886,-99.6496
 L 67.9213,-100.412 L 67.579,-101.239 L 67.3702,-102.108 L 67.3,-103 L 67.3702,-103.892 L 67.579,-104.761
 L 67.9213,-105.588 L 68.3886,-106.35 L 68.9695,-107.031 L 69.6496,-107.611 L 70.4123,-108.079 L 71.2386,-108.421
 L 72.1083,-108.63 L 73,-108.7 L 73.8917,-108.63 L 74.7614,-108.421 L 75.5877,-108.079 L 76.3504,-107.611
 L 77.0305,-107.031 L 77.6114,-106.35 L 78.0787,-105.588 L 78.421,-104.761 L 78.6298,-103.892 L 78.7,-103
 L 78.6298,-102.108 L 78.421,-101.239 L 78.0787,-100.412 L 77.6114,-99.6496 L 77.0305,-98.9695 L 76.3504,-98.3886
 L 75.5877,-97.9213 L 74.7614,-97.579 L 73.8917,-97.3702 L 73,-97.3 z
M 148.25,-87.25 L 149.5,-87.25 L 149.5,-87.75 L 148.25,-87.75 L 148.25,-89 L 147.75,-89
 L 147.75,-87.75 L 146.5,-87.75 L 146.5,-87.25 L 147.75,-87.25 L 147.75,-86 L 148.25,-86
 z
M 234.25,-87.25 L 235.5,-87.25 L 235.5,-87.75 L 234.25,-87.75 L 234.25,-89 L 233.75,-89
 L 233.75,-87.75 L 232.5,-87.75 L 232.5,-87.25 L 233.75,-87.25 L 233.75,-86 L 234.25,-86
 z
M 198.508,-68.79 L 199.004,-68.9091 L 199.475,-69.1042 L 199.91,-69.3707 L 200.298,-69.7019 L 200.629,-70.0897
 L 200.896,-70.5245 L 201.091,-70.9957 L 201.21,-71.4916 L 201.25,-72 L 201.21,-72.5084 L 201.091,-73.0043
 L 200.896,-73.4755 L 200.629,-73.9103 L 200.298,-74.2981 L 199.91,-74.6293 L 199.475,-74.8958 L 199.004,-75.0909
 L 198.508,-75.21 L 198,-75.25 L 197.492,-75.21 L 196.996,-75.0909 L 196.525,-74.8958 L 196.09,-74.6293
 L 195.702,-74.2981 L 195.371,-73.9103 L 195.104,-73.4755 L 194.909,-73.0043 L 194.79,-72.5084 L 194.75,-72
 L 194.79,-71.4916 L 194.909,-70.9957 L 195.104,-70.5245 L 195.371,-70.0897 L 195.702,-69.7019 L 196.09,-69.3707
 L 196.525,-69.1042 L 196.996,-68.9091 L 197.492,-68.79 L 198,-68.75 z
M 197.554,-69.1851 L 197.119,-69.2895 L 196.706,-69.4606 L 196.325,-69.6943 L 195.985,-69.9848 L 195.694,-70.3248
 L 195.461,-70.7061 L 195.289,-71.1193 L 195.185,-71.5542 L 195.15,-72 L 195.185,-72.4458 L 195.289,-72.8807
 L 195.461,-73.2939 L 195.694,-73.6752 L 195.985,-74.0152 L 196.325,-74.3057 L 196.706,-74.5394 L 197.119,-74.7105
 L 197.554,-74.8149 L 198,-74.85 L 198.446,-74.8149 L 198.881,-74.7105 L 199.294,-74.5394 L 199.675,-74.3057
 L 200.015,-74.0152 L 200.306,-73.6752 L 200.539,-73.2939 L 200.711,-72.8807 L 200.815,-72.4458 L 200.85,-72
 L 200.815,-71.5542 L 200.711,-71.1193 L 200.539,-70.7061 L 200.306,-70.3248 L 200.015,-69.9848 L 199.675,-69.6943
 L 199.294,-69.4606 L 198.881,-69.2895 L 198.446,-69.1851 L 198,-69.15 z
M 131.25,-64.75 L 133.5,-64.75 L 133.5,-65.25 L 131.25,-65.25 L 131.25,-67.5 L 130.75,-67.5
 L 130.75,-65.25 L 128.5,-65.25 L 128.5,-64.75 L 130.75,-64.75 L 130.75,-62.5 L 131.25,-62.5
 z
M 7.25,-64.75 L 9.5,-64.75 L 9.5,-65.25 L 7.25,-65.25 L 7.25,-67.5 L 6.75,-67.5
 L 6.75,-65.25 L 4.5,-65.25 L 4.5,-64.75 L 6.75,-64.75 L 6.75,-62.5 L 7.25,-62.5
 z
M 186.775,-64.7781 L 187.447,-63.7129 L 188.036,-63.7129 L 187.145,-65.1198 L 187.958,-66.3882 L 187.369,-66.3882
 L 186.775,-65.4426 L 186.18,-66.3882 L 185.588,-66.3882 L 186.437,-65.1198 L 185.51,-63.7129 L 186.103,-63.7129
 z
M 184.289,-63.6827 L 184.458,-63.706 L 184.612,-63.7449 L 184.752,-63.7994 L 184.878,-63.8694 L 184.99,-63.955
 L 185.086,-64.0547 L 185.165,-64.1671 L 185.226,-64.2922 L 185.269,-64.4301 L 185.296,-64.5806 L 185.304,-64.7439
 L 185.304,-66.3882 L 184.744,-66.3882 L 184.744,-64.7781 L 184.74,-64.6753 L 184.726,-64.5807 L 184.704,-64.4945
 L 184.672,-64.4165 L 184.632,-64.3468 L 184.583,-64.2853 L 184.525,-64.2328 L 184.46,-64.1899 L 184.387,-64.1565
 L 184.306,-64.1326 L 184.218,-64.1183 L 184.121,-64.1135 L 184.028,-64.1181 L 183.942,-64.1318 L 183.864,-64.1546
 L 183.794,-64.1865 L 183.732,-64.2276 L 183.678,-64.2778 L 183.632,-64.3367 L 183.594,-64.4042 L 183.565,-64.4802
 L 183.544,-64.5647 L 183.531,-64.6577 L 183.527,-64.7591 L 183.527,-66.3882 L 182.967,-66.3882 L 182.967,-64.7154
 L 182.975,-64.5548 L 183,-64.407 L 183.04,-64.2721 L 183.097,-64.15 L 183.171,-64.0408 L 183.26,-63.9445
 L 183.365,-63.8622 L 183.485,-63.7947 L 183.619,-63.7423 L 183.767,-63.7049 L 183.929,-63.6824 L 184.106,-63.6749
 z
M 180.885,-64.3965 L 181.905,-64.3965 L 182.142,-63.7129 L 182.697,-63.7129 L 181.724,-66.3882 L 181.064,-66.3882
 L 180.088,-63.7129 L 180.648,-63.7129 z
M 181.01,-64.818 L 181.103,-65.0872 L 181.18,-65.3129 L 181.242,-65.4949 L 181.289,-65.6331 L 181.321,-65.7278
 L 181.337,-65.7787 L 181.346,-65.8073 L 181.354,-65.8348 L 181.362,-65.8613 L 181.369,-65.8867 L 181.376,-65.9111
 L 181.383,-65.9344 L 181.394,-65.9762 L 181.434,-65.8452 L 181.516,-65.5869 L 181.779,-64.818 z
M 194.992,-63.3772 L 196.011,-63.3772 L 196.249,-62.6936 L 196.803,-62.6936 L 195.831,-65.369 L 195.17,-65.369
 L 194.194,-62.6936 L 194.754,-62.6936 z
M 195.117,-63.7987 L 195.21,-64.068 L 195.287,-64.2936 L 195.349,-64.4756 L 195.396,-64.6139 L 195.427,-64.7085
 L 195.444,-64.7595 L 195.452,-64.788 L 195.461,-64.8156 L 195.468,-64.8421 L 195.476,-64.8675 L 195.483,-64.8918
 L 195.489,-64.9152 L 195.501,-64.9569 L 195.541,-64.8259 L 195.622,-64.5677 L 195.886,-63.7987 z
M 201.05,-64.9361 L 201.916,-64.9361 L 201.916,-65.369 L 199.626,-65.369 L 199.626,-64.9361 L 200.49,-64.9361
 L 200.49,-62.6936 L 201.05,-62.6936 z
M 197.598,-64.2715 L 197.597,-64.3355 L 197.594,-64.4061 L 197.589,-64.4832 L 197.583,-64.5668 L 197.574,-64.657
 L 197.564,-64.7538 L 198.729,-62.6936 L 199.386,-62.6936 L 199.386,-65.369 L 198.889,-65.369 L 198.889,-63.8139
 L 198.89,-63.734 L 198.893,-63.6512 L 198.897,-63.5656 L 198.904,-63.4772 L 198.913,-63.3859 L 198.923,-63.2917
 L 197.74,-65.369 L 197.1,-65.369 L 197.1,-62.6936 L 197.598,-62.6936 z
M 70.1213,-60.66 L 70.253,-60.6758 L 70.3781,-60.702 L 70.4964,-60.7388 L 70.608,-60.786 L 70.713,-60.8437
 L 70.8104,-60.9122 L 70.8998,-60.9917 L 70.9809,-61.0822 L 71.0539,-61.1838 L 71.1187,-61.2964 L 71.1753,-61.42
 L 70.6873,-61.6042 L 70.6129,-61.4487 L 70.5213,-61.3215 L 70.4125,-61.2225 L 70.2865,-61.1518 L 70.1433,-61.1094
 L 69.9829,-61.0953 L 69.8606,-61.102 L 69.7484,-61.1223 L 69.6461,-61.1561 L 69.5538,-61.2033 L 69.4714,-61.2641
 L 69.399,-61.3383 L 69.3372,-61.4254 L 69.2867,-61.5246 L 69.2474,-61.636 L 69.2193,-61.7594 L 69.2024,-61.895
 L 69.1968,-62.0428 L 69.2023,-62.188 L 69.2186,-62.321 L 69.2459,-62.442 L 69.2841,-62.5508 L 69.3333,-62.6474
 L 69.3933,-62.732 L 69.4639,-62.8039 L 69.5447,-62.8628 L 69.6356,-62.9086 L 69.7368,-62.9413 L 69.8481,-62.9609
 L 69.9696,-62.9674 L 70.0507,-62.9641 L 70.1281,-62.9543 L 70.202,-62.9378 L 70.2721,-62.9147 L 70.3387,-62.885
 L 70.4016,-62.8488 L 70.4593,-62.8069 L 70.5103,-62.7605 L 70.5546,-62.7095 L 70.5923,-62.6538 L 70.6232,-62.5936
 L 70.6474,-62.5288 L 71.1411,-62.6636 L 71.0963,-62.7809 L 71.0417,-62.8882 L 70.9773,-62.9857 L 70.9031,-63.0733
 L 70.8191,-63.1511 L 70.7253,-63.219 L 70.6217,-63.2767 L 70.5084,-63.324 L 70.3854,-63.3607 L 70.2527,-63.387
 L 70.1103,-63.4027 L 69.9582,-63.408 L 69.7515,-63.3981 L 69.5618,-63.3687 L 69.389,-63.3197 L 69.2333,-63.251
 L 69.0945,-63.1627 L 68.9727,-63.0548 L 68.8689,-62.9286 L 68.7839,-62.7854 L 68.7178,-62.6252 L 68.6706,-62.448
 L 68.6423,-62.2539 L 68.6329,-62.0428 L 68.6427,-61.8319 L 68.672,-61.6372 L 68.7209,-61.4587 L 68.7894,-61.2964
 L 68.8775,-61.1502 L 68.9851,-61.0203 L 69.1106,-60.9086 L 69.2525,-60.8172 L 69.4106,-60.7462 L 69.5851,-60.6954
 L 69.7758,-60.6649 L 69.9829,-60.6548 z
M 75.5981,-60.6595 L 75.7263,-60.6735 L 75.8488,-60.6968 L 75.9655,-60.7295 L 76.0766,-60.7715 L 76.182,-60.8228
 L 76.2806,-60.883 L 76.3712,-60.9514 L 76.454,-61.0281 L 76.5288,-61.1131 L 76.5958,-61.2064 L 76.6548,-61.308
 L 76.7053,-61.4164 L 76.7466,-61.5305 L 76.7787,-61.6502 L 76.8016,-61.7755 L 76.8154,-61.9063 L 76.82,-62.0428
 L 76.81,-62.2472 L 76.7802,-62.4366 L 76.7305,-62.611 L 76.6609,-62.7702 L 76.5714,-62.9143 L 76.4621,-63.0434
 L 76.335,-63.1548 L 76.1926,-63.2459 L 76.0346,-63.3168 L 75.8612,-63.3674 L 75.6724,-63.3978 L 75.4681,-63.408
 L 75.2638,-63.3979 L 75.075,-63.3679 L 74.9018,-63.3178 L 74.744,-63.2476 L 74.6018,-63.1574 L 74.475,-63.0472
 L 74.366,-62.9191 L 74.2767,-62.7752 L 74.2073,-62.6157 L 74.1577,-62.4404 L 74.128,-62.2495 L 74.1181,-62.0428
 L 74.128,-61.8352 L 74.1578,-61.6429 L 74.2076,-61.4658 L 74.2771,-61.3039 L 74.3666,-61.1573 L 74.476,-61.026
 L 74.6029,-60.9126 L 74.7449,-60.8198 L 74.902,-60.7476 L 75.0743,-60.696 L 75.2617,-60.6651 L 75.4643,-60.6548
 z
M 75.3476,-61.1023 L 75.2395,-61.1234 L 75.1398,-61.1587 L 75.0487,-61.2079 L 74.966,-61.2713 L 74.8918,-61.3488
 L 74.8277,-61.4385 L 74.7753,-61.5385 L 74.7345,-61.649 L 74.7053,-61.7699 L 74.6878,-61.9011 L 74.682,-62.0428
 L 74.6877,-62.183 L 74.7048,-62.3125 L 74.7333,-62.4313 L 74.7731,-62.5394 L 74.8244,-62.6368 L 74.8871,-62.7234
 L 74.9602,-62.798 L 75.0428,-62.859 L 75.1348,-62.9064 L 75.2364,-62.9403 L 75.3475,-62.9607 L 75.4681,-62.9674
 L 75.5869,-62.9606 L 75.6966,-62.9401 L 75.797,-62.906 L 75.8883,-62.8582 L 75.9705,-62.7967 L 76.0434,-62.7215
 L 76.1061,-62.6344 L 76.1573,-62.5368 L 76.1972,-62.4289 L 76.2257,-62.3106 L 76.2428,-62.1819 L 76.2485,-62.0428
 L 76.2428,-61.8973 L 76.2258,-61.7632 L 76.1974,-61.6407 L 76.1577,-61.5297 L 76.1067,-61.4302 L 76.0444,-61.3421
 L 75.9715,-61.2667 L 75.8892,-61.205 L 75.7973,-61.157 L 75.6958,-61.1227 L 75.5848,-61.1021 L 75.4643,-61.0953
 z
M 68.4093,-61.1257 L 66.9738,-61.1257 L 66.9738,-63.3681 L 66.4137,-63.3681 L 66.4137,-60.6928 L 68.4093,-60.6928
 z
M 63.6545,-63.3681 L 63.0754,-63.3681 L 62.5267,-61.6497 L 62.4298,-61.308 L 62.39,-61.1447 L 62.3613,-61.2526
 L 62.3347,-61.351 L 62.3102,-61.4399 L 62.2878,-61.5193 L 62.2676,-61.5893 L 62.2495,-61.6497 L 61.6988,-63.3681
 L 61.114,-63.3681 L 62.1033,-60.6928 L 62.671,-60.6928 z
M 66.0623,-61.1257 L 64.4408,-61.1257 L 64.4408,-61.8301 L 65.8686,-61.8301 L 65.8686,-62.263 L 64.4408,-62.263
 L 64.4408,-62.9352 L 65.9845,-62.9352 L 65.9845,-63.3681 L 63.8806,-63.3681 L 63.8806,-60.6928 L 66.0623,-60.6928
 z
M 72.0362,-61.7086 L 72.6932,-61.7086 L 73.3141,-60.6928 L 73.9445,-60.6928 L 73.2211,-61.8168 L 73.3084,-61.8422
 L 73.3896,-61.8754 L 73.4646,-61.9163 L 73.5333,-61.9649 L 73.5958,-62.0213 L 73.6521,-62.0855 L 73.7008,-62.1556
 L 73.7407,-62.2301 L 73.7717,-62.3088 L 73.7939,-62.3918 L 73.8071,-62.4791 L 73.8116,-62.5706 L 73.8044,-62.6941
 L 73.7827,-62.8076 L 73.7465,-62.9112 L 73.696,-63.0048 L 73.6309,-63.0884 L 73.5514,-63.1621 L 73.4586,-63.225
 L 73.3537,-63.2765 L 73.2367,-63.3166 L 73.1075,-63.3452 L 72.9662,-63.3624 L 72.8128,-63.3681 L 71.4761,-63.3681
 L 71.4761,-60.6928 L 72.0362,-60.6928 z
M 72.0362,-62.1434 L 72.0362,-62.9333 L 72.754,-62.9333 L 72.9048,-62.9226 L 73.0282,-62.8904 L 73.1242,-62.8369
 L 73.1928,-62.762 L 73.2339,-62.6656 L 73.2476,-62.5478 L 73.2442,-62.4863 L 73.2341,-62.4295 L 73.2172,-62.3774
 L 73.1936,-62.3301 L 73.1632,-62.2875 L 73.1261,-62.2497 L 73.0824,-62.2172 L 73.0324,-62.1906 L 72.9761,-62.17
 L 72.9135,-62.1552 L 72.8445,-62.1463 L 72.7692,-62.1434 z
M 184.508,-53.79 L 185.004,-53.9091 L 185.475,-54.1042 L 185.91,-54.3707 L 186.298,-54.7019 L 186.629,-55.0897
 L 186.896,-55.5245 L 187.091,-55.9957 L 187.21,-56.4916 L 187.25,-57 L 187.21,-57.5084 L 187.091,-58.0043
 L 186.896,-58.4755 L 186.629,-58.9103 L 186.298,-59.2981 L 185.91,-59.6293 L 185.475,-59.8958 L 185.004,-60.0909
 L 184.508,-60.21 L 184,-60.25 L 183.492,-60.21 L 182.996,-60.0909 L 182.525,-59.8958 L 182.09,-59.6293
 L 181.702,-59.2981 L 181.371,-58.9103 L 181.104,-58.4755 L 180.909,-58.0043 L 180.79,-57.5084 L 180.75,-57
 L 180.79,-56.4916 L 180.909,-55.9957 L 181.104,-55.5245 L 181.371,-55.0897 L 181.702,-54.7019 L 182.09,-54.3707
 L 182.525,-54.1042 L 182.996,-53.9091 L 183.492,-53.79 L 184,-53.75 z
M 183.554,-54.1851 L 183.119,-54.2895 L 182.706,-54.4606 L 182.325,-54.6943 L 181.985,-54.9848 L 181.694,-55.3248
 L 181.461,-55.7061 L 181.289,-56.1193 L 181.185,-56.5542 L 181.15,-57 L 181.185,-57.4458 L 181.289,-57.8807
 L 181.461,-58.2939 L 181.694,-58.6752 L 181.985,-59.0152 L 182.325,-59.3057 L 182.706,-59.5394 L 183.119,-59.7105
 L 183.554,-59.8149 L 184,-59.85 L 184.446,-59.8149 L 184.881,-59.7105 L 185.294,-59.5394 L 185.675,-59.3057
 L 186.015,-59.0152 L 186.306,-58.6752 L 186.539,-58.2939 L 186.711,-57.8807 L 186.815,-57.4458 L 186.85,-57
 L 186.815,-56.5542 L 186.711,-56.1193 L 186.539,-55.7061 L 186.306,-55.3248 L 186.015,-54.9848 L 185.675,-54.6943
 L 185.294,-54.4606 L 184.881,-54.2895 L 184.446,-54.1851 L 184,-54.15 z
M 152.209,-54.6606 L 152.374,-54.6779 L 152.524,-54.7068 L 152.659,-54.7472 L 152.779,-54.7992 L 152.884,-54.8627
 L 152.973,-54.9371 L 153.046,-55.0219 L 153.102,-55.1169 L 153.143,-55.2222 L 153.167,-55.3378 L 153.175,-55.4637
 L 153.174,-55.5183 L 153.17,-55.5707 L 153.162,-55.621 L 153.152,-55.6691 L 153.14,-55.7151 L 153.124,-55.7589
 L 153.106,-55.8006 L 153.085,-55.8403 L 153.061,-55.8781 L 153.035,-55.9138 L 153.007,-55.9475 L 152.976,-55.9792
 L 152.942,-56.0092 L 152.904,-56.038 L 152.862,-56.0655 L 152.816,-56.0918 L 152.766,-56.1168 L 152.713,-56.1405
 L 152.651,-56.164 L 152.578,-56.1881 L 152.492,-56.2129 L 152.394,-56.2384 L 152.284,-56.2646 L 152.161,-56.2915
 L 152.059,-56.3142 L 151.969,-56.3357 L 151.891,-56.3558 L 151.825,-56.3746 L 151.772,-56.3921 L 151.73,-56.4082
 L 151.696,-56.4243 L 151.665,-56.4415 L 151.637,-56.4598 L 151.612,-56.4791 L 151.589,-56.4996 L 151.57,-56.5212
 L 151.553,-56.5444 L 151.54,-56.5698 L 151.529,-56.5972 L 151.522,-56.6267 L 151.517,-56.6584 L 151.516,-56.6921
 L 151.53,-56.7896 L 151.572,-56.8694 L 151.643,-56.9314 L 151.742,-56.9757 L 151.869,-57.0023 L 152.025,-57.0111
 L 152.101,-57.0087 L 152.172,-57.0014 L 152.236,-56.9893 L 152.294,-56.9723 L 152.346,-56.9505 L 152.392,-56.9238
 L 152.432,-56.8923 L 152.468,-56.856 L 152.499,-56.8151 L 152.525,-56.7693 L 152.546,-56.7189 L 152.562,-56.6636
 L 153.105,-56.7377 L 153.076,-56.8517 L 153.037,-56.9544 L 152.988,-57.0458 L 152.93,-57.1259 L 152.861,-57.1947
 L 152.783,-57.2522 L 152.693,-57.2998 L 152.589,-57.3388 L 152.472,-57.369 L 152.34,-57.3907 L 152.195,-57.4036
 L 152.036,-57.408 L 151.869,-57.4026 L 151.717,-57.3866 L 151.578,-57.3598 L 151.452,-57.3223 L 151.341,-57.2741
 L 151.243,-57.2152 L 151.16,-57.1463 L 151.092,-57.0679 L 151.039,-56.98 L 151.001,-56.8827 L 150.978,-56.776
 L 150.971,-56.6599 L 150.972,-56.6133 L 150.975,-56.5685 L 150.98,-56.5255 L 150.987,-56.4843 L 150.997,-56.4449
 L 151.008,-56.4073 L 151.021,-56.3714 L 151.036,-56.3371 L 151.052,-56.3043 L 151.07,-56.2731 L 151.09,-56.2436
 L 151.111,-56.2155 L 151.134,-56.189 L 151.159,-56.1638 L 151.185,-56.1398 L 151.213,-56.1172 L 151.242,-56.0959
 L 151.273,-56.076 L 151.305,-56.0571 L 151.339,-56.039 L 151.373,-56.0219 L 151.409,-56.0055 L 151.447,-55.99
 L 151.485,-55.9754 L 151.53,-55.9604 L 151.584,-55.9438 L 151.649,-55.9258 L 151.723,-55.9062 L 151.808,-55.8851
 L 151.903,-55.8624 L 152.013,-55.8396 L 152.11,-55.8179 L 152.194,-55.7973 L 152.266,-55.778 L 152.326,-55.7598
 L 152.373,-55.7428 L 152.412,-55.7256 L 152.449,-55.7071 L 152.482,-55.6872 L 152.512,-55.666 L 152.539,-55.6433
 L 152.563,-55.6193 L 152.583,-55.5936 L 152.6,-55.5656 L 152.613,-55.5353 L 152.623,-55.5029 L 152.628,-55.4682
 L 152.63,-55.4314 L 152.614,-55.3223 L 152.565,-55.233 L 152.484,-55.1636 L 152.37,-55.1141 L 152.223,-55.0843
 L 152.044,-55.0744 L 151.953,-55.0771 L 151.869,-55.0851 L 151.792,-55.0984 L 151.721,-55.117 L 151.658,-55.141
 L 151.601,-55.1703 L 151.551,-55.2055 L 151.506,-55.2472 L 151.468,-55.2954 L 151.435,-55.35 L 151.408,-55.4112
 L 151.387,-55.4788 L 150.846,-55.3896 L 150.879,-55.2714 L 150.924,-55.1637 L 150.981,-55.0663 L 151.05,-54.9795
 L 151.13,-54.903 L 151.221,-54.8371 L 151.325,-54.7814 L 151.441,-54.7358 L 151.569,-54.7004 L 151.71,-54.675
 L 151.863,-54.6599 L 152.028,-54.6548 z
M 149.546,-54.6626 L 149.715,-54.6859 L 149.869,-54.7248 L 150.01,-54.7793 L 150.136,-54.8493 L 150.248,-54.9348
 L 150.344,-55.0346 L 150.422,-55.147 L 150.483,-55.2721 L 150.527,-55.4099 L 150.553,-55.5605 L 150.562,-55.7238
 L 150.562,-57.3681 L 150.002,-57.3681 L 150.002,-55.758 L 149.997,-55.6551 L 149.984,-55.5606 L 149.961,-55.4743
 L 149.93,-55.3963 L 149.89,-55.3266 L 149.84,-55.2652 L 149.783,-55.2127 L 149.717,-55.1698 L 149.644,-55.1363
 L 149.563,-55.1125 L 149.475,-55.0982 L 149.379,-55.0934 L 149.285,-55.0979 L 149.2,-55.1116 L 149.122,-55.1344
 L 149.052,-55.1664 L 148.99,-55.2074 L 148.936,-55.2576 L 148.889,-55.3166 L 148.852,-55.3841 L 148.822,-55.4601
 L 148.801,-55.5446 L 148.789,-55.6375 L 148.785,-55.739 L 148.785,-57.3681 L 148.224,-57.3681 L 148.224,-55.6953
 L 148.233,-55.5347 L 148.257,-55.3869 L 148.298,-55.252 L 148.355,-55.1299 L 148.428,-55.0207 L 148.518,-54.9244
 L 148.623,-54.842 L 148.742,-54.7746 L 148.876,-54.7222 L 149.024,-54.6848 L 149.187,-54.6623 L 149.364,-54.6548
 z
M 155.021,-54.6983 L 155.166,-54.7149 L 155.298,-54.7426 L 155.419,-54.7814 L 155.528,-54.8312 L 155.625,-54.8921
 L 155.708,-54.9632 L 155.777,-55.0434 L 155.83,-55.1328 L 155.868,-55.2314 L 155.891,-55.3391 L 155.898,-55.4561
 L 155.893,-55.5442 L 155.879,-55.6264 L 155.856,-55.7027 L 155.823,-55.7729 L 155.78,-55.8372 L 155.728,-55.8956
 L 155.667,-55.9474 L 155.598,-55.9921 L 155.52,-56.0297 L 155.433,-56.0602 L 155.338,-56.0835 L 155.234,-56.0997
 L 155.316,-56.1209 L 155.391,-56.1477 L 155.459,-56.1802 L 155.519,-56.2183 L 155.572,-56.262 L 155.618,-56.3114
 L 155.657,-56.3656 L 155.688,-56.4238 L 155.713,-56.4859 L 155.73,-56.5519 L 155.741,-56.6219 L 155.744,-56.6959
 L 155.737,-56.8022 L 155.716,-56.8994 L 155.681,-56.9876 L 155.633,-57.0668 L 155.57,-57.137 L 155.493,-57.1981
 L 155.402,-57.2501 L 155.299,-57.2925 L 155.182,-57.3256 L 155.051,-57.3492 L 154.908,-57.3634 L 154.751,-57.3681
 L 153.527,-57.3681 L 153.527,-54.6928 L 154.865,-54.6928 z
M 154.087,-56.2896 L 154.087,-56.9523 L 154.725,-56.9523 L 154.797,-56.9501 L 154.863,-56.9438 L 154.923,-56.9333
 L 154.977,-56.9185 L 155.024,-56.8995 L 155.066,-56.8763 L 155.101,-56.8481 L 155.129,-56.8141 L 155.152,-56.7742
 L 155.168,-56.7286 L 155.177,-56.6772 L 155.18,-56.62 L 155.177,-56.5672 L 155.169,-56.519 L 155.154,-56.4754
 L 155.133,-56.4364 L 155.106,-56.402 L 155.073,-56.3722 L 155.034,-56.3469 L 154.987,-56.3263 L 154.933,-56.3102
 L 154.872,-56.2988 L 154.804,-56.2919 L 154.729,-56.2896 z
M 154.087,-55.1086 L 154.087,-55.8757 L 154.797,-55.8757 L 154.962,-55.8652 L 155.097,-55.8339 L 155.201,-55.7817
 L 155.276,-55.7086 L 155.321,-55.6146 L 155.336,-55.4997 L 155.333,-55.4373 L 155.322,-55.3802 L 155.305,-55.3286
 L 155.281,-55.2824 L 155.25,-55.2417 L 155.212,-55.2064 L 155.166,-55.1765 L 155.113,-55.152 L 155.051,-55.133
 L 154.981,-55.1194 L 154.904,-55.1113 L 154.818,-55.1086 z
M 157,-52 L 147,-52 L 147,-48 L 157,-48 z
M 147.4,-48.4 L 147.4,-51.6 L 156.6,-51.6 L 156.6,-48.4 z
M 101,-36 L 37,-36 L 37,-4 L 101,-4 z
M 37.4,-34.25 L 37.4,-35.6 L 38.75,-35.6 L 38.75,-34.25 z
M 39.25,-4.40001 L 39.25,-5.75 L 41,-5.75 L 41,-6.25 L 39.25,-6.25 L 39.25,-8
 L 38.75,-8 L 38.75,-6.25 L 37.4,-6.25 L 37.4,-33.75 L 38.75,-33.75 L 38.75,-32
 L 39.25,-32 L 39.25,-33.75 L 41,-33.75 L 41,-34.25 L 39.25,-34.25 L 39.25,-35.6
 L 98.75,-35.6 L 98.75,-34.25 L 97,-34.25 L 97,-33.75 L 98.75,-33.75 L 98.75,-32
 L 99.25,-32 L 99.25,-33.75 L 100.6,-33.75 L 100.6,-6.25 L 99.25,-6.25 L 99.25,-8
 L 98.75,-8 L 98.75,-6.25 L 97,-6.25 L 97,-5.75 L 98.75,-5.75 L 98.75,-4.40001
 z
M 80,-28 L 58,-28 L 58,-12 L 80,-12 z
M 58.4,-12.4 L 58.4,-27.6 L 79.6,-27.6 L 79.6,-12.4 z
M 99.25,-34.25 L 99.25,-35.6 L 100.6,-35.6 L 100.6,-34.25 z
M 37.4,-4.40001 L 37.4,-5.75 L 38.75,-5.75 L 38.75,-4.40001 z
M 99.25,-4.40001 L 99.25,-5.75 L 100.6,-5.75 L 100.6,-4.40001 z
M 16.5213,-18.4692 L 16.7102,-18.489 L 16.8818,-18.522 L 17.036,-18.5682 L 17.173,-18.6276 L 17.2927,-18.7002
 L 17.3945,-18.7853 L 17.4778,-18.8821 L 17.5425,-18.9907 L 17.5888,-19.1111 L 17.6166,-19.2432 L 17.6258,-19.387
 L 17.6242,-19.4494 L 17.6193,-19.5094 L 17.6112,-19.5668 L 17.5998,-19.6219 L 17.5851,-19.6744 L 17.5672,-19.7244
 L 17.5462,-19.7721 L 17.5224,-19.8175 L 17.4956,-19.8606 L 17.466,-19.9014 L 17.4334,-19.94 L 17.3979,-19.9762
 L 17.3589,-20.0105 L 17.3154,-20.0434 L 17.2675,-20.0749 L 17.2152,-20.1049 L 17.1585,-20.1335 L 17.0974,-20.1606
 L 17.0272,-20.1874 L 16.943,-20.215 L 16.8449,-20.2433 L 16.7329,-20.2725 L 16.6069,-20.3024 L 16.467,-20.3331
 L 16.3503,-20.3591 L 16.2474,-20.3836 L 16.1583,-20.4066 L 16.0832,-20.4281 L 16.0219,-20.4481 L 15.9744,-20.4666
 L 15.9356,-20.4849 L 15.9001,-20.5045 L 15.8678,-20.5254 L 15.8389,-20.5476 L 15.8133,-20.571 L 15.7911,-20.5957
 L 15.7722,-20.6222 L 15.7567,-20.6512 L 15.7447,-20.6825 L 15.7361,-20.7163 L 15.731,-20.7524 L 15.7292,-20.791
 L 15.7454,-20.9024 L 15.7939,-20.9935 L 15.8746,-21.0644 L 15.9877,-21.1151 L 16.1331,-21.1454 L 16.3108,-21.1556
 L 16.3984,-21.1528 L 16.479,-21.1445 L 16.5525,-21.1306 L 16.6189,-21.1112 L 16.6783,-21.0862 L 16.7307,-21.0557
 L 16.7768,-21.0197 L 16.8174,-20.9783 L 16.8525,-20.9315 L 16.8821,-20.8792 L 16.9062,-20.8215 L 16.9249,-20.7584
 L 17.5455,-20.8431 L 17.5124,-20.9733 L 17.468,-21.0907 L 17.4123,-21.1952 L 17.3454,-21.2867 L 17.2672,-21.3654
 L 17.1777,-21.4311 L 17.0747,-21.4855 L 16.956,-21.53 L 16.8215,-21.5646 L 16.6714,-21.5893 L 16.5054,-21.6042
 L 16.3238,-21.6091 L 16.1335,-21.603 L 15.9589,-21.5846 L 15.8,-21.554 L 15.6569,-21.5112 L 15.5295,-21.4561
 L 15.4178,-21.3888 L 15.3227,-21.31 L 15.2449,-21.2204 L 15.1843,-21.12 L 15.1411,-21.0089 L 15.1151,-20.8869
 L 15.1065,-20.7541 L 15.1076,-20.7009 L 15.1112,-20.6497 L 15.117,-20.6006 L 15.1253,-20.5535 L 15.1358,-20.5085
 L 15.1488,-20.4655 L 15.1638,-20.4245 L 15.1807,-20.3852 L 15.1995,-20.3478 L 15.2201,-20.3122 L 15.2426,-20.2784
 L 15.267,-20.2463 L 15.2932,-20.216 L 15.3213,-20.1871 L 15.3511,-20.1598 L 15.3827,-20.134 L 15.4162,-20.1096
 L 15.4514,-20.0868 L 15.4883,-20.0652 L 15.5267,-20.0446 L 15.5665,-20.025 L 15.6077,-20.0063 L 15.6504,-19.9886
 L 15.6945,-19.9718 L 15.7451,-19.9547 L 15.8073,-19.9358 L 15.8811,-19.9152 L 15.9665,-19.8928 L 16.0634,-19.8686
 L 16.1719,-19.8427 L 16.2971,-19.8166 L 16.4081,-19.7919 L 16.5047,-19.7684 L 16.5871,-19.7463 L 16.6552,-19.7255
 L 16.709,-19.706 L 16.7539,-19.6864 L 16.7953,-19.6653 L 16.8332,-19.6425 L 16.8676,-19.6182 L 16.8986,-19.5924
 L 16.926,-19.565 L 16.9495,-19.5355 L 16.9688,-19.5035 L 16.9838,-19.4689 L 16.9945,-19.4319 L 17.0009,-19.3923
 L 17.003,-19.3501 L 16.9844,-19.2255 L 16.9285,-19.1235 L 16.8354,-19.0442 L 16.705,-18.9875 L 16.5374,-18.9535
 L 16.3325,-18.9422 L 16.2287,-18.9452 L 16.1326,-18.9543 L 16.0444,-18.9696 L 15.9641,-18.9909 L 15.8916,-19.0182
 L 15.8269,-19.0517 L 15.7694,-19.092 L 15.7186,-19.1396 L 15.6744,-19.1947 L 15.6369,-19.2572 L 15.606,-19.3271
 L 15.5817,-19.4044 L 14.9632,-19.3024 L 15.0017,-19.1673 L 15.0534,-19.0442 L 15.1184,-18.933 L 15.1966,-18.8337
 L 15.2881,-18.7463 L 15.3929,-18.6709 L 15.5113,-18.6073 L 15.6439,-18.5552 L 15.7905,-18.5147 L 15.9513,-18.4858
 L 16.1262,-18.4684 L 16.3151,-18.4626 z
M 28.5282,-18.468 L 28.6747,-18.4839 L 28.8146,-18.5106 L 28.9481,-18.548 L 29.075,-18.596 L 29.1954,-18.6546
 L 29.3081,-18.7234 L 29.4117,-18.8016 L 29.5063,-18.8893 L 29.5918,-18.9864 L 29.6683,-19.093 L 29.7358,-19.2091
 L 29.7935,-19.3331 L 29.8407,-19.4635 L 29.8774,-19.6002 L 29.9036,-19.7434 L 29.9193,-19.8929 L 29.9246,-20.0489
 L 29.9132,-20.2826 L 29.8791,-20.499 L 29.8223,-20.6982 L 29.7428,-20.8802 L 29.6405,-21.045 L 29.5155,-21.1925
 L 29.3703,-21.3198 L 29.2075,-21.4239 L 29.027,-21.5049 L 28.8289,-21.5628 L 28.613,-21.5975 L 28.3795,-21.6091
 L 28.1461,-21.5976 L 27.9304,-21.5633 L 27.7323,-21.506 L 27.5521,-21.4258 L 27.3895,-21.3228 L 27.2446,-21.1968
 L 27.12,-21.0504 L 27.018,-20.886 L 26.9387,-20.7037 L 26.882,-20.5034 L 26.848,-20.2851 L 26.8367,-20.0489
 L 26.848,-19.8117 L 26.8821,-19.5918 L 26.9389,-19.3895 L 27.0185,-19.2045 L 27.1207,-19.037 L 27.2457,-18.8868
 L 27.3907,-18.7572 L 27.553,-18.6512 L 27.7326,-18.5687 L 27.9295,-18.5098 L 28.1437,-18.4744 L 28.3752,-18.4626
 z
M 28.2419,-18.9741 L 28.1183,-18.9982 L 28.0044,-19.0385 L 27.9002,-19.0948 L 27.8057,-19.1672 L 27.721,-19.2557
 L 27.6477,-19.3582 L 27.5878,-19.4726 L 27.5411,-19.5989 L 27.5078,-19.737 L 27.4878,-19.887 L 27.4812,-20.0489
 L 27.4877,-20.2091 L 27.5072,-20.3571 L 27.5398,-20.4929 L 27.5853,-20.6164 L 27.6439,-20.7277 L 27.7155,-20.8268
 L 27.7991,-20.912 L 27.8935,-20.9817 L 27.9987,-21.0359 L 28.1148,-21.0747 L 28.2418,-21.0979 L 28.3795,-21.1056
 L 28.5154,-21.0978 L 28.6407,-21.0744 L 28.7555,-21.0354 L 28.8598,-20.9807 L 28.9537,-20.9105 L 29.037,-20.8246
 L 29.1087,-20.725 L 29.1673,-20.6135 L 29.2128,-20.4902 L 29.2454,-20.3549 L 29.2649,-20.2079 L 29.2714,-20.0489
 L 29.2649,-19.8826 L 29.2455,-19.7294 L 29.2131,-19.5894 L 29.1677,-19.4625 L 29.1094,-19.3488 L 29.0381,-19.2482
 L 28.9549,-19.162 L 28.8608,-19.0914 L 28.7558,-19.0366 L 28.6398,-18.9974 L 28.513,-18.9739 L 28.3752,-18.966
 z
M 25.4456,-18.4692 L 25.6344,-18.489 L 25.806,-18.522 L 25.9603,-18.5682 L 26.0973,-18.6276 L 26.217,-18.7002
 L 26.3188,-18.7853 L 26.402,-18.8821 L 26.4668,-18.9907 L 26.5131,-19.1111 L 26.5408,-19.2432 L 26.5501,-19.387
 L 26.5485,-19.4494 L 26.5436,-19.5094 L 26.5354,-19.5668 L 26.524,-19.6219 L 26.5094,-19.6744 L 26.4915,-19.7244
 L 26.4705,-19.7721 L 26.4466,-19.8175 L 26.4199,-19.8606 L 26.3902,-19.9014 L 26.3577,-19.94 L 26.3222,-19.9762
 L 26.2831,-20.0105 L 26.2396,-20.0434 L 26.1917,-20.0749 L 26.1395,-20.1049 L 26.0828,-20.1335 L 26.0217,-20.1606
 L 25.9514,-20.1874 L 25.8672,-20.215 L 25.7691,-20.2433 L 25.6571,-20.2725 L 25.5312,-20.3024 L 25.3913,-20.3331
 L 25.2745,-20.3591 L 25.1716,-20.3836 L 25.0826,-20.4066 L 25.0074,-20.4281 L 24.9461,-20.4481 L 24.8987,-20.4666
 L 24.8598,-20.4849 L 24.8243,-20.5045 L 24.7921,-20.5254 L 24.7632,-20.5476 L 24.7376,-20.571 L 24.7153,-20.5957
 L 24.6964,-20.6222 L 24.681,-20.6512 L 24.669,-20.6825 L 24.6604,-20.7163 L 24.6552,-20.7524 L 24.6535,-20.791
 L 24.6697,-20.9024 L 24.7181,-20.9935 L 24.7989,-21.0644 L 24.912,-21.1151 L 25.0574,-21.1454 L 25.2351,-21.1556
 L 25.3227,-21.1528 L 25.4032,-21.1445 L 25.4767,-21.1306 L 25.5432,-21.1112 L 25.6026,-21.0862 L 25.655,-21.0557
 L 25.701,-21.0197 L 25.7416,-20.9783 L 25.7767,-20.9315 L 25.8064,-20.8792 L 25.8305,-20.8215 L 25.8492,-20.7584
 L 26.4698,-20.8431 L 26.4367,-20.9733 L 26.3923,-21.0907 L 26.3366,-21.1952 L 26.2697,-21.2867 L 26.1915,-21.3654
 L 26.102,-21.4311 L 25.999,-21.4855 L 25.8803,-21.53 L 25.7458,-21.5646 L 25.5956,-21.5893 L 25.4297,-21.6042
 L 25.2481,-21.6091 L 25.0578,-21.603 L 24.8832,-21.5846 L 24.7243,-21.554 L 24.5812,-21.5112 L 24.4538,-21.4561
 L 24.3421,-21.3888 L 24.247,-21.31 L 24.1691,-21.2204 L 24.1086,-21.12 L 24.0653,-21.0089 L 24.0394,-20.8869
 L 24.0307,-20.7541 L 24.0319,-20.7009 L 24.0354,-20.6497 L 24.0413,-20.6006 L 24.0495,-20.5535 L 24.0601,-20.5085
 L 24.073,-20.4655 L 24.0881,-20.4245 L 24.105,-20.3852 L 24.1237,-20.3478 L 24.1444,-20.3122 L 24.1669,-20.2784
 L 24.1913,-20.2463 L 24.2175,-20.216 L 24.2455,-20.1871 L 24.2754,-20.1598 L 24.307,-20.134 L 24.3405,-20.1096
 L 24.3757,-20.0868 L 24.4126,-20.0652 L 24.4509,-20.0446 L 24.4907,-20.025 L 24.532,-20.0063 L 24.5746,-19.9886
 L 24.6188,-19.9718 L 24.6694,-19.9547 L 24.7316,-19.9358 L 24.8054,-19.9152 L 24.8908,-19.8928 L 24.9877,-19.8686
 L 25.0962,-19.8427 L 25.2214,-19.8166 L 25.3324,-19.7919 L 25.429,-19.7684 L 25.5114,-19.7463 L 25.5795,-19.7255
 L 25.6333,-19.706 L 25.6782,-19.6864 L 25.7196,-19.6653 L 25.7575,-19.6425 L 25.7919,-19.6182 L 25.8228,-19.5924
 L 25.8503,-19.565 L 25.8738,-19.5355 L 25.8931,-19.5035 L 25.908,-19.4689 L 25.9187,-19.4319 L 25.9252,-19.3923
 L 25.9273,-19.3501 L 25.9087,-19.2255 L 25.8528,-19.1235 L 25.7597,-19.0442 L 25.6293,-18.9875 L 25.4617,-18.9535
 L 25.2568,-18.9422 L 25.1529,-18.9452 L 25.0569,-18.9543 L 24.9687,-18.9696 L 24.8884,-18.9909 L 24.8158,-19.0182
 L 24.7511,-19.0517 L 24.6937,-19.092 L 24.6429,-19.1396 L 24.5987,-19.1947 L 24.5612,-19.2572 L 24.5302,-19.3271
 L 24.506,-19.4044 L 23.8875,-19.3024 L 23.926,-19.1673 L 23.9777,-19.0442 L 24.0426,-18.933 L 24.1209,-18.8337
 L 24.2124,-18.7463 L 24.3172,-18.6709 L 24.4356,-18.6073 L 24.5681,-18.5552 L 24.7148,-18.5147 L 24.8756,-18.4858
 L 25.0504,-18.4684 L 25.2394,-18.4626 z
M 21.4909,-20.3092 L 21.4898,-20.3824 L 21.4866,-20.4631 L 21.4811,-20.5512 L 21.4735,-20.6468 L 21.4638,-20.7499
 L 21.4519,-20.8605 L 22.7842,-18.506 L 23.535,-18.506 L 23.535,-21.5635 L 22.9665,-21.5635 L 22.9665,-19.7863
 L 22.9676,-19.695 L 22.9708,-19.6004 L 22.9763,-19.5026 L 22.9839,-19.4015 L 22.9936,-19.2972 L 23.0056,-19.1896
 L 21.6536,-21.5635 L 20.9223,-21.5635 L 20.9223,-18.506 L 21.4909,-18.506 z
M 30.9678,-19.667 L 31.7187,-19.667 L 32.4283,-18.506 L 33.1487,-18.506 L 32.3219,-19.7906 L 32.4218,-19.8197
 L 32.5146,-19.8576 L 32.6002,-19.9043 L 32.6788,-19.9599 L 32.7502,-20.0244 L 32.8145,-20.0977 L 32.8702,-20.1779
 L 32.9158,-20.263 L 32.9512,-20.3529 L 32.9765,-20.4478 L 32.9917,-20.5475 L 32.9968,-20.6521 L 32.9885,-20.7933
 L 32.9638,-20.923 L 32.9225,-21.0414 L 32.8647,-21.1483 L 32.7903,-21.2439 L 32.6995,-21.3281 L 32.5935,-21.4
 L 32.4736,-21.4589 L 32.3398,-21.5047 L 32.1922,-21.5374 L 32.0307,-21.557 L 31.8554,-21.5635 L 30.3277,-21.5635
 L 30.3277,-18.506 L 30.9678,-18.506 z
M 30.9678,-20.1639 L 30.9678,-21.0666 L 31.7881,-21.0666 L 31.9605,-21.0544 L 32.1015,-21.0177 L 32.2112,-20.9565
 L 32.2896,-20.8708 L 32.3366,-20.7607 L 32.3523,-20.6261 L 32.3484,-20.5557 L 32.3369,-20.4908 L 32.3176,-20.4313
 L 32.2906,-20.3773 L 32.2558,-20.3286 L 32.2134,-20.2854 L 32.1635,-20.2483 L 32.1064,-20.2179 L 32.042,-20.1943
 L 31.9704,-20.1774 L 31.8915,-20.1673 L 31.8055,-20.1639 z
M 20.5208,-19.0008 L 18.6676,-19.0008 L 18.6676,-19.8058 L 20.2994,-19.8058 L 20.2994,-20.3006 L 18.6676,-20.3006
 L 18.6676,-21.0688 L 20.4318,-21.0688 L 20.4318,-21.5635 L 18.0274,-21.5635 L 18.0274,-18.506 L 20.5208,-18.506
 z
"/>
</g>
</svg>