<svg xmlns="http://www.w3.org/2000/svg" version="1.1" width="78mm" height="37mm" viewBox="0 -37 78 37">
<g id="cut" fill="none" stroke="#000000" stroke-width="0.2">
<path d="
M 11,-3 L 31,-3 L 31,-0 L 47,-0 L 47,-3 L 67,-3
 L 67,-0 L 74.99,-0 L 74.99,-7.39999 L 78,-7.39999 L 78,-14.8 L 74.99,-14.8
 L 74.99,-22.2 L 78,-22.2 L 78,-29.6 L 74.99,-29.6 L 74.99,-37 L 3.00999,-37
 L 3.00999,-29.6 L 0,-29.6 L 0,-22.2 L 3.00999,-22.2 L 3.00999,-14.8 L 0,-14.8
 L 0,-7.39999 L 3.00999,-7.39999 L 3.00999,-0 L 11,-0 z
M 61.4916,-25.79 L 60.9957,-25.9091 L 60.5245,-26.1042 L 60.0897,-26.3707 L 59.7019,-26.7019 L 59.3707,-27.0897
 L 59.1042,-27.5245 L 58.9091,-27.9957 L 58.79,-28.4916 L 58.75,-29 L 58.79,-29.5084 L 58.9091,-30.0043
 L 59.1042,-30.4755 L 59.3707,-30.9103 L 59.7019,-31.2981 L 60.0897,-31.6293 L 60.5245,-31.8958 L 60.9957,-32.0909
 L 61.4916,-32.21 L 62,-32.25 L 62.5084,-32.21 L 63.0043,-32.0909 L 63.4755,-31.8958 L 63.9103,-31.6293
 L 64.2981,-31.2981 L 64.6293,-30.9103 L 64.8958,-30.4755 L 65.0909,-30.0043 L 65.21,-29.5084 L 65.25,-29
 L 65.21,-28.4916 L 65.0909,-27.9957 L 64.8958,-27.5245 L 64.6293,-27.0897 L 64.2981,-26.7019 L 63.9103,-26.3707
 L 63.4755,-26.1042 L 63.0043,-25.9091 L 62.5084,-25.79 L 62,-25.75 z
M 47.4916,-10.79 L 46.9957,-10.9091 L 46.5245,-11.1042 L 46.0897,-11.3707 L 45.7019,-11.7019 L 45.3707,-12.0897
 L 45.1042,-12.5245 L 44.9091,-12.9957 L 44.79,-13.4916 L 44.75,-14 L 44.79,-14.5084 L 44.9091,-15.0043
 L 45.1042,-15.4755 L 45.3707,-15.9103 L 45.7019,-16.2981 L 46.0897,-16.6293 L 46.5245,-16.8958 L 46.9957,-17.0909
 L 47.4916,-17.21 L 48,-17.25 L 48.5084,-17.21 L 49.0043,-17.0909 L 49.4755,-16.8958 L 49.9103,-16.6293
 L 50.2981,-16.2981 L 50.6293,-15.9103 L 50.8958,-15.4755 L 51.0909,-15.0043 L 51.21,-14.5084 L 51.25,-14
 L 51.21,-13.4916 L 51.0909,-12.9957 L 50.8958,-12.5245 L 50.6293,-12.0897 L 50.2981,-11.7019 L 49.9103,-11.3707
 L 49.4755,-11.1042 L 49.0043,-10.9091 L 48.5084,-10.79 L 48,-10.75 z
M 11,-5 L 11,-9 L 21,-9 L 21,-5 z
"/>
</g>
</svg>