<?xml version="1.0" standalone="no"?>
<!DOCTYPE svg PUBLIC "-//W3C//DTD SVG 1.1//EN" "http://www.w3.org/Graphics/SVG/1.1/DTD/svg11.dtd">
<svg width="110mm" height="78mm" viewBox="-3 -75 110 78" xmlns="http://www.w3.org/2000/svg" version="1.1">
<title>OpenSCAD Model</title>
<path d="
M 30,-0 L 42,-0 L 42,3 L 62,3 L 62,-0 L 74,-0
 L 74,3 L 94,3 L 94,-0 L 104,-0 L 104,-8 L 107,-8
 L 107,-28 L 104,-28 L 104,-44 L 107,-44 L 107,-64 L 104,-64
 L 104,-72 L 94,-72 L 94,-75 L 74,-75 L 74,-72 L 62,-72
 L 62,-75 L 42,-75 L 42,-72 L 30,-72 L 30,-75 L 10,-75
 L 10,-72 L 0,-72 L 0,-64 L -3,-64 L -3,-44 L 0,-44
 L 0,-28 L -3,-28 L -3,-8 L 0,-8 L 0,-0 L 10,-0
 L 10,3 L 30,3 z
M 90,-38 L 90,-62 L 93,-62 L 93,-38 z
M 82,-38 L 82,-62 L 85,-62 L 85,-38 z
M 58,-38 L 58,-62 L 61,-62 L 61,-38 z
M 66,-38 L 66,-62 L 69,-62 L 69,-38 z
M 74,-38 L 74,-62 L 77,-62 L 77,-38 z
M 96.5123,-57.4648 L 96.3292,-57.5087 L 96.1552,-57.5808 L 95.9946,-57.6792 L 95.8515,-57.8015 L 95.7292,-57.9447
 L 95.6308,-58.1052 L 95.5587,-58.2792 L 95.5148,-58.4623 L 95.5,-58.65 L 95.5148,-58.8377 L 95.5587,-59.0208
 L 95.6308,-59.1948 L 95.7292,-59.3553 L 95.8515,-59.4985 L 95.9946,-59.6208 L 96.1552,-59.7192 L 96.3292,-59.7913
 L 96.5123,-59.8352 L 96.7,-59.85 L 96.8877,-59.8352 L 97.0708,-59.7913 L 97.2448,-59.7192 L 97.4053,-59.6208
 L 97.5485,-59.4985 L 97.6708,-59.3553 L 97.7692,-59.1948 L 97.8413,-59.0208 L 97.8852,-58.8377 L 97.9,-58.65
 L 97.8852,-58.4623 L 97.8413,-58.2792 L 97.7692,-58.1052 L 97.6708,-57.9447 L 97.5485,-57.8015 L 97.4053,-57.6792
 L 97.2448,-57.5808 L 97.0708,-57.5087 L 96.8877,-57.4648 L 96.7,-57.45 z
M 71.1123,-57.4648 L 70.9292,-57.5087 L 70.7552,-57.5808 L 70.5947,-57.6792 L 70.4515,-57.8015 L 70.3292,-57.9447
 L 70.2308,-58.1052 L 70.1587,-58.2792 L 70.1148,-58.4623 L 70.1,-58.65 L 70.1148,-58.8377 L 70.1587,-59.0208
 L 70.2308,-59.1948 L 70.3292,-59.3553 L 70.4515,-59.4985 L 70.5947,-59.6208 L 70.7552,-59.7192 L 70.9292,-59.7913
 L 71.1123,-59.8352 L 71.3,-59.85 L 71.4877,-59.8352 L 71.6708,-59.7913 L 71.8448,-59.7192 L 72.0053,-59.6208
 L 72.1485,-59.4985 L 72.2708,-59.3553 L 72.3692,-59.1948 L 72.4413,-59.0208 L 72.4852,-58.8377 L 72.5,-58.65
 L 72.4852,-58.4623 L 72.4413,-58.2792 L 72.3692,-58.1052 L 72.2708,-57.9447 L 72.1485,-57.8015 L 72.0053,-57.6792
 L 71.8448,-57.5808 L 71.6708,-57.5087 L 71.4877,-57.4648 L 71.3,-57.45 z
M 96.5123,-42.1648 L 96.3292,-42.2087 L 96.1552,-42.2808 L 95.9946,-42.3792 L 95.8515,-42.5015 L 95.7292,-42.6447
 L 95.6308,-42.8052 L 95.5587,-42.9792 L 95.5148,-43.1623 L 95.5,-43.35 L 95.5148,-43.5377 L 95.5587,-43.7208
 L 95.6308,-43.8948 L 95.7292,-44.0553 L 95.8515,-44.1985 L 95.9946,-44.3208 L 96.1552,-44.4192 L 96.3292,-44.4913
 L 96.5123,-44.5352 L 96.7,-44.55 L 96.8877,-44.5352 L 97.0708,-44.4913 L 97.2448,-44.4192 L 97.4053,-44.3208
 L 97.5485,-44.1985 L 97.6708,-44.0553 L 97.7692,-43.8948 L 97.8413,-43.7208 L 97.8852,-43.5377 L 97.9,-43.35
 L 97.8852,-43.1623 L 97.8413,-42.9792 L 97.7692,-42.8052 L 97.6708,-42.6447 L 97.5485,-42.5015 L 97.4053,-42.3792
 L 97.2448,-42.2808 L 97.0708,-42.2087 L 96.8877,-42.1648 L 96.7,-42.15 z
M 71.1123,-42.1648 L 70.9292,-42.2087 L 70.7552,-42.2808 L 70.5947,-42.3792 L 70.4515,-42.5015 L 70.3292,-42.6447
 L 70.2308,-42.8052 L 70.1587,-42.9792 L 70.1148,-43.1623 L 70.1,-43.35 L 70.1148,-43.5377 L 70.1587,-43.7208
 L 70.2308,-43.8948 L 70.3292,-44.0553 L 70.4515,-44.1985 L 70.5947,-44.3208 L 70.7552,-44.4192 L 70.9292,-44.4913
 L 71.1123,-44.5352 L 71.3,-44.55 L 71.4877,-44.5352 L 71.6708,-44.4913 L 71.8448,-44.4192 L 72.0053,-44.3208
 L 72.1485,-44.1985 L 72.2708,-44.0553 L 72.3692,-43.8948 L 72.4413,-43.7208 L 72.4852,-43.5377 L 72.5,-43.35
 L 72.4852,-43.1623 L 72.4413,-42.9792 L 72.3692,-42.8052 L 72.2708,-42.6447 L 72.1485,-42.5015 L 72.0053,-42.3792
 L 71.8448,-42.2808 L 71.6708,-42.2087 L 71.4877,-42.1648 L 71.3,-42.15 z
M 14.7329,-5.99971 L 13.4969,-6.29643 L 12.3227,-6.78284 L 11.2389,-7.44696 L 10.2724,-8.27243 L 9.44696,-9.23894
 L 8.78284,-10.3227 L 8.29643,-11.4969 L 7.99971,-12.7329 L 7.89999,-14 L 7.99971,-15.2671 L 8.29643,-16.503
 L 8.78284,-17.6773 L 9.44696,-18.761 L 10.2724,-19.7276 L 11.2389,-20.553 L 12.3227,-21.2171 L 13.4969,-21.7036
 L 14.7329,-22.0003 L 16,-22.1 L 17.2671,-22.0003 L 18.503,-21.7036 L 19.6773,-21.2171 L 20.761,-20.553
 L 21.7276,-19.7276 L 22.553,-18.761 L 23.2171,-17.6773 L 23.7036,-16.503 L 24.0003,-15.2671 L 24.1,-14
 L 24.0003,-12.7329 L 23.7036,-11.4969 L 23.2171,-10.3227 L 22.553,-9.23894 L 21.7276,-8.27243 L 20.761,-7.44696
 L 19.6773,-6.78284 L 18.503,-6.29643 L 17.2671,-5.99971 L 16,-5.89999 z
M 73.0457,-7.9751 L 72.115,-8.19855 L 71.2307,-8.56485 L 70.4145,-9.06499 L 69.6866,-9.68665 L 69.065,-10.4145
 L 68.5648,-11.2307 L 68.1985,-12.115 L 67.9751,-13.0457 L 67.9,-14 L 67.9751,-14.9542 L 68.1985,-15.885
 L 68.5648,-16.7693 L 69.065,-17.5855 L 69.6866,-18.3133 L 70.4145,-18.935 L 71.2307,-19.4351 L 72.115,-19.8014
 L 73.0457,-20.0249 L 74,-20.1 L 74.9542,-20.0249 L 75.885,-19.8014 L 76.7693,-19.4351 L 77.5855,-18.935
 L 78.3133,-18.3133 L 78.935,-17.5855 L 79.4351,-16.7693 L 79.8014,-15.885 L 80.0249,-14.9542 L 80.1,-14
 L 80.0249,-13.0457 L 79.8014,-12.115 L 79.4351,-11.2307 L 78.935,-10.4145 L 78.3133,-9.68665 L 77.5855,-9.06499
 L 76.7693,-8.56485 L 75.885,-8.19855 L 74.9542,-7.9751 L 74,-7.89999 z
M 55.0457,-7.9751 L 54.115,-8.19855 L 53.2307,-8.56485 L 52.4145,-9.06499 L 51.6866,-9.68665 L 51.065,-10.4145
 L 50.5648,-11.2307 L 50.1985,-12.115 L 49.9751,-13.0457 L 49.9,-14 L 49.9751,-14.9542 L 50.1985,-15.885
 L 50.5648,-16.7693 L 51.065,-17.5855 L 51.6866,-18.3133 L 52.4145,-18.935 L 53.2307,-19.4351 L 54.115,-19.8014
 L 55.0457,-20.0249 L 56,-20.1 L 56.9542,-20.0249 L 57.885,-19.8014 L 58.7693,-19.4351 L 59.5855,-18.935
 L 60.3133,-18.3133 L 60.935,-17.5855 L 61.4351,-16.7693 L 61.8014,-15.885 L 62.0249,-14.9542 L 62.1,-14
 L 62.0249,-13.0457 L 61.8014,-12.115 L 61.4351,-11.2307 L 60.935,-10.4145 L 60.3133,-9.68665 L 59.5855,-9.06499
 L 58.7693,-8.56485 L 57.885,-8.19855 L 56.9542,-7.9751 L 56,-7.89999 z
M 37.0457,-7.9751 L 36.115,-8.19855 L 35.2307,-8.56485 L 34.4145,-9.06499 L 33.6866,-9.68665 L 33.065,-10.4145
 L 32.5648,-11.2307 L 32.1985,-12.115 L 31.9751,-13.0457 L 31.9,-14 L 31.9751,-14.9542 L 32.1985,-15.885
 L 32.5648,-16.7693 L 33.065,-17.5855 L 33.6866,-18.3133 L 34.4145,-18.935 L 35.2307,-19.4351 L 36.115,-19.8014
 L 37.0457,-20.0249 L 38,-20.1 L 38.9542,-20.0249 L 39.885,-19.8014 L 40.7693,-19.4351 L 41.5855,-18.935
 L 42.3133,-18.3133 L 42.935,-17.5855 L 43.4351,-16.7693 L 43.8014,-15.885 L 44.0249,-14.9542 L 44.1,-14
 L 44.0249,-13.0457 L 43.8014,-12.115 L 43.4351,-11.2307 L 42.935,-10.4145 L 42.3133,-9.68665 L 41.5855,-9.06499
 L 40.7693,-8.56485 L 39.885,-8.19855 L 38.9542,-7.9751 L 38,-7.89999 z
" stroke="black" fill="lightgray" stroke-width="0.5"/>
</svg>
