<?xml version="1.0" standalone="no"?>
<!DOCTYPE svg PUBLIC "-//W3C//DTD SVG 1.1//EN" "http://www.w3.org/Graphics/SVG/1.1/DTD/svg11.dtd">
<svg width="138mm" height="37mm" viewBox="-14 -37 138 37" xmlns="http://www.w3.org/2000/svg" version="1.1">
<title>OpenSCAD Model</title>
<path d="
M 110,-7.39999 L 106.99,-7.39999 L 106.99,-14.8 L 110.01,-14.8 L 110.01,-14 L 124,-14
 L 124,-30 L 110,-30 L 110,-37 L 94.7,-37 L 94.7,-28 L 95.85,-28
 L 95.85,-25.3 L 94.7,-25.3 L 94.7,-23 L 91.3,-23 L 91.3,-25.3 L 90.15,-25.3
 L 90.15,-28 L 71,-28 L 71,-32 L 91.3,-32 L 91.3,-37 L 18.7,-37
 L 18.7,-32 L 39,-32 L 39,-28 L 19.85,-28 L 19.85,-25.3 L 18.7,-25.3
 L 18.7,-23 L 15.3,-23 L 15.3,-25.3 L 14.15,-25.3 L 14.15,-28 L 15.3,-28
 L 15.3,-37 L 0,-37 L 0,-30 L -14,-30 L -14,-14 L -0.00999451,-14
 L -0.00999451,-14.8 L 3.00999,-14.8 L 3.00999,-7.39999 L 0,-7.39999 L 0,-0 L 13,-0
 L 13,-3 L 33,-3 L 33,-0 L 45,-0 L 45,-3 L 65,-3
 L 65,-0 L 77,-0 L 77,-3 L 97,-3 L 97,-0 L 110,-0
 z
M -0.00999451,-22.2 L -0.00999451,-29.6 L 3.00999,-29.6 L 3.00999,-22.2 z
M 106.99,-22.2 L 106.99,-29.6 L 110.01,-29.6 L 110.01,-22.2 z
M -7.39108,-19.5308 L -7.77254,-19.6223 L -8.13496,-19.7725 L -8.46945,-19.9774 L -8.76776,-20.2322 L -9.02254,-20.5305
 L -9.22751,-20.865 L -9.37764,-21.2274 L -9.46921,-21.6089 L -9.5,-22 L -9.46921,-22.3911 L -9.37764,-22.7725
 L -9.22751,-23.135 L -9.02254,-23.4695 L -8.76776,-23.7678 L -8.46945,-24.0225 L -8.13496,-24.2275 L -7.77254,-24.3776
 L -7.39108,-24.4692 L -7,-24.5 L -6.6089,-24.4692 L -6.22745,-24.3776 L -5.86502,-24.2275 L -5.53053,-24.0225
 L -5.23222,-23.7678 L -4.97745,-23.4695 L -4.77248,-23.135 L -4.62234,-22.7725 L -4.53078,-22.3911 L -4.5,-22
 L -4.53078,-21.6089 L -4.62234,-21.2274 L -4.77248,-20.865 L -4.97745,-20.5305 L -5.23222,-20.2322 L -5.53053,-19.9774
 L -5.86502,-19.7725 L -6.22745,-19.6223 L -6.6089,-19.5308 L -7,-19.5 z
M 116.609,-19.5308 L 116.227,-19.6223 L 115.865,-19.7725 L 115.531,-19.9774 L 115.232,-20.2322 L 114.977,-20.5305
 L 114.772,-20.865 L 114.622,-21.2274 L 114.531,-21.6089 L 114.5,-22 L 114.531,-22.3911 L 114.622,-22.7725
 L 114.772,-23.135 L 114.977,-23.4695 L 115.232,-23.7678 L 115.531,-24.0225 L 115.865,-24.2275 L 116.227,-24.3776
 L 116.609,-24.4692 L 117,-24.5 L 117.391,-24.4692 L 117.773,-24.3776 L 118.135,-24.2275 L 118.469,-24.0225
 L 118.768,-23.7678 L 119.023,-23.4695 L 119.228,-23.135 L 119.378,-22.7725 L 119.469,-22.3911 L 119.5,-22
 L 119.469,-21.6089 L 119.378,-21.2274 L 119.228,-20.865 L 119.023,-20.5305 L 118.768,-20.2322 L 118.469,-19.9774
 L 118.135,-19.7725 L 117.773,-19.6223 L 117.391,-19.5308 L 117,-19.5 z
" stroke="black" fill="lightgray" stroke-width="0.5"/>
</svg>
