<svg xmlns="http://www.w3.org/2000/svg" version="1.1" width="110mm" height="78mm" viewBox="-3 -75 110 78">
<g id="cut" fill="none" stroke="#000000" stroke-width="0.2">
<path d="
M 30,-0 L 42,-0 L 42,3 L 62,3 L 62,-0 L 74,-0
 L 74,3 L 94,3 L 94,-0 L 104,-0 L 104,-8 L 107,-8
 L 107,-28 L 104,-28 L 104,-44 L 107,-44 L 107,-64 L 104,-64
 L 104,-72 L 94,-72 L 94,-75 L 74,-75 L 74,-72 L 62,-72
 L 62,-75 L 42,-75 L 42,-72 L 30,-72 L 30,-75 L 10,-75
 L 10,-72 L 0,-72 L 0,-64 L -3,-64 L -3,-44 L 0,-44
 L 0,-28 L -3,-28 L -3,-8 L 0,-8 L 0,-0 L 10,-0
 L 10,3 L 30,3 z
"/>
</g>
<g id="etch" fill="#ff0000" stroke="#ff0000" stroke-width="0.1">
<path d="
M 87.4505,-64.4686 L 87.6011,-64.4866 L 87.744,-64.5166 L 87.8792,-64.5586 L 88.0068,-64.6125 L 88.1267,-64.6785
 L 88.2381,-64.7568 L 88.3402,-64.8477 L 88.433,-64.9511 L 88.5163,-65.0672 L 88.5904,-65.1958 L 88.6551,-65.3371
 L 88.0974,-65.5476 L 88.0124,-65.3699 L 87.9077,-65.2245 L 87.7833,-65.1114 L 87.6393,-65.0307 L 87.4756,-64.9822
 L 87.2923,-64.966 L 87.1527,-64.9738 L 87.0244,-64.9969 L 86.9075,-65.0355 L 86.8019,-65.0895 L 86.7078,-65.1589
 L 86.6251,-65.2438 L 86.5545,-65.3433 L 86.4967,-65.4567 L 86.4518,-65.584 L 86.4197,-65.7251 L 86.4004,-65.8801
 L 86.394,-66.0489 L 86.4002,-66.2148 L 86.4189,-66.3669 L 86.4501,-66.5051 L 86.4938,-66.6295 L 86.5499,-66.7399
 L 86.6186,-66.8365 L 86.6992,-66.9188 L 86.7916,-66.986 L 86.8955,-67.0384 L 87.0111,-67.0757 L 87.1383,-67.0982
 L 87.2771,-67.1056 L 87.3698,-67.1019 L 87.4584,-67.0906 L 87.5427,-67.0717 L 87.6229,-67.0454 L 87.699,-67.0115
 L 87.7708,-66.97 L 87.8368,-66.9222 L 87.8951,-66.8691 L 87.9458,-66.8108 L 87.9888,-66.7473 L 88.0241,-66.6784
 L 88.0518,-66.6044 L 88.6161,-66.7584 L 88.5649,-66.8924 L 88.5025,-67.0151 L 88.4289,-67.1265 L 88.3441,-67.2267
 L 88.248,-67.3156 L 88.1408,-67.3932 L 88.0224,-67.4591 L 87.8929,-67.5131 L 87.7524,-67.5551 L 87.6007,-67.5851
 L 87.438,-67.6031 L 87.2641,-67.6091 L 87.0279,-67.5979 L 86.8111,-67.5643 L 86.6137,-67.5082 L 86.4357,-67.4297
 L 86.2771,-67.3288 L 86.1379,-67.2055 L 86.0192,-67.0612 L 85.9221,-66.8976 L 85.8466,-66.7145 L 85.7926,-66.5121
 L 85.7603,-66.2902 L 85.7495,-66.0489 L 85.7607,-65.8079 L 85.7942,-65.5854 L 85.8501,-65.3813 L 85.9284,-65.1958
 L 86.029,-65.0288 L 86.152,-64.8803 L 86.2955,-64.7527 L 86.4576,-64.6483 L 86.6384,-64.567 L 86.8377,-64.509
 L 87.0557,-64.4742 L 87.2923,-64.4626 z
M 83.4549,-65.2872 L 84.6201,-65.2872 L 84.8914,-64.506 L 85.525,-64.506 L 84.414,-67.5635 L 83.6589,-67.5635
 L 82.5435,-64.506 L 83.1836,-64.506 z
M 83.5981,-65.769 L 83.7037,-66.0767 L 83.7919,-66.3346 L 83.8628,-66.5425 L 83.9164,-66.7006 L 83.9525,-66.8087
 L 83.9713,-66.867 L 83.9812,-66.8996 L 83.9906,-66.9311 L 83.9995,-66.9613 L 84.008,-66.9904 L 84.0159,-67.0182
 L 84.0234,-67.0449 L 84.0364,-67.0927 L 84.082,-66.9429 L 84.1753,-66.6478 L 84.4769,-65.769 z
M 80.976,-64.5112 L 81.1138,-64.5267 L 81.2462,-64.5527 L 81.3732,-64.589 L 81.4946,-64.6356 L 81.6105,-64.6926
 L 81.7195,-64.7594 L 81.8198,-64.8355 L 81.9116,-64.9207 L 81.9949,-65.0152 L 82.0695,-65.1189 L 82.1357,-65.2319
 L 82.1924,-65.3528 L 82.2388,-65.4803 L 82.2748,-65.6146 L 82.3006,-65.7556 L 82.3161,-65.9032 L 82.3212,-66.0575
 L 82.3095,-66.2905 L 82.2742,-66.5047 L 82.2154,-66.7001 L 82.1331,-66.8768 L 82.0273,-67.0348 L 81.898,-67.174
 L 81.7473,-67.293 L 81.5771,-67.3904 L 81.3876,-67.4661 L 81.1786,-67.5202 L 80.9502,-67.5527 L 80.7024,-67.5635
 L 79.5957,-67.5635 L 79.5957,-64.506 L 80.8326,-64.506 z
M 80.2358,-65.0008 L 80.2358,-67.0688 L 80.6894,-67.0688 L 80.8417,-67.0616 L 80.9818,-67.04 L 81.1098,-67.0039
 L 81.2256,-66.9535 L 81.3292,-66.8887 L 81.4207,-66.8094 L 81.4989,-66.7165 L 81.5629,-66.6106 L 81.6127,-66.4918
 L 81.6483,-66.36 L 81.6696,-66.2153 L 81.6767,-66.0575 L 81.67,-65.9005 L 81.6497,-65.7547 L 81.616,-65.6203
 L 81.5687,-65.4972 L 81.5079,-65.3854 L 81.4337,-65.285 L 81.348,-65.1982 L 81.2529,-65.1271 L 81.1483,-65.0718
 L 81.0344,-65.0323 L 80.9111,-65.0087 L 80.7783,-65.0008 z
M 99.25,-61.5 L 68.75,-61.5 L 68.75,-40.5 L 99.25,-40.5 z
M 69.15,-40.9 L 69.15,-61.1 L 98.85,-61.1 L 98.85,-40.9 z
M 71.55,-58.4 L 73.05,-58.4 L 73.05,-58.9 L 71.55,-58.9 L 71.55,-60.4 L 71.05,-60.4
 L 71.05,-58.9 L 69.55,-58.9 L 69.55,-58.4 L 71.05,-58.4 L 71.05,-56.9 L 71.55,-56.9
 z
M 96.95,-58.4 L 98.45,-58.4 L 98.45,-58.9 L 96.95,-58.9 L 96.95,-60.4 L 96.45,-60.4
 L 96.45,-58.9 L 94.95,-58.9 L 94.95,-58.4 L 96.45,-58.4 L 96.45,-56.9 L 96.95,-56.9
 z
M 96.95,-43.1 L 98.45,-43.1 L 98.45,-43.6 L 96.95,-43.6 L 96.95,-45.1 L 96.45,-45.1
 L 96.45,-43.6 L 94.95,-43.6 L 94.95,-43.1 L 96.45,-43.1 L 96.45,-41.6 L 96.95,-41.6
 z
M 71.55,-43.1 L 73.05,-43.1 L 73.05,-43.6 L 71.55,-43.6 L 71.55,-45.1 L 71.05,-45.1
 L 71.05,-43.6 L 69.55,-43.6 L 69.55,-43.1 L 71.05,-43.1 L 71.05,-41.6 L 71.55,-41.6
 z
M 74.9542,-7.97511 L 75.885,-8.19856 L 76.7693,-8.56487 L 77.5855,-9.065 L 78.3133,-9.68666 L 78.935,-10.4145
 L 79.4351,-11.2307 L 79.7952,-12.1 L 100.7,-12.1 L 100.7,-29.9 L 79.3,-29.9 L 79.3,-16.9899
 L 78.935,-17.5855 L 78.3133,-18.3133 L 77.5855,-18.935 L 76.7693,-19.4351 L 75.885,-19.8014 L 74.9542,-20.0249
 L 74,-20.1 L 73.0458,-20.0249 L 72.115,-19.8014 L 71.2307,-19.4351 L 70.4145,-18.935 L 69.6867,-18.3133
 L 69.065,-17.5855 L 68.5649,-16.7693 L 68.1986,-15.885 L 67.9751,-14.9542 L 67.9,-14 L 67.9751,-13.0458
 L 68.1986,-12.115 L 68.5649,-11.2307 L 69.065,-10.4145 L 69.6867,-9.68666 L 70.4145,-9.065 L 71.2307,-8.56487
 L 72.115,-8.19856 L 73.0458,-7.97511 L 74,-7.90001 z
M 79.8939,-12.5 L 80.0249,-13.0458 L 80.1,-14 L 80.0249,-14.9542 L 79.8014,-15.885 L 79.7,-16.1299
 L 79.7,-29.5 L 100.3,-29.5 L 100.3,-12.5 z
M 93.5657,-19.5637 L 93.703,-19.5787 L 93.8342,-19.6037 L 93.9593,-19.6387 L 94.0783,-19.6837 L 94.1912,-19.7387
 L 94.2969,-19.8032 L 94.394,-19.8765 L 94.4827,-19.9587 L 94.5629,-20.0498 L 94.6346,-20.1497 L 94.6978,-20.2585
 L 94.7519,-20.3748 L 94.7961,-20.497 L 94.8305,-20.6252 L 94.8551,-20.7594 L 94.8699,-20.8996 L 94.8748,-21.0458
 L 94.8641,-21.2649 L 94.8322,-21.4678 L 94.7789,-21.6546 L 94.7043,-21.8252 L 94.6085,-21.9796 L 94.4913,-22.1179
 L 94.3552,-22.2373 L 94.2025,-22.3349 L 94.0333,-22.4109 L 93.8475,-22.4651 L 93.6452,-22.4977 L 93.4263,-22.5085
 L 93.2075,-22.4978 L 93.0052,-22.4656 L 92.8196,-22.4119 L 92.6506,-22.3367 L 92.4982,-22.2401 L 92.3624,-22.122
 L 92.2455,-21.9847 L 92.1499,-21.8306 L 92.0755,-21.6597 L 92.0224,-21.4719 L 91.9905,-21.2673 L 91.9799,-21.0458
 L 91.9905,-20.8234 L 92.0225,-20.6174 L 92.0758,-20.4276 L 92.1503,-20.2542 L 92.2462,-20.0972 L 92.3634,-19.9564
 L 92.4993,-19.8349 L 92.6515,-19.7355 L 92.8198,-19.6581 L 93.0044,-19.6029 L 93.2052,-19.5697 L 93.4223,-19.5587
 z
M 93.2973,-20.0382 L 93.1814,-20.0608 L 93.0746,-20.0986 L 92.977,-20.1514 L 92.8884,-20.2193 L 92.8089,-20.3022
 L 92.7402,-20.3983 L 92.684,-20.5056 L 92.6403,-20.6239 L 92.6091,-20.7534 L 92.5904,-20.8941 L 92.5841,-21.0458
 L 92.5902,-21.196 L 92.6085,-21.3348 L 92.639,-21.4621 L 92.6817,-21.5779 L 92.7367,-21.6823 L 92.8038,-21.7751
 L 92.8821,-21.855 L 92.9706,-21.9203 L 93.0693,-21.9712 L 93.1781,-22.0075 L 93.2971,-22.0293 L 93.4263,-22.0365
 L 93.5536,-22.0292 L 93.6711,-22.0073 L 93.7788,-21.9707 L 93.8766,-21.9194 L 93.9646,-21.8536 L 94.0427,-21.7731
 L 94.1099,-21.6797 L 94.1648,-21.5752 L 94.2075,-21.4595 L 94.2381,-21.3328 L 94.2564,-21.1949 L 94.2625,-21.0458
 L 94.2564,-20.8899 L 94.2382,-20.7463 L 94.2078,-20.6151 L 94.1653,-20.4961 L 94.1106,-20.3895 L 94.0438,-20.2951
 L 93.9657,-20.2143 L 93.8775,-20.1482 L 93.779,-20.0968 L 93.6703,-20.06 L 93.5514,-20.038 L 93.4223,-20.0307
 z
M 86.4175,-20.7407 L 87.1377,-19.5994 L 87.7683,-19.5994 L 86.8142,-21.1068 L 87.6849,-22.4658 L 87.0543,-22.4658
 L 86.4175,-21.4527 L 85.7807,-22.4658 L 85.146,-22.4658 L 86.0554,-21.1068 L 85.0626,-19.5994 L 85.6973,-19.5994
 z
M 88.6189,-22.4658 L 88.0187,-22.4658 L 88.0187,-19.5994 L 88.6189,-19.5994 z
M 89.8287,-20.3318 L 90.9211,-20.3318 L 91.1755,-19.5994 L 91.7695,-19.5994 L 90.7279,-22.4658 L 90.0199,-22.4658
 L 88.9742,-19.5994 L 89.5744,-19.5994 z
M 89.963,-20.7834 L 90.062,-21.0719 L 90.1447,-21.3137 L 90.2112,-21.5086 L 90.2613,-21.6568 L 90.2952,-21.7582
 L 90.3129,-21.8128 L 90.3221,-21.8434 L 90.3309,-21.8729 L 90.3393,-21.9013 L 90.3472,-21.9285 L 90.3547,-21.9546
 L 90.3617,-21.9796 L 90.3739,-22.0244 L 90.4166,-21.884 L 90.5041,-21.6073 L 90.7869,-20.7834 z
M 73.1083,-8.37018 L 72.2386,-8.57898 L 71.4123,-8.92126 L 70.6496,-9.38861 L 69.9695,-9.9695 L 69.3886,-10.6496
 L 68.9213,-11.4123 L 68.579,-12.2386 L 68.3702,-13.1083 L 68.3,-14 L 68.3702,-14.8917 L 68.579,-15.7614
 L 68.9213,-16.5877 L 69.3886,-17.3504 L 69.9695,-18.0305 L 70.6496,-18.6114 L 71.4123,-19.0787 L 72.2386,-19.421
 L 73.1083,-19.6298 L 74,-19.7 L 74.8917,-19.6298 L 75.7614,-19.421 L 76.5877,-19.0787 L 77.3504,-18.6114
 L 78.0305,-18.0305 L 78.6114,-17.3504 L 79.0787,-16.5877 L 79.3,-16.0535 L 79.3,-12.1 L 79.3636,-12.1
 L 79.0787,-11.4123 L 78.6114,-10.6496 L 78.0305,-9.9695 L 77.3504,-9.38861 L 76.5877,-8.92126 L 75.7614,-8.57898
 L 74.8917,-8.37018 L 74,-8.3 z
M 49.307,-23.4695 L 49.4463,-23.4813 L 49.5836,-23.5009 L 49.7187,-23.5283 L 49.8517,-23.5636 L 49.9826,-23.6066
 L 50.1083,-23.6567 L 50.226,-23.7127 L 50.3355,-23.7748 L 50.4368,-23.8429 L 50.53,-23.9171 L 50.6151,-23.9973
 L 50.6151,-25.1213 L 49.2827,-25.1213 L 49.2827,-24.6483 L 50.0292,-24.6483 L 50.0292,-24.2251 L 49.9836,-24.1886
 L 49.9321,-24.1543 L 49.8746,-24.1223 L 49.8113,-24.0925 L 49.742,-24.0649 L 49.6668,-24.0396 L 49.5883,-24.0173
 L 49.5089,-23.9992 L 49.4287,-23.985 L 49.3476,-23.9749 L 49.2657,-23.9689 L 49.1829,-23.9669 L 49.0423,-23.9747
 L 48.9125,-23.9983 L 48.7937,-24.0377 L 48.6858,-24.0927 L 48.5888,-24.1635 L 48.5027,-24.2501 L 48.4287,-24.351
 L 48.3682,-24.465 L 48.3212,-24.5921 L 48.2876,-24.7323 L 48.2674,-24.8856 L 48.2607,-25.0519 L 48.2672,-25.2153
 L 48.2867,-25.3656 L 48.3193,-25.5027 L 48.3649,-25.6267 L 48.4234,-25.7375 L 48.495,-25.8352 L 48.5792,-25.9188
 L 48.6754,-25.9871 L 48.7836,-26.0403 L 48.904,-26.0783 L 49.0363,-26.101 L 49.1808,-26.1086 L 49.2706,-26.1053
 L 49.3565,-26.0954 L 49.4384,-26.0788 L 49.5164,-26.0556 L 49.5903,-26.0258 L 49.6603,-25.9893 L 49.7253,-25.9464
 L 49.7843,-25.8972 L 49.8372,-25.8417 L 49.8841,-25.78 L 49.925,-25.712 L 49.9598,-25.6378 L 50.55,-25.8157
 L 50.4306,-26.0591 L 50.2677,-26.2581 L 50.0612,-26.413 L 49.8113,-26.5236 L 49.5178,-26.59 L 49.1808,-26.6121
 L 48.9382,-26.6009 L 48.7152,-26.5674 L 48.5119,-26.5115 L 48.3282,-26.4332 L 48.1642,-26.3325 L 48.0198,-26.2095
 L 47.8965,-26.0656 L 47.7956,-25.902 L 47.7171,-25.7189 L 47.661,-25.5161 L 47.6274,-25.2938 L 47.6162,-25.0519
 L 47.6273,-24.8083 L 47.6608,-24.584 L 47.7166,-24.3789 L 47.7946,-24.193 L 47.895,-24.0264 L 48.0176,-23.879
 L 48.161,-23.7527 L 48.3236,-23.6493 L 48.5053,-23.569 L 48.7063,-23.5116 L 48.9263,-23.4771 L 49.1656,-23.4656
 z
M 58.4124,-24.0103 L 56.9932,-24.0103 L 57.0152,-24.0568 L 57.0408,-24.1024 L 57.0699,-24.147 L 57.1026,-24.1906
 L 57.1389,-24.2333 L 57.1787,-24.275 L 57.2211,-24.3162 L 57.2649,-24.3572 L 57.3103,-24.3982 L 57.3571,-24.439
 L 57.4055,-24.4796 L 57.4554,-24.5202 L 57.5063,-24.5609 L 57.5577,-24.602 L 57.6097,-24.6434 L 57.6623,-24.6852
 L 57.7153,-24.7273 L 57.769,-24.7698 L 57.822,-24.813 L 57.8735,-24.8572 L 57.9233,-24.9024 L 57.9715,-24.9487
 L 58.0181,-24.996 L 58.063,-25.0443 L 58.1058,-25.0938 L 58.146,-25.1449 L 58.1834,-25.1975 L 58.2183,-25.2516
 L 58.2505,-25.3072 L 58.28,-25.3643 L 58.3058,-25.4234 L 58.327,-25.4847 L 58.3435,-25.5483 L 58.3552,-25.6141
 L 58.3623,-25.6823 L 58.3646,-25.7528 L 58.3573,-25.8837 L 58.3352,-26.0045 L 58.2984,-26.1152 L 58.247,-26.2157
 L 58.1808,-26.3061 L 58.0999,-26.3864 L 58.0053,-26.4554 L 57.8978,-26.5118 L 57.7776,-26.5557 L 57.6447,-26.587
 L 57.4989,-26.6058 L 57.3404,-26.6121 L 57.1931,-26.6059 L 57.0565,-26.5873 L 56.9305,-26.5562 L 56.8152,-26.5128
 L 56.7106,-26.4569 L 56.6167,-26.3886 L 56.534,-26.3085 L 56.4632,-26.2172 L 56.4043,-26.1146 L 56.3573,-26.0009
 L 56.3221,-25.8759 L 56.2988,-25.7397 L 56.9129,-25.705 L 56.925,-25.7723 L 56.9412,-25.8337 L 56.9615,-25.8892
 L 56.9857,-25.9389 L 57.014,-25.9828 L 57.0464,-26.0208 L 57.0833,-26.0529 L 57.1253,-26.0792 L 57.1725,-26.0997
 L 57.2248,-26.1143 L 57.2822,-26.1231 L 57.3447,-26.126 L 57.4674,-26.1149 L 57.5677,-26.0816 L 57.6458,-26.0262
 L 57.7016,-25.9485 L 57.735,-25.8487 L 57.7462,-25.7267 L 57.7426,-25.6723 L 57.7318,-25.6175 L 57.7139,-25.5623
 L 57.6888,-25.5068 L 57.6565,-25.451 L 57.6171,-25.3947 L 57.5687,-25.3358 L 57.5096,-25.2718 L 57.4399,-25.2027
 L 57.3596,-25.1285 L 57.2685,-25.0493 L 57.1668,-24.9651 L 57.0585,-24.8753 L 56.9566,-24.7867 L 56.8611,-24.6992
 L 56.7718,-24.6131 L 56.6889,-24.5281 L 56.6124,-24.4443 L 56.5417,-24.3607 L 56.4767,-24.2765 L 56.4173,-24.1915
 L 56.3635,-24.1058 L 56.3153,-24.0193 L 56.2728,-23.9321 L 56.2728,-23.509 L 58.4124,-23.509 z
M 63.5453,-23.4656 L 63.699,-23.4851 L 63.8394,-23.5177 L 63.9666,-23.5632 L 64.0805,-23.6218 L 64.1812,-23.6935
 L 64.2674,-23.777 L 64.3379,-23.8714 L 64.3928,-23.9767 L 64.4319,-24.0927 L 64.4554,-24.2197 L 64.4633,-24.3575
 L 64.458,-24.4529 L 64.4422,-24.5425 L 64.4158,-24.6263 L 64.3789,-24.7042 L 64.3314,-24.7762 L 64.2734,-24.8425
 L 64.2056,-24.9016 L 64.1289,-24.9525 L 64.0431,-24.9952 L 63.9484,-25.0296 L 63.8447,-25.0557 L 63.732,-25.0736
 L 63.732,-25.0822 L 63.8335,-25.1059 L 63.9267,-25.1365 L 64.0117,-25.1739 L 64.0884,-25.2182 L 64.1568,-25.2694
 L 64.217,-25.3275 L 64.2684,-25.3918 L 64.3104,-25.4617 L 64.3431,-25.5374 L 64.3665,-25.6187 L 64.3805,-25.7057
 L 64.3852,-25.7983 L 64.3777,-25.921 L 64.3551,-26.0345 L 64.3176,-26.1387 L 64.2651,-26.2338 L 64.1976,-26.3196
 L 64.115,-26.3962 L 64.0191,-26.4621 L 63.9116,-26.5161 L 63.7925,-26.5581 L 63.6617,-26.5881 L 63.5193,-26.6061
 L 63.3653,-26.6121 L 63.2196,-26.6059 L 63.0834,-26.5873 L 62.9568,-26.5562 L 62.8396,-26.5128 L 62.732,-26.4569
 L 62.634,-26.3886 L 62.5471,-26.3093 L 62.4732,-26.2205 L 62.4121,-26.1222 L 62.364,-26.0144 L 62.3287,-25.897
 L 62.3063,-25.7701 L 62.9161,-25.7267 L 62.9246,-25.788 L 62.9386,-25.8444 L 62.9581,-25.896 L 62.9831,-25.9428
 L 63.0136,-25.9847 L 63.0495,-26.0219 L 63.0902,-26.0537 L 63.135,-26.0797 L 63.1838,-26.1 L 63.2366,-26.1144
 L 63.2935,-26.1231 L 63.3544,-26.126 L 63.419,-26.123 L 63.4782,-26.1141 L 63.5321,-26.0992 L 63.5806,-26.0783
 L 63.6237,-26.0514 L 63.6615,-26.0186 L 63.6936,-25.9805 L 63.72,-25.9379 L 63.7404,-25.8908 L 63.7551,-25.8392
 L 63.7638,-25.7831 L 63.7667,-25.7224 L 63.7631,-25.6584 L 63.752,-25.5995 L 63.7336,-25.5458 L 63.7079,-25.4972
 L 63.6748,-25.4537 L 63.6344,-25.4153 L 63.5866,-25.3825 L 63.5316,-25.3557 L 63.4694,-25.3348 L 63.4,-25.3199
 L 63.3233,-25.3109 L 63.2394,-25.3079 L 63.0398,-25.3079 L 63.0398,-24.8153 L 63.2524,-24.8153 L 63.3454,-24.8123
 L 63.4304,-24.8033 L 63.5074,-24.7882 L 63.5765,-24.7671 L 63.6376,-24.74 L 63.6908,-24.7068 L 63.7359,-24.668
 L 63.7728,-24.6239 L 63.8014,-24.5745 L 63.8219,-24.5198 L 63.8342,-24.4597 L 63.8383,-24.3944 L 63.8349,-24.3231
 L 63.8248,-24.2581 L 63.8079,-24.1996 L 63.7843,-24.1475 L 63.7539,-24.1017 L 63.7168,-24.0623 L 63.6736,-24.0292
 L 63.6249,-24.0021 L 63.5709,-23.981 L 63.5114,-23.9659 L 63.4465,-23.9569 L 63.3761,-23.9539 L 63.2392,-23.9661
 L 63.1237,-24.0028 L 63.0295,-24.064 L 62.9566,-24.1497 L 62.9051,-24.2598 L 62.8749,-24.3944 L 62.2542,-24.3401
 L 62.2776,-24.2032 L 62.3143,-24.0774 L 62.3644,-23.9628 L 62.4278,-23.8593 L 62.5047,-23.767 L 62.5949,-23.6858
 L 62.6975,-23.6166 L 62.8112,-23.5599 L 62.9362,-23.5158 L 63.0723,-23.4843 L 63.2197,-23.4654 L 63.3783,-23.4591
 z
M 20.5727,-23.4703 L 20.7159,-23.4935 L 20.8476,-23.5321 L 20.9677,-23.5861 L 21.0762,-23.6555 L 21.1731,-23.7404
 L 21.2566,-23.8388 L 21.325,-23.9489 L 21.3781,-24.0708 L 21.4161,-24.2043 L 21.4389,-24.3495 L 21.4465,-24.5064
 L 21.4399,-24.6502 L 21.42,-24.7837 L 21.3868,-24.9067 L 21.3404,-25.0194 L 21.2807,-25.1218 L 21.2078,-25.2138
 L 21.1235,-25.2933 L 21.0296,-25.3584 L 20.9263,-25.4091 L 20.8134,-25.4453 L 20.6909,-25.4669 L 20.559,-25.4742
 L 20.4872,-25.4718 L 20.4179,-25.4645 L 20.3512,-25.4525 L 20.287,-25.4356 L 20.2253,-25.4139 L 20.1662,-25.3874
 L 20.1105,-25.3563 L 20.0589,-25.3211 L 20.0116,-25.2816 L 19.9685,-25.2379 L 19.9296,-25.19 L 19.8949,-25.1378
 L 19.8988,-25.2971 L 19.9105,-25.4424 L 19.9299,-25.5735 L 19.9572,-25.6905 L 19.9921,-25.7934 L 20.0349,-25.8822
 L 20.0845,-25.9571 L 20.1399,-26.0184 L 20.2012,-26.0661 L 20.2683,-26.1001 L 20.3413,-26.1206 L 20.4201,-26.1274
 L 20.5099,-26.119 L 20.5884,-26.0939 L 20.6555,-26.052 L 20.7114,-25.9933 L 20.7558,-25.9179 L 20.789,-25.8257
 L 21.364,-25.906 L 21.3293,-26.0209 L 21.2873,-26.1252 L 21.2379,-26.2191 L 21.1813,-26.3024 L 21.1174,-26.3753
 L 21.0461,-26.4377 L 20.9667,-26.4901 L 20.8782,-26.5329 L 20.7806,-26.5662 L 20.6739,-26.59 L 20.558,-26.6043
 L 20.4331,-26.6091 L 20.2579,-26.5976 L 20.0966,-26.5632 L 19.9495,-26.5057 L 19.8163,-26.4254 L 19.6973,-26.322
 L 19.5922,-26.1957 L 19.5024,-26.0467 L 19.4289,-25.8751 L 19.3717,-25.6811 L 19.3309,-25.4646 L 19.3064,-25.2257
 L 19.2982,-24.9642 L 19.3063,-24.7263 L 19.3304,-24.5087 L 19.3706,-24.3113 L 19.427,-24.1343 L 19.4994,-23.9776
 L 19.5879,-23.8413 L 19.6914,-23.7256 L 19.8089,-23.6309 L 19.9403,-23.5573 L 20.0856,-23.5047 L 20.2448,-23.4731
 L 20.4179,-23.4626 z
M 20.3319,-23.9427 L 20.2698,-23.9573 L 20.2121,-23.9815 L 20.1588,-24.0155 L 20.1098,-24.0592 L 20.0653,-24.1125
 L 20.0265,-24.1733 L 19.9948,-24.2392 L 19.9701,-24.3103 L 19.9525,-24.3864 L 19.9419,-24.4677 L 19.9384,-24.5541
 L 19.9417,-24.6227 L 19.9519,-24.6866 L 19.9688,-24.7459 L 19.9924,-24.8005 L 20.0228,-24.8505 L 20.0599,-24.8959
 L 20.1026,-24.9353 L 20.1498,-24.9676 L 20.2015,-24.9927 L 20.2576,-25.0107 L 20.3182,-25.0214 L 20.3832,-25.025
 L 20.4509,-25.0212 L 20.5135,-25.0097 L 20.5712,-24.9906 L 20.6238,-24.9638 L 20.6715,-24.9293 L 20.7141,-24.8872
 L 20.7509,-24.8379 L 20.781,-24.7817 L 20.8045,-24.7188 L 20.8212,-24.649 L 20.8312,-24.5724 L 20.8346,-24.489
 L 20.8314,-24.406 L 20.8218,-24.3293 L 20.8058,-24.2587 L 20.7834,-24.1944 L 20.7547,-24.1362 L 20.7196,-24.0843
 L 20.6787,-24.0396 L 20.6328,-24.0029 L 20.5818,-23.9745 L 20.5257,-23.9541 L 20.4646,-23.9419 L 20.3984,-23.9379
 z
M 12.3238,-23.4665 L 12.4631,-23.4783 L 12.6003,-23.4979 L 12.7354,-23.5253 L 12.8684,-23.5605 L 12.9993,-23.6036
 L 13.1251,-23.6537 L 13.2428,-23.7097 L 13.3522,-23.7718 L 13.4536,-23.8399 L 13.5468,-23.9141 L 13.6319,-23.9943
 L 13.6319,-25.1183 L 12.2995,-25.1183 L 12.2995,-24.6453 L 13.046,-24.6453 L 13.046,-24.2221 L 13.0004,-24.1856
 L 12.9489,-24.1513 L 12.8914,-24.1193 L 12.828,-24.0895 L 12.7588,-24.0619 L 12.6836,-24.0366 L 12.6051,-24.0144
 L 12.5257,-23.9962 L 12.4455,-23.982 L 12.3644,-23.9719 L 12.2825,-23.9659 L 12.1997,-23.9639 L 12.0591,-23.9717
 L 11.9293,-23.9953 L 11.8105,-24.0347 L 11.7026,-24.0897 L 11.6055,-24.1605 L 11.5194,-24.2471 L 11.4455,-24.348
 L 11.385,-24.462 L 11.338,-24.5891 L 11.3044,-24.7293 L 11.2842,-24.8826 L 11.2775,-25.0489 L 11.284,-25.2123
 L 11.3035,-25.3626 L 11.3361,-25.4997 L 11.3816,-25.6237 L 11.4402,-25.7345 L 11.5118,-25.8322 L 11.596,-25.9158
 L 11.6922,-25.9841 L 11.8004,-26.0373 L 11.9207,-26.0753 L 12.0531,-26.0981 L 12.1975,-26.1056 L 12.2874,-26.1023
 L 12.3733,-26.0924 L 12.4552,-26.0758 L 12.5332,-26.0526 L 12.6071,-26.0228 L 12.6771,-25.9863 L 12.7421,-25.9434
 L 12.801,-25.8942 L 12.854,-25.8387 L 12.9009,-25.777 L 12.9417,-25.709 L 12.9766,-25.6348 L 13.5668,-25.8127
 L 13.4474,-26.056 L 13.2845,-26.2551 L 13.078,-26.41 L 12.828,-26.5206 L 12.5346,-26.587 L 12.1975,-26.6091
 L 11.9549,-26.5979 L 11.732,-26.5644 L 11.5286,-26.5085 L 11.345,-26.4302 L 11.181,-26.3295 L 11.0366,-26.2065
 L 10.9133,-26.0626 L 10.8123,-25.899 L 10.7339,-25.7159 L 10.6778,-25.5131 L 10.6442,-25.2908 L 10.633,-25.0489
 L 10.6441,-24.8053 L 10.6776,-24.581 L 10.7333,-24.3759 L 10.8114,-24.19 L 10.9117,-24.0234 L 11.0344,-23.876
 L 11.1778,-23.7497 L 11.3404,-23.6463 L 11.5221,-23.566 L 11.723,-23.5085 L 11.9431,-23.4741 L 12.1823,-23.4626
 z
M 56.0528,-23.9625 L 55.3519,-23.9625 L 55.3519,-26.5665 L 54.7747,-26.5665 L 54.0087,-26.0696 L 54.0087,-25.59
 L 54.7421,-26.0479 L 54.7421,-23.9625 L 53.9848,-23.9625 L 53.9848,-23.509 L 56.0528,-23.509 z
M 52.2942,-24.7264 L 53.0624,-23.509 L 53.7351,-23.509 L 52.7173,-25.117 L 53.6461,-26.5665 L 52.9734,-26.5665
 L 52.2942,-25.4859 L 51.615,-26.5665 L 50.9379,-26.5665 L 51.9079,-25.117 L 50.849,-23.509 L 51.526,-23.509
 z
M 15.311,-24.7234 L 16.0791,-23.506 L 16.7518,-23.506 L 15.7341,-25.114 L 16.6629,-26.5635 L 15.9902,-26.5635
 L 15.311,-25.4828 L 14.6317,-26.5635 L 13.9547,-26.5635 L 14.9247,-25.114 L 13.8658,-23.506 L 14.5428,-23.506
 z
M 19.0695,-23.9595 L 18.3687,-23.9595 L 18.3687,-26.5635 L 17.7914,-26.5635 L 17.0254,-26.0666 L 17.0254,-25.587
 L 17.7589,-26.0449 L 17.7589,-23.9595 L 17.0016,-23.9595 L 17.0016,-23.506 L 19.0695,-23.506 z
M 60.9688,-24.3597 L 61.5156,-23.509 L 62.1775,-23.509 L 61.3116,-24.7286 L 62.1297,-25.8569 L 61.4679,-25.8569
 L 60.9688,-25.0888 L 60.4675,-25.8569 L 59.81,-25.8569 L 60.6281,-24.722 L 59.7688,-23.509 L 60.4176,-23.509
 z
M 17.2671,-5.99973 L 18.503,-6.29645 L 19.6773,-6.78285 L 20.761,-7.44698 L 21.7276,-8.27245 L 22.553,-9.23895
 L 23.2171,-10.3227 L 23.7036,-11.497 L 24.0003,-12.7329 L 24.1,-14 L 24.0003,-15.2671 L 23.7036,-16.503
 L 23.2171,-17.6773 L 22.553,-18.761 L 21.7276,-19.7276 L 20.761,-20.553 L 19.6773,-21.2171 L 18.503,-21.7036
 L 17.2671,-22.0003 L 16,-22.1 L 14.7329,-22.0003 L 13.497,-21.7036 L 12.3227,-21.2171 L 11.239,-20.553
 L 10.2724,-19.7276 L 9.44698,-18.761 L 8.78285,-17.6773 L 8.29645,-16.503 L 7.99973,-15.2671 L 7.90001,-14
 L 7.99973,-12.7329 L 8.29645,-11.497 L 8.78285,-10.3227 L 9.44698,-9.23895 L 10.2724,-8.27245 L 11.239,-7.44698
 L 12.3227,-6.78285 L 13.497,-6.29645 L 14.7329,-5.99973 L 16,-5.90001 z
M 14.7955,-6.39481 L 13.6206,-6.67688 L 12.5043,-7.13925 L 11.4741,-7.77058 L 10.5553,-8.55528 L 9.77058,-9.47406
 L 9.13925,-10.5043 L 8.67688,-11.6206 L 8.39481,-12.7955 L 8.3,-14 L 8.39481,-15.2045 L 8.67688,-16.3794
 L 9.13925,-17.4957 L 9.77058,-18.5259 L 10.5553,-19.4447 L 11.4741,-20.2294 L 12.5043,-20.8607 L 13.6206,-21.3231
 L 14.7955,-21.6052 L 16,-21.7 L 17.2045,-21.6052 L 18.3794,-21.3231 L 19.4957,-20.8607 L 20.5259,-20.2294
 L 21.4447,-19.4447 L 22.2294,-18.5259 L 22.8607,-17.4957 L 23.3231,-16.3794 L 23.6052,-15.2045 L 23.7,-14
 L 23.6052,-12.7955 L 23.3231,-11.6206 L 22.8607,-10.5043 L 22.2294,-9.47406 L 21.4447,-8.55528 L 20.5259,-7.77058
 L 19.4957,-7.13925 L 18.3794,-6.67688 L 17.2045,-6.39481 L 16,-6.3 z
M 56.9542,-7.97511 L 57.885,-8.19856 L 58.7693,-8.56487 L 59.5855,-9.065 L 60.3133,-9.68666 L 60.935,-10.4145
 L 61.4351,-11.2307 L 61.8014,-12.115 L 62.0249,-13.0458 L 62.1,-14 L 62.0249,-14.9542 L 61.8014,-15.885
 L 61.4351,-16.7693 L 60.935,-17.5855 L 60.3133,-18.3133 L 59.5855,-18.935 L 58.7693,-19.4351 L 57.885,-19.8014
 L 56.9542,-20.0249 L 56,-20.1 L 55.0458,-20.0249 L 54.115,-19.8014 L 53.2307,-19.4351 L 52.4145,-18.935
 L 51.6867,-18.3133 L 51.065,-17.5855 L 50.5649,-16.7693 L 50.1986,-15.885 L 49.9751,-14.9542 L 49.9,-14
 L 49.9751,-13.0458 L 50.1986,-12.115 L 50.5649,-11.2307 L 51.065,-10.4145 L 51.6867,-9.68666 L 52.4145,-9.065
 L 53.2307,-8.56487 L 54.115,-8.19856 L 55.0458,-7.97511 L 56,-7.90001 z
M 55.1083,-8.37018 L 54.2386,-8.57898 L 53.4123,-8.92126 L 52.6496,-9.38861 L 51.9695,-9.9695 L 51.3886,-10.6496
 L 50.9213,-11.4123 L 50.579,-12.2386 L 50.3702,-13.1083 L 50.3,-14 L 50.3702,-14.8917 L 50.579,-15.7614
 L 50.9213,-16.5877 L 51.3886,-17.3504 L 51.9695,-18.0305 L 52.6496,-18.6114 L 53.4123,-19.0787 L 54.2386,-19.421
 L 55.1083,-19.6298 L 56,-19.7 L 56.8917,-19.6298 L 57.7614,-19.421 L 58.5877,-19.0787 L 59.3504,-18.6114
 L 60.0305,-18.0305 L 60.6114,-17.3504 L 61.0787,-16.5877 L 61.421,-15.7614 L 61.6298,-14.8917 L 61.7,-14
 L 61.6298,-13.1083 L 61.421,-12.2386 L 61.0787,-11.4123 L 60.6114,-10.6496 L 60.0305,-9.9695 L 59.3504,-9.38861
 L 58.5877,-8.92126 L 57.7614,-8.57898 L 56.8917,-8.37018 L 56,-8.3 z
M 38.9542,-7.97511 L 39.885,-8.19856 L 40.7693,-8.56487 L 41.5855,-9.065 L 42.3133,-9.68666 L 42.935,-10.4145
 L 43.4351,-11.2307 L 43.8014,-12.115 L 44.0249,-13.0458 L 44.1,-14 L 44.0249,-14.9542 L 43.8014,-15.885
 L 43.4351,-16.7693 L 42.935,-17.5855 L 42.3133,-18.3133 L 41.5855,-18.935 L 40.7693,-19.4351 L 39.885,-19.8014
 L 38.9542,-20.0249 L 38,-20.1 L 37.0458,-20.0249 L 36.115,-19.8014 L 35.2307,-19.4351 L 34.4145,-18.935
 L 33.6867,-18.3133 L 33.065,-17.5855 L 32.5649,-16.7693 L 32.1986,-15.885 L 31.9751,-14.9542 L 31.9,-14
 L 31.9751,-13.0458 L 32.1986,-12.115 L 32.5649,-11.2307 L 33.065,-10.4145 L 33.6867,-9.68666 L 34.4145,-9.065
 L 35.2307,-8.56487 L 36.115,-8.19856 L 37.0458,-7.97511 L 38,-7.90001 z
M 37.1083,-8.37018 L 36.2386,-8.57898 L 35.4123,-8.92126 L 34.6496,-9.38861 L 33.9695,-9.9695 L 33.3886,-10.6496
 L 32.9213,-11.4123 L 32.579,-12.2386 L 32.3702,-13.1083 L 32.3,-14 L 32.3702,-14.8917 L 32.579,-15.7614
 L 32.9213,-16.5877 L 33.3886,-17.3504 L 33.9695,-18.0305 L 34.6496,-18.6114 L 35.4123,-19.0787 L 36.2386,-19.421
 L 37.1083,-19.6298 L 38,-19.7 L 38.8917,-19.6298 L 39.7614,-19.421 L 40.5877,-19.0787 L 41.3504,-18.6114
 L 42.0305,-18.0305 L 42.6114,-17.3504 L 43.0787,-16.5877 L 43.421,-15.7614 L 43.6298,-14.8917 L 43.7,-14
 L 43.6298,-13.1083 L 43.421,-12.2386 L 43.0787,-11.4123 L 42.6114,-10.6496 L 42.0305,-9.9695 L 41.3504,-9.38861
 L 40.5877,-8.92126 L 39.7614,-8.57898 L 38.8917,-8.37018 L 38,-8.3 z
"/>
</g>
</svg>