<svg xmlns="http://www.w3.org/2000/svg" version="1.1" width="78mm" height="37mm" viewBox="0 -37 78 37">
<g id="cut" fill="none" stroke="#000000" stroke-width="0.2">
<path d="
M 74.99,-7.39999 L 78,-7.39999 L 78,-14.8 L 74.99,-14.8 L 74.99,-22.2 L 78,-22.2
 L 78,-29.6 L 74.99,-29.6 L 74.99,-37 L 3.00999,-37 L 3.00999,-29.6 L 0,-29.6
 L 0,-22.2 L 3.00999,-22.2 L 3.00999,-14.8 L 0,-14.8 L 0,-7.39999 L 3.00999,-7.39999
 L 3.00999,-0 L 11,-0 L 11,-3 L 31,-3 L 31,-0 L 47,-0
 L 47,-3 L 67,-3 L 67,-0 L 74.99,-0 z
"/>
</g>
<g id="etch" fill="#ff0000" stroke="#ff0000" stroke-width="0.1">
<path d="
M 62.5084,-25.79 L 63.0043,-25.9091 L 63.4755,-26.1042 L 63.9103,-26.3707 L 64.2981,-26.7019 L 64.6293,-27.0897
 L 64.8958,-27.5245 L 65.0909,-27.9957 L 65.21,-28.4916 L 65.25,-29 L 65.21,-29.5084 L 65.0909,-30.0043
 L 64.8958,-30.4755 L 64.6293,-30.9103 L 64.2981,-31.2981 L 63.9103,-31.6293 L 63.4755,-31.8958 L 63.0043,-32.0909
 L 62.5084,-32.21 L 62,-32.25 L 61.4916,-32.21 L 60.9957,-32.0909 L 60.5245,-31.8958 L 60.0897,-31.6293
 L 59.7019,-31.2981 L 59.3707,-30.9103 L 59.1042,-30.4755 L 58.9091,-30.0043 L 58.79,-29.5084 L 58.75,-29
 L 58.79,-28.4916 L 58.9091,-27.9957 L 59.1042,-27.5245 L 59.3707,-27.0897 L 59.7019,-26.7019 L 60.0897,-26.3707
 L 60.5245,-26.1042 L 60.9957,-25.9091 L 61.4916,-25.79 L 62,-25.75 z
M 61.5542,-26.1851 L 61.1193,-26.2895 L 60.7061,-26.4606 L 60.3248,-26.6943 L 59.9848,-26.9848 L 59.6943,-27.3248
 L 59.4606,-27.7061 L 59.2895,-28.1193 L 59.1851,-28.5542 L 59.15,-29 L 59.1851,-29.4458 L 59.2895,-29.8807
 L 59.4606,-30.2939 L 59.6943,-30.6752 L 59.9848,-31.0152 L 60.3248,-31.3057 L 60.7061,-31.5394 L 61.1193,-31.7105
 L 61.5542,-31.8149 L 62,-31.85 L 62.4458,-31.8149 L 62.8807,-31.7105 L 63.2939,-31.5394 L 63.6752,-31.3057
 L 64.0152,-31.0152 L 64.3057,-30.6752 L 64.5394,-30.2939 L 64.7105,-29.8807 L 64.8149,-29.4458 L 64.85,-29
 L 64.8149,-28.5542 L 64.7105,-28.1193 L 64.5394,-27.7061 L 64.3057,-27.3248 L 64.0152,-26.9848 L 63.6752,-26.6943
 L 63.2939,-26.4606 L 62.8807,-26.2895 L 62.4458,-26.1851 L 62,-26.15 z
M 50.7748,-21.7781 L 51.447,-20.7129 L 52.0356,-20.7129 L 51.1451,-22.1198 L 51.9577,-23.3882 L 51.3691,-23.3882
 L 50.7748,-22.4426 L 50.1805,-23.3882 L 49.5881,-23.3882 L 50.4368,-22.1198 L 49.5103,-20.7129 L 50.1026,-20.7129
 z
M 48.289,-20.6827 L 48.4576,-20.706 L 48.612,-20.7449 L 48.7522,-20.7994 L 48.8783,-20.8694 L 48.9901,-20.955
 L 49.0861,-21.0547 L 49.1647,-21.1671 L 49.2258,-21.2922 L 49.2694,-21.4301 L 49.2956,-21.5806 L 49.3044,-21.7439
 L 49.3044,-23.3882 L 48.7442,-23.3882 L 48.7442,-21.7781 L 48.7397,-21.6753 L 48.7263,-21.5807 L 48.7039,-21.4945
 L 48.6725,-21.4165 L 48.6321,-21.3468 L 48.5828,-21.2853 L 48.5252,-21.2328 L 48.4598,-21.1899 L 48.3868,-21.1565
 L 48.306,-21.1326 L 48.2176,-21.1183 L 48.1214,-21.1135 L 48.0279,-21.1181 L 47.9422,-21.1318 L 47.8644,-21.1546
 L 47.7945,-21.1865 L 47.7324,-21.2276 L 47.6781,-21.2778 L 47.632,-21.3367 L 47.5943,-21.4042 L 47.5649,-21.4802
 L 47.5439,-21.5647 L 47.5314,-21.6577 L 47.5272,-21.7591 L 47.5272,-23.3882 L 46.967,-23.3882 L 46.967,-21.7154
 L 46.9752,-21.5548 L 46.9996,-21.407 L 47.0404,-21.2721 L 47.0974,-21.15 L 47.1707,-21.0408 L 47.2604,-20.9445
 L 47.3654,-20.8622 L 47.4847,-20.7947 L 47.6185,-20.7423 L 47.7667,-20.7049 L 47.9293,-20.6824 L 48.1062,-20.6749
 z
M 44.8852,-21.3965 L 45.9048,-21.3965 L 46.1422,-20.7129 L 46.6966,-20.7129 L 45.7244,-23.3882 L 45.0637,-23.3882
 L 44.0877,-20.7129 L 44.6478,-20.7129 z
M 45.0105,-21.818 L 45.1029,-22.0872 L 45.1801,-22.3129 L 45.2421,-22.4949 L 45.289,-22.6331 L 45.3206,-22.7278
 L 45.3371,-22.7787 L 45.3457,-22.8073 L 45.354,-22.8348 L 45.3618,-22.8613 L 45.3692,-22.8867 L 45.3761,-22.9111
 L 45.3827,-22.9344 L 45.394,-22.9762 L 45.4339,-22.8452 L 45.5155,-22.5869 L 45.7795,-21.818 z
M 65.0504,-21.9361 L 65.9163,-21.9361 L 65.9163,-22.369 L 63.6264,-22.369 L 63.6264,-21.9361 L 64.4903,-21.9361
 L 64.4903,-19.6936 L 65.0504,-19.6936 z
M 61.5977,-21.2715 L 61.5967,-21.3355 L 61.5939,-21.4061 L 61.5892,-21.4832 L 61.5825,-21.5668 L 61.574,-21.657
 L 61.5635,-21.7538 L 62.7293,-19.6936 L 63.3863,-19.6936 L 63.3863,-22.369 L 62.8888,-22.369 L 62.8888,-20.8139
 L 62.8898,-20.734 L 62.8926,-20.6512 L 62.8974,-20.5656 L 62.904,-20.4772 L 62.9126,-20.3859 L 62.923,-20.2917
 L 61.7401,-22.369 L 61.1002,-22.369 L 61.1002,-19.6936 L 61.5977,-19.6936 z
M 58.9918,-20.3772 L 60.0114,-20.3772 L 60.2488,-19.6936 L 60.8032,-19.6936 L 59.8311,-22.369 L 59.1703,-22.369
 L 58.1943,-19.6936 L 58.7545,-19.6936 z
M 59.1171,-20.7987 L 59.2095,-21.068 L 59.2867,-21.2936 L 59.3488,-21.4756 L 59.3956,-21.6139 L 59.4272,-21.7085
 L 59.4437,-21.7595 L 59.4523,-21.788 L 59.4606,-21.8156 L 59.4684,-21.8421 L 59.4758,-21.8675 L 59.4827,-21.8918
 L 59.4893,-21.9152 L 59.5007,-21.9569 L 59.5406,-21.8259 L 59.6222,-21.5677 L 59.8861,-20.7987 z
M 48.5084,-10.79 L 49.0043,-10.9091 L 49.4755,-11.1042 L 49.9103,-11.3707 L 50.2981,-11.7019 L 50.6293,-12.0897
 L 50.8958,-12.5245 L 51.0909,-12.9957 L 51.21,-13.4916 L 51.25,-14 L 51.21,-14.5084 L 51.0909,-15.0043
 L 50.8958,-15.4755 L 50.6293,-15.9103 L 50.2981,-16.2981 L 49.9103,-16.6293 L 49.4755,-16.8958 L 49.0043,-17.0909
 L 48.5084,-17.21 L 48,-17.25 L 47.4916,-17.21 L 46.9957,-17.0909 L 46.5245,-16.8958 L 46.0897,-16.6293
 L 45.7019,-16.2981 L 45.3707,-15.9103 L 45.1042,-15.4755 L 44.9091,-15.0043 L 44.79,-14.5084 L 44.75,-14
 L 44.79,-13.4916 L 44.9091,-12.9957 L 45.1042,-12.5245 L 45.3707,-12.0897 L 45.7019,-11.7019 L 46.0897,-11.3707
 L 46.5245,-11.1042 L 46.9957,-10.9091 L 47.4916,-10.79 L 48,-10.75 z
M 47.5542,-11.1851 L 47.1193,-11.2895 L 46.7061,-11.4606 L 46.3248,-11.6943 L 45.9848,-11.9848 L 45.6943,-12.3248
 L 45.4606,-12.7061 L 45.2895,-13.1193 L 45.1851,-13.5542 L 45.15,-14 L 45.1851,-14.4458 L 45.2895,-14.8807
 L 45.4606,-15.2939 L 45.6943,-15.6752 L 45.9848,-16.0152 L 46.3248,-16.3057 L 46.7061,-16.5394 L 47.1193,-16.7105
 L 47.5542,-16.8149 L 48,-16.85 L 48.4458,-16.8149 L 48.8807,-16.7105 L 49.2939,-16.5394 L 49.6752,-16.3057
 L 50.0152,-16.0152 L 50.3057,-15.6752 L 50.5394,-15.2939 L 50.7105,-14.8807 L 50.8149,-14.4458 L 50.85,-14
 L 50.8149,-13.5542 L 50.7105,-13.1193 L 50.5394,-12.7061 L 50.3057,-12.3248 L 50.0152,-11.9848 L 49.6752,-11.6943
 L 49.2939,-11.4606 L 48.8807,-11.2895 L 48.4458,-11.1851 L 48,-11.15 z
M 16.2088,-11.6606 L 16.3741,-11.6779 L 16.5242,-11.7068 L 16.6592,-11.7472 L 16.7791,-11.7992 L 16.8838,-11.8627
 L 16.9728,-11.9371 L 17.0457,-12.0219 L 17.1024,-12.1169 L 17.1429,-12.2222 L 17.1672,-12.3378 L 17.1752,-12.4637
 L 17.1738,-12.5183 L 17.1696,-12.5707 L 17.1624,-12.621 L 17.1525,-12.6691 L 17.1396,-12.7151 L 17.124,-12.7589
 L 17.1056,-12.8006 L 17.0847,-12.8403 L 17.0613,-12.8781 L 17.0354,-12.9138 L 17.0069,-12.9475 L 16.9759,-12.9792
 L 16.9417,-13.0092 L 16.9036,-13.038 L 16.8617,-13.0655 L 16.8159,-13.0918 L 16.7663,-13.1168 L 16.7129,-13.1405
 L 16.6514,-13.164 L 16.5778,-13.1881 L 16.4919,-13.2129 L 16.3939,-13.2384 L 16.2837,-13.2646 L 16.1613,-13.2915
 L 16.0592,-13.3142 L 15.9691,-13.3357 L 15.8912,-13.3558 L 15.8255,-13.3746 L 15.7718,-13.3921 L 15.7303,-13.4082
 L 15.6963,-13.4243 L 15.6652,-13.4415 L 15.637,-13.4598 L 15.6117,-13.4791 L 15.5894,-13.4996 L 15.5699,-13.5212
 L 15.5533,-13.5444 L 15.5398,-13.5698 L 15.5293,-13.5972 L 15.5218,-13.6267 L 15.5173,-13.6584 L 15.5158,-13.6921
 L 15.5299,-13.7896 L 15.5723,-13.8694 L 15.643,-13.9314 L 15.7419,-13.9757 L 15.8691,-14.0023 L 16.0246,-14.0111
 L 16.1013,-14.0087 L 16.1718,-14.0014 L 16.2361,-13.9893 L 16.2942,-13.9723 L 16.3462,-13.9505 L 16.392,-13.9238
 L 16.4323,-13.8923 L 16.4679,-13.856 L 16.4986,-13.8151 L 16.5245,-13.7693 L 16.5456,-13.7189 L 16.5619,-13.6636
 L 17.105,-13.7377 L 17.076,-13.8517 L 17.0372,-13.9544 L 16.9885,-14.0458 L 16.9299,-14.1259 L 16.8615,-14.1947
 L 16.7831,-14.2522 L 16.693,-14.2998 L 16.5892,-14.3388 L 16.4715,-14.369 L 16.3401,-14.3907 L 16.1949,-14.4036
 L 16.036,-14.408 L 15.8695,-14.4026 L 15.7167,-14.3866 L 15.5777,-14.3598 L 15.4525,-14.3223 L 15.341,-14.2741
 L 15.2433,-14.2152 L 15.16,-14.1463 L 15.0919,-14.0679 L 15.0389,-13.98 L 15.0011,-13.8827 L 14.9784,-13.776
 L 14.9708,-13.6599 L 14.9719,-13.6133 L 14.9749,-13.5685 L 14.9801,-13.5255 L 14.9873,-13.4843 L 14.9965,-13.4449
 L 15.0078,-13.4073 L 15.021,-13.3714 L 15.0358,-13.3371 L 15.0522,-13.3043 L 15.0703,-13.2731 L 15.09,-13.2436
 L 15.1113,-13.2155 L 15.1342,-13.189 L 15.1588,-13.1638 L 15.1849,-13.1398 L 15.2126,-13.1172 L 15.2419,-13.0959
 L 15.2727,-13.076 L 15.305,-13.0571 L 15.3385,-13.039 L 15.3733,-13.0219 L 15.4094,-13.0055 L 15.4467,-12.99
 L 15.4854,-12.9754 L 15.5297,-12.9604 L 15.5841,-12.9438 L 15.6487,-12.9258 L 15.7234,-12.9062 L 15.8082,-12.8851
 L 15.9031,-12.8624 L 16.0127,-12.8396 L 16.1097,-12.8179 L 16.1943,-12.7973 L 16.2664,-12.778 L 16.326,-12.7598
 L 16.373,-12.7428 L 16.4123,-12.7256 L 16.4485,-12.7071 L 16.4817,-12.6872 L 16.5118,-12.666 L 16.5389,-12.6433
 L 16.5629,-12.6193 L 16.5835,-12.5936 L 16.6004,-12.5656 L 16.6135,-12.5353 L 16.6228,-12.5029 L 16.6284,-12.4682
 L 16.6303,-12.4314 L 16.614,-12.3223 L 16.5651,-12.233 L 16.4836,-12.1636 L 16.3696,-12.1141 L 16.2229,-12.0843
 L 16.0436,-12.0744 L 15.9527,-12.0771 L 15.8687,-12.0851 L 15.7916,-12.0984 L 15.7213,-12.117 L 15.6578,-12.141
 L 15.6012,-12.1703 L 15.5509,-12.2055 L 15.5065,-12.2472 L 15.4678,-12.2954 L 15.435,-12.35 L 15.4079,-12.4112
 L 15.3867,-12.4788 L 14.8455,-12.3896 L 14.8792,-12.2714 L 14.9244,-12.1637 L 14.9813,-12.0663 L 15.0497,-11.9795
 L 15.1298,-11.903 L 15.2215,-11.8371 L 15.3251,-11.7814 L 15.4411,-11.7358 L 15.5694,-11.7004 L 15.7101,-11.675
 L 15.8631,-11.6599 L 16.0284,-11.6548 z
M 13.5464,-11.6626 L 13.715,-11.6859 L 13.8694,-11.7248 L 14.0097,-11.7793 L 14.1357,-11.8493 L 14.2475,-11.9348
 L 14.3436,-12.0346 L 14.4221,-12.147 L 14.4832,-12.2721 L 14.5269,-12.4099 L 14.553,-12.5605 L 14.5618,-12.7238
 L 14.5618,-14.3681 L 14.0016,-14.3681 L 14.0016,-12.758 L 13.9971,-12.6551 L 13.9837,-12.5606 L 13.9613,-12.4743
 L 13.9299,-12.3963 L 13.8896,-12.3266 L 13.8402,-12.2652 L 13.7826,-12.2127 L 13.7172,-12.1698 L 13.6442,-12.1363
 L 13.5634,-12.1125 L 13.475,-12.0982 L 13.3789,-12.0934 L 13.2853,-12.0979 L 13.1996,-12.1116 L 13.1218,-12.1344
 L 13.0518,-12.1664 L 12.9897,-12.2074 L 12.9355,-12.2576 L 12.8894,-12.3166 L 12.8516,-12.3841 L 12.8223,-12.4601
 L 12.8013,-12.5446 L 12.7887,-12.6375 L 12.7846,-12.739 L 12.7846,-14.3681 L 12.2244,-14.3681 L 12.2244,-12.6953
 L 12.2326,-12.5347 L 12.257,-12.3869 L 12.2978,-12.252 L 12.3548,-12.1299 L 12.4281,-12.0207 L 12.5178,-11.9244
 L 12.6228,-11.842 L 12.7421,-11.7746 L 12.8759,-11.7222 L 13.0241,-11.6848 L 13.1867,-11.6623 L 13.3636,-11.6548
 z
M 19.0214,-11.6983 L 19.1657,-11.7149 L 19.2982,-11.7426 L 19.4189,-11.7814 L 19.5277,-11.8312 L 19.6248,-11.8921
 L 19.7083,-11.9632 L 19.7767,-12.0434 L 19.8298,-12.1328 L 19.8678,-12.2314 L 19.8906,-12.3391 L 19.8982,-12.4561
 L 19.8935,-12.5442 L 19.8793,-12.6264 L 19.8557,-12.7027 L 19.8227,-12.7729 L 19.7802,-12.8372 L 19.7283,-12.8956
 L 19.6673,-12.9474 L 19.5978,-12.9921 L 19.5196,-13.0297 L 19.4329,-13.0602 L 19.3376,-13.0835 L 19.2336,-13.0997
 L 19.316,-13.1209 L 19.3911,-13.1477 L 19.4589,-13.1802 L 19.5193,-13.2183 L 19.5724,-13.262 L 19.6181,-13.3114
 L 19.6567,-13.3656 L 19.6883,-13.4238 L 19.7128,-13.4859 L 19.7304,-13.5519 L 19.7409,-13.6219 L 19.7444,-13.6959
 L 19.7374,-13.8022 L 19.7164,-13.8994 L 19.6815,-13.9876 L 19.6326,-14.0668 L 19.5697,-14.137 L 19.4928,-14.1981
 L 19.4023,-14.2501 L 19.2986,-14.2925 L 19.1817,-14.3256 L 19.0515,-14.3492 L 18.908,-14.3634 L 18.7513,-14.3681
 L 17.5266,-14.3681 L 17.5266,-11.6928 L 18.8653,-11.6928 z
M 18.0868,-13.2896 L 18.0868,-13.9523 L 18.7248,-13.9523 L 18.797,-13.9501 L 18.8631,-13.9438 L 18.923,-13.9333
 L 18.9767,-13.9185 L 19.0242,-13.8995 L 19.0656,-13.8763 L 19.1007,-13.8481 L 19.1294,-13.8141 L 19.1517,-13.7742
 L 19.1677,-13.7286 L 19.1773,-13.6772 L 19.1805,-13.62 L 19.1775,-13.5672 L 19.1685,-13.519 L 19.1536,-13.4754
 L 19.1328,-13.4364 L 19.106,-13.402 L 19.0732,-13.3722 L 19.0338,-13.3469 L 18.9872,-13.3263 L 18.9334,-13.3102
 L 18.8723,-13.2988 L 18.8041,-13.2919 L 18.7286,-13.2896 z
M 18.0868,-12.1086 L 18.0868,-12.8757 L 18.7969,-12.8757 L 18.9617,-12.8652 L 19.0965,-12.8339 L 19.2014,-12.7817
 L 19.2763,-12.7086 L 19.3212,-12.6146 L 19.3362,-12.4997 L 19.3327,-12.4373 L 19.3224,-12.3802 L 19.3051,-12.3286
 L 19.2809,-12.2824 L 19.2498,-12.2417 L 19.2118,-12.2064 L 19.1663,-12.1765 L 19.1127,-12.152 L 19.0511,-12.133
 L 18.9814,-12.1194 L 18.9036,-12.1113 L 18.8178,-12.1086 z
M 21,-9 L 11,-9 L 11,-5 L 21,-5 z
M 11.4,-5.40001 L 11.4,-8.59999 L 20.6,-8.59999 L 20.6,-5.40001 z
"/>
</g>
</svg>