<svg xmlns="http://www.w3.org/2000/svg" version="1.1" width="64mm" height="32mm" viewBox="-32 -16 64 32">
<g id="cut" fill="none" stroke="#000000" stroke-width="0.2">
<path d="
M -32,16 L 32,16 L 32,-16 L -32,-16 z
"/>
</g>
<g id="etch" fill="#ff0000" stroke="#ff0000" stroke-width="0.1">
<path d="
M -29.75,-13.75 L -28,-13.75 L -28,-14.25 L -29.75,-14.25 L -29.75,-16 L -30.25,-16
 L -30.25,-14.25 L -32,-14.25 L -32,-13.75 L -30.25,-13.75 L -30.25,-12 L -29.75,-12
 z
M 30.25,-13.75 L 32,-13.75 L 32,-14.25 L 30.25,-14.25 L 30.25,-16 L 29.75,-16
 L 29.75,-14.25 L 28,-14.25 L 28,-13.75 L 29.75,-13.75 L 29.75,-12 L 30.25,-12
 z
M 8,-8 L -8,-8 L -8,8 L 8,8 z
M -7.59999,7.59999 L -7.59999,-7.59999 L 7.59999,-7.59999 L 7.59999,7.59999 z
M -29.75,14.25 L -28,14.25 L -28,13.75 L -29.75,13.75 L -29.75,12 L -30.25,12
 L -30.25,13.75 L -32,13.75 L -32,14.25 L -30.25,14.25 L -30.25,16 L -29.75,16
 z
M 30.25,14.25 L 32,14.25 L 32,13.75 L 30.25,13.75 L 30.25,12 L 29.75,12
 L 29.75,13.75 L 28,13.75 L 28,14.25 L 29.75,14.25 L 29.75,16 L 30.25,16
 z
"/>
</g>
</svg>