<?xml version="1.0" standalone="no"?>
<!DOCTYPE svg PUBLIC "-//W3C//DTD SVG 1.1//EN" "http://www.w3.org/Graphics/SVG/1.1/DTD/svg11.dtd">
<svg width="110mm" height="78mm" viewBox="0 -78 110 78" xmlns="http://www.w3.org/2000/svg" version="1.1">
<title>OpenSCAD Model</title>
<path d="
M 110,-78 L 93.7958,-78 L 93.9992,-77.8753 L 94.2021,-77.7021 L 94.3753,-77.4992 L 94.5147,-77.2718
 L 94.6168,-77.0253 L 94.6791,-76.7659 L 94.7,-76.5 L 94.6791,-76.2341 L 94.6168,-75.9747 L 94.5147,-75.7282
 L 94.3753,-75.5008 L 94.2021,-75.2979 L 93.9992,-75.1247 L 93.7718,-74.9853 L 93.5253,-74.8832 L 93.2659,-74.8209
 L 93,-74.8 L 92.7341,-74.8209 L 92.4747,-74.8832 L 92.2282,-74.9853 L 92.0008,-75.1247 L 91.7979,-75.2979
 L 91.6247,-75.5008 L 91.4853,-75.7282 L 91.3832,-75.9747 L 91.3209,-76.2341 L 91.3,-76.5 L 91.3209,-76.7659
 L 91.3832,-77.0253 L 91.4853,-77.2718 L 91.6247,-77.4992 L 91.7979,-77.7021 L 92.0008,-77.8753 L 92.2042,-78
 L 17.7958,-78 L 17.9992,-77.8753 L 18.2021,-77.7021 L 18.3753,-77.4992 L 18.5147,-77.2718 L 18.6168,-77.0253
 L 18.6791,-76.7659 L 18.7,-76.5 L 18.6791,-76.2341 L 18.6168,-75.9747 L 18.5147,-75.7282 L 18.3753,-75.5008
 L 18.2021,-75.2979 L 17.9992,-75.1247 L 17.7718,-74.9853 L 17.5253,-74.8832 L 17.2659,-74.8209 L 17,-74.8
 L 16.7341,-74.8209 L 16.4747,-74.8832 L 16.2282,-74.9853 L 16.0008,-75.1247 L 15.7979,-75.2979 L 15.6247,-75.5008
 L 15.4853,-75.7282 L 15.3832,-75.9747 L 15.3209,-76.2341 L 15.3,-76.5 L 15.3209,-76.7659 L 15.3832,-77.0253
 L 15.4853,-77.2718 L 15.6247,-77.4992 L 15.7979,-77.7021 L 16.0008,-77.8753 L 16.2042,-78 L 0,-78
 L 0,-0 L 16.2042,-0 L 16.0008,-0.124664 L 15.7979,-0.297913 L 15.6247,-0.500763 L 15.4853,-0.72821
 L 15.3832,-0.97467 L 15.3209,-1.23405 L 15.3,-1.5 L 15.3209,-1.76593 L 15.3832,-2.02531 L 15.4853,-2.27177
 L 15.6247,-2.49922 L 15.7979,-2.70207 L 16.0008,-2.87532 L 16.2282,-3.01471 L 16.4747,-3.11679 L 16.7341,-3.17906
 L 17,-3.2 L 17.2659,-3.17906 L 17.5253,-3.11679 L 17.7718,-3.01471 L 17.9992,-2.87532 L 18.2021,-2.70207
 L 18.3753,-2.49922 L 18.5147,-2.27177 L 18.6168,-2.02531 L 18.6791,-1.76593 L 18.7,-1.5 L 18.6791,-1.23405
 L 18.6168,-0.97467 L 18.5147,-0.72821 L 18.3753,-0.500763 L 18.2021,-0.297913 L 17.9992,-0.124664 L 17.7958,-0
 L 92.2042,-0 L 92.0008,-0.124664 L 91.7979,-0.297913 L 91.6247,-0.500763 L 91.4853,-0.72821 L 91.3832,-0.97467
 L 91.3209,-1.23405 L 91.3,-1.5 L 91.3209,-1.76593 L 91.3832,-2.02531 L 91.4853,-2.27177 L 91.6247,-2.49922
 L 91.7979,-2.70207 L 92.0008,-2.87532 L 92.2282,-3.01471 L 92.4747,-3.11679 L 92.7341,-3.17906 L 93,-3.2
 L 93.2659,-3.17906 L 93.5253,-3.11679 L 93.7718,-3.01471 L 93.9992,-2.87532 L 94.2021,-2.70207 L 94.3753,-2.49922
 L 94.5147,-2.27177 L 94.6168,-2.02531 L 94.6791,-1.76593 L 94.7,-1.5 L 94.6791,-1.23405 L 94.6168,-0.97467
 L 94.5147,-0.72821 L 94.3753,-0.500763 L 94.2021,-0.297913 L 93.9992,-0.124664 L 93.7958,-0 L 110,-0
 z
" stroke="black" fill="lightgray" stroke-width="0.5"/>
</svg>
