<svg xmlns="http://www.w3.org/2000/svg" version="1.1" width="70mm" height="32mm" viewBox="-35 -16 70 32">
<g id="cut" fill="none" stroke="#000000" stroke-width="0.2">
<path d="
M -35,16 L 35,16 L 35,-16 L -35,-16 z
"/>
</g>
<g id="etch" fill="#ff0000" stroke="#ff0000" stroke-width="0.1">
<path d="
M 8,-8 L -8,-8 L -8,8 L 8,8 z
M -7.59999,7.59999 L -7.59999,-7.59999 L 7.59999,-7.59999 L 7.59999,7.59999 z
M -31.25,0.25 L -29.5,0.25 L -29.5,-0.25 L -31.25,-0.25 L -31.25,-2 L -31.75,-2
 L -31.75,-0.25 L -33.5,-0.25 L -33.5,0.25 L -31.75,0.25 L -31.75,2 L -31.25,2
 z
M 31.75,0.25 L 33.5,0.25 L 33.5,-0.25 L 31.75,-0.25 L 31.75,-2 L 31.25,-2
 L 31.25,-0.25 L 29.5,-0.25 L 29.5,0.25 L 31.25,0.25 L 31.25,2 L 31.75,2
 z
"/>
</g>
</svg>