  0
SECTION
  2
BLOCKS
  0
ENDSEC
  0
SECTION
  2
ENTITIES
  0
LINE
  8
0
 10
63.4
 20
31.4
 11
0
 21
31.4
  0
LINE
  8
0
 10
0
 20
31.4
 11
0
 21
0
  0
LINE
  8
0
 10
0
 20
0
 11
63.4
 21
0
  0
LINE
  8
0
 10
63.4
 20
0
 11
63.4
 21
31.4
  0
LINE
  8
0
 10
1.51726
 20
28.312
 11
1.33765
 21
28.3477
  0
LINE
  8
0
 10
1.33765
 20
28.3477
 11
1.16423
 21
28.4066
  0
LINE
  8
0
 10
1.16423
 20
28.4066
 11
0.999985
 21
28.4876
  0
LINE
  8
0
 10
0.999985
 20
28.4876
 11
0.847733
 21
28.5893
  0
LINE
  8
0
 10
0.847733
 20
28.5893
 11
0.710037
 21
28.71
  0
LINE
  8
0
 10
0.710037
 20
28.71
 11
0.589294
 21
28.8477
  0
LINE
  8
0
 10
0.589294
 20
28.8477
 11
0.487564
 21
29
  0
LINE
  8
0
 10
0.487564
 20
29
 11
0.406555
 21
29.1642
  0
LINE
  8
0
 10
0.406555
 20
29.1642
 11
0.347702
 21
29.3376
  0
LINE
  8
0
 10
0.347702
 20
29.3376
 11
0.311966
 21
29.5173
  0
LINE
  8
0
 10
0.311966
 20
29.5173
 11
0.299988
 21
29.7
  0
LINE
  8
0
 10
0.299988
 20
29.7
 11
0.311966
 21
29.8827
  0
LINE
  8
0
 10
0.311966
 20
29.8827
 11
0.347702
 21
30.0623
  0
LINE
  8
0
 10
0.347702
 20
30.0623
 11
0.406555
 21
30.2357
  0
LINE
  8
0
 10
0.406555
 20
30.2357
 11
0.487564
 21
30.4
  0
LINE
  8
0
 10
0.487564
 20
30.4
 11
0.589294
 21
30.5523
  0
LINE
  8
0
 10
0.589294
 20
30.5523
 11
0.710037
 21
30.6899
  0
LINE
  8
0
 10
0.710037
 20
30.6899
 11
0.847733
 21
30.8107
  0
LINE
  8
0
 10
0.847733
 20
30.8107
 11
0.999985
 21
30.9124
  0
LINE
  8
0
 10
0.999985
 20
30.9124
 11
1.16423
 21
30.9934
  0
LINE
  8
0
 10
1.16423
 20
30.9934
 11
1.33765
 21
31.0523
  0
LINE
  8
0
 10
1.33765
 20
31.0523
 11
1.51726
 21
31.088
  0
LINE
  8
0
 10
1.51726
 20
31.088
 11
1.7
 21
31.1
  0
LINE
  8
0
 10
1.7
 20
31.1
 11
1.88274
 21
31.088
  0
LINE
  8
0
 10
1.88274
 20
31.088
 11
2.06233
 21
31.0523
  0
LINE
  8
0
 10
2.06233
 20
31.0523
 11
2.23575
 21
30.9934
  0
LINE
  8
0
 10
2.23575
 20
30.9934
 11
2.39999
 21
30.9124
  0
LINE
  8
0
 10
2.39999
 20
30.9124
 11
2.55226
 21
30.8107
  0
LINE
  8
0
 10
2.55226
 20
30.8107
 11
2.68994
 21
30.6899
  0
LINE
  8
0
 10
2.68994
 20
30.6899
 11
2.81068
 21
30.5523
  0
LINE
  8
0
 10
2.81068
 20
30.5523
 11
2.91243
 21
30.4
  0
LINE
  8
0
 10
2.91243
 20
30.4
 11
2.99342
 21
30.2357
  0
LINE
  8
0
 10
2.99342
 20
30.2357
 11
3.05229
 21
30.0623
  0
LINE
  8
0
 10
3.05229
 20
30.0623
 11
3.08801
 21
29.8827
  0
LINE
  8
0
 10
3.08801
 20
29.8827
 11
3.09999
 21
29.7
  0
LINE
  8
0
 10
3.09999
 20
29.7
 11
3.08801
 21
29.5173
  0
LINE
  8
0
 10
3.08801
 20
29.5173
 11
3.05229
 21
29.3376
  0
LINE
  8
0
 10
3.05229
 20
29.3376
 11
2.99342
 21
29.1642
  0
LINE
  8
0
 10
2.99342
 20
29.1642
 11
2.91243
 21
29
  0
LINE
  8
0
 10
2.91243
 20
29
 11
2.81068
 21
28.8477
  0
LINE
  8
0
 10
2.81068
 20
28.8477
 11
2.68994
 21
28.71
  0
LINE
  8
0
 10
2.68994
 20
28.71
 11
2.55226
 21
28.5893
  0
LINE
  8
0
 10
2.55226
 20
28.5893
 11
2.39999
 21
28.4876
  0
LINE
  8
0
 10
2.39999
 20
28.4876
 11
2.23575
 21
28.4066
  0
LINE
  8
0
 10
2.23575
 20
28.4066
 11
2.06233
 21
28.3477
  0
LINE
  8
0
 10
2.06233
 20
28.3477
 11
1.88274
 21
28.312
  0
LINE
  8
0
 10
1.88274
 20
28.312
 11
1.7
 21
28.3
  0
LINE
  8
0
 10
1.7
 20
28.3
 11
1.51726
 21
28.312
  0
LINE
  8
0
 10
61.5173
 20
28.312
 11
61.3376
 21
28.3477
  0
LINE
  8
0
 10
61.3376
 20
28.3477
 11
61.1642
 21
28.4066
  0
LINE
  8
0
 10
61.1642
 20
28.4066
 11
61
 21
28.4876
  0
LINE
  8
0
 10
61
 20
28.4876
 11
60.8477
 21
28.5893
  0
LINE
  8
0
 10
60.8477
 20
28.5893
 11
60.71
 21
28.71
  0
LINE
  8
0
 10
60.71
 20
28.71
 11
60.5893
 21
28.8477
  0
LINE
  8
0
 10
60.5893
 20
28.8477
 11
60.4876
 21
29
  0
LINE
  8
0
 10
60.4876
 20
29
 11
60.4066
 21
29.1642
  0
LINE
  8
0
 10
60.4066
 20
29.1642
 11
60.3477
 21
29.3376
  0
LINE
  8
0
 10
60.3477
 20
29.3376
 11
60.312
 21
29.5173
  0
LINE
  8
0
 10
60.312
 20
29.5173
 11
60.3
 21
29.7
  0
LINE
  8
0
 10
60.3
 20
29.7
 11
60.312
 21
29.8827
  0
LINE
  8
0
 10
60.312
 20
29.8827
 11
60.3477
 21
30.0623
  0
LINE
  8
0
 10
60.3477
 20
30.0623
 11
60.4066
 21
30.2357
  0
LINE
  8
0
 10
60.4066
 20
30.2357
 11
60.4876
 21
30.4
  0
LINE
  8
0
 10
60.4876
 20
30.4
 11
60.5893
 21
30.5523
  0
LINE
  8
0
 10
60.5893
 20
30.5523
 11
60.71
 21
30.6899
  0
LINE
  8
0
 10
60.71
 20
30.6899
 11
60.8477
 21
30.8107
  0
LINE
  8
0
 10
60.8477
 20
30.8107
 11
61
 21
30.9124
  0
LINE
  8
0
 10
61
 20
30.9124
 11
61.1642
 21
30.9934
  0
LINE
  8
0
 10
61.1642
 20
30.9934
 11
61.3376
 21
31.0523
  0
LINE
  8
0
 10
61.3376
 20
31.0523
 11
61.5173
 21
31.088
  0
LINE
  8
0
 10
61.5173
 20
31.088
 11
61.7
 21
31.1
  0
LINE
  8
0
 10
61.7
 20
31.1
 11
61.8827
 21
31.088
  0
LINE
  8
0
 10
61.8827
 20
31.088
 11
62.0623
 21
31.0523
  0
LINE
  8
0
 10
62.0623
 20
31.0523
 11
62.2357
 21
30.9934
  0
LINE
  8
0
 10
62.2357
 20
30.9934
 11
62.4
 21
30.9124
  0
LINE
  8
0
 10
62.4
 20
30.9124
 11
62.5523
 21
30.8107
  0
LINE
  8
0
 10
62.5523
 20
30.8107
 11
62.6899
 21
30.6899
  0
LINE
  8
0
 10
62.6899
 20
30.6899
 11
62.8107
 21
30.5523
  0
LINE
  8
0
 10
62.8107
 20
30.5523
 11
62.9124
 21
30.4
  0
LINE
  8
0
 10
62.9124
 20
30.4
 11
62.9934
 21
30.2357
  0
LINE
  8
0
 10
62.9934
 20
30.2357
 11
63.0523
 21
30.0623
  0
LINE
  8
0
 10
63.0523
 20
30.0623
 11
63.088
 21
29.8827
  0
LINE
  8
0
 10
63.088
 20
29.8827
 11
63.1
 21
29.7
  0
LINE
  8
0
 10
63.1
 20
29.7
 11
63.088
 21
29.5173
  0
LINE
  8
0
 10
63.088
 20
29.5173
 11
63.0523
 21
29.3376
  0
LINE
  8
0
 10
63.0523
 20
29.3376
 11
62.9934
 21
29.1642
  0
LINE
  8
0
 10
62.9934
 20
29.1642
 11
62.9124
 21
29
  0
LINE
  8
0
 10
62.9124
 20
29
 11
62.8107
 21
28.8477
  0
LINE
  8
0
 10
62.8107
 20
28.8477
 11
62.6899
 21
28.71
  0
LINE
  8
0
 10
62.6899
 20
28.71
 11
62.5523
 21
28.5893
  0
LINE
  8
0
 10
62.5523
 20
28.5893
 11
62.4
 21
28.4876
  0
LINE
  8
0
 10
62.4
 20
28.4876
 11
62.2357
 21
28.4066
  0
LINE
  8
0
 10
62.2357
 20
28.4066
 11
62.0623
 21
28.3477
  0
LINE
  8
0
 10
62.0623
 20
28.3477
 11
61.8827
 21
28.312
  0
LINE
  8
0
 10
61.8827
 20
28.312
 11
61.7
 21
28.3
  0
LINE
  8
0
 10
61.7
 20
28.3
 11
61.5173
 21
28.312
  0
LINE
  8
0
 10
1.51726
 20
0.311966
 11
1.33765
 21
0.347702
  0
LINE
  8
0
 10
1.33765
 20
0.347702
 11
1.16423
 21
0.406555
  0
LINE
  8
0
 10
1.16423
 20
0.406555
 11
0.999985
 21
0.487564
  0
LINE
  8
0
 10
0.999985
 20
0.487564
 11
0.847733
 21
0.589294
  0
LINE
  8
0
 10
0.847733
 20
0.589294
 11
0.710037
 21
0.710037
  0
LINE
  8
0
 10
0.710037
 20
0.710037
 11
0.589294
 21
0.847733
  0
LINE
  8
0
 10
0.589294
 20
0.847733
 11
0.487564
 21
0.999985
  0
LINE
  8
0
 10
0.487564
 20
0.999985
 11
0.406555
 21
1.16423
  0
LINE
  8
0
 10
0.406555
 20
1.16423
 11
0.347702
 21
1.33765
  0
LINE
  8
0
 10
0.347702
 20
1.33765
 11
0.311966
 21
1.51726
  0
LINE
  8
0
 10
0.311966
 20
1.51726
 11
0.299988
 21
1.7
  0
LINE
  8
0
 10
0.299988
 20
1.7
 11
0.311966
 21
1.88274
  0
LINE
  8
0
 10
0.311966
 20
1.88274
 11
0.347702
 21
2.06233
  0
LINE
  8
0
 10
0.347702
 20
2.06233
 11
0.406555
 21
2.23575
  0
LINE
  8
0
 10
0.406555
 20
2.23575
 11
0.487564
 21
2.39999
  0
LINE
  8
0
 10
0.487564
 20
2.39999
 11
0.589294
 21
2.55226
  0
LINE
  8
0
 10
0.589294
 20
2.55226
 11
0.710037
 21
2.68994
  0
LINE
  8
0
 10
0.710037
 20
2.68994
 11
0.847733
 21
2.81068
  0
LINE
  8
0
 10
0.847733
 20
2.81068
 11
0.999985
 21
2.91243
  0
LINE
  8
0
 10
0.999985
 20
2.91243
 11
1.16423
 21
2.99342
  0
LINE
  8
0
 10
1.16423
 20
2.99342
 11
1.33765
 21
3.05229
  0
LINE
  8
0
 10
1.33765
 20
3.05229
 11
1.51726
 21
3.08801
  0
LINE
  8
0
 10
1.51726
 20
3.08801
 11
1.7
 21
3.09999
  0
LINE
  8
0
 10
1.7
 20
3.09999
 11
1.88274
 21
3.08801
  0
LINE
  8
0
 10
1.88274
 20
3.08801
 11
2.06233
 21
3.05229
  0
LINE
  8
0
 10
2.06233
 20
3.05229
 11
2.23575
 21
2.99342
  0
LINE
  8
0
 10
2.23575
 20
2.99342
 11
2.39999
 21
2.91243
  0
LINE
  8
0
 10
2.39999
 20
2.91243
 11
2.55226
 21
2.81068
  0
LINE
  8
0
 10
2.55226
 20
2.81068
 11
2.68994
 21
2.68994
  0
LINE
  8
0
 10
2.68994
 20
2.68994
 11
2.81068
 21
2.55226
  0
LINE
  8
0
 10
2.81068
 20
2.55226
 11
2.91243
 21
2.39999
  0
LINE
  8
0
 10
2.91243
 20
2.39999
 11
2.99342
 21
2.23575
  0
LINE
  8
0
 10
2.99342
 20
2.23575
 11
3.05229
 21
2.06233
  0
LINE
  8
0
 10
3.05229
 20
2.06233
 11
3.08801
 21
1.88274
  0
LINE
  8
0
 10
3.08801
 20
1.88274
 11
3.09999
 21
1.7
  0
LINE
  8
0
 10
3.09999
 20
1.7
 11
3.08801
 21
1.51726
  0
LINE
  8
0
 10
3.08801
 20
1.51726
 11
3.05229
 21
1.33765
  0
LINE
  8
0
 10
3.05229
 20
1.33765
 11
2.99342
 21
1.16423
  0
LINE
  8
0
 10
2.99342
 20
1.16423
 11
2.91243
 21
0.999985
  0
LINE
  8
0
 10
2.91243
 20
0.999985
 11
2.81068
 21
0.847733
  0
LINE
  8
0
 10
2.81068
 20
0.847733
 11
2.68994
 21
0.710037
  0
LINE
  8
0
 10
2.68994
 20
0.710037
 11
2.55226
 21
0.589294
  0
LINE
  8
0
 10
2.55226
 20
0.589294
 11
2.39999
 21
0.487564
  0
LINE
  8
0
 10
2.39999
 20
0.487564
 11
2.23575
 21
0.406555
  0
LINE
  8
0
 10
2.23575
 20
0.406555
 11
2.06233
 21
0.347702
  0
LINE
  8
0
 10
2.06233
 20
0.347702
 11
1.88274
 21
0.311966
  0
LINE
  8
0
 10
1.88274
 20
0.311966
 11
1.7
 21
0.299988
  0
LINE
  8
0
 10
1.7
 20
0.299988
 11
1.51726
 21
0.311966
  0
LINE
  8
0
 10
61.5173
 20
0.311966
 11
61.3376
 21
0.347702
  0
LINE
  8
0
 10
61.3376
 20
0.347702
 11
61.1642
 21
0.406555
  0
LINE
  8
0
 10
61.1642
 20
0.406555
 11
61
 21
0.487564
  0
LINE
  8
0
 10
61
 20
0.487564
 11
60.8477
 21
0.589294
  0
LINE
  8
0
 10
60.8477
 20
0.589294
 11
60.71
 21
0.710037
  0
LINE
  8
0
 10
60.71
 20
0.710037
 11
60.5893
 21
0.847733
  0
LINE
  8
0
 10
60.5893
 20
0.847733
 11
60.4876
 21
0.999985
  0
LINE
  8
0
 10
60.4876
 20
0.999985
 11
60.4066
 21
1.16423
  0
LINE
  8
0
 10
60.4066
 20
1.16423
 11
60.3477
 21
1.33765
  0
LINE
  8
0
 10
60.3477
 20
1.33765
 11
60.312
 21
1.51726
  0
LINE
  8
0
 10
60.312
 20
1.51726
 11
60.3
 21
1.7
  0
LINE
  8
0
 10
60.3
 20
1.7
 11
60.312
 21
1.88274
  0
LINE
  8
0
 10
60.312
 20
1.88274
 11
60.3477
 21
2.06233
  0
LINE
  8
0
 10
60.3477
 20
2.06233
 11
60.4066
 21
2.23575
  0
LINE
  8
0
 10
60.4066
 20
2.23575
 11
60.4876
 21
2.39999
  0
LINE
  8
0
 10
60.4876
 20
2.39999
 11
60.5893
 21
2.55226
  0
LINE
  8
0
 10
60.5893
 20
2.55226
 11
60.71
 21
2.68994
  0
LINE
  8
0
 10
60.71
 20
2.68994
 11
60.8477
 21
2.81068
  0
LINE
  8
0
 10
60.8477
 20
2.81068
 11
61
 21
2.91243
  0
LINE
  8
0
 10
61
 20
2.91243
 11
61.1642
 21
2.99342
  0
LINE
  8
0
 10
61.1642
 20
2.99342
 11
61.3376
 21
3.05229
  0
LINE
  8
0
 10
61.3376
 20
3.05229
 11
61.5173
 21
3.08801
  0
LINE
  8
0
 10
61.5173
 20
3.08801
 11
61.7
 21
3.09999
  0
LINE
  8
0
 10
61.7
 20
3.09999
 11
61.8827
 21
3.08801
  0
LINE
  8
0
 10
61.8827
 20
3.08801
 11
62.0623
 21
3.05229
  0
LINE
  8
0
 10
62.0623
 20
3.05229
 11
62.2357
 21
2.99342
  0
LINE
  8
0
 10
62.2357
 20
2.99342
 11
62.4
 21
2.91243
  0
LINE
  8
0
 10
62.4
 20
2.91243
 11
62.5523
 21
2.81068
  0
LINE
  8
0
 10
62.5523
 20
2.81068
 11
62.6899
 21
2.68994
  0
LINE
  8
0
 10
62.6899
 20
2.68994
 11
62.8107
 21
2.55226
  0
LINE
  8
0
 10
62.8107
 20
2.55226
 11
62.9124
 21
2.39999
  0
LINE
  8
0
 10
62.9124
 20
2.39999
 11
62.9934
 21
2.23575
  0
LINE
  8
0
 10
62.9934
 20
2.23575
 11
63.0523
 21
2.06233
  0
LINE
  8
0
 10
63.0523
 20
2.06233
 11
63.088
 21
1.88274
  0
LINE
  8
0
 10
63.088
 20
1.88274
 11
63.1
 21
1.7
  0
LINE
  8
0
 10
63.1
 20
1.7
 11
63.088
 21
1.51726
  0
LINE
  8
0
 10
63.088
 20
1.51726
 11
63.0523
 21
1.33765
  0
LINE
  8
0
 10
63.0523
 20
1.33765
 11
62.9934
 21
1.16423
  0
LINE
  8
0
 10
62.9934
 20
1.16423
 11
62.9124
 21
0.999985
  0
LINE
  8
0
 10
62.9124
 20
0.999985
 11
62.8107
 21
0.847733
  0
LINE
  8
0
 10
62.8107
 20
0.847733
 11
62.6899
 21
0.710037
  0
LINE
  8
0
 10
62.6899
 20
0.710037
 11
62.5523
 21
0.589294
  0
LINE
  8
0
 10
62.5523
 20
0.589294
 11
62.4
 21
0.487564
  0
LINE
  8
0
 10
62.4
 20
0.487564
 11
62.2357
 21
0.406555
  0
LINE
  8
0
 10
62.2357
 20
0.406555
 11
62.0623
 21
0.347702
  0
LINE
  8
0
 10
62.0623
 20
0.347702
 11
61.8827
 21
0.311966
  0
LINE
  8
0
 10
61.8827
 20
0.311966
 11
61.7
 21
0.299988
  0
LINE
  8
0
 10
61.7
 20
0.299988
 11
61.5173
 21
0.311966
  0
ENDSEC
  0
SECTION
  2
OBJECTS
  0
DICTIONARY
  0
ENDSEC
  0
EOF
