<svg id="Layer_1" data-name="Layer 1" xmlns="http://www.w3.org/2000/svg" viewBox="0 0 649.18234 609.53093"><defs><style>.cls-1{fill:#fff;}.cls-1,.cls-2{stroke:#231f20;stroke-miterlimit:10;}.cls-2{fill:none;}.cls-3{font-size:33px;}.cls-3,.cls-4,.cls-5,.cls-6,.cls-7{fill:#231f20;font-family:JFRockSolid;}.cls-4{font-size:7px;}.cls-5{font-size:15px;}.cls-6{font-size:11px;}.cls-7{font-size:8px;}</style></defs><title>camp-sign</title><rect class="cls-1" x="322.14833" y="54.24484" width="85.03937" height="226.77165"/><rect class="cls-1" x="10.33731" y="54.24484" width="85.03937" height="226.77165"/><rect class="cls-2" x="487.10753" y="472.96793" width="161.5748" height="136.06299"/><rect class="cls-2" x="567.89494" y="484.30652" width="70.86614" height="113.38583" rx="35.43304"/><path class="cls-1" d="M595.27559,334.48819s-113.8751-45.00041-198.4252-45.00041c-84.33109,0-198.42519,45.00041-198.42519,45.00041V283.46457s113.587-45.00041,198.42519-45.00041c85.31083,0,198.4252,45.00041,198.4252,45.00041Z" transform="translate(-188.08789 -229.21973)"/><text class="cls-3" transform="translate(10.90381 93.5664) rotate(-20.43707) scale(0.65 1)"> </text><text class="cls-4" transform="translate(20.95557 89.84374) rotate(-19.88716) scale(0.65 1)"> </text><text class="cls-3" transform="translate(23.03906 89.0537) rotate(-19.26477) scale(0.65 1)">L</text><text class="cls-3" transform="translate(37.26758 84.08544) rotate(-18.30411) scale(0.65 1)">e</text><text class="cls-3" transform="translate(50.78076 79.60009) rotate(-17.29911) scale(0.65 1)">g</text><text class="cls-3" transform="translate(67.30176 74.46776) rotate(-16.26823) scale(0.65 1)">e</text><text class="cls-3" transform="translate(80.97607 70.46093) rotate(-15.18638) scale(0.65 1)">n</text><text class="cls-3" transform="matrix(0.6309, -0.15642, 0.24065, 0.97061, 97.33105, 66.02001)">d</text><text class="cls-3" transform="matrix(0.63432, -0.14192, 0.21834, 0.97587, 113.38086, 62.04589)">s</text><text class="cls-5" transform="matrix(0.63649, -0.13185, 0.20285, 0.97921, 126.58398, 51.95946)"> </text><text class="cls-5" transform="translate(131.41846 50.94677) rotate(-11.0539) scale(0.65 1)">o</text><text class="cls-5" transform="translate(139.7002 49.33641) rotate(-10.30207) scale(0.65 1)">f</text><text class="cls-6" transform="translate(145.83105 48.22802) rotate(-9.76697) scale(0.65 1)"> </text><text class="cls-5" transform="translate(149.38867 47.60497) rotate(-9.13439) scale(0.65 1)">t</text><text class="cls-5" transform="translate(156.78857 46.41356) rotate(-8.21581) scale(0.65 1)">h</text><text class="cls-5" transform="translate(164.35498 45.32567) rotate(-7.28629) scale(0.65 1)">e</text><text class="cls-7" transform="matrix(0.64563, -0.07523, 0.11573, 0.99328, 170.84326, 44.50731)"> </text><text class="cls-7" transform="matrix(0.64612, -0.0709, 0.10908, 0.99403, 173.47021, 44.20116)"> </text><text class="cls-7" transform="matrix(0.64659, -0.0665, 0.10231, 0.99475, 176.06055, 43.91698)"> </text><text class="cls-7" transform="matrix(0.64704, -0.06192, 0.09526, 0.99545, 178.67871, 43.64745)"> </text><text class="cls-7" transform="matrix(0.64748, -0.0572, 0.088, 0.99612, 181.2915, 43.39794)"> </text><text class="cls-7" transform="matrix(0.64789, -0.05234, 0.08053, 0.99675, 183.89844, 43.16747)"> </text><text class="cls-7" transform="translate(186.53125 42.95507) rotate(-4.17014) scale(0.65 1)"> </text><text class="cls-7" transform="translate(189.15723 42.76317) rotate(-3.7083) scale(0.65 1)"> </text><text class="cls-7" transform="matrix(0.64897, -0.03664, 0.05638, 0.99841, 191.77393, 42.59374)"> </text><text class="cls-7" transform="translate(194.41553 42.44432) rotate(-2.73511) scale(0.65 1)"> </text><text class="cls-7" transform="translate(197.04688 42.31932) rotate(-2.22239) scale(0.65 1)"> </text><text class="cls-7" transform="translate(199.66797 42.21679) rotate(-1.69297) scale(0.65 1)"> </text><text class="cls-7" transform="matrix(0.64987, -0.01293, 0.01989, 0.9998, 202.30957, 42.13915)"> </text><text class="cls-7" transform="translate(204.9043 42.08837) rotate(-0.59653) scale(0.65 1)"> </text><text class="cls-7" transform="matrix(0.64997, 0.00671, -0.01033, 0.99995, 207.58398, 42.04882)"> </text><text class="cls-7" transform="translate(210.1958 42.06249) rotate(0.60623) scale(0.65 1)"> </text><text class="cls-7" transform="translate(212.84717 42.09081) rotate(1.17242) scale(0.65 1)"> </text><text class="cls-7" transform="matrix(0.64971, 0.01944, -0.02991, 0.99955, 215.47656, 42.14501)"> </text><text class="cls-7" transform="translate(218.11621 42.22411) rotate(2.23896) scale(0.65 1)"> </text><text class="cls-7" transform="translate(220.7334 42.32665) rotate(2.74161) scale(0.65 1)"> </text><text class="cls-7" transform="translate(223.35986 42.45263) rotate(3.2297) scale(0.65 1)"> </text><text class="cls-7" transform="translate(225.99463 42.60106) rotate(3.70357) scale(0.65 1)"> </text><text class="cls-7" transform="translate(228.60352 42.77001) rotate(4.1577) scale(0.65 1)"> </text><text class="cls-7" transform="matrix(0.64791, 0.05212, -0.08018, 0.99678, 231.21826, 42.96044)"> </text><text class="cls-7" transform="translate(233.84082 43.17138) rotate(5.02773) scale(0.65 1)"> </text><text class="cls-7" transform="translate(236.46875 43.40282) rotate(5.44463) scale(0.65 1)"> </text><text class="cls-7" transform="translate(239.08496 43.65233) rotate(5.84756) scale(0.65 1)"> </text><text class="cls-7" transform="translate(241.7041 43.9204) rotate(6.23973) scale(0.65 1)"> </text><text class="cls-7" transform="translate(244.30957 44.20556) rotate(6.61876) scale(0.65 1)"> </text><text class="cls-3" transform="translate(246 51.38866) rotate(7.78241) scale(0.56 1.02)">H</text><text class="cls-3" transform="translate(260.16309 53.34716) rotate(9.3807) scale(0.56 1.02)">i</text><text class="cls-3" transform="matrix(0.5501, 0.10486, -0.19099, 1.00196, 271.51172, 55.20653)">d</text><text class="cls-3" transform="translate(285.49316 57.87401) rotate(12.18132) scale(0.56 1.02)">d</text><text class="cls-3" transform="translate(299.41992 60.89159) rotate(13.34482) scale(0.56 1.02)">e</text><text class="cls-3" transform="matrix(0.54235, 0.1395, -0.25408, 0.98785, 311.36035, 63.71434)">n</text><text class="cls-3" transform="translate(325.48047 67.36815) rotate(15.31056) scale(0.56 1.02)"> </text><text class="cls-3" transform="translate(334.36914 69.78417) rotate(16.12289) scale(0.56 1.02)">P</text><text class="cls-3" transform="translate(347.65625 73.6289) rotate(17.02345) scale(0.56 1.02)">l</text><text class="cls-3" transform="translate(360.05566 77.41503) rotate(17.94918) scale(0.56 1.02)">a</text><text class="cls-3" transform="translate(373.0127 81.59765) rotate(18.82697) scale(0.56 1.02)">y</text><text class="cls-3" transform="matrix(0.52701, 0.18936, -0.34491, 0.95992, 385.58984, 85.86571)">a</text><circle class="cls-1" cx="208.7625" cy="34.51575" r="34.01575"/></svg>