<svg xmlns="http://www.w3.org/2000/svg" viewBox="0 0 1728 1727.99371"><defs><style>.cls-1{fill:#9b8579;}.cls-2{font-size:40px;}.cls-10,.cls-11,.cls-12,.cls-13,.cls-14,.cls-15,.cls-16,.cls-17,.cls-18,.cls-2,.cls-3,.cls-4,.cls-5,.cls-6,.cls-7,.cls-8,.cls-9{fill:#231f20;font-family:MyriadPro-Regular, Myriad Pro;}.cls-3{font-size:11px;}.cls-4{font-size:12px;}.cls-5{font-size:38px;}.cls-6{font-size:26px;}.cls-7{font-size:21px;}.cls-8{font-size:29px;}.cls-9{font-size:32px;}.cls-10{font-size:31px;}.cls-11{font-size:23px;}.cls-12{font-size:27px;}.cls-13{font-size:18px;}.cls-14{font-size:33px;}.cls-15{font-size:28px;}.cls-16{font-size:35px;}.cls-17{font-size:30px;}.cls-18{font-size:16px;}</style></defs><title>logo</title><g id="Layer_4" data-name="Layer 4"><path class="cls-1" d="M625.10992,1403.02729l-11.37758,59.51352a3.13836,3.13836,0,0,0,1.0852,3.01006l27.57969,22.756a3.13838,3.13838,0,0,1,1.068,3.09393l-8.60919,39.20229a3.13839,3.13839,0,0,0,1.61941,3.45863l36.19522,18.789a3.13841,3.13841,0,0,1,1.6891,2.9306l-1.84234,39.7945c.3606,6.85152,52.12614,18.74274,63.8903,14.38726a3.07892,3.07892,0,0,0,1.95712-2.80873l.996-30.87735a3.1384,3.1384,0,0,1,3.6116-3.00108l31.10859,4.76152a3.13838,3.13838,0,0,0,3.60242-2.842l5.01345-60.24791a3.1384,3.1384,0,0,1,3.206-2.87716l32.25747.80644a3.13839,3.13839,0,0,0,3.19832-2.79706l7.10955-45.86354a3.1384,3.1384,0,0,0-4.82777-2.97335L795.644,1481.093a3.1384,3.1384,0,0,1-4.36576-.96409l-24.86064-36.68105a3.1384,3.1384,0,0,0-1.73922-1.332l-135.56726-41.50018A3.13839,3.13839,0,0,0,625.10992,1403.02729Z" transform="translate(0 -1.54047)"/><path class="cls-1" d="M597.13763,1427.18928l-24.14491,112.20281a3.30338,3.30338,0,0,1-4.65458,2.28989c-61.96493-29.61147-134.14-62.90141-188.47449-104.02546a3.30535,3.30535,0,0,1-.47383-4.81749l88.76347-100.83531a3.30729,3.30729,0,0,1,5.78934,2.13166l2.10649,129.90063a3.30729,3.30729,0,0,0,4.50651,3.02842l112.14907-43.653A3.30729,3.30729,0,0,1,597.13763,1427.18928Z" transform="translate(0 -1.54047)"/><path class="cls-1" d="M360.56458,1410.69217l91.1998-89.71688a3.02394,3.02394,0,0,0-.23343-4.51844l-22.2421-17.76568a3.02061,3.02061,0,0,0-3.98082.1808c-5.32868,5.12286-20.48073,19.55805-27.93724,25.29782-6.82786,5.25585-29.7822,20.22058-36.61537,25.46954-7.82728,6.01261-25.89024,22.5236-30.2346,26.51213a2.93823,2.93823,0,0,0-.97851,2.28059c.49651,10.76706,16.30077,26.38286,27.37212,32.71445A3.04057,3.04057,0,0,0,360.56458,1410.69217Z" transform="translate(0 -1.54047)"/><path class="cls-1" d="M288.84124,1333.96808l23.3238,26.51548a3.18322,3.18322,0,0,0,4.41568.35318l105.88282-87.33989a3.18322,3.18322,0,0,0-2.02556-5.63882h-38.951a3.18327,3.18327,0,0,0-1.779.54348l-90.25558,60.82442A3.1832,3.1832,0,0,0,288.84124,1333.96808Z" transform="translate(0 -1.54047)"/><path class="cls-1" d="M280.6352,1313.77258l117.61906-75.06593a1.15364,1.15364,0,0,0-.40568-2.1059l-96.19048-18.24243a1.14816,1.14816,0,0,1-.88979-1.4655,649.77049,649.77049,0,0,0,20.37187-94.31889,1.1595,1.1595,0,0,0-1.45183-1.27977L192.7047,1156.35354a1.3192,1.3192,0,0,0-.86824,1.79175C210.978,1202.59988,246.463,1264.04,274.69631,1312.33871A4.23783,4.23783,0,0,0,280.6352,1313.77258Z" transform="translate(0 -1.54047)"/><path class="cls-1" d="M313.506,1085.14738c-22.27726-45.85281-20.22221-127.26511-22.83714-169.71674a3.34387,3.34387,0,0,0-3.51947-3.12965l-57.9261,3.03287a3.34989,3.34989,0,0,0-3.17475,3.34531v33.51024a3.34988,3.34988,0,0,1-3.08965,3.33977L177.21106,959.094a3.3499,3.3499,0,0,0-3.08965,3.33977v23.49564a3.3499,3.3499,0,0,1-3.067,3.33793l-33.412,2.83153a3.34989,3.34989,0,0,0-3.05736,3.59208l4.23387,55.64511a3.34989,3.34989,0,0,0,3.32983,3.09573l57.95491.18012a3.34988,3.34988,0,0,1,3.18813,2.3543l8.51807,27.36659a3.34991,3.34991,0,0,0,4.15977,2.21345l41.19-12.338a3.34989,3.34989,0,0,1,4.04945,1.91108l10.242,24.3689a3.34989,3.34989,0,0,0,4.19349,1.86436l35.9636-12.56981A3.34827,3.34827,0,0,0,313.506,1085.14738Z" transform="translate(0 -1.54047)"/><path class="cls-1" d="M134.248,907.48865,255.84892,896.9499a3.41546,3.41546,0,0,0,3.11662-3.56672l-1.82706-38.00294a3.41546,3.41546,0,0,0-3.41152-3.25144H132.45954a3.41547,3.41547,0,0,0-3.41385,3.5205l1.49359,48.54168A3.41547,3.41547,0,0,0,134.248,907.48865Z" transform="translate(0 -1.54047)"/><path class="cls-1" d="M840.62068,1497.43387h47.39226a3.37491,3.37491,0,0,1,3.37314,3.26571l3.91219,120.84314a3.37492,3.37492,0,0,1-3.37314,3.48411H844.96756a3.37491,3.37491,0,0,1-3.37273-3.25358l-4.34688-120.84315A3.37491,3.37491,0,0,1,840.62068,1497.43387Z" transform="translate(0 -1.54047)"/><path class="cls-1" d="M905.04938,1465.05445v35.81619a3.45231,3.45231,0,0,0,4.5616,3.26925l18.54431-6.29228a3.45238,3.45238,0,0,1,2.41184.07209l9.07073,3.69548a3.45234,3.45234,0,0,1,2.14963,3.16606l.40743,45.22545a3.45232,3.45232,0,0,0,3.45218,3.42122h31.86319a3.45232,3.45232,0,0,1,3.38038,2.7512l11.57155,55.79141a3.45231,3.45231,0,0,0,4.11886,2.67129l56.5544-12.38417a3.45231,3.45231,0,0,0,2.70536-3.61408l-3.24968-46.308a3.4523,3.4523,0,0,1,2.77483-3.62854l30.77958-6.07992a3.45233,3.45233,0,0,0,2.71349-4.07767l-12.02032-58.8581a3.45232,3.45232,0,0,1,2.19536-3.93258l26.66376-9.76419a3.45231,3.45231,0,0,0,2.09324-4.31771l-18.96167-57.81247a3.45231,3.45231,0,0,0-4.46094-2.16827L968.6269,1442.92313a3.4523,3.4523,0,0,0-1.49774,1.06584L942.632,1475.96486a3.45232,3.45232,0,0,1-4.28459.87751l-28.2394-14.84379A3.45232,3.45232,0,0,0,905.04938,1465.05445Z" transform="translate(0 -1.54047)"/><path class="cls-1" d="M1159.36058,1553.28822c69.85859-28.52408,142.92344-78.87059,182.13077-120.18476a4.395,4.395,0,0,0,.19063-5.66895l-95.64227-115.66041a2.34311,2.34311,0,0,0-4.13672,1.25532l-6.26223,61.36981a2.34311,2.34311,0,0,1-2.331,2.10525h-18.61987a2.34312,2.34312,0,0,0-2.12107,3.33872l38.9205,82.91758a2.34311,2.34311,0,0,1-3.10049,3.1242l-142.2239-65.44045a2.34312,2.34312,0,0,0-3.18453,2.92085l53.38174,148.57918A2.26255,2.26255,0,0,0,1159.36058,1553.28822Z" transform="translate(0 -1.54047)"/><path class="cls-1" d="M1257.28027,1297.85861l22.59465-19.47815a3.2695,3.2695,0,0,1,4.36231.08308l108.442,100.93219a3.26949,3.26949,0,0,1,.05027,4.73873l-29.1653,28.324a3.2695,3.2695,0,0,1-2.27781.924h-9.68208a3.26947,3.26947,0,0,1-2.50374-1.16691l-92.18929-109.778A3.26949,3.26949,0,0,1,1257.28027,1297.85861Z" transform="translate(0 -1.54047)"/><path class="cls-1" d="M1294.94289,1267.26534l24.40042-32.25818a3.00717,3.00717,0,0,1,2.39833-1.193l129.14531-.68a3.00717,3.00717,0,0,0,2.57508-4.56023L1387.93764,1117.58a3.00714,3.00714,0,0,1-.11461-2.89791l8.2469-16.49381a3.00715,3.00715,0,0,1,3.43321-1.569s48.76389,10.02483,64.03023,16.33874c20.662,8.54546,79.03079,44.83853,79.03079,44.83853a3.09185,3.09185,0,0,1,.99394,4.21979c-27.69354,51.20877-87.30325,144.04423-133.09067,203.49545a3.08494,3.08494,0,0,1-4.4828.65117l-110.60044-94.80037A3.00716,3.00716,0,0,1,1294.94289,1267.26534Z" transform="translate(0 -1.54047)"/><path class="cls-1" d="M1399.87757,1075.92528c12.61149-60.55837,19.43786-127.81083,22.869-177.59965a3.42277,3.42277,0,0,1,3.61829-3.051l77.82906,3.24288a3.5012,3.5012,0,0,1,3.34845,3.71932l-2.0778,32.82923a3.5012,3.5012,0,0,0,3.16538,3.70687l46.83378,4.41829a3.5012,3.5012,0,0,1,3.17236,3.48572v37.621a3.50121,3.50121,0,0,0,2.68067,3.4037l25.39331,4.28a3.50121,3.50121,0,0,1,2.67693,3.56561l-4.64329,50.89613a3.50121,3.50121,0,0,1-3.49746,3.33929l-25.85619-1.53488a3.50121,3.50121,0,0,0-3.49516,3.29561l-1.56464,26.59892a3.50121,3.50121,0,0,1-4.451,3.16261l-66.93686-18.9956a3.50119,3.50119,0,0,0-4.33479,2.45106l-7.72967,28.47772a3.50121,3.50121,0,0,1-4.27629,2.46712l-60.14887-15.94857A3.39408,3.39408,0,0,1,1399.87757,1075.92528Z" transform="translate(0 -1.54047)"/><path class="cls-1" d="M1465.6269,838.13393h127.59342a3.32808,3.32808,0,0,1,3.32723,3.403l-.99536,44.194a3.32808,3.32808,0,0,1-3.61975,3.24026l-126.59805-11.17042a3.32807,3.32807,0,0,1-3.03556-3.31519V841.462A3.32808,3.32808,0,0,1,1465.6269,838.13393Z" transform="translate(0 -1.54047)"/><path class="cls-1" d="M1398.61532,640.99871l48.93019-2.38689a3.32545,3.32545,0,0,1,3.23961,1.85413l9.75887,19.942a3.32546,3.32546,0,0,0,2.987,1.86374h62.1291a3.32545,3.32545,0,0,1,3.26088,2.67327l1.943,9.71511a3.32545,3.32545,0,0,0,3.4394,2.66848l41.49453-2.23089c1.61137-.08663,2.67215,1.13673,3.41766,2.5679,8.67527,16.6542,13.90176,45.02654,15.03331,64.68879.13209,2.29525-1.33419,4.31863-3.61825,4.05652l-22.017-2.52654a3.32545,3.32545,0,0,0-3.67664,3.73387l3.50143,26.84425a3.32545,3.32545,0,0,1-3.44093,3.75247l-62.97539-2.71836a3.32544,3.32544,0,0,0-3.46794,3.40058l.85839,36.48176a3.32545,3.32545,0,0,1-2.97519,3.38528l-65.8444,6.95539c-1.74725.18457-3.77149-1.00332-3.62855-2.75447,4.62972-56.719-6.07213-101.01964-31.37563-178.098C1394.97872,643.00891,1396.66519,641.14729,1398.61532,640.99871Z" transform="translate(0 -1.54047)"/><path class="cls-1" d="M1390.94114,622.34076l40.64316-130.1446a3.43913,3.43913,0,0,0-2.92932-4.4461L1313.765,475.87951a3.43912,3.43912,0,0,1-2.01269-5.9167l99.36887-94.20686c1.57443-1.49264,3.743-.87107,5.27655.66356,34.78581,34.81059,104.72395,134.17134,124.73229,198.1307.66863,2.13737.28541,4.40705-1.84363,5.10173l-143.99573,46.9835A3.43912,3.43912,0,0,1,1390.94114,622.34076Z" transform="translate(0 -1.54047)"/><path class="cls-1" d="M1287.46319,463.44466l-25.60953-32.629a3.15248,3.15248,0,0,1,.11057-4.0052l100.82894-112.084a3.15248,3.15248,0,0,1,4.63274-.13329l35.60957,37.67831a3.15247,3.15247,0,0,1-.08265,4.48767l-110.829,107.03463A3.15247,3.15247,0,0,1,1287.46319,463.44466Z" transform="translate(0 -1.54047)"/><path class="cls-1" d="M1199.87443,422.64273l4.77785,41.18544a3.2752,3.2752,0,0,0,3.24892,2.86112l56.38737.92519c3.21446,0,3.44915-3.17861,1.85859-5.972-9.1725-16.10881-33.0046-33.81265-61.16522-42.11063C1202.26588,418.73155,1199.51645,419.83394,1199.87443,422.64273Z" transform="translate(0 -1.54047)"/><path class="cls-1" d="M1205.01694,482.95345v16.77474a3.17444,3.17444,0,0,0,3.3856,3.16741l70.01452-4.66763a3.17445,3.17445,0,0,0,2.89854-3.8053l-2.48351-12.1071a3.17444,3.17444,0,0,0-3.1097-2.53656h-67.531A3.17443,3.17443,0,0,0,1205.01694,482.95345Z" transform="translate(0 -1.54047)"/><path class="cls-1" d="M1205.01694,517.74022v65.41845a3.56629,3.56629,0,0,0,3.96933,3.54345l90.70683-10.31737a3.56629,3.56629,0,0,0,3.09872-4.21878l-11.29254-58.55389a3.56628,3.56628,0,0,0-3.65667-2.88758l-79.41429,3.4528A3.56628,3.56628,0,0,0,1205.01694,517.74022Z" transform="translate(0 -1.54047)"/><path class="cls-1" d="M1205.06026,602.778l9.15071,57.01867a3.59322,3.59322,0,0,0,4.4502,2.92646l114.89193-29.71342a3.59323,3.59323,0,0,0,2.657-3.98968l-5.12919-35.70707a3.59323,3.59323,0,0,0-3.86283-3.06925l-118.91344,8.40183A3.59322,3.59322,0,0,0,1205.06026,602.778Z" transform="translate(0 -1.54047)"/><path class="cls-1" d="M1084.34775,329.64664l42.22615-150.1853c.57269-2.10876,2.80342-2.76633,4.88394-2.09828,68.385,21.9582,179.217,78.72334,215.08941,115.84708,1.53,1.58342,2.38482,3.62939.90843,5.263l-98.8721,111.73977c-1.98356,2.19474-5.98163.98826-5.89711-1.96881,1.10867-38.78423-8.82152-121.87238-8.82152-121.87238a3.39341,3.39341,0,0,0-4.47693-2.90456l-140.66808,50.27994A3.39341,3.39341,0,0,1,1084.34775,329.64664Z" transform="translate(0 -1.54047)"/><path class="cls-1" d="M994.51779,129.99339l60.69695,18.43958a3.519,3.519,0,0,1,2.30466,4.51208l-11.3652,33.03012a3.51905,3.51905,0,0,0,2.49051,4.563l14.01011,3.43105a3.51906,3.51906,0,0,1,2.58844,4.22406L1051.22,257.79235a3.51906,3.51906,0,0,0,2.19879,4.10432l30.08158,11.18809a3.51905,3.51905,0,0,1,2.18109,4.17612l-14.46913,56.17172c-.476,1.848-2.45167,3.32123-4.19784,2.55142-45.22295-19.93685-128.59993-34.34769-164.36129-37.86551a3.3246,3.3246,0,0,1-2.729-3.42923V240.108a3.51906,3.51906,0,0,1,3.45566-3.51848l40.9569-.738a3.51905,3.51905,0,0,0,3.45556-3.54437l-.37823-51.43549a3.51907,3.51907,0,0,1,3.7252-3.53889l29.6435,1.7403a3.51907,3.51907,0,0,0,3.69673-3.06551l5.52495-43.09465A3.51905,3.51905,0,0,1,994.51779,129.99339Z" transform="translate(0 -1.54047)"/><path class="cls-1" d="M835.18561,291.69146l48.44428,2.27591a3.49988,3.49988,0,0,0,3.66153-3.36122l7.37331-167.17869c.07376-1.91355-1.74377-2.53745-3.31649-3.63-8.70318-6.046-41.24635-10.45312-60.14892-2.36556-1.86138.7964-3.71048,1.52306-3.68027,3.54743l4.33131,167.26834A3.49988,3.49988,0,0,0,835.18561,291.69146Z" transform="translate(0 -1.54047)"/><path class="cls-1" d="M646.1979,329.60225l-27.09295-62.657a3.01893,3.01893,0,0,1,2.52816-4.17074l37.79111-.9324a3.01892,3.01892,0,0,0,2.69048-3.657l-16.81642-59.93145a3.01892,3.01892,0,0,1,1.79884-3.4407l26.0019-9.2611a3.01892,3.01892,0,0,0,1.86-3.03038L672.72609,148.952a3.26625,3.26625,0,0,1,2.24865-3.16033c14.56707-6.2688,41.39032-11.871,63.29622-15.36561a3.13327,3.13327,0,0,1,3.68123,2.15658l6.7462,31.803a3.01892,3.01892,0,0,0,2.97337,2.25355l29.24937-.00769a3.01893,3.01893,0,0,1,3.039,2.57421l6.79318,56.81415a3.01891,3.01891,0,0,0,2.986,2.57467l15.82384-.163a3.0189,3.0189,0,0,1,2.97159,2.48645l7.62843,57.28745c.28207,1.57413-.66974,3.3986-2.26743,3.46812-79.75773,3.47053-123.53337,17.69529-168.20776,39.70147C648.35889,332.02978,646.76861,330.96958,646.1979,329.60225Z" transform="translate(0 -1.54047)"/><path class="cls-1" d="M476.81713,429.977l-.5678-139.8182a2.90562,2.90562,0,0,1,3.46929-2.80373L621.8294,318.01341a2.90561,2.90561,0,0,0,3.30445-3.81615L578.81044,183.31417c-.62618-1.77672-2.6165-2.25232-4.32889-1.46714C513.49232,209.81226,416.73983,268.21639,372.14117,314.731c-1.23538,1.28845-1.7642,3.05608-.56765,4.38067L471.75575,431.87813A2.90561,2.90561,0,0,0,476.81713,429.977Z" transform="translate(0 -1.54047)"/><path class="cls-1" d="M425.41628,472.73724l23.83624-19.59864a7.28358,7.28358,0,0,0,3.13354-5.98562v-9.6566a4.45917,4.45917,0,0,0-1.07959-2.90906L360.54731,328.02547c-1.5672-1.82068-4.11082-1.80837-6.16918-.56976-12.385,7.45263-26.21955,19.84362-36.93395,31.59171-1.76691,1.93737-2.2412,4.68312-.42241,6.57187L419.66352,472.16577A4.45916,4.45916,0,0,0,425.41628,472.73724Z" transform="translate(0 -1.54047)"/><path class="cls-1" d="M182.3049,579.48235c16.91421-63.7846,80.98456-165.28652,119.01886-202.44164,1.61786-1.58046,3.85768-2.229,5.4004-.5751l98.196,105.19495a3.397,3.397,0,0,1-2.056,5.687L271.3937,502.31912a5.34928,5.34928,0,0,0-4.37454,7.07457L307.3514,624.56926a3.397,3.397,0,0,1-4.42248,4.29443L184.28246,583.36128A3.25506,3.25506,0,0,1,182.3049,579.48235Z" transform="translate(0 -1.54047)"/><path class="cls-1" d="M292.05437,830.05006c-1.19886-51.969,16.95313-116.32317,41.95668-167.86554.68151-1.40486-.45066-3.07-1.92272-3.59066L257.55974,632.232a3.023,3.023,0,0,0-3.64076,1.3643l-15.54955,27.55605a3.02294,3.02294,0,0,1-3.51028,1.40715l-37.35928-13.07874a3.02295,3.02295,0,0,0-3.62773,1.63783l-19.23386,45.10951a3.02294,3.02294,0,0,1-3.91578,1.53425l-26.03109-10.66661c-1.775-.7418-3.39193.45832-4.13679,2.23208-6.39359,15.22531-14.97848,48.6704-12.32425,69.12608.22266,1.716.85221,3.32158,2.567,3.5529l36.70193,4.099a3.02293,3.02293,0,0,1,2.6119,3.20028l-2.09291,30.87039a3.02293,3.02293,0,0,0,3.041,3.2273l53.38782-.44154a3.02293,3.02293,0,0,1,3.0341,3.31176l-1.71789,17.89137a3.02293,3.02293,0,0,0,2.88058,3.30913l60.35111,4.855C290.42609,832.39041,292.08741,831.482,292.05437,830.05006Z" transform="translate(0 -1.54047)"/><path class="cls-1" d="M1182.19787,698.4268l-1.29348-166.11747a3.486,3.486,0,0,0-3.486-3.486h-37.30865a3.486,3.486,0,0,0-3.486,3.486V669.393a3.48639,3.48639,0,0,0,.10408.84548l3.63908,13.75239a3.486,3.486,0,0,0,1.95768,2.33629l34.963,15.28144A3.486,3.486,0,0,0,1182.19787,698.4268Z" transform="translate(0 -1.54047)"/><path class="cls-1" d="M1118.39979,678.51127l-47.15239-18.3182a3.46427,3.46427,0,0,1-2.20979-3.22915V532.28763a3.46428,3.46428,0,0,1,3.46428-3.46427h49.719a3.46427,3.46427,0,0,1,3.46371,3.52644L1123.118,675.34428A3.46427,3.46427,0,0,1,1118.39979,678.51127Z" transform="translate(0 -1.54047)"/><path class="cls-1" d="M1051.29649,655.7266l-38.92985-12.86471a2.99391,2.99391,0,0,1-2.0977-2.69034l-4.03861-71.96068a2.99393,2.99393,0,0,1,1.816-2.92224l18.47907-7.87071a2.99388,2.99388,0,0,1,1.1732-.23944h7.85122a1.76528,1.76528,0,0,0,1.74875-2.00629l-.69385-5.03458a4.44193,4.44193,0,0,1,.47072-2.67742l8.7946-16.68762a2.99392,2.99392,0,0,1,3.19377-1.548l5.77771,1.06995a2.99391,2.99391,0,0,1,2.44667,3.05571l-2.10836,119.63013A2.99392,2.99392,0,0,1,1051.29649,655.7266Z" transform="translate(0 -1.54047)"/><path class="cls-1" d="M930.91123,494.13776c3.70395,5.42822,9.58831,14.44833,15.92848,19.27866a1.91342,1.91342,0,0,1-1.03474,3.34472c-4.13105.55168-11.96546,1.06421-15.46621.47893a2.17036,2.17036,0,0,1-1.81748-1.86788c-.46254-3.76631-1.59805-14.57461-1.64219-19.96022A2.21085,2.21085,0,0,1,930.91123,494.13776Z" transform="translate(0 -1.54047)"/><path class="cls-1" d="M933.6298,530.07583c1.57215-2.71157,10.68469-4.56246,13.81882-4.60135,7.59914-.09429,19.01094.88789,26.28286.54192,6.49634-.30908,21.40483.779,26.28287-3.52245,3.83169-3.37879,5.37528-14.438,5.30974-19.54618-.06033-4.703-1.28255-20.52226-4.36139-24.07795-1.79532-2.07337-6.61811-1.4572-8.94159,0-4.13046,2.59045-1.177,15.8484-3.116,20.3218-1.52554,3.51951-6.58492,9.17932-10.1609,10.56734-5.13776,1.99422-19.815-.07275-24.7926-2.43862-6.60133-3.13765-11.36676-11.95287-15.44457-18.01866-1.72261-2.56241-3.4985-12.09012-3.65792-15.17361-.20826-4.0281,2.24986-10.54526,4.60627-13.81883,3.34911-4.65264,10.44706-9.06039,15.851-10.97377,5.57786-1.975,23.61738-1.809,29.53436-1.76122,7.27484.05868,18.98148-.44526,25.47,2.84505,5.389,2.73277,17.03931,12.41251,20.01409,18.01845,3.21493,6.0585,6.71972,19.16889,8.91286,25.66744,1.84383,5.46352.88413,18.2312-.07,23.918-1.15761,6.89957-3.95573,15.9407-8.31123,21.41553-3.88678,4.88567-14.8,11.2314-20.54572,13.67344-6.82,2.89866-22.10223,5.546-29.51114,5.69828-5.84865.12024-21.93936-.87389-28.0673-1.22748-5.37655-.31024-14.59036-.0465-18.01866-4.19984C933.74321,552.20745,932.13449,532.65485,933.6298,530.07583Z" transform="translate(0 -1.54047)"/><path class="cls-1" d="M868.438,596.13768l51.5041-23.411a2.94847,2.94847,0,0,0,1.726-2.802L912.37834,323.2025a2.94848,2.94848,0,0,0-2.21877-2.73961l-43.1237-8.30185a52.455,52.455,0,0,0-9.42328-.81983l-34.66479,1.78967a2.94849,2.94849,0,0,0-2.79575,2.87948l-5.666,256.6347a2.94847,2.94847,0,0,0,1.81373,2.78676l49.784,20.74333A2.9485,2.9485,0,0,0,868.438,596.13768Z" transform="translate(0 -1.54047)"/><path class="cls-1" d="M793.07536,511.64165l6.7304-3.76548a2.63652,2.63652,0,0,0,.64118-.61168l4.06855-5.81749a2.63652,2.63652,0,0,1,4.72621,1.2131l-.02491,8.2562a2.63651,2.63651,0,0,1-.02213.85746l-1.16763,6.09758a2.63652,2.63652,0,0,1-3.6099,1.93518l-10.88878-3.54746A2.63651,2.63651,0,0,1,793.07536,511.64165Z" transform="translate(0 -1.54047)"/><path class="cls-1" d="M737.94048,481.36509c1.45215-1.48641,6.61523-2.08292,8.27083-.82708,1.67243,1.26859,1.62708,6.1794,1.4474,8.27083-.18334,2.13411-1.29725,5.9177-1.34994,8.059-.06115,2.4848.00658,7.42523,1.34994,9.51649a18.88462,18.88462,0,0,0,5.376,4.75573c2.68762,1.40791,8.75462,2.76591,11.78594,2.89479,3.65958.15558,11.12378-.79356,14.47395-2.27448,3.70006-1.6356,9.81127-7.21773,12.61734-10.13177,3.21577-3.33952,9.60135-10.48587,11.05712-14.8875,1.1687-3.53362.83028-11.25941,0-14.88749-.75556-3.30162-3.61556-9.69177-5.89217-12.19948-2.84684-3.13581-10.58944-7.11625-14.474-8.804-3.93905-1.71141-12.2676-4.21488-16.54166-4.63614-2.683-.26444-8.05642.787-10.75208.82708-4.39826.06543-13.22924-1.50441-17.57552-.82708-4.68678.73039-13.82147,4.00682-17.78228,6.61666-3.87739,2.55488-10.05763,9.70756-12.81979,13.44011a64.10887,64.10887,0,0,0-5.58281,9.925c-1.78025,4.21984-4.6143,13.02928-5.16927,17.57552-.72677,5.9535-.04257,18.0682,1.03385,23.96851.80164,4.39416,3.423,13.0623,5.58281,16.9721,1.90964,3.457,6.4823,10.079,9.51146,12.613,3.1741,2.65533,11.08241,5.61,14.88749,7.237,3.5492,1.51757,7.766,3.81377,11.61146,4.14915,2.56558.22375,11.91545.71812,14.45582.29536,3.45427-.57484,6.08906-.01628,9.626-.017,1.69012-.00035,7.30643-.59513,8.96916-.29208,3.1567.57533,9.623-.34358,12.81979-.62032a79.144,79.144,0,0,1,8.406-.15271c1.75245.09954,5.063,1.43578,6.6883.773,1.80628-.73654,3.59765-4.74159,4.13541-6.61667.58429-2.03727.66494-6.03539,1.13754-8.10142.3712-1.62272.10281-5.62534.474-7.24806.40344-1.76369.86461-5.6477,0-7.237-1.0004-1.83889-3.71532-3.16868-5.74695-3.67343-4.02874-1.00092-12.3944,1.2663-16.54166,1.4474-2.99533.13079-8.99631.1032-11.99271,0-3.00352-.10345-8.98893-.92278-11.99271-.82709a30.882,30.882,0,0,1-6.32526-.80932,22.96293,22.96293,0,0,1-4.56393-1.66536c-1.15925-.57813-3.43936-1.707-4.65323-2.15935-1.14012-.42485-3.55361-1.0293-4.51434-1.77586-1.64288-1.27664-3.30932-5.40447-3.72188-7.44375-.31841-1.57392-.4342-4.59013-.75261-6.16405-.25212-1.24623-.91926-3.53746-1.10832-4.7948-.28053-1.86563.33664-6.00542.43528-7.88944a47.22529,47.22529,0,0,1,.3918-6.37774,17.22228,17.22228,0,0,1,3.30833-5.99636" transform="translate(0 -1.54047)"/><path class="cls-1" d="M693.81265,652.54206l34.07464-13.95354a2.42088,2.42088,0,0,0,1.54781-2.29779l-1.09734-66.938a2.42091,2.42091,0,0,0-2.19806-2.371l-11.87647-2.36615q-.10313-.00952-.20516-.02783s-4.30244-2.20517-6.3234-3.24656c-1.587-.81776-4.99636-3.45773-5.67617-5.10855-1.31968-3.20465-2.78919-10.92205-2.78919-10.92205a2.42091,2.42091,0,0,0-.81226-1.84694l-2.80139-2.49013a2.42092,2.42092,0,0,0-3.87514.95938h0a2.42089,2.42089,0,0,0-.15414.85l-1.10741,107.501A2.42091,2.42091,0,0,0,693.81265,652.54206Z" transform="translate(0 -1.54047)"/><path class="cls-1" d="M612.332,680.87745,669.65323,655.854a3.20011,3.20011,0,0,0,1.908-2.65839l10.51927-122.2092a3.20011,3.20011,0,0,0-3.18832-3.47454H617.37183a3.2001,3.2001,0,0,0-3.17467,2.79744l-2.0065,15.81938q-.01478.11648-.021.2338l-3.10851,58.82812L607.852,677.89141A3.2001,3.2001,0,0,0,612.332,680.87745Z" transform="translate(0 -1.54047)"/><path class="cls-1" d="M542.38976,703.955l48.10846-15.56451a3.31693,3.31693,0,0,0,2.28315-2.86512l6.90274-78.44016q.0104-.11817.01233-.23684l1.23521-75.96567a3.31694,3.31694,0,0,0-3.3165-3.37087h-48.58a3.31694,3.31694,0,0,0-3.31673,3.27953l-.93075,82.52632q-.00123.10906-.00963.21788l-6.71643,87.00827A3.317,3.317,0,0,0,542.38976,703.955Z" transform="translate(0 -1.54047)"/><path class="cls-1" d="M463.90638,492.12216l56.41626-2.33677a3.59238,3.59238,0,0,0,3.44008-3.75093l-1.87-41.52216a3.5924,3.5924,0,0,0-5.15354-3.07207l-12.668,6.13006a3.59243,3.59243,0,0,1-1.35787.35274l-35.6976,2.05948a3.5924,3.5924,0,0,0-3.368,3.23216l-3.46489,34.96391A3.5924,3.5924,0,0,0,463.90638,492.12216Z" transform="translate(0 -1.54047)"/><path class="cls-1" d="M526.313,536.49377l-2.32008-31.27815a3.297,3.297,0,0,0-3.288-3.05313H452.0775a3.297,3.297,0,0,0-3.1915,2.46959l-1.89831,7.32205a3.29693,3.29693,0,0,1-.36061.86266l-12.04543,20.17609a3.297,3.297,0,0,0,2.75178,4.98615l85.61246,2.0547A3.297,3.297,0,0,0,526.313,536.49377Z" transform="translate(0 -1.54047)"/><path class="cls-1" d="M523.91973,559.81961l2.48431,48.56372a3.06081,3.06081,0,0,1-3.29522,3.20789l-20.34676-1.58959a3.06074,3.06074,0,0,0-.93591.07124l-17.034,3.98667a3.06093,3.06093,0,0,1-.69751.08053H391.98533a3.06081,3.06081,0,0,1-2.76083-4.38232l21.85828-45.66516a3.06078,3.06078,0,0,1,2.49514-1.72775l37.38188-3.25721q.08479-.00738.16988-.01l69.63742-2.18091A3.0608,3.0608,0,0,1,523.91973,559.81961Z" transform="translate(0 -1.54047)"/><path class="cls-1" d="M519.509,644.39193l1.09317-16.61619a3.36414,3.36414,0,0,0-3.64706-3.57245l-66.65446,4.54682a3.36414,3.36414,0,0,0-.51894,6.617L515.343,647.43646A3.36413,3.36413,0,0,0,519.509,644.39193Z" transform="translate(0 -1.54047)"/><path class="cls-1" d="M442.25106,660.99816l.62858-10.61978a3.37544,3.37544,0,0,0-2.60448-3.487L380.3673,632.95a3.37543,3.37543,0,0,0-4.13066,3.03007l-2.3016,30.08012a3.37544,3.37544,0,0,0,3.66692,3.61949l61.58086-5.519A3.37544,3.37544,0,0,0,442.25106,660.99816Z" transform="translate(0 -1.54047)"/><path class="cls-1" d="M350.87779,685.72354l88.44273,5.10038a3.44779,3.44779,0,0,1,3.0204,2.19181l13.58594,39.06691a3.44778,3.44778,0,0,1-3.04726,4.69439l-105.40509,5.07228a3.44779,3.44779,0,0,1-3.60543-3.67967l3.37642-49.23956A3.44779,3.44779,0,0,1,350.87779,685.72354Z" transform="translate(0 -1.54047)"/><path class="cls-1" d="M476.63465,784.99385l-9.708-30.37521a3.327,3.327,0,0,0-3.36792-2.08633l-93.91631,7.49382a3.327,3.327,0,0,0-.564,6.53469L472.70268,789.4422A3.327,3.327,0,0,0,476.63465,784.99385Z" transform="translate(0 -1.54047)"/><path class="cls-1" d="M478.55378,808.96612,317.99287,778.01281a3.43366,3.43366,0,0,0-4.145,3.35917v51.28195a3.43366,3.43366,0,0,0,3.91984,3.39907l160.56091-20.32865A3.43366,3.43366,0,0,0,478.55378,808.96612Z" transform="translate(0 -1.54047)"/><path class="cls-1" d="M492.3852,831.1225l23.52513,65.81437a3.38569,3.38569,0,0,1-3.34836,4.52149l-195.48864-9.26154a3.38569,3.38569,0,0,1-3.22547-3.3819V856.98616a3.3857,3.3857,0,0,1,2.90387-3.35124l171.9635-24.72406A3.38568,3.38568,0,0,1,492.3852,831.1225Z" transform="translate(0 -1.54047)"/><path class="cls-1" d="M501.73465,952.79323l19.05842-35.53193a3.45892,3.45892,0,0,0-2.91344-5.14179l-200.37-6.2344a3.44889,3.44889,0,0,0-3.55468,3.54806l2.47481,84.61651a3.47583,3.47583,0,0,0,5.99979,2.28658s19.76529-23.63709,28.01462-29.62466c11.55742-8.38866,37.73966-21.11474,51.6247-24.4538,12.74272-3.06436,39.38249-3.06442,52.401-1.55262,22.08155,2.56426,43.49157,13.56362,43.49157,13.56362A3.18493,3.18493,0,0,0,501.73465,952.79323Z" transform="translate(0 -1.54047)"/><path class="cls-1" d="M419.89147,1090.647c-3.60182-1.96882-7.98042-9.51354-10.12258-13.01505-2.06191-3.37034-4.46736-11.0558-5.1156-14.95329-.62947-3.78471-1.34974-11.75535,0-15.34679,1.93172-5.14,9.99544-13.33888,14.46586-16.52732,4.17208-2.97566,14.3219-5.84174,19.37579-6.68963,2.32851-.39065,7.21624-.78152,9.44419,0,2.972,1.04254,7.80486,5.46441,9.83768,7.87015,2.61488,3.09457,6.48132,10.36035,7.87016,14.16627,1.40875,3.86051,3.12641,12.02435,3.14806,16.13381.02,3.80117-.55549,11.85275-2.75456,14.95329-2.29422,3.2347-8.22835,5.94338-11.7248,7.81463-3.10318,1.66077-11.1767,5.72557-14.6402,6.35164C435.09982,1092.23184,423.97152,1092.87725,419.89147,1090.647Z" transform="translate(0 -1.54047)"/><path class="cls-1" d="M525.06374,1058.67259c-.66143-6.62376-.6565-10.79088-.875-17.749-.05524-1.75944-1.20466-9.15238-1.20989-10.91267-.01161-3.89716-2.77942-11.36287-3.9496-15.08022-1.40033-4.44871-4.88338-13.11227-6.46292-17.50056a51.31679,51.31679,0,0,0-2.60505-5.07,39.42,39.42,0,0,0-3.13983-5.07656c-3.48664-4.21717-10.16454-13.00619-14.36212-16.51642-4.10966-3.43679-13.32334-9.177-18.31172-11.13069-5.45843-2.13774-17.1466-4.08126-22.97935-4.66769a178.35536,178.35536,0,0,0-25.85182,0c-6.7206.63111-20.12164,2.90163-26.5285,5.02677-7.782,2.58129-22.52591,10.02495-29.48383,14.36212-6.37054,3.971-17.88407,13.9237-22.62033,19.74792-4.15862,5.11388-10.43106,16.87842-12.92591,22.97936-1.30217,3.1845-4.03757,9.46513-5.193,12.70565-1.1064,3.10307-3.09487,9.38448-3.78332,12.60607-.96609,4.52111-.24551,13.8761,0,18.49284.35958,6.76077,1.218,20.36374,2.87242,26.92895,2.206,8.75381,8.70125,25.87923,13.644,33.43343,4.65323,7.1117,16.38415,20.04471,23.69752,24.37413,7.54209,4.46477,25.18989,7.65785,33.79244,9.33539a246.69533,246.69533,0,0,0,24.73321,2.87241c8.334.48222,25.14324,1.28358,33.39193,0,8.69945-1.35378,25.73523-6.41214,33.751-10.05355a63.914,63.914,0,0,0,6.822-4.30862c3.67195-2.48692,7.91115-4.90419,10.80775-8.26255,2.03348-2.35765,4.72525-6.15036,5.62724-7.3547.97011-1.29523,2.80078-5.21187,3.62821-6.60251a26.7034,26.7034,0,0,0,2.19806-5.42735c.595-1.7977,2.16-8.58026,2.54761-10.43365.92725-4.43418,1.34989-7.25062,2.101-12.05921.24509-1.569,1.16654-11.71035,1.47234-13.69392C526.79293,1073.64049,525.66668,1064.71069,525.06374,1058.67259Zm-46.15412,22.77169c-2.61386,4.02833-10.77931,9.57089-14.58414,12.50053-1.81724,1.39934-5.40247,4.41-7.55249,5.20868-2.27134.84383-7.11379,3.69552-9.41572,4.452-2.82724.92912-7.60637,1.91538-10.50723,2.57973-5.67692,1.3-17.8291-.80113-23.04813-3.38567-5.17649-2.5634-13.65821-11.13332-16.52743-16.14667-2.76518-4.83156-4.67524-16.08978-5.34877-21.61572-.709-5.81669-1.88685-17.89123,0-23.43886,1.7193-5.05483,9.02088-13.39212,13.02154-16.928,3.171-2.80254,10.781-6.738,14.58413-8.59424,5.08912-2.48373,15.97264-6.29841,21.61578-6.77117a41.57236,41.57236,0,0,1,13.282,1.82307c3.77126,1.3879,10.75212,5.76728,13.54239,8.65917,2.40158,2.489,5.40907,8.86033,7.03164,11.91476,1.35257,2.54623,4.31412,7.6047,4.9482,10.41736a156.61536,156.61536,0,0,1,2.815,16.66723c.22917,2.12036-.91351,10.89052-.992,13.02178A25.43714,25.43714,0,0,1,478.90962,1081.44428Z" transform="translate(0 -1.54047)"/><path class="cls-1" d="M549.626,1086.04021l21.58388-28.157a3.15682,3.15682,0,0,0,.57523-3.06649l-38.116-117.94545a3.15681,3.15681,0,0,0-5.66715-.63753l-15.12362,26.93045a3.15682,3.15682,0,0,0-.03141,3.27786s19.33071,28.27243,24.15045,47.5922c12.067,48.37045,7.07624,70.26592,7.07624,70.26592A3.15682,3.15682,0,0,0,549.626,1086.04021Z" transform="translate(0 -1.54047)"/><path class="cls-1" d="M526.8381,1142.54307l5.14463-4.66232a2.93035,2.93035,0,0,0,.49208-.57888l40.942-63.24379a2.93025,2.93025,0,0,1,5.18858.52462l25.57948,65.36978a2.93025,2.93025,0,0,1-2.58,3.99425l-72.6503,3.69408A2.93025,2.93025,0,0,1,526.8381,1142.54307Z" transform="translate(0 -1.54047)"/><path class="cls-1" d="M490.00322,1173.39613l1.768,30.94021a3.48057,3.48057,0,0,1-3.25066,3.67191l-61.33983,3.96016a3.48056,3.48056,0,0,1-3.18786-1.64814l-19.90858-32.32611a3.48058,3.48058,0,0,1,2.851-5.30395l79.48039-2.57426A3.48056,3.48056,0,0,1,490.00322,1173.39613Z" transform="translate(0 -1.54047)"/><path class="cls-1" d="M510.54641,1161.89975l-1.51515,38.75844a3.50965,3.50965,0,0,0,3.73213,3.63952l42.60772-2.73907a3.50966,3.50966,0,0,0,3.23588-4.08458l-6.05863-36.01937a3.50965,3.50965,0,0,0-3.461-2.92749h-35.034A3.50964,3.50964,0,0,0,510.54641,1161.89975Z" transform="translate(0 -1.54047)"/><path class="cls-1" d="M566.26,1162.51779l8.1878,36.664a3.27648,3.27648,0,0,0,3.53717,2.54473l44.79082-4.66571a3.27647,3.27647,0,0,0,2.75367-4.33951l-11.17947-31.9983a3.27647,3.27647,0,0,0-3.09313-2.19581H569.45765A3.27647,3.27647,0,0,0,566.26,1162.51779Z" transform="translate(0 -1.54047)"/><path class="cls-1" d="M435.64245,1227.10087l6.09847,9.14771a3.14617,3.14617,0,0,0,2.61776,1.401h193.0122a3.14616,3.14616,0,0,0,2.92355-4.30853l-9.18165-23.09324a3.14616,3.14616,0,0,0-3.57169-1.91629l-17.687,3.72358a3.1459,3.1459,0,0,1-.463.062l-171.316,10.0979A3.14615,3.14615,0,0,0,435.64245,1227.10087Z" transform="translate(0 -1.54047)"/><path class="cls-1" d="M484.69974,1278.77505l2.432-25.98747a3.29293,3.29293,0,0,0-3.27622-3.62423H458.971a3.29293,3.29293,0,0,0-2.42174,5.5242l22.4525,25.98746A3.29293,3.29293,0,0,0,484.69974,1278.77505Z" transform="translate(0 -1.54047)"/><path class="cls-1" d="M540.875,1323.81866,500.5263,1296.0312a3.39087,3.39087,0,0,1-1.45292-3.108l3.79141-40.59957a3.3909,3.3909,0,0,1,3.468-3.07435l48.39279,1.31109a3.39088,3.39088,0,0,1,3.24746,3.97886l-11.83547,67.07592A3.39088,3.39088,0,0,1,540.875,1323.81866Z" transform="translate(0 -1.54047)"/><path class="cls-1" d="M560.46181,1333.08051,587.8666,1351.371a3.3445,3.3445,0,0,0,5.17428-2.35875l12.25245-96.08133a3.3445,3.3445,0,0,0-3.31763-3.76757h-26.376a3.3445,3.3445,0,0,0-3.2968,2.78164l-13.28123,77.79083A3.34449,3.34449,0,0,0,560.46181,1333.08051Z" transform="translate(0 -1.54047)"/><path class="cls-1" d="M621.173,1249.16335h25.31057a3.07109,3.07109,0,0,1,2.84987,1.9266l13.06713,32.53816a3.0711,3.0711,0,0,1-2.94478,4.21412l-38.3777-1.18659a3.0711,3.0711,0,0,1-2.97618-3.06963v-31.35156A3.07109,3.07109,0,0,1,621.173,1249.16335Z" transform="translate(0 -1.54047)"/><path class="cls-1" d="M662.81669,1302.82577l-1.32765,78.33134a2.97745,2.97745,0,0,1-4.12793,2.69556l-43.43267-18.2034a2.97744,2.97744,0,0,1-1.82655-2.746v-51.075a2.97746,2.97746,0,0,1,.57229-1.75511l8.25632-11.31422a2.97747,2.97747,0,0,1,2.58925-1.21664l36.504,2.26131A2.97745,2.97745,0,0,1,662.81669,1302.82577Z" transform="translate(0 -1.54047)"/><path class="cls-1" d="M680.65187,1318.57562l45.438,79.8525a3.282,3.282,0,0,1-3.55687,4.89l-47.222-12.79571a3.282,3.282,0,0,1-2.53288-3.34442l1.784-67.05679A3.282,3.282,0,0,1,680.65187,1318.57562Z" transform="translate(0 -1.54047)"/><path class="cls-1" d="M1362.38661,644.38143l16.29946,39.93272a3.40249,3.40249,0,0,1-3.46806,4.64677l-66.78223-7.24452a3.40249,3.40249,0,0,1-3.07426-3.00673l-2.17175-19.2265a3.40249,3.40249,0,0,1,2.53821-3.67837l52.65452-13.4617A3.40249,3.40249,0,0,1,1362.38661,644.38143Z" transform="translate(0 -1.54047)"/><path class="cls-1" d="M1392.02171,711.2441l9.924,46.32618a3.53259,3.53259,0,0,1-3.32116,4.27l-135.22854,7.541a3.5326,3.5326,0,0,1-3.36512-4.95593l25.58381-61.30366a3.53261,3.53261,0,0,1,3.45964-2.09941l99.72076,7.43644A3.53258,3.53258,0,0,1,1392.02171,711.2441Z" transform="translate(0 -1.54047)"/><path class="cls-1" d="M1402.99294,780.33456l2.83147,56.34616a3.36734,3.36734,0,0,1-3.723,3.51706l-159.53958-16.22173a3.36734,3.36734,0,0,1-2.73016-4.68625l15.01973-35.64167a3.36734,3.36734,0,0,1,2.97194-2.02707l141.68839-4.48278A3.36735,3.36735,0,0,1,1402.99294,780.33456Z" transform="translate(0 -1.54047)"/><path class="cls-1" d="M1334.37882,844.603l-96.58867-7.32339a3.36694,3.36694,0,0,0-3.42693,2.13063l-12.16741,31.11044a3.367,3.367,0,0,0,3.90032,4.503l108.75608-23.78705A3.367,3.367,0,0,0,1334.37882,844.603Z" transform="translate(0 -1.54047)"/><path class="cls-1" d="M1406.02232,853.98429V896.586a3.37578,3.37578,0,0,1-3.19591,3.371l-188.71474,10.017a3.37577,3.37577,0,0,1-3.34441-4.54638l7.63878-17.33219a3.37579,3.37579,0,0,1,2.51884-2.138l181.076-35.28659A3.37578,3.37578,0,0,1,1406.02232,853.98429Z" transform="translate(0 -1.54047)"/><path class="cls-1" d="M1394.901,921.06742l-12.72277,56.59441a3.153,3.153,0,0,1-2.42671,2.39384l-8.63064,1.817a3.14572,3.14572,0,0,1-2.70356-.69322c-4.15375-3.57764-18.24887-15.53856-24.39435-18.47906-9.05457-4.33245-28.99939-8.609-38.98927-9.58753-8.6763-.84985-26.24737.095-34.83467,1.59792-8.74171,1.52991-30.98957,9.18985-38.61512,11.862a3.14564,3.14564,0,0,1-3.85589-1.56794l-16.7411-33.48219a3.153,3.153,0,0,1,2.648-4.55842l178.01765-9.73669A3.153,3.153,0,0,1,1394.901,921.06742Z" transform="translate(0 -1.54047)"/><path class="cls-1" d="M1380.89477,1085.23511c2.08-7.65474,1.85768-20.099,1.19028-37.60674a86.46944,86.46944,0,0,0-11.12072-40.03483c-10.40533-18.89513-24.14948-27.40442-30.75481-30.95219-16.06569-8.62906-32.3886-9.3-44.14362-9.185-5.66894.05544-33.24958,3.36148-43.50922,5.89428-4.95857,1.22408-12.74166,4.28577-21.83843,10.17131-9.3255,6.03349-21.72853,18.21091-25.94557,25.46746a67.2483,67.2483,0,0,0-6.70218,15.72183,103.22716,103.22716,0,0,0-3.223,12.902c-.35245,2.211-2.0232,15.98643-.92547,22.792,2.44271,15.14387,5.28317,22.39464,8.97466,30.514a115.97968,115.97968,0,0,0,14.65869,23.93245,112.91764,112.91764,0,0,0,20.34262,20.04352,89.33974,89.33974,0,0,0,29.31738,15.257c15.95214,4.66858,29.0831,3.2844,36.79623,2.39321,9.25254-1.069,23.5681-2.88514,38.59113-12.56458,7.25623-4.67523,12.61118-9.9659,22.13764-21.53923a68.84393,68.84393,0,0,0,11.63071-20.92208c.34793-.95358.6987-2.00877,1.44369-3.91483.49428-1.26463,1.36883-3.0507,1.82681-4.47332C1380.78562,1085.57753,1380.7269,1085.85281,1380.89477,1085.23511Zm-40.691-14.52006c-.88509,2.62546-4.274,7.19859-6.21464,9.17605a62.20586,62.20586,0,0,1-14.25708,10.05309c-4.46611,1.97746-14.32949,3.19667-19.19219,3.6557-4.18544.39509-12.71144.90876-16.816,0-4.518-1.00024-13.28736-4.7771-16.77969-7.81275-3.38971-2.94652-8.27512-10.83919-9.7765-15.07209-1.68671-4.75547-2.73248-15.05828-2.14082-20.06924a47.21485,47.21485,0,0,1,4.93522-13.89145,66.06319,66.06319,0,0,1,12.7948-14.07432c3.00972-2.25437,9.86145-5.7361,13.52593-6.58015,4.54207-1.0462,13.53549-2.03623,18.18457-1.70232,3.28955.23622,10.54,1.43632,13.61966,2.61622,2.7058,1.03666,7.12414,5.04631,9.13919,7.12853,2.7522,2.844,7.61907,9.22223,9.322,12.7948,1.91243,4.01222,4.11485,12.76019,4.56949,17.18163C1341.54271,1058.25235,1341.53125,1066.77739,1340.20374,1070.71505Z" transform="translate(0 -1.54047)"/><path class="cls-1" d="M1276.56145,1076.97956a37.98862,37.98862,0,0,1-6.91483-8.47066,29.72806,29.72806,0,0,1-2.59306-8.44511,41.77934,41.77934,0,0,1,1.55584-13.16373,35.95594,35.95594,0,0,1,6.39621-10.19937,49.93757,49.93757,0,0,1,8.45562-6.034,51.47364,51.47364,0,0,1,9.69581-3.81966c2.52807-.57692,7.79631-.29757,10.37224,0,2.47745.28619,7.41558,1.03091,9.85363,1.55583,1.17845.25373,3.64094.57823,4.66751,1.2101,1.61689.99522,3.94779,4.13324,5.01325,5.70473a56.97059,56.97059,0,0,1,5.01325,9.85363,52.93873,52.93873,0,0,1,1.90158,11.92808,33.96468,33.96468,0,0,1-.86435,8.64354,26.1605,26.1605,0,0,1-4.66751,7.95205,40.26384,40.26384,0,0,1-3.27172,3.33254,18.97592,18.97592,0,0,1-4.247,2.28216c-1.30737.451-3.81782,1.37218-5.14563,1.75884-1.082.31509-3.88647.782-4.9685,1.09713-2.57264.74915-8.00867.7765-10.86784.65033a63.21871,63.21871,0,0,1-11.08674-1.34182A30.91344,30.91344,0,0,1,1276.56145,1076.97956Z" transform="translate(0 -1.54047)"/><path class="cls-1" d="M1174.24722,1064.015s-4.16287-13.99564-5.31348-16.29576a64.91458,64.91458,0,0,0-4.86357-6.6874,3.19285,3.19285,0,0,1-.43649-2.91814l32.74408-92.73119a3.19286,3.19286,0,0,1,6.06.06824l7.77269,29.103a3.19285,3.19285,0,0,1-.30476,2.61678s-15.30184,17.68383-22.33386,37.15763c-10.3274,28.5997-7.32251,48.94505-7.32251,48.94505A3.19286,3.19286,0,0,1,1174.24722,1064.015Z" transform="translate(0 -1.54047)"/><path class="cls-1" d="M1130.798,1145.03949l23.754-76.16592a3.28368,3.28368,0,0,1,5.77166-.98887l55.73866,76.16592a3.28368,3.28368,0,0,1-2.63477,5.2434H1133.9349A3.28367,3.28367,0,0,1,1130.798,1145.03949Z" transform="translate(0 -1.54047)"/><path class="cls-1" d="M1290.25176,1236.27791l10.73176-8.79282a3.22547,3.22547,0,0,0,1.18126-2.495v-50.14726a3.22545,3.22545,0,0,0-3.22545-3.22546h-15.50251a3.22545,3.22545,0,0,0-3.20114,3.62077l2.75245,22.28881q.0135.10928.01951.21928l1.97927,36.21272A3.22546,3.22546,0,0,0,1290.25176,1236.27791Z" transform="translate(0 -1.54047)"/><path class="cls-1" d="M1271.4625,1252.5718v-76.63844a3.123,3.123,0,0,0-3.01315-3.12111l-30.65449-1.07939a3.12306,3.12306,0,0,0-3.23264,3.16542l1.42552,100.49921a3.12306,3.12306,0,0,0,5.04262,2.41895l29.229-22.78141A3.123,3.123,0,0,0,1271.4625,1252.5718Z" transform="translate(0 -1.54047)"/><path class="cls-1" d="M1216.55978,1165.61809l-29.8813-2.96694a3.48434,3.48434,0,0,0-3.82337,3.27626l-8.80249,160.31776a3.48434,3.48434,0,0,0,5.335,3.14l36.92908-23.241a3.48435,3.48435,0,0,0,1.62814-2.90336l1.75471-134.10977A3.48433,3.48433,0,0,0,1216.55978,1165.61809Z" transform="translate(0 -1.54047)"/><path class="cls-1" d="M1123.00563,1351.36726l36.75567-15.91781a3.02548,3.02548,0,0,0,1.81854-2.60944l9.22626-167.01383a3.02549,3.02549,0,0,0-3.02089-3.19237h-28.70884a3.0255,3.0255,0,0,0-3.00866,2.70675l-8.87947,83.8145-8.39966,99.18056A3.0255,3.0255,0,0,0,1123.00563,1351.36726Z" transform="translate(0 -1.54047)"/><path class="cls-1" d="M1038.06,1381.14862c24.145-5.43622,46.15707-13.67662,62.70918-23.00468a3.92861,3.92861,0,0,0,2.298-2.8594l5.07127-41.94714a3.39357,3.39357,0,0,0-4.05647-3.68325l-42.41852,9.08831a3.3936,3.3936,0,0,0-2.40862,1.92263l-25.36192,55.86351C1032.66882,1379.22749,1035.16883,1381.79956,1038.06,1381.14862Z" transform="translate(0 -1.54047)"/><path class="cls-1" d="M1071.61063,1303.02075l28.37262-6.039a3.34525,3.34525,0,0,0,2.85335-2.58593l17.49734-74.82908a3.34472,3.34472,0,0,0,.078-.58041l4.97165-50.40225c.17493-3.80474-5.436-4.99876-6.472-1.33361-16.25643,57.5135-35.05466,95.30061-50.84161,131.27035A3.319,3.319,0,0,0,1071.61063,1303.02075Z" transform="translate(0 -1.54047)"/><path class="cls-1" d="M1276.57635,672.903l-27.07883-9.85586a3.44106,3.44106,0,0,0-4.41052,2.05665l-26.22719,72.05879L919.015,628.02836l71.11284-25.88291a3.47737,3.47737,0,0,0,2.07832-4.457l-9.83109-27.01077a3.47738,3.47738,0,0,0-4.457-2.07832l-111.09168,40.434L753.14782,567.65784a3.06614,3.06614,0,0,0-3.92989,1.83259l-10.11232,27.78346a3.06612,3.06612,0,0,0,1.83253,3.9299l73.7,26.82451L514.61433,737.228l-26.68757-73.32355a3.44111,3.44111,0,0,0-4.41047-2.05665l-27.07894,9.85592a3.441,3.441,0,0,0-2.05664,4.41046l218.84417,601.27012a3.37538,3.37538,0,0,0,1.41761,3.07919L834.59275,1392.4619l-57.34553,40.1538a3.3897,3.3897,0,0,0-.83249,4.721l16.58763,23.68954a3.38977,3.38977,0,0,0,4.72107.83249l67.98908-47.60653,67.98909,47.60653a3.38976,3.38976,0,0,0,4.72107-.83249l16.58763-23.68954a3.38974,3.38974,0,0,0-.83244-4.721l-57.34558-40.1538L1059.24382,1278.74a3.37229,3.37229,0,0,0,1.42905-2.6313c.02135-.05084.05194-.09486.07109-.14724l217.88915-598.64795A3.44115,3.44115,0,0,0,1276.57635,672.903Zm-263.86007,594.83531V1234.127h25.26407l-7.77682,21.36669Zm-308.776-10.34089-8.46972-23.27048h27.47411v36.57743Zm-104.463-513.06695,93.33861-33.97243h30.1288v39.02908H599.47727Zm-12.98154,5.05665h-.91151l.91151-.33173Zm548.1931,0H1012.71628V710.35805H1040.838l93.85082,34.15879Zm12.98154-.14543.39947.14543h-.39947ZM874.32128,854.118V815.4781H999.73485V854.118Zm125.41357,12.98154v40.97188H874.32128V867.09954ZM874.32128,802.49661V762.36867H999.73485v40.12794Zm0-53.10948V710.35805H999.73485v39.02908Zm-12.98154,0H735.92617V710.35805H861.33974Zm0,12.98154v40.12794H735.92617V762.36867Zm0,53.10943V854.118H735.92617V815.4781Zm0,51.62144v40.97188H735.92617V867.09954ZM722.94468,908.07142H599.47727V867.09954H722.94468Zm0,12.98148v37.70727H599.47727V921.0529Zm12.98149,0H861.33974v37.70727H735.92617Zm125.41357,50.68876v39.20988H735.92617V971.74166Zm0,52.19142v39.86977H735.92617v-39.86977Zm0,52.8512v40.62414H735.92617v-40.62414Zm0,53.60568v37.94452H735.92617V1130.39Zm0,50.92606v39.82928H735.92617V1181.316Zm0,52.81093v38.04125H735.92617V1234.127Zm12.98154,0H999.73485v38.04125H874.32128Zm0-12.98165V1181.316H999.73485v39.82928Zm0-52.81082V1130.39H999.73485v37.94452Zm0-50.92606v-40.62414H999.73485v40.62414Zm0-53.60557v-39.86977H999.73485v39.86977Zm0-52.85131V971.74166H999.73485v39.20988Zm0-52.19137V921.0529H999.73485v37.70727Zm138.395-37.70727h121.97255v37.70727H1012.71628Zm0-12.98148V867.09954h121.97255v40.97188Zm0-53.95342V815.4781h121.97255V854.118Zm0-51.62139V762.36867h121.97255v40.12794Zm-12.98143-105.1201H874.32128V649.7511l125.41357,45.64668Zm-138.39511,0H735.92617v-2.70932l125.41357-45.64674ZM722.94468,762.36867v40.12794H599.47727V762.36867Zm0,53.10943V854.118H599.47727V815.4781ZM586.49573,854.118h-29.337L543.095,815.4781h43.4007Zm0,12.98154v40.97188h-9.69954l-14.91251-40.97188Zm0,53.95336v13.66784l-4.97467-13.66784Zm136.44895,50.68876v39.20988H614.24144l-14.27122-39.20988Zm0,52.19142v39.86977h-89.467l-14.51139-39.86977Zm0,52.8512v40.62414H652.98853l-14.78591-40.62414Zm0,53.60568v37.94452H671.52407L657.71345,1130.39Zm0,50.92606v39.82928h-32.199L676.249,1181.316Zm138.39506,103.83361v40.753H801.77591l-58.20118-40.753Zm0,53.73443v28.72567l-41.02437-28.72567Zm12.98154,0h36.78838l-36.78838,25.75961Zm0-12.98143v-40.753h113.529l-58.20118,40.753Zm168.384-104.75733h-29.989V1181.316h44.48553Zm-29.989-52.81082V1130.39h63.02107l-13.81062,37.94452Zm0-50.92606v-40.62414h82.53185l-14.786,40.62414Zm0-53.60557v-39.86977h101.76805l-14.51128,39.86977Zm0-52.85131V971.74166h120.76414l-14.27117,39.20988Zm134.95409-89.89864h4.25921l-4.25921,11.70193Zm0-12.98148V867.09954h23.89642l-14.91251,40.97188Zm0-53.95342V815.4781h42.68507l-14.06373,38.6399Zm0-51.62139V762.36867h36.06616l22.91371,8.33987-11.57,31.78807ZM549.9177,762.36867h36.578v40.12794H538.37016l-11.5461-31.72254Z" transform="translate(0 -1.54047)"/><path class="cls-1" d="M540.76356,515.49443H678.66514a2.9905,2.9905,0,0,0,2.96405-2.59356c1.60527-11.98656,2.3171-37.67674,8.262-48.20823C695.41227,454.912,714.005,436.819,724.6006,433.094c9.10239-3.2,32.78913-4.40226,42.40439-3.60192,6.38355.53135,19.48794,5.017,24.06735,9.496,3.881,3.79587,7.18577,7.52842,10.1775,10.14648a2.99051,2.99051,0,0,0,4.95916-2.18426l2.965-125.04485a2.99051,2.99051,0,0,0-2.98978-3.05673H779.61175a2.9907,2.9907,0,0,0-.58438.05765l-63.307,12.614a2.98942,2.98942,0,0,0-.52116.1542l-63.53647,25.27928q-.07389.0294-.14615.0627L598.9707,381.23337a2.99024,2.99024,0,0,0-.4188.23551l-22.31327,15.0273-45.33511,29.33449a2.9905,2.9905,0,0,0-1.3517,2.802l8.23544,84.1625A2.99051,2.99051,0,0,0,540.76356,515.49443Z" transform="translate(0 -1.54047)"/><path class="cls-1" d="M924.9262,326.06065h22.2143a3.128,3.128,0,0,1,.747.09051l48.08688,11.82616q.12591.031.24893.07228l57.67274,19.371a3.127,3.127,0,0,1,.33707.13547l53.37854,25.14526,42.07509,21.03755a3.12786,3.12786,0,0,1,.7366.51214s11.22176,8.38137,15.07042,11.02264c5.81634,3.99168,23.73437,15.26083,23.73437,15.26083a3.128,3.128,0,0,1,1.64958,2.62653l3.332,79.17443a3.128,3.128,0,0,1-3.02729,3.258l-136.06662.95277a3.12676,3.12676,0,0,1-3.21969-3.32387c.45475-7.09155,1.537-19.85632.42856-26.08775-1.68023-9.44629-9.8733-28.14915-15.867-35.64124-11.82094-14.77618-27.37691-17.49493-38.92914-19.268-10.143-1.55674-36.25922,1.22758-45.90887,4.71868-4.9821,1.80245-14.013,8.41341-19.944,12.9639a3.126,3.126,0,0,1-5.02657-2.35852L921.8007,329.31378A3.128,3.128,0,0,1,924.9262,326.06065Z" transform="translate(0 -1.54047)"/></g><g id="Layer_5" data-name="Layer 5"><path class="cls-1" d="M72,865.53729c0-.34625.00616-.6911.00659-1.03729h-72C.00616,864.84619,0,865.191,0,865.53729c0,238.01618,96.25006,453.54767,251.94427,609.81134L302.856,1424.437C160.1911,1281.20288,72,1083.67126,72,865.53729Z" transform="translate(0 -1.54047)"/><path class="cls-1" d="M1727.99341,864.5h-72c.00049.34619.00659.691.00659,1.03729,0,218.13385-88.19116,415.66559-230.856,558.89972l50.91175,50.91174C1631.75,1319.08508,1728,1103.55347,1728,865.53729,1728,865.191,1727.9939,864.84619,1727.99341,864.5Z" transform="translate(0 -1.54047)"/><path class="cls-1" d="M303.55878,1425.14819l-50.91169,50.91175c156.27662,156.48791,372.25324,253.339,610.85291,253.47424v-72C644.78259,1657.39893,446.806,1568.60669,303.55878,1425.14819Z" transform="translate(0 -1.54047)"/><path class="cls-1" d="M864.5,1657.53418v72c238.59961-.13525,454.57642-96.98633,610.853-253.47412l-50.91187-50.91187C1281.19409,1568.60669,1083.21729,1657.39893,864.5,1657.53418Z" transform="translate(0 -1.54047)"/><path class="cls-1" d="M1422.89966,304.39325l50.91174-50.91168C1317.65723,97.89655,1102.31787,1.67529,864.5,1.54047v72C1082.43555,73.67529,1279.77515,161.83759,1422.89966,304.39325Z" transform="translate(0 -1.54047)"/><path class="cls-1" d="M304.389,305.09607l-50.91168-50.91168C97.32605,410.12494.56281,625.5108.01288,863.5h72C72.56268,645.393,161.26727,448.0072,304.389,305.09607Z" transform="translate(0 -1.54047)"/><path class="cls-1" d="M1655.98706,863.5h72c-.5498-237.98926-97.31311-453.37506-253.46435-609.31561L1423.611,305.09607C1566.73279,448.0072,1655.43726,645.393,1655.98706,863.5Z" transform="translate(0 -1.54047)"/><path class="cls-1" d="M863.5,73.54047v-72c-237.81781.13482-453.15729,96.356-609.3114,251.9411l50.91168,50.91168C448.22479,161.83759,645.56445,73.67529,863.5,73.54047Z" transform="translate(0 -1.54047)"/></g><g id="Layer_6" data-name="Layer 6"><text class="cls-2" transform="translate(293.12823 266.83333)">h</text><text class="cls-2" transform="translate(904.05566 37.07135)">a</text><text class="cls-2" transform="translate(1474.76074 311.42438)">b</text><text class="cls-2" transform="translate(1677.9375 930.01227)">c</text><text class="cls-2" transform="translate(1391.9375 1500.71735)">d</text><text class="cls-2" transform="translate(786.29102 1685.77594)">e</text><text class="cls-2" transform="translate(237.58545 1415.30524)">f</text><text class="cls-2" transform="translate(31.8208 818.71783)">g</text><text class="cls-2" transform="translate(852.29102 151.42639)">1</text><text class="cls-2" transform="translate(998.42621 169.07117)">2</text><text class="cls-2" transform="translate(1096.05273 311.42438)">3</text><text class="cls-2" transform="translate(1280.07263 444.5036)">4</text><text class="cls-2" transform="translate(1344.05469 466.07401)">5</text><text class="cls-2" transform="translate(1417.81949 679.60797)">6</text><text class="cls-2" transform="translate(1474.76074 873.57452)">7</text><text class="cls-2" transform="translate(1464.4082 931.21436)">8</text><text class="cls-2" transform="translate(1413.85293 1135.77649)">9</text><text class="cls-2" transform="translate(1286.7449 1343.87653)">10</text><text class="cls-2" transform="translate(1241.89047 1379.71021)">11</text><text class="cls-2" transform="translate(1052.67355 1443.77637)">12</text><text class="cls-2" transform="translate(839.51892 1534.36414)">13</text><text class="cls-2" transform="translate(624.40607 1450.24651)">14</text><text class="cls-2" transform="translate(433.80109 1401.8685)">15</text><text class="cls-2" transform="translate(365.2821 1379.71021)">16</text><text class="cls-2" transform="translate(312.64484 1343.87654)">17</text><text class="cls-2" transform="translate(263.46783 1168.38385)">18</text><text class="cls-2" transform="translate(237.58545 950.11627)">19</text><text class="cls-2" transform="translate(139.2328 886.04501)">20</text><text class="cls-2" transform="translate(276.40911 684.17761)">21</text><text class="cls-2" transform="translate(335.93848 472.99152)">22</text><text class="cls-2" transform="translate(398.70403 446.00897)">23</text><text class="cls-2" transform="translate(560.57504 292.68494)">24</text><text class="cls-2" transform="translate(728.1268 211.77734)">25</text><text class="cls-2" transform="translate(760.64486 353.60929)">26</text><text class="cls-2" transform="translate(839.51892 347.25071)">27</text><text class="cls-2" transform="translate(926.87932 362.27369)">28</text><text class="cls-2" transform="translate(466.27159 480.89515)">29</text><text class="cls-2" transform="translate(452.38606 532.5836)">30</text><text class="cls-2" transform="translate(756.01119 487.24002)">31</text><text class="cls-3" transform="translate(796.60103 515.00716)">32</text><text class="cls-4" transform="translate(929.46982 513.80629)">33</text><text class="cls-2" transform="translate(943.24994 489.80043)">34</text><text class="cls-5" transform="translate(1205.01703 463.12131)">35</text><text class="cls-6" transform="translate(1208.16571 497.93959)">36</text><text class="cls-2" transform="translate(408.40528 592.94212)">37</text><text class="cls-7" transform="translate(498.10172 641.6777)">38</text><text class="cls-8" transform="translate(379.28049 659.74692)">39</text><text class="cls-2" transform="translate(551.16087 557.63148)">40</text><text class="cls-2" transform="translate(633.74658 557.63148)">41</text><text class="cls-9" transform="translate(692.91821 588.68978)">42</text><text class="cls-2" transform="translate(1012.71674 588.68996)">43</text><text class="cls-2" transform="translate(1073.70297 557.63142)">44</text><text class="cls-2" transform="translate(1139.25136 560.6765)">45</text><text class="cls-2" transform="translate(1208.16571 542.45317)">46</text><text class="cls-2" transform="translate(1210.64813 625.27012)">47</text><text class="cls-2" transform="translate(1322.69025 677.20904)">48</text><text class="cls-2" transform="translate(350.28435 720.35989)">49</text><text class="cls-10" transform="translate(435.10954 776.39658)">50</text><text class="cls-2" transform="translate(319.01401 813.93763)">51</text><text class="cls-2" transform="translate(452.38591 861.95946)">52</text><text class="cls-2" transform="translate(320.93339 938.36636)">53</text><text class="cls-11" transform="translate(517.0333 970.20119)">54</text><text class="cls-2" transform="translate(414.97926 985.7531)">55</text><text class="cls-2" transform="translate(417.59457 1059.45901)">56</text><text class="cls-2" transform="translate(551.16074 1135.7769)">57</text><text class="cls-2" transform="translate(433.80112 1199.6902)">58</text><text class="cls-2" transform="translate(512.40344 1192.04984)">59</text><text class="cls-2" transform="translate(574.18967 1192.04999)">60</text><text class="cls-12" transform="translate(602.72733 1232.58663)">61</text><text class="cls-13" transform="translate(466.27171 1263.91216)">62</text><text class="cls-2" transform="translate(504.02542 1280.20097)">63</text><text class="cls-6" transform="translate(574.18972 1270.62798)">64</text><text class="cls-14" transform="translate(618.10184 1277.42995)">65</text><text class="cls-2" transform="translate(616.04395 1329.33521)">66</text><text class="cls-15" transform="translate(676.24908 1382.54706)">67</text><text class="cls-2" transform="translate(1284.46196 733.65909)">68</text><text class="cls-2" transform="translate(1254.86018 813.93764)">69</text><text class="cls-16" transform="translate(1233.54958 862.9594)">70</text><text class="cls-17" transform="translate(1236.72998 902.72934)">71</text><text class="cls-2" transform="translate(1342.34851 952.96218)">72</text><text class="cls-18" transform="translate(1190.35582 976.1451)">73</text><text class="cls-2" transform="translate(1266.98759 1002.98449)">74</text><text class="cls-2" transform="translate(1278.84181 1068.14415)">75</text><text class="cls-2" transform="translate(1144.79368 1128.84995)">76</text><text class="cls-6" transform="translate(1079.44319 1286.63679)">77</text><text class="cls-2" transform="translate(1061.93763 1347.95702)">78</text><text class="cls-17" transform="translate(1136.99413 1186.79337)">79</text><text class="cls-17" transform="translate(1184.83002 1186.79242)">80</text><text class="cls-17" transform="translate(1238.86651 1196.74894)">81</text><text class="cls-13" transform="translate(1283.46418 1184.55446)">82</text></g></svg>