<svg xmlns="http://www.w3.org/2000/svg" viewBox="0 0 1245.49077 1093.27836"><defs><style>.cls-1{fill:none;}.cls-1,.cls-2,.cls-3,.cls-4{stroke:#231f20;stroke-miterlimit:10;stroke-width:0.25px;}.cls-2{fill:#fff;}.cls-3{fill:#00a651;}.cls-3,.cls-4{opacity:0.5;}.cls-4{fill:#be1e2d;}</style></defs><title>main-floor</title><g id="Layer_1" data-name="Layer 1"><circle class="cls-1" cx="622.74538" cy="546.45795" r="17.5"/><circle class="cls-2" cx="922.55268" cy="1082.52119" r="8.125"/><circle class="cls-2" cx="322.55268" cy="1082.52119" r="8.125"/><line class="cls-1" x1="314.42768" y1="1082.52126" x2="930.67768" y2="1082.52112"/><rect class="cls-1" x="322.55268" y="1074.39619" width="600" height="16.25"/><circle class="cls-2" cx="922.55268" cy="10.39472" r="8.125"/><circle class="cls-2" cx="322.55268" cy="10.39472" r="8.125"/><line class="cls-1" x1="314.42768" y1="10.39479" x2="930.67768" y2="10.39464"/><rect class="cls-1" x="322.55268" y="2.26972" width="600" height="16.25"/><circle class="cls-2" cx="8.42899" cy="554.90453" r="8.125"/><circle class="cls-2" cx="308.42899" cy="1074.51977" r="8.125"/><line class="cls-1" x1="312.49155" y1="1081.55619" x2="4.36643" y2="547.86811"/><rect class="cls-1" x="235.6836" y="1260.1292" width="600" height="16.25" transform="translate(-672.06956 1912.75486) rotate(-120)"/><circle class="cls-2" cx="937.23941" cy="18.39082" r="8.125"/><circle class="cls-2" cx="1237.23941" cy="538.00606" r="8.125"/><line class="cls-1" x1="1241.30197" y1="545.04248" x2="933.17685" y2="11.3544"/><rect class="cls-1" x="1164.49403" y="723.61549" width="600" height="16.25" transform="translate(1185.78057 1912.35772) rotate(-120)"/><circle class="cls-2" cx="937.12136" cy="1074.23341" r="8.125"/><circle class="cls-2" cx="1237.12136" cy="554.61817" r="8.125"/><line class="cls-1" x1="1241.18379" y1="547.58168" x2="933.05892" y2="1081.2699"/><rect class="cls-1" x="1164.37597" y="1259.84284" width="600" height="16.25" transform="translate(2917.4017 180.22291) rotate(120)"/><circle class="cls-2" cx="8.25136" cy="538.56509" r="8.125"/><circle class="cls-2" cx="308.25136" cy="18.94985" r="8.125"/><line class="cls-1" x1="312.31379" y1="11.91336" x2="4.18892" y2="545.60159"/><rect class="cls-1" x="235.50597" y="724.17452" width="600" height="16.25" transform="translate(1060.19433 181.14546) rotate(120)"/></g><g id="Layer_2" data-name="Layer 2"><rect class="cls-3" x="332.74538" y="0.125" width="580" height="20"/><rect class="cls-3" x="245.89938" y="722.02365" width="580" height="20" transform="translate(1060.54553 180.39095) rotate(120)"/><rect class="cls-3" x="1174.92649" y="1258.14075" width="580" height="20" transform="translate(2918.37722 180.00553) rotate(120)"/><rect class="cls-3" x="332.74538" y="1073.15336" width="580" height="20"/><rect class="cls-3" x="245.6836" y="1258.58493" width="580" height="20" transform="translate(-672.35599 1913.25096) rotate(-120)"/><rect class="cls-3" x="1174.59576" y="720.70072" width="580" height="20" transform="translate(1186.83363 1910.88617) rotate(-120)"/><circle class="cls-1" cx="622.74538" cy="546.45795" r="27.5"/><rect class="cls-4" x="564.9426" y="1269.10766" width="584.99999" height="10" transform="translate(-1050.53944 944.79) rotate(-60.70004)"/><rect class="cls-4" x="850.03162" y="1269.17888" width="585" height="10" transform="translate(1317.31438 -799.29065) rotate(60.7)"/><rect class="cls-4" x="850.10187" y="721.20781" width="584.99999" height="10" transform="translate(1957.81965 -368.36961) rotate(119.29996)"/><rect class="cls-4" x="565.01283" y="721.13658" width="585" height="10" transform="translate(266.66851 1375.76362) rotate(-119.3)"/><rect class="cls-4" x="873.62836" y="1255.17081" width="584.99999" height="10" transform="translate(300.67263 2452.69847) rotate(-120.70004)"/><rect class="cls-4" x="1016.23455" y="1008.31208" width="585" height="10" transform="translate(-364.77728 -469.45527) rotate(0.7)"/><rect class="cls-4" x="1015.94029" y="980.48092" width="584.99999" height="10" transform="translate(2251.56855 1501.36018) rotate(179.29996)"/><rect class="cls-4" x="873.45746" y="733.55096" width="585" height="10" transform="translate(-441.61322 910.49808) rotate(-59.3)"/><rect class="cls-4" x="542.16269" y="734.90865" width="584.99999" height="10" transform="translate(667.48838 -809.07525) rotate(59.29996)"/><rect class="cls-4" x="399.55649" y="981.76738" width="585" height="10" transform="translate(994.75134 1528.37395) rotate(-179.3)"/><rect class="cls-4" x="399.38436" y="1008.85511" width="584.99999" height="10" transform="translate(-389.58989 -445.01318) rotate(-0.70004)"/><rect class="cls-4" x="541.86719" y="1255.78507" width="585" height="10" transform="translate(1967.18174 733.49543) rotate(120.7)"/><rect class="cls-4" x="472.58718" y="249.10381" width="300" height="10"/><rect class="cls-4" x="521.78886" y="20.17966" width="10" height="228.96754"/><rect class="cls-4" x="704.64482" y="20.12927" width="10" height="228.96754"/><rect class="cls-4" x="549.05605" y="384.91132" width="147.5" height="10"/><rect class="cls-4" x="850.3021" y="1287.72086" width="300" height="10" transform="translate(1623.34958 2131.89968) rotate(180)"/><rect class="cls-4" x="1091.10042" y="1297.67748" width="10" height="228.96754" transform="translate(1814.94621 2370.78045) rotate(180)"/><rect class="cls-4" x="908.24445" y="1297.72786" width="10" height="228.96754" transform="translate(1449.23429 2370.88122) rotate(180)"/><rect class="cls-4" x="926.33322" y="1151.91335" width="147.5" height="10" transform="translate(1622.91183 1860.28466) rotate(180)"/><rect class="cls-4" x="596.23831" y="850.19657" width="300" height="10" transform="translate(-744.75742 620.31757) rotate(-60)"/><rect class="cls-4" x="589.90074" y="763.95638" width="10" height="228.96754" transform="translate(-840.55574 500.87718) rotate(-60)"/><rect class="cls-4" x="681.28508" y="605.57328" width="10" height="228.96754" transform="translate(-657.69977 500.8268) rotate(-60)"/><rect class="cls-4" x="790.21049" y="917.91077" width="147.5" height="10" transform="translate(-744.53854 756.12508) rotate(-60)"/><rect class="cls-4" x="597.8586" y="1142.07326" width="300" height="10" transform="translate(-248.86185 1914.73211) rotate(-119.99997)"/><rect class="cls-4" x="687.31928" y="1175.27343" width="10" height="228.96754" transform="translate(-455.73875 2080.6595) rotate(-119.99997)"/><rect class="cls-4" x="595.84774" y="1016.94068" width="10" height="228.96754" transform="translate(-455.82581 1763.94372) rotate(-119.99997)"/><rect class="cls-4" x="791.61194" y="1073.98" width="147.5" height="10" transform="translate(-13.63638 1914.35316) rotate(-119.99997)"/><rect class="cls-4" x="1101.9417" y="1139.96783" width="300" height="10" transform="translate(2492.22917 179.69638) rotate(120)"/><rect class="cls-4" x="1398.27927" y="1007.24048" width="10" height="228.96754" transform="translate(2699.10598 13.76883) rotate(120)"/><rect class="cls-4" x="1306.89492" y="1165.62358" width="10" height="228.96754" transform="translate(2699.19325 330.48465) rotate(120)"/><rect class="cls-4" x="1060.46951" y="1072.25363" width="147.5" height="10" transform="translate(2257.00367 180.07549) rotate(120)"/><rect class="cls-4" x="1104.91829" y="847.21998" width="300" height="10" transform="translate(988.24868 -1114.22318) rotate(60)"/><rect class="cls-4" x="1305.45754" y="595.05224" width="10" height="228.96754" transform="translate(892.45037 -1233.66356) rotate(60)"/><rect class="cls-4" x="1396.92916" y="753.38496" width="10" height="228.96754" transform="translate(1075.30633 -1233.71395) rotate(60)"/><rect class="cls-4" x="1063.66498" y="915.31329" width="147.5" height="10" transform="translate(988.46756 -978.41567) rotate(60)"/></g></svg>