<svg id="Layer_1" data-name="Layer 1" xmlns="http://www.w3.org/2000/svg" viewBox="0 0 1728 2592"><defs><style>.cls-1{fill:#009444;}.cls-2{fill:#e6e7e8;stroke:#e6e7e8;stroke-miterlimit:10;stroke-width:8px;}</style></defs><title>tiki-1</title><rect class="cls-1" width="1728" height="2592"/><path class="cls-2" d="M1653.91538,1180.81748a220.48741,220.48741,0,0,0,2.08455-30.07925c.04811-61.0772-26.50688-112.456-63.8693-153.24547-49.91235-54.49463-119.41691-92.95039-181.4925-119.67476-2.7766-1.77215-5.52785-3.57527-8.4572-5.11766,140.4694-234.01146,157.556-420.82456,157.49947-495.64417,0-22.34844-1.47734-34.74388-1.57337-35.52286-.01414-.11173-.08758-.19863-.10448-.31035a20.43317,20.43317,0,0,0-2.47161-7.38016c-.19482-.33828-.54791-.56173-.76272-.88761a18.11837,18.11837,0,0,0-3.89241-4.53113c-.12706-.09931-.2824-.10551-.40964-.19864-.11292-.08379-.16947-.23275-.28533-.31345a15.42648,15.42648,0,0,0-2.03663-.81312,16.49891,16.49891,0,0,0-4.43755-1.77211,15.59287,15.59287,0,0,0-2.55351-.06206,15.87946,15.87946,0,0,0-4.50531.41588c-.34739.0931-.70893-.01861-1.05081.09621-1.40959.509-109.087,37.67362-236.70117,151.37718,2.88676-33.28212,4.31618-64.60281,4.31618-93.30107,0-155.78107-35.99507-242.37542-36.834-244.36167-.04241-.09931-.13844-.16137-.18085-.26069a19.1051,19.1051,0,0,0-4.33583-6.25359c-.291-.27311-.70618-.37863-1.01116-.63a16.78045,16.78045,0,0,0-4.89237-3.04765c-.14689-.05275-.29378-.0093-.44342-.059-.13-.04345-.226-.16759-.35878-.20794a15.45092,15.45092,0,0,0-2.18059-.121,10.26155,10.26155,0,0,0-7.16639.509,16.48237,16.48237,0,0,0-4.18895,1.8497c-.30792.20172-.68359.211-.98013.43449-1.39252,1.08313-124.27255,93.91864-226.68766,294.32831C960.79108,205.99029,873.83275,80.7913,872.92607,79.44435c-.21749-.31346-.57342-.45-.80789-.74484a17.77955,17.77955,0,0,0-3.45743-3.19352,17.23789,17.23789,0,0,0-2.12137-1.57349,16.39014,16.39014,0,0,0-4.54212-1.36244,15.20158,15.20158,0,0,0-2.10438-.63c-.13844-.0062-.26266.0807-.4011.07759-.1525-.0031-.28249-.0962-.43783-.0962a15.80045,15.80045,0,0,0-5.51949,1.22279c-.36153.13345-.78246.0931-1.1327.25139a17.49879,17.49879,0,0,0-5.88947,4.45975c-.0706.0807-.17793.10552-.24861.18622-1.55924,1.71-92.4298,110.29281-145.31374,341.84006-101.75971-196.1175-222.106-287.10333-223.48437-288.174-.29662-.22345-.6723-.22967-.98013-.43139a16.49092,16.49092,0,0,0-4.189-1.8528,10.25585,10.25585,0,0,0-7.16337-.509,15.06,15.06,0,0,0-2.18353.121c-.13275.04035-.22593.16449-.35877.20794-.14689.04965-.29663.0062-.44352.059a16.82288,16.82288,0,0,0-4.88951,3.04455c-.30792.25139-.72316.36-1.01409.63a19.13381,19.13381,0,0,0-4.33592,6.25358c-.04517.09932-.13845.16138-.18362.2638C450.88516,141.4806,414.88724,228.075,414.89,383.856c-.00284,28.69821,1.42933,60.01894,4.31618,93.30106C291.58917,363.45659,183.91452,326.292,182.505,325.783c-.34179-.11794-.70617-.0031-1.05361-.0962a30.43794,30.43794,0,0,0-7.06175-.35382,16.50246,16.50246,0,0,0-4.42346,1.769,16.51,16.51,0,0,0-2.04792.81623c-.11581.08069-.17232.22965-.28813.31655-.12711.0931-.28249.09931-.4096.19864a18.25654,18.25654,0,0,0-3.84723,4.47527c-.23163.34759-.6045.58658-.8135.94658a20.4175,20.4175,0,0,0-2.47161,7.377c-.01414.10864-.08758.19554-.10168.30415-.096.779-1.57617,13.17754-1.57617,35.526-.05651,75.29445,17.32385,264.0535,160.29313,500.17216-15.88608,6.806-32.23545,14.33824-48.66108,22.76124C221.91522,924.73712,173.336,956.514,135.87492,997.499c-37.36509,40.78954-63.91728,92.16513-63.87206,153.24546A220.26435,220.26435,0,0,0,74.0903,1180.83c5.34433,39.05775,17.40015,71.28468,34.22688,97.05634.78811,1.2073,1.6694,2.26864,2.47445,3.448-23.59189,34.72837-38.82545,75.37206-38.79157,121.5958a220.26446,220.26446,0,0,0,2.08744,30.0855c5.34433,39.05462,17.40015,71.28468,34.22688,97.05634,22.72753,34.88351,53.72011,57.36545,86.57131,71.415-12.61791,47.04319-18.79555,102.63033-18.8153,167.109.02543,112.35666,16.08948,193.7899,53.271,254.116,14.3777,23.28566,35.67594,49.02322,66.3578,68.90741,27.103,17.60617,61.51062,30.35552,103.83027,33.04932V2375.073c0,8.11264,4.62116,15.32514,11.57283,18.06553q156.38513,61.62189,313.14877,80.35315c14.56976,12.82057,33.09977,22.86666,54.37543,30.59439,28.39947,10.21372,61.87784,15.98319,97.81929,15.99247,47.938-.05285,91.43829-10.18569,124.459-27.71742a141.43814,141.43814,0,0,0,31.501-22.40428q142.36064-20.84644,284.478-76.82134c6.95158-2.74039,11.57275-9.95289,11.57275-18.06553V2124.39275c32.18455-1.90864,61.62647-8.96922,87.61079-22.1747,45.89565-23.19872,80.63387-64.62454,102.84716-120.77332,22.32363-56.21394,32.97262-127.14175,32.99814-212.85483-.04517-64.516-6.27368-120.14027-18.92827-167.21452a215.90438,215.90438,0,0,0,25.2047-12.52583,186.1427,186.1427,0,0,0,61.49648-58.78376c16.82664-25.77156,28.88247-57.9985,34.22687-97.05937a220.48745,220.48745,0,0,0,2.08456-30.07925c.034-46.24864-15.21671-86.9109-38.82821-121.64855.8079-1.17935,1.72871-2.18794,2.514-3.39523C1636.51531,1252.10529,1648.57114,1219.87835,1653.91538,1180.81748Zm-34.546,246.45963c-4.66927,33.83761-14.68553,59.85135-28.08319,80.42769-17.82383,27.30789-42.27167,45.1624-69.8492,57.18853a275.88723,275.88723,0,0,0-24.267-48.87728,211.77853,211.77853,0,0,0-17.112-23.07152c13.42577-7.65329,25.80071-17.82657,35.21269-31.777,10.82985-15.93963,17.273-36.4508,17.58368-60.05l.01413-1.9397a116.4911,116.4911,0,0,0-9.55593-45.94443c-1.03668-2.43315-1.99146-4.916-3.1721-7.25606-1.73147-3.417-3.98844-6.45225-5.9799-9.67984a147.18263,147.18263,0,0,0-11.635-16.371c-12.892-15.63863-28.54644-29.12029-45.86185-40.73679a353.3634,353.3634,0,0,0-33.30037-19.41564c-11.13776-5.77875-22.476-11.02371-33.8512-15.8559-12.08979-5.1332-24.00717-9.70778-35.71835-13.9038.71462-1.85588,1.33321-3.65284,2.00835-5.487,1.29943-3.52868,2.70609-7.12565,3.86983-10.56132a434.79521,434.79521,0,0,0,15.11775-57.78436,740.05911,740.05911,0,0,1,85.53468,39.89879c3.56191,1.96451,7.08433,4.02837,10.618,6.07046q8.63081,4.99509,17.08939,10.3037,7.96152,5.009,15.70807,10.29129c24.9985,17.07247,47.9633,36.32048,66.7052,57.592,1,1.13588,2.09025,2.22829,3.06486,3.37667,3.10158,3.65284,5.99679,7.38013,8.83287,11.12608,3.77655,4.98734,7.364,10.0368,10.64347,15.19794,17.75884,27.94094,28.038,58.5448,28.0775,92.879A179.28124,179.28124,0,0,1,1619.36938,1427.27711Zm-155.05614,582.72267c-17.03577,25.7281-37.75774,44.56022-62.90314,57.37473-20.92248,10.62951-45.28,16.77139-72.94784,18.63039-5.5844.37544-11.09829.838-16.97078.841h-.03672c-.14965,0-.30791-.01856-.46049-.01856-5.7256,0-11.57275-.28546-17.468-.67037-50.62991-3.29276-107.40058-19.89669-168.07227-38.06147-78.40509-23.33852-168.64008-50.49733-261.4427-50.55018-92.80262.05285-183.0545,27.21166-261.47374,50.55018-60.66884,18.168-117.44528,34.77175-168.05821,38.06469-5.89516.38169-11.74506.66734-17.4679.67037-.1525,0-.31352.01856-.4661.01856h-.031c-5.86129-.00625-11.49939-.23905-16.97078-.6393-36.09963-2.62561-64.02459-13.404-86.077-27.65851-25.363-16.43933-43.0625-37.75745-55.20022-57.39955-31.39933-50.69281-47.26567-123.89862-47.24024-232.56209-.04521-61.729,6.07028-113.49869,17.36058-155.81822,1.67506-6.27523,3.48566-12.28678,5.39234-18.13391,2.03379-6.24113,4.11559-12.38622,6.40923-18.13694a228.10258,228.10258,0,0,1,19.27855-38.47431,168.0518,168.0518,0,0,1,24.84606-30.60064,143.92359,143.92359,0,0,1,18.71077-15.21963,142.15666,142.15666,0,0,1,13.91165-8.59983,147.022,147.022,0,0,1,15.89457-7.04192c19.32657-7.405,41.22366-11.365,66.146-11.3713.18646,0,.38136.02482.57058.02482,5.75111,0,11.59257.33831,17.4679.78828,5.74543.4407,11.58973,1.16382,17.4679,1.99871,46.35615,6.59185,96.88149,24.69469,154.61263,45.97237,35.51491,13.00062,73.47886,26.80193,112.94833,38.45263.43222,1.49891.74859,3.16243,1.2146,4.61493,5.06184,15.83411,12.25073,29.01478,21.37169,39.32151,13.6998,15.57347,31.1084,23.81321,48.92378,27.9006,17.917,4.13379,36.72676,4.63974,56.15785,4.66456,9.652,0,19.45652-.14889,29.34865-.14889s19.69659.14585,29.34865.14585c17.273-.0125,34.0517-.43756,50.15251-3.41076,12.05867-2.24694,23.81787-5.97423,34.74659-12.44191,16.45951-9.593,30.33447-25.905,38.84529-48.33733,1.09029-2.84287,1.901-6.06421,2.84728-9.09954,43.44386-12.234,85.11944-27.45989,123.92231-41.66781,57.72838-21.27465,108.25088-39.37739,154.61271-45.96934,5.87818-.83791,11.72256-1.558,17.468-2.00173,5.87818-.4531,11.71687-.78516,17.468-.78829.19206,0,.3955-.02794.58756-.02794,24.8742.00625,46.7375,3.94768,66.03868,11.32782a146.54914,146.54914,0,0,1,15.9934,7.0853,147.45679,147.45679,0,0,1,32.68729,23.90944c17.84073,17.24939,32.47833,40.00116,44.11607,69.05326.45481,1.139.966,2.1725,1.41235,3.33007,1.80492,4.69866,3.46312,9.67671,5.09856,14.69511,1.91508,5.87195,3.69759,11.992,5.3782,18.30136,11.24793,42.26687,17.23059,94.14206,17.21093,155.69112C1517.0503,1878.30524,1498.35081,1958.72355,1464.31324,2009.99978Zm-170.78972,351.27164q-118.06965,45.30058-235.90742,65.56485a67.89412,67.89412,0,0,0,1.531-14.01868c.02827-17.66206-6.87813-33.87805-17.28714-46.89108-15.72789-19.63282-39.21811-34.06425-67.58939-44.371-28.39946-10.21373-61.87784-15.98319-97.82213-15.99248-47.93512.05285-91.43829,10.18569-124.459,27.71742-16.50191,8.82336-30.49265,19.518-40.95243,32.64585-10.40616,13.013-17.31541,29.229-17.28713,46.89108a68.18051,68.18051,0,0,0,2.8247,18.53416q-130.94592-19.594-262.10647-70.08052V2124.52231c56.54481-3.34257,115.75329-21.11316,177.213-39.38364,78.34863-23.42224,165.76736-49.26532,252.3189-49.21247,86.55153-.05285,173.95337,25.79023,252.28787,49.21247,61.45975,18.26423,120.66254,36.04107,177.22718,39.38061v236.75214ZM963.39268,2467.601c-24.34043,8.77979-54.44318,14.09615-86.94134,14.08687-42.184.04963-80.292-9.07472-106.99387-22.79524-.71462-.36616-1.51407-.69822-2.21455-1.07385-12.14056-6.44609-21.49591-13.84479-27.83458-21.08835-.65532-.748-1.44623-1.50213-2.03379-2.24694-6.316-8.05676-8.652-15.00861-8.68313-21.66249.02827-6.65711,2.36713-13.609,8.68313-21.66572,9.35543-11.9765,27.76674-24.43717,52.13545-33.12073,24.34043-8.77979,54.44318-14.09615,86.94134-14.08687,43.31671-.05285,82.4275,9.52782,109.20842,23.86909,13.39757,7.11324,23.606,15.39655,29.86837,23.33851,6.316,8.05676,8.652,15.00861,8.68313,21.66572-.02827,6.32182-2.25412,12.94483-7.88093,20.49564-.29662.39722-.48584.7666-.8022,1.16685-5.76517,7.38014-15.30137,14.84419-27.21875,21.5943A156.83212,156.83212,0,0,1,963.39268,2467.601Zm-826.6675-959.8962c-13.39473-20.57946-23.41392-46.59-28.08315-80.43384a178.26842,178.26842,0,0,1-1.69483-24.35023c.03388-34.30008,10.45137-64.907,28.20176-92.83238q4.91919-7.737,10.56719-15.20722,5.52931-7.2902,11.70553-14.34136c1.07056-1.2197,2.03379-2.47662,3.13258-3.68391,18.16278-19.98666,40.12763-38.02122,63.8099-54.16258,5.14942-3.51011,10.45422-6.806,15.74768-10.1299,5.60138-3.5194,11.20556-6.97364,16.92276-10.28817a719.54058,719.54058,0,0,1,95.359-45.80483c1.02538-.4066,1.97163-.73553,2.98853-1.13588a432.58208,432.58208,0,0,0,19.06951,69.11228c.58187,1.57657,1.175,3.15314,1.78517,4.74525-12.279,4.36669-24.94208,9.32921-37.66171,14.7293-11.2903,4.795-22.53827,9.99949-33.59695,15.72861-10.5474,5.46222-20.94231,11.2565-30.79483,17.66518-18.51871,12.09754-35.28613,26.15022-48.92094,42.71059-2.07895,2.52625-4.2907,4.947-6.20868,7.60053-1.97447,2.72183-3.60147,5.72287-5.381,8.60912a127.00416,127.00416,0,0,0-8.813,17.08488,115.88353,115.88353,0,0,0-9.71413,45.85758l.01694,1.95835c.30788,23.57738,6.75668,44.08855,17.58376,60.02827,9.48814,13.97824,21.8321,23.96542,35.28614,31.631-16.88323,19.98041-30.82591,44.14444-41.52025,72.19714-.01694.04659-.03107.09622-.048.1396a174.63516,174.63516,0,0,1-20.00451-10.05233A149.72164,149.72164,0,0,1,136.72518,1507.7048Zm-29.778-356.96657c.048-48.43043,20.4847-89.61095,53.6071-126.06487,35.71547-39.303,85.97251-71.09535,135.5516-95.44245A144.39253,144.39253,0,0,0,281.2028,993.3a148.34736,148.34736,0,0,0,2.58458,26.32714c-3.158,1.90248-6.53354,3.51315-9.6068,5.51185-21.34626,13.94414-40.63611,30.26555-55.12962,50.31112-14.46808,19.93391-23.97041,44.29029-23.91106,71.55158l.01694,1.95836a115.15932,115.15932,0,0,0,8.57013,42.661c-24.59749,16.97312-47.8306,36.16524-67.84641,58.06376-.51691.56486-.97732,1.17622-1.48859,1.74421-12.1603-19.94006-21.36885-44.59441-25.74994-76.33718A178.80874,178.80874,0,0,1,106.9472,1150.73823ZM291.66266,621.61636,232.06152,604.1746c-27.20185-86.81472-35.72676-155.89588-37.9498-200.67033L402.51506,727.63566a140.8587,140.8587,0,0,0-22.7868,77.34894,143.77059,143.77059,0,0,0,7.63517,46.05619c-10.87226,3.659-22.61737,7.8643-34.87655,12.532-47.99727-78.14039-81.8117-150.67887-105.34144-215.26l35.52621,10.3968c9.32151,2.728,18.89439-3.36421,21.37729-13.60891C306.529,634.86219,300.98417,624.34434,291.66266,621.61636ZM452.84274,460.8045l31.26089,21.47326c8.18031,5.62049,18.95938,2.88625,24.07208-6.0984,5.11554-8.98777,2.62979-20.83083-5.55052-26.44819l-52.2626-35.90147c-.30791-10.22921-.53385-20.31872-.53385-29.98,0-74.62718,8.61529-132.1726,17.12335-170.83625.2599-1.18866.517-2.19419.77962-3.3456L599.54624,651.71739A130.25884,130.25884,0,0,0,586.29841,667.055a135.10582,135.10582,0,0,0-10.34686,16.6628,139.21842,139.21842,0,0,0-6.01946,12.8765,119.42318,119.42318,0,0,0-13.31-8.994A110.4353,110.4353,0,0,0,488.45929,672.992c-8.621-33.74763-15.49343-65.97456-20.92818-96.718q-2.90662-16.42381-5.27087-32.26416c-1.5395-10.30057-2.805-20.266-4.02516-30.19413C455.98665,495.56077,454.11949,477.77762,452.84274,460.8045Zm236.46954,15.72861c-7.95713,43.27233-14.46528,90.23789-18.917,140.99591a112.495,112.495,0,0,0-40.67,12.1037L502.95854,204.50978C550.018,251.96257,625.56453,341.26009,689.31228,476.53311Zm36.6109-5.38773c2.41791-12.46682,4.96865-24.53643,7.6069-36.336l32.984,43.42443c6.18041,8.14053,17.1968,9.22986,24.60594,2.43935,7.40638-6.79358,8.40065-18.89421,2.22024-27.03166l-48.75991-64.19005a1090.69831,1090.69831,0,0,1,41.57671-127.05182c19.97063-49.91077,39.82825-87.45092,55.4234-113.50184V613.451c-20.30674,4.5932-38.50625,15.38414-53.0817,30.37414a119.31474,119.31474,0,0,0-14.74492,18.5218c-.17232.2669-.36438.51519-.53386.78521a127.38589,127.38589,0,0,0-21.44229-21.38944,115.87848,115.87848,0,0,0-46.45777-22.18085c2.59591-29.2662,5.81887-57.353,9.69154-83.99051q2.47863-17.04764,5.25958-33.397Q722.96574,486.31382,725.92318,471.14538Zm269.54958,36.50048q2.94477,15.8652,5.59293,32.289l-22.51284,9.75124L956.088,559.41563l-14.04435,6.08292c-8.97407,3.8856-13.38344,15.03342-9.844,24.8933A18.28845,18.28845,0,0,0,941.84031,601.04a15.91719,15.91719,0,0,0,13.01621.16759l6.36126-2.75592,22.06933-9.55884,23.47892-10.16713c1.90664,14.34444,3.67492,28.89374,5.18614,43.803a119.36752,119.36752,0,0,0-48.07072,30.29964,129.4916,129.4916,0,0,0-9.09268,10.29745,121.01671,121.01671,0,0,0-8.7396-11.97645,115.81825,115.81825,0,0,0-14.69975-14.94032A104.7808,104.7808,0,0,0,876.522,611.76888V156.14456C908.57667,216.5142,957.95242,326.49044,989.45062,477.07Q992.58586,492.09256,995.47276,507.64586ZM1151.043,277.35245a843.55293,843.55293,0,0,1,64.07257-72.75577l-125.538,421.00771a111.7363,111.7363,0,0,0-42.8507-8.68365c-.06215,0-.1243.00932-.18645.00932-4.88107-47.74139-11.84394-92.68036-20.18813-134.69264C1066.40656,396.02478,1111.27691,327.89635,1151.043,277.35245Zm340.65,109.8521-197.51988,307.2017a115.93063,115.93063,0,0,0-29.77225-15.72553,1319.59523,1319.59523,0,0,0,28.29784-145.59531,933.4304,933.4304,0,0,1,118.28145-97.04389A777.9277,777.9277,0,0,1,1491.693,387.20455Zm-5.65509,216.97005-59.601,17.44176c-9.32146,2.728-14.86638,13.24583-12.38339,23.4874,2.483,10.2447,12.05306,16.33381,21.37729,13.60891l35.52629-10.39681c-23.21341,63.71522-56.43464,135.17682-103.41213,212.12858-.291-.06828-.55653-.13032-.85875-.19548-9.06442-3.3456-17.80694-6.42743-26.04088-9.20192a143.79,143.79,0,0,0,7.63517-46.05932c-.00569-32.25487-10.49659-61.80033-27.91078-84.78812l203.61838-316.68913C1521.76474,448.27867,1513.23978,517.35988,1486.03793,604.1746ZM424.55335,761.914a95.168,95.168,0,0,1,15.24206-23.58676,89.75643,89.75643,0,0,1,7.81593-7.08534,84.50439,84.50439,0,0,1,17.10637-11.72509,78.96806,78.96806,0,0,1,34.13084-8.6247c.55368-.01241,1.06211-.18,1.61855-.18,21.02989.00933,39.92144,8.58435,54.85,22.33912,1.57053,1.44932,3.26821,2.73111,4.74263,4.29835-.4011,4.42252-.61859,8.904-.61859,13.44439,0,.31038.03956.60834.04241.91861a147.51417,147.51417,0,0,0,1.48579,19.2356,142.249,142.249,0,0,0,12.61227,42.35987,136.19711,136.19711,0,0,0,9.36388,16.29347c-.63273,2.56347-1.31632,5.0991-2.13827,7.56947a97.7236,97.7236,0,0,1-4.83021,11.70647c-6.38384-.571-12.69984-1.06446-18.88878-1.43384-12.25358-.72625-24.089-1.06446-35.47259-1.11106-.91806-.00313-1.8869-.04348-2.79927-.04348-3.158,0-6.21152.062-9.29328.10864-10.43159.149-20.4282.52764-29.93328,1.09866-3.12977.1862-6.18894.39419-9.20854.61761-1.65242.12417-3.31054.24209-4.92908.37554h-.00845c-.452.03722-.92935.06828-1.37847.1055-10.66322.8938-20.51862,1.98933-29.583,3.178-2.57608.33831-5.141.67349-7.5787,1.02411a96.25633,96.25633,0,0,1-5.85275-12.383,99.95121,99.95121,0,0,1-4.03645-14.29173,103.01409,103.01409,0,0,1-2.3417-21.135,101.82828,101.82828,0,0,1,6.94313-37.11189C422.42638,765.781,423.60426,763.925,424.55335,761.914Zm183.57146-62.30316c1.209-2.07935,2.57333-4.00352,3.92069-5.97115a95.50305,95.50305,0,0,1,7.78205-10.36574,88.08533,88.08533,0,0,1,20.97059-16.50141,80.38862,80.38862,0,0,1,26.63127-9.93437A79.4307,79.4307,0,0,1,681.2817,655.305c1.2796,0,2.46877.3538,3.73423.41275a79.57249,79.57249,0,0,1,17.34368,2.73419,84.95652,84.95652,0,0,1,40.37625,24.81882,96.08254,96.08254,0,0,1,13.47662,19.9215c.096.18.17792.36932.27119.54932.031.059.05647.121.08759.18a132.08509,132.08509,0,0,0-2.771,19.19525c-.21749,3.10352-.43222,6.21016-.43222,9.37572,0,3.32078.21465,6.58564.452,9.83814a131.67454,131.67454,0,0,0,2.83884,19.10528,128.58857,128.58857,0,0,0,6.381,20.59187,98.99332,98.99332,0,0,1-4.07318,10.77849,96.56043,96.56043,0,0,1-16.23072,25.49539,86.47376,86.47376,0,0,1-30.679,21.5136c-.8841.36928-1.82759.5928-2.72867.931a79.475,79.475,0,0,1-14.37486,4.01284c-1.90387.33206-3.867.45-5.81326.64243a77.41439,77.41439,0,0,1-7.85835.869c-1.57053,0-3.02805-.41588-4.576-.50586a79.31329,79.31329,0,0,1-19.30118-3.597c-.4011-.12719-.79091-.27315-1.18641-.40347a82.16679,82.16679,0,0,1-19.80676-9.57745,86.65332,86.65332,0,0,1-7.70861-5.84078,90.69277,90.69277,0,0,1-8.17747-7.41121c-.02258-.02481-.05086-.04347-.07344-.06828-.19206-.2079-.43222-.35385-.62144-.56486a95.32594,95.32594,0,0,1-10.005-13.32653,98.3731,98.3731,0,0,1-6.88658-13.50345c-.06216-.14585-.14689-.27314-.20905-.419a101.48372,101.48372,0,0,1-7.16622-27.2861c-.161-1.288-.24292-2.59454-.35593-3.89806-.19206-2.20347-.55084-4.35116-.60445-6.5981-.01975-.84729-.22879-1.63245-.22879-2.4859,0-2.17558.452-4.20526.58187-6.34361a103.83466,103.83466,0,0,1,2.62695-18.03456c.161-.66724.38412-1.30659.55644-1.97071.37852-1.44005.76833-2.86456,1.20615-4.27354a98.80313,98.80313,0,0,1,8.44866-19.89356C607.91577,700.064,608.00051,699.825,608.12481,699.61085Zm317.43384-15.229a84.961,84.961,0,0,1,8.30177,16.10106c.12991.33826.17517.72312.29938,1.06451a89.27959,89.27959,0,0,1,4.49126,19.48389,90.4786,90.4786,0,0,1,1.05082,11.47059c0,2.66283-.48869,5.16734-.71187,7.765a92.05943,92.05943,0,0,1-1.25416,10.53025c-.03388.16452-.10172.31653-.1356.48417a86.86942,86.86942,0,0,1-10.23384,26.52888,83.43135,83.43135,0,0,1-9.83558,13.50648A73.2255,73.2255,0,0,1,876.519,814.29212a60.78427,60.78427,0,0,1-34.93865-2.74039,74.51667,74.51667,0,0,1-31.10555-20.23187,83.13287,83.13287,0,0,1-9.83558-13.50648,86.91249,86.91249,0,0,1-10.36944-27.00992,92.05987,92.05987,0,0,1-1.25417-10.53026c-.22033-2.59453-.709-5.09909-.71186-7.76192a90.42653,90.42653,0,0,1,1.05081-11.47059,88.95852,88.95852,0,0,1,4.49126-19.48389c.12431-.34139.17232-.72312.29939-1.06139a84.43369,84.43369,0,0,1,16.32959-26.79265,74.55512,74.55512,0,0,1,31.10555-20.235,60.783,60.783,0,0,1,34.93865-2.74039,73.22543,73.22543,0,0,1,41.01182,22.97534A81.79911,81.79911,0,0,1,925.55865,684.3819Zm199.32194,25.34332c.45481,1.0397,1.07616,1.96764,1.49718,3.029a101.50994,101.50994,0,0,1,3.48846,11.69715c.17516.661.39549,1.30039.55652,1.96764.57911,2.39592,1.226,4.73284,1.63544,7.20018a107.02232,107.02232,0,0,1,.99427,10.83437c.13,2.13831.57911,4.168.58187,6.34361,0,3.11593-.56773,6.0519-.83324,9.08713-.11293,1.30352-.19775,2.6132-.35585,3.89806a101.22347,101.22347,0,0,1-7.37535,27.702,98.07729,98.07729,0,0,1-6.88657,13.50345c-1.031,1.6387-2.33317,3.03835-3.45467,4.60252a95.249,95.249,0,0,1-6.55039,8.724c-.21465.2328-.48015.39722-.6948.63a89.93,89.93,0,0,1-7.41759,6.72218c-.51135.44069-.98012.93414-1.49993,1.36243a85.12856,85.12856,0,0,1-16.00754,10.56132,80.66658,80.66658,0,0,1-15.41437,5.76946c-2.10723.55861-4.237.98377-6.40359,1.37171a79.42626,79.42626,0,0,1-14.01332,1.55176c-1.81914,0-3.51673-.46551-5.30475-.58655a80.59563,80.59563,0,0,1-12.78459-1.54247c-1.64113-.38169-3.13822-1.13588-4.74262-1.61693a80.94538,80.94538,0,0,1-16.27874-6.90222,87.81831,87.81831,0,0,1-22.34052-17.31758A97.39768,97.39768,0,0,1,964.972,782.04359c1.13839-2.79627,2.1411-5.664,3.08735-8.56877a130.6748,130.6748,0,0,0,5.82456-27.19925c.1356-1.3004.20905-2.61628.30508-3.92908.24007-3.25557.452-6.5174.452-9.83814,0-3.1656-.21465-6.26912-.43222-9.37572a132.45718,132.45718,0,0,0-2.771-19.19837c.031-.059.05647-.121.08759-.18a96.0963,96.0963,0,0,1,13.74781-20.47391,86.55065,86.55065,0,0,1,30.131-21.32428,90.69668,90.69668,0,0,1,31.323-6.64152c1.11012,0,2.1355.31345,3.23425.35692a79.78806,79.78806,0,0,1,28.71307,6.49567,86.74565,86.74565,0,0,1,29.5039,21.11321c.25706.28243.43791.63623.692.92174a95.54521,95.54521,0,0,1,6.01662,8.01328A96.6075,96.6075,0,0,1,1124.88059,709.72522ZM1306.40137,767.879a101.93813,101.93813,0,0,1,6.9402,37.10876,103.09468,103.09468,0,0,1-2.35006,21.16289,100.28807,100.28807,0,0,1-4.02516,14.25442,96.26686,96.26686,0,0,1-4.42066,9.48747c-2.918-.31037-5.97145-.58655-9.022-.86585-9.63507-.88452-19.86046-1.62-30.727-2.10109-7.556-.33519-15.44826-.51514-23.53254-.58655-1.8275-.01553-3.60156-.062-5.45458-.062-5.02235,0-10.21125.10864-15.41722.22968-7.37811.17379-14.889.45622-22.60034.91245-13.70833.807-27.91371,2.098-42.51735,3.96634-.00845-.01865-.01983-.04034-.02827-.062a97.75354,97.75354,0,0,1-7.03071-17.66215c-.3955-1.35-.8079-2.68764-1.14685-4.06248a137.10718,137.10718,0,0,0,12.79872-24.1267,142.95,142.95,0,0,0,9.17458-34.52351,147.48442,147.48442,0,0,0,1.48855-19.2356c.00276-.31037.04241-.60833.04241-.91861,0-4.54044-.21757-9.02192-.61859-13.44444,1.47442-1.56729,3.16934-2.849,4.73978-4.29527a81.01215,81.01215,0,0,1,46.35046-21.39877,41.99427,41.99427,0,0,1,18.36605.15211,78.36113,78.36113,0,0,1,16.9849,4.078,81.793,81.793,0,0,1,19.54686,9.99021,88.2924,88.2924,0,0,1,14.27038,12.45129,93.96916,93.96916,0,0,1,10.93433,14.87521A96.97713,96.97713,0,0,1,1306.40137,767.879ZM880.79855,963.34782c-1.49993,1.17007-2.997,2.36486-4.49125,3.55662-.04242-.0341-.08474-.06516-.12431-.09935q-1.65251-1.31286-3.30493-2.61623-12.85092-10.06465-25.84881-19.09287c-1.81914-1.26-3.6213-2.61935-5.4432-3.84833a538.22684,538.22684,0,0,0-101.35577-53.69082q-11.69843-4.67858-23.32634-8.74256a114.60774,114.60774,0,0,0,12.92863-5.26664c23.623-11.29373,43.26586-30.60377,56.27646-54.76466,14.937,16.28106,34.07154,27.92237,55.477,32.76385a98.92291,98.92291,0,0,0,34.93865,1.67593c25.3884-3.147,48.1752-15.69139,65.38328-34.44281,11.64619,21.62527,28.61136,39.33089,48.99438,50.91007a115.4117,115.4117,0,0,0,16.38891,7.65945,112.33009,112.33009,0,0,0,17.62332,5.04946c.26266.05276.531.08382.7966.13345-.36438.13345-.73445.27931-1.09883.41588q-14.51183,5.40483-29.10848,11.81511A538.85325,538.85325,0,0,0,880.79855,963.34782Zm-533.995-42.63927a86.16948,86.16948,0,0,1,14.27882-10.78787,82.43253,82.43253,0,0,1,16.96233-7.9109c1.2683-.419,2.42359-1.05206,3.72008-1.41206,1.42649-.39722,7.63517-2.06387,17.773-4.17736,3.43484-.71688,7.40354-1.4866,11.71687-2.27176,1.84457-.33831,3.754-.67037,5.75112-1.01171,4.88107-.83489,10.13781-1.6728,15.87763-2.48278.51127-.07141,1.07055-.1397,1.58751-.211,7.7312-1.07071,16.20529-2.06689,25.30082-2.936,10.63779-1.01484,22.12019-1.82794,34.38506-2.3121,3.11563-.12417,6.23979-.24209,9.45146-.31966,3.1552-.07757,6.40358-.09935,9.64352-.13032,1.86146-.01553,3.66647-.062,5.55621-.062,4.18058,0,8.51081.10551,12.81846.19246q6.52082.135,13.22241.42828c.61859.02482,1.24572.059,1.86715.087,8.14644.36625,16.4595.89692,24.96187,1.6387,2.51678.2204,5.01667.42517,7.56172.67966,4.75116.47488,9.56439,1.03349,14.406,1.6387,1.79371.22343,3.56759.42516,5.37544.66725q9.1435,1.229,18.4763,2.78074a540.13878,540.13878,0,0,1,102.97431,27.90059,504.29952,504.29952,0,0,1,114.79291,61.71035c10.22824,7.33979,20.40846,15.00548,30.45024,23.41912a16.239,16.239,0,0,0,21.17678,0c70.58072-59.12823,146.5255-90.82752,217.01311-106.80447q9.26648-2.09948,18.38312-3.8453c4.91788-.94039,9.82714-1.87453,14.67708-2.6721,1.58183-.26074,3.13538-.46238,4.70875-.70759,5.71146-.88764,11.38913-1.72556,16.99336-2.427,3.68621-.46239,7.32725-.8597,10.95708-1.24452,5.33579-.568,10.59262-1.0459,15.80134-1.46178,3.57329-.28243,7.19174-.61762,10.70279-.83489q9.30448-.57252,18.28984-.841c.0819-.00312.17224-.00928.2543-.0124,6.51091-.20174,12.90044-.30412,19.13447-.30412.11585,0,.226.00312.34463.00312,13.02182.00313,25.33194.4407,36.92727,1.13588q11.78739.70764,22.44224,1.7535c1.42649.1397,2.89246.26689,4.28515.41275q6.85986.70764,13.18284,1.50516c2.98.37553,5.87818.76347,8.66891,1.15757,3.06193.43141,5.9799.87211,8.80184,1.31592,6.28212.9869,11.97669,1.9863,16.98491,2.94526,4.59289.87826,8.58426,1.71,12.01065,2.46421,2.91228.63931,5.31889,1.201,7.33,1.69146,3.18054.77588,5.33027,1.3469,6.06455,1.55488a81.78713,81.78713,0,0,1,11.4655,4.35429,83.5471,83.5471,0,0,1,14.0416,7.883c24.928,17.49763,40.39883,47.97723,40.40452,80.71627a105.47475,105.47475,0,0,1-2.14387,20.41808c-.21464,1.08-.305,2.15384-.55359,3.23384a102.90822,102.90822,0,0,1-4.72013,15.00245,97.52735,97.52735,0,0,1-8.66616,16.63481c-16.21942,25.23777-42.77165,40.77089-71.22189,40.78027a80.1862,80.1862,0,0,1-20.99593-2.82422c-.031-.00928-.065-.00928-.096-.01865l-.08758-.02482c-1.81354-.47792-7.92326-2.00486-17.28438-3.7522-4.89512-.91245-10.83277-1.85588-17.468-2.78074q-8.52917-1.18711-18.75034-2.16312c-12.32409-1.1607-26.16242-1.99871-41.53723-2.00174a410.76962,410.76962,0,0,0-110.82989,14.97451c-10.38366,2.92347-20.86042,6.23185-31.42752,10.26951-43.006,16.41451-86.92721,43.03962-126.54366,84.04322-2.38972-5.54907-4.72857-11.20365-7.24536-16.47039-2.82754-5.91845-5.833-11.39611-8.82433-16.91108a281.398,281.398,0,0,0-17.69677-29.052,249.56729,249.56729,0,0,1,37.95265-39.74364c52.21173-43.99545,122.91951-69.45987,189.59368-83.27359a781.887,781.887,0,0,1,96.66676-13.59655c13.988-1.11722,26.96738-1.82794,38.63615-2.24069,6.2454-.2204,12.04169-.36,17.468-.43757.15258-.00313.2824,0,.435-.00313,3.97723-.05588,7.91757-.10551,11.40051-.10238,2.10163,0,3.72293.03409,5.6325.04963,6.91761.05588,12.93147.17692,17.04146.31652,2.62126.09,4.62961.18005,5.963.24824l1.92077.10551a15.89005,15.89005,0,0,0,9.83282-3.00113,19.10673,19.10673,0,0,0,8.62375-15.03967c.562-10.583-6.79055-19.66076-16.42287-20.27838h0c-.1243-.00928-2.63264-.16139-6.97692-.32893-4.60151-.17692-11.34965-.36625-19.98184-.42829-1.81905-.01241-3.65517-.02481-5.6325-.02481-1.418,0-3.01107.01866-4.50824.02794-2.36713.01553-4.77374.03722-7.32725.07141-5.42061.07757-11.26775.21727-17.468.42829-10.59537.36-22.25587.95592-34.76926,1.86525q-14.07555,1.01948-29.46157,2.638-10.62236,1.12661-21.74728,2.59766-8.58839,1.14053-17.41713,2.50144c-9.55594,1.48034-19.30687,3.19046-29.19038,5.11463a642.83455,642.83455,0,0,0-80.0576,20.74085c-47.37015,15.83108-94.08222,38.48672-133.47826,71.55783a284.21625,284.21625,0,0,0-41.33947,42.65168c-2.4942-2.1476-5.02236-4.21146-7.63517-6.07047-11.76764-8.38256-25.17651-13.6958-39.37913-13.67724a61.565,61.565,0,0,0-24.3263,5.35359,289.47877,289.47877,0,0,0-29.22434-28.25444c-59.13219-49.56005-134.55165-75.89961-204.31034-90.49546-12.49364-2.60079-24.702-4.69875-36.71822-6.58257-.37283-.059-.7429-.11479-1.113-.17379-4.73986-.73554-9.52206-1.52382-14.15736-2.1601-4.58169-.63-8.991-1.12972-13.454-1.66967-4.528-.54621-9.03622-1.09866-13.4286-1.558-7.33854-.76963-14.49356-1.44313-21.39988-1.99871-5.77085-.46238-11.38637-.86282-16.80974-1.19791-3.98-.24521-7.69163-.419-11.46266-.60208q-11.1688-.54-21.00162-.79142c-6.16912-.15513-11.91178-.25136-17.17137-.2793-1.418-.00625-3.05348-.04035-4.39807-.04035-4.8528,0-9.2057.0466-13.06707.11479-7.56733.13345-13.06138.34759-16.27029.4997-.43222.02169-.85306.04035-1.20046.059-1.24.062-1.99137.10863-2.05637.11479-6.42617.41275-11.59542,4.76078-14.31839,10.63888a18.77269,18.77269,0,0,0,.35033,17.99724c3.20037,6.07984,9.18871,10.12366,16.00753,9.68609h.017l1.901-.10551c2.56764-.13032,7.8724-.33831,15.03586-.47792.18077-.00312.3474-.00625.531-.00928,3.86137-.07141,8.09273-.13032,13.06707-.13032,1.38132,0,2.93771.01553,4.39807.02481,4.30205.02169,8.878.07757,13.83256.18621,8.83562.19861,18.66276.57414,29.26106,1.17007,2.02534.11479,4.06757.23583,6.14937.36928,49.92934,3.17493,115.49339,11.62891,178.148,32.58381,44.59915,14.86891,87.57692,36.02564,122.41109,65.32285a263.15762,263.15762,0,0,1,20.28131,19.14875c-11.25362,11.40539-21.28127,25.874-30.65928,42.15813-2.32757,4.04079-4.70315,7.95428-6.946,12.234-.71746,1.38108-1.38976,2.877-2.09878,4.27974-.2655.52452-.51972,1.07072-.78246,1.59836a345.20792,345.20792,0,0,0-77.51255-50.48179c-8.32721-3.94144-16.65441-7.62847-24.95058-10.794-51.43772-19.64219-101.50265-25.22849-142.263-25.23777a422.40139,422.40139,0,0,0-84.86807,8.34222c-5.40648,1.13275-8.98252,2.02968-10.2,2.35245-2.42359.63931-4.84719,1.018-7.26794,1.4276a79.65513,79.65513,0,0,1-10.96829,1.11106c-.76548.02169-1.54225.149-2.305.149-1.418,0-2.788-.31037-4.19463-.38794-30.4361-1.63558-58.15487-20.70666-72.67665-50.25211a99.57286,99.57286,0,0,1-6.7934-17.93833c-.3983-1.46794-1-2.81181-1.3361-4.317a105.90246,105.90246,0,0,1-2.12417-14.7293c-.23163-2.85528-.4689-5.70733-.4689-8.53155C316.15563,965.0299,327.70583,938.65616,346.80357,920.70855Zm1151.12071,227.55306a77.33179,77.33179,0,0,1-3.94051,23.81331c-35.3313-21.07292-71.99582-37.88777-105.35842-51.23286,25.1285-9.382,47.10748-27.612,62.17438-52.18878,12.43425,9.55263,23.02411,19.83768,30.77513,30.62554,10.70278,14.97452,16.29856,30.15995,16.35787,47.71346Zm.00845,250.91933-.00845,1.2662c-.33619,16.70935-4.35566,28.31032-10.72261,37.866-7.80188,11.69407-20.61181,20.5142-36.368,26.78953a173.63314,173.63314,0,0,0-24.637-16.10727c-28.38542-14.96826-60.988-22.19951-97.14691-22.19013-.19775,0-.39256.02481-.58755.02794v-63.07278a475.87922,475.87922,0,0,0,83.68735,7.68435c24.08613-.03722,50.40958-2.14144,76.75836-8.066A75.88311,75.88311,0,0,1,1497.93273,1399.18094Zm-516.03547,145.105c-.02543.07766-.0537.13354-.07629.211-3.16365,9.75438-6.97416,16.8087-11.22534,22.33609-.72876.94655-1.44063,1.949-2.19482,2.80555-7.76507,8.74266-17.53574,13.8696-31.07736,17.07238-13.44274,3.15637-30.17059,3.85761-48.92663,3.8328-9.32146,0-19.14584-.14889-29.34864-.14889s-20.0271.14889-29.34865.14889c-16.67139.01553-31.744-.51827-44.32512-2.877-9.45422-1.75349-17.42273-4.4846-23.99019-8.37953a49.68041,49.68041,0,0,1-15.75332-15.25695,72.53817,72.53817,0,0,1-7.50526-14.27307c-.90108-2.31836-1.64967-5.17979-2.45463-7.855a147.35732,147.35732,0,0,1-4.65789-20.8277,294.27988,294.27988,0,0,1-2.87271-43.71928c-.02827-22.82015,1.9406-48.75623,5.36406-75.83757.85307-6.76252,1.81345-13.5562,2.86427-20.449,1.03952-6.82465,2.03939-13.62449,3.26536-20.52671,7.32441-41.30469,17.86625-83.50327,30.83436-120.99372,1.64113-4.77007,3.42915-9.21432,5.14657-13.8231,2.449-6.57016,4.92348-12.99749,7.51087-19.17659l.017-.03722c2.61005-6.24113,5.23984-12.43889,7.96567-18.21148.07344-.15514.1412-.33518.21464-.49032,2.92073-6.16044,5.93749-11.76539,8.96278-17.30215a235.32346,235.32346,0,0,1,14.73078-24.07708,133.27082,133.27082,0,0,1,12.97665-15.62934,78.83027,78.83027,0,0,1,10.62649-9.30128c7.54759-5.32252,14.14323-7.523,20.4282-7.54152.35593,0,.72316.08382,1.079.09935,5.96576.25137,12.2253,2.42074,19.3492,7.44227a73.17612,73.17612,0,0,1,5.66353,4.87567c7.9798,7.017,16.31261,17.01034,24.51275,29.96133,3.78508,5.98049,7.53345,12.40167,11.17164,19.43734.59041,1.12972,1.15245,2.38664,1.74,3.54108,2.92357,5.76634,5.77654,11.84921,8.57581,18.168q3.67353,8.29577,7.18605,17.14076c.28809.72312.57342,1.4524.85867,2.18178q3.22019,8.22586,6.29057,16.83655,3.31342,9.30585,6.43186,18.98735c7.16062,22.23976,13.567,45.74582,18.89723,69.59635,2.58178,11.514,4.79349,23.08705,6.88942,34.61973,1.27391,7.02014,2.34171,13.89139,3.4264,20.84324,1.079,6.91463,2.192,13.84166,3.07606,20.63525,3.68337,28.273,5.77086,55.32952,5.75957,79.03419a282.32574,282.32574,0,0,1-3.401,46.29515A147.12553,147.12553,0,0,1,981.89726,1544.28593Zm-713.51293-82.89181c-11.83549-5.94629-21.16829-13.57789-27.57187-23.0809-6.36686-9.55879-10.38922-21.15663-10.72257-37.86911l-.01129-1.2662a75.7574,75.7574,0,0,1,8.36957-34.63527c.21184-.42516.55648-.83176.77677-1.25692a352.88537,352.88537,0,0,0,76.63971,8.153,475.5205,475.5205,0,0,0,83.67037-7.68123v63.06966c-.19206,0-.38136-.02794-.57058-.02794-36.16178-.00928-68.77011,7.22187-97.15548,22.19013a172.34244,172.34244,0,0,0-24.50142,15.90553C274.3416,1463.71863,271.12145,1462.78762,268.38433,1461.39412Zm1.66657-309.21589c-12.036,6.18838-24.10032,12.81442-36.01205,19.91837a77.34811,77.34811,0,0,1-3.94611-23.83186l-.0113-1.26621a75.75736,75.75736,0,0,1,8.36957-34.63526c9.48814-19.05252,27.76114-37.05914,51.0564-52.56119,1.96884-1.319,4.25683-2.43315,6.29062-3.718,12.536,25.992,32.15917,46.20517,55.63808,58.42063-.16947.58968-.24856,1.19176-.36438,1.80312A819.58771,819.58771,0,0,0,270.0509,1152.17823Zm118.53281-10.15159c-.50282-2.89563-.87-5.35975-1.23442-7.78049,4.06188-1.229,8.19729-2.55106,12.18858-3.69006,4.07886-1.16382,8.01368-2.15072,12.01625-3.22144,1.81914-.1272,3.6269-.13345,5.45165-.35384a112.4454,112.4454,0,0,0,15.46239-2.90178c.26835-.07142,1.09314-.27931,2.00551-.50273a316.362,316.362,0,0,1,33.32295-5.85017c.2655-.03409.49429-.06828.76264-.10238,9.16052-1.14829,19.70788-2.13831,31.48691-2.69076,6.15782-.28859,12.55865-.47792,19.29549-.47489.89823,0,1.86147.04348,2.76823.04963,37.33967.24209,82.44164,5.63289,128.01808,23.05912a311.74,311.74,0,0,1,98.18651,60.292,686.7177,686.7177,0,0,0-22.71344,67.185,334.155,334.155,0,0,0-46.57923-39.80568,341.37405,341.37405,0,0,0-144.53128-58.53855q-8.54611-1.34538-17.42842-2.2997c-5.71439-.61136-11.59257-.98377-17.51876-1.32833-7.00244-.40347-13.92014-.92486-21.21627-.92174l-4.10145.02482c-9.64912.13032-17.37187,8.82951-17.25325,19.428a18.70549,18.70549,0,0,0,12.75631,17.93208,15.63058,15.63058,0,0,0,4.92623,1.02411l3.67208-.02168c7.33854.00312,14.30425.48729,21.29824.931,7.46.47489,14.67717,1.21042,21.74736,2.13831.45481.059.91237.11792,1.36433.18005a308.47326,308.47326,0,0,1,137.35661,53.71876,303.10321,303.10321,0,0,1,29.29779,23.63951c6.07877,5.54594,11.4231,10.794,15.63756,15.27863,4.237,4.51254,7.33294,8.1436,9.67455,10.99888-.435,1.88382-.91237,3.74908-1.33606,5.636-4.18618,18.72046-7.54474,37.46261-10.49943,56.0588a376.12892,376.12892,0,0,1-70.09487,7.09771c-58.39783-.05588-101.91229-16.188-135.416-39.92369-26.80359-18.99977-47.18378-43.33749-62.86926-68.87323l-.017-.02794c-2.96875-4.83219-5.86129-9.67367-8.49108-14.56791-3.0902-5.75081-5.9855-11.514-8.638-17.26483-.12146-.26377-.21749-.52452-.339-.78829-2.18352-4.77007-4.19748-9.51541-6.10136-14.22344-.3474-.8597-.757-1.73181-1.096-2.58526-2.31912-5.86872-4.4348-11.67229-6.34988-17.34553-1.45192-4.2984-2.68626-8.42291-3.92069-12.54439A400.59635,400.59635,0,0,1,388.77,1143.02907C388.71931,1142.71557,388.63457,1142.33076,388.58371,1142.02664Zm3.08452,122.17307c.517,1.03037.97452,2.05145,1.50553,3.0787,2.00551,3.88868,4.16076,7.78361,6.364,11.67229.00569.00928.00845.01865.01414.02794v45.80482l-.01414.00313a441.21345,441.21345,0,0,1-83.67037,8.26777,337.62267,337.62267,0,0,1-49.03675-3.38907,203.29963,203.29963,0,0,1,22.67382-17.68384C319.55939,1291.84581,357.12783,1276.2444,391.66823,1264.19971Zm42.80553,76.4334c0-.0341.017-.06829.017-.10238v-12.06336a252.44942,252.44942,0,0,0,43.90143,40.06018c39.14466,27.86024,90.0768,46.1276,154.381,46.07172a401.13916,401.13916,0,0,0,64.71944-5.788c-2.64109,24.015-4.27946,47.29142-4.28791,68.55054.00569,12.023.61014,22.85435,1.51122,33.1518-32.45014-10.16713-64.15454-21.75257-94.55961-32.94381-59.36382-21.70909-113.03876-41.47233-165.68263-48.16353v-88.77313Zm590.42109,136.72545a648.951,648.951,0,0,0-4.45453-70.60815,409.27066,409.27066,0,0,0,77.16222,7.84574c64.30428.05588,115.23642-18.20836,154.381-46.07173a252.38656,252.38656,0,0,0,41.54-37.416v98.29773c-52.64947,6.69433-106.32442,26.45747-165.68272,48.16353-33.58,12.36132-68.77856,25.10432-104.785,35.976C1024.14911,1502.38228,1024.88356,1490.592,1024.89485,1477.35856Zm387.25183-144.30117a443.04789,443.04789,0,0,1-69.21354-5.6577c-5.7087-.91861-10.35814-1.79072-14.47088-2.60695v-42.03718q5.26242-9.008,9.83282-18.00975c33.00658,11.62579,68.691,26.622,97.70912,45.58756a213.10344,213.10344,0,0,1,25.50417,19.30076A341.02746,341.02746,0,0,1,1412.14668,1333.05739Zm-83.68718-137.15686c-2.37834,7.36461-5.08167,14.98067-8.15773,22.73946-.29654.74794-.61583,1.50213-.92082,2.2532-2.04784,5.06187-4.29911,10.17641-6.67762,15.30657-.42085.9062-.83893,1.8125-1.26822,2.7187l-.034.07445c-.13844.29171-.26826.58039-.4067.8721-.0762.16139-.14689.31966-.22309.481-2.10715,4.3791-4.31894,8.7581-6.68608,13.12479-.16671.31037-.3136.62074-.48308.928-3.05348,5.5987-6.58435,11.092-10.07574,16.58518-16.016,25.2068-36.55728,49.00144-63.67724,67.51079-33.06865,22.51291-75.67083,37.6705-132.24667,37.717-24.75.00625-52.36423-3.1718-82.71559-9.80087-2.59307-16.02032-5.56181-32.137-9.07855-48.24726a17.87825,17.87825,0,0,0,5.33872-5.01215l.00569.00625c.28533-.41588,10.44012-14.301,29.87121-32.03145a302.20239,302.20239,0,0,1,31.15357-24.95534,308.35408,308.35408,0,0,1,134.64768-52.29116c.2824-.03723.56773-.07142.84737-.11176,6.78211-.91861,13.66024-1.71628,20.80387-2.21588,7.69448-.54,15.454-1.01171,23.572-1.01484l3.675.02169a15.29757,15.29757,0,0,0,3.43485-.71384c7.96566-1.69449,14.14331-8.9785,14.245-18.24245.11862-10.59854-7.60413-19.2946-17.25041-19.42493l-4.1043-.02481c-8.10411-.00313-15.82392.52764-23.5665,1.02412-5.94317.38169-11.77342.88139-17.50178,1.5331-5.898.67037-11.76773,1.36555-17.43971,2.2997a341.06923,341.06923,0,0,0-142.18682,58.2313A327.38355,327.38355,0,0,0,995.23,1275.28544c-4.57039-16.85208-9.4712-33.4652-14.92569-49.33038-.33611-.97449-.71747-1.86828-1.05642-2.83662,38.03454-42.66408,80.76654-69.31391,123.21614-85.567,35.7268-13.66787,71.16827-19.9215,102.82182-22.11882,7.97687-.55548,15.66583-.82247,23.10031-.90933,1.60441-.01865,3.27951-.08694,4.85564-.08694,9.51922-.00313,18.30692.39106,26.63119.93414.22309.01553.45187.02794.67514.04347,3.30209.2204,6.54194.4407,9.6237.71688q11.4486,2.1786,23.35737,4.90664c5.7568,1.319,11.55016,2.68148,17.468,4.19592,5.75111,1.47419,11.56153,3.01658,17.468,4.68322,4.79064,1.35315,9.70283,2.85528,14.59812,4.33875-.42653,2.81493-.97444,6.06734-1.59027,9.506A401.46662,401.46662,0,0,1,1328.4595,1195.90053Zm-68.59219-682.07866c-1.22029,9.92505-2.48575,19.89356-4.02516,30.19414q-2.36861,15.8466-5.27372,32.28589c-5.40648,30.56967-12.23944,62.61348-20.79267,96.15317-.75134-.01553-1.47734-.12412-2.23145-.12412-25.88829.00313-49.81063,9.03433-69.4649,24.26641-.3474-.86278-.75135-1.69141-1.11581-2.548A137.96219,137.96219,0,0,0,1147.693,675.841a133.242,133.242,0,0,0-11.23672-15.39347,127.65028,127.65028,0,0,0-15.77031-15.87138l129.68179-434.89283c8.75649,38.65122,17.90572,97.24563,17.90572,174.16632,0,9.65815-.226,19.75079-.53394,29.98l-52.25966,35.89839c-8.18031,5.62048-10.66606,17.46041-5.55061,26.44819,5.1127,8.98777,15.89169,11.71888,24.072,6.0984l31.261-21.47326C1263.98281,477.77762,1262.1129,495.56077,1259.86731,513.82187ZM454.56861,682.315a118.3034,118.3034,0,0,0-27.27245,17.327L226.35847,387.13006c47.34476,24.75057,120.58634,70.26984,199.03105,145.89947A1320.19828,1320.19828,0,0,0,454.56861,682.315Zm1137.5622,567.36335c-20.01856-21.85808-43.27146-41.03467-67.8605-58.02332a115.22836,115.22836,0,0,0,8.58426-42.72l.01414-1.9397a117.35422,117.35422,0,0,0-12.728-53.20049c-12.39753-24.48367-32.01232-43.79684-54.42629-60.14619.6779-2.38039,1.64958-4.57458,2.21732-7.02326a147.28675,147.28675,0,0,0,3.76534-33.07726,144.91987,144.91987,0,0,0-8.38651-47.94313c41.63326,23.2671,81.40211,52.06774,110.19993,85.92713,29.56053,34.84013,47.50005,73.7613,47.55384,119.20612a179.28355,179.28355,0,0,1-1.69475,24.35335c-4.38118,31.73662-13.58954,56.391-25.75,76.331C1593.10817,1250.85452,1592.64768,1250.24316,1592.13081,1249.6783Zm-158.54736,373.30351a134.26066,134.26066,0,0,0-11.04742-18.72965,108.14833,108.14833,0,0,0-16.5782-19.1549l-.00845-.00928c-21.50729-19.08046-48.33623-26.023-76.908-25.9609-.18931,0-.38981.03107-.57911.03107-5.6975.02481-11.56154.44079-17.468.94977-5.70595.49345-11.56154,1.26307-17.468,2.15071a506.37942,506.37942,0,0,0-58.80454,12.93859c-102.432,28.50883-231.57434,83.18674-370.71327,83.078-92.70091.02481-181.13089-24.15777-260.00778-48.84309-39.44973-12.33034-76.49277-24.763-110.70835-34.23492a506.2034,506.2034,0,0,0-58.79893-12.93859.03379.03379,0,0,1-.017-.003c-5.90076-.88764-11.75075-1.6603-17.45377-2.15071h-.01413c-5.90361-.50595-11.7592-.92477-17.45377-.94977h-.01414c-.18645,0-.38412-.03107-.57057-.03107-19.13171.003-37.24363,2.99176-53.76249,10.735-8.10686,3.73657-15.44825,9.11507-22.39983,15.21963a109.38327,109.38327,0,0,0-16.9962,19.17971,132.98667,132.98667,0,0,0-10.98522,18.677,150.27131,150.27131,0,0,0-6.525,14.16756c-12.23943,32.91275-18.03,75.81589-18.0724,132.44883.00849,40.82365,3.07327,74.86934,9.28194,103.45261q13.81275,64.07513,50.54233,93.52454c20.0271,16.09173,43.76307,23.46562,69.49042,25.604,5.58725.4656,11.2338.76963,16.9962.7666.15534,0,.31921-.02179.47455-.02179,5.69741-.02481,11.55869-.35384,17.4679-.76034,52.69473-3.60322,113.6065-21.27152,181.645-38.53011,75.76686-19.34413,159.86377-38.33461,247.8842-38.31908,88.02043-.01553,172.11724,18.97495,247.88134,38.31908,68.03566,17.25859,128.94458,34.92708,181.63647,38.53011,5.90645.40347,11.77049.7325,17.468.76034.15533,0,.32481.02179.48015.02179,5.76525-.003,11.42033-.25762,16.98766-.72,15.29568-1.2663,29.83449-4.36053,43.41283-10.09894a109.488,109.488,0,0,0,37.64189-26.2867q24.78247-26.46978,36.50642-72.32443c7.88378-30.63473,11.75067-67.9887,11.76205-113.91467-.00569-37.76672-2.62988-69.40086-7.95722-96.06622C1445.98667,1654.18765,1440.54623,1637.42252,1433.58345,1622.98181ZM1377.3238,1935.562c-12.73941,10.26335-28.91643,15.95212-48.86154,17.988a165.82574,165.82574,0,0,1-16.98767.96833c-.15258,0-.32774-.01856-.48015-.01856-5.59578.00625-11.44-.2669-17.468-.72625-19.23343-1.47107-40.67278-5.186-63.8862-10.23229l-33.21847-317.08332c16.30408-5.12088,32.01232-9.93129,46.8306-14.028a496.7345,496.7345,0,0,1,50.2739-11.4643c.61859-.10248,1.192-.16139,1.80491-.26065,5.34717-.86282,10.66882-1.69761,15.66583-2.19731,6.09852-.61146,11.93152-.94352,17.468-.95583.18362,0,.39826-.03107.57911-.03107,3.8219,0,7.02227.62377,10.55021.91871a101.805,101.805,0,0,1,15.1743,2.20356,75.78109,75.78109,0,0,1,11.4993,3.64035q-1.45752,8.17941-2.95469,16.67837c-12.471,70.81908-26.52671,155.06413-26.52671,155.06413l63.16864,130.70783C1393.45288,1919.34615,1385.86289,1928.65974,1377.3238,1935.562Zm-257.53608-19.35967c-33.13373-8.4447-68.32375-16.85833-104.9912-23.7884l-14.73923-210.50237c47.2205-9.58049,92.0174-22.59048,133.515-35.55085q14.68562-4.59476,28.80626-9.1181l31.20443,297.86325C1170.282,1929.33636,1145.66757,1922.83761,1119.78772,1916.20229Zm-255.78486-39.31243c-39.65309.00625-78.15657,3.77389-115.32676,9.46569L762.551,1688.18049a609.74561,609.74561,0,0,0,202.90083-.02784l13.87773,198.19987C942.15944,1880.66375,903.656,1876.89933,864.00286,1876.88986Zm-329.58,58.21274,31.20727-297.86931c49.29661,15.74414,103.92349,32.90971,162.31839,44.73411l-14.73363,210.44327c-36.67021,6.93329-71.86031,15.34692-104.994,23.7884C582.33816,1922.83761,557.72377,1929.33636,534.42286,1935.1026Zm-134.885,18.49079c-11.51628-1.17633-21.87167-3.51628-30.84005-7.32748a74.61,74.61,0,0,1-25.84316-17.9818,94.87338,94.87338,0,0,1-14.80143-21.55073l63.17433-130.71712s-14.05573-84.24808-26.52675-155.06413q-1.49566-8.50532-2.95181-16.65962a73.86408,73.86408,0,0,1,10.49374-3.52252,102.00354,102.00354,0,0,1,18.595-2.73415c2.71453-.16764,5.23415-.51523,8.12669-.52148.18077,0,.38981.03107.57058.03107,5.53638.0125,11.36939.34759,17.4679.95583,4.99969.4997,10.32427,1.33449,15.677,2.19731.61014.09623,1.175.15514,1.788.25762a495.22329,495.22329,0,0,1,50.28243,11.46752c14.8494,4.08416,30.54066,8.876,46.83629,13.99689L498.36263,1943.538c-23.21618,5.04625-44.65847,8.76425-63.89465,10.23229-6.03076.45935-11.87506.7325-17.4679.72625-.15249,0-.32206.01856-.47455.01856A163.31156,163.31156,0,0,1,399.53787,1953.59339Zm476.91347,145.26012c-85.36236.05285-162.73363,17.74275-220.27555,47.46219-28.76954,14.92166-52.68628,32.85686-70.05815,54.06322-17.30972,21.08229-28.151,46.27659-28.12267,73.46646v.08695l.00284.64859v.08069c.07345,16.68766,6.96287,31.47275,16.9312,41.19927a52.05322,52.05322,0,0,0,36.47246,15.30032,50.04414,50.04414,0,0,0,29.52089-9.75134c50.19208-36.65254,137.15885-62.39313,235.53174-62.241,98.37288-.15211,185.33974,25.58848,235.529,62.238a50.013,50.013,0,0,0,29.52089,9.75437,52.06,52.06,0,0,0,36.47539-15.30032c9.96557-9.72634,16.85784-24.50839,16.93128-41.19605v-.08069l.00276-.64859v-.087c.02828-27.19309-10.81295-52.38739-28.12267-73.46646-26.09449-31.74286-66.75037-56.43443-116.7504-74.01579C1000.012,2108.88406,940.4646,2098.866,876.45134,2098.85351Zm283.52057,175.55673v-.08069a17.85315,17.85315,0,0,1-5.35286,12.98518,18.94042,18.94042,0,0,1-13.11508,5.46222,17.23474,17.23474,0,0,1-10.27057-3.40148c-58.95142-42.53982-150.901-68.43877-254.77921-68.59088-103.87824.15211-195.8278,26.05087-254.77922,68.59088a17.23693,17.23693,0,0,1-10.27057,3.39826,18.92139,18.92139,0,0,1-13.11508-5.46222,17.85279,17.85279,0,0,1-5.35277-12.98518v.08069l-.00285-.56183c.02828-15.83108,6.03352-31.62485,19.18248-47.82209,19.59772-24.17955,55.27366-47.06478,101.35016-63.08207,46.05107-16.11654,102.32469-25.71578,162.98785-25.70649,80.8711-.05285,153.994,17.1345,205.38657,43.80309,25.702,13.27367,45.859,28.90927,58.95151,44.98244,13.15181,16.19724,19.15429,31.991,19.18257,47.82209Z"/></svg>