<svg id="Layer_1" data-name="Layer 1" xmlns="http://www.w3.org/2000/svg" viewBox="0 0 1728 2592"><defs><style>.cls-1{fill:#00a651;}.cls-2{fill:#e6e7e8;stroke:#e6e7e8;stroke-miterlimit:10;stroke-width:8px;}</style></defs><title>tiki-3</title><rect class="cls-1" width="1728" height="2592"/><path class="cls-2" d="M1655.589,1205.85361c-.00664-.03722-.01557-.06828-.0222-.10551-17.69946-98.09572-48.13657-172.97716-84.1431-229.38037-54.09409-84.76924-120.22066-127.68457-173.94-149.44323-6.95079-2.8118-13.68642-5.2636-20.18279-7.42046,52.30483-79.50882,100.29282-131.94262,138.99987-166.08737,29.64548-26.14395,53.8746-41.65842,70.512-50.59962a183.14544,183.14544,0,0,1,18.98545-8.97847c2.124-.841,3.7026-1.39657,4.707-1.72868l1.06649-.33826.1996-.059v-.0062a11.95088,11.95088,0,0,0,4.28139-2.33076c.35035-.28243.64739-.66416.97771-.98689a17.24147,17.24147,0,0,0,2.74925-3.51006c.3038-.509.60531-1.01483.87135-1.56416a23.653,23.653,0,0,0,1.98873-5.96806c.02219-.12412.09094-.20794.11083-.33519.00446-.02481-.00217-.04655.00216-.07136.00663-.03415.0199-.059.02666-.0931a27.02808,27.02808,0,0,0,.164-6.89288c-.05765-.64242-.17741-1.26-.27931-1.88694a25.03988,25.03988,0,0,0-1.27936-4.82593c-.20177-.53379-.37025-1.09245-.60747-1.60143a18.83687,18.83687,0,0,0-3.19717-4.95943c-.03775-.04035-.07537-.07757-.11529-.11792-.01557-.01553-.02883-.031-.04209-.04347-78.77533-83.742-156.83466-112.42459-225.13183-112.33149-68.69625.02482-127.39529,28.49332-168.96918,56.79423a408.15923,408.15923,0,0,0-37.87779,29.24746c8.23448-134.02191,28.57682-232.4994,48.753-300.5997,13.06122-44.07295,26.0449-75.48975,35.63181-95.71222,4.79345-10.11124,8.73775-17.42,11.42055-22.1063,1.34133-2.34316,2.36574-4.03146,3.02423-5.08665l.705-1.108.133-.20173-.00447-.0031a21.62909,21.62909,0,0,0,2.51649-5.38459c.16631-.51208.24832-1.05829.38134-1.58278a26.436,26.436,0,0,0,.77595-5.10838c.03546-.65795.06875-1.31278.05765-1.97384a26.50611,26.50611,0,0,0-.86242-6.48323c-.031-.11793-.01556-.24207-.04872-.36-.00663-.02172-.01989-.03414-.02665-.059-.00894-.031-.00664-.06517-.01773-.0962a21.34067,21.34067,0,0,0-2.73369-5.75081c-.31043-.46863-.663-.87208-1.00221-1.29726a14.83929,14.83929,0,0,0-3.06184-2.89557,12.75326,12.75326,0,0,0-1.144-.7976,10.73035,10.73035,0,0,0-4.66273-1.43383c-.051-.0031-.09974,0-.15076-.0031h-.04438q-6.66486-.26535-13.17205-.2638c-71.747-.031-130.71222,23.46874-178.27678,58.93875-47.68649,35.5445-83.6265,82.78612-110.63809,129.85394-28.48155-33.47136-65.17538-53.69072-105.27478-53.69382-42.17467.0062-80.50031,22.49424-109.54061,59.12183-1.05316-1.88694-2.03088-3.76455-3.1151-5.65459-26.97607-46.95918-63.12678-94.176-110.7157-129.62737-47.56679-35.47-106.52971-58.96978-178.27671-58.93875q-6.50844,0-13.17208.2638h-.04435c-.051.0031-.09977,0-.15075.0031a10.66677,10.66677,0,0,0-4.65824,1.43071,12.97864,12.97864,0,0,0-1.15512.80381,14.7863,14.7863,0,0,0-3.04859,2.88626c-.34365.42829-.6984.83485-1.01324,1.30968a21.24553,21.24553,0,0,0-2.72932,5.74461c-.00886.031-.00886.06517-.01772.0931-.00667.02172-.02.03724-.02659.059-.03549.11792-.01553.24517-.04879.36311a26.54866,26.54866,0,0,0-.86249,6.477c-.01109.66105.02216,1.31589.05765,1.97072a26.51126,26.51126,0,0,0,.77822,5.11458c.133.52449.21506,1.06761.38134,1.57658a21.51693,21.51693,0,0,0,2.51645,5.38769l-.00223.00311c1.01544,1.74417,81.08342,122.75621,99.6543,424.80836a407.9878,407.9878,0,0,0-37.86676-29.23818C463.0914,472.6776,404.39009,444.2091,335.69388,444.18429c-68.29714-.09311-146.352,28.58954-225.12737,112.32841-.01553.01553-.03326.031-.04878.04967-.03769.04035-.07538.07449-.11087.11484a18.71345,18.71345,0,0,0-3.19492,4.95631c-.23945.509-.40573,1.06759-.60972,1.60451a24.88591,24.88591,0,0,0-1.2793,4.82593c-.102.6269-.22171,1.24451-.27936,1.88694a27.15985,27.15985,0,0,0,.16628,6.896c.00664.03414.02.05895.02661.0931.00443.02481-.00222.04655.00221.07136.02218.12412.08869.211.11087.33519a23.65658,23.65658,0,0,0,1.98879,5.96806c.26606.5524.56758,1.05518.87133,1.56416a17.16293,17.16293,0,0,0,2.74927,3.51006c.33036.32278.62744.70451.97776.98689a11.98089,11.98089,0,0,0,4.28132,2.33076v.0062c1.51653.57727,104.5742,30.30264,234.4882,227.838A341.5173,341.5173,0,0,0,273.556,856.501c-39.49189,25.42088-80.95486,63.3737-116.99022,119.86679-36.00654,56.40624-66.44361,131.28465-84.14092,229.38038-.00664.03722-.01553.06829-.02217.10551-.01108.062-.0244.11791-.03547.18a27.14408,27.14408,0,0,0-.286,6.66325c.04212.6052.15963,1.18863.23945,1.78455a25.42424,25.42424,0,0,0,1.1507,4.88182c.20177.58342.38579,1.17309.62745,1.72867a19.213,19.213,0,0,0,3.20378,5.23566c.01774.01866.0399.02794.05765.0466.01553.01553.02.04034.03547.059.07761.08382.17738.09623.25718.17692a12.88982,12.88982,0,0,0,4.19485,2.9049,10.431,10.431,0,0,0,1.38572.46239,10.11942,10.11942,0,0,0,3.69821.34134,9.94834,9.94834,0,0,0,1.215-.08382,11.32273,11.32273,0,0,0,4.40548-1.93345l.00665-.00312c1.81806-1.26933,57.29121-40.175,167.88274-40.19351,27.25545,0,58.06941,2.58524,92.05835,8.48189a452.7694,452.7694,0,0,0-58.72346,105.84209c-24.23346,61.254-40.51624,137.91067-41.18582,232.04935,0,.03722-.00224.06829-.00224.10551,0,.062-.00443.12416-.00443.1862a26.63378,26.63378,0,0,0,.84253,6.57327c.14189.57726.35252,1.10178.53213,1.65414a21.87719,21.87719,0,0,0,1.94,4.3697c.29267.49648.56981,1.01171.89794,1.468a15.2116,15.2116,0,0,0,3.99531,4.03775c.02216.0125.04436.01553.06651.02784.01773.00928.0266.03107.04436.04338.08867.05588.1818.0341.27271.087a10.69454,10.69454,0,0,0,4.574,1.44624,9.79275,9.79275,0,0,0,1.41454-.00625,10.49512,10.49512,0,0,0,3.66939-.89067,11.02778,11.02778,0,0,0,1.15293-.47791,14.00215,14.00215,0,0,0,3.92656-3.299l.00444.00626c.674-.67965,56.15159-67.02957,185.81947-97.27022l1.29482,39.03595c-46.86615,18.13073-79.17894,78.08733-79.18557,146.15673v462.65567c.00444,62.99192,27.608,120.24848,70.13072,142.20907,11.4671,5.91227,22.983,11.2595,34.49448,16.67833l5.024,151.6126c.26382,7.95747,3.951,14.9434,9.30984,17.63416q182.1867,91.46184,364.92768,91.55655,182.61571.00937,364.92539-91.55655c5.35884-2.69076,9.046-9.67365,9.30976-17.63416l5.03068-151.78024c13.1278-5.74142,26.25114-11.42714,39.41872-17.76448,43.73326-21.079,72.65164-79.10539,72.65611-143.528V1637.72858c-.00447-69.29213-33.4014-130.4312-81.63771-147.336-1.63621-.571-3.27255-1.04277-4.90875-1.60763l1.20831-36.47552c47.24533,11.002,84.64637,26.80812,113.10356,42.49946,25.68128,14.16753,44.11244,28.23883,55.99634,38.59838,5.93979,5.1829,10.24323,9.43469,12.99478,12.31468,1.37679,1.437,2.36343,2.5324,2.97321,3.22455l.63412.7325.10637.1273.00447-.00625a14.00973,14.00973,0,0,0,3.92873,3.299,10.86183,10.86183,0,0,0,1.144.47488,10.53563,10.53563,0,0,0,3.67608.89389,10.24539,10.24539,0,0,0,1.41454.00625,10.68493,10.68493,0,0,0,4.574-1.44624c.08864-.05285.184-.03107.27268-.08695.01773-.0125.02666-.03106.04439-.04338.02219-.0125.04438-.01553.06658-.02784a15.2012,15.2012,0,0,0,3.99314-4.03775c.32816-.45613.603-.96833.89571-1.46481a21.99,21.99,0,0,0,1.94-4.37283c.17741-.55245.39028-1.07687.5321-1.65111a26.531,26.531,0,0,0,.84252-6.57327c0-.06516-.00446-.12416-.00446-.1862,0-.03409-.00217-.06829-.00217-.10238-.67175-94.14189-16.95233-170.79236-41.18808-232.04935a451.39524,451.39524,0,0,0-59.71235-107.01206,535.12179,535.12179,0,0,1,85.58877-7.31183c57.08949.00313,99.47249,10.38437,127.39095,20.58556a225.66814,225.66814,0,0,1,31.04013,13.86957c3.37228,1.85275,5.84438,3.36728,7.42077,4.37908l1.69169,1.12035.34142.239.00663.00313a11.35287,11.35287,0,0,0,4.40995,1.93344,9.82129,9.82129,0,0,0,1.20614.08382,10.12112,10.12112,0,0,0,3.71154-.34134,10.84541,10.84541,0,0,0,1.37462-.45935,12.97705,12.97705,0,0,0,4.217-2.92043c.07321-.07757.16631-.087.23938-.16452.01327-.01553.0199-.03722.03329-.05275.0199-.02169.04209-.02794.05982-.04963a19.251,19.251,0,0,0,3.206-5.24181c.24169-.54933.42343-1.139.6252-1.7193a25.3976,25.3976,0,0,0,1.15066-4.88494c.07984-.59583.1973-1.17935.23939-1.78759a27.13287,27.13287,0,0,0-.28607-6.66324A1.63964,1.63964,0,0,1,1655.589,1205.85361Zm-284.3742-48.22231a366.35882,366.35882,0,0,0,4.09951-52.80928,360.37088,360.37088,0,0,0-9.38744-81.00777c77.15239,14.37855,138.29037,55.80416,182.50268,97.35707a488.58312,488.58312,0,0,1,42.46731,45.57815c-29.65657-9.57742-70.72936-18.05932-123.349-18.05C1438.90669,1148.69934,1406.65609,1151.43669,1371.21482,1157.6313Zm47.8662,169.13813c13.72417,36.05035,24.42859,77.96013,30.40153,126.6076a595.3731,595.3731,0,0,0-35.71612-59.58116c-23.97634-35.09756-55.11619-71.92076-94.16467-103.11411,15.65309-21.377,28.30644-46.323,37.57845-73.83554C1380.10792,1245.75229,1401.92462,1281.76229,1419.081,1326.76943ZM1275.03707,1412.656l2.60512-78.60882c4.67816-3.52554,9.32086-7.25292,13.886-11.393,1.59628-1.44312,2.9843-3.19974,4.54066-4.708,40.75343,30.46408,73.00633,67.53239,97.36184,103.09858a546.69972,546.69972,0,0,1,32.87147,54.93831C1393.26887,1453.69365,1343.63791,1428.1828,1275.03707,1412.656Zm-29.30852,33.98649-1.093,33.00585a1286.18481,1286.18481,0,0,0-131.89617-34.93617c-.623-2.12589-1.20831-4.27357-1.91335-6.34671a146.55681,146.55681,0,0,0-8.21012-19.29758c-.89354-1.75349-1.73607-3.55349-2.68943-5.24807a131.02953,131.02953,0,0,0-9.09027-13.86028c-1.29708-1.74724-2.54531-3.56286-3.90884-5.21387-1.838-2.23141-3.80017-4.29214-5.75791-6.35288a110.716,110.716,0,0,0-18.75268-15.96752,91.8481,91.8481,0,0,0-51.18516-15.93342,88.434,88.434,0,0,0-34.133,7.17838c-1.88236-64.5933-11.57353-137.3551-26.628-197.65626-8.44735-33.62034-18.45558-63.30844-30.477-85.93305-6.03952-11.29985-12.61784-20.92075-20.216-28.13332-7.545-7.17535-16.4291-11.91131-25.93184-11.88952-9.50273-.02169-18.38683,4.71427-25.93184,11.88952-13.24526,12.69334-23.60825,32.40993-32.91138,56.40009-13.82391,36.03482-24.82326,82.40125-32.60765,131.33428a985.58581,985.58581,0,0,0-11.742,126.15763,89.61381,89.61381,0,0,0-38.982-9.34775c-22.16265.00928-42.85974,8.26775-60.158,22.637a116.916,116.916,0,0,0-15.53779,15.6169c-1.90671,2.30595-3.68934,4.78871-5.45864,7.28086-1.56976,2.20659-3.04858,4.51253-4.50528,6.85873-1.66509,2.6845-3.26808,5.42186-4.77356,8.27391-.39244.74794-.75829,1.52381-1.13963,2.281a146.68854,146.68854,0,0,0-8.13474,19.30071c-.65849,1.949-1.21278,3.96936-1.79812,5.96806A1289.40273,1289.40273,0,0,0,490.8903,1482.0629l-1.16846-35.28073-.66072-19.92457-.65409-19.72284-2.042-61.58914c20.43551,11.77161,41.698,17.95381,63.33518,17.929,39.19036.07444,72.614-9.22055,100.97127-24.39666,5.60276-2.998,10.88845-6.33734,16.08984-9.78229q8.52056-5.6422,16.32267-11.98575a231.78458,231.78458,0,0,0,41.66693-43.955c36.74485-50.81068,53.44447-111.25458,57.58607-155.132l1.37462-14.81308a27.14319,27.14319,0,0,0-.22613-6.865l-2.34578-14.57715c-6.83772-42.13946-26.29985-100.09433-63.50365-148.8816-27.03818-35.47308-63.865-65.25126-110.97065-78.87258-5.01078-1.44937-10.2366-2.52937-15.48237-3.597-5.54735-1.12659-11.08353-2.26247-16.89469-2.92971a210.69266,210.69266,0,0,0-24.586-1.52694,117.71264,117.71264,0,0,0-33.24618,4.93769,132.25323,132.25323,0,0,0-19.58851,7.51357,152.99873,152.99873,0,0,0-17.74608,9.85673c-2.81359,1.82177-5.59386,3.83591-8.36973,5.87808l-.36582-11.0733-.71837-21.69975-.7117-21.48248-3.29247-99.34023c1.03983-1.05519,2.07969-2.06694,3.11952-3.11284q11.90942-12.00129,23.80779-23.30114,15.438-14.63613,30.85385-28.0216l17.6973,99.39611c1.88012,10.55817,9.51823,16.98548,17.06323,14.35373,7.54277-2.63175,12.13445-13.32336,10.25432-23.88152l-10.98819-61.71019L548.687,645.13632c3.89334-3.14073,7.78662-6.38082,11.6755-9.40676,3.42769-2.66589,6.85545-5.16112,10.28315-7.737,1.215-.91552,2.43-1.79691,3.645-2.7,2.94215-2.18486,5.88654-4.42251,8.82646-6.54221,4.19708-3.02594,8.39192-5.92771,12.58677-8.81708.88685-.61141,1.7737-1.19483,2.66061-1.8,7.35426,30.62542,20.93215,57.18525,38.66936,76.79012A117.41789,117.41789,0,0,0,664.4578,707.6658l.49217,2.46729,3.99308,19.96179,11.40722,57.03323c2.09523,10.47747,9.86412,16.59451,17.34924,13.66167s11.85508-13.80752,9.75992-24.285l-9.48717-47.43095-1.98217-9.91881a81.0335,81.0335,0,0,0,42.34985-3.82976c28.14229-9.81951,52.28487-33.6793,68.31267-66.12336,18.89011,10.63573,39.46974,16.63788,61.0781,16.641a120.42038,120.42038,0,0,0,41.811-7.82393c21.06518,37.09625,53.28039,61.11738,89.58625,62.2005.84476.02482,1.66733.17692,2.51865.17692a87.96708,87.96708,0,0,0,39.52076-9.72948l-3.83123,19.158-9.33643,46.67676c-2.09522,10.4806,2.27257,21.35216,9.75992,24.285s15.254-3.1842,17.34917-13.66167l11.53369-57.66941,4.04633-20.23177,4.08624-20.4335,1.06419-5.32251c19.67939-22.41667,33.98451-53.58521,40.10387-89.24763,6.00407,3.777,12.0126,7.74324,18.01883,11.79335,4.21034,2.83969,8.42068,5.57392,12.63332,8.55018,2.38563,1.6852,4.77126,3.507,7.15919,5.23561,1.79589,1.30039,3.59178,2.66589,5.3855,3.9911,2.86684,2.11349,5.72909,4.196,8.59593,6.37148,4.66489,3.54421,9.33426,7.21257,14.00132,10.92437,1.67612,1.33141,3.35238,2.7,5.03067,4.05318l-5.10835,28.69193-1.92228,10.794-12.742,71.56076c-1.8802,10.55816,2.70932,21.25281,10.25433,23.88153,7.5427,2.63175,15.1831-3.79557,17.061-14.35373l17.69946-99.39612q13.31286,11.59164,26.64128,24.08634,12.0657,11.31227,24.14481,23.36635c2.33245,2.3245,4.66273,4.618,6.99288,6.98289l-3.16388,95.49494-.70287,21.19077-.70951,21.4142-.266,8.04433c-2.215-1.378-4.42537-2.77761-6.65808-4.01909a140.08173,140.08173,0,0,0-20.19159-9.17083,122.90226,122.90226,0,0,0-22.36219-5.87183,115.77059,115.77059,0,0,0-18.76378-1.67895,204.613,204.613,0,0,0-41.53384,4.46593c-5.57834,1.13275-11.09469,2.34629-16.407,3.91349-5.12608,1.51453-10.16785,3.15626-15.04561,5.04007-39.49857,15.26931-71.05306,42.155-94.94732,73.50348-37.2038,48.78717-56.666,106.74214-63.50589,148.88775l-2.34354,14.57412a26.9304,26.9304,0,0,0-.22613,6.865l1.37463,14.81308c4.14166,43.88054,20.84121,104.32444,57.58606,155.13512a237.39121,237.39121,0,0,0,29.20215,33.27274c5.0595,4.79184,10.45393,9.27644,16.02333,13.6058,5.14828,4.00355,10.578,7.69976,16.17192,11.24709,30.90263,19.59555,68.39245,32.081,113.65338,31.99405,17.63748.01866,35.01988-4.137,51.919-11.99816l-1.84461,55.6583-.654,19.72284Zm85.18293,651.17207c.00447,47.85-21.53739,90.84906-53.65726,106.26412-9.649,4.64276-19.25149,8.696-28.87616,13.013-4.76693,2.13839-9.54265,4.38836-14.30282,6.44607-4.76463,2.0577-9.54035,4.24251-14.29835,6.22255-124.04736,51.60512-245.93089,76.28734-365.79011,76.29359A766.29285,766.29285,0,0,1,734.2451,2296.402c-.48115-.06819-.90018-.39419-1.39682-.39419-.173,0-.31707.121-.48778.13032q-109.40312-17.5689-216.67339-65.62376c-4.77573-2.13215-9.54043-4.44728-14.31169-6.66637-4.78019-2.22515-9.54705-4.61188-14.32061-6.924-7.78662-3.77388-15.59324-7.29014-23.36433-11.29682-31.11994-15.98921-51.71063-58.374-51.7062-105.23063v-462.668c-.00443-47.462,21.278-89.34693,52.38688-105.30516a64.11061,64.11061,0,0,1,7.92188-3.7987c1.99319-.69518,3.98644-1.27245,5.97963-1.96138,4.64717-1.59835,9.29211-3.02281,13.93921-4.56832A1276.242,1276.242,0,0,1,623.77542,1485.753c-.04216,1.53934-.19067,3.04147-.19067,4.59322a157.29354,157.29354,0,0,0,16.94123,71.76865q-42.097,8.81244-84.10541,20.871c-1.09524.31027-2.19056.61752-3.28581.931q-18.1152,5.22325-36.19719,11.01439c-.03545.0125-.07314.02178-.10866.0341-.00447,0-.00663.00625-.0111.00625-7.321,2.35244-14.64208,4.69561-21.952,7.19088-2.97321,1.01493-5.95528,1.88381-8.92626,2.92356a19.42729,19.42729,0,0,0-4.962,3.1842,27.25528,27.25528,0,0,0-8.046,9.27321,44.43476,44.43476,0,0,0-4.6405,20.18209v462.65264a45.71961,45.71961,0,0,0,3.68934,18.2549c2.379,5.35973,5.96411,10.29117,11.15447,13.01925.37025.18923.74273.34759,1.11305.53682,4.75576,2.44242,9.55368,4.54673,14.32061,6.896q7.15029,3.52413,14.32062,6.896c4.789,2.25944,9.54705,4.74221,14.3472,6.90845l.00447.003.02.00928c6.79334,3.06619,13.62884,5.75392,20.44437,8.6339,7.84874,3.31453,15.68854,6.719,23.5661,9.7822,7.12591,2.77448,14.28287,5.2419,21.42879,7.81162,7.65584,2.74966,15.30943,5.52434,22.98962,8.03817,7.10818,2.33066,14.23855,4.44122,21.36445,6.57014,7.842,2.34014,15.69077,4.62117,23.55277,6.713,6.96405,1.856,13.9392,3.58768,20.91882,5.25119q12.23865,2.90953,24.504,5.41561c6.70464,1.37786,13.41158,2.72485,20.12731,3.92276,8.72226,1.55479,17.45561,2.877,26.19566,4.12772,6.20583.89067,12.4072,1.84972,18.61966,2.58828,9.84856,1.17007,19.71051,2.00789,29.5724,2.79323,5.15707.41276,10.3075.98065,15.469,1.28789,15.03892.89389,30.089,1.42143,45.15011,1.42143h.00663c15.21409,0,30.50133-.54307,45.83295-1.45249,5.064-.301,10.159-.85354,15.23406-1.25379,10.32083-.8132,20.65054-1.70065,31.02016-2.92034,6.044-.71375,12.10786-1.62317,18.16511-2.47349,9.46721-1.32823,18.94336-2.75289,28.44386-4.41943,6.42973-1.1265,12.87055-2.37423,19.3136-3.65587q13.865-2.75581,27.772-5.996c6.534-1.51766,13.06785-3.06316,19.61511-4.74221,9.39407-2.40207,18.80586-5.05248,28.22429-7.77733,6.35442-1.84044,12.70424-3.61249,19.06975-5.60182,10.15013-3.16867,20.32245-6.66637,30.49694-10.20744,5.61825-1.95523,11.22771-3.74907,16.8503-5.816,15.53778-5.71357,31.0956-11.787,46.67331-18.36041,4.88886-2.06377,9.78651-4.4505,14.67754-6.595,4.76693-2.0918,9.53819-4.29214,14.30512-6.46463,4.76909-2.1725,9.53372-4.21145,14.30512-6.46463,2.59633-1.226,5.18589-2.26551,7.78222-3.51627,10.2255-5.25422,15.56878-18.14314,15.65972-31.73652V1637.7318a44.43964,44.43964,0,0,0-4.63607-20.17906c-.44116-.8596-1.13957-1.47731-1.64731-2.28425-2.8912-4.59938-6.60043-8.5068-11.354-10.1796-.78934-.27618-1.583-.50273-2.37236-.77588-4.64054-1.61388-9.29651-3.01031-13.94151-4.56529q-7.21677-2.416-14.44031-4.7297c-.00447,0-.00893-.00625-.0111-.00625-.04655-.01554-.09093-.02785-.13749-.04035q-18.09866-5.81454-36.23494-11.02992c-1.07529-.31028-2.14841-.60824-3.2237-.91245-28.04256-7.99783-56.125-15.02713-84.234-20.91137a157.30829,157.30829,0,0,0,16.94123-71.76553c0-1.55175-.14858-3.05388-.19067-4.5901a1272.99009,1272.99009,0,0,1,124.18715,33.92446c4.64717,1.51453,9.29434,2.998,13.93921,4.56832,4.452,1.50515,8.90189,2.82107,13.35393,4.37595.20176.07142.38134.2079.58311.27931,35.12854,12.653,59.73007,57.66628,59.7256,108.82456v460.07989Zm-116.62875,297.78174q-173.53644,84.93526-346.55851,85.07336-173.134-.00937-346.56081-85.07336l-4.08842-123.38c26.55041,11.51409,53.19831,21.87345,79.97045,30.71535v72.49792c0,10.88085,6.30117,19.70418,14.07669,19.70418,7.77336,0,14.0767-8.82333,14.0767-19.70418V2311.463a842.32745,842.32745,0,0,0,93.57932,21.90451v75.67285c0,10.88085,6.30117,19.70418,14.07669,19.70418,7.77336,0,14.0767-8.82333,14.0767-19.70418v-71.09525a785.83273,785.83273,0,0,0,106.68493,7.49188v75.1919c0,10.88085,6.30116,19.70418,14.07669,19.70418s14.07669-8.82333,14.07669-19.70418V2344.624a908.38709,908.38709,0,0,0,106.75361-9.6674v74.08075c0,10.88085,6.30117,19.70418,14.0767,19.70418s14.07669-8.82333,14.07669-19.70418v-78.4102c31.06671-5.63288,62.271-13.1185,93.57932-22.05663v66.85577c0,10.88085,6.3011,19.70418,14.0767,19.70418,7.77329,0,14.07669-8.82333,14.07669-19.70418v-75.38739q39.87544-12.625,80.006-28.85634ZM656.44951,1459.4382a101.34533,101.34533,0,0,1,8.95732-21.65628,96.02024,96.02024,0,0,1,9.015-13.27061c14.33387-17.42617,34.59867-28.62989,57.2491-28.61436,17.07649-.00312,32.78283,6.35288,45.63782,16.96995a10.69918,10.69918,0,0,0,14.263.03106c4.41881-3.61864,7.07049-10.26332,6.96189-17.42617-.06428-3.91045-.1929-7.13188-.18844-9.85985-.04431-64.165,9.80424-144.29149,25.44407-206.56644,7.76449-31.122,17.05876-57.82152,26.47056-75.39355,4.676-8.79842,9.34975-15.232,13.41374-19.04934,4.11724-3.85145,7.30771-5.11764,10.17449-5.13943,2.86454.02169,6.055,1.288,10.17448,5.13943,7.16582,6.60737,15.94573,21.57871,23.88093,42.42189,12.03249,31.21514,22.59718,74.92491,29.91382,121.20137,7.34987,46.28574,11.54471,95.29321,11.53362,137.38929.00663,1.40277-.08871,3.479-.12193,6.38706-.06874,6.91148,2.4677,13.39165,6.667,17.029s9.47608,3.92285,13.86383.75418c12.0835-8.7271,26.22-13.88509,41.47626-13.88822,22.65043-.01241,42.91523,11.18819,57.249,28.61436a95.82393,95.82393,0,0,1,9.01489,13.27061,101.46021,101.46021,0,0,1,8.95508,21.65627,107.86653,107.86653,0,0,1,3.86012,20.65385c.31706,3.41076.84916,6.75322.85132,10.25708-.01772,24.95527-8.19009,47.74752-22.24472,65.18913-.16185.20174-.275.44382-.43683.64233a86.04562,86.04562,0,0,1-8.17466,8.18706,80.06811,80.06811,0,0,1-10.12131,7.91391c-.94889.63306-1.88019,1.29111-2.85574,1.88079-.07321.04337-.142.09622-.21287.1396a72.10166,72.10166,0,0,1-13.82837,6.38091,67.54026,67.54026,0,0,1-22.05622,4.11522c-20.39113.02178-38.76687-9.15842-52.69728-23.71711-.01549-.01553-.02659-.03409-.04215-.04963a91.68959,91.68959,0,0,1-11.59126-14.91859,14.14581,14.14581,0,0,0-7.03727-5.95565c-.09087-.0341-.1818-.06829-.27491-.09935a10.14335,10.14335,0,0,0-4.90212-.57414c-.21286.03409-.40793.16138-.61856.20789-.07761.01553-.14852.05588-.22613.07444-4.2259,1.05831-7.95294,4.69864-9.97942,10.03678-1.16622,3.07566-2.40559,5.84389-3.62506,8.696l-.04655.11175a173.50819,173.50819,0,0,1-9.60024,19.32249l-.03992.06517a101.5,101.5,0,0,1-11.23651,15.98921,55.14941,55.14941,0,0,1-8.60033,7.765,32.55111,32.55111,0,0,1-10.55806,5.47774,24.62526,24.62526,0,0,1-3.2038.43453,17.58792,17.58792,0,0,1-10.94827-1.03955,29.46306,29.46306,0,0,1-3.288-1.38733,41.352,41.352,0,0,1-10.37185-7.35834,64.1282,64.1282,0,0,1-4.93758-5.00285,104.96253,104.96253,0,0,1-10.27652-14.99l-.03329-.05588a171.18439,171.18439,0,0,1-9.74219-19.41247c-.01109-.02481-.02-.04963-.02882-.07444-1.76267-4.13378-3.49644-8.40736-5.14158-13.00371a19.66846,19.66846,0,0,0-3.62506-6.18221c-.02883-.03409-.05318-.07141-.08424-.10551a12.34763,12.34763,0,0,0-7.48952-4.47218c-4.21034-.5804-8.24118,1.61379-11.19659,5.70732l-.05541.07757a17.46949,17.46949,0,0,0-1.22827,1.71314,91.702,91.702,0,0,1-14.03238,18.94383c-.01549.01553-.03329.03107-.04878.04963-13.94591,14.5369-32.33714,23.748-52.75269,23.72014a67.56451,67.56451,0,0,1-22.05846-4.11522,72.09016,72.09016,0,0,1-13.82837-6.38091c-.07314-.04338-.13965-.09623-.21286-.1396-.97332-.58968-1.90456-1.24451-2.85345-1.88079-.235-.15513-.47228-.30421-.70727-.4656a79.7779,79.7779,0,0,1-9.41627-7.4485,85.41267,85.41267,0,0,1-8.17243-8.18706c-.16408-.1987-.27491-.44381-.43676-.64233-14.0545-17.44483-22.22693-40.23386-22.24466-65.18923.00224-3.50385.53433-6.84632.8514-10.25707A107.33851,107.33851,0,0,1,656.44951,1459.4382Zm282.831,130.425c19.256,21.41732,44.40292,34.31553,71.94877,34.33731a88.76937,88.76937,0,0,0,22.27132-2.89249c.04655,9.81648.082,19.847.082,30.14745.00447,37.2639-.42789,76.4332-2.11958,106.93753-.83143,15.2103-2.011,28.31327-3.42769,37.298a75.96351,75.96351,0,0,1-2.00876,9.66437l-.07314.2203c-7.52281,7.56954-21.64382,15.78444-37.0996,22.32977-16.08322,6.927-33.54105,12.61577-47.63331,17.28657l-.40577-.14889c-1.481-.40044-7.03056-6.00225-12.68211-18.80423-8.66021-18.97168-18.03432-52.03341-25.20014-97.30441-3.97535-24.97393-7.30554-53.82421-9.73772-86.13791a72.08961,72.08961,0,0,0,23.74567-18.08726C925.27029,1615.32437,932.64451,1603.43788,939.28047,1589.86324ZM829.9283,1779.60237c-6.01516,24.60777-12.691,42.71663-18.52209,53.44234-2.88674,5.37223-5.54065,8.82636-7.35426,10.52094l-1.97107,1.47731-.40353.14889c-14.08779-4.6708-31.54786-10.35634-47.63108-17.28657-15.44022-6.536-29.54134-14.74167-37.07078-22.30174a108.2437,108.2437,0,0,1-3.22592-18.23008c-3.57628-30.58825-4.46313-85.26884-4.43207-135.91511q0-15.45068.082-30.15067a88.79938,88.79938,0,0,0,22.27349,2.89249c29.02027-.03106,55.45538-14.26678,75.08605-37.83178,6.68028,14.27928,14.13211,26.80508,22.58615,36.7301a78.9905,78.9905,0,0,0,20.46873,17.55649C845.52821,1698.65674,838.32023,1745.48252,829.9283,1779.60237ZM561.69957,1621.69278c30.98247-8.85743,62.01373-16.27789,93.05832-22.49419-.46341,25.81818-1.59635,69.79486-4.299,110.14351-1.59636,24.03363-3.80018,46.79775-6.50957,62.58219a115.5678,115.5678,0,0,1-3.55409,15.66965c-1.45223.13961-3.05081.22352-4.78242.2203-10.21664.02785-24.47068-2.697-38.11724-8.1808-13.67316-5.40633-26.82755-13.75478-35.235-23.26382-1.21941-1.319-3.257-4.55279-5.30566-9.416-3.64942-8.49127-7.33437-21.55389-10.37625-35.94475-4.61612-21.63137-8.00612-46.32609-10.17232-65.394-.68292-5.98975-1.20615-11.13221-1.66064-15.77516,8.09929-2.51687,16.19851-5.05874,24.30667-7.39565C559.93244,1622.18944,560.81712,1621.94736,561.69957,1621.69278ZM549.1061,2120.98232a207.35336,207.35336,0,0,1,29.58126-64.89752c26.3353-38.87455,66.83384-72.91693,116.69756-96.84808,49.84823-23.97776,108.96637-37.96514,172.337-37.95908,84.39811-.03732,161.27119,24.86539,218.7153,64.93464,28.7254,20.00214,52.55762,43.76566,70.14624,69.621a207.69054,207.69054,0,0,1,29.5701,64.376.233.233,0,0,1,.00893.03732c-10.72,4.35105-21.43765,8.66819-32.131,12.60024-5.48523,2.01736-10.9549,3.76459-16.4335,5.67322-9.96825,3.46664-19.93,6.89292-29.87173,9.99643-6.22356,1.94273-12.4294,3.67462-18.63956,5.47149-9.21449,2.66594-18.41789,5.25725-27.60356,7.60667-6.38988,1.63548-12.76635,3.14385-19.14067,4.62741q-13.59561,3.161-27.14014,5.85943c-6.28344,1.25076-12.56682,2.46724-18.8347,3.56589-9.28324,1.62942-18.53535,3.01979-27.77867,4.317-5.902.82872-11.81076,1.71617-17.69729,2.41135-10.1324,1.19488-20.22265,2.05771-30.304,2.85215-4.91985.38794-9.85965.92476-14.76847,1.21666-14.94582.88764-29.84061,1.41518-44.65564,1.41518h-.00663c-14.662,0-29.31514-.512-43.95722-1.38411-5.01965-.298-10.03483-.85354-15.05-1.25379-9.60471-.7666-19.20494-1.5796-28.79638-2.72183-6.055-.72-12.10124-1.65423-18.14962-2.52311-8.49836-1.22273-16.99449-2.50152-25.47952-4.016-6.54725-1.17007-13.08564-2.47974-19.624-3.82351q-11.92941-2.44868-23.83438-5.26975c-6.82217-1.6262-13.64211-3.31756-20.451-5.13318-7.60928-2.02967-15.203-4.23323-22.79455-6.49873-6.99511-2.08555-13.99245-4.16182-20.96984-6.4491-7.40974-2.43011-14.79729-5.10211-22.187-7.75877-7.03726-2.52937-14.08332-4.96251-21.10286-7.69362-7.55826-2.94212-15.08107-6.21-22.61714-9.38819C553.79758,2122.96236,551.44964,2121.994,549.1061,2120.98232Zm659.05727-491.13658c-1.49209,15.21655-4.16609,38.84671-8.18576,62.07643a368.622,368.622,0,0,1-9.37188,41.85078c-3.45875,11.86471-7.73567,20.37758-9.96609,22.5997-8.40742,9.50923-21.56174,17.85446-35.235,23.26382-13.64663,5.484-27.9006,8.20884-38.11731,8.1808-1.72944.003-3.32789-.07766-4.77356-.21726a85.406,85.406,0,0,1-2.58076-10.34706c-2.56521-12.83607-4.80239-32.42242-6.47405-53.88312-2.53638-32.27335-3.95986-69.112-4.727-97.72947-.27051-10.02125-.45672-18.95009-.592-26.43874,31.08221,6.22255,62.15115,13.65551,93.17139,22.52525.87351.25137,1.74717.49042,2.62068.74178C1192.01364,1624.79932,1200.08844,1627.33494,1208.16337,1629.84574Zm-899.177-153.754a548.48872,548.48872,0,0,1,37.24592-61.12051c25.1403-35.61591,58.17584-72.22487,99.72528-101.82925,3.06411,3.16867,5.95305,6.595,9.179,9.51226.776.70447,1.57419,1.30039,2.3546,1.98629l2.91556,88.01245C391.695,1428.20762,342.01751,1453.77435,308.98636,1476.09171Zm9.4207-154.58891c18.83692-47.68851,42.9928-84.95544,67.90693-114.28051,8.72449,28.89679,21.06738,55.31071,36.65838,77.97254-42.38973,32.31067-75.88646,71.40865-101.295,108.60113a595.106,595.106,0,0,0-35.67839,59.50976C292.26682,1402.31811,303.72063,1358.7076,318.40706,1321.5028Zm-140.849-318.88869c49.52675-77.6653,110.51171-117.47713,160.76787-137.83926a308.29919,308.29919,0,0,1,33.81823-11.47677q22.27907,36.32961,45.30972,79.4902a274.27158,274.27158,0,0,0-23.80112,47.40608c-98.967,7.66567-176.36113,57.9705-229.79891,108.269a528.34958,528.34958,0,0,0-45.69772,48.9299C134.18392,1082.89875,154.646,1038.56208,177.55806,1002.61411ZM335.692,483.59562c63.05357-.02481,117.75736,26.31467,156.65282,52.82174a380.56217,380.56217,0,0,1,45.41832,36.339c2.75594,2.58212,5.12608,4.89114,7.18578,6.94255.266,7.3615.47228,14.88132.66295,22.43836-6.46741,5.04632-12.926,10.66987-19.39121,16.011a13.71452,13.71452,0,0,0-2.72929,2.25627c-18.03871,15.02717-36.06417,30.78993-54.063,48.182-100.437-104.33376-205.19073-126.09867-274.02-126.03351-6.64924,0-12.88386.22967-18.84136.57414C233.009,499.26528,286.89245,483.667,335.692,483.59562Zm295.431-317.9452c47.00141,34.99517,81.90822,82.74267,107.543,129.71116-15.41586,27.5964-26.506,60.14292-31.60774,95.79293a86.27733,86.27733,0,0,0-24.97178,4.60251C651.166,296.36714,607.02472,223.51226,566.20255,172.89714a526.31882,526.31882,0,0,0-54.10519-57.88976C558.64212,122.4682,597.90786,140.931,631.123,165.65042ZM774.8565,298.11752c24.31992-31.991,56.8522-51.67963,92.86542-51.68894,33.82042.00931,64.58117,17.35794,88.35574,45.95366,2.60512,3.13455,5.19476,6.297,7.62477,9.69847.90681,1.27245,1.70718,2.68142,2.5874,3.988q5.01854,7.43445,9.42953,15.60444a227.87508,227.87508,0,0,1,23.69472,69.44412q1.68286,9.61312,2.65615,19.57385.94449,9.74809,1.17285,19.78488c.04432,1.99557.215,3.94454.215,5.95565a259.35015,259.35015,0,0,1-7.075,60.23912c-1.51874,6.36221-3.29027,12.54749-5.2635,18.59q-3.05971,9.36174-6.81994,18.13689a197.63489,197.63489,0,0,1-20.59952,37.388,160.49129,160.49129,0,0,1-19.34243,22.41974,137.13535,137.13535,0,0,1-12.18987,10.47435,124.365,124.365,0,0,1-10.78865,7.27773c-.59644.36-1.19728.70759-1.79812,1.05518a112.65207,112.65207,0,0,1-11.42718,5.85322,104.39133,104.39133,0,0,1-13.92371,4.89423,99.173,99.173,0,0,1-26.51049,3.67765c-16.928-.00621-33.03778-4.52182-47.95477-12.42337q-5.14824-2.728-10.07915-6.00528c-.94449-.6269-1.89122-1.24759-2.82462-1.90555-3.31023-2.33076-6.52506-4.86008-9.67345-7.55084-.90457-.77275-1.82694-1.50828-2.71825-2.31209-3.175-2.85835-6.23243-5.92772-9.22113-9.13674a163.66385,163.66385,0,0,1-13.51131-16.31516,197.53427,197.53427,0,0,1-20.59952-37.388q-3.74145-8.78914-6.81994-18.13689c-1.97329-6.04255-3.74475-12.22783-5.2635-18.59a259.35021,259.35021,0,0,1-7.075-60.23912c0-.68278.06874-1.34074.07314-2.02347.051-6.75942.368-13.42267.909-19.98968q.81815-9.91106,2.359-19.47143a232.85915,232.85915,0,0,1,20.41778-65.82232c2.80913-5.73218,5.88431-11.17883,9.11693-16.44238,2.226-3.6218,4.46759-7.22188,6.87982-10.60159C772.73468,300.69342,773.83216,299.46444,774.8565,298.11752Zm224.7992-21.10387c25.30434-42.22015,58.43083-83.55579,101.32833-114.37674,32.35263-23.22045,70.2993-40.54424,114.97266-47.69162a526.45558,526.45558,0,0,0-54.1761,57.95182c-41.69352,51.69515-86.87245,126.53009-117.866,229.20346a94.16291,94.16291,0,0,0-15.05225-6.52667c-5.18373-40.28666-17.79486-76.91429-35.90009-106.94382C995.15272,284.75381,997.33435,280.87753,999.6557,277.01365ZM1551.416,543.13024c-5.95751-.34447-12.18987-.57415-18.83916-.57415-68.03776-.06516-171.18633,21.04179-270.559,122.2969-16.67072-15.94895-33.36594-30.523-50.07212-44.45775a13.69539,13.69539,0,0,0-2.96657-2.40521c-8.82206-7.29634-17.64181-14.73234-26.4728-21.467.15738-5.62355.3126-11.25335.5122-16.76826a372.43326,372.43326,0,0,1,56.31571-45.81711c38.63384-25.6505,91.8766-50.36066,152.96127-50.342C1441.09069,483.667,1494.97408,499.26528,1551.416,543.13024Zm-.991,459.48387c22.912,35.94484,43.37641,80.28161,59.40191,134.7761a528.6281,528.6281,0,0,0-45.69776-48.92687c-49.897-46.96539-120.69065-93.94016-210.41655-106.20824a264.86055,264.86055,0,0,0-35.06209-64.57474q18.80364-34.50021,37.14622-64.37613a314.85,314.85,0,0,1,86.87029,38.9956C1479.32316,915.9083,1517.38065,950.81966,1550.42506,1002.61411ZM549.69807,885.56527c.22173,0,.4168.04035.63853.04035,5.02851.02481,9.73333.5462,14.53564.92486a187.27208,187.27208,0,0,1,19.655,2.56043c50.22294,9.36641,87.1429,37.98692,113.89507,72.799,32.54114,42.366,49.8416,94.62909,55.25145,128.73047l1.79812,11.1788-1.05316,11.35261c-3.1816,35.01383-17.71062,88.61765-49.41809,132.12569a218.00448,218.00448,0,0,1-18.15848,21.46382,193.40328,193.40328,0,0,1-14.65318,13.8851,180.71543,180.71543,0,0,1-14.79506,11.42089c-27.95825,19.28517-63.07129,31.932-107.69147,32.02511-22.13823-.02794-43.71777-7.92944-64.81623-23.1925-2.93992-2.12589-5.86434-4.44424-8.78437-6.87113-1.88683-1.57042-3.80021-2.74664-5.67814-4.44425l-.00223-.00313a171.62489,171.62489,0,0,1-14.59329-15.1296c-2.144-2.4859-4.08842-5.22325-6.12376-7.855a220.61779,220.61779,0,0,1-30.83392-54.83593c-2.8047-7.18463-5.24135-14.64856-7.46293-22.26461-.705-2.42073-1.37462-4.85387-2.01982-7.31808-1.20614-4.59938-2.20162-9.3198-3.19047-14.04648-.3902-1.859-.90017-3.65284-1.25489-5.53049-1.28815-6.82151-2.195-13.81681-3.02419-20.85246a314.81226,314.81226,0,0,1-2.41669-36.90693,302.88629,302.88629,0,0,1,12.385-86.10685,254.60572,254.60572,0,0,1,15.1786-39.278c2.31915-4.74221,4.89326-9.205,7.47846-13.6772,3.02862-5.23869,6.16811-10.32849,9.54928-15.16683.3104-.44382.64963-.85032.96226-1.291.40574-.571.83586-1.10793,1.246-1.67279,2.654-3.64659,5.20589-7.42359,8.05934-10.81265.22392-.26378.45008-.52139.67621-.78516,1.12187-1.31593,2.399-2.4052,3.54966-3.68078A169.80039,169.80039,0,0,1,470.426,920.07618c.5964-.53692,1.20171-.88138,1.79812-1.4059,12.98144-11.424,26.15133-19.79415,39.51405-25.2501a104.78588,104.78588,0,0,1,18.5265-5.79427,97.05507,97.05507,0,0,1,9.782-1.03662C543.26171,886.26358,546.45665,885.57143,549.69807,885.56527Zm160.1338-204.57716a65.80383,65.80383,0,0,1-22.29568-4.0718c-12.62223-4.53114-24.17141-12.71507-34.00887-23.87527a109.98743,109.98743,0,0,1-6.99734-8.755c-10.39621-14.571-18.1873-32.6458-22.47749-52.84968a169.50783,169.50783,0,0,1-2.92889-19.7011c-.48114-5.26667-.8137-10.59846-.81593-16.05754,0-1.70694.13525-3.3642.18181-5.05561.93339-32.62407,10.61347-61.93673,26.0382-83.55579a100.73833,100.73833,0,0,1,19.706-20.79663,74.60909,74.60909,0,0,1,26.46617-13.55611,66.1438,66.1438,0,0,1,11.33631-1.9397c-.03329,1.89935-.204,3.749-.204,5.65769a314.20622,314.20622,0,0,0,7.7534,69.6769q2.15835,9.47809,4.8622,18.59624c1.84914,6.20082,3.93766,12.21851,6.15481,18.13069,12.07018,32.1865,29.44154,59.786,50.49122,80.685,2.65175,2.6318,5.37657,5.09909,8.14138,7.51362a124.9784,124.9784,0,0,1-8.10146,13.252c-11.67333,16.31824-26.49939,28.02161-43.09257,33.38134A65.53825,65.53825,0,0,1,709.83187,680.98811ZM1051.311,659.91222c-13.58892,12.72441-29.78743,20.25351-47.283,20.90526-.80261.031-1.583.17067-2.3901.17067-13.91261-.0062-26.99163-4.55283-38.70921-12.44505a97.26,97.26,0,0,1-24.59267-24.257c-.17072-.239-.31707-.509-.48555-.74794,2.43442-1.61691,4.911-3.12524,7.27672-4.90663,4.1372-3.10971,8.12805-6.536,12.04359-10.11434,23.39539-21.38938,42.62029-50.87584,55.67264-85.67856,1.44337-3.84837,2.76258-7.79912,4.05073-11.77474.69178-2.129,1.45886-4.196,2.10409-6.35907q2.71383-9.10105,4.8622-18.59a312.42574,312.42574,0,0,0,7.26785-56.26351c.16848-4.047.4235-8.06294.439-12.16575.73386.36312,1.46995.7324,2.19495,1.12347a88.42222,88.42222,0,0,1,24.85432,20.21936q3.29244,3.808,6.3256,8.0412c13.15662,18.44106,22.10493,42.49633,25.06272,69.4038l.01989.17692a175.32315,175.32315,0,0,1,1.1374,19.03073c0,.85344-.07984,1.67587-.09094,2.52624a175.36387,175.36387,0,0,1-1.46556,20.34348c-3.34792,25.427-12.1057,48.13541-24.66365,65.73851A105.50623,105.50623,0,0,1,1051.311,659.91222Zm295.85443,444.9097a313.59769,313.59769,0,0,1-3.68272,46.39125c-.61856,4.13388-1.195,8.27088-1.97546,12.32406-.52993,2.74967-1.23943,5.39705-1.84244,8.10637-.94673,4.2642-1.77153,8.60294-2.89783,12.76163-.60977,2.25319-1.3569,4.40077-2.01755,6.61664-1.5343,5.15184-3.18607,10.223-4.99306,15.17621-9.01272,24.72872-21.26917,46.90648-36.42778,65.25126a173.41262,173.41262,0,0,1-14.11,15.02722c-1.02657.97762-1.93108,2.13831-2.97538,3.08485-3.46538,3.13145-6.98178,5.49631-10.476,8.19331-.34805.2669-.69394.55246-1.03983.8131a145.84111,145.84111,0,0,1-14.41365,9.73882c-17.44451,10.223-35.20175,15.73794-53.34913,15.76275-51.22508-.10863-89.9232-16.73724-119.5776-41.04705a190.47113,190.47113,0,0,1-14.45588-13.09681,208.966,208.966,0,0,1-14.16533-15.78132c-2.38346-2.94837-4.88655-5.82836-7.10154-8.86984-31.70747-43.50813-46.23649-97.11186-49.4181-132.12881L991.193,1101.793l1.79812-11.17265c5.40986-34.1045,22.71248-86.36759,55.25369-128.73359,23.8521-31.03822,55.72149-57.26594,97.92722-69.261a178.28685,178.28685,0,0,1,18.84579-4.09666c3.81573-.64555,7.65136-1.25692,11.62232-1.6728,3.50083-.36928,7.15256-.50585,10.77762-.6859,3.21043-.16139,6.23912-.60208,9.54929-.60833.84253,0,1.66949.24208,2.50986.2669a98.15687,98.15687,0,0,1,21.69923,3.15626c14.33395,3.66524,28.43716,10.78471,42.33645,21.13177,4.25473,3.16867,8.52272,6.15426,12.73752,9.9592.34806.31653.64523.71072.99112,1.02724,1.011.93415,1.90672,2.04521,2.9,3.00729,3.67161,3.55973,7.3144,7.1691,10.72214,11.11989.1885.2204.4057.39722.59421.61449,3.65389,4.27974,6.98624,8.97535,10.3186,13.671a214.97014,214.97014,0,0,1,17.82585,29.90537,254.84193,254.84193,0,0,1,15.5267,40.33321A303.58606,303.58606,0,0,1,1347.16541,1104.82192ZM1334.00662,828.29c-3.57405,5.83461-7.17029,11.90818-10.7687,17.9879-8.71122,14.71061-17.48673,30.09167-26.32651,46.28574-1.52984-1.49587-2.91556-3.209-4.483-4.646l1.41671-42.726.69394-20.95494.06658-1.99245.592-17.90106,3.06414-92.47217c.21733-6.58255-1.92444-12.87026-5.71366-16.77759-2.00428-2.06694-4.0152-3.97561-6.02179-6.01461,90.86777-88.3383,183.71316-107.04933,246.05066-107.11142,6.035,0,11.71989.19241,17.13854.49658-48.039,32.26407-122.10519,97.96847-204.66974,228.15139C1341.37867,816.388,1337.70259,822.2537,1334.00662,828.29ZM1155.6412,559.65333c-.05981,1.33449-.11083,2.69076-.16848,4.03145-.18174,4.24559-.37471,8.46016-.53439,12.76783-1.95774-1.36242-3.91777-2.64108-5.87551-3.97561q-14.9126-10.15782-29.84061-19.23867c-.58094-54.95071-20.34234-103.322-50.36482-132.6502,29.10228-98.05538,71.9244-168.9085,111.60038-218.20773a489.82467,489.82467,0,0,1,50.24289-53.728C1202.24131,221.20944,1164.90008,353.26064,1155.6412,559.65333ZM552.536,208.693c36.7138,47.03058,75.44527,112.555,103.15744,200.83428-37.7248,27.435-63.53025,82.5223-63.53695,146.15044,0,4.24871.22836,8.41673.45449,12.58471-3.95762,2.63487-7.91525,5.28216-11.87287,8.03187-2.4943,1.73176-4.99083,3.40143-7.48289,5.17978-.25279-7.40185-.58758-14.59889-.91127-21.81767C563.07629,353.0403,525.664,220.927,497.19364,148.41971A498.5895,498.5895,0,0,1,552.536,208.693ZM195.41055,581.96137c63.20436.06208,157.77919,19.2076,249.853,110.76425-.78931.81-1.57862,1.55175-2.3679,2.36485-3.78911,3.90733-5.93089,10.195-5.71359,16.77759l3.13949,94.747.69174,20.9146.69618,20.9859,1.67839,50.64305c-1.84911,1.98316-3.8379,3.75522-5.62492,5.82836q-16.64859-31.1298-33.02-58.72147c-3.59844-6.07669-7.19465-12.14714-10.76427-17.97863-3.69377-6.03322-7.36759-11.89264-11.03034-17.66825C300.39043,680.442,226.33315,614.73759,178.29191,582.46727,183.71509,582.16931,189.371,581.95824,195.41055,581.96137ZM184.75492,1116.3577c47.51358-43.31568,113.39844-85.35578,196.65692-95.51976a359.67313,359.67313,0,0,0-10.06585,83.9872,366.24817,366.24817,0,0,0,4.56289,56.26664c-43.21893-8.9009-81.70868-12.39235-115.4715-12.38922-52.66178-.00928-93.75669,8.48805-123.41775,18.07485A488.18617,488.18617,0,0,1,184.75492,1116.3577ZM906.29811,764.05665c-4.21481-10.87781-8.93289-20.73767-14.90813-28.80989a45.47708,45.47708,0,0,0-10.30311-10.34709,23.481,23.481,0,0,0-13.36279-4.51249c-6.5007-.01241-12.4005,3.18108-17.12081,7.51669-8.29436,7.71535-14.10775,18.57763-19.30474,30.79921-7.67356,18.379-13.55123,40.46041-17.7705,61.71019-4.17266,21.34287-6.66256,41.25182-6.71357,56.90906,0,24.226,6.64036,46.42232,17.562,62.5947,10.884,16.18166,26.33091,26.51328,43.34976,26.49462,17.01661.01866,32.46576-10.313,43.34752-26.49462,10.92391-16.17551,17.562-38.37183,17.562-62.5947-.02659-11.992-1.50987-26.24638-4.02853-41.95941C920.78281,811.88174,914.63685,785.79675,906.29811,764.05665ZM890.60734,912.85442c-6.06835,8.93188-14.039,14.13334-22.88542,14.152-8.84865-.01866-16.81931-5.22012-22.88766-14.152-6.02842-8.94124-9.873-21.436-9.873-35.53209-.02659-7.1691,1.11081-19.65142,3.33236-33.26337,3.288-20.50174,9.01936-44.23126,15.63089-61.30359,3.26145-8.5284,6.78448-15.32821,9.60917-19.06175a15.3486,15.3486,0,0,1,3.28581-3.46038l.90017-.44069c.00224.01241.37911-.09,1.756,1.13275,2.37677,2.01111,6.57385,8.4353,10.38735,17.718,5.84438,13.87582,11.24321,33.5458,14.91922,52.26933,3.72257,18.62731,5.74688,36.91621,5.69587,46.40991C900.48032,891.41845,896.63576,903.9163,890.60734,912.85442Zm382.2303,141.00794a189.903,189.903,0,0,0-12.85065-37.46251c-8.10809-17.21515-18.74822-32.59-32.11988-44.68435h0c-14.63761-13.27061-31.90931-22.637-51.01438-24.14218-1.70278-.13345-3.32789-.59895-5.0618-.59895-3.90438-.00313-7.4607.5462-11.19443.8131a148.464,148.464,0,0,0-16.20953,1.89309,133.36073,133.36073,0,0,0-51.50886,20.87728c-31.4193,21.48873-50.67079,53.87384-61.87848,80.5485-11.23874,26.74608-14.713,48.005-14.94805,49.38613a27.1124,27.1124,0,0,0-.22612,6.86185,217.8591,217.8591,0,0,0,25.44406,78.69254,174.71758,174.71758,0,0,0,12.875,19.40934,154.31388,154.31388,0,0,0,12.14562,14.21716,141.86213,141.86213,0,0,0,12.34509,11.41473,131.48465,131.48465,0,0,0,10.40061,8.05977c21.43765,14.3506,48.67977,23.52456,82.75291,23.50912a64.28892,64.28892,0,0,0,7.35866-.8721c16.84814-1.92417,32.15317-9.95609,45.4826-21.29316,1.05539-.89692,2.20159-1.64173,3.23263-2.57587.22612-.20173.41016-.45622.63412-.66109A132.038,132.038,0,0,0,1250.859,1210.068c1.0332-1.64485,1.90226-3.42941,2.87564-5.12389a166.88106,166.88106,0,0,0,9.516-19.37525q3.21267-7.76028,5.74465-15.8962a207.58442,207.58442,0,0,0,6.82656-28.35059c1.093-6.70046,1.83581-13.47234,2.31689-20.28144.38134-5.4032.66958-10.81881.663-16.22826.00217-1.70689-.17294-3.41076-.21056-5.12077A221.26979,221.26979,0,0,0,1272.83764,1053.86236Zm-81.19871,164.91739a49.0735,49.0735,0,0,1-19.8457,4.48147c-30.51683-.01553-53.32031-8.10949-70.61853-19.6607a109.843,109.843,0,0,1-13.05459-10.44025,117.43625,117.43625,0,0,1-11.1767-11.60406,128.79654,128.79654,0,0,1-10.35406-14.58956,159.56568,159.56568,0,0,1-13.45366-27.56534,172.54485,172.54485,0,0,1-6.78-23.0653l59.14033-1.83731,35.3414-1.09865,8.83762-.27618,14.9724-.46551,15.29164-.47488,40.494-1.26,3.48974-.10863,26.51488-.82551q-.23607,7.765-1.15513,15.40276c-3.46985,29.13574-14.294,56.21076-32.48349,75.046-1.12847,1.17007-2.18833,2.41458-3.37444,3.51627-.29488.27618-.541.6052-.84037.87523-1.37909,1.24451-2.80919,2.21587-4.20817,3.35174-1.19059.96521-2.37237,1.96764-3.57622,2.849A70.26583,70.26583,0,0,1,1191.63893,1218.77975ZM518.79544,971.71559c-20.19382,18.26721-34.23506,43.93329-42.42076,72.349a217.06123,217.06123,0,0,0-8.02607,48.753c-.2062,4.00043-.49445,8.00086-.49,12.00128-.00443,3.147.25942,6.29084.38578,9.44085q.41571,10.25088,1.75153,20.387a206.53171,206.53171,0,0,0,10.87293,44.96678c1.73384,4.649,3.70707,9.14914,5.789,13.56857a152.54794,152.54794,0,0,0,15.95906,26.48847,128.86421,128.86421,0,0,0,12.46485,14.37239c1.27042,1.25691,2.39672,2.68147,3.71816,3.87938,1.47443,1.33449,3.0996,2.42386,4.62275,3.6839,10.70441,8.84815,22.53736,15.86827,35.50548,19.0556a66.54874,66.54874,0,0,0,15.94572,2.00485c34.06435.01553,61.29984-9.15539,82.73749-23.49974l.01549-.00929a134.13385,134.13385,0,0,0,13.08342-10.06471,143.47992,143.47992,0,0,0,12.58677-12.35816c16.94347-18.66765,28.18445-40.237,35.18619-59.07843,10.12354-27.1774,12.1921-48.73754,12.354-50.29545a27.01076,27.01076,0,0,0-.22613-6.86186,241.77426,241.77426,0,0,0-28.98928-77.34877c-11.32522-19.07415-26.91842-38.28488-47.83724-52.58586-19.05866-13.05959-42.70237-21.55077-70.84019-23.00014-2.72712-.1397-5.25464-.58967-8.07047-.58655a63.97748,63.97748,0,0,0-7.45853.88139A69.59821,69.59821,0,0,0,552.76,951.14878a98.60212,98.60212,0,0,0-33.96454,20.56681Zm154.27608,205.45225a119.96479,119.96479,0,0,1-11.26757,12.78029,111.874,111.874,0,0,1-11.9726,10.27573c-1.991,1.48659-3.83123,3.06629-5.97964,4.4504-17.08982,10.97092-39.41656,18.57143-68.98,18.587-12.08351-.00625-23.41975-4.9966-34.184-13.1651-2.21491-1.68207-4.44093-3.30837-6.60713-5.26359-1.84914-1.6728-3.48758-3.5908-5.20146-5.42186a100.02774,100.02774,0,0,1-10.55583-13.21473c-12.25644-18.54964-19.47768-41.77946-21.61059-66.12024-.29264-3.34247-.38358-6.71287-.48555-10.08328l15.30943.47488,3.42107.10551,33.28833,1.03662,15.27621.47488,14.95027.46551,15.44692.481,35.654,1.10794,70.81359,2.20346c-2.76257,12.18749-8.25443,30.50443-18.77927,48.23472A138.32927,138.32927,0,0,1,673.07152,1177.16784Zm15.418,313.38927c0-8.13118,3.52526-15.09854,8.54714-18.109a10.80881,10.80881,0,0,1,3.04195-.89067l-.05764-.32893.0931-.0341.4235-.16139c.756-.29171,2.08189-.81935,3.7093-1.3593a42.33082,42.33082,0,0,1,13.37389-2.23765,39.24449,39.24449,0,0,1,7.6425.85032,46.75422,46.75422,0,0,1,19.15839,8.75191c9.71553,7.24052,19.50428,19.14245,28.64779,37.02485,4.52964,8.845,3.07741,21.15354-3.23925,27.49089a11.97266,11.97266,0,0,1-1.84021,1.15756c-.13079.09623-.266.16451-.39684.25137a10.18482,10.18482,0,0,1-10.11683,1.049c-.07761-.0341-.153-.08382-.2306-.11792a14.75705,14.75705,0,0,1-7.055-6.87113c-7.1259-13.88822-13.6421-21.18765-19.0121-25.20673-5.3899-3.988-9.79314-4.9377-13.55346-4.97179a21.23932,21.23932,0,0,0-6.16592.9528c-1.86016.55548-2.8734,1.06759-5.044,1.81249a11.89519,11.89519,0,0,1-3.84673.658h0C694.79072,1510.26128,688.48955,1501.43805,688.48955,1490.55711ZM977.86337,1541.554c-6.3189-6.34047-7.7689-18.649-3.24149-27.494,9.14128-17.8824,18.93-29.78443,28.64563-37.02485a47.08832,47.08832,0,0,1,17.67293-8.39192,39.96956,39.96956,0,0,1,9.128-1.21344,41.67211,41.67211,0,0,1,11.48037,1.65414c3.01759.86282,5.45424,1.90863,6.05941,2.11661l.03546.01241-.05549.33518a11.145,11.145,0,0,1,3.99085,1.77215c4.47422,3.299,7.62254,9.66437,7.62254,17.23382,0,10.88094-6.3011,19.701-14.07453,19.701a11.8922,11.8922,0,0,1-3.84672-.658l-1.62295-.58968-2.68943-.99314a21.7827,21.7827,0,0,0-6.89754-1.18551c-3.76032.0341-8.16357.98377-13.55347,4.97179-5.36993,4.01909-11.88613,11.31851-19.00987,25.20673a14.50447,14.50447,0,0,1-7.89082,7.30567c-.06428.02482-.12416.07445-.18844.09926a10.10441,10.10441,0,0,1-8.38306-.869c-.11083-.059-.21726-.14273-.32816-.20789A11.61638,11.61638,0,0,1,977.86337,1541.554ZM792.18354,483.55528a135.25227,135.25227,0,0,0,5.62272,14.62683c.60531,1.34073,1.19282,2.697,1.83581,4.0035a115.34622,115.34622,0,0,0,10.383,17.17481c.14412.19553.29934.37241.44346.56486.07761.10551.16185.20174.24169.30725a94.45121,94.45121,0,0,0,12.518,13.74232q1.7061,1.52694,3.461,2.94212c12.10123,9.70467,26.08483,15.33442,41.035,15.33754a60.31575,60.31575,0,0,0,16.44683-2.30589,65.781,65.781,0,0,0,14.29395-6.04876,73.901,73.901,0,0,0,6.95519-4.45353,81.62511,81.62511,0,0,0,8.26114-6.716c1.60968-1.50829,3.13729-3.16247,4.66266-4.81974a98.209,98.209,0,0,0,6.392-7.6812,109.50824,109.50824,0,0,0,6.27451-9.26085q2.54424-4.227,4.79346-8.786a133.99592,133.99592,0,0,0,7.45852-18.63038,151.24043,151.24043,0,0,0,6.14819-29.51436,161.38178,161.38178,0,0,0,1.05756-17.60929c0-2.20972-.14852-4.36663-.23723-6.54528a159.80724,159.80724,0,0,0-2.1706-20.74075q-1.09419-6.31718-2.66947-12.34267a138.71152,138.71152,0,0,0-7.86646-22.39181,119.64954,119.64954,0,0,0-9.55152-17.19962c-15.09217-22.48184-36.46548-36.60279-60.24891-36.609-26.36413.0062-49.79058,17.31448-64.94039,44.19088a128.83529,128.83529,0,0,0-8.85751,19.45282,147.03708,147.03708,0,0,0-6.8355,26.5102,159.48524,159.48524,0,0,0-1.85353,18.51554c-.1042,2.37731-.25942,4.739-.25942,7.15669a161.447,161.447,0,0,0,1.53424,21.97593A149.50164,149.50164,0,0,0,792.18354,483.55528Zm24.78111-74.85663a84.4649,84.4649,0,0,1,12.15218-26.30534c9.924-13.86028,23.4841-22.37319,38.605-22.38252,15.121.0124,28.67885,8.52532,38.60285,22.38252a80.39036,80.39036,0,0,1,8.06153,14.89993A96.30156,96.30156,0,0,1,921.51,425.24656c.3193,3.02282.60084,6.06117.66072,9.19261.01333.67965.14412,1.3066.14412,1.98937a105.55438,105.55438,0,0,1-1.57862,17.541c-.12863.75726-.34589,1.45865-.48778,2.20659a94.07194,94.07194,0,0,1-5.31892,17.991c-.67844,1.65726-1.19728,3.4511-1.9622,5.02767a77.89737,77.89737,0,0,1-6.64259,11.272,65.37182,65.37182,0,0,1-4.52964,5.23253c-.58311.658-1.13077,1.37483-1.73161,1.99865a54.037,54.037,0,0,1-10.79088,8.92571,41.46924,41.46924,0,0,1-21.55072,6.22563c-12.19657-.00933-23.26676-5.73838-32.3416-15.15442a64.86684,64.86684,0,0,1-6.26125-7.23118c-.90241-1.26625-1.59635-2.78386-2.43442-4.13075a77.24241,77.24241,0,0,1-4.20817-7.13808,93.70966,93.70966,0,0,1-7.84874-25.59155,105.66488,105.66488,0,0,1-1.49878-17.17481A103.05607,103.05607,0,0,1,816.96465,408.69865Z"/></svg>