<svg id="Layer_1" data-name="Layer 1" xmlns="http://www.w3.org/2000/svg" viewBox="0 0 1728 2592"><defs><style>.cls-1{fill:#006838;}.cls-2{fill:#e6e7e8;stroke:#e6e7e8;stroke-miterlimit:10;stroke-width:8px;}</style></defs><title>tiki-4</title><rect class="cls-1" width="1728" height="2592"/><path class="cls-2" d="M175.06333,662.92928c13.43114,18.99659,25.3859,34.56068,33.91093,45.305-1.73127,1.74729-3.49027,3.61249-5.28715,5.7508-11.06641,13.03473-22.77132,35.141-22.69816,65.42818a141.5868,141.5868,0,0,0,5.383,37.63318,85.803,85.803,0,0,0,16.5151,31.56576c12.66393,15.43373,29.1689,26.38911,46.754,35.08515,26.38273,12.93855,55.49614,20.50175,78.25232,25.04535,4.043.80381,7.79318,1.47731,11.37682,2.0918-2.05428,3.45735-4.14645,7.10081-6.26885,11.12918-12.36865,23.58669-25.25211,56.97423-25.31523,96.3609a170.21042,170.21042,0,0,0,5.87013,44.53225,57.49484,57.49484,0,0,0,15.72517,26.75223,68.64263,68.64263,0,0,0,17.97881,12.1999,138.32542,138.32542,0,0,0-1.31738,18.27971,133.473,133.473,0,0,0,8.81023,47.88713c-12.25759,12.64987-23.48049,25.25011-33.26991,37.07144-30.50646,36.879-48.30359,66.31583-48.63168,66.85265a21.4329,21.4329,0,0,0,0,21.50114c.42652.6735,28.62377,47.34406,75.12292,96.91326-1.60253.37866-3.23287.70447-4.82531,1.09866-20.66656,5.158-40.2,11.71885-56.33147,20.56074a94.55336,94.55336,0,0,0-21.56,15.69135,54.6691,54.6691,0,0,0-14.36739,23.78842,83.61255,83.61255,0,0,0-2.31676,13.23955c-1.55209,14.42514-2.14011,35.91075-2.15775,63.90437,0,12.37369.1287,25.98877.376,40.62493.03281,1.9986.08579,4.15556.12365,6.18845,1.89023,101.57477,9.17113,249.66487,19.07411,382.68749,5.78433,77.597,12.4469,149.89321,19.50313,204.82536,3.53821,27.494,7.14962,50.59645,10.94275,68.299a198.90616,198.90616,0,0,0,6.067,22.817,68.10653,68.10653,0,0,0,3.831,9.09951,29.775,29.775,0,0,0,6.44048,8.62785c8.63863,7.49188,18.64255,11.03617,29.59543,13.435,10.95788,2.30907,22.97321,3.14083,35.38226,3.14689,33.6838-.03732,70.56262-6.2629,90.81528-10.25405l5.59253,142.09107c.28519,7.28389,4.11364,13.64,9.69607,16.101q189.78084,83.70637,380.14716,83.79172,190.2314.00937,380.1447-83.79172c5.58236-2.46118,9.41088-8.81708,9.696-16.101l5.532-140.54556c21.09053,3.87313,53.06837,8.67122,82.641,8.70532,12.41163-.00625,24.4243-.838,35.3823-3.14689,10.9503-2.399,20.95422-5.94637,29.59539-13.435a29.82976,29.82976,0,0,0,6.44295-8.62785c2.87705-5.58949,4.80771-11.58531,6.79121-18.8817,3.62151-13.5841,6.93-31.541,10.22095-53.58213,11.42735-76.877,22.06973-203.05029,29.96137-329.94961,6.4582-104.06682,11.021-208.22059,12.45691-285.467.0379-2.067.06809-4.05.1009-6.07669.24229-14.57725.38354-28.25124.38354-40.58771,0-18.61793-.28512-34.47378-.91358-47.15159-.31546-6.34975-.71425-11.8989-1.24413-16.75278a83.02448,83.02448,0,0,0-2.31683-13.23954,54.67025,54.67025,0,0,0-14.3674-23.78843c-10.89223-10.8064-24.95187-18.3014-41.02273-24.71944a300.876,300.876,0,0,0-35.07177-10.97707c10.24113-10.83747,19.695-21.5663,28.10141-31.71475,30.5065-36.879,48.30362-66.31582,48.63172-66.85274a21.4329,21.4329,0,0,0,0-21.50114c-.4467-.70759-31.36447-51.87828-81.87387-103.99238a133.49131,133.49131,0,0,0,8.78242-47.81581,137.72139,137.72139,0,0,0-1.35519-18.587,67.71849,67.71849,0,0,0,18.01662-11.89578,57.47763,57.47763,0,0,0,15.72768-26.75223,170.31473,170.31473,0,0,0,5.87009-44.53225c-.06315-39.38667-12.94658-72.77421-25.31523-96.3609-2.12244-4.02525-4.21207-7.66567-6.26381-11.1199a409.33831,409.33831,0,0,0,51.05946-12.06957c20.51768-6.3901,41.911-15.09239,60.3568-27.68022a117.62724,117.62724,0,0,0,24.95942-22.48179,85.84091,85.84091,0,0,0,16.5151-31.56576,141.62233,141.62233,0,0,0,5.383-37.63318c.07317-30.29023-11.63174-52.39345-22.69557-65.42818-1.79434-2.13523-3.55588-4.00043-5.28461-5.74772a1023.30626,1023.30626,0,0,0,61.12144-85.8803c18.56175-29.30022,37.227-62.47366,51.491-96.5812,14.20089-34.13548,24.27289-69.20827,24.35622-103.42444.05052-22.75181-4.80772-45.395-16.32825-64.67712a16.20672,16.20672,0,0,0-3.95468-4.559,72.29122,72.29122,0,0,0-45.51992-15.95514c-27.92981.13035-55.534,14.40338-81.86369,34.2286-39.44034,29.9023-76.38732,73.39178-103.90571,109.53836-14.72075,19.369-26.54673,36.44763-34.50908,48.34956-2.39246-2.8056-5.08267-5.757-8.13393-8.74567-11.88914-11.61022-29.28254-23.76356-51.14017-25.93914-.37353-.71692-.68145-1.54863-1.06746-2.24386-11.117-20.10765-26.49128-30.2282-38.69835-35.11-1.24413-.49965-2.30913-.75727-3.49026-1.16069,4.85809-15.87447,11.71246-39.50766,18.66526-67.86445,12.616-51.661,25.42121-117.71612,25.4742-177.8373-.01771-27.56849-2.69021-54.03519-9.9862-77.58464-7.23037-23.46874-19.63445-44.26535-38.1734-57.42733a12.78754,12.78754,0,0,0-5.11055-2.22211,67.58344,67.58344,0,0,0-12.66147-1.21037c-15.92961-.01862-30.91022,5.83771-44.26823,15.35-23.41738,16.73723-42.53951,44.07294-58.98129,75.12354-24.5657,46.63954-42.94831,102.36305-55.46082,146.71531-6.4733,22.98768-11.29611,42.76635-14.486,56.66386a92.60732,92.60732,0,0,0-37.005-8.395c-19.96247-.18933-43.92751,8.38567-63.80164,34.00828a74.85254,74.85254,0,0,0-8.06824,13.23647c.45425-12.923.80761-27.97814.81015-44.74953-.03535-50.581-3.00321-114.6188-15.85137-170.05058-6.47329-27.72055-15.40466-53.44864-28.51275-74.31353-13.00212-20.809-30.93048-36.75487-53.26014-41.83841a11.76212,11.76212,0,0,0-5.42093,0c-12.99957,2.98868-24.71712,9.69226-34.77156,18.94692-17.63816,16.26238-30.31973,39.72182-40.00063,66.25062-14.46082,39.87388-22.32966,87.41655-26.86228,132.78366-3.52561,35.529-4.901,69.59-5.34014,97.31673-19.45522-23.627-42.43091-31.77375-61.70946-31.59063a92.59615,92.59615,0,0,0-37.00243,8.39187c-6.41522-27.95332-19.546-80.07985-39.03407-132.78366-14.31441-38.59213-31.94495-77.535-53.66394-107.92143-10.88222-15.17926-22.837-28.26987-36.23273-37.79764-13.35793-9.51225-28.33861-15.36858-44.26823-15.35a67.31809,67.31809,0,0,0-12.65885,1.21037,12.78764,12.78764,0,0,0-5.11047,2.22211c-18.53911,13.162-30.943,33.95861-38.17348,57.42733-7.296,23.55253-9.9661,50.01615-9.98628,77.58464.05553,60.11808,12.85825,126.17627,25.4742,177.8342,6.94017,28.31639,13.787,51.92169,18.64254,67.793a74.6088,74.6088,0,0,0-16.45448,8.035,79.2706,79.2706,0,0,0-25.714,28.304c-.38613.69518-.6915,1.52694-1.06754,2.24386-21.85523,2.17557-39.25106,14.32579-51.14024,25.93913-3.05115,2.9856-5.7389,5.937-8.13136,8.74259a953.79259,953.79259,0,0,0-64.91711-86.16581c-22.047-25.80876-47.18306-51.78517-73.50017-71.719-26.32974-19.82522-53.934-34.09515-81.86374-34.2286a72.29139,72.29139,0,0,0-45.52,15.95514,16.25307,16.25307,0,0,0-3.95464,4.559c-11.52321,19.28522-16.3788,41.92839-16.32833,64.68025.08327,34.21309,10.15537,69.289,24.35621,103.42136C117.75771,576.9,149.04905,626.08756,175.06333,662.92928Zm-64.483-281.07549a46.51655,46.51655,0,0,1,27.22818-8.634c19.31386-.13037,42.78677,10.84055,66.49693,28.88126,35.61947,26.895,71.403,68.6,97.85134,103.44925,13.24688,17.42623,24.20985,33.13926,31.83143,44.45156,3.81077,5.65462,6.78621,10.21365,8.79763,13.33577l2.27635,3.56594.72936,1.16382c2.85179,4.60251,7.26572,7.21877,11.96989,7.09773,4.689-.121,8.9869-2.95765,11.68219-7.66875l.01009.00621A98.70038,98.70038,0,0,1,385.401,547.87293a70.15419,70.15419,0,0,1,20.12147-13.46922c-.43912,3.30524-.93376,6.54841-1.17856,10.06779-.14891,2.07627-.21957,4.15562-.21957,6.21943a104.08683,104.08683,0,0,0,6.708,35.75244c7.21778,19.6142,18.89743,37.2173,32.11157,53.32447,23.001,27.82608,51.08472,51.24513,70.77462,66.14819a192.60817,192.60817,0,0,0-20.071,16.42687,174.08513,174.08513,0,0,0-33.83018,43.64774,161.60874,161.60874,0,0,0-12.76991,30.86755l-214.05-280.70934c-5.53954-7.2622-14.81914-7.63152-20.72713-.81935-5.90544,6.81223-6.20577,18.22379-.66627,25.48912L440.71293,841.27868a68.42994,68.42994,0,0,0,4.6764,21.57559,85.444,85.444,0,0,0,12.34092,20.62278c-12.09608,10.05534-24.18708,20.387-36.26553,31.33306-3.947,3.57527-6.1881,9.36641-5.95088,15.39035l3.14453,79.91849c-26.91272,6.865-49.462,28.28846-62.01233,57.26907a40.51512,40.51512,0,0,1-9.29982-6.1822,20.596,20.596,0,0,1-5.961-9.71713,126.39152,126.39152,0,0,1-4.37357-33.15786c-.06308-29.28161,10.01654-56.71046,20.61356-76.77151a207.26009,207.26009,0,0,1,14.50118-23.62392c1.96344-2.75279,3.58114-4.857,4.67136-6.23183l1.219-1.50212.27-.31966.0429-.04963-.00254-.00312c4.24234-4.91288,5.72122-12.42029,3.76537-19.17351-1.95839-6.76563-6.97552-11.44571-12.80021-11.93915l-1.47638-.14273c-7.63922-.75419-43.90225-4.9842-79.55958-17.06618-17.80467-5.996-35.4302-14.0248-48.89161-23.85671A82.43052,82.43052,0,0,1,222.731,821.99664a47.31958,47.31958,0,0,1-8.58055-16.5107,98.05223,98.05223,0,0,1-3.831-26.0633c.0732-18.7886,6.62216-30.7806,13.81472-39.57287a59.89436,59.89436,0,0,1,9.94588-9.45951c1.3401-1.00243,2.42781-1.71314,3.11677-2.14143l.71422-.42516.00254-.00312c4.55526-2.38659,7.80326-7.38945,8.68657-13.37925a20.66222,20.66222,0,0,0-4.32058-16.27481l-1.5117-1.79692a967.53854,967.53854,0,0,1-76.4428-106.86621c-16.60844-27.09362-32.61627-56.89041-44.25811-86.03549-11.69482-29.12642-18.794-57.57631-18.72583-81.104C101.37639,406.775,104.31652,393.63468,110.58033,381.85379Zm332.096,130.77875a47.63434,47.63434,0,0,1,9.89793-12.43885,46.76325,46.76325,0,0,1,13.68095-8.68363,47.92135,47.92135,0,0,1,10.35726-2.88c1.33-.211,2.40256-.31344,3.1269-.3662l1.04227-.04968V488.09c4.70167.02482,9.13324-2.57591,11.927-7.30875a21.47521,21.47521,0,0,0,1.66056-17.56587l-.50723-1.51453c-2.59941-7.81774-14.72075-45.14675-26.11521-93.38772-11.41718-48.18819-21.989-107.48074-21.94358-157.93448-.02018-24.63567,2.52624-47.02438,8.05061-64.702,5.214-16.56653,12.68411-28.664,23.28868-37.17383a43.99184,43.99184,0,0,1,5.26189-.50587c10.115.01862,19.77823,3.569,29.60547,10.51779,17.15611,12.06955,34.14309,35.15035,49.04052,63.51644,22.44581,42.48395,40.34129,96.14363,52.35411,138.89135,6.02151,21.38317,10.60712,40.06009,13.67594,53.3369,1.53441,6.63838,2.69029,11.92987,3.45491,15.53616.38363,1.80312.66882,3.1842.85805,4.10593l.26748,1.32829c1.1079,5.62354,4.29533,10.20124,8.64364,12.414a12.2575,12.2575,0,0,0,13.24942-1.27245l.01263-.0062c1.15841-.97761,19.17249-13.09061,39.04416-12.90748,13.91823.18932,28.30835,4.84459,42.67574,22.95974,2.88715,3.687,5.11556,8.76433,6.9957,14.61443a63.16723,63.16723,0,0,0-30.7538,11.393c-13.15353,9.18641-25.52472,25.08877-34.239,48.83059a96.45455,96.45455,0,0,0-5.55717,33.50238c.06308,22.19628,5.802,44.3926,13.70875,65.86268,14.18571,38.02732,35.839,74.27628,51.216,97.67672a161.64087,161.64087,0,0,0-23.37956,7.2622,144.83271,144.83271,0,0,0-34.68322,19.78488c-3.041,2.34937-6.07457,4.767-9.04243,7.49808-.08834.08377-.17159.18933-.26247.27l-12.54533-43.63534L545.33527,291.96055c-2.70037-9.38812-11.07653-14.31028-18.71324-10.98952-7.63417,3.32075-11.63676,13.6213-8.93638,23.01252L619.67332,658.73327l6.73322,23.42218,6.61208,22.99389,13.30995,46.295a146.46363,146.46363,0,0,0-8.30545,15.52067q-73.08759,33.69485-145.82938,89.108c-3.09155,2.34932-6.18309,4.68008-9.27456,7.08841-1.40063-1.50516-2.84925-3.01657-4.02022-4.49075a49.012,49.012,0,0,1-7.27581-11.933,24.55659,24.55659,0,0,1-1.98612-9.3881l.06054-1.589c.20694-2.72485.66373-5.24807,1.02463-7.84875a122.56405,122.56405,0,0,1,13.5018-41.92844c11.36419-21.06973,27.88938-36.86351,41.65866-47.07716a157.6147,157.6147,0,0,1,17.35043-11.26263c2.17034-1.20728,3.89152-2.08247,5.02722-2.638l1.24922-.59588.265-.121.00755-.00312c5.50673-2.3928,9.32254-8.55326,9.739-15.71616s-2.64738-13.92545-7.82093-17.25863l-1.25176-.82555c-6.48339-4.28594-37.10341-25.21914-65.35623-53.01415-14.12009-13.85408-27.60926-29.45853-37.09331-44.85811-9.59765-15.43685-14.65768-30.24369-14.55162-41.92219l.10851-3.0787a108.89512,108.89512,0,0,1,2.32184-15.81859,72.60482,72.60482,0,0,1,5.701-16.83654C441.947,514.20291,442.2877,513.33706,442.67633,512.63254ZM844.06551,121.53139a50.42933,50.42933,0,0,1,20.02054-11.393c13.0122,3.95077,23.43755,12.92923,32.70711,27.47538,14.82927,23.298,24.98459,60.63636,30.70327,101.29853,5.807,40.64666,7.52312,84.44028,7.51557,120.97478,0,24.24153-.742,45.31126-1.484,60.25774-.371,7.47634-.73944,13.41959-1.01455,17.47277-.13878,2.02347-.25238,3.57522-.32809,4.60872l-.11606,1.49587a20.30644,20.30644,0,0,0,4.78492,15.24445c3.50035,3.867,8.23229,5.428,12.83553,4.2301l.03535-.0062c.23467-.05588,1.02209-.21415,2.05427-.39415a68.65829,68.65829,0,0,1,11.86142-.98689c.82778-.00313,1.7868.10243,2.66248.13345a68.486,68.486,0,0,1,14.74093,2.1383,57.429,57.429,0,0,1,14.59706,5.78186c10.93013,6.41183,20.99974,16.6038,28.38152,36.311a53.42944,53.42944,0,0,1,2.93,18.57763c.06308,14.10857-4.10855,32.26407-11.0689,50.90379-3.10164,8.39187-6.814,16.81794-10.73327,25.16326-1.30729,2.78073-2.67765,5.50871-4.04294,8.25222-1.86,3.73973-3.6644,7.4422-5.59252,11.07022-.86059,1.62-1.73381,3.13145-2.60195,4.72355-1.13315,2.07627-2.25868,4.14321-3.39692,6.16667-1.84987,3.28972-3.64422,6.48012-5.48146,9.596-2.79118,4.739-5.59,9.45331-8.24238,13.68649-6.77112,10.82506-12.87588,19.84695-17.26209,26.11913-2.19306,3.13453-3.95714,5.58633-5.15845,7.23426l-1.36282,1.85593-.42144.56793a21.24867,21.24867,0,0,0-2.69529,19.47763c2.33439,6.58255,7.60136,10.82194,13.44119,10.82194l.07316.00312a133.03221,133.03221,0,0,1,45.47956,10.36571,118.7095,118.7095,0,0,1,21.65083,11.99816,104.17863,104.17863,0,0,1,12.351,9.89087c.46434.4407.88586.96834,1.34511,1.42144q2.58929,2.5511,5.04994,5.34116a101.22625,101.22625,0,0,1,8.90865,11.74367c.1994.30725.371.658.56785.96833.56276.88764,1.08016,1.84972,1.62529,2.76833a111.23021,111.23021,0,0,1,8.65881,17.75833,23.01326,23.01326,0,0,1,.53,3.12832c.053.24824.08826.52764.1337.78213a20.91118,20.91118,0,0,1,.6739,3.97249c.06809,6.207-2.284,15.59511-7.82848,26.64985-.45933.931-1.1407,1.95522-1.64039,2.9049-.52241.99314-1.15333,2.03279-1.71864,3.0445a190.05147,190.05147,0,0,1-10.9074,17.15928c-4.56288,6.42741-9.6052,12.99443-15.23808,19.68864-3.62658,4.31393-7.37932,8.64945-11.3541,12.98506-3.64422,3.988-7.49284,7.976-11.36673,11.95781-3.51553,3.60936-7.12694,7.19079-10.7888,10.77534-15.72767-50.70205-49.70171-90.29036-92.17806-106.33555a121.2824,121.2824,0,0,0-19.78833-5.428c-2.63222-.51211-5.22908-1.14213-7.90419-1.47731v-481.494c0-9.95916-6.56664-18.03138-14.66269-18.03138-8.09858,0-14.66268,8.07222-14.66268,18.03138v481.494c-2.67511.33206-5.272.9652-7.90419,1.47418a121.13554,121.13554,0,0,0-19.78833,5.42489c-42.48143,16.04519-76.45794,55.6335-92.18816,106.33867-3.73-3.64971-7.26318-7.30255-10.83931-10.97707-8.15158-8.37951-15.78067-16.74965-22.75873-25.06391-1.71355-2.04207-3.65939-4.11522-5.28207-6.145-3.56851-4.44425-6.80639-8.814-9.87021-13.134a195.73448,195.73448,0,0,1-10.75344-16.74339c-.66119-1.16695-1.2694-2.309-1.8726-3.45111-.52495-.99314-1.14825-2.02966-1.6303-3.00112-5.54454-11.05474-7.89664-20.44284-7.82848-26.64985a20.91217,20.91217,0,0,1,.67382-3.97249c.04544-.25449.08079-.5338.13378-.78516a22.92373,22.92373,0,0,1,.52995-3.12217,111.12884,111.12884,0,0,1,8.6639-17.74895c.55521-.93414,1.09025-1.90247,1.66565-2.80555.18168-.28555.34072-.60208.52494-.88138a102.06949,102.06949,0,0,1,8.89348-11.85856c1.61267-1.83418,3.31613-3.49457,5.01205-5.1704.82023-.81,1.5874-1.72555,2.42527-2.50143a103.1022,103.1022,0,0,1,11.339-8.935,126.67629,126.67629,0,0,1,40.69972-18.3759,136.47064,136.47064,0,0,1,19.40978-3.507c2.37229-.24516,4.23225-.3662,5.45374-.42516l1.3401-.04968.29274-.0062c5.83983,0,11.1068-4.24251,13.44119-10.82193a21.24889,21.24889,0,0,0-2.69529-19.47763l-.7798-1.0459c-3.34393-4.51869-17.0097-23.48426-31.70019-48.41477q-2.76719-4.69718-5.54207-9.64571c-1.1357-2.02039-2.27386-4.00663-3.40447-6.0829-.1565-.28863-.318-.55861-.47443-.84724-.689-1.26933-1.35273-2.60074-2.03664-3.88872-1.93066-3.63422-3.831-7.30567-5.69349-11.05161q-2.02528-4.078-3.96477-8.21187c-4.472-9.5278-8.59573-19.21073-11.96993-28.73228-6.21082-17.40136-9.8525-34.19136-9.80205-47.41542a53.36464,53.36464,0,0,1,2.9275-18.5745c6.67269-17.88865,14.48855-27.01913,22.11263-32.45653a38.156,38.156,0,0,1,20.98956-6.93322c.54767-.02173,1.12561-.10551,1.66057-.10551a46.55365,46.55365,0,0,1,11.84116,1.558c.46187.121.64609.20482,1.03472.32278.83032.24829,1.73628.51518,2.20316.68585l.69908.27v-.00313a12.14144,12.14144,0,0,0,11.874-1.13587,13.77072,13.77072,0,0,0,1.89531-1.319c3.97486-3.628,6.18309-9.42844,5.90044-15.50821,0-.00313-.04036-.88452-.11106-2.74351-.2044-5.58013-.62584-19.338-.62584-38.32524-.02773-44.6657,2.40763-118.5137,15.02859-181.9277,6.2588-31.68063,15.12956-60.63948,26.64016-81.66575C830.87409,136.35065,837.21114,127.8191,844.06551,121.53139Zm148.65337,294.883c14.3674-18.1152,28.75751-22.77046,42.67575-22.95974,10.597-.02174,20.664,3.25557,27.93736,6.6291a78.48081,78.48081,0,0,1,8.50492,4.56216l2.14509,1.39657.45424.31965.01263.00621a12.25949,12.25949,0,0,0,13.247,1.27245c4.34839-2.2128,7.53582-6.79049,8.64363-12.414,0-.00313.20194-1.02417.64356-3.147,3.29341-15.88375,19.4704-89.52074,46.36787-157.8507,13.39575-34.1417,29.5424-66.88994,47.26882-90.07626,8.84311-11.61333,18.02679-20.79662,27.208-26.90122,9.21156-6.11391,18.2791-9.23915,27.76823-9.25466a44.03238,44.03238,0,0,1,5.26443.50587c10.60711,8.50982,18.0747,20.6042,23.28876,37.17384,5.52444,17.6776,8.07078,40.0663,8.0506,64.702.05545,53.82727-11.99265,117.67266-24.22744,167.43125-6.10484,24.90876-12.2197,46.36643-16.79529,61.53947-2.28648,7.585-4.18927,13.60266-5.50919,17.69619-.66127,2.04833-1.176,3.61557-1.52432,4.65839l-.50724,1.51454a21.48959,21.48959,0,0,0,1.67066,17.58448c2.79125,4.71422,7.22791,7.30875,11.9144,7.28706v.12725l1.87768.121a47.54266,47.54266,0,0,1,25.04013,10.56437c.43915.36933.82778.91553,1.25938,1.30967a48.61567,48.61567,0,0,1,11.04118,14.7448c.15142.30416.34072.49037.48952.80069a74.905,74.905,0,0,1,5.24179,16.02652,109.18868,109.18868,0,0,1,2.27894,15.81859l.10859,3.0911a61.35334,61.35334,0,0,1-4.13135,20.96423c-4.85054,13.39785-14.29423,28.32885-25.97142,42.456-17.48675,21.27147-39.72561,40.85148-57.44941,54.83593-8.86576,7.00463-16.61091,12.64371-22.10254,16.50444-2.74582,1.93036-4.92879,3.417-6.41014,4.4101l-1.67574,1.11414-.51478.33519c-5.17355,3.33318-8.2373,10.09573-7.82094,17.25863.41635,7.15049,4.2247,13.29855,9.71618,15.70067v.00312l.02264.01241c.47951.18,19.93466,9.025,39.21822,27.5561a139.48731,139.48731,0,0,1,26.69568,34.79969,122.5535,122.5535,0,0,1,13.15346,41.2612c.35843,2.59766.81006,5.12077,1.01709,7.83947l.06053,1.60763a24.60759,24.60759,0,0,1-1.98612,9.3881c-1.89277,4.77318-5.696,10.50541-11.23295,16.46722-3.11165-2.42386-6.22345-4.77-9.33772-7.135q-72.72784-55.28127-145.82937-89.108a145.57416,145.57416,0,0,0-8.30553-15.52067l13.30748-46.27954,6.61455-23.00943,6.73823-23.43458,101.98258-354.73734c2.70038-9.38812-1.30221-19.69177-8.93646-23.01252s-16.01279,1.60141-18.7107,10.98953L1071.26129,679.47738,1058.716,723.11272c-.09088-.08378-.17413-.18933-.26247-.27-2.96786-2.728-6.04177-4.81045-9.08025-7.15669a151.55458,151.55458,0,0,0-54.59515-26.61258c-1.1836-.301-2.28141-.5338-3.41964-.79762,6.7484-10.29122,14.67023-22.9784,22.67793-37.24523,10.2412-18.26727,20.57067-38.96767,28.52539-60.41293,7.90673-21.47007,13.64567-43.6664,13.70874-65.86267a96.47822,96.47822,0,0,0-5.55717-33.50238c-10.0847-27.54677-26.35751-44.82089-42.66312-54.06a83.83982,83.83982,0,0,0-21.55995-8.53465A45.15776,45.15776,0,0,1,992.71888,416.41442Zm350.8295,132.3585a102.54618,102.54618,0,0,1,11.39962,13.28615c1.28957,1.79071,2.25367,3.25557,2.85934,4.21457l.64109,1.03657.11352.19241.00755-.00621c2.69283,4.71115,6.99316,7.54776,11.67965,7.66875,4.70421.121,9.11806-2.49522,11.96985-7.09773l1.31992-2.098c6.74085-10.63261,38.80433-59.966,79.54194-105.98175,20.341-23.00322,42.865-45.14674,65.061-61.17014,22.191-16.11343,43.94769-25.70018,62.05519-25.59462a46.49471,46.49471,0,0,1,27.22819,8.634c6.26134,11.77781,9.20139,24.92118,9.2493,40.49768.08071,25.0981-8.03289,55.78868-21.11334,86.93861-19.52338,46.80093-49.61337,94.45843-74.75193,129.97807-12.568,17.78-23.89688,32.57444-32.05346,42.88427-4.07837,5.15492-7.36161,9.18949-9.61529,11.91747l-2.56914,3.0911-.84041.99314a20.65215,20.65215,0,0,0-4.32051,16.27482c.88077,5.98975,4.12874,10.99265,8.684,13.37924l.00246.00313a56.24041,56.24041,0,0,1,15.11185,13.68336c6.65243,8.72706,12.40654,20.25971,12.47709,37.91556a98.03374,98.03374,0,0,1-3.831,26.0633,48.015,48.015,0,0,1-9.44616,17.59694c-8.21711,10.17023-21.52968,19.61733-36.92926,27.134-23.09191,11.37742-50.57748,18.68622-72.0491,22.93185-10.74589,2.13518-20.00536,3.53492-26.53672,4.39765-3.26568.43141-5.84992.72625-7.59882.91245s-2.57915.25449-2.58177.25762c-5.82466.49657-10.84186,5.17353-12.80025,11.93915-1.95593,6.75322-.477,14.26063,3.76536,19.17351l-.00246.00313c.12107.121,10.84679,12.72441,21.19913,32.67379,10.42042,19.98036,20.17942,46.99959,20.11888,75.82809a126.40594,126.40594,0,0,1-4.37349,33.15786,20.59662,20.59662,0,0,1-5.961,9.71713,38.19892,38.19892,0,0,1-9.25438,6.294c-12.54271-29.03952-35.10966-50.50959-62.05781-57.38385l3.14707-79.9185c.23722-6.02081-2.00136-11.81508-5.9508-15.39035-12.06336-10.93057-24.13672-21.2528-36.21763-31.29583a85.04491,85.04491,0,0,0,12.2904-20.6601,68.40891,68.40891,0,0,0,4.67648-21.57246l229.109-300.46007c5.53953-7.26532,5.24179-18.67381-.6662-25.48911-5.908-6.81223-15.18763-6.446-20.72717.81935L1280.96069,796.85222a161.9402,161.9402,0,0,0-12.76991-30.86754c-14.85445-27.35124-34.76893-45.90709-50.88031-57.93944-1.03973-.77588-2.01893-1.44625-3.02585-2.16624a500.60919,500.60919,0,0,0,40.8057-34.33722c16.35613-15.44926,32.9065-33.39995,45.88836-53.35554a158.95856,158.95856,0,0,0,16.19964-31.74888,104.20574,104.20574,0,0,0,6.708-35.75245q0-3.10039-.217-6.21942c-.24476-3.507-.7369-6.73461-1.17358-10.02432A71.28325,71.28325,0,0,1,1343.54838,548.77292Zm81.13434,733.87759c-12.01529,18.03451-39.09206,56.11454-76.1273,93.10841-2.776,2.77457-5.78938,5.487-8.674,8.23981q-8.29037,7.914-17.11075,15.54236-9.45255,8.1747-19.45515,15.8248c-3.36658,2.56971-6.75841,5.10523-10.21587,7.56016-4.93125,3.50385-9.97372,6.76875-15.07149,9.99018-4.1389,2.61622-8.20448,5.38151-12.44689,7.7743-.85551.48417-1.73381.91245-2.5944,1.38421a252.82,252.82,0,0,1-24.51518,11.871c-22.8168,9.54333-46.65315,15.291-71.09516,15.28788-35.26862.00625-69.32346-11.81821-100.78142-30.02955-2.10481-51.003-35.75576-91.60628-77.576-92.51248a888.37546,888.37546,0,0,0-27.35434-120.10272c-.83533-2.70317-1.76662-5.217-2.62213-7.87982,8.31054-9.54948,17.3656-19.39068,27.15749-29.173,24.0483-24.04594,52.25067-47.57675,82.97413-64.92849,1.39062-.78515,2.81143-1.48971,4.21207-2.25006,9.91056,40.02285,40.13949,69.14306,75.928,69.15244,22.24394-.00625,42.31985-11.28432,56.73023-29.40577,11.19013,34.05791,35.52108,59.80771,65.30069,67.72788a75.16094,75.16094,0,0,0,14.58952,2.29041c1.595.10238,3.16971.298,4.78492.298a74.87159,74.87159,0,0,0,9.91057-.68893c21.91585-2.91418,41.46188-15.37785,55.93279-33.90893,10.75344,11.213,20.68681,22.38868,29.40869,32.94069,14.50372,17.52865,25.99915,33.31925,33.82517,44.66258C1421.64409,1278.11316,1423.25174,1280.50283,1424.68272,1282.65051Zm-3.69728,162.24522a66.57908,66.57908,0,0,1,14.99077,10.7133c3.43219,3.42316,4.83036,6.24424,5.20128,7.6688a48.78822,48.78822,0,0,1,.95655,6.21942c1.21641,10.92129,1.913,31.9537,1.89524,59.10326,0,6.145-.03281,12.6313-.096,19.39693-37.27-12.69334-85.36413-24.30981-127.06815-33.36585-9.474-2.05146-18.587-3.96321-27.14747-5.7167l1.72364-43.81841a415.62941,415.62941,0,0,0,56.48793-43.25668c7.72759,1.46481,15.42484,3.06316,22.88488,4.92529C1390.14838,1431.54442,1408.06411,1437.76385,1420.98544,1444.89573Zm-30.68564,794.97954a31.01446,31.01446,0,0,1-1.28958,3.23705c-2.93,2.29353-8.76732,4.96876-16.58318,6.54836-8.525,1.8124-19.117,2.63487-30.40807,2.62559-22.61486.00928-48.02852-3.1967-67.59473-6.43982-4.95913-.81925-9.537-1.6387-13.62295-2.40529l3.47764-88.332c26.42566,3.87939,60.1447,7.83019,94.21971,7.83644a340.48767,340.48767,0,0,0,46.45876-3.01979c-3.32376,25.55736-6.72314,46.95915-9.97619,62.095A160.11092,160.11092,0,0,1,1390.2998,2239.87527Zm-1042.9562,9.78844c-7.83608-1.58585-13.68853-4.27358-16.611-6.57014a60.28533,60.28533,0,0,1-2.77858-8.09084c-2.84421-9.95608-6.08967-26.442-9.2443-47.223-1.30729-8.55643-2.60949-17.91034-3.90165-27.85392a340.60217,340.60217,0,0,0,46.46634,3.01979c33.7671-.003,67.23891-3.88242,93.57878-7.72146,3.05119-.44685,5.98115-.88764,8.82786-1.32823l3.46254,87.95657c-18.58455,3.74906-56.73527,10.46809-89.38939,10.434C366.46064,2252.29537,355.86867,2251.47611,347.3436,2249.66371Zm-71.60236-721.0632c0-18.14315.2852-33.4403.858-44.95429.28265-5.74767.64356-10.555,1.03723-14.14887a48.65745,48.65745,0,0,1,.95648-6.2163c.371-1.42759,1.76912-4.24867,5.20135-7.67183,5.9004-6.04251,17.30248-12.81751,31.4453-18.32622,18.264-7.27148,40.9243-12.70888,63.51389-16.65342a417.448,417.448,0,0,0,57.80277,44.31186l1.66565,42.31638c-10.82915,2.17865-22.75872,4.65214-35.31664,7.374-41.7016,9.056-89.79065,20.67251-127.06064,33.36282C275.78414,1541.25966,275.74124,1534.71442,275.74124,1528.60051Zm27.5815-245.95a638.35983,638.35983,0,0,1,68.08183-84.881c14.47341,18.56205,34.03712,31.05063,55.97561,33.96793a74.85371,74.85371,0,0,0,9.91057.68894c1.6152,0,3.19-.19549,4.78492-.298a75.39157,75.39157,0,0,0,14.58951-2.29041c29.77961-7.917,54.11064-33.67,65.3007-67.72788,14.4103,18.12136,34.48636,29.39952,56.73022,29.40577,35.78857-.00928,66.01241-29.12646,75.928-69.14618,2.39754,1.30351,4.81018,2.56346,7.17992,3.94142,39.06688,22.66183,73.76519,55.14933,101.03628,85.539a812.65946,812.65946,0,0,0-25.2319,96.575c-2.617,13.09994-4.94142,26.265-6.99316,39.34936a64.47919,64.47919,0,0,0-10.08971-1.2538c-43.83162.01241-79.34254,43.68194-79.35263,97.58363,0,1.859.36344,3.5908.4467,5.42489-25.77957,12.18123-52.98758,19.7073-80.98547,19.70418-27.39724.00625-54.045-7.17838-79.32991-18.89421-5.49911-2.548-10.92-5.34116-16.2829-8.29569-1.85241-1.02109-3.725-1.98629-5.55971-3.05076-3.21269-1.86525-6.32188-3.94767-9.4765-5.937q-7.6657-4.83682-15.07657-10.08953c-3.8209-2.71557-7.63671-5.42186-11.3491-8.277-6.7105-5.16737-13.18129-10.56129-19.50567-16.06687q-8.89226-7.74638-17.2091-15.75338a581.06038,581.06038,0,0,1-44.80323-48.33095c-14.50368-17.52865-26.00165-33.31925-33.82513-44.66257C306.36126,1287.18777,304.75368,1284.7981,303.32274,1282.65051Zm71.94559-162.5588a92.28416,92.28416,0,0,1,.80506-9.835,90.14892,90.14892,0,0,1,3.39942-17.22756,82.54344,82.54344,0,0,1,7.397-17.08171,76.09251,76.09251,0,0,1,6.56667-9.78844,60.52834,60.52834,0,0,1,26.678-19.01212,51.276,51.276,0,0,1,14.56171-3.00728c.88831-.0466,1.71864-.32278,2.61458-.32278a51.4356,51.4356,0,0,1,12.11125,1.499c12.26514,2.98247,23.20035,10.35643,31.74563,20.84005,1.383,1.70386,2.48334,3.70872,3.73,5.56147.61829.91861,1.26693,1.80312,1.84987,2.759a80.85614,80.85614,0,0,1,6.90482,14.08371c.24731.66412.60066,1.24763.83279,1.921a89.036,89.036,0,0,1,3.6922,15.48649c.09335.60208.07317,1.24763.15142,1.85587a93.30343,93.30343,0,0,1,1.00446,12.26818c-.00755,21.11936-6.92,40.07247-18.16558,53.92973a60.7207,60.7207,0,0,1-25.94107,18.72969,51.26636,51.26636,0,0,1-14.55417,3.19348c-1.13569.07757-2.20823.41588-3.359.41588a51.2801,51.2801,0,0,1-11.35919-1.4059c-12.06077-2.74663-22.80667-9.76363-31.35946-19.78174-.35586-.41588-.78739-.72625-1.13566-1.15454a76.69413,76.69413,0,0,1-8.26764-12.85473,84.47653,84.47653,0,0,1-6.34455-16.59754A90.9291,90.9291,0,0,1,375.26833,1120.09171ZM482.041,906.88067c1.78172-1.4524,3.56343-2.95766,5.34522-4.38837,2.75337-2.21284,5.50927-4.43184,8.26256-6.595,1.43344-1.12659,2.86943-2.17552,4.30287-3.28971,3.301-2.56346,6.59945-5.07427,9.89794-7.56632.93376-.70446,1.86751-1.44,2.80127-2.14143q58.80468-44.076,117.34442-73.37316c1.47388,12.68093,5.6506,24.7505,11.4349,36.46311,2.46316,4.93144,5.29469,9.835,8.30545,14.72614q5.67069,9.21277,12.44181,18.33862,5.879,7.90932,12.45445,15.75963,6.337,7.57419,13.18888,15.09551c1.88268,2.05761,3.89661,4.08113,5.8272,6.12945,4.09092,4.33562,8.23482,8.64016,12.50489,12.90749q4.66,4.65526,9.41588,9.24849c1.47635,1.42143,2.93759,2.83661,4.42657,4.24564.49213.4655.99683.9186,1.49151,1.38421q-.98047,8.53782-1.277,17.31138l-.00755.18308c-.08326,2.48589-.30537,4.92529-.30537,7.43287.00508,70.08961,33.169,130.484,81.17732,159.23178a270.924,270.924,0,0,0-18.49113,33.54277q-3.57736,7.69977-6.97552,15.9303c-3.38429-3.64659-6.84428-7.3088-10.42543-10.9802-25.68114-26.28985-56.35669-52.73484-90.85314-72.78349-5.436-3.15626-11.00082-6.086-16.62362-8.89777-1.971-26.16256-12.3232-49.29928-27.73542-65.363a81.50132,81.50132,0,0,0-12.07082-10.35955,72.79817,72.79817,0,0,0-13.93333-7.66567c-.48451-.19861-.94384-.45623-1.43344-.64556a65.814,65.814,0,0,0-23.5158-4.47522c-.10852,0-.212-.01865-.32055-.01865a65.37452,65.37452,0,0,0-17.83748,2.56659c-23.00349,6.508-42.15589,25.25323-52.70493,50.41649-14.63241-22.10938-35.9627-37.19551-60.19776-40.6684l-2.76846-70.30688Q463.62684,921.83326,482.041,906.88067ZM849.34,828.88634a94.31358,94.31358,0,0,1,14.65768-1.27558h.00508a94.77475,94.77475,0,0,1,14.66268,1.27861c3.041.47791,6.06949.9993,9.0298,1.76277a99.24312,99.24312,0,0,1,22.2136,8.77361,117.37139,117.37139,0,0,1,35.24852,29.52368,148.487,148.487,0,0,1,26.38778,50.86344c.88076,2.92972,1.7489,5.86255,2.47325,8.88224,1.24167,5.16425,2.1956,10.47122,2.95276,15.86827.159,1.12347.28519,2.26247.42144,3.39522a173.60824,173.60824,0,0,1,1.38045,20.79971c0,.04659-.00508.09-.00508.13657-.03789,38.98007-12.84307,74.09941-33.6106,99.66917-12.86833,15.80614-28.72224,27.83224-46.44366,34.73756-1.89531-1.79383-3.79818-3.56589-5.77675-5.13943-9.87776-7.87669-21.13343-12.864-33.05284-12.84857-11.9194-.01553-23.17515,4.97492-33.05283,12.84857-.99684.8007-1.88523,1.89622-2.86189,2.74967a115.18388,115.18388,0,0,1-41.13124-32.34789c-20.76753-25.56986-33.57278-60.6891-33.61314-99.66917,0-.0466-.00508-.09-.00508-.13658a173.668,173.668,0,0,1,1.383-20.806c.13625-1.12972.26248-2.25934.4189-3.37968.7647-5.428,1.72118-10.76606,2.9704-15.95824.71926-2.9856,1.57985-5.88737,2.453-8.78915a148.42,148.42,0,0,1,26.39032-50.87272,117.459,117.459,0,0,1,35.26362-29.533,99.1496,99.1496,0,0,1,22.20851-8.77049C843.27054,829.88876,846.29893,829.36435,849.34,828.88634Zm237.23273,17.10652c5.7843-11.7126,9.96109-23.7853,11.43489-36.46624q58.551,29.28621,117.34689,73.37317c.91867.68893,1.83733,1.412,2.75337,2.1042,3.31358,2.50456,6.62979,5.02455,9.94584,7.60052,1.43344,1.11418,2.86689,2.16008,4.303,3.28971,2.75336,2.16312,5.50919,4.38211,8.26255,6.595,1.77925,1.42758,3.55835,2.93283,5.33514,4.37908q18.41665,14.99464,36.86365,31.41063l-2.76846,70.30687c-24.23515,3.47592-45.56536,18.559-60.19785,40.67153-10.55166-25.16014-29.70136-43.91152-52.70238-50.4165a65.37458,65.37458,0,0,0-17.83748-2.56659c-.1086,0-.21195.01866-.32055.01866a65.811,65.811,0,0,0-23.51334,4.47522c-.48706.18933-.95147.44694-1.43344.64555a72.38878,72.38878,0,0,0-13.93333,7.66567,81.68281,81.68281,0,0,0-12.0709,10.35956c-15.40975,16.06375-25.7644,39.20046-27.73542,65.363-5.62533,2.8118-11.19006,5.74151-16.62362,8.89778-42.16343,24.52708-78.50975,58.51045-107.09567,90.21591-7.76541-19.59867-16.235-37.43144-25.59535-52.40894,51.22859-27.16811,87.10541-89.77835,87.113-162.748,0-2.51071-.22212-4.9501-.30538-7.436l-.00754-.18307q-.30662-8.82168-1.28958-17.39824c.472-.44694.9363-.89692,1.40826-1.34386q2.29781-2.17406,4.573-4.36043c3.14454-3.02594,6.30416-6.00841,9.38061-9.08085,4.29533-4.29214,8.41151-8.65569,12.52515-13.01924q9.97866-10.586,18.95046-21.32735c1.61266-1.93041,3.412-3.84217,4.96414-5.77561,2.60449-3.25249,5.10039-6.508,7.52311-9.76988,4.52746-6.09223,8.65126-12.21542,12.43928-18.36344C1081.2729,855.82174,1084.11715,850.92752,1086.57276,845.99286Zm12.68149,247.90219c.00247-.96208.19686-1.859.23475-2.8118a73.65929,73.65929,0,0,1,3.412-19.91207,61.83458,61.83458,0,0,1,15.74785-25.56048c.23721-.22655.45687-.481.69408-.70446a47.72665,47.72665,0,0,1,12.90869-8.62776,42.33452,42.33452,0,0,1,8.54013-2.86767,41.12483,41.12483,0,0,1,8.51994-1.07072c1.06746.00313,2.06437.31037,3.11673.39107,15.07657,1.19175,28.25791,10.43712,36.793,24.41844.91358,1.49588,1.77663,3.01354,2.57669,4.61492a69.49153,69.49153,0,0,1,6.10992,18.02826c.0707.36312.2044.69518.26756,1.06143a75.2739,75.2739,0,0,1,1.19376,13.04718c-.00246,1.66967-.29774,3.23384-.40634,4.86629-.01016.16754-.02772.32893-.04035.49657-2.28141,31.43231-23.46529,56.13632-49.61092,56.19523-23.25333-.05276-42.595-19.62036-48.23538-46.04054A74.42249,74.42249,0,0,1,1099.25425,1093.89505Zm82.72429,1033.33518c-3.8966,3.61874-7.79321,7.23123-11.773,10.71945-3.97732,3.4852-7.92691,7.00146-11.9851,10.35331a493.67719,493.67719,0,0,1-127.51238,76.877c-4.87581,1.99254-9.7667,3.92276-14.70558,5.74463-4.78747,1.7658-9.66073,3.28043-14.50372,4.88182q-18.10623,5.99126-36.6946,10.39668c-4.80764,1.142-9.56484,2.45492-14.42038,3.43557-4.8051.97136-9.65819,1.72867-14.50619,2.53864a412.96906,412.96906,0,0,1-143.75484,0c-4.848-.81319-9.70108-1.56728-14.50618-2.53864-4.85308-.98065-9.61028-2.29354-14.41792-3.43557a444.77862,444.77862,0,0,1-46.35779-13.64927c-4.75465-1.69136-9.56484-3.206-14.26142-5.0557-4.78492-1.88685-9.42351-4.15557-14.14782-6.204-47.79631-20.71589-92.41027-49.53814-132.78691-85.30616q-5.98873-5.30224-11.85378-10.79409c-3.91171-3.6714-7.89165-7.23123-11.71755-11.033a590.84078,590.84078,0,0,1-42.47134-47.4899c-2.75337-3.40451-5.61271-6.67262-8.30546-10.15157-2.41772-3.12207-4.77991-6.30022-7.14711-9.4812-5.32751-7.15982-10.47842-14.52137-15.54345-21.9729a691.76638,691.76638,0,0,1-84.36722-171.81951,196.2035,196.2035,0,0,1-9.93075-61.66975c-.01263-43.41807,14.41034-84.76309,38.5293-115.17441a138.37762,138.37762,0,0,1,40.66691-35.048,117.70367,117.70367,0,0,1,14.40783-6.93327,113.26087,113.26087,0,0,1,14.50118-4.53422c2.91233-.71072,5.8979-1.21345,8.88847-1.69458a113.10287,113.10287,0,0,1,17.85766-1.58907H777.29371c1.94322,1.558,3.71485,3.48841,5.73131,4.87878,22.9076,15.92727,49.43924,21.63459,76.86428,21.65012,18.30945-.00625,36.14439-2.55721,52.8488-8.9599a109.89723,109.89723,0,0,0,30.27929-17.569H1228.854c3.26322.003,6.4354.33509,9.62283.60823a109.93041,109.93041,0,0,1,31.62433,7.20945,117.67584,117.67584,0,0,1,14.40529,6.93327,138.373,138.373,0,0,1,40.66691,35.048c24.11638,30.41132,38.54185,71.75615,38.52675,115.17441a196.23883,196.23883,0,0,1-9.92828,61.66975,691.68427,691.68427,0,0,1-84.36984,171.81951c-5.06757,7.45153-10.21586,14.80986-15.54345,21.96968-4.98177,6.69422-10.18059,13.11547-15.38186,19.549-.02265.02785-.04791.05588-.0707.087A583.014,583.014,0,0,1,1181.97854,2127.23023Zm-4.54,101.4971c.02265,34.24715-8.93892,64.92537-22.66784,86.36144-13.82982,21.51355-31.64974,33.47752-50.75416,33.49305-19.10441-.01553-36.92418-11.98272-50.75408-33.49305-9.05-14.13343-15.95734-32.33548-19.65709-52.87767,49.23993-19.30374,95.47148-46.84435,137.7157-81.20951A184.13073,184.13073,0,0,1,1177.43853,2228.72733Zm-313.43582,65.81925a459.42136,459.42136,0,0,0,73.03584-5.95262c-1.81452,29.34374-10.19068,55.40382-22.28176,74.28552-13.83236,21.51355-31.64966,33.47752-50.75408,33.49305-19.10441-.01553-36.92426-11.98272-50.75407-33.49305-12.091-18.87867-20.46716-44.942-22.28176-74.28552A459.42133,459.42133,0,0,0,864.00271,2294.54658ZM545.31263,2171.54824c41.65866,35.72446,87.46131,64.61812,136.35288,85.40864a135.80894,135.80894,0,0,1-15.08166,33.794c-13.82989,21.51355-31.64974,33.47752-50.75408,33.49305-19.10441-.01553-36.92426-11.98272-50.75407-33.49305-13.72893-21.43588-22.688-52.1141-22.66531-86.36143A188.39658,188.39658,0,0,1,545.31263,2171.54824ZM466.58838,1481.964q7.25687,3.51943,14.71067,6.595c25.03,10.32537,51.60966,16.731,79.32991,16.73724,30.938-.00625,60.49559-7.886,88.01144-20.41489,12.58059,33.45895,39.92993,56.79731,71.88,56.80659a63.748,63.748,0,0,0,8.0935-1.00555c.8656,3.78,1.648,7.6812,2.65494,11.26566a170.97082,170.97082,0,0,0,16.15165,38.59516H499.15417a136.29279,136.29279,0,0,0-17.85767,1.19488c-3.49781.45935-6.89473,1.25076-10.31182,1.97076l-2.20069-55.9252-.6511-16.51685-.06308-1.59523-.71172-18.109Zm258.25-90.08246c-.87068,8.17778-1.47388,16.11338-2.072,24.04594-.58548,7.76806-1.00692,15.29413-1.31992,22.75494-.34319,8.153-.7647,16.41134-.76717,24.10495a413.56788,413.56788,0,0,0,2.18051,42.54606c-.79243.04659-1.53695.29171-2.33947.29483-19.81606-.04347-36.76522-14.31963-44.86881-34.8586a71.27721,71.27721,0,0,1-4.38875-17.4293,74.71215,74.71215,0,0,1-.76717-9.22983,75.48693,75.48693,0,0,1,.93884-11.28744c4.34831-28.55536,24.6086-50.17754,49.08843-50.23342a40.33215,40.33215,0,0,1,5.31241.66724C725.49713,1386.14319,725.14378,1389.0139,724.8384,1391.88158Zm535.74586,111.24217-.71426,18.11833-.08071,2.02967-.63339,16.0824-2.14015,54.35489a135.51249,135.51249,0,0,0-18.54666-2.56346c-3.20253-.22655-6.3647-.60521-9.62283-.60521H972.79685c.92621-1.66351,1.91041-3.23383,2.78871-4.97179q9.79706-19.27742,15.52828-44.312c33.06046-1.797,60.62683-28.28231,71.10771-64.96884,32.24778,17.39823,67.6729,29.0023,105.15238,29.00855,24.69432-.00313,48.4954-5.068,71.09516-13.45994,7.80584-2.89865,15.445-6.235,22.94541-9.87226Zm-223.18072-62.24711c.048,1.0924.26748,2.12277.26748,3.22768a74.15116,74.15116,0,0,1-1.93821,15.9769c-4.96414,22.50669-19.85395,39.91421-38.67571,44.36158,1.2972-12.97577,2.03156-26.77705,2.0341-41.6553-.01009-9.96223-.38362-20.4397-.95393-31.16238-.40635-7.64086-.90349-15.39035-1.5824-23.32292-.69908-8.17153-1.60758-16.52-2.58423-24.918.05807.00928.1186.01241.17922.02169,16.48729,2.69075,30.3121,15.09238,37.68888,32.5124A72.02922,72.02922,0,0,1,1037.40354,1440.87664Zm-77.33124-87.94719c.95394,6.01456,1.6732,11.88024,2.49344,17.83893.217,1.589.424,3.16251.63092,4.74524.61829,4.67392,1.33756,9.40675,1.87,14.01542.49715,4.32008.85805,8.46324,1.27949,12.70887,2.12744,21.51042,3.42973,42.17668,3.4221,60.54637a367.4929,367.4929,0,0,1-1.91041,37.76038c-.64856,6.33734-1.46124,12.32094-2.42527,17.991-1.04982,6.17293-2.25868,11.98576-3.6493,17.39521-.35082,1.36555-.62338,2.911-.99684,4.2301-6.54145,22.95658-15.74284,38.84672-27.208,50.37918a85.19591,85.19591,0,0,1-11.28594,9.56814,83.8093,83.8093,0,0,1-15.84628,8.46324c-13.72893,5.73839-29.39607,8.50984-46.55719,8.49734-16.081.00625-31.01119-2.28729-44.10919-7.32424-.843-.329-1.56976-.82248-2.39754-1.1731a82.7169,82.7169,0,0,1-26.837-18.03138,95.17291,95.17291,0,0,1-17.50184-24.11111c-5.002-9.804-9.1863-21.76491-12.39137-35.91378-1.28957-5.69491-2.44545-11.694-3.3792-18.16483-.90349-6.25665-1.605-12.93543-2.14008-19.95867-.70162-9.21743-1.1256-18.99659-1.1256-29.61054-.01764-15.831.82269-33.20758,2.41518-51.45311.36591-4.19288.90094-8.55946,1.34764-12.8392.4467-4.286.84542-8.51912,1.36783-12.87339.31292-2.60381.66373-5.217,1.00446-7.84259q1.20376-9.26862,2.62967-18.66765c.06308-.42516.1136-.84417.17922-1.26933,6.16792-40.33321,15.24562-81.78365,26.58209-118.47028.05807-.18932.12369-.35687.18168-.5462,1.92813-6.25361,3.98495-12.19677,6.03668-18.14314,2.08963-6.06116,4.2398-11.83677,6.43794-17.51,7.78813-20.1014,16.12894-37.88454,24.73984-51.28235a131.9083,131.9083,0,0,1,7.768-10.86228,77.09751,77.09751,0,0,1,12.0431-12.5599c1.10789-.8721,2.16025-1.5455,3.22024-2.24381,5.01205-3.30524,9.57239-4.82593,13.92578-4.83834,4.77484.01553,9.79451,1.83418,15.392,5.86255.588.42516,1.15079.74794,1.754,1.22282,4.2676,3.33631,8.75978,8.454,13.28978,14.41577a198.06239,198.06239,0,0,1,21.41863,36.57174c4.35085,9.32919,8.54774,19.56761,12.5655,30.46408,2.12744,5.76633,4.18935,11.7468,6.20581,17.86384,1.99374,6.04563,3.92179,12.25577,5.79693,18.587,6.63988,22.41662,12.53269,46.37884,17.38323,70.67928,1.96094,9.77916,3.60133,19.6018,5.22908,29.40265C959.27741,1348.60624,959.72912,1350.77249,960.0723,1352.92945Zm-331.3212-259.0344a74.517,74.517,0,0,1-1.812,15.48648c-5.63289,26.43571-24.98206,46.01885-48.243,46.0716-26.148-.059-47.332-24.76291-49.61337-56.19835-.01263-.16452-.03027-.32591-.04036-.49032-.10852-1.63558-.4038-3.19974-.40634-4.86629a75.33077,75.33077,0,0,1,1.19369-13.04718c.06561-.36625.19939-.69518.26748-1.06143a69.39191,69.39191,0,0,1,6.10985-18.02826c.80251-1.59835,1.6631-3.11592,2.57668-4.61492,8.53512-13.98132,21.71645-23.22669,36.793-24.41844,1.04982-.08382,2.04673-.39107,3.11426-.39107a41.12551,41.12551,0,0,1,8.52,1.07072,42.44713,42.44713,0,0,1,8.53767,2.86767,47.76473,47.76473,0,0,1,12.90869,8.62776c.23975.22342.45933.47791.694.70446a61.83355,61.83355,0,0,1,15.74785,25.56048,73.67868,73.67868,0,0,1,3.412,19.91207C628.55424,1092.03605,628.74863,1092.933,628.7511,1093.89505ZM407.99315,1550.14512c11.19259-2.42386,21.80221-4.62742,31.65725-6.6229l2.3521,59.77353c-23.09691,10.54575-43.612,27.01913-60.165,47.93372-29.26228,36.91631-46.84237,87.07216-46.855,140.35008a239.73315,239.73315,0,0,0,12.0885,75.25385c26.69569,80.74409,65.596,153.754,113.79863,215.73122l1.38554,35.19388c-6.46574,1.00868-13.29485,2.039-20.80788,3.05691-23.86661,3.2308-52.22287,6.0767-80.17536,6.07348a299.18613,299.18613,0,0,1-50.92826-4.016c-8.08591-72.24656-15.62924-166.84772-21.54986-261.78719-6.231-99.694-10.70554-199.96231-12.34847-275.80886C312.30965,1572.35063,363.94954,1559.66344,407.99315,1550.14512ZM1409.40668,2122.876a299.32817,299.32817,0,0,1-50.908,4.0097c-31.95257.003-64.41238-3.715-90.12132-7.47009-.92375-.13657-1.7717-.26993-2.67758-.40347l1.43344-36.44767c48.20258-61.977,87.10287-134.98713,113.79856-215.73122a239.66005,239.66005,0,0,0,12.08846-75.25385c-.01263-53.27489-17.59272-103.43377-46.85493-140.35008-16.55546-20.91459-37.068-37.391-60.165-47.93372l2.28649-58.10083c18.70315,3.85458,39.79877,8.41664,61.24512,13.50341,33.55761,7.945,67.85967,17.19338,93.7932,26.51944-2.1628,99.85538-9.24176,242.07676-18.75106,369.597C1419.9836,2016.47828,1414.815,2074.58536,1409.40668,2122.876ZM502.96744,2406.15188l-10.115-256.97054-.71172-18.06548-.02526-.64555-.44162-11.23772c3.23542,3.56911,6.45812,7.15679,9.7617,10.63573.06562.06819.13378.13658.1994.20477.56022.58967,1.14324,1.15131,1.706,1.738.15142.15835.30792.31027.45933.4656h0c.02018.02178.04036.04035.06054.06213,3.45745,3.597,6.93509,7.16285,10.46324,10.66055,1.86,1.84346,3.74265,3.64355,5.62279,5.459a229.37084,229.37084,0,0,0-6.86446,55.92833c.02272,41.90363,10.77871,80.16977,28.93165,108.63837,18.04951,28.394,44.27324,47.29442,73.81564,47.27888,29.54239.01554,55.76612-18.88492,73.81563-47.27888a176.416,176.416,0,0,0,20.00791-45.20263,468.77452,468.77452,0,0,0,51.809,15.06445c1.05744,39.38354,11.50305,75.25385,28.72471,102.2637,18.04951,28.394,44.27323,47.29443,73.81563,47.27889,29.5424.01554,55.76612-18.88492,73.81564-47.27889,17.22173-27.00985,27.66479-62.87713,28.72224-102.2637q19.66214-4.49245,38.812-10.67911c4.68149,24.6449,13.22415,46.922,24.84835,65.15191,18.04951,28.394,44.27324,47.29442,73.81564,47.27889,29.5424.01553,55.76612-18.88492,73.81571-47.27889,18.15295-28.47163,28.909-66.73473,28.93165-108.63836a224.358,224.358,0,0,0-10.63237-68.99095q7.06394-6.44758,13.94088-13.18063c2.15016-2.09484,4.26259-4.2518,6.38749-6.38394.03035-.03107.06054-.06214.08826-.09.38108-.38169.75462-.77285,1.13308-1.15453q1.04852-1.06154,2.09209-2.12893c1.95331-1.98932,3.93188-3.94758,5.86255-5.97119.1337-.1396.27249-.27315.40634-.41578,3.48025-3.65284,6.8821-7.41422,10.28657-11.16953l-.45687,11.58228-.06562,1.63245-.71163,18.07173-3.58115,91.00723-1.20378,30.579-5.27706,134.04986q-180.78254,77.743-361.0352,77.86714Q683.63923,2484.00641,502.96744,2406.15188Zm846.20874-1261.5455a84.37829,84.37829,0,0,1-6.337,16.56345,76.8244,76.8244,0,0,1-8.26763,12.85473c-.33056.40347-.73952.69518-1.07763,1.0924-8.56046,10.05231-19.33146,17.088-31.42007,19.84075a51.07736,51.07736,0,0,1-11.35911,1.4059c-1.15326,0-2.22333-.34134-3.359-.41588a51.27145,51.27145,0,0,1-14.55424-3.19348,60.72064,60.72064,0,0,1-25.94107-18.72969c-11.248-13.86029-18.158-32.8134-18.16558-53.92973a93.43507,93.43507,0,0,1,.99938-12.21543c.08071-.62377.06053-1.291.15649-1.90862a89.02971,89.02971,0,0,1,3.69221-15.48649c.23213-.67349.58548-1.25691.83286-1.921a80.92869,80.92869,0,0,1,6.9049-14.08371c.583-.9528,1.2315-1.84034,1.8498-2.759,1.24675-1.85275,2.347-3.8577,3.73009-5.56147,8.54274-10.48362,19.47795-17.85758,31.74555-20.84005a51.09385,51.09385,0,0,1,12.11126-1.499c.89848,0,1.72873.27618,2.617.32278a51.06594,51.06594,0,0,1,14.56179,3.00728,60.5108,60.5108,0,0,1,26.68059,19.01212,76.52733,76.52733,0,0,1,6.54138,9.75122,82.64,82.64,0,0,1,7.41968,17.11893,90.35343,90.35343,0,0,1,3.4171,17.43243,92.51054,92.51054,0,0,1,.78742,9.63018A91.4597,91.4597,0,0,1,1349.17618,1144.60638ZM1242.98907,1950.1222c5.49918-9.25768,10.72819-18.78244,15.80084-28.49019q8.39642-16.06527,15.97506-32.90659a649.83023,649.83023,0,0,0,24.67414-62.65058,108.78823,108.78823,0,0,0-7.37162-85.86174l-.00508-.01251a97.69542,97.69542,0,0,0-10.83925-15.59521,82.11832,82.11832,0,0,0-9.51177-9.70471c-1.40818-1.20417-3.08654-2.278-4.65122-3.41379a66.65106,66.65106,0,0,0-14.35985-8.14046,63.87829,63.87829,0,0,0-14.23108-3.66837,61.66254,61.66254,0,0,0-9.62036-.94655H499.15925a61.9282,61.9282,0,0,0-17.8602,2.79324c-2.01393.5927-4.1111,1.06456-5.99633,1.8249a66.64723,66.64723,0,0,0-14.35985,8.14046c-1.55967,1.13275-3.23541,2.20659-4.64359,3.40772a82.29574,82.29574,0,0,0-9.5194,9.714,97.41632,97.41632,0,0,0-10.8317,15.58574,108.73533,108.73533,0,0,0-7.39195,85.87728,649.33718,649.33718,0,0,0,24.68431,62.67236q7.57872,16.852,15.975,32.90659c3.95213,7.56007,7.87138,15.14515,12.08345,22.43529,1.19369,2.067,2.50352,4.00667,3.71739,6.04866,25.27233,42.54293,54.77938,80.45844,87.91555,112.58291,4.30541,4.17413,8.82786,7.976,13.24942,11.96093,4.7042,4.23948,9.315,8.63391,14.14281,12.65309a448.61667,448.61667,0,0,0,76.733,51.34126c6.38241,3.39219,12.74718,6.809,19.26337,9.85361,5.638,2.63487,11.38946,4.95625,17.12077,7.32745a398.9702,398.9702,0,0,0,70.96138,21.98522c5.38557,1.12346,10.78124,2.16321,16.21727,3.06013,5.78429.95583,11.609,1.71939,17.44631,2.41457a348.024,348.024,0,0,0,91.86769,0c5.83982-.69518,11.662-1.45855,17.44885-2.41457,5.436-.89692,10.8317-1.93667,16.21728-3.06013a398.91478,398.91478,0,0,0,69.27555-21.26522c6.63479-2.70932,13.27213-5.4033,19.78324-8.46646,8.891-4.1836,17.59519-8.84492,26.23636-13.671a441.76469,441.76469,0,0,0,40.24794-25.18495c7.13456-5.05873,14.06964-10.49915,20.97192-16.011,5.23671-4.18038,10.36482-8.54393,15.46274-12.9789,38.98362-33.93383,73.692-75.24154,102.89616-122.79035C1239.9757,1955.01955,1241.51265,1952.60819,1242.98907,1950.1222Zm-154.10471,124.55635a414.20186,414.20186,0,0,1-46.431,29.24751,388.76925,388.76925,0,0,1-56.74032,25.25333l-37.03023-394.38474h140.72144l47.99817,299.11A445.79985,445.79985,0,0,1,1088.88436,2074.67855Zm-224.88673,75.62c-11.10934-.003-22.13789-.53076-33.0781-1.52391-7.65189-.69518-15.19264-1.93344-22.74864-3.10351a368.139,368.139,0,0,1-37.19174-7.62845l37.863-403.2452H919.16063l37.863,403.242a368.30208,368.30208,0,0,1-37.1892,7.63148c-7.55593,1.17007-15.09675,2.40833-22.74864,3.10654C886.14315,2149.7678,875.11206,2150.29553,863.99763,2150.29856ZM607.42335,2049.13351c-5.66068-4.98429-11.35664-9.90645-16.82047-15.21958l48.00072-299.11625H779.3225l-37.03024,394.38777a386.03087,386.03087,0,0,1-44.47764-18.72353q-14.68032-7.31336-28.85348-15.86211a422.858,422.858,0,0,1-37.58037-25.818Q619.1384,2059.42468,607.42335,2049.13351ZM481.299,1876.7336q-8.13891-17.62943-15.276-36.15274c-3.56343-9.25465-7.13194-18.50929-10.30174-28.08994a65.59517,65.59517,0,0,1-3.4171-20.76552,67.14884,67.14884,0,0,1,7.96735-31.38571c.59558-1.09866,1.45116-2.49205,2.43536-3.98793a55.10713,55.10713,0,0,1,10.25376-11.7717c1.19623-1.00243,2.5237-1.91488,3.85371-2.82411a41.73634,41.73634,0,0,1,4.48463-2.60381,38.44467,38.44467,0,0,1,17.8602-4.35427H608.71039l-43.67012,272.14371c-32.36392-36.79526-60.31892-79.8843-82.83026-128.15312C481.89462,1878.11147,481.612,1877.41,481.299,1876.7336ZM1119.295,1734.79446h109.5563a40.29909,40.29909,0,0,1,9.62037,1.26,38.54385,38.54385,0,0,1,12.71938,5.698c1.32993.90942,2.66,1.8249,3.85625,2.82733a55.21446,55.21446,0,0,1,10.24868,11.7717c.98674,1.49588,1.83732,2.88624,2.43281,3.98187a67.22382,67.22382,0,0,1,7.96235,31.38893,65.65472,65.65472,0,0,1-3.41957,20.77177c-3.16725,9.56814-6.73068,18.81029-10.28918,28.05888q-7.54452,19.59876-16.18454,38.21669c-2.37737,5.09908-4.82528,10.11425-7.32634,15.09229-21.16878,42.17678-46.55964,80.15745-75.50654,113.07011Zm164.65869-452.386c4.35594.15514,6.76349.24208,6.76349.24208s-2.55142,5.81283-7.35159,14.71686c-3.81589,7.076-9.09789,16.11337-15.69733,25.85531-40.0688,59.14048-129.36727,143.24873-243.46873-40.57529-5.214-8.40121,181.01228-2.88624,245.09656-.74482C1275.29746,1282.10734,1280.35487,1282.28114,1283.95373,1282.40843Zm-839.31146,14.962c-4.80264-8.90393-7.35152-14.71686-7.35152-14.71686s2.40763-.09,6.76349-.24208c3.59878-.1272,8.65627-.301,14.66014-.50273,64.08174-2.1383,250.31047-7.65326,245.09649.74481-114.10147,183.82393-203.4,99.71577-243.46873,40.5753A302.43167,302.43167,0,0,1,444.64227,1297.3704Zm350.11524-337.845c-.27,3.07245-.75708,6.07045-.75708,9.233a103.83625,103.83625,0,0,0,.8656,10.53951,102.13733,102.13733,0,0,0,4.16154,21.07588c10.26385,31.8606,35.40749,54.4604,64.97514,54.46655,29.56512-.00928,54.70876-22.60595,64.97261-54.46352a102.2363,102.2363,0,0,0,4.16154-21.07285,103.93962,103.93962,0,0,0,.8656-10.54576c0-3.15939-.48706-6.15426-.75708-9.22671-3.26822-37.12419-25.38085-67.2189-54.575-74.88769a57.64979,57.64979,0,0,0-14.66268-1.96451h-.00508a57.60961,57.60961,0,0,0-14.65768,1.96138C820.14337,892.30039,798.02565,922.40134,794.75751,959.52544ZM849.34,922.24611a34.03641,34.03641,0,0,1,14.65768-3.507h.00508a34.008,34.008,0,0,1,14.66268,3.5101c15.18009,7.2622,25.97643,25.275,26.0067,46.50917-.00255,1.05206-.20187,2.03592-.25493,3.07245A58.55412,58.55412,0,0,1,900.031,991.4512a46.56569,46.56569,0,0,1-17.146,21.32735,32.72764,32.72764,0,0,1-37.77222,0,46.56921,46.56921,0,0,1-17.14348-21.33038,58.55486,58.55486,0,0,1-4.3862-19.62036c-.053-1.03661-.25493-2.01726-.25493-3.06941C823.35606,947.518,834.15749,929.50528,849.34,922.24611Z"/></svg>