<svg id="Layer_1" data-name="Layer 1" xmlns="http://www.w3.org/2000/svg" viewBox="0 0 1728 2592"><defs><style>.cls-1{fill:#39b54a;}.cls-2{fill:#e6e7e8;stroke:#e6e7e8;stroke-miterlimit:10;stroke-width:8px;}</style></defs><title>tiki-2</title><rect class="cls-1" width="1728" height="2592"/><path class="cls-2" d="M1655.51014,624.65725c-.11827-.53379-.30478-1.0397-.47034-1.558a16.92678,16.92678,0,0,0-1.84887-3.92594c-.2721-.42516-.50285-.869-.81051-1.26933a16.11644,16.11644,0,0,0-4.01714-3.80182c-.04441-.02794-.08883-.04968-.13017-.07757-.02366-.01553-.04731-.02794-.074-.04347-97.357-62.08581-189.92757-84.96182-272.34288-84.92147-46.41112.00932-89.27816,7.43913-128.37072,18.68937a898.21942,898.21942,0,0,1,33.05774-93.01545c19.882-47.03375,39.41485-80.43687,53.82429-101.92871,7.20607-10.74746,13.13148-18.51557,17.17823-23.51844,2.02346-2.50143,3.5764-4.31078,4.58823-5.456l1.0974-1.21967.22479-.24208a16.71334,16.71334,0,0,0,2.99665-4.50632c.20113-.42828.30477-.89071.47034-1.33141a17.42853,17.42853,0,0,0,1.00279-4.31078c.05616-.55553.10942-1.108.11249-1.66969a17.2325,17.2325,0,0,0-.82242-5.53666c-.0325-.09931-.00885-.20174-.04442-.301-.006-.01861-.02365-.031-.02961-.04966-.00885-.02794-.00885-.05585-.01769-.08379a16.68215,16.68215,0,0,0-2.95819-4.97492c-.34017-.40968-.72763-.76348-1.10337-1.13588a15.92473,15.92473,0,0,0-3.396-2.56349c-.42592-.239-.83127-.51829-1.28085-.71692a15.22308,15.22308,0,0,0-5.24779-1.38107c-.05326-.0031-.10652-.0031-.16268-.0062-.02365-.0031-.0473,0-.07095-.0031q-18.85413-1.14056-36.91527-1.139c-95.60565-.02484-174.67512,23.39739-238.93595,58.67813a472.56883,472.56883,0,0,0-62.63079,41.38535C960.21415,193.40849,877.512,79.67711,876.666,78.47916c-.19815-.27311-.5236-.391-.73656-.65173a15.95018,15.95018,0,0,0-3.15635-2.78385,9.993,9.993,0,0,0-6.082-2.5542,14.59592,14.59592,0,0,0-1.9228-.54932c-.1272-.0062-.2396.06828-.36382.06518-.139-.00311-.25738-.0838-.39938-.0838a15.00085,15.00085,0,0,0-5.03781,1.06761c-.32834.11793-.7159.0807-1.03539.21725a15.95573,15.95573,0,0,0-5.378,3.8856c-.06509.07137-.16268.0931-.22777.16449-1.45842,1.52693-88.46169,100.75247-136.10636,312.8466a471.55687,471.55687,0,0,0-59.22889-38.75978c-64.26073-35.28073-143.33021-58.703-238.93595-58.67813q-18.05532,0-36.91229,1.139c-.02663.0031-.05326,0-.07989.0031-.05326.00311-.10355.00311-.15681.00621a15.27428,15.27428,0,0,0-5.24192,1.378,14.05835,14.05835,0,0,0-1.29277.72622,19.10473,19.10473,0,0,0-4.4965,3.7025,16.705,16.705,0,0,0-2.95521,4.96872.78255.78255,0,0,1-.01779.08069c-.006.02174-.02365.031-.0325.05276-.03548.10551-.01183.211-.0473.31655a17.27647,17.27647,0,0,0-.81945,5.51494,16.79657,16.79657,0,0,0,.1124,1.68211,17.36126,17.36126,0,0,0,.9999,4.29837c.16566.4469.27219.90933.47333,1.34072a16.58227,16.58227,0,0,0,2.99664,4.50318c1.46727,1.69452,63.12777,67.85835,109.99144,225.3865-39.09842-11.25336-81.97439-18.68625-128.39427-18.69558-82.41518-.04034-174.98582,22.83567-272.33986,84.92148-.02663.01553-.05028.02794-.07692.04347-.04437.02794-.08874.04968-.13018.07757a15.95962,15.95962,0,0,0-4.01131,3.79562c-.31358.40347-.54726.85345-.82238,1.28486a17.03028,17.03028,0,0,0-1.84,3.91041c-.16864.52139-.355,1.03037-.47332,1.56729a17.4216,17.4216,0,0,0-.38752,5.8377c.003.02794.01774.05275.02072.08069.003.02174-.00591.04035-.003.06208.01481.11172.08581.19554.10057.30725a17.06606,17.06606,0,0,0,1.74239,5.26976,18.00447,18.00447,0,0,0,3.66221,4.739c.34314.31037.64192.66417,1.00876.94347a15.58727,15.58727,0,0,0,4.66211,2.50764c2.54107.959,130.54494,43.62919,281.46883,243.25031a88.75616,88.75616,0,0,0-5.11472,7.855,98.27069,98.27069,0,0,0-12.18475,47.53961,94.4023,94.4023,0,0,0,3.86638,26.414,93.90815,93.90815,0,0,0-55.3655,24.98638c-15.74052,14.98993-25.55876,34.12-25.75105,54.11288a47.63984,47.63984,0,0,0,6.87779,25.2564,44.64468,44.64468,0,0,0,20.84044,17.53483c45.31353,19.186,91.95238,26.383,138.58829,29.0675l-1.79859,38.95219a127.50778,127.50778,0,0,0-48.33383,32.09961,136.70658,136.70658,0,0,0-37.075,93.5802,138.64937,138.64937,0,0,0,6.13828,40.684c11.98063,39.22847,32.59922,80.319,66.25459,115.68972L411.55584,1661.386c-25.13865,13.32651-47.056,29.68512-64.72521,50.17448-31.03143,35.86734-48.00256,83.81041-47.87536,143.45986-.01481,59.75818,16.54218,116.70758,46.0561,167.95288a405.85182,405.85182,0,0,0,46.8784,64.62446l-4.248,92.05961a61.95915,61.95915,0,0,0-6.60564-.70143c-36.223.00928-65.56533,30.79305-65.57716,68.79878.0089,38.00252,29.35116,68.78629,65.57716,68.79557.10057,0,.19229-.03106.29286-.03106l-5.04079,109.27157a16.71379,16.71379,0,0,0,10.543,16.5541c138.325,52.00564,307.71983,77.70585,477.162,77.7337,169.44214-.02785,338.837-25.725,477.162-77.7337a16.71665,16.71665,0,0,0,10.54307-16.5541l-5.0407-109.27157c.10057,0,.19229.03106.29286.03106,36.223-.00928,65.56533-30.793,65.57418-68.79557-.00885-38.00251-29.35116-68.78628-65.57418-68.79859a61.19128,61.19128,0,0,0-6.60862.70143l-3.49371-75.74438c24.21277-25.00181,45.062-52.046,61.69606-80.94273,29.51383-51.24529,46.07078-108.19167,46.059-167.95287.12729-59.64945-16.84384-107.59271-47.87541-143.45986-21.24285-24.66047-48.80724-43.31262-80.64913-57.84632l-9.123-197.74351c42.71628-38.29422,67.48516-85.48936,81.1462-130.22029a138.81139,138.81139,0,0,0,6.13828-40.68086,136.71207,136.71207,0,0,0-37.07505-93.58021,126.13989,126.13989,0,0,0-64.11277-36.90386l-1.57678-34.14793c46.63284-2.68451,93.27471-9.88156,138.58535-29.06438a44.63839,44.63839,0,0,0,20.83751-17.53483,47.64817,47.64817,0,0,0,6.87783-25.2564c-.19229-19.99592-10.00754-39.12286-25.75109-54.11289a93.881,93.881,0,0,0-55.36261-24.98637,94.519,94.519,0,0,0,3.86637-26.414,98.26272,98.26272,0,0,0-12.18483-47.53961,89.24548,89.24548,0,0,0-5.10877-7.84573c56.44232-74.63019,109.70743-127.43652,154.3614-164.1976,38.58377-31.75827,70.76871-51.64868,93.10607-63.53827,11.16724-5.94633,19.87318-9.89088,25.683-12.31782,2.90493-1.2135,5.088-2.04833,6.49018-2.56039l1.51466-.53692.30767-.10244a15.59991,15.59991,0,0,0,4.65918-2.50455c.36978-.28243.67148-.63931,1.0176-.94968a16.36834,16.36834,0,0,0,2.80436-3.30525,16.56062,16.56062,0,0,0,.852-1.42763,17.17013,17.17013,0,0,0,1.7483-5.2853c.01481-.10551.08288-.1862.09768-.29171.00289-.02174-.00595-.03722-.00289-.059a.66424.66424,0,0,1,.02366-.08377A17.39711,17.39711,0,0,0,1655.51014,624.65725ZM1348.64523,943.04986c-.01192,12.40165-3.612,24.285-10.90688,33.66689a17.42213,17.42213,0,0,0-1.39622,19.03384,15.72769,15.72769,0,0,0,16.51848,8.01328,77.13051,77.13051,0,0,1,14.01891-1.319c18.67808.01553,33.53692,7.23115,43.85809,16.90794,10.38923,9.6085,15.35012,21.90464,15.15783,29.21336a13.00432,13.00432,0,0,1-1.71869,7.014c-1.0649,1.65111-2.5765,3.24009-6.06136,4.76078-40.6307,17.26481-83.66059,24.07089-128.17247,26.66845-5.2922.30725-10.59326.60521-15.92392.8007-1.76311.06516-3.53795.10238-5.30106.15513-3.5439.10864-7.079.24209-10.64056.3135-1.77791.03722-3.55275.08069-5.33355.10863-5.30106.07757-10.63172.10239-15.96239.11792-.10652,0-.21.00313-.31651.00313-2.0175.00625-4.01713.04659-6.0406.04659-16.41791,0-33.05178-.17067-49.68275-.26377-4.99935-.02794-9.91889-.07757-14.93-.07757-.4438,0-.89049.01241-1.33411.01241,1.05605-1.02109,2.07961-2.01414,3.183-3.06629,4.53189-4.31081,9.48989-8.876,14.76729-13.55619.61822-.54932,1.18335-1.07687,1.81041-1.6262,4.47575-3.94455,9.25915-7.95739,14.16678-11.97023,8.978-7.34291,18.5331-14.66413,28.517-21.51974.67743-.46551,1.37256-.89379,2.05289-1.35627,3.36642-2.278,6.75054-4.51254,10.185-6.66326,1.13586-.71071,2.2896-1.36555,3.43449-2.06073q6.40729-3.89649,12.89766-7.37085h0c.65668-.35384,1.31335-.70759,1.97309-1.05206.57976-.30412,1.15663-.62689,1.73639-.92486,4.18577-2.15071,8.37172-4.15254,12.56039-5.96807.72763-.31652,1.45544-.69831,2.18307-1.00243,8.17348-3.43869,12.14331-13.1744,8.86861-21.74941a16.46178,16.46178,0,0,0-3.9877-5.92147,15.61751,15.61751,0,0,0-5.79216-3.51939,15.00311,15.00311,0,0,0-10.9513.13657c-.05922.02482-.11537.05588-.1746.0807-1.65946.70143-3.28065,1.53935-4.93128,2.281q-8.249,3.71493-16.276,8.04122-7.49469,4.02677-14.75538,8.45084-8.12465,4.95787-15.91219,10.27575c-5.13241,3.51314-10.16137,7.09154-15.02765,10.74751-13.06938,9.81327-25.12981,19.93076-35.77634,29.46472-.2219.19861-.47034.40963-.69224.60521-4.91954,4.43185-9.40106,8.64642-13.652,12.71818-4.97569,4.7639-9.51644,9.23913-13.43914,13.23028-5.90754,6.01154-10.45424,10.8747-13.54549,14.26065-26.035,1.049-52.11445,3.18108-78.05477,7.92945a361.30876,361.30876,0,0,0-61.68414,16.79931c5.47267-5.93388,11.26185-12.06022,17.41782-18.26724,14.39455-14.51514,30.35693-29.18855,46.21874-41.255,5.46084-4.168,10.87727-7.85814,16.22861-11.28131a162.16653,162.16653,0,0,1,16.79067-9.54334,96.136,96.136,0,0,1,11.85343-4.90351,15.47755,15.47755,0,0,0,6.55536-4.50316,17.10645,17.10645,0,0,0,3.92551-16.44243c-2.62092-8.82022-11.55769-13.74239-19.9648-10.99575a136.28567,136.28567,0,0,0-18.44428,7.90152c-5.31288,2.67835-10.58739,5.70117-15.82931,9.00954q-7.22834,4.56222-14.35022,9.73883c-3.0026,2.18491-6.01993,4.32634-8.98994,6.64157-26.15924,20.50177-50.94591,45.73023-69.99666,66.81552,4.30711-25.9423,10.45722-56.84086,18.99162-87.06593,3.70659-13.19306,7.999-26.0695,12.61673-38.45259,1.35487-3.63418,2.67715-7.28087,4.10894-10.78785,1.20105-2.94213,2.50266-5.67011,3.75687-8.50672,1.03837-2.34933,2.03818-4.77319,3.10905-7.03879.03547-.07444.06806-.16139.10354-.23583,1.92579-4.05319,3.964-7.75879,6.00215-11.50786.65378-1.20416,1.30748-2.40833,1.97309-3.57527.136-.24208.2692-.50273.40823-.74178,1.13-1.96451,2.17422-4.18976,3.33392-6.04564q2.71562-4.35735,5.5318-8.27705a99.113,99.113,0,0,1,17.261-18.98421c7.93389-6.47392,15.79086-10.14542,24.26009-11.29058a134.14194,134.14194,0,0,1,17.63972-1.25076c14.24956.00928,24.1773,2.759,31.27992,6.45526,10.543,5.58629,15.81749,13.37614,19.27852,22.12182.46438,1.19488.76609,2.40521,1.13586,3.61562a69.017,69.017,0,0,1,2.84877,16.54169c.05327,1.16069.11538,2.35557.10942,3.299,0,1.558-.05326,2.77458-.10057,3.538l-.05615.78516v.01241a17.45692,17.45692,0,0,0,1.47621,9.20815,16.48649,16.48649,0,0,0,1.0974,1.7535,16.13944,16.13944,0,0,0,4.69169,5.1239,15.63664,15.63664,0,0,0,16.96824.10864l1.09452-.70144a720.43131,720.43131,0,0,1,64.243-36.09076c10.12581-4.99358,20.71925-9.63947,31.30059-13.941,5.43719-2.20972,10.87727-4.41319,16.20505-6.25363h0c.5886-.20486,1.20393-.49345,1.79271-.69206,4.91648-1.67592,9.69393-3.06942,14.365-4.30455,10.69383-2.83349,20.57119-4.50942,28.43412-4.47835,6.53459-.01553,11.55471,1.08,14.7496,2.63175.06807.03107.12422.0807.19229.11176a45.35589,45.35589,0,0,1,13.03669,9.67367,53.24977,53.24977,0,0,1,8.01369,10.79089c.633,1.13275,1.12124,2.3711,1.68024,3.55661A64.17492,64.17492,0,0,1,1348.64523,943.04986Zm-14.14313,271.95469a102.4237,102.4237,0,0,1,27.85726,70.04936,103.83232,103.83232,0,0,1-4.60882,30.44859c-10.16733,33.0866-26.57929,66.74108-52.82149,96.32372-4.75975,5.366-9.80352,10.61094-15.23764,15.68209-4.82475,4.50013-9.96909,8.8419-15.36186,13.06576-.61226.47792-1.13586,1.00243-1.75426,1.47732q-8.65708,6.62916-18.35255,12.75852c-5.14722,3.24321-10.70863,6.266-16.32331,9.25466-5.17683,2.75592-10.67306,5.32564-16.27,7.84573-23.76013,10.69475-51.38375,19.099-83.50965,24.42777a114.15462,114.15462,0,0,0-22.2368-27.67089,124.673,124.673,0,0,0-51.92513-28.01232,266.79435,266.79435,0,0,1,15.97718-26.5226,334.99428,334.99428,0,0,1,33.11687-41.32945,351.6356,351.6356,0,0,1,115.70073-81.30585c5.22125-2.28729,10.70574-4.3915,16.21678-6.49874h0c2.10923-.80694,4.23019-1.60451,6.38383-2.38351,3.31027-1.19792,6.40153-2.53866,9.81237-3.66213,1.81041-.59583,3.78946-1.06759,5.62948-1.64486,5.1028-1.59835,10.42769-3.02907,15.75836-4.45978,3.396-.90933,6.5494-2.00486,10.03715-2.83974a15.58266,15.58266,0,0,0,5.67083-2.68148,17.11467,17.11467,0,0,0,6.3275-17.34863,16.49717,16.49717,0,0,0-7.62027-10.66985,15.16433,15.16433,0,0,0-11.47183-1.918c-1.57082.37554-2.967.89067-4.52016,1.28174-5.41354,1.3593-10.54884,2.94212-15.75836,4.46594-.88146.25762-1.78964.49345-2.66533.75419-5.46084,1.6387-10.92168,3.26178-16.15756,5.07115-5.55545,1.918-10.89207,3.99418-16.19909,6.086-64.09219,25.28746-110.46774,62.43652-141.74756,96.2989-39.73145,42.98682-55.96006,80.319-56.5103,81.56347a16.459,16.459,0,0,0-.72772,3.32694c-.36382-.00313-.71292-.04963-1.07682-.04963a129.38534,129.38534,0,0,0-38.66357,6.09527,634.00514,634.00514,0,0,0-12.42443-100.60659,292.28269,292.28269,0,0,1,87.19854-91.27748c40.97086-27.70507,95.094-50.09692,166.56086-61.40919,5.2626-.83176,10.59615-1.62,16.05122-2.32764h0c2.16538-.28243,4.174-.66411,6.37191-.92486,2.479-.29483,4.89283-.33831,7.32452-.43756.76916-.0341,1.556-.12417,2.3221-.1397.52361-.00928,1.068-.09623,1.58851-.09623a91.73112,91.73112,0,0,1,12.08427.89067,90.43464,90.43464,0,0,1,16.12813,3.597A95.55807,95.55807,0,0,1,1334.5021,1215.00455Zm38.57185,518.97273c25.32806,29.58889,39.52137,67.66281,39.65155,121.03079-.0148,53.25621-14.62231,103.977-41.46792,150.66a365.99449,365.99449,0,0,1-36.5278,52.0242c-4.8159,5.76624-9.96908,11.37128-15.18149,16.94829-4.88993,5.23244-10.02235,10.32547-15.25244,15.381-35.59,34.3993-78.64048,64.761-127.96826,89.24156-86.5685,42.99609-191.46887,68.29909-304.53378,68.28981-150.75828.03732-286.98587-45.032-384.62393-116.84738A456.7101,456.7101,0,0,1,424.403,2075.224q-7.87615-8.39819-15.17553-17.06933c-5.2597-6.28147-10.30924-12.65613-15.08082-19.14559a356.39225,356.39225,0,0,1-21.81963-33.341c-26.84562-46.683-41.45312-97.40382-41.46793-150.66.1272-53.3712,14.32359-91.44512,39.65156-121.03079,10.8092-12.55992,24.0826-23.47184,39.24332-33.18586,5.27442-3.37969,10.62585-6.70976,16.415-9.76989,5.18279-2.74039,10.7294-5.25726,16.32033-7.75254,1.89328-.84407,3.58832-1.80937,5.52882-2.62559a358.20269,358.20269,0,0,1,34.21734-12.2c5.13242-1.57032,10.41876-3.04764,15.78192-4.47532,5.17981-1.38109,10.41578-2.72183,15.80268-3.97562,35.309-8.21189,74.857-13.81067,117.82476-17.41995,3.29836-.2794,6.863-.40972,10.19984-.66734a129.46549,129.46549,0,0,0,151.17237-5.79427c2.84878-.03107,5.59689-.10248,8.46336-.13033a135.3043,135.3043,0,0,0,22.61831,26.56608c14.4182,12.72433,31.76506,20.7377,50.41056,20.70663,17.96211.03107,34.74989-7.41744,48.822-19.34108,8.96927-7.57883,16.94451-17.10664,24.18028-27.91912,1.02943.0125,2.07077.01856,3.1002.03106a129.22662,129.22662,0,0,0,151.25516,5.79731c40.607,3.12529,78.34762,7.82394,112.46737,14.782q8.04935,1.64343,15.82336,3.45735c5.3572,1.25077,10.64652,2.54491,15.80259,3.926,5.12953,1.37484,10.23233,2.76843,15.15476,4.27662,8.40423,2.56346,16.36177,5.39383,24.11221,8.34846q8.39981,3.20277,16.27294,6.72851,8.47969,3.79406,16.33215,7.976C1340.028,1703.12531,1358.638,1717.17788,1373.074,1733.97728Zm-64.08335,457.852.99106,21.4918,3.34566,72.50429.97914,21.24668,4.96378,107.59271c-131.76674,47.6669-293.41692,71.97675-455.26543,71.95194-161.85148.02784-323.50174-24.285-455.2684-71.95194l4.96387-107.59252.97914-21.24668,3.34575-72.50429.991-21.4918,3.35459-72.72459c37.27908,35.06039,81.436,65.658,131.2371,90.39913,91.18624,45.26482,200.57716,71.49561,318.17695,71.50489,156.7959-.03732,299.01083-46.58681,402.92032-122.9023,10.99265-8.07853,21.45284-16.56659,31.55806-25.29977Zm37.97133,20.57328c18.5981.03732,33.6523,15.82785,33.685,35.34282-.03557,19.51176-15.08977,35.3055-33.685,35.33979-.633,0-1.22181-.16139-1.84291-.19871l-3.2274-69.94082A32.16172,32.16172,0,0,1,1346.96193,2212.40258ZM347.36,2247.74237c.03548-19.515,15.08977-35.3055,33.68787-35.34282a32.1594,32.1594,0,0,1,5.07031.54308l-3.2274,69.94082c-.62417.03732-1.21286.19871-1.84291.19871C362.44969,2283.04787,347.39549,2267.25412,347.36,2247.74237ZM381.21056,1285.054a102.42335,102.42335,0,0,1,27.85726-70.04946,97.73417,97.73417,0,0,1,23.94953-18.50629,92.04,92.04,0,0,1,16.29071-7.06048,90.93409,90.93409,0,0,1,13.87392-3.18421c.75436-.11791,1.4939-.27,2.25412-.36625a91.63955,91.63955,0,0,1,11.67893-.82247c.65081,0,1.32825.1055,1.98492.11791h0c3.04991.06516,6.11752.18005,9.24732.55245,2.334.27931,4.47277.68278,6.7713.98074,79.32388,10.372,138.30134,33.98655,182.2127,63.681a291.84424,291.84424,0,0,1,91.36075,98.5055,626.23136,626.23136,0,0,0-11.08437,95.22516,129.90646,129.90646,0,0,0-44.15988-7.93883c-.3668,0-.72177.04659-1.08865.04962a16.5039,16.5039,0,0,0-.72772-3.32693h0c-.55024-1.24139-16.77587-38.57666-56.5103-81.56347-33.80622-36.59974-85.11007-77.12234-157.54429-102.23591-5.2449-1.81866-10.69094-3.46039-16.16063-5.10838h0c-5.29519-1.59523-10.63172-3.15314-16.13987-4.57457-.781-.20174-1.50274-.45-2.28671-.64868-1.68619-.42516-3.20961-.9869-4.91647-1.3935a15.08716,15.08716,0,0,0-11.0636,1.7535,16.387,16.387,0,0,0-8.0285,10.83436,17.01655,17.01655,0,0,0,6.721,17.53483,15.38021,15.38021,0,0,0,5.2774,2.49518c3.62678.869,6.90446,2.008,10.43356,2.95766,1.77493.47791,3.49958.99315,5.25077,1.48972,5.39575,1.5331,10.98668,2.91731,16.14284,4.62733,3.27768,1.08625,6.23289,2.38664,9.416,3.53493,2.29258.82863,4.53786,1.6852,6.78313,2.548,60.79971,23.33839,104.06622,57.986,133.231,89.48364a335.54908,335.54908,0,0,1,31.41009,39.49223c2.84878,4.2053,5.41643,8.16538,7.58777,11.71887,3.80426,6.22256,6.51094,11.19749,8.37461,14.80373a124.64829,124.64829,0,0,0-51.90735,28.00607,114.0923,114.0923,0,0,0-22.23671,27.67088c-39.49185-6.55149-72.29519-17.69007-99.38039-32.04382-5.62948-2.98247-11.16417-6.02082-16.32331-9.25466h0c-5.78322-3.628-11.182-7.44841-16.40609-11.35262-.75138-.56174-1.61226-1.06759-2.35181-1.63558-5.92522-4.54663-11.47779-9.27947-16.73154-14.15826-5.43719-5.04321-10.47788-10.2695-15.24359-15.61068a232.95179,232.95179,0,0,1-15.08977-18.96555,266.55772,266.55772,0,0,1-38.11333-77.81752A103.59963,103.59963,0,0,1,381.21056,1285.054Zm-77.37741-229.477a13.01936,13.01936,0,0,1-1.71869-7.01084c-.19229-7.30881,4.77158-19.60486,15.15774-29.21336,10.31819-9.67982,25.1801-16.89241,43.8581-16.90794a77.13122,77.13122,0,0,1,14.0189,1.319,15.72784,15.72784,0,0,0,16.51858-8.01328,17.42839,17.42839,0,0,0-1.3992-19.03384c-7.29789-9.37883-10.89506-21.26221-10.90689-33.66386a63.95726,63.95726,0,0,1,6.14713-27.09987c.56206-1.18863,1.05019-2.427,1.68321-3.55974a53.378,53.378,0,0,1,8.01667-10.79088,45.24247,45.24247,0,0,1,13.03678-9.67367c.06509-.03106.12125-.07757.18634-.10863,3.19778-1.55489,8.22078-2.65354,14.75547-2.63488,7.86283-.03723,17.75212,1.69145,28.4371,4.51869,5.236,1.38725,10.614,2.9856,16.15169,4.91289h0c.494.17067.96731.298,1.46429.47488,4.85734,1.71,9.80641,3.73354,14.74066,5.7384a575.165,575.165,0,0,1,60.86182,29.55479c10.67316,5.937,19.672,11.28746,25.97589,15.13588,3.15047,1.92417,5.62948,3.4728,7.30375,4.53111s2.49371,1.5921,2.49669,1.5921a15.479,15.479,0,0,0,4.384,1.9397,15.23229,15.23229,0,0,0,12.59009-2.05449,16.236,16.236,0,0,0,4.71534-5.13318,16.86544,16.86544,0,0,0,1.08864-1.738,17.416,17.416,0,0,0,1.45545-9.2236v-.00928c-.03548-.40963-.1597-1.98005-.1597-4.31393-.00885-.90933.10056-2.18491.14787-3.28659a68.77253,68.77253,0,0,1,2.87829-16.53241,45.99885,45.99885,0,0,1,5.25971-12.01987,38.66539,38.66539,0,0,1,15.08381-13.73926c7.1056-3.69631,17.03324-6.446,31.28289-6.45527a133.60931,133.60931,0,0,1,17.63973,1.25077c9.02542,1.2197,17.39119,5.31939,25.83686,12.622a99.91088,99.91088,0,0,1,15.65769,17.659c3.12087,4.36043,6.15011,9.16781,9.09052,14.28859.139.24521.284.47488.426.72.63014,1.10481,1.25133,2.219,1.86955,3.35488,2.047,3.75835,4.032,7.69977,5.96666,11.76537.03548.07444.071.15211.10942.22655,1.0649,2.24382,2.121,4.50013,3.1475,6.82777,1.16845,2.64729,2.334,5.31011,3.45218,8.05362.08874.21727.16864.4531.25738.6735,1.38439,3.38594,2.689,6.90221,3.99655,10.40294,14.50405,38.80946,24.50862,83.99662,30.74747,120.45978.32535,1.8931.59456,3.63731.89924,5.48078-5.56728-6.16356-11.5074-12.60026-17.94729-19.25423-15.61626-16.12894-33.43934-33.04313-52.04638-47.59236-2.95223-2.2997-5.946-4.42247-8.93081-6.5981q-7.1529-5.20464-14.40935-9.7823c-5.236-3.30525-10.50452-6.32182-15.81451-9.00017a135.98307,135.98307,0,0,0-18.45908-7.91089c-8.40721-2.74967-17.34687,2.17553-19.9648,10.99575a17.125,17.125,0,0,0,4.01127,16.55722,15.45915,15.45915,0,0,0,6.46959,4.3915,95.57773,95.57773,0,0,1,11.88305,4.88807,164.01015,164.01015,0,0,1,16.64866,9.5154c6.4222,4.10594,12.95689,8.63089,19.51514,13.77336,21.645,16.89866,42.91741,38.12355,60.36186,57.03635a361.3239,361.3239,0,0,0-61.58358-16.76521c-25.9404-4.74524-52.01686-6.8774-78.05476-7.92633-3.09424-3.3921-7.64988-8.26151-13.56626-14.28234-3.91665-3.98177-8.45153-8.45084-13.41838-13.20859-4.25095-4.07185-8.73256-8.28642-13.652-12.71817-.19228-.1738-.41121-.36-.60638-.5338-10.66431-9.55575-22.75734-19.70108-35.85921-29.53926q-7.30376-5.484-15.02757-10.74751Q510.213,1002.836,502.07946,997.886q-7.26381-4.43179-14.75548-8.45084-8.03147-4.31076-16.276-8.04122c-1.65071-.74481-3.27172-1.57969-4.93128-2.281-.05913-.02482-.11537-.05588-.17162-.0807a15.01123,15.01123,0,0,0-10.95418-.13657,15.56034,15.56034,0,0,0-5.79216,3.51939,16.46389,16.46389,0,0,0-3.98762,5.92147c-3.2747,8.575.69513,18.31384,8.86861,21.75254.72773.30412,1.45545.69206,2.18317,1.00555q6.29206,2.728,12.57529,5.95254c.57388.29484,1.14777.63,1.72166.931.65966.34759,1.31642.71384,1.97607,1.06759h0q6.48734,3.48207,12.883,7.36772c1.15076.69831,2.30152,1.38724,3.44921,2.10421,3.44334,2.157,6.83937,4.38212,10.21762,6.66941.65378.44382,1.31343.87523,1.96722,1.32521,9.97206,6.84945,19.57435,14.11792,28.54949,21.45457,5.61468,4.587,10.93352,9.15228,15.98017,13.63688,1.02943.91558,2.13288,1.85275,3.13567,2.75905,4.14443,3.73041,7.96052,7.30568,11.61086,10.7816,1.0975,1.04278,2.15951,2.06689,3.20961,3.0787-.44073,0-.88453-.01241-1.32526-.01241-5.14722,0-10.20579.04963-15.33821.0807-16.49194.0931-32.99265.26074-49.27461.26074-2.02337,0-4.02309-.03722-6.0406-.0466-.10652,0-.21007-.00313-.31651-.00313-5.33364-.01553-10.66431-.04034-15.96238-.11791-1.7808-.02794-3.55573-.07141-5.33364-.10864-3.56169-.07141-7.09377-.20486-10.64057-.31349-1.766-.05276-3.54092-.09-5.301-.15514-5.33364-.19861-10.6347-.49345-15.9269-.80069-44.51486-2.59766-87.54168-9.40365-128.1754-26.66846C306.40974,1058.81714,304.8981,1057.22816,303.83315,1055.57705ZM642.21757,380.988a441.39222,441.39222,0,0,1,66.55927,45.13441,1283.82963,1283.82963,0,0,0-19.78731,157.34506A657.2236,657.2236,0,0,0,539.32288,393.0669,645.24969,645.24969,0,0,0,449.53294,327.08C525.92517,331.55519,589.39021,352.02907,642.21757,380.988Zm101.78537,31.80169c14.82345-70.64218,34.16417-128.77409,53.46932-174.852,18.22833-43.502,36.3532-76.21919,50.59094-98.92451V529.9101c-1.414.149-2.77773.4531-4.17693.64243a152.85441,152.85441,0,0,0-33.27368,8.395c-37.16966,13.972-67.96145,41.94087-86.385,78.02854-1.70687.19861-3.42267.37241-5.12953.58035A1289.49676,1289.49676,0,0,1,736.6963,450.77978c1.1448-6.567,2.36362-12.94785,3.58832-19.31939C741.49144,425.15718,742.71911,418.9036,744.00294,412.78967Zm240.97125,21.31185q1.97014,9.36638,3.81609,18.9718a1182.9594,1182.9594,0,0,1,19.92932,164.46142c-1.64177-.19861-3.29248-.3662-4.93426-.55861-18.43542-36.10937-49.25086-64.09067-86.45312-78.05335a152.5028,152.5028,0,0,0-33.09629-8.35154c-1.43765-.19241-2.83694-.509-4.28643-.661V145.32884c28.5643,51.37247,72.239,143.8696,101.04881,270.35641C982.371,421.71848,983.67257,427.9131,984.97419,434.10152Zm106.47407-56.16429c51.70026-27.34816,113.36382-46.58065,187.079-50.88833a645.48307,645.48307,0,0,0-89.84022,66.018,657.26628,657.26628,0,0,0-150.16958,191.39682,1215.70428,1215.70428,0,0,0-22.05624-156.19053A442.38043,442.38043,0,0,1,1091.44826,377.93723Zm190.99862,317.53911a16.24456,16.24456,0,0,0-8.286-8.82638c-17.64857-7.74638-36.03669-14.72616-54.765-21.31184,5.25375-28.49649,11.14648-55.01288,17.46513-79.59583,41.55369-13.87892,88.18653-23.236,138.95513-23.22668,60.21985.031,126.27629,13.23648,196.64867,47.23856A621.473,621.473,0,0,0,1385.55453,646.655,613.09183,613.09183,0,0,0,1282.44688,695.47634Zm-187.46356,798.4659a84.84919,84.84919,0,0,1,6.32172,6.97362,79.09332,79.09332,0,0,1,10.92458,15.68512,72.83623,72.83623,0,0,1,6.23885,16.16312,71.49335,71.49335,0,0,1,2.20979,17.07236c-.02076,21.43288-9.43374,41.0223-25.69485,55.89432-.82242.75106-1.85483,1.3127-2.71264,2.03592a91.833,91.833,0,0,1-24.85473,15.01162,99.42319,99.42319,0,0,1-37.28206,7.24677,98.20782,98.20782,0,0,1-43.73387-10.16086,90.29666,90.29666,0,0,1-23.8756-17.029c-1.82819-1.83116-3.63264-3.68694-5.26259-5.65145a15.62661,15.62661,0,0,0-13.83546-5.62663,16.01878,16.01878,0,0,0-12.26167,8.76424c-.37275.73856-.781,1.36252-1.1596,2.08555a150.34446,150.34446,0,0,1-10.10225,16.65354,100.75043,100.75043,0,0,1-14.33541,16.6473c-.73955.67662-1.47314,1.50515-2.21566,2.12589-9.84487,8.2367-19.2815,11.93614-28.84832,11.96721-9.91582-.03107-19.73405-4.016-29.94869-12.91375-.37862-.33206-.75137-.78516-1.13-1.12973a100.31691,100.31691,0,0,1-14.4182-16.72476,154.04262,154.04262,0,0,1-9.93948-16.6596c-1.02644-1.95826-2.0974-3.78014-3.08539-5.84694a15.90564,15.90564,0,0,0-12.6847-9.13362,15.5601,15.5601,0,0,0-14.13717,6.36842,82.04869,82.04869,0,0,1-7.9309,9.04989,90.08236,90.08236,0,0,1-23.707,17.04148,100.09418,100.09418,0,0,1-81.3532,2.92338,91.87365,91.87365,0,0,1-25.10914-15.201c-.775-.65786-1.71282-1.16381-2.45824-1.84347-16.2612-14.872-25.67409-34.46143-25.69485-55.89431a71.51414,71.51414,0,0,1,2.2098-17.07245,72.74506,72.74506,0,0,1,6.23884-16.16313,79.31173,79.31173,0,0,1,10.92756-15.68824,85.36061,85.36061,0,0,1,6.32163-6.97362c16.23755-14.79445,39.193-24.30673,64.85241-24.29432a99.39548,99.39548,0,0,1,37.96248,7.54777,94.53155,94.53155,0,0,1,13.73489,6.85874,15.46815,15.46815,0,0,0,1.8282.81,15.162,15.162,0,0,0,14.32945-.78213,16.87854,16.87854,0,0,0,7.8836-14.79757c-.07393-3.31766-.21892-6.05189-.213-8.37015-.003-2.95453.15383-6.08911.21594-9.12121a566.40052,566.40052,0,0,1,7.32154-77.712c1.65658-10.22612,3.61486-20.3777,5.75072-30.43618A535.35556,535.35556,0,0,1,817.8072,1285.529c8.79467-26.42335,19.32294-49.09137,29.98417-64.01311,5.29808-7.47019,10.59028-12.93231,15.19323-16.1724,4.665-3.27106,8.28-4.348,11.52509-4.36356,3.24509.01866,6.86005,1.0924,11.5251,4.36356,8.11724,5.60807,18.06565,18.32,27.05262,36.01631,12.66105,24.614,23.846,58.41431,32.01946,94.57648.22777,1.00868.45852,2.01727.68042,3.0321h0c.39044,1.769.8105,3.51315,1.18623,5.29145,1.30748,6.16356,2.36065,12.43575,3.48478,18.68312,6.04954,33.57692,9.58748,67.83036,9.57864,97.96555.003.50586-.02068,1.1731-.04442,1.89623-.0325.97761-.071,2.10724-.0947,3.52251a16.96672,16.96672,0,0,0,7.55229,14.45927,15.34673,15.34673,0,0,0,15.705.64242,96.64746,96.64746,0,0,1,9.04907-4.20529,98.79647,98.79647,0,0,1,37.93585-7.585C1055.79028,1469.63551,1078.74587,1479.14779,1094.98332,1493.94224ZM1261.00885,1151.935c-3.118.13657-6.22116.18307-9.37741.55861-.49111.059-.94358.149-1.43468.20789-5.4993.66724-10.71748,1.53622-16.05122,2.32451-78.22628,11.56373-138.86927,35.90768-185.18569,67.25622a325.92137,325.92137,0,0,0-80.19062,76.812c-2.34882-8.40747-4.81888-16.66586-7.46941-24.62325-9.56681-28.54612-20.90549-53.74976-34.52212-72.96052-6.84226-9.593-14.294-17.76139-22.89934-23.88469-8.54921-6.09223-18.60993-10.11436-29.37481-10.0957-10.76487-.01866-20.82857,4.00356-29.3748,10.0957-15.001,10.77536-26.74206,27.51575-37.28206,47.88407-11.4926,22.45085-21.22209,49.67488-29.09088,78.96581a325.82926,325.82926,0,0,0-84.14276-82.19661c-49.39585-33.43106-114.86648-59.05371-200.83743-69.52182-.63014-.07757-1.204-.18933-1.83407-.2669a124.4919,124.4919,0,0,0-14.16677-.84416c-.216,0-.44074-.03723-.65966-.03723-3.41968,0-6.77428.2669-10.12291.54621l1.40515-30.46716c2.7334.05588,5.46672.11479,8.19714.15211q7.99152.10712,15.96238.12417c1.67725.00625,3.36046.03722,5.03483.04034,21.67166,0,43.24872-.34134,64.61281-.34134,41.21651-.00625,81.64011,1.28486,120.48116,8.40747,38.86768,7.13189,76.0935,19.98039,111.69234,43.17605a15.30226,15.30226,0,0,0,16.78183.03409,16.98592,16.98592,0,0,0,7.51383-15.74412c-.06509-.54933-6.04954-70.6701-24.9405-143.56546a550.089,550.089,0,0,0-19.34361-60.44711q-2.831-7.28082-5.89571-14.33206,23.97025-3.63579,47.9256-5.47462,23.7972-1.80156,47.57949-1.84347,23.92582.0047,47.86647,1.859,23.82374,1.81093,47.66236,5.45909c-1.09452,2.50143-2.30152,4.87567-3.3546,7.42048-.923,2.25319-1.75128,4.59323-2.6387,6.88052-16.87355,43.44919-27.6739,92.59956-34.457,131.949-7.10857,41.39158-9.72064,71.7501-9.75314,72.09154a16.989,16.989,0,0,0,7.51383,15.74412,15.30243,15.30243,0,0,0,16.78182-.0341c35.59587-23.19879,72.82476-36.04425,111.69235-43.17605,38.841-7.1226,79.26465-8.41362,120.48124-8.40746,21.36707,0,42.94106.34134,64.6158.34134,1.67427,0,3.36046-.0341,5.03492-.04035q7.97377-.0233,15.96238-.12416c2.7334-.03723,5.46373-.09623,8.19713-.15211ZM476.479,715.00367l-.06211-1.60143c12.35935-5.2046,24.89906-10.24161,37.85008-14.88135,5.029-1.8,10.27079-3.37041,15.37965-5.08668,5.09992-1.71,10.1732-3.448,15.35-5.07423a933.79838,933.79838,0,0,1,94.74785-24.2167c7.1529-1.44625,14.26436-2.93284,21.49716-4.23631,7.17068-1.29106,14.45079-2.35558,21.68945-3.507,1.05606-.16759,2.10625-.34759,3.16231-.51206.281-.04347.55908-.0931.84011-.13657,5.06146-.78521,10.046-1.73176,15.14-2.44868,3.0055-.42208,6.01695-.80382,9.03138-1.20416a172.27654,172.27654,0,0,0-4.6414,25.22225c-.52658,5.10217-.772,10.285-.849,15.51137-.01183.84724-.12124,1.66967-.12124,2.52,0,2.65349.26036,5.23562.37862,7.85809.10355,2.33076.142,4.68009.33727,6.986a173.20212,173.20212,0,0,0,3.22144,21.58182c.82242,3.85145,1.72763,7.67189,2.79849,11.41783-1.559.20174-3.14452.31658-4.70053.52452-3.47584.4655-6.88668,1.06451-10.34771,1.56108-48.63563,6.9705-96.03465,16.90481-140.92822,30.08859-.991.29171-1.95241.62074-2.9404.91245-4.28643,1.27558-8.3776,2.78074-12.61672,4.1122q-7.84068,2.4626-15.55118,5.068c-2.57361.86283-5.21529,1.648-7.7712,2.5325-12.77345,4.42247-25.189,9.21119-37.4507,14.1737l-1.80445-45.66819Zm277.0937-84.53353a140.247,140.247,0,0,1,20.89664-29.04269,125.4021,125.4021,0,0,1,54.38636-33.61727,120.98,120.98,0,0,1,16.50666-3.69626c.90222-.13966,1.78973-.31345,2.69783-.43142a122.07426,122.07426,0,0,1,15.00391-1.11414c.31651-.00312.6212-.04967.94068-.04967.31065,0,.60937.04655.917.04967a121.84519,121.84519,0,0,1,15.02756,1.11727c.90819.121,1.79561.29171,2.69783.43141a120.83064,120.83064,0,0,1,16.52743,3.70247,125.40417,125.40417,0,0,1,54.3627,33.61106A140.247,140.247,0,0,1,974.434,630.47326a134.76361,134.76361,0,0,1,7.82149,17.70556,138.0615,138.0615,0,0,1,8.36577,47.1858c0,2.96387-.23959,5.85944-.423,8.77055a137.811,137.811,0,0,1-6.90446,35.43279,135.4269,135.4269,0,0,1-5.56439,13.91922,133.4668,133.4668,0,0,1-24.195,35.8052,124.82052,124.82052,0,0,1-61.08363,35.42038,120.6071,120.6071,0,0,1-12.50722,2.32139c-1.75128.22967-3.50246.44382-5.2774.599-1.411.12416-2.84579.1521-4.26864.22655-2.13288.11176-4.23615.33831-6.39855.33831-2.2246,0-4.39287-.22968-6.59084-.35072-1.35785-.07444-2.73042-.09935-4.07636-.21727-1.77493-.15514-3.52612-.36928-5.2774-.599a120.69038,120.69038,0,0,1-12.36819-2.28416,124.81525,124.81525,0,0,1-61.22266-35.46073,133.479,133.479,0,0,1-24.195-35.80833,135.43122,135.43122,0,0,1-5.56439-13.91926,137.69419,137.69419,0,0,1-6.90446-35.43284c-.18344-2.91419-.423-5.80976-.423-8.77362a138.06154,138.06154,0,0,1,8.36577-47.18581A136.42981,136.42981,0,0,1,753.57273,630.47014Zm494.51462,171.70815c-12.25869-4.96252-24.67716-9.74811-37.45061-14.17371-2.56187-.88764-5.20933-1.6728-7.79179-2.53865q-7.71649-2.58833-15.53338-5.06187c-4.239-1.33136-8.3302-2.83662-12.61673-4.11219-.988-.29484-1.94943-.62378-2.94049-.91246-44.89357-13.18368-92.29259-23.11809-140.92822-30.08859-3.46112-.49657-6.87485-1.09553-10.35068-1.56108-1.556-.20794-3.14164-.32586-4.69765-.52452,1.07087-3.74594,1.97607-7.56637,2.79849-11.41783a173.10711,173.10711,0,0,0,3.21557-21.50733c.19816-2.33076.23662-4.70494.34016-7.06047.11836-2.62247.37863-5.2046.37863-7.85809,0-.33519-.04442-.658-.04731-.99315-.02663-4.83219-.27805-9.60538-.69224-14.332-.0799-.90313-.139-1.80933-.23075-2.70937a172.27692,172.27692,0,0,0-4.6414-25.22226c3.00549.39727,6.00512.77588,8.99879,1.198,5.11472.72,10.11994,1.66968,15.20216,2.458.25738.04035.51476.08377.77205.12412,1.07086.16759,2.13288.34759,3.20076.51831,7.24165,1.15141,14.52473,2.21592,21.69243,3.507,7.25645,1.3066,14.3857,2.79935,21.55927,4.24873a934.43712,934.43712,0,0,1,94.68583,24.20429c5.17683,1.62625,10.25021,3.36421,15.35012,5.07423,5.094,1.71,10.32117,3.27418,15.33532,5.07115,12.96574,4.64286,25.52035,9.68294,37.89441,14.89687l-.06211,1.60144-1.63889,41.50642Zm-42.59494-222.78576q-2.52468,9.91106-4.96089,20.19765-6.24779,26.48382-11.72334,55.6305c-20.33756-6.30326-41.08624-12.05406-62.32909-17.06933-7.57007-1.78763-15.31167-3.27418-22.97924-4.89735-7.37769-1.56109-14.65192-3.30213-22.11248-4.71115-8.768-1.66039-17.69886-2.96386-26.56747-4.41319A624.27759,624.27759,0,0,1,1209.125,418.74841a613.09768,613.09768,0,0,1,84.73145-62.34958c-25.03213,42.00915-57.05168,108.384-83.14872,203.42294C1208.9446,566.23982,1207.19629,572.70754,1205.49241,579.39253ZM526.085,425.15405A623.76862,623.76862,0,0,1,673.26674,624.11721c-8.89525,1.45245-17.85269,2.76525-26.64439,4.42559-7.46056,1.41211-14.7347,3.15007-22.11248,4.71115-7.644,1.61692-15.36484,3.10039-22.91117,4.88182-21.26642,5.0184-42.03586,10.77228-62.39418,17.08174q-5.4667-29.13735-11.73517-55.677-2.42271-10.27881-4.94906-20.1511c-1.70389-6.68187-3.45219-13.15272-5.21529-19.57076-26.10309-95.05132-58.12544-161.4324-83.16064-203.44155A614.97019,614.97019,0,0,1,526.085,425.15405ZM508.57243,665.35053C489.859,671.93309,471.48564,678.90666,453.8489,686.65a16.23476,16.23476,0,0,0-8.28588,8.82638,612.81675,612.81675,0,0,0-103.1077-48.81826A621.47192,621.47192,0,0,0,155.545,609.7573c70.37238-34.00521,136.42877-47.20755,196.64858-47.23857,50.70631-.0124,97.38953,9.24846,138.91071,23.09944C497.43192,610.23214,503.31282,636.81374,508.57243,665.35053ZM332.00994,678.26736A582.75252,582.75252,0,0,1,445.3116,734.06545l4.93426,124.88541a131.057,131.057,0,0,0-27.06444-3.22768c-9.6496.01554-19.11584,1.44313-27.95782,5.636a74.46746,74.46746,0,0,0-6.66189,3.90109c-93.393-123.045-179.01193-188.78984-233.89815-222.06264A591.26908,591.26908,0,0,1,332.00994,678.26736Zm120.351,790.92121a273.83892,273.83892,0,0,0,22.60947,15.46794c5.22125,3.22768,10.72046,6.27219,16.32331,9.24851h0c5.21827,2.77458,10.71161,5.35358,16.27,7.89536,24.96713,11.4209,53.43971,20.37457,85.76088,26.29917a105.63236,105.63236,0,0,0-2.31334,21.7371,107.42508,107.42508,0,0,0,19.36428,61.19192c-34.74095,3.46967-67.5562,8.2833-97.9013,15.0334-5.45489,1.21345-10.50154,2.7529-15.79673,4.09344-5.29518,1.34074-10.6643,2.61935-15.79672,4.09345-2.37834.68268-4.9757,1.1856-7.31856,1.89631-10.16138,3.10352-19.89087,6.60122-29.38076,10.32226Zm794.93955,160.72476c-5.18279-1.31592-10.47789-2.54168-15.81144-3.73353-5.2301-1.16685-10.45424-2.33692-15.82336-3.3922-25.93453-5.09284-53.51951-8.88851-82.4507-11.77475a107.41746,107.41746,0,0,0,19.35246-61.17639,105.8393,105.8393,0,0,0-2.31325-21.737c25.5913-4.69249,48.98762-11.11991,69.91685-19.3442,5.64121-2.219,10.91861-4.6925,16.24043-7.135,5.5643-2.55418,11.05187-5.155,16.27293-7.94186q12.3534-6.5918,23.44958-13.99688l7.42509,160.93275Q1266.1382,1634.64627,1247.3005,1629.91333Zm85.47407-768.55414c-8.83612-4.18976-18.30236-5.61735-27.949-5.63288a130.86585,130.86585,0,0,0-27.06444,3.22768l4.93435-124.88542a583.106,583.106,0,0,1,113.30171-55.79809,591.17225,591.17225,0,0,1,177.34642-35.06971c-54.88631,33.27275-140.50518,99.02073-233.89815,222.06576A72.11628,72.11628,0,0,0,1332.77457,861.35919ZM1248.85238,1717.911c-1.04125-.31653-2.15942-.58664-3.2097-.89692-5.15607-1.52391-10.38617-2.998-15.7849-4.36356a106.03971,106.03971,0,0,0-19.92879-2.825c-47.65905-4.50453-80.94239,1.77546-132.36524,6.82066-64.76874,4.25123-133.81194,9.93123-205.7759,9.93123-71.9609,0-142.70013-7.70079-206.22849-11.91453-57.57977-3.8136-96.70961-13.63538-151.19742-3.24341-5.39874,1.36252-10.63172,2.83036-15.78788,4.348-1.18028.3476-2.42872.64859-3.59717,1.00243-4.27163,1.30342-8.209,2.669-12.1611,4.0315-17.61309,6.06742-30.24163,13.41092-42.30513,20.72588-.56793.34134-.99395.73553-1.553,1.08312-6.19742,3.8453-11.71158,8.87134-17.14885,14.39324-6.718,5.85015-11.6376,13.37685-16.12517,19.87256a86.614,86.614,0,0,0-8.67046,15.28477c-7.48421,17.52868-8.46038,35.02932-8.47816,50.84486-.00885,23.27332,3.84561,58.01817,10.966,79.91022a244.07208,244.07208,0,0,0,14.37089,34.53587,268.33523,268.33523,0,0,0,14.77317,25.79323c.02663.04034.04731.08069.07394.121,17.96806,27.48155,41.394,52.73795,68.94059,75.49926,5.31586,4.39463,10.83584,8.64946,16.46532,12.84537,1.99972,1.48963,3.97281,2.998,6.0081,4.46282,3.43738,2.47046,6.87187,4.9377,10.41577,7.33675a508.81033,508.81033,0,0,0,75.76517,42.1829c3.59717,1.61995,7.38067,3.05066,11.04292,4.60867,74.55826,31.73658,161.85736,50.32963,254.428,50.33891a670.06667,670.06667,0,0,0,194.88259-28.80373c52.74747-16.09475,101.02515-38.20122,142.26522-65.43141,1.02952-.67965,1.99981-1.4059,3.0203-2.09181.3194-.214.62706-.44078.94664-.65483.17749-.121.349-.24512.5265-.36313q8.41306-5.712,16.421-11.694c27.3898-20.45224,51.14127-43.26925,70.4522-68.07557,5.13837-6.598,10.07272-13.28617,14.5602-20.15731.15383-.239.2869-.48417.44073-.723a267.71434,267.71434,0,0,0,14.7673-25.88339c15.992-31.898,24.98789-66.201,24.976-101.75184-.00884-10.58612-.4586-21.796-2.95819-33.38456-3.63562-17.38282-10.22941-41.59874-24.57187-59.42984a96.47759,96.47759,0,0,0-6.21124-7.68328,65.81546,65.81546,0,0,0-13.97266-11.27483,177.00424,177.00424,0,0,0-16.38253-9.084A285.14787,285.14787,0,0,0,1248.85238,1717.911Zm-697.20871,340.1848c-7.91908-5.23244-15.43877-10.69465-22.73964-16.26863-5.68265-4.33874-11.19378-8.76121-16.483-13.28919-5.14135-4.40088-10.1407-8.86672-14.89449-13.432a64.53113,64.53113,0,0,1,14.02477-8.58751,80.94482,80.94482,0,0,1,25.0825-5.251,63.88744,63.88744,0,0,1,46.42584,20.17587,70.32833,70.32833,0,0,1,19.23121,48.70646v16.53856A470.61056,470.61056,0,0,1,551.64367,2058.09577Zm-45.63-304.98942c3.80426-1.16382,7.82736-2.22838,11.82391-3.30525,24.82513-6.68191,53.22964.27092,84.44744-3.44387v82.45717a70.33335,70.33335,0,0,1-19.23121,48.70646,63.27585,63.27585,0,0,1-59.90633,18.70177,62.51662,62.51662,0,0,1-16.20793-6.28469,66.01879,66.01879,0,0,1-16.43869-12.15644c-.09172-.09623-.20709-.16442-.29881-.25761-11.9067-12.51654-19.22228-41.63456-19.23122-60.70875v-50.45691c4.66208-2.19732,9.7443-4.37285,15.34417-6.508,4.86032-1.85275,10.12292-3.67462,15.74346-5.46221C503.39858,1753.96292,504.63212,1753.52838,506.01363,1753.10635Zm735.88813,1.437a252.12382,252.12382,0,0,1,30.70007,11.85847v62.41583a70.34508,70.34508,0,0,1-19.22823,48.70664,66.12441,66.12441,0,0,1-16.33812,12.18448,60.53708,60.53708,0,0,1-30.08763,7.98855c-.73359,0-1.40813-.1987-2.13577-.22655a63.88927,63.88927,0,0,1-44.29-19.94932,70.322,70.322,0,0,1-19.23113-48.70664v-82.45717c24.94041,2.96694,48.04694-5.1963,69.02943-.37964q8.12465,1.86222,15.8026,3.93224c3.86041,1.04277,7.75929,2.07,11.43933,3.19671C1239.10336,1753.578,1240.41382,1754.06843,1241.90176,1754.54332Zm-192.74077,74.2743a70.34513,70.34513,0,0,1-19.22824,48.70664,63.50217,63.50217,0,0,1-92.85167,0,70.32277,70.32277,0,0,1-19.23121-48.70645v-68.654c45.58572.24208,89.65388-10.90667,131.31112-8.92359Zm-223.43507,0a70.33417,70.33417,0,0,1-19.23122,48.70664,63.50217,63.50217,0,0,1-92.85167,0,70.307,70.307,0,0,1-19.22823-48.70645v-77.57776c41.65723-1.98308,85.7254,9.16567,131.31112,8.92359Zm-131.31112,241.326a70.333,70.333,0,0,1,19.22823-48.70645,63.50219,63.50219,0,0,1,92.85167,0,70.32828,70.32828,0,0,1,19.23122,48.70645v75.44017a634.20647,634.20647,0,0,1-131.31112-23.0839Zm223.441,0a70.322,70.322,0,0,1,19.23121-48.70645,63.88166,63.88166,0,0,1,46.42584-20.17587h0a63.89635,63.89635,0,0,1,46.42583,20.17284,70.32821,70.32821,0,0,1,19.23121,48.70645v52.21344a634.13323,634.13323,0,0,1-131.31111,23.025v-75.2354Zm223.438,16.73424v-16.73424a70.32235,70.32235,0,0,1,19.23113-48.70645,63.99168,63.99168,0,0,1,40.15746-19.51175,62.295,62.295,0,0,1,6.26846-.66412h0a79.67831,79.67831,0,0,1,25.46113,5.37527,64.52715,64.52715,0,0,1,13.52184,8.36077c-4.594,4.41016-9.4101,8.71784-14.365,12.97589-5.31586,4.56529-10.77959,9.04989-16.48887,13.42576-5.36028,4.10595-10.74421,8.20261-16.43869,12.12538A462.59541,462.59541,0,0,1,1141.29387,2086.87791ZM760.344,1569.969a17.26275,17.26275,0,0,1-3.6711,23.34152,15.46952,15.46952,0,0,1-22.24854-3.85155c-8.07291-11.79331-15.45358-17.99106-21.53562-21.40182a30.79111,30.79111,0,0,0-15.353-4.22073,31.40307,31.40307,0,0,0-6.98427.81c-2.10922.47167-3.254.9062-5.71226,1.53926a17.41957,17.41957,0,0,1-4.35739.55861h0c-8.8065,0-15.94469-7.48886-15.94469-16.728a16.62384,16.62384,0,0,1,7.87765-14.09613,14.99484,14.99484,0,0,1,5.25374-2.03593l-.06509-.2793.10653-.02794.47919-.13658c.85492-.24824,2.35767-.69518,4.20356-1.15453a62.71668,62.71668,0,0,1,15.1489-1.90248,60.12132,60.12132,0,0,1,17.29658,2.70933,63.517,63.517,0,0,1,13.06043,5.44668C738.89716,1544.68471,749.98441,1554.78969,760.344,1569.969Zm260.76742-31.43236a63.66877,63.66877,0,0,1,10.87727-4.7515,60.534,60.534,0,0,1,19.47965-3.4045,61.805,61.805,0,0,1,13.00419,1.4059c3.41671.7324,6.17674,1.62,6.863,1.797l.03845.01241-.06211.28243a15.09814,15.09814,0,0,1,5.03185,1.86213,16.63476,16.63476,0,0,1,8.12618,14.27315c0,9.23913-7.1381,16.728-15.94469,16.728a17.39338,17.39338,0,0,1-4.35739-.55861l-1.84-.4997-3.04693-.84407a32.28734,32.28734,0,0,0-7.81256-1.00546,30.79111,30.79111,0,0,0-15.353,4.22073c-6.085,3.41379-13.46569,9.61154-21.53562,21.40182a15.47265,15.47265,0,0,1-22.24854,3.85155,17.26218,17.26218,0,0,1-3.6711-23.34152C999.01963,1554.78969,1010.107,1544.68471,1021.11145,1538.53659ZM864.00491,2308.177c-36.223.00928-65.56533,30.793-65.57716,68.7986.00885,38.00251,29.35413,68.78629,65.57716,68.79557,36.223-.00928,65.56532-30.79306,65.57715-68.79557C929.57023,2338.97326,900.22793,2308.18626,864.00491,2308.177Zm0,104.13839c-18.59811-.0341-33.6524-15.83107-33.68787-35.33979.0325-19.51175,15.08976-35.3055,33.68787-35.34282,18.5981.03732,33.65239,15.83107,33.68489,35.34282C897.6573,2396.48752,882.603,2412.28127,864.00491,2412.31537Zm193.26745-118.89865c-36.223.00929-65.56533,30.79306-65.57716,68.7986.00885,38.00252,29.35116,68.78629,65.57716,68.79557,36.223-.00928,65.56533-30.79305,65.57706-68.79557C1122.83769,2324.21281,1093.49538,2293.426,1057.27236,2293.41672Zm0,104.13839c-18.59811-.03732-33.65239-15.83106-33.68787-35.33979.0325-19.515,15.08976-35.3055,33.68787-35.34281,18.5981.03409,33.65239,15.82784,33.68787,35.34281C1090.92475,2381.724,1075.87046,2397.521,1057.27236,2397.55511Zm164.86583-150.00216c-36.223.00928-65.56533,30.79609-65.57725,68.79879.01192,38.00251,29.354,68.78628,65.57707,68.79557,36.223-.00929,65.56533-30.79306,65.57706-68.79557C1287.70352,2278.34922,1258.36121,2247.56545,1222.13819,2247.55295Zm0,104.13839c-18.59811-.03732-33.6523-15.82785-33.68787-35.34282.03557-19.51176,15.08976-35.3055,33.68787-35.34282,18.5981.03732,33.6523,15.83106,33.68787,35.34282C1255.79049,2335.86349,1240.73629,2351.65724,1222.13819,2351.69134Zm-551.40074-58.27462c-36.223.00929-65.56532,30.79306-65.57715,68.7986.01183,38.00252,29.35413,68.78629,65.57715,68.79557,36.223-.00928,65.56533-30.79305,65.57716-68.79557C736.30278,2324.21281,706.96048,2293.426,670.73745,2293.41672Zm0,104.13839c-18.5981-.03732-33.65239-15.83106-33.68489-35.33979.0325-19.515,15.08679-35.3055,33.68489-35.34281,18.59811.03409,33.65239,15.82784,33.68787,35.34281C704.38984,2381.724,689.33565,2397.521,670.73745,2397.55511ZM505.87162,2247.55295c-36.223.00928-65.56533,30.79609-65.57715,68.79879.01182,38.00251,29.35413,68.78628,65.57715,68.79557,36.223-.00929,65.56533-30.79306,65.57716-68.79557C571.437,2278.34922,542.09464,2247.56545,505.87162,2247.55295Zm0,104.13839c-18.5981-.03732-33.65239-15.83107-33.68787-35.34282.0325-19.51176,15.08977-35.3055,33.68787-35.34282,18.59811.03732,33.65239,15.83106,33.68787,35.34282C539.524,2335.86349,524.46973,2351.65724,505.87162,2351.69134Zm316.763-1588.21085a74.9759,74.9759,0,0,0,17.21967,8.37328,72.56863,72.56863,0,0,0,8.206,2.6721,75.49817,75.49817,0,0,0,8.493.9869,35.587,35.587,0,0,0,14.89747,0,75.59985,75.59985,0,0,0,8.49884-.9869,72.75849,72.75849,0,0,0,8.206-2.6721,75.05683,75.05683,0,0,0,17.37937-8.46638,79.48741,79.48741,0,0,0,25.10616-27.91921,82.101,82.101,0,0,0-7.76525-91.85163A78.1013,78.1013,0,0,0,903.56772,626.209a74.83129,74.83129,0,0,0-12.099-6.26291,73.64248,73.64248,0,0,0-11.51625-3.75214c-1.96424-.43449-4.04973-.45623-6.06723-.72933-.70109-.09623-1.414-.149-2.12105-.22347a37.01412,37.01412,0,0,0-15.51859,0c-.72474.07757-1.45246.13037-2.17133.22967-1.99972.2731-4.06454.29484-6.014.72313a73.49209,73.49209,0,0,0-11.50443,3.74594,74.72445,74.72445,0,0,0-12.11081,6.26911,78.16382,78.16382,0,0,0-19.30813,17.40759,82.101,82.101,0,0,0-7.76525,91.85163A79.38231,79.38231,0,0,0,822.63466,763.48049Zm57.31493-23.84424c-1.32824.52759-2.70677.94034-4.09414,1.33761a38.44395,38.44395,0,0,1-23.75426-.01861c-1.3667-.39414-2.72745-.79761-4.04088-1.319a44.29831,44.29831,0,0,1-10.194-5.6577c-.88742-.66417-1.67436-1.45245-2.51448-2.17865a48.17473,48.17473,0,0,1-16.61021-36.44148,48.87153,48.87153,0,0,1,5.82466-22.81392,46.728,46.728,0,0,1,15.10448-17.08794,44.249,44.249,0,0,1,8.38645-4.376,43.16842,43.16842,0,0,1,11.48077-2.728,42.44716,42.44716,0,0,1,4.46392-.481,64.39557,64.39557,0,0,1,15.94459,3.20907,44.18142,44.18142,0,0,1,8.38943,4.376,46.574,46.574,0,0,1,13.8917,14.74789,48.93491,48.93491,0,0,1,7.03753,25.154A48.15967,48.15967,0,0,1,892.655,731.79994c-.84012.7262-1.627,1.51454-2.51448,2.17866A44.21783,44.21783,0,0,1,879.94959,739.63625Z"/></svg>