<svg xmlns="http://www.w3.org/2000/svg" viewBox="0 0 1245.49077 1092.28616"><defs><style>.cls-1{fill:none;}.cls-1,.cls-2,.cls-3,.cls-4{stroke:#231f20;stroke-miterlimit:10;stroke-width:0.25px;}.cls-2{fill:#fff;}.cls-3{fill:#00a651;}.cls-3,.cls-4{opacity:0.5;}.cls-4{fill:#be1e2d;}</style></defs><title>top-floor</title><g id="Layer_1" data-name="Layer 1"><circle class="cls-1" cx="622.74538" cy="545.64698" r="17.5"/><circle class="cls-2" cx="922.55268" cy="1081.71022" r="8.125"/><circle class="cls-2" cx="322.55268" cy="1081.71022" r="8.125"/><line class="cls-1" x1="314.42768" y1="1081.71029" x2="930.67768" y2="1081.71015"/><rect class="cls-1" x="322.55268" y="1073.58522" width="600" height="16.25"/><circle class="cls-2" cx="922.55268" cy="9.58374" r="8.125"/><circle class="cls-2" cx="322.55268" cy="9.58374" r="8.125"/><line class="cls-1" x1="314.42768" y1="9.58381" x2="930.67768" y2="9.58367"/><rect class="cls-1" x="322.55268" y="1.45874" width="600" height="16.25"/><circle class="cls-2" cx="8.42899" cy="554.09356" r="8.125"/><circle class="cls-2" cx="308.42899" cy="1073.7088" r="8.125"/><line class="cls-1" x1="312.49155" y1="1080.74522" x2="4.36643" y2="547.05714"/><rect class="cls-1" x="235.6836" y="1260.1292" width="600" height="16.25" transform="translate(-672.06956 1911.94389) rotate(-120)"/><circle class="cls-2" cx="937.23941" cy="17.57985" r="8.125"/><circle class="cls-2" cx="1237.23941" cy="537.19509" r="8.125"/><line class="cls-1" x1="1241.30197" y1="544.23151" x2="933.17685" y2="10.54343"/><rect class="cls-1" x="1164.49403" y="723.61549" width="600" height="16.25" transform="translate(1185.78057 1911.54674) rotate(-120)"/><circle class="cls-2" cx="937.12136" cy="1073.42244" r="8.125"/><circle class="cls-2" cx="1237.12136" cy="553.8072" r="8.125"/><line class="cls-1" x1="1241.18379" y1="546.7707" x2="933.05892" y2="1080.45893"/><rect class="cls-1" x="1164.37597" y="1259.84284" width="600" height="16.25" transform="translate(2917.4017 179.41194) rotate(120)"/><circle class="cls-2" cx="8.25136" cy="537.75412" r="8.125"/><circle class="cls-2" cx="308.25136" cy="18.13888" r="8.125"/><line class="cls-1" x1="312.31379" y1="11.10239" x2="4.18892" y2="544.79061"/><rect class="cls-1" x="235.50597" y="724.17452" width="600" height="16.25" transform="translate(1060.19433 180.33448) rotate(120)"/></g><g id="Layer_3" data-name="Layer 3"><rect class="cls-3" x="332.43525" y="0.125" width="390" height="20"/><rect class="cls-3" x="245.59433" y="721.84242" width="580" height="20" transform="translate(1059.93101 179.57232) rotate(120)"/><rect class="cls-3" x="1174.62144" y="1257.95953" width="580" height="20" transform="translate(2917.76271 179.1869) rotate(120)"/><rect class="cls-3" x="332.44034" y="1072.16116" width="580" height="20"/><rect class="cls-3" x="245.37856" y="1258.4037" width="580" height="20" transform="translate(-672.65661 1911.90397) rotate(-120)"/><rect class="cls-3" x="1316.06152" y="802.37091" width="390.97225" height="20" transform="translate(1186.53301 2073.24201) rotate(-120)"/><circle class="cls-1" cx="622.44034" cy="545.46576" r="27.5"/><rect class="cls-4" x="564.63755" y="1268.92643" width="584.99999" height="10" transform="translate(-1050.53716 943.62047) rotate(-60.70004)"/><rect class="cls-4" x="849.72658" y="1268.99766" width="585" height="10" transform="translate(1317.00058 -799.92814) rotate(60.7)"/><rect class="cls-4" x="924.55471" y="848.70337" width="291.81596" height="10.21708" transform="translate(1961.65654 -116.21893) rotate(119.29996)"/><rect class="cls-4" x="564.70779" y="720.95536" width="585" height="10" transform="translate(266.37222 1374.41672) rotate(-119.3)"/><rect class="cls-4" x="873.32331" y="1254.98958" width="584.99999" height="10" transform="translate(300.36767 2451.35146) rotate(-120.70004)"/><rect class="cls-4" x="1015.92951" y="1008.13085" width="585" height="10" transform="translate(-364.77952 -470.26253) rotate(0.7)"/><rect class="cls-4" x="1015.63525" y="980.29969" width="584.99999" height="10" transform="translate(2250.95627 1500.1905) rotate(179.29996)"/><rect class="cls-4" x="948.4198" y="865.5955" width="277.45976" height="9.99182" transform="translate(-593.72152 906.55219) rotate(-59.3)"/><rect class="cls-4" x="541.85764" y="734.72743" width="584.99999" height="10" transform="translate(667.18325 -809.71263) rotate(59.29996)"/><rect class="cls-4" x="399.25144" y="981.58616" width="585" height="10" transform="translate(994.14348 1527.19682) rotate(-179.3)"/><rect class="cls-4" x="399.07932" y="1008.67389" width="584.99999" height="10" transform="translate(-389.5877 -445.82789) rotate(-0.70004)"/><rect class="cls-4" x="541.56215" y="1255.60384" width="585" height="10" transform="translate(1966.56513 732.67301) rotate(120.7)"/><rect class="cls-4" x="472.28213" y="248.11162" width="249.70443" height="10"/><rect class="cls-4" x="521.48381" y="19.18746" width="10" height="228.96754"/><rect class="cls-4" x="712.33984" y="19.13707" width="10" height="228.96754"/><rect class="cls-4" x="548.75101" y="383.91912" width="147.5" height="10"/><rect class="cls-4" x="849.99705" y="1287.53964" width="300" height="10" transform="translate(1622.73949 2130.72625) rotate(180)"/><rect class="cls-4" x="1090.79537" y="1297.49625" width="10" height="228.96754" transform="translate(1814.33612 2369.60703) rotate(180)"/><rect class="cls-4" x="907.93941" y="1297.54664" width="10" height="228.96754" transform="translate(1448.6242 2369.7078) rotate(180)"/><rect class="cls-4" x="926.02817" y="1151.73213" width="147.5" height="10" transform="translate(1622.30173 1859.11124) rotate(180)"/><rect class="cls-4" x="595.93326" y="850.01535" width="300" height="10" transform="translate(-744.753 619.15181) rotate(-60)"/><rect class="cls-4" x="589.59569" y="763.77516" width="10" height="228.96754" transform="translate(-840.55131 499.71142) rotate(-60)"/><rect class="cls-4" x="680.98004" y="605.39206" width="10" height="228.96754" transform="translate(-657.69535 499.66104) rotate(-60)"/><rect class="cls-4" x="789.90545" y="917.72955" width="147.5" height="10" transform="translate(-744.53412 754.95931) rotate(-60)"/><rect class="cls-4" x="597.55355" y="1141.89203" width="300" height="10" transform="translate(-249.16247 1913.38512) rotate(-119.99997)"/><rect class="cls-4" x="687.01424" y="1175.09221" width="10" height="228.96754" transform="translate(-456.03938 2079.31251) rotate(-119.99997)"/><rect class="cls-4" x="595.54269" y="1016.75945" width="10" height="228.96754" transform="translate(-456.12643 1762.59674) rotate(-119.99997)"/><rect class="cls-4" x="791.30689" y="1073.79878" width="147.5" height="10" transform="translate(-13.937 1913.00617) rotate(-119.99997)"/><rect class="cls-4" x="1101.63666" y="1139.78661" width="300" height="10" transform="translate(2491.61465 178.87775) rotate(120)"/><rect class="cls-4" x="1397.97422" y="1007.05925" width="10" height="228.96754" transform="translate(2698.49147 12.9502) rotate(120)"/><rect class="cls-4" x="1306.58988" y="1165.44235" width="10" height="228.96754" transform="translate(2698.57874 329.66601) rotate(120)"/><rect class="cls-4" x="1060.16447" y="1072.07241" width="147.5" height="10" transform="translate(2256.38915 179.25686) rotate(120)"/><rect class="cls-4" x="1141.34799" y="868.24757" width="251.02034" height="10" transform="translate(1012.42904 -1114.86058) rotate(60)"/><rect class="cls-4" x="1305.1525" y="594.87102" width="10" height="228.96754" transform="translate(892.1409 -1234.30097) rotate(60)"/><rect class="cls-4" x="1396.62411" y="753.20373" width="10" height="228.96754" transform="translate(1074.99686 -1234.35136) rotate(60)"/><rect class="cls-4" x="1063.35994" y="915.13206" width="147.5" height="10" transform="translate(988.15809 -979.05308) rotate(60)"/><rect class="cls-4" x="1151.86604" y="754.87888" width="63.21423" height="10" transform="translate(1451.19648 1555.33708) rotate(-149.99998)"/><rect class="cls-4" x="1093.28411" y="704.66651" width="59.59676" height="10" transform="translate(1363.61219 1431.44418) rotate(-149.99998)"/></g></svg>